G75*
%MOIN*%
%OFA0B0*%
%FSLAX25Y25*%
%IPPOS*%
%LPD*%
%AMOC8*
5,1,8,0,0,1.08239X$1,22.5*
%
%ADD10C,0.00000*%
%ADD11R,0.03307X0.01969*%
%ADD12R,0.01969X0.03307*%
%ADD13R,0.02559X0.04331*%
%ADD14R,0.02559X0.02559*%
%ADD15R,0.04331X0.02559*%
%ADD16R,0.09646X0.09646*%
%ADD17C,0.00433*%
%ADD18C,0.00520*%
%ADD19C,0.00197*%
%ADD20R,0.14567X0.14567*%
%ADD21R,0.02362X0.08661*%
%ADD22R,0.03937X0.02165*%
%ADD23R,0.02165X0.03937*%
%ADD24R,0.04331X0.03937*%
%ADD25R,0.02756X0.03543*%
%ADD26R,0.03543X0.02756*%
%ADD27R,0.03937X0.04331*%
%ADD28R,0.04724X0.05906*%
%ADD29R,0.03150X0.03150*%
%ADD30C,0.01213*%
%ADD31R,0.16929X0.13386*%
%ADD32R,0.03150X0.03543*%
%ADD33R,0.01181X0.03898*%
%ADD34R,0.05906X0.04724*%
%ADD35R,0.03937X0.03937*%
%ADD36C,0.01600*%
%ADD37C,0.01969*%
%ADD38C,0.00800*%
%ADD39C,0.01200*%
%ADD40C,0.00600*%
%ADD41C,0.01000*%
D10*
X0031033Y0023661D02*
X0031033Y0173661D01*
X0156033Y0173661D01*
X0156033Y0023661D01*
X0031033Y0023661D01*
X0034734Y0033661D02*
X0034736Y0033819D01*
X0034742Y0033977D01*
X0034752Y0034135D01*
X0034766Y0034293D01*
X0034784Y0034450D01*
X0034805Y0034607D01*
X0034831Y0034763D01*
X0034861Y0034919D01*
X0034894Y0035074D01*
X0034932Y0035227D01*
X0034973Y0035380D01*
X0035018Y0035532D01*
X0035067Y0035683D01*
X0035120Y0035832D01*
X0035176Y0035980D01*
X0035236Y0036126D01*
X0035300Y0036271D01*
X0035368Y0036414D01*
X0035439Y0036556D01*
X0035513Y0036696D01*
X0035591Y0036833D01*
X0035673Y0036969D01*
X0035757Y0037103D01*
X0035846Y0037234D01*
X0035937Y0037363D01*
X0036032Y0037490D01*
X0036129Y0037615D01*
X0036230Y0037737D01*
X0036334Y0037856D01*
X0036441Y0037973D01*
X0036551Y0038087D01*
X0036664Y0038198D01*
X0036779Y0038307D01*
X0036897Y0038412D01*
X0037018Y0038514D01*
X0037141Y0038614D01*
X0037267Y0038710D01*
X0037395Y0038803D01*
X0037525Y0038893D01*
X0037658Y0038979D01*
X0037793Y0039063D01*
X0037929Y0039142D01*
X0038068Y0039219D01*
X0038209Y0039291D01*
X0038351Y0039361D01*
X0038495Y0039426D01*
X0038641Y0039488D01*
X0038788Y0039546D01*
X0038937Y0039601D01*
X0039087Y0039652D01*
X0039238Y0039699D01*
X0039390Y0039742D01*
X0039543Y0039781D01*
X0039698Y0039817D01*
X0039853Y0039848D01*
X0040009Y0039876D01*
X0040165Y0039900D01*
X0040322Y0039920D01*
X0040480Y0039936D01*
X0040637Y0039948D01*
X0040796Y0039956D01*
X0040954Y0039960D01*
X0041112Y0039960D01*
X0041270Y0039956D01*
X0041429Y0039948D01*
X0041586Y0039936D01*
X0041744Y0039920D01*
X0041901Y0039900D01*
X0042057Y0039876D01*
X0042213Y0039848D01*
X0042368Y0039817D01*
X0042523Y0039781D01*
X0042676Y0039742D01*
X0042828Y0039699D01*
X0042979Y0039652D01*
X0043129Y0039601D01*
X0043278Y0039546D01*
X0043425Y0039488D01*
X0043571Y0039426D01*
X0043715Y0039361D01*
X0043857Y0039291D01*
X0043998Y0039219D01*
X0044137Y0039142D01*
X0044273Y0039063D01*
X0044408Y0038979D01*
X0044541Y0038893D01*
X0044671Y0038803D01*
X0044799Y0038710D01*
X0044925Y0038614D01*
X0045048Y0038514D01*
X0045169Y0038412D01*
X0045287Y0038307D01*
X0045402Y0038198D01*
X0045515Y0038087D01*
X0045625Y0037973D01*
X0045732Y0037856D01*
X0045836Y0037737D01*
X0045937Y0037615D01*
X0046034Y0037490D01*
X0046129Y0037363D01*
X0046220Y0037234D01*
X0046309Y0037103D01*
X0046393Y0036969D01*
X0046475Y0036833D01*
X0046553Y0036696D01*
X0046627Y0036556D01*
X0046698Y0036414D01*
X0046766Y0036271D01*
X0046830Y0036126D01*
X0046890Y0035980D01*
X0046946Y0035832D01*
X0046999Y0035683D01*
X0047048Y0035532D01*
X0047093Y0035380D01*
X0047134Y0035227D01*
X0047172Y0035074D01*
X0047205Y0034919D01*
X0047235Y0034763D01*
X0047261Y0034607D01*
X0047282Y0034450D01*
X0047300Y0034293D01*
X0047314Y0034135D01*
X0047324Y0033977D01*
X0047330Y0033819D01*
X0047332Y0033661D01*
X0047330Y0033503D01*
X0047324Y0033345D01*
X0047314Y0033187D01*
X0047300Y0033029D01*
X0047282Y0032872D01*
X0047261Y0032715D01*
X0047235Y0032559D01*
X0047205Y0032403D01*
X0047172Y0032248D01*
X0047134Y0032095D01*
X0047093Y0031942D01*
X0047048Y0031790D01*
X0046999Y0031639D01*
X0046946Y0031490D01*
X0046890Y0031342D01*
X0046830Y0031196D01*
X0046766Y0031051D01*
X0046698Y0030908D01*
X0046627Y0030766D01*
X0046553Y0030626D01*
X0046475Y0030489D01*
X0046393Y0030353D01*
X0046309Y0030219D01*
X0046220Y0030088D01*
X0046129Y0029959D01*
X0046034Y0029832D01*
X0045937Y0029707D01*
X0045836Y0029585D01*
X0045732Y0029466D01*
X0045625Y0029349D01*
X0045515Y0029235D01*
X0045402Y0029124D01*
X0045287Y0029015D01*
X0045169Y0028910D01*
X0045048Y0028808D01*
X0044925Y0028708D01*
X0044799Y0028612D01*
X0044671Y0028519D01*
X0044541Y0028429D01*
X0044408Y0028343D01*
X0044273Y0028259D01*
X0044137Y0028180D01*
X0043998Y0028103D01*
X0043857Y0028031D01*
X0043715Y0027961D01*
X0043571Y0027896D01*
X0043425Y0027834D01*
X0043278Y0027776D01*
X0043129Y0027721D01*
X0042979Y0027670D01*
X0042828Y0027623D01*
X0042676Y0027580D01*
X0042523Y0027541D01*
X0042368Y0027505D01*
X0042213Y0027474D01*
X0042057Y0027446D01*
X0041901Y0027422D01*
X0041744Y0027402D01*
X0041586Y0027386D01*
X0041429Y0027374D01*
X0041270Y0027366D01*
X0041112Y0027362D01*
X0040954Y0027362D01*
X0040796Y0027366D01*
X0040637Y0027374D01*
X0040480Y0027386D01*
X0040322Y0027402D01*
X0040165Y0027422D01*
X0040009Y0027446D01*
X0039853Y0027474D01*
X0039698Y0027505D01*
X0039543Y0027541D01*
X0039390Y0027580D01*
X0039238Y0027623D01*
X0039087Y0027670D01*
X0038937Y0027721D01*
X0038788Y0027776D01*
X0038641Y0027834D01*
X0038495Y0027896D01*
X0038351Y0027961D01*
X0038209Y0028031D01*
X0038068Y0028103D01*
X0037929Y0028180D01*
X0037793Y0028259D01*
X0037658Y0028343D01*
X0037525Y0028429D01*
X0037395Y0028519D01*
X0037267Y0028612D01*
X0037141Y0028708D01*
X0037018Y0028808D01*
X0036897Y0028910D01*
X0036779Y0029015D01*
X0036664Y0029124D01*
X0036551Y0029235D01*
X0036441Y0029349D01*
X0036334Y0029466D01*
X0036230Y0029585D01*
X0036129Y0029707D01*
X0036032Y0029832D01*
X0035937Y0029959D01*
X0035846Y0030088D01*
X0035757Y0030219D01*
X0035673Y0030353D01*
X0035591Y0030489D01*
X0035513Y0030626D01*
X0035439Y0030766D01*
X0035368Y0030908D01*
X0035300Y0031051D01*
X0035236Y0031196D01*
X0035176Y0031342D01*
X0035120Y0031490D01*
X0035067Y0031639D01*
X0035018Y0031790D01*
X0034973Y0031942D01*
X0034932Y0032095D01*
X0034894Y0032248D01*
X0034861Y0032403D01*
X0034831Y0032559D01*
X0034805Y0032715D01*
X0034784Y0032872D01*
X0034766Y0033029D01*
X0034752Y0033187D01*
X0034742Y0033345D01*
X0034736Y0033503D01*
X0034734Y0033661D01*
X0139734Y0033661D02*
X0139736Y0033819D01*
X0139742Y0033977D01*
X0139752Y0034135D01*
X0139766Y0034293D01*
X0139784Y0034450D01*
X0139805Y0034607D01*
X0139831Y0034763D01*
X0139861Y0034919D01*
X0139894Y0035074D01*
X0139932Y0035227D01*
X0139973Y0035380D01*
X0140018Y0035532D01*
X0140067Y0035683D01*
X0140120Y0035832D01*
X0140176Y0035980D01*
X0140236Y0036126D01*
X0140300Y0036271D01*
X0140368Y0036414D01*
X0140439Y0036556D01*
X0140513Y0036696D01*
X0140591Y0036833D01*
X0140673Y0036969D01*
X0140757Y0037103D01*
X0140846Y0037234D01*
X0140937Y0037363D01*
X0141032Y0037490D01*
X0141129Y0037615D01*
X0141230Y0037737D01*
X0141334Y0037856D01*
X0141441Y0037973D01*
X0141551Y0038087D01*
X0141664Y0038198D01*
X0141779Y0038307D01*
X0141897Y0038412D01*
X0142018Y0038514D01*
X0142141Y0038614D01*
X0142267Y0038710D01*
X0142395Y0038803D01*
X0142525Y0038893D01*
X0142658Y0038979D01*
X0142793Y0039063D01*
X0142929Y0039142D01*
X0143068Y0039219D01*
X0143209Y0039291D01*
X0143351Y0039361D01*
X0143495Y0039426D01*
X0143641Y0039488D01*
X0143788Y0039546D01*
X0143937Y0039601D01*
X0144087Y0039652D01*
X0144238Y0039699D01*
X0144390Y0039742D01*
X0144543Y0039781D01*
X0144698Y0039817D01*
X0144853Y0039848D01*
X0145009Y0039876D01*
X0145165Y0039900D01*
X0145322Y0039920D01*
X0145480Y0039936D01*
X0145637Y0039948D01*
X0145796Y0039956D01*
X0145954Y0039960D01*
X0146112Y0039960D01*
X0146270Y0039956D01*
X0146429Y0039948D01*
X0146586Y0039936D01*
X0146744Y0039920D01*
X0146901Y0039900D01*
X0147057Y0039876D01*
X0147213Y0039848D01*
X0147368Y0039817D01*
X0147523Y0039781D01*
X0147676Y0039742D01*
X0147828Y0039699D01*
X0147979Y0039652D01*
X0148129Y0039601D01*
X0148278Y0039546D01*
X0148425Y0039488D01*
X0148571Y0039426D01*
X0148715Y0039361D01*
X0148857Y0039291D01*
X0148998Y0039219D01*
X0149137Y0039142D01*
X0149273Y0039063D01*
X0149408Y0038979D01*
X0149541Y0038893D01*
X0149671Y0038803D01*
X0149799Y0038710D01*
X0149925Y0038614D01*
X0150048Y0038514D01*
X0150169Y0038412D01*
X0150287Y0038307D01*
X0150402Y0038198D01*
X0150515Y0038087D01*
X0150625Y0037973D01*
X0150732Y0037856D01*
X0150836Y0037737D01*
X0150937Y0037615D01*
X0151034Y0037490D01*
X0151129Y0037363D01*
X0151220Y0037234D01*
X0151309Y0037103D01*
X0151393Y0036969D01*
X0151475Y0036833D01*
X0151553Y0036696D01*
X0151627Y0036556D01*
X0151698Y0036414D01*
X0151766Y0036271D01*
X0151830Y0036126D01*
X0151890Y0035980D01*
X0151946Y0035832D01*
X0151999Y0035683D01*
X0152048Y0035532D01*
X0152093Y0035380D01*
X0152134Y0035227D01*
X0152172Y0035074D01*
X0152205Y0034919D01*
X0152235Y0034763D01*
X0152261Y0034607D01*
X0152282Y0034450D01*
X0152300Y0034293D01*
X0152314Y0034135D01*
X0152324Y0033977D01*
X0152330Y0033819D01*
X0152332Y0033661D01*
X0152330Y0033503D01*
X0152324Y0033345D01*
X0152314Y0033187D01*
X0152300Y0033029D01*
X0152282Y0032872D01*
X0152261Y0032715D01*
X0152235Y0032559D01*
X0152205Y0032403D01*
X0152172Y0032248D01*
X0152134Y0032095D01*
X0152093Y0031942D01*
X0152048Y0031790D01*
X0151999Y0031639D01*
X0151946Y0031490D01*
X0151890Y0031342D01*
X0151830Y0031196D01*
X0151766Y0031051D01*
X0151698Y0030908D01*
X0151627Y0030766D01*
X0151553Y0030626D01*
X0151475Y0030489D01*
X0151393Y0030353D01*
X0151309Y0030219D01*
X0151220Y0030088D01*
X0151129Y0029959D01*
X0151034Y0029832D01*
X0150937Y0029707D01*
X0150836Y0029585D01*
X0150732Y0029466D01*
X0150625Y0029349D01*
X0150515Y0029235D01*
X0150402Y0029124D01*
X0150287Y0029015D01*
X0150169Y0028910D01*
X0150048Y0028808D01*
X0149925Y0028708D01*
X0149799Y0028612D01*
X0149671Y0028519D01*
X0149541Y0028429D01*
X0149408Y0028343D01*
X0149273Y0028259D01*
X0149137Y0028180D01*
X0148998Y0028103D01*
X0148857Y0028031D01*
X0148715Y0027961D01*
X0148571Y0027896D01*
X0148425Y0027834D01*
X0148278Y0027776D01*
X0148129Y0027721D01*
X0147979Y0027670D01*
X0147828Y0027623D01*
X0147676Y0027580D01*
X0147523Y0027541D01*
X0147368Y0027505D01*
X0147213Y0027474D01*
X0147057Y0027446D01*
X0146901Y0027422D01*
X0146744Y0027402D01*
X0146586Y0027386D01*
X0146429Y0027374D01*
X0146270Y0027366D01*
X0146112Y0027362D01*
X0145954Y0027362D01*
X0145796Y0027366D01*
X0145637Y0027374D01*
X0145480Y0027386D01*
X0145322Y0027402D01*
X0145165Y0027422D01*
X0145009Y0027446D01*
X0144853Y0027474D01*
X0144698Y0027505D01*
X0144543Y0027541D01*
X0144390Y0027580D01*
X0144238Y0027623D01*
X0144087Y0027670D01*
X0143937Y0027721D01*
X0143788Y0027776D01*
X0143641Y0027834D01*
X0143495Y0027896D01*
X0143351Y0027961D01*
X0143209Y0028031D01*
X0143068Y0028103D01*
X0142929Y0028180D01*
X0142793Y0028259D01*
X0142658Y0028343D01*
X0142525Y0028429D01*
X0142395Y0028519D01*
X0142267Y0028612D01*
X0142141Y0028708D01*
X0142018Y0028808D01*
X0141897Y0028910D01*
X0141779Y0029015D01*
X0141664Y0029124D01*
X0141551Y0029235D01*
X0141441Y0029349D01*
X0141334Y0029466D01*
X0141230Y0029585D01*
X0141129Y0029707D01*
X0141032Y0029832D01*
X0140937Y0029959D01*
X0140846Y0030088D01*
X0140757Y0030219D01*
X0140673Y0030353D01*
X0140591Y0030489D01*
X0140513Y0030626D01*
X0140439Y0030766D01*
X0140368Y0030908D01*
X0140300Y0031051D01*
X0140236Y0031196D01*
X0140176Y0031342D01*
X0140120Y0031490D01*
X0140067Y0031639D01*
X0140018Y0031790D01*
X0139973Y0031942D01*
X0139932Y0032095D01*
X0139894Y0032248D01*
X0139861Y0032403D01*
X0139831Y0032559D01*
X0139805Y0032715D01*
X0139784Y0032872D01*
X0139766Y0033029D01*
X0139752Y0033187D01*
X0139742Y0033345D01*
X0139736Y0033503D01*
X0139734Y0033661D01*
X0139734Y0163661D02*
X0139736Y0163819D01*
X0139742Y0163977D01*
X0139752Y0164135D01*
X0139766Y0164293D01*
X0139784Y0164450D01*
X0139805Y0164607D01*
X0139831Y0164763D01*
X0139861Y0164919D01*
X0139894Y0165074D01*
X0139932Y0165227D01*
X0139973Y0165380D01*
X0140018Y0165532D01*
X0140067Y0165683D01*
X0140120Y0165832D01*
X0140176Y0165980D01*
X0140236Y0166126D01*
X0140300Y0166271D01*
X0140368Y0166414D01*
X0140439Y0166556D01*
X0140513Y0166696D01*
X0140591Y0166833D01*
X0140673Y0166969D01*
X0140757Y0167103D01*
X0140846Y0167234D01*
X0140937Y0167363D01*
X0141032Y0167490D01*
X0141129Y0167615D01*
X0141230Y0167737D01*
X0141334Y0167856D01*
X0141441Y0167973D01*
X0141551Y0168087D01*
X0141664Y0168198D01*
X0141779Y0168307D01*
X0141897Y0168412D01*
X0142018Y0168514D01*
X0142141Y0168614D01*
X0142267Y0168710D01*
X0142395Y0168803D01*
X0142525Y0168893D01*
X0142658Y0168979D01*
X0142793Y0169063D01*
X0142929Y0169142D01*
X0143068Y0169219D01*
X0143209Y0169291D01*
X0143351Y0169361D01*
X0143495Y0169426D01*
X0143641Y0169488D01*
X0143788Y0169546D01*
X0143937Y0169601D01*
X0144087Y0169652D01*
X0144238Y0169699D01*
X0144390Y0169742D01*
X0144543Y0169781D01*
X0144698Y0169817D01*
X0144853Y0169848D01*
X0145009Y0169876D01*
X0145165Y0169900D01*
X0145322Y0169920D01*
X0145480Y0169936D01*
X0145637Y0169948D01*
X0145796Y0169956D01*
X0145954Y0169960D01*
X0146112Y0169960D01*
X0146270Y0169956D01*
X0146429Y0169948D01*
X0146586Y0169936D01*
X0146744Y0169920D01*
X0146901Y0169900D01*
X0147057Y0169876D01*
X0147213Y0169848D01*
X0147368Y0169817D01*
X0147523Y0169781D01*
X0147676Y0169742D01*
X0147828Y0169699D01*
X0147979Y0169652D01*
X0148129Y0169601D01*
X0148278Y0169546D01*
X0148425Y0169488D01*
X0148571Y0169426D01*
X0148715Y0169361D01*
X0148857Y0169291D01*
X0148998Y0169219D01*
X0149137Y0169142D01*
X0149273Y0169063D01*
X0149408Y0168979D01*
X0149541Y0168893D01*
X0149671Y0168803D01*
X0149799Y0168710D01*
X0149925Y0168614D01*
X0150048Y0168514D01*
X0150169Y0168412D01*
X0150287Y0168307D01*
X0150402Y0168198D01*
X0150515Y0168087D01*
X0150625Y0167973D01*
X0150732Y0167856D01*
X0150836Y0167737D01*
X0150937Y0167615D01*
X0151034Y0167490D01*
X0151129Y0167363D01*
X0151220Y0167234D01*
X0151309Y0167103D01*
X0151393Y0166969D01*
X0151475Y0166833D01*
X0151553Y0166696D01*
X0151627Y0166556D01*
X0151698Y0166414D01*
X0151766Y0166271D01*
X0151830Y0166126D01*
X0151890Y0165980D01*
X0151946Y0165832D01*
X0151999Y0165683D01*
X0152048Y0165532D01*
X0152093Y0165380D01*
X0152134Y0165227D01*
X0152172Y0165074D01*
X0152205Y0164919D01*
X0152235Y0164763D01*
X0152261Y0164607D01*
X0152282Y0164450D01*
X0152300Y0164293D01*
X0152314Y0164135D01*
X0152324Y0163977D01*
X0152330Y0163819D01*
X0152332Y0163661D01*
X0152330Y0163503D01*
X0152324Y0163345D01*
X0152314Y0163187D01*
X0152300Y0163029D01*
X0152282Y0162872D01*
X0152261Y0162715D01*
X0152235Y0162559D01*
X0152205Y0162403D01*
X0152172Y0162248D01*
X0152134Y0162095D01*
X0152093Y0161942D01*
X0152048Y0161790D01*
X0151999Y0161639D01*
X0151946Y0161490D01*
X0151890Y0161342D01*
X0151830Y0161196D01*
X0151766Y0161051D01*
X0151698Y0160908D01*
X0151627Y0160766D01*
X0151553Y0160626D01*
X0151475Y0160489D01*
X0151393Y0160353D01*
X0151309Y0160219D01*
X0151220Y0160088D01*
X0151129Y0159959D01*
X0151034Y0159832D01*
X0150937Y0159707D01*
X0150836Y0159585D01*
X0150732Y0159466D01*
X0150625Y0159349D01*
X0150515Y0159235D01*
X0150402Y0159124D01*
X0150287Y0159015D01*
X0150169Y0158910D01*
X0150048Y0158808D01*
X0149925Y0158708D01*
X0149799Y0158612D01*
X0149671Y0158519D01*
X0149541Y0158429D01*
X0149408Y0158343D01*
X0149273Y0158259D01*
X0149137Y0158180D01*
X0148998Y0158103D01*
X0148857Y0158031D01*
X0148715Y0157961D01*
X0148571Y0157896D01*
X0148425Y0157834D01*
X0148278Y0157776D01*
X0148129Y0157721D01*
X0147979Y0157670D01*
X0147828Y0157623D01*
X0147676Y0157580D01*
X0147523Y0157541D01*
X0147368Y0157505D01*
X0147213Y0157474D01*
X0147057Y0157446D01*
X0146901Y0157422D01*
X0146744Y0157402D01*
X0146586Y0157386D01*
X0146429Y0157374D01*
X0146270Y0157366D01*
X0146112Y0157362D01*
X0145954Y0157362D01*
X0145796Y0157366D01*
X0145637Y0157374D01*
X0145480Y0157386D01*
X0145322Y0157402D01*
X0145165Y0157422D01*
X0145009Y0157446D01*
X0144853Y0157474D01*
X0144698Y0157505D01*
X0144543Y0157541D01*
X0144390Y0157580D01*
X0144238Y0157623D01*
X0144087Y0157670D01*
X0143937Y0157721D01*
X0143788Y0157776D01*
X0143641Y0157834D01*
X0143495Y0157896D01*
X0143351Y0157961D01*
X0143209Y0158031D01*
X0143068Y0158103D01*
X0142929Y0158180D01*
X0142793Y0158259D01*
X0142658Y0158343D01*
X0142525Y0158429D01*
X0142395Y0158519D01*
X0142267Y0158612D01*
X0142141Y0158708D01*
X0142018Y0158808D01*
X0141897Y0158910D01*
X0141779Y0159015D01*
X0141664Y0159124D01*
X0141551Y0159235D01*
X0141441Y0159349D01*
X0141334Y0159466D01*
X0141230Y0159585D01*
X0141129Y0159707D01*
X0141032Y0159832D01*
X0140937Y0159959D01*
X0140846Y0160088D01*
X0140757Y0160219D01*
X0140673Y0160353D01*
X0140591Y0160489D01*
X0140513Y0160626D01*
X0140439Y0160766D01*
X0140368Y0160908D01*
X0140300Y0161051D01*
X0140236Y0161196D01*
X0140176Y0161342D01*
X0140120Y0161490D01*
X0140067Y0161639D01*
X0140018Y0161790D01*
X0139973Y0161942D01*
X0139932Y0162095D01*
X0139894Y0162248D01*
X0139861Y0162403D01*
X0139831Y0162559D01*
X0139805Y0162715D01*
X0139784Y0162872D01*
X0139766Y0163029D01*
X0139752Y0163187D01*
X0139742Y0163345D01*
X0139736Y0163503D01*
X0139734Y0163661D01*
X0034734Y0163661D02*
X0034736Y0163819D01*
X0034742Y0163977D01*
X0034752Y0164135D01*
X0034766Y0164293D01*
X0034784Y0164450D01*
X0034805Y0164607D01*
X0034831Y0164763D01*
X0034861Y0164919D01*
X0034894Y0165074D01*
X0034932Y0165227D01*
X0034973Y0165380D01*
X0035018Y0165532D01*
X0035067Y0165683D01*
X0035120Y0165832D01*
X0035176Y0165980D01*
X0035236Y0166126D01*
X0035300Y0166271D01*
X0035368Y0166414D01*
X0035439Y0166556D01*
X0035513Y0166696D01*
X0035591Y0166833D01*
X0035673Y0166969D01*
X0035757Y0167103D01*
X0035846Y0167234D01*
X0035937Y0167363D01*
X0036032Y0167490D01*
X0036129Y0167615D01*
X0036230Y0167737D01*
X0036334Y0167856D01*
X0036441Y0167973D01*
X0036551Y0168087D01*
X0036664Y0168198D01*
X0036779Y0168307D01*
X0036897Y0168412D01*
X0037018Y0168514D01*
X0037141Y0168614D01*
X0037267Y0168710D01*
X0037395Y0168803D01*
X0037525Y0168893D01*
X0037658Y0168979D01*
X0037793Y0169063D01*
X0037929Y0169142D01*
X0038068Y0169219D01*
X0038209Y0169291D01*
X0038351Y0169361D01*
X0038495Y0169426D01*
X0038641Y0169488D01*
X0038788Y0169546D01*
X0038937Y0169601D01*
X0039087Y0169652D01*
X0039238Y0169699D01*
X0039390Y0169742D01*
X0039543Y0169781D01*
X0039698Y0169817D01*
X0039853Y0169848D01*
X0040009Y0169876D01*
X0040165Y0169900D01*
X0040322Y0169920D01*
X0040480Y0169936D01*
X0040637Y0169948D01*
X0040796Y0169956D01*
X0040954Y0169960D01*
X0041112Y0169960D01*
X0041270Y0169956D01*
X0041429Y0169948D01*
X0041586Y0169936D01*
X0041744Y0169920D01*
X0041901Y0169900D01*
X0042057Y0169876D01*
X0042213Y0169848D01*
X0042368Y0169817D01*
X0042523Y0169781D01*
X0042676Y0169742D01*
X0042828Y0169699D01*
X0042979Y0169652D01*
X0043129Y0169601D01*
X0043278Y0169546D01*
X0043425Y0169488D01*
X0043571Y0169426D01*
X0043715Y0169361D01*
X0043857Y0169291D01*
X0043998Y0169219D01*
X0044137Y0169142D01*
X0044273Y0169063D01*
X0044408Y0168979D01*
X0044541Y0168893D01*
X0044671Y0168803D01*
X0044799Y0168710D01*
X0044925Y0168614D01*
X0045048Y0168514D01*
X0045169Y0168412D01*
X0045287Y0168307D01*
X0045402Y0168198D01*
X0045515Y0168087D01*
X0045625Y0167973D01*
X0045732Y0167856D01*
X0045836Y0167737D01*
X0045937Y0167615D01*
X0046034Y0167490D01*
X0046129Y0167363D01*
X0046220Y0167234D01*
X0046309Y0167103D01*
X0046393Y0166969D01*
X0046475Y0166833D01*
X0046553Y0166696D01*
X0046627Y0166556D01*
X0046698Y0166414D01*
X0046766Y0166271D01*
X0046830Y0166126D01*
X0046890Y0165980D01*
X0046946Y0165832D01*
X0046999Y0165683D01*
X0047048Y0165532D01*
X0047093Y0165380D01*
X0047134Y0165227D01*
X0047172Y0165074D01*
X0047205Y0164919D01*
X0047235Y0164763D01*
X0047261Y0164607D01*
X0047282Y0164450D01*
X0047300Y0164293D01*
X0047314Y0164135D01*
X0047324Y0163977D01*
X0047330Y0163819D01*
X0047332Y0163661D01*
X0047330Y0163503D01*
X0047324Y0163345D01*
X0047314Y0163187D01*
X0047300Y0163029D01*
X0047282Y0162872D01*
X0047261Y0162715D01*
X0047235Y0162559D01*
X0047205Y0162403D01*
X0047172Y0162248D01*
X0047134Y0162095D01*
X0047093Y0161942D01*
X0047048Y0161790D01*
X0046999Y0161639D01*
X0046946Y0161490D01*
X0046890Y0161342D01*
X0046830Y0161196D01*
X0046766Y0161051D01*
X0046698Y0160908D01*
X0046627Y0160766D01*
X0046553Y0160626D01*
X0046475Y0160489D01*
X0046393Y0160353D01*
X0046309Y0160219D01*
X0046220Y0160088D01*
X0046129Y0159959D01*
X0046034Y0159832D01*
X0045937Y0159707D01*
X0045836Y0159585D01*
X0045732Y0159466D01*
X0045625Y0159349D01*
X0045515Y0159235D01*
X0045402Y0159124D01*
X0045287Y0159015D01*
X0045169Y0158910D01*
X0045048Y0158808D01*
X0044925Y0158708D01*
X0044799Y0158612D01*
X0044671Y0158519D01*
X0044541Y0158429D01*
X0044408Y0158343D01*
X0044273Y0158259D01*
X0044137Y0158180D01*
X0043998Y0158103D01*
X0043857Y0158031D01*
X0043715Y0157961D01*
X0043571Y0157896D01*
X0043425Y0157834D01*
X0043278Y0157776D01*
X0043129Y0157721D01*
X0042979Y0157670D01*
X0042828Y0157623D01*
X0042676Y0157580D01*
X0042523Y0157541D01*
X0042368Y0157505D01*
X0042213Y0157474D01*
X0042057Y0157446D01*
X0041901Y0157422D01*
X0041744Y0157402D01*
X0041586Y0157386D01*
X0041429Y0157374D01*
X0041270Y0157366D01*
X0041112Y0157362D01*
X0040954Y0157362D01*
X0040796Y0157366D01*
X0040637Y0157374D01*
X0040480Y0157386D01*
X0040322Y0157402D01*
X0040165Y0157422D01*
X0040009Y0157446D01*
X0039853Y0157474D01*
X0039698Y0157505D01*
X0039543Y0157541D01*
X0039390Y0157580D01*
X0039238Y0157623D01*
X0039087Y0157670D01*
X0038937Y0157721D01*
X0038788Y0157776D01*
X0038641Y0157834D01*
X0038495Y0157896D01*
X0038351Y0157961D01*
X0038209Y0158031D01*
X0038068Y0158103D01*
X0037929Y0158180D01*
X0037793Y0158259D01*
X0037658Y0158343D01*
X0037525Y0158429D01*
X0037395Y0158519D01*
X0037267Y0158612D01*
X0037141Y0158708D01*
X0037018Y0158808D01*
X0036897Y0158910D01*
X0036779Y0159015D01*
X0036664Y0159124D01*
X0036551Y0159235D01*
X0036441Y0159349D01*
X0036334Y0159466D01*
X0036230Y0159585D01*
X0036129Y0159707D01*
X0036032Y0159832D01*
X0035937Y0159959D01*
X0035846Y0160088D01*
X0035757Y0160219D01*
X0035673Y0160353D01*
X0035591Y0160489D01*
X0035513Y0160626D01*
X0035439Y0160766D01*
X0035368Y0160908D01*
X0035300Y0161051D01*
X0035236Y0161196D01*
X0035176Y0161342D01*
X0035120Y0161490D01*
X0035067Y0161639D01*
X0035018Y0161790D01*
X0034973Y0161942D01*
X0034932Y0162095D01*
X0034894Y0162248D01*
X0034861Y0162403D01*
X0034831Y0162559D01*
X0034805Y0162715D01*
X0034784Y0162872D01*
X0034766Y0163029D01*
X0034752Y0163187D01*
X0034742Y0163345D01*
X0034736Y0163503D01*
X0034734Y0163661D01*
D11*
X0076564Y0156063D03*
X0076564Y0152519D03*
X0076564Y0148976D03*
X0076564Y0145433D03*
X0076564Y0141889D03*
X0076564Y0138346D03*
X0076564Y0134803D03*
X0076564Y0131259D03*
X0110501Y0131259D03*
X0110501Y0134803D03*
X0110501Y0138346D03*
X0110501Y0141889D03*
X0110501Y0145433D03*
X0110501Y0148976D03*
X0110501Y0152519D03*
X0110501Y0156063D03*
D12*
X0105934Y0160629D03*
X0102391Y0160629D03*
X0098848Y0160629D03*
X0095304Y0160629D03*
X0091761Y0160629D03*
X0088218Y0160629D03*
X0084675Y0160629D03*
X0081131Y0160629D03*
X0081131Y0126692D03*
X0084675Y0126692D03*
X0088218Y0126692D03*
X0091761Y0126692D03*
X0095304Y0126692D03*
X0098848Y0126692D03*
X0102391Y0126692D03*
X0105934Y0126692D03*
D13*
X0114419Y0128602D03*
X0114419Y0158720D03*
X0072647Y0158720D03*
X0072647Y0128602D03*
D14*
X0072647Y0133031D03*
X0072647Y0136574D03*
X0072647Y0140118D03*
X0072647Y0143661D03*
X0072647Y0147204D03*
X0072647Y0150748D03*
X0072647Y0154291D03*
X0082903Y0164547D03*
X0086446Y0164547D03*
X0089989Y0164547D03*
X0093533Y0164547D03*
X0097076Y0164547D03*
X0100619Y0164547D03*
X0104163Y0164547D03*
X0114419Y0154291D03*
X0114419Y0150748D03*
X0114419Y0147204D03*
X0114419Y0143661D03*
X0114419Y0140118D03*
X0114419Y0136574D03*
X0114419Y0133031D03*
X0104163Y0122775D03*
X0100619Y0122775D03*
X0097076Y0122775D03*
X0093533Y0122775D03*
X0089989Y0122775D03*
X0086446Y0122775D03*
X0082903Y0122775D03*
D15*
X0078474Y0122775D03*
X0108592Y0122775D03*
X0108592Y0164547D03*
X0078474Y0164547D03*
D16*
X0056033Y0071161D03*
D17*
X0056603Y0077479D02*
X0056603Y0079803D01*
X0057037Y0079803D01*
X0057037Y0077479D01*
X0056603Y0077479D01*
X0056603Y0077911D02*
X0057037Y0077911D01*
X0057037Y0078343D02*
X0056603Y0078343D01*
X0056603Y0078775D02*
X0057037Y0078775D01*
X0057037Y0079207D02*
X0056603Y0079207D01*
X0056603Y0079639D02*
X0057037Y0079639D01*
X0058178Y0079803D02*
X0058178Y0077479D01*
X0058178Y0079803D02*
X0058612Y0079803D01*
X0058612Y0077479D01*
X0058178Y0077479D01*
X0058178Y0077911D02*
X0058612Y0077911D01*
X0058612Y0078343D02*
X0058178Y0078343D01*
X0058178Y0078775D02*
X0058612Y0078775D01*
X0058612Y0079207D02*
X0058178Y0079207D01*
X0058178Y0079639D02*
X0058612Y0079639D01*
X0059753Y0079803D02*
X0059753Y0077479D01*
X0059753Y0079803D02*
X0060187Y0079803D01*
X0060187Y0077479D01*
X0059753Y0077479D01*
X0059753Y0077911D02*
X0060187Y0077911D01*
X0060187Y0078343D02*
X0059753Y0078343D01*
X0059753Y0078775D02*
X0060187Y0078775D01*
X0060187Y0079207D02*
X0059753Y0079207D01*
X0059753Y0079639D02*
X0060187Y0079639D01*
X0062312Y0075315D02*
X0064636Y0075315D01*
X0064636Y0074881D01*
X0062312Y0074881D01*
X0062312Y0075315D01*
X0062312Y0075313D02*
X0064636Y0075313D01*
X0064636Y0073740D02*
X0062312Y0073740D01*
X0064636Y0073740D02*
X0064636Y0073306D01*
X0062312Y0073306D01*
X0062312Y0073740D01*
X0062312Y0073738D02*
X0064636Y0073738D01*
X0064636Y0072165D02*
X0062312Y0072165D01*
X0064636Y0072165D02*
X0064636Y0071731D01*
X0062312Y0071731D01*
X0062312Y0072165D01*
X0062312Y0072163D02*
X0064636Y0072163D01*
X0064636Y0070591D02*
X0062312Y0070591D01*
X0064636Y0070591D02*
X0064636Y0070157D01*
X0062312Y0070157D01*
X0062312Y0070591D01*
X0062312Y0070589D02*
X0064636Y0070589D01*
X0064636Y0069016D02*
X0062312Y0069016D01*
X0064636Y0069016D02*
X0064636Y0068582D01*
X0062312Y0068582D01*
X0062312Y0069016D01*
X0062312Y0069014D02*
X0064636Y0069014D01*
X0064636Y0067441D02*
X0062312Y0067441D01*
X0064636Y0067441D02*
X0064636Y0067007D01*
X0062312Y0067007D01*
X0062312Y0067441D01*
X0062312Y0067439D02*
X0064636Y0067439D01*
X0064596Y0065866D02*
X0062666Y0065866D01*
X0064596Y0065866D02*
X0064596Y0065432D01*
X0062666Y0065432D01*
X0062666Y0065866D01*
X0062666Y0065864D02*
X0064596Y0065864D01*
X0061762Y0064449D02*
X0061762Y0062519D01*
X0061328Y0062519D01*
X0061328Y0064449D01*
X0061762Y0064449D01*
X0061762Y0062951D02*
X0061328Y0062951D01*
X0061328Y0063383D02*
X0061762Y0063383D01*
X0061762Y0063815D02*
X0061328Y0063815D01*
X0061328Y0064247D02*
X0061762Y0064247D01*
X0060187Y0064843D02*
X0060187Y0062519D01*
X0059753Y0062519D01*
X0059753Y0064843D01*
X0060187Y0064843D01*
X0060187Y0062951D02*
X0059753Y0062951D01*
X0059753Y0063383D02*
X0060187Y0063383D01*
X0060187Y0063815D02*
X0059753Y0063815D01*
X0059753Y0064247D02*
X0060187Y0064247D01*
X0060187Y0064679D02*
X0059753Y0064679D01*
X0058612Y0064843D02*
X0058612Y0062519D01*
X0058178Y0062519D01*
X0058178Y0064843D01*
X0058612Y0064843D01*
X0058612Y0062951D02*
X0058178Y0062951D01*
X0058178Y0063383D02*
X0058612Y0063383D01*
X0058612Y0063815D02*
X0058178Y0063815D01*
X0058178Y0064247D02*
X0058612Y0064247D01*
X0058612Y0064679D02*
X0058178Y0064679D01*
X0057037Y0064843D02*
X0057037Y0062519D01*
X0056603Y0062519D01*
X0056603Y0064843D01*
X0057037Y0064843D01*
X0057037Y0062951D02*
X0056603Y0062951D01*
X0056603Y0063383D02*
X0057037Y0063383D01*
X0057037Y0063815D02*
X0056603Y0063815D01*
X0056603Y0064247D02*
X0057037Y0064247D01*
X0057037Y0064679D02*
X0056603Y0064679D01*
X0055462Y0064843D02*
X0055462Y0062519D01*
X0055028Y0062519D01*
X0055028Y0064843D01*
X0055462Y0064843D01*
X0055462Y0062951D02*
X0055028Y0062951D01*
X0055028Y0063383D02*
X0055462Y0063383D01*
X0055462Y0063815D02*
X0055028Y0063815D01*
X0055028Y0064247D02*
X0055462Y0064247D01*
X0055462Y0064679D02*
X0055028Y0064679D01*
X0053888Y0064843D02*
X0053888Y0062519D01*
X0053454Y0062519D01*
X0053454Y0064843D01*
X0053888Y0064843D01*
X0053888Y0062951D02*
X0053454Y0062951D01*
X0053454Y0063383D02*
X0053888Y0063383D01*
X0053888Y0063815D02*
X0053454Y0063815D01*
X0053454Y0064247D02*
X0053888Y0064247D01*
X0053888Y0064679D02*
X0053454Y0064679D01*
X0052313Y0064843D02*
X0052313Y0062519D01*
X0051879Y0062519D01*
X0051879Y0064843D01*
X0052313Y0064843D01*
X0052313Y0062951D02*
X0051879Y0062951D01*
X0051879Y0063383D02*
X0052313Y0063383D01*
X0052313Y0063815D02*
X0051879Y0063815D01*
X0051879Y0064247D02*
X0052313Y0064247D01*
X0052313Y0064679D02*
X0051879Y0064679D01*
X0050699Y0064449D02*
X0050699Y0062519D01*
X0050265Y0062519D01*
X0050265Y0064449D01*
X0050699Y0064449D01*
X0050699Y0062951D02*
X0050265Y0062951D01*
X0050265Y0063383D02*
X0050699Y0063383D01*
X0050699Y0063815D02*
X0050265Y0063815D01*
X0050265Y0064247D02*
X0050699Y0064247D01*
X0049360Y0065432D02*
X0047430Y0065432D01*
X0047430Y0065866D01*
X0049360Y0065866D01*
X0049360Y0065432D01*
X0049360Y0065864D02*
X0047430Y0065864D01*
X0047390Y0067007D02*
X0049714Y0067007D01*
X0047390Y0067007D02*
X0047390Y0067441D01*
X0049714Y0067441D01*
X0049714Y0067007D01*
X0049714Y0067439D02*
X0047390Y0067439D01*
X0047390Y0068582D02*
X0049714Y0068582D01*
X0047390Y0068582D02*
X0047390Y0069016D01*
X0049714Y0069016D01*
X0049714Y0068582D01*
X0049714Y0069014D02*
X0047390Y0069014D01*
X0047390Y0070157D02*
X0049714Y0070157D01*
X0047390Y0070157D02*
X0047390Y0070591D01*
X0049714Y0070591D01*
X0049714Y0070157D01*
X0049714Y0070589D02*
X0047390Y0070589D01*
X0047390Y0071731D02*
X0049714Y0071731D01*
X0047390Y0071731D02*
X0047390Y0072165D01*
X0049714Y0072165D01*
X0049714Y0071731D01*
X0049714Y0072163D02*
X0047390Y0072163D01*
X0047390Y0073306D02*
X0049714Y0073306D01*
X0047390Y0073306D02*
X0047390Y0073740D01*
X0049714Y0073740D01*
X0049714Y0073306D01*
X0049714Y0073738D02*
X0047390Y0073738D01*
X0047390Y0074881D02*
X0049714Y0074881D01*
X0047390Y0074881D02*
X0047390Y0075315D01*
X0049714Y0075315D01*
X0049714Y0074881D01*
X0049714Y0075313D02*
X0047390Y0075313D01*
X0047430Y0076456D02*
X0049360Y0076456D01*
X0047430Y0076456D02*
X0047430Y0076890D01*
X0049360Y0076890D01*
X0049360Y0076456D01*
X0049360Y0076888D02*
X0047430Y0076888D01*
X0050304Y0077873D02*
X0050304Y0079803D01*
X0050738Y0079803D01*
X0050738Y0077873D01*
X0050304Y0077873D01*
X0050304Y0078305D02*
X0050738Y0078305D01*
X0050738Y0078737D02*
X0050304Y0078737D01*
X0050304Y0079169D02*
X0050738Y0079169D01*
X0050738Y0079601D02*
X0050304Y0079601D01*
X0051879Y0079803D02*
X0051879Y0077479D01*
X0051879Y0079803D02*
X0052313Y0079803D01*
X0052313Y0077479D01*
X0051879Y0077479D01*
X0051879Y0077911D02*
X0052313Y0077911D01*
X0052313Y0078343D02*
X0051879Y0078343D01*
X0051879Y0078775D02*
X0052313Y0078775D01*
X0052313Y0079207D02*
X0051879Y0079207D01*
X0051879Y0079639D02*
X0052313Y0079639D01*
X0053454Y0079803D02*
X0053454Y0077479D01*
X0053454Y0079803D02*
X0053888Y0079803D01*
X0053888Y0077479D01*
X0053454Y0077479D01*
X0053454Y0077911D02*
X0053888Y0077911D01*
X0053888Y0078343D02*
X0053454Y0078343D01*
X0053454Y0078775D02*
X0053888Y0078775D01*
X0053888Y0079207D02*
X0053454Y0079207D01*
X0053454Y0079639D02*
X0053888Y0079639D01*
X0055028Y0079803D02*
X0055028Y0077479D01*
X0055028Y0079803D02*
X0055462Y0079803D01*
X0055462Y0077479D01*
X0055028Y0077479D01*
X0055028Y0077911D02*
X0055462Y0077911D01*
X0055462Y0078343D02*
X0055028Y0078343D01*
X0055028Y0078775D02*
X0055462Y0078775D01*
X0055462Y0079207D02*
X0055028Y0079207D01*
X0055028Y0079639D02*
X0055462Y0079639D01*
D18*
X0061411Y0079759D02*
X0061411Y0077917D01*
X0061411Y0079759D02*
X0061757Y0079759D01*
X0061757Y0077917D01*
X0061411Y0077917D01*
X0061411Y0078436D02*
X0061757Y0078436D01*
X0061757Y0078955D02*
X0061411Y0078955D01*
X0061411Y0079474D02*
X0061757Y0079474D01*
X0062789Y0076806D02*
X0064631Y0076806D01*
X0064631Y0076460D01*
X0062789Y0076460D01*
X0062789Y0076806D01*
D19*
X0097411Y0077165D02*
X0100403Y0077165D01*
X0097411Y0077165D02*
X0097411Y0077755D01*
X0100403Y0077755D01*
X0100403Y0077165D01*
X0100403Y0077361D02*
X0097411Y0077361D01*
X0097411Y0077557D02*
X0100403Y0077557D01*
X0100403Y0077753D02*
X0097411Y0077753D01*
X0097411Y0078543D02*
X0100403Y0078543D01*
X0097411Y0078543D02*
X0097411Y0079133D01*
X0100403Y0079133D01*
X0100403Y0078543D01*
X0100403Y0078739D02*
X0097411Y0078739D01*
X0097411Y0078935D02*
X0100403Y0078935D01*
X0100403Y0079131D02*
X0097411Y0079131D01*
X0097411Y0079921D02*
X0100403Y0079921D01*
X0097411Y0079921D02*
X0097411Y0080511D01*
X0100403Y0080511D01*
X0100403Y0079921D01*
X0100403Y0080117D02*
X0097411Y0080117D01*
X0097411Y0080313D02*
X0100403Y0080313D01*
X0100403Y0080509D02*
X0097411Y0080509D01*
X0097411Y0081299D02*
X0100403Y0081299D01*
X0097411Y0081299D02*
X0097411Y0081889D01*
X0100403Y0081889D01*
X0100403Y0081299D01*
X0100403Y0081495D02*
X0097411Y0081495D01*
X0097411Y0081691D02*
X0100403Y0081691D01*
X0100403Y0081887D02*
X0097411Y0081887D01*
X0097411Y0082677D02*
X0100403Y0082677D01*
X0097411Y0082677D02*
X0097411Y0083267D01*
X0100403Y0083267D01*
X0100403Y0082677D01*
X0100403Y0082873D02*
X0097411Y0082873D01*
X0097411Y0083069D02*
X0100403Y0083069D01*
X0100403Y0083265D02*
X0097411Y0083265D01*
X0097411Y0084055D02*
X0100403Y0084055D01*
X0097411Y0084055D02*
X0097411Y0084645D01*
X0100403Y0084645D01*
X0100403Y0084055D01*
X0100403Y0084251D02*
X0097411Y0084251D01*
X0097411Y0084447D02*
X0100403Y0084447D01*
X0100403Y0084643D02*
X0097411Y0084643D01*
X0097411Y0085433D02*
X0100403Y0085433D01*
X0097411Y0085433D02*
X0097411Y0086023D01*
X0100403Y0086023D01*
X0100403Y0085433D01*
X0100403Y0085629D02*
X0097411Y0085629D01*
X0097411Y0085825D02*
X0100403Y0085825D01*
X0100403Y0086021D02*
X0097411Y0086021D01*
X0097411Y0086811D02*
X0100403Y0086811D01*
X0097411Y0086811D02*
X0097411Y0087401D01*
X0100403Y0087401D01*
X0100403Y0086811D01*
X0100403Y0087007D02*
X0097411Y0087007D01*
X0097411Y0087203D02*
X0100403Y0087203D01*
X0100403Y0087399D02*
X0097411Y0087399D01*
X0097411Y0088189D02*
X0100403Y0088189D01*
X0097411Y0088189D02*
X0097411Y0088779D01*
X0100403Y0088779D01*
X0100403Y0088189D01*
X0100403Y0088385D02*
X0097411Y0088385D01*
X0097411Y0088581D02*
X0100403Y0088581D01*
X0100403Y0088777D02*
X0097411Y0088777D01*
X0097411Y0089567D02*
X0100403Y0089567D01*
X0097411Y0089567D02*
X0097411Y0090157D01*
X0100403Y0090157D01*
X0100403Y0089567D01*
X0100403Y0089763D02*
X0097411Y0089763D01*
X0097411Y0089959D02*
X0100403Y0089959D01*
X0100403Y0090155D02*
X0097411Y0090155D01*
X0099281Y0091791D02*
X0099281Y0094783D01*
X0099871Y0094783D01*
X0099871Y0091791D01*
X0099281Y0091791D01*
X0099281Y0091987D02*
X0099871Y0091987D01*
X0099871Y0092183D02*
X0099281Y0092183D01*
X0099281Y0092379D02*
X0099871Y0092379D01*
X0099871Y0092575D02*
X0099281Y0092575D01*
X0099281Y0092771D02*
X0099871Y0092771D01*
X0099871Y0092967D02*
X0099281Y0092967D01*
X0099281Y0093163D02*
X0099871Y0093163D01*
X0099871Y0093359D02*
X0099281Y0093359D01*
X0099281Y0093555D02*
X0099871Y0093555D01*
X0099871Y0093751D02*
X0099281Y0093751D01*
X0099281Y0093947D02*
X0099871Y0093947D01*
X0099871Y0094143D02*
X0099281Y0094143D01*
X0099281Y0094339D02*
X0099871Y0094339D01*
X0099871Y0094535D02*
X0099281Y0094535D01*
X0099281Y0094731D02*
X0099871Y0094731D01*
X0100659Y0094783D02*
X0100659Y0091791D01*
X0100659Y0094783D02*
X0101249Y0094783D01*
X0101249Y0091791D01*
X0100659Y0091791D01*
X0100659Y0091987D02*
X0101249Y0091987D01*
X0101249Y0092183D02*
X0100659Y0092183D01*
X0100659Y0092379D02*
X0101249Y0092379D01*
X0101249Y0092575D02*
X0100659Y0092575D01*
X0100659Y0092771D02*
X0101249Y0092771D01*
X0101249Y0092967D02*
X0100659Y0092967D01*
X0100659Y0093163D02*
X0101249Y0093163D01*
X0101249Y0093359D02*
X0100659Y0093359D01*
X0100659Y0093555D02*
X0101249Y0093555D01*
X0101249Y0093751D02*
X0100659Y0093751D01*
X0100659Y0093947D02*
X0101249Y0093947D01*
X0101249Y0094143D02*
X0100659Y0094143D01*
X0100659Y0094339D02*
X0101249Y0094339D01*
X0101249Y0094535D02*
X0100659Y0094535D01*
X0100659Y0094731D02*
X0101249Y0094731D01*
X0102037Y0094783D02*
X0102037Y0091791D01*
X0102037Y0094783D02*
X0102627Y0094783D01*
X0102627Y0091791D01*
X0102037Y0091791D01*
X0102037Y0091987D02*
X0102627Y0091987D01*
X0102627Y0092183D02*
X0102037Y0092183D01*
X0102037Y0092379D02*
X0102627Y0092379D01*
X0102627Y0092575D02*
X0102037Y0092575D01*
X0102037Y0092771D02*
X0102627Y0092771D01*
X0102627Y0092967D02*
X0102037Y0092967D01*
X0102037Y0093163D02*
X0102627Y0093163D01*
X0102627Y0093359D02*
X0102037Y0093359D01*
X0102037Y0093555D02*
X0102627Y0093555D01*
X0102627Y0093751D02*
X0102037Y0093751D01*
X0102037Y0093947D02*
X0102627Y0093947D01*
X0102627Y0094143D02*
X0102037Y0094143D01*
X0102037Y0094339D02*
X0102627Y0094339D01*
X0102627Y0094535D02*
X0102037Y0094535D01*
X0102037Y0094731D02*
X0102627Y0094731D01*
X0103415Y0094783D02*
X0103415Y0091791D01*
X0103415Y0094783D02*
X0104005Y0094783D01*
X0104005Y0091791D01*
X0103415Y0091791D01*
X0103415Y0091987D02*
X0104005Y0091987D01*
X0104005Y0092183D02*
X0103415Y0092183D01*
X0103415Y0092379D02*
X0104005Y0092379D01*
X0104005Y0092575D02*
X0103415Y0092575D01*
X0103415Y0092771D02*
X0104005Y0092771D01*
X0104005Y0092967D02*
X0103415Y0092967D01*
X0103415Y0093163D02*
X0104005Y0093163D01*
X0104005Y0093359D02*
X0103415Y0093359D01*
X0103415Y0093555D02*
X0104005Y0093555D01*
X0104005Y0093751D02*
X0103415Y0093751D01*
X0103415Y0093947D02*
X0104005Y0093947D01*
X0104005Y0094143D02*
X0103415Y0094143D01*
X0103415Y0094339D02*
X0104005Y0094339D01*
X0104005Y0094535D02*
X0103415Y0094535D01*
X0103415Y0094731D02*
X0104005Y0094731D01*
X0104793Y0094783D02*
X0104793Y0091791D01*
X0104793Y0094783D02*
X0105383Y0094783D01*
X0105383Y0091791D01*
X0104793Y0091791D01*
X0104793Y0091987D02*
X0105383Y0091987D01*
X0105383Y0092183D02*
X0104793Y0092183D01*
X0104793Y0092379D02*
X0105383Y0092379D01*
X0105383Y0092575D02*
X0104793Y0092575D01*
X0104793Y0092771D02*
X0105383Y0092771D01*
X0105383Y0092967D02*
X0104793Y0092967D01*
X0104793Y0093163D02*
X0105383Y0093163D01*
X0105383Y0093359D02*
X0104793Y0093359D01*
X0104793Y0093555D02*
X0105383Y0093555D01*
X0105383Y0093751D02*
X0104793Y0093751D01*
X0104793Y0093947D02*
X0105383Y0093947D01*
X0105383Y0094143D02*
X0104793Y0094143D01*
X0104793Y0094339D02*
X0105383Y0094339D01*
X0105383Y0094535D02*
X0104793Y0094535D01*
X0104793Y0094731D02*
X0105383Y0094731D01*
X0106171Y0094783D02*
X0106171Y0091791D01*
X0106171Y0094783D02*
X0106761Y0094783D01*
X0106761Y0091791D01*
X0106171Y0091791D01*
X0106171Y0091987D02*
X0106761Y0091987D01*
X0106761Y0092183D02*
X0106171Y0092183D01*
X0106171Y0092379D02*
X0106761Y0092379D01*
X0106761Y0092575D02*
X0106171Y0092575D01*
X0106171Y0092771D02*
X0106761Y0092771D01*
X0106761Y0092967D02*
X0106171Y0092967D01*
X0106171Y0093163D02*
X0106761Y0093163D01*
X0106761Y0093359D02*
X0106171Y0093359D01*
X0106171Y0093555D02*
X0106761Y0093555D01*
X0106761Y0093751D02*
X0106171Y0093751D01*
X0106171Y0093947D02*
X0106761Y0093947D01*
X0106761Y0094143D02*
X0106171Y0094143D01*
X0106171Y0094339D02*
X0106761Y0094339D01*
X0106761Y0094535D02*
X0106171Y0094535D01*
X0106171Y0094731D02*
X0106761Y0094731D01*
X0107549Y0094783D02*
X0107549Y0091791D01*
X0107549Y0094783D02*
X0108139Y0094783D01*
X0108139Y0091791D01*
X0107549Y0091791D01*
X0107549Y0091987D02*
X0108139Y0091987D01*
X0108139Y0092183D02*
X0107549Y0092183D01*
X0107549Y0092379D02*
X0108139Y0092379D01*
X0108139Y0092575D02*
X0107549Y0092575D01*
X0107549Y0092771D02*
X0108139Y0092771D01*
X0108139Y0092967D02*
X0107549Y0092967D01*
X0107549Y0093163D02*
X0108139Y0093163D01*
X0108139Y0093359D02*
X0107549Y0093359D01*
X0107549Y0093555D02*
X0108139Y0093555D01*
X0108139Y0093751D02*
X0107549Y0093751D01*
X0107549Y0093947D02*
X0108139Y0093947D01*
X0108139Y0094143D02*
X0107549Y0094143D01*
X0107549Y0094339D02*
X0108139Y0094339D01*
X0108139Y0094535D02*
X0107549Y0094535D01*
X0107549Y0094731D02*
X0108139Y0094731D01*
X0108927Y0094783D02*
X0108927Y0091791D01*
X0108927Y0094783D02*
X0109517Y0094783D01*
X0109517Y0091791D01*
X0108927Y0091791D01*
X0108927Y0091987D02*
X0109517Y0091987D01*
X0109517Y0092183D02*
X0108927Y0092183D01*
X0108927Y0092379D02*
X0109517Y0092379D01*
X0109517Y0092575D02*
X0108927Y0092575D01*
X0108927Y0092771D02*
X0109517Y0092771D01*
X0109517Y0092967D02*
X0108927Y0092967D01*
X0108927Y0093163D02*
X0109517Y0093163D01*
X0109517Y0093359D02*
X0108927Y0093359D01*
X0108927Y0093555D02*
X0109517Y0093555D01*
X0109517Y0093751D02*
X0108927Y0093751D01*
X0108927Y0093947D02*
X0109517Y0093947D01*
X0109517Y0094143D02*
X0108927Y0094143D01*
X0108927Y0094339D02*
X0109517Y0094339D01*
X0109517Y0094535D02*
X0108927Y0094535D01*
X0108927Y0094731D02*
X0109517Y0094731D01*
X0110305Y0094783D02*
X0110305Y0091791D01*
X0110305Y0094783D02*
X0110895Y0094783D01*
X0110895Y0091791D01*
X0110305Y0091791D01*
X0110305Y0091987D02*
X0110895Y0091987D01*
X0110895Y0092183D02*
X0110305Y0092183D01*
X0110305Y0092379D02*
X0110895Y0092379D01*
X0110895Y0092575D02*
X0110305Y0092575D01*
X0110305Y0092771D02*
X0110895Y0092771D01*
X0110895Y0092967D02*
X0110305Y0092967D01*
X0110305Y0093163D02*
X0110895Y0093163D01*
X0110895Y0093359D02*
X0110305Y0093359D01*
X0110305Y0093555D02*
X0110895Y0093555D01*
X0110895Y0093751D02*
X0110305Y0093751D01*
X0110305Y0093947D02*
X0110895Y0093947D01*
X0110895Y0094143D02*
X0110305Y0094143D01*
X0110305Y0094339D02*
X0110895Y0094339D01*
X0110895Y0094535D02*
X0110305Y0094535D01*
X0110305Y0094731D02*
X0110895Y0094731D01*
X0111683Y0094783D02*
X0111683Y0091791D01*
X0111683Y0094783D02*
X0112273Y0094783D01*
X0112273Y0091791D01*
X0111683Y0091791D01*
X0111683Y0091987D02*
X0112273Y0091987D01*
X0112273Y0092183D02*
X0111683Y0092183D01*
X0111683Y0092379D02*
X0112273Y0092379D01*
X0112273Y0092575D02*
X0111683Y0092575D01*
X0111683Y0092771D02*
X0112273Y0092771D01*
X0112273Y0092967D02*
X0111683Y0092967D01*
X0111683Y0093163D02*
X0112273Y0093163D01*
X0112273Y0093359D02*
X0111683Y0093359D01*
X0111683Y0093555D02*
X0112273Y0093555D01*
X0112273Y0093751D02*
X0111683Y0093751D01*
X0111683Y0093947D02*
X0112273Y0093947D01*
X0112273Y0094143D02*
X0111683Y0094143D01*
X0111683Y0094339D02*
X0112273Y0094339D01*
X0112273Y0094535D02*
X0111683Y0094535D01*
X0111683Y0094731D02*
X0112273Y0094731D01*
X0113061Y0094783D02*
X0113061Y0091791D01*
X0113061Y0094783D02*
X0113651Y0094783D01*
X0113651Y0091791D01*
X0113061Y0091791D01*
X0113061Y0091987D02*
X0113651Y0091987D01*
X0113651Y0092183D02*
X0113061Y0092183D01*
X0113061Y0092379D02*
X0113651Y0092379D01*
X0113651Y0092575D02*
X0113061Y0092575D01*
X0113061Y0092771D02*
X0113651Y0092771D01*
X0113651Y0092967D02*
X0113061Y0092967D01*
X0113061Y0093163D02*
X0113651Y0093163D01*
X0113651Y0093359D02*
X0113061Y0093359D01*
X0113061Y0093555D02*
X0113651Y0093555D01*
X0113651Y0093751D02*
X0113061Y0093751D01*
X0113061Y0093947D02*
X0113651Y0093947D01*
X0113651Y0094143D02*
X0113061Y0094143D01*
X0113061Y0094339D02*
X0113651Y0094339D01*
X0113651Y0094535D02*
X0113061Y0094535D01*
X0113061Y0094731D02*
X0113651Y0094731D01*
X0114439Y0094783D02*
X0114439Y0091791D01*
X0114439Y0094783D02*
X0115029Y0094783D01*
X0115029Y0091791D01*
X0114439Y0091791D01*
X0114439Y0091987D02*
X0115029Y0091987D01*
X0115029Y0092183D02*
X0114439Y0092183D01*
X0114439Y0092379D02*
X0115029Y0092379D01*
X0115029Y0092575D02*
X0114439Y0092575D01*
X0114439Y0092771D02*
X0115029Y0092771D01*
X0115029Y0092967D02*
X0114439Y0092967D01*
X0114439Y0093163D02*
X0115029Y0093163D01*
X0115029Y0093359D02*
X0114439Y0093359D01*
X0114439Y0093555D02*
X0115029Y0093555D01*
X0115029Y0093751D02*
X0114439Y0093751D01*
X0114439Y0093947D02*
X0115029Y0093947D01*
X0115029Y0094143D02*
X0114439Y0094143D01*
X0114439Y0094339D02*
X0115029Y0094339D01*
X0115029Y0094535D02*
X0114439Y0094535D01*
X0114439Y0094731D02*
X0115029Y0094731D01*
X0115817Y0094783D02*
X0115817Y0091791D01*
X0115817Y0094783D02*
X0116407Y0094783D01*
X0116407Y0091791D01*
X0115817Y0091791D01*
X0115817Y0091987D02*
X0116407Y0091987D01*
X0116407Y0092183D02*
X0115817Y0092183D01*
X0115817Y0092379D02*
X0116407Y0092379D01*
X0116407Y0092575D02*
X0115817Y0092575D01*
X0115817Y0092771D02*
X0116407Y0092771D01*
X0116407Y0092967D02*
X0115817Y0092967D01*
X0115817Y0093163D02*
X0116407Y0093163D01*
X0116407Y0093359D02*
X0115817Y0093359D01*
X0115817Y0093555D02*
X0116407Y0093555D01*
X0116407Y0093751D02*
X0115817Y0093751D01*
X0115817Y0093947D02*
X0116407Y0093947D01*
X0116407Y0094143D02*
X0115817Y0094143D01*
X0115817Y0094339D02*
X0116407Y0094339D01*
X0116407Y0094535D02*
X0115817Y0094535D01*
X0115817Y0094731D02*
X0116407Y0094731D01*
X0117194Y0094783D02*
X0117194Y0091791D01*
X0117194Y0094783D02*
X0117784Y0094783D01*
X0117784Y0091791D01*
X0117194Y0091791D01*
X0117194Y0091987D02*
X0117784Y0091987D01*
X0117784Y0092183D02*
X0117194Y0092183D01*
X0117194Y0092379D02*
X0117784Y0092379D01*
X0117784Y0092575D02*
X0117194Y0092575D01*
X0117194Y0092771D02*
X0117784Y0092771D01*
X0117784Y0092967D02*
X0117194Y0092967D01*
X0117194Y0093163D02*
X0117784Y0093163D01*
X0117784Y0093359D02*
X0117194Y0093359D01*
X0117194Y0093555D02*
X0117784Y0093555D01*
X0117784Y0093751D02*
X0117194Y0093751D01*
X0117194Y0093947D02*
X0117784Y0093947D01*
X0117784Y0094143D02*
X0117194Y0094143D01*
X0117194Y0094339D02*
X0117784Y0094339D01*
X0117784Y0094535D02*
X0117194Y0094535D01*
X0117194Y0094731D02*
X0117784Y0094731D01*
X0116663Y0089567D02*
X0119655Y0089567D01*
X0116663Y0089567D02*
X0116663Y0090157D01*
X0119655Y0090157D01*
X0119655Y0089567D01*
X0119655Y0089763D02*
X0116663Y0089763D01*
X0116663Y0089959D02*
X0119655Y0089959D01*
X0119655Y0090155D02*
X0116663Y0090155D01*
X0116663Y0088189D02*
X0119655Y0088189D01*
X0116663Y0088189D02*
X0116663Y0088779D01*
X0119655Y0088779D01*
X0119655Y0088189D01*
X0119655Y0088385D02*
X0116663Y0088385D01*
X0116663Y0088581D02*
X0119655Y0088581D01*
X0119655Y0088777D02*
X0116663Y0088777D01*
X0116663Y0086811D02*
X0119655Y0086811D01*
X0116663Y0086811D02*
X0116663Y0087401D01*
X0119655Y0087401D01*
X0119655Y0086811D01*
X0119655Y0087007D02*
X0116663Y0087007D01*
X0116663Y0087203D02*
X0119655Y0087203D01*
X0119655Y0087399D02*
X0116663Y0087399D01*
X0116663Y0085433D02*
X0119655Y0085433D01*
X0116663Y0085433D02*
X0116663Y0086023D01*
X0119655Y0086023D01*
X0119655Y0085433D01*
X0119655Y0085629D02*
X0116663Y0085629D01*
X0116663Y0085825D02*
X0119655Y0085825D01*
X0119655Y0086021D02*
X0116663Y0086021D01*
X0116663Y0084055D02*
X0119655Y0084055D01*
X0116663Y0084055D02*
X0116663Y0084645D01*
X0119655Y0084645D01*
X0119655Y0084055D01*
X0119655Y0084251D02*
X0116663Y0084251D01*
X0116663Y0084447D02*
X0119655Y0084447D01*
X0119655Y0084643D02*
X0116663Y0084643D01*
X0116663Y0082677D02*
X0119655Y0082677D01*
X0116663Y0082677D02*
X0116663Y0083267D01*
X0119655Y0083267D01*
X0119655Y0082677D01*
X0119655Y0082873D02*
X0116663Y0082873D01*
X0116663Y0083069D02*
X0119655Y0083069D01*
X0119655Y0083265D02*
X0116663Y0083265D01*
X0116663Y0081299D02*
X0119655Y0081299D01*
X0116663Y0081299D02*
X0116663Y0081889D01*
X0119655Y0081889D01*
X0119655Y0081299D01*
X0119655Y0081495D02*
X0116663Y0081495D01*
X0116663Y0081691D02*
X0119655Y0081691D01*
X0119655Y0081887D02*
X0116663Y0081887D01*
X0116663Y0079921D02*
X0119655Y0079921D01*
X0116663Y0079921D02*
X0116663Y0080511D01*
X0119655Y0080511D01*
X0119655Y0079921D01*
X0119655Y0080117D02*
X0116663Y0080117D01*
X0116663Y0080313D02*
X0119655Y0080313D01*
X0119655Y0080509D02*
X0116663Y0080509D01*
X0116663Y0078543D02*
X0119655Y0078543D01*
X0116663Y0078543D02*
X0116663Y0079133D01*
X0119655Y0079133D01*
X0119655Y0078543D01*
X0119655Y0078739D02*
X0116663Y0078739D01*
X0116663Y0078935D02*
X0119655Y0078935D01*
X0119655Y0079131D02*
X0116663Y0079131D01*
X0116663Y0077165D02*
X0119655Y0077165D01*
X0116663Y0077165D02*
X0116663Y0077755D01*
X0119655Y0077755D01*
X0119655Y0077165D01*
X0119655Y0077361D02*
X0116663Y0077361D01*
X0116663Y0077557D02*
X0119655Y0077557D01*
X0119655Y0077753D02*
X0116663Y0077753D01*
X0115817Y0075531D02*
X0115817Y0072539D01*
X0115817Y0075531D02*
X0116407Y0075531D01*
X0116407Y0072539D01*
X0115817Y0072539D01*
X0115817Y0072735D02*
X0116407Y0072735D01*
X0116407Y0072931D02*
X0115817Y0072931D01*
X0115817Y0073127D02*
X0116407Y0073127D01*
X0116407Y0073323D02*
X0115817Y0073323D01*
X0115817Y0073519D02*
X0116407Y0073519D01*
X0116407Y0073715D02*
X0115817Y0073715D01*
X0115817Y0073911D02*
X0116407Y0073911D01*
X0116407Y0074107D02*
X0115817Y0074107D01*
X0115817Y0074303D02*
X0116407Y0074303D01*
X0116407Y0074499D02*
X0115817Y0074499D01*
X0115817Y0074695D02*
X0116407Y0074695D01*
X0116407Y0074891D02*
X0115817Y0074891D01*
X0115817Y0075087D02*
X0116407Y0075087D01*
X0116407Y0075283D02*
X0115817Y0075283D01*
X0115817Y0075479D02*
X0116407Y0075479D01*
X0117194Y0075531D02*
X0117194Y0072539D01*
X0117194Y0075531D02*
X0117784Y0075531D01*
X0117784Y0072539D01*
X0117194Y0072539D01*
X0117194Y0072735D02*
X0117784Y0072735D01*
X0117784Y0072931D02*
X0117194Y0072931D01*
X0117194Y0073127D02*
X0117784Y0073127D01*
X0117784Y0073323D02*
X0117194Y0073323D01*
X0117194Y0073519D02*
X0117784Y0073519D01*
X0117784Y0073715D02*
X0117194Y0073715D01*
X0117194Y0073911D02*
X0117784Y0073911D01*
X0117784Y0074107D02*
X0117194Y0074107D01*
X0117194Y0074303D02*
X0117784Y0074303D01*
X0117784Y0074499D02*
X0117194Y0074499D01*
X0117194Y0074695D02*
X0117784Y0074695D01*
X0117784Y0074891D02*
X0117194Y0074891D01*
X0117194Y0075087D02*
X0117784Y0075087D01*
X0117784Y0075283D02*
X0117194Y0075283D01*
X0117194Y0075479D02*
X0117784Y0075479D01*
X0114439Y0075531D02*
X0114439Y0072539D01*
X0114439Y0075531D02*
X0115029Y0075531D01*
X0115029Y0072539D01*
X0114439Y0072539D01*
X0114439Y0072735D02*
X0115029Y0072735D01*
X0115029Y0072931D02*
X0114439Y0072931D01*
X0114439Y0073127D02*
X0115029Y0073127D01*
X0115029Y0073323D02*
X0114439Y0073323D01*
X0114439Y0073519D02*
X0115029Y0073519D01*
X0115029Y0073715D02*
X0114439Y0073715D01*
X0114439Y0073911D02*
X0115029Y0073911D01*
X0115029Y0074107D02*
X0114439Y0074107D01*
X0114439Y0074303D02*
X0115029Y0074303D01*
X0115029Y0074499D02*
X0114439Y0074499D01*
X0114439Y0074695D02*
X0115029Y0074695D01*
X0115029Y0074891D02*
X0114439Y0074891D01*
X0114439Y0075087D02*
X0115029Y0075087D01*
X0115029Y0075283D02*
X0114439Y0075283D01*
X0114439Y0075479D02*
X0115029Y0075479D01*
X0113061Y0075531D02*
X0113061Y0072539D01*
X0113061Y0075531D02*
X0113651Y0075531D01*
X0113651Y0072539D01*
X0113061Y0072539D01*
X0113061Y0072735D02*
X0113651Y0072735D01*
X0113651Y0072931D02*
X0113061Y0072931D01*
X0113061Y0073127D02*
X0113651Y0073127D01*
X0113651Y0073323D02*
X0113061Y0073323D01*
X0113061Y0073519D02*
X0113651Y0073519D01*
X0113651Y0073715D02*
X0113061Y0073715D01*
X0113061Y0073911D02*
X0113651Y0073911D01*
X0113651Y0074107D02*
X0113061Y0074107D01*
X0113061Y0074303D02*
X0113651Y0074303D01*
X0113651Y0074499D02*
X0113061Y0074499D01*
X0113061Y0074695D02*
X0113651Y0074695D01*
X0113651Y0074891D02*
X0113061Y0074891D01*
X0113061Y0075087D02*
X0113651Y0075087D01*
X0113651Y0075283D02*
X0113061Y0075283D01*
X0113061Y0075479D02*
X0113651Y0075479D01*
X0111683Y0075531D02*
X0111683Y0072539D01*
X0111683Y0075531D02*
X0112273Y0075531D01*
X0112273Y0072539D01*
X0111683Y0072539D01*
X0111683Y0072735D02*
X0112273Y0072735D01*
X0112273Y0072931D02*
X0111683Y0072931D01*
X0111683Y0073127D02*
X0112273Y0073127D01*
X0112273Y0073323D02*
X0111683Y0073323D01*
X0111683Y0073519D02*
X0112273Y0073519D01*
X0112273Y0073715D02*
X0111683Y0073715D01*
X0111683Y0073911D02*
X0112273Y0073911D01*
X0112273Y0074107D02*
X0111683Y0074107D01*
X0111683Y0074303D02*
X0112273Y0074303D01*
X0112273Y0074499D02*
X0111683Y0074499D01*
X0111683Y0074695D02*
X0112273Y0074695D01*
X0112273Y0074891D02*
X0111683Y0074891D01*
X0111683Y0075087D02*
X0112273Y0075087D01*
X0112273Y0075283D02*
X0111683Y0075283D01*
X0111683Y0075479D02*
X0112273Y0075479D01*
X0110305Y0075531D02*
X0110305Y0072539D01*
X0110305Y0075531D02*
X0110895Y0075531D01*
X0110895Y0072539D01*
X0110305Y0072539D01*
X0110305Y0072735D02*
X0110895Y0072735D01*
X0110895Y0072931D02*
X0110305Y0072931D01*
X0110305Y0073127D02*
X0110895Y0073127D01*
X0110895Y0073323D02*
X0110305Y0073323D01*
X0110305Y0073519D02*
X0110895Y0073519D01*
X0110895Y0073715D02*
X0110305Y0073715D01*
X0110305Y0073911D02*
X0110895Y0073911D01*
X0110895Y0074107D02*
X0110305Y0074107D01*
X0110305Y0074303D02*
X0110895Y0074303D01*
X0110895Y0074499D02*
X0110305Y0074499D01*
X0110305Y0074695D02*
X0110895Y0074695D01*
X0110895Y0074891D02*
X0110305Y0074891D01*
X0110305Y0075087D02*
X0110895Y0075087D01*
X0110895Y0075283D02*
X0110305Y0075283D01*
X0110305Y0075479D02*
X0110895Y0075479D01*
X0108927Y0075531D02*
X0108927Y0072539D01*
X0108927Y0075531D02*
X0109517Y0075531D01*
X0109517Y0072539D01*
X0108927Y0072539D01*
X0108927Y0072735D02*
X0109517Y0072735D01*
X0109517Y0072931D02*
X0108927Y0072931D01*
X0108927Y0073127D02*
X0109517Y0073127D01*
X0109517Y0073323D02*
X0108927Y0073323D01*
X0108927Y0073519D02*
X0109517Y0073519D01*
X0109517Y0073715D02*
X0108927Y0073715D01*
X0108927Y0073911D02*
X0109517Y0073911D01*
X0109517Y0074107D02*
X0108927Y0074107D01*
X0108927Y0074303D02*
X0109517Y0074303D01*
X0109517Y0074499D02*
X0108927Y0074499D01*
X0108927Y0074695D02*
X0109517Y0074695D01*
X0109517Y0074891D02*
X0108927Y0074891D01*
X0108927Y0075087D02*
X0109517Y0075087D01*
X0109517Y0075283D02*
X0108927Y0075283D01*
X0108927Y0075479D02*
X0109517Y0075479D01*
X0107549Y0075531D02*
X0107549Y0072539D01*
X0107549Y0075531D02*
X0108139Y0075531D01*
X0108139Y0072539D01*
X0107549Y0072539D01*
X0107549Y0072735D02*
X0108139Y0072735D01*
X0108139Y0072931D02*
X0107549Y0072931D01*
X0107549Y0073127D02*
X0108139Y0073127D01*
X0108139Y0073323D02*
X0107549Y0073323D01*
X0107549Y0073519D02*
X0108139Y0073519D01*
X0108139Y0073715D02*
X0107549Y0073715D01*
X0107549Y0073911D02*
X0108139Y0073911D01*
X0108139Y0074107D02*
X0107549Y0074107D01*
X0107549Y0074303D02*
X0108139Y0074303D01*
X0108139Y0074499D02*
X0107549Y0074499D01*
X0107549Y0074695D02*
X0108139Y0074695D01*
X0108139Y0074891D02*
X0107549Y0074891D01*
X0107549Y0075087D02*
X0108139Y0075087D01*
X0108139Y0075283D02*
X0107549Y0075283D01*
X0107549Y0075479D02*
X0108139Y0075479D01*
X0106171Y0075531D02*
X0106171Y0072539D01*
X0106171Y0075531D02*
X0106761Y0075531D01*
X0106761Y0072539D01*
X0106171Y0072539D01*
X0106171Y0072735D02*
X0106761Y0072735D01*
X0106761Y0072931D02*
X0106171Y0072931D01*
X0106171Y0073127D02*
X0106761Y0073127D01*
X0106761Y0073323D02*
X0106171Y0073323D01*
X0106171Y0073519D02*
X0106761Y0073519D01*
X0106761Y0073715D02*
X0106171Y0073715D01*
X0106171Y0073911D02*
X0106761Y0073911D01*
X0106761Y0074107D02*
X0106171Y0074107D01*
X0106171Y0074303D02*
X0106761Y0074303D01*
X0106761Y0074499D02*
X0106171Y0074499D01*
X0106171Y0074695D02*
X0106761Y0074695D01*
X0106761Y0074891D02*
X0106171Y0074891D01*
X0106171Y0075087D02*
X0106761Y0075087D01*
X0106761Y0075283D02*
X0106171Y0075283D01*
X0106171Y0075479D02*
X0106761Y0075479D01*
X0104793Y0075531D02*
X0104793Y0072539D01*
X0104793Y0075531D02*
X0105383Y0075531D01*
X0105383Y0072539D01*
X0104793Y0072539D01*
X0104793Y0072735D02*
X0105383Y0072735D01*
X0105383Y0072931D02*
X0104793Y0072931D01*
X0104793Y0073127D02*
X0105383Y0073127D01*
X0105383Y0073323D02*
X0104793Y0073323D01*
X0104793Y0073519D02*
X0105383Y0073519D01*
X0105383Y0073715D02*
X0104793Y0073715D01*
X0104793Y0073911D02*
X0105383Y0073911D01*
X0105383Y0074107D02*
X0104793Y0074107D01*
X0104793Y0074303D02*
X0105383Y0074303D01*
X0105383Y0074499D02*
X0104793Y0074499D01*
X0104793Y0074695D02*
X0105383Y0074695D01*
X0105383Y0074891D02*
X0104793Y0074891D01*
X0104793Y0075087D02*
X0105383Y0075087D01*
X0105383Y0075283D02*
X0104793Y0075283D01*
X0104793Y0075479D02*
X0105383Y0075479D01*
X0103415Y0075531D02*
X0103415Y0072539D01*
X0103415Y0075531D02*
X0104005Y0075531D01*
X0104005Y0072539D01*
X0103415Y0072539D01*
X0103415Y0072735D02*
X0104005Y0072735D01*
X0104005Y0072931D02*
X0103415Y0072931D01*
X0103415Y0073127D02*
X0104005Y0073127D01*
X0104005Y0073323D02*
X0103415Y0073323D01*
X0103415Y0073519D02*
X0104005Y0073519D01*
X0104005Y0073715D02*
X0103415Y0073715D01*
X0103415Y0073911D02*
X0104005Y0073911D01*
X0104005Y0074107D02*
X0103415Y0074107D01*
X0103415Y0074303D02*
X0104005Y0074303D01*
X0104005Y0074499D02*
X0103415Y0074499D01*
X0103415Y0074695D02*
X0104005Y0074695D01*
X0104005Y0074891D02*
X0103415Y0074891D01*
X0103415Y0075087D02*
X0104005Y0075087D01*
X0104005Y0075283D02*
X0103415Y0075283D01*
X0103415Y0075479D02*
X0104005Y0075479D01*
X0102037Y0075531D02*
X0102037Y0072539D01*
X0102037Y0075531D02*
X0102627Y0075531D01*
X0102627Y0072539D01*
X0102037Y0072539D01*
X0102037Y0072735D02*
X0102627Y0072735D01*
X0102627Y0072931D02*
X0102037Y0072931D01*
X0102037Y0073127D02*
X0102627Y0073127D01*
X0102627Y0073323D02*
X0102037Y0073323D01*
X0102037Y0073519D02*
X0102627Y0073519D01*
X0102627Y0073715D02*
X0102037Y0073715D01*
X0102037Y0073911D02*
X0102627Y0073911D01*
X0102627Y0074107D02*
X0102037Y0074107D01*
X0102037Y0074303D02*
X0102627Y0074303D01*
X0102627Y0074499D02*
X0102037Y0074499D01*
X0102037Y0074695D02*
X0102627Y0074695D01*
X0102627Y0074891D02*
X0102037Y0074891D01*
X0102037Y0075087D02*
X0102627Y0075087D01*
X0102627Y0075283D02*
X0102037Y0075283D01*
X0102037Y0075479D02*
X0102627Y0075479D01*
X0100659Y0075531D02*
X0100659Y0072539D01*
X0100659Y0075531D02*
X0101249Y0075531D01*
X0101249Y0072539D01*
X0100659Y0072539D01*
X0100659Y0072735D02*
X0101249Y0072735D01*
X0101249Y0072931D02*
X0100659Y0072931D01*
X0100659Y0073127D02*
X0101249Y0073127D01*
X0101249Y0073323D02*
X0100659Y0073323D01*
X0100659Y0073519D02*
X0101249Y0073519D01*
X0101249Y0073715D02*
X0100659Y0073715D01*
X0100659Y0073911D02*
X0101249Y0073911D01*
X0101249Y0074107D02*
X0100659Y0074107D01*
X0100659Y0074303D02*
X0101249Y0074303D01*
X0101249Y0074499D02*
X0100659Y0074499D01*
X0100659Y0074695D02*
X0101249Y0074695D01*
X0101249Y0074891D02*
X0100659Y0074891D01*
X0100659Y0075087D02*
X0101249Y0075087D01*
X0101249Y0075283D02*
X0100659Y0075283D01*
X0100659Y0075479D02*
X0101249Y0075479D01*
X0099281Y0075531D02*
X0099281Y0072539D01*
X0099281Y0075531D02*
X0099871Y0075531D01*
X0099871Y0072539D01*
X0099281Y0072539D01*
X0099281Y0072735D02*
X0099871Y0072735D01*
X0099871Y0072931D02*
X0099281Y0072931D01*
X0099281Y0073127D02*
X0099871Y0073127D01*
X0099871Y0073323D02*
X0099281Y0073323D01*
X0099281Y0073519D02*
X0099871Y0073519D01*
X0099871Y0073715D02*
X0099281Y0073715D01*
X0099281Y0073911D02*
X0099871Y0073911D01*
X0099871Y0074107D02*
X0099281Y0074107D01*
X0099281Y0074303D02*
X0099871Y0074303D01*
X0099871Y0074499D02*
X0099281Y0074499D01*
X0099281Y0074695D02*
X0099871Y0074695D01*
X0099871Y0074891D02*
X0099281Y0074891D01*
X0099281Y0075087D02*
X0099871Y0075087D01*
X0099871Y0075283D02*
X0099281Y0075283D01*
X0099281Y0075479D02*
X0099871Y0075479D01*
D20*
X0108533Y0083661D03*
D21*
X0106033Y0051397D03*
X0101033Y0051397D03*
X0096033Y0051397D03*
X0091033Y0051397D03*
X0091033Y0030925D03*
X0096033Y0030925D03*
X0101033Y0030925D03*
X0106033Y0030925D03*
D22*
X0133415Y0104921D03*
X0133415Y0112401D03*
X0133415Y0119921D03*
X0133415Y0127401D03*
X0143651Y0127401D03*
X0143651Y0123661D03*
X0143651Y0119921D03*
X0143651Y0112401D03*
X0143651Y0108661D03*
X0143651Y0104921D03*
D23*
X0062273Y0143543D03*
X0054793Y0143543D03*
X0054793Y0153779D03*
X0058533Y0153779D03*
X0062273Y0153779D03*
D24*
X0097686Y0116161D03*
X0104379Y0116161D03*
X0066879Y0043661D03*
X0060186Y0043661D03*
X0061879Y0033661D03*
X0055186Y0033661D03*
D25*
X0063474Y0051161D03*
X0068592Y0051161D03*
X0073474Y0056161D03*
X0078592Y0056161D03*
X0093474Y0066161D03*
X0098592Y0066161D03*
X0091092Y0076161D03*
X0085974Y0076161D03*
X0078592Y0086161D03*
X0073474Y0086161D03*
X0083474Y0088661D03*
X0088592Y0088661D03*
X0113474Y0116161D03*
X0118592Y0116161D03*
X0125974Y0133661D03*
X0131092Y0133661D03*
X0131092Y0141161D03*
X0125974Y0141161D03*
X0128474Y0151161D03*
X0133592Y0151161D03*
X0140974Y0148661D03*
X0146092Y0148661D03*
X0148592Y0098661D03*
X0143474Y0098661D03*
X0133592Y0098661D03*
X0128474Y0098661D03*
X0128474Y0091161D03*
X0133592Y0091161D03*
X0133592Y0083661D03*
X0128474Y0083661D03*
X0128474Y0077161D03*
X0133592Y0077161D03*
X0133592Y0070161D03*
X0128474Y0070161D03*
X0128474Y0063161D03*
X0133592Y0063161D03*
X0143474Y0073661D03*
X0148592Y0073661D03*
X0061092Y0161161D03*
X0055974Y0161161D03*
X0041092Y0098661D03*
X0035974Y0098661D03*
X0035974Y0091161D03*
X0041092Y0091161D03*
X0041092Y0078661D03*
X0035974Y0078661D03*
X0035974Y0071161D03*
X0041092Y0071161D03*
X0041092Y0063661D03*
X0035974Y0063661D03*
X0035974Y0056161D03*
X0041092Y0056161D03*
D26*
X0053533Y0053720D03*
X0053533Y0048602D03*
X0071033Y0036220D03*
X0071033Y0031102D03*
X0076033Y0043602D03*
X0076033Y0048720D03*
X0083533Y0048720D03*
X0083533Y0043602D03*
X0112033Y0041102D03*
X0112033Y0046220D03*
X0121033Y0063602D03*
X0121033Y0068720D03*
X0118533Y0103602D03*
X0118533Y0108720D03*
X0111033Y0108720D03*
X0111033Y0103602D03*
X0103533Y0103602D03*
X0103533Y0108720D03*
X0081033Y0111102D03*
X0081033Y0116220D03*
X0073533Y0116220D03*
X0073533Y0111102D03*
X0081033Y0103720D03*
X0081033Y0098602D03*
X0063533Y0111102D03*
X0063533Y0116220D03*
X0053533Y0116220D03*
X0053533Y0111102D03*
X0053533Y0103720D03*
X0053533Y0098602D03*
X0061033Y0098602D03*
X0061033Y0103720D03*
X0058533Y0091220D03*
X0058533Y0086102D03*
X0046033Y0111102D03*
X0046033Y0116220D03*
X0036033Y0116220D03*
X0036033Y0111102D03*
X0036033Y0131102D03*
X0036033Y0136220D03*
X0046033Y0136220D03*
X0046033Y0131102D03*
X0056033Y0131102D03*
X0056033Y0136220D03*
X0063533Y0136220D03*
X0063533Y0131102D03*
X0121033Y0146102D03*
X0121033Y0151220D03*
X0138533Y0141220D03*
X0138533Y0136102D03*
X0151033Y0126220D03*
X0151033Y0121102D03*
X0151033Y0111220D03*
X0151033Y0106102D03*
X0126033Y0106102D03*
X0126033Y0111220D03*
X0151033Y0148602D03*
X0151033Y0153720D03*
D27*
X0123533Y0127007D03*
X0123533Y0120315D03*
X0096033Y0109507D03*
X0096033Y0102815D03*
X0051033Y0092007D03*
X0051033Y0085315D03*
X0046033Y0052007D03*
X0046033Y0045315D03*
X0078533Y0037007D03*
X0078533Y0030315D03*
D28*
X0079379Y0066437D03*
X0072686Y0066437D03*
X0072686Y0075885D03*
X0079379Y0075885D03*
X0142686Y0081437D03*
X0149379Y0081437D03*
X0149379Y0090885D03*
X0142686Y0090885D03*
D29*
X0061486Y0123661D03*
X0055580Y0123661D03*
X0043986Y0123661D03*
X0038080Y0123661D03*
D30*
X0118273Y0056303D02*
X0118273Y0053421D01*
X0118273Y0056303D02*
X0118793Y0056303D01*
X0118793Y0053421D01*
X0118273Y0053421D01*
X0118273Y0054633D02*
X0118793Y0054633D01*
X0118793Y0055845D02*
X0118273Y0055845D01*
X0123273Y0056303D02*
X0123273Y0053421D01*
X0123273Y0056303D02*
X0123793Y0056303D01*
X0123793Y0053421D01*
X0123273Y0053421D01*
X0123273Y0054633D02*
X0123793Y0054633D01*
X0123793Y0055845D02*
X0123273Y0055845D01*
X0128273Y0056303D02*
X0128273Y0053421D01*
X0128273Y0056303D02*
X0128793Y0056303D01*
X0128793Y0053421D01*
X0128273Y0053421D01*
X0128273Y0054633D02*
X0128793Y0054633D01*
X0128793Y0055845D02*
X0128273Y0055845D01*
X0133273Y0056303D02*
X0133273Y0053421D01*
X0133273Y0056303D02*
X0133793Y0056303D01*
X0133793Y0053421D01*
X0133273Y0053421D01*
X0133273Y0054633D02*
X0133793Y0054633D01*
X0133793Y0055845D02*
X0133273Y0055845D01*
X0133273Y0033901D02*
X0133273Y0031019D01*
X0133273Y0033901D02*
X0133793Y0033901D01*
X0133793Y0031019D01*
X0133273Y0031019D01*
X0133273Y0032231D02*
X0133793Y0032231D01*
X0133793Y0033443D02*
X0133273Y0033443D01*
X0128273Y0033901D02*
X0128273Y0031019D01*
X0128273Y0033901D02*
X0128793Y0033901D01*
X0128793Y0031019D01*
X0128273Y0031019D01*
X0128273Y0032231D02*
X0128793Y0032231D01*
X0128793Y0033443D02*
X0128273Y0033443D01*
X0123273Y0033901D02*
X0123273Y0031019D01*
X0123273Y0033901D02*
X0123793Y0033901D01*
X0123793Y0031019D01*
X0123273Y0031019D01*
X0123273Y0032231D02*
X0123793Y0032231D01*
X0123793Y0033443D02*
X0123273Y0033443D01*
X0118273Y0033901D02*
X0118273Y0031019D01*
X0118273Y0033901D02*
X0118793Y0033901D01*
X0118793Y0031019D01*
X0118273Y0031019D01*
X0118273Y0032231D02*
X0118793Y0032231D01*
X0118793Y0033443D02*
X0118273Y0033443D01*
D31*
X0126033Y0043661D03*
D32*
X0144793Y0134724D03*
X0148533Y0142992D03*
X0152273Y0134724D03*
X0044773Y0144724D03*
X0037293Y0144724D03*
X0041033Y0152992D03*
D33*
X0068474Y0104350D03*
X0071033Y0104350D03*
X0073592Y0104350D03*
X0073592Y0098011D03*
X0071033Y0098011D03*
X0068474Y0098011D03*
D34*
X0123808Y0160315D03*
X0123808Y0167007D03*
X0133257Y0167007D03*
X0133257Y0160315D03*
D35*
X0141702Y0065216D03*
X0150363Y0065216D03*
X0150363Y0052106D03*
X0141702Y0052106D03*
D36*
X0150363Y0052106D02*
X0150363Y0065216D01*
X0143474Y0073661D02*
X0143474Y0080649D01*
X0142686Y0081437D01*
X0143474Y0073661D02*
X0136533Y0073661D01*
X0133592Y0091161D02*
X0133592Y0095102D01*
X0133533Y0095161D01*
X0133533Y0098602D01*
X0133592Y0098661D01*
X0133415Y0104921D02*
X0129533Y0104921D01*
X0129533Y0114661D01*
X0128533Y0119921D02*
X0123926Y0119921D01*
X0123533Y0120315D01*
X0123533Y0118661D01*
X0121033Y0116161D01*
X0118592Y0116161D01*
X0118592Y0118602D01*
X0110501Y0126692D01*
X0105934Y0126692D01*
X0106033Y0137161D02*
X0107218Y0138346D01*
X0110501Y0138346D01*
X0118533Y0138161D02*
X0118533Y0143602D01*
X0121033Y0146102D01*
X0128533Y0146161D02*
X0128533Y0151102D01*
X0128474Y0151161D01*
X0128474Y0155649D01*
X0123808Y0160315D01*
X0123808Y0167007D01*
X0133257Y0160315D02*
X0133592Y0159980D01*
X0133592Y0151161D01*
X0137033Y0151161D01*
X0131092Y0143602D02*
X0128533Y0146161D01*
X0131092Y0143602D02*
X0131092Y0141161D01*
X0131092Y0133661D01*
X0131092Y0131220D01*
X0128533Y0128661D01*
X0128533Y0119921D01*
X0133415Y0119921D01*
X0143651Y0119921D02*
X0146793Y0119921D01*
X0147533Y0120661D01*
X0147974Y0121102D01*
X0151033Y0121102D01*
X0151033Y0126220D02*
X0148092Y0126220D01*
X0145533Y0123661D01*
X0143651Y0123661D01*
X0151033Y0126220D02*
X0151033Y0130161D01*
X0152273Y0134724D02*
X0152273Y0137921D01*
X0151533Y0138661D01*
X0145533Y0138661D01*
X0143033Y0141161D01*
X0138592Y0141161D01*
X0138533Y0141220D01*
X0147033Y0153661D02*
X0150974Y0153661D01*
X0151033Y0153720D01*
X0151033Y0114661D02*
X0151033Y0111220D01*
X0148092Y0111220D01*
X0145533Y0108661D01*
X0143651Y0108661D01*
X0143651Y0104921D02*
X0146793Y0104921D01*
X0147533Y0105661D01*
X0147974Y0106102D01*
X0151033Y0106102D01*
X0152033Y0098661D02*
X0148592Y0098661D01*
X0148592Y0091673D01*
X0149379Y0090885D01*
X0129533Y0104921D02*
X0127214Y0104921D01*
X0126033Y0106102D01*
X0122533Y0102661D02*
X0121592Y0103602D01*
X0118533Y0103602D01*
X0111033Y0103602D02*
X0103533Y0103602D01*
X0096820Y0103602D01*
X0096033Y0102815D01*
X0095686Y0103161D01*
X0091533Y0103161D01*
X0088533Y0092161D02*
X0088592Y0092102D01*
X0088592Y0088661D01*
X0083474Y0088661D02*
X0083474Y0085220D01*
X0086033Y0082661D01*
X0086033Y0076220D01*
X0085974Y0076161D01*
X0079379Y0075885D02*
X0079033Y0076232D01*
X0079033Y0081661D01*
X0079033Y0085720D01*
X0078592Y0086161D01*
X0072686Y0066437D02*
X0073533Y0065590D01*
X0073533Y0060161D01*
X0073533Y0056220D01*
X0073474Y0056161D01*
X0068533Y0055161D02*
X0068533Y0051220D01*
X0068592Y0051161D01*
X0065533Y0047661D02*
X0064533Y0047661D01*
X0063474Y0048720D01*
X0063474Y0051161D01*
X0065533Y0047661D02*
X0066879Y0046315D01*
X0066879Y0043661D01*
X0062379Y0039161D01*
X0056533Y0039161D01*
X0055186Y0037815D01*
X0055186Y0033661D01*
X0061879Y0033661D02*
X0064438Y0036220D01*
X0071033Y0036220D01*
X0071033Y0038161D01*
X0072033Y0039161D01*
X0074533Y0039161D01*
X0076379Y0039161D01*
X0078533Y0037007D01*
X0083533Y0042007D01*
X0083533Y0043602D01*
X0076033Y0043602D02*
X0075092Y0042661D01*
X0072033Y0042661D01*
X0078533Y0037007D02*
X0079438Y0037007D01*
X0078533Y0030315D02*
X0078686Y0030161D01*
X0082533Y0030161D01*
X0071033Y0031102D02*
X0071033Y0027661D01*
X0060186Y0043661D02*
X0055033Y0043661D01*
X0053533Y0045161D01*
X0053379Y0045315D01*
X0046033Y0045315D01*
X0046033Y0052007D02*
X0051820Y0052007D01*
X0053533Y0053720D01*
X0053533Y0048602D02*
X0053533Y0045161D01*
X0036033Y0052161D02*
X0036033Y0056102D01*
X0035974Y0056161D01*
X0035974Y0063661D02*
X0035974Y0071161D01*
X0036033Y0071220D01*
X0036033Y0075161D01*
X0036033Y0078602D01*
X0035974Y0078661D01*
X0041033Y0087161D02*
X0041033Y0091102D01*
X0041092Y0091161D01*
X0041092Y0098661D01*
X0046533Y0091661D02*
X0050686Y0091661D01*
X0051033Y0092007D01*
X0051820Y0091220D01*
X0058533Y0091220D01*
X0058533Y0086102D02*
X0055033Y0086102D01*
X0051033Y0086102D01*
X0051033Y0085315D01*
X0049686Y0086661D01*
X0046533Y0086661D01*
X0045974Y0116161D02*
X0042033Y0116161D01*
X0045974Y0116161D02*
X0046033Y0116220D01*
X0053592Y0116161D02*
X0057533Y0116161D01*
X0069533Y0116161D02*
X0073474Y0116161D01*
X0073533Y0116220D01*
X0063533Y0131102D02*
X0063474Y0131161D01*
X0060033Y0131161D01*
X0056092Y0131161D01*
X0056033Y0131102D01*
X0056033Y0136220D02*
X0063533Y0136220D01*
X0063592Y0136161D01*
X0068033Y0136161D01*
X0063533Y0136220D02*
X0063533Y0139161D01*
X0062273Y0140421D01*
X0062273Y0143543D01*
X0062273Y0153779D02*
X0062273Y0159980D01*
X0061092Y0161161D01*
X0061092Y0165602D01*
X0061033Y0165661D01*
X0055974Y0161161D02*
X0055974Y0160220D01*
X0058533Y0157661D01*
X0058533Y0153779D01*
X0041033Y0152992D02*
X0041033Y0148661D01*
X0076564Y0134803D02*
X0080675Y0134803D01*
X0082033Y0136161D01*
X0093474Y0066161D02*
X0093474Y0065102D01*
X0089533Y0061161D01*
X0084533Y0061161D01*
X0088533Y0061161D01*
X0091033Y0058661D01*
X0091033Y0051397D01*
X0118533Y0049661D02*
X0119033Y0049161D01*
X0118533Y0049661D02*
X0118533Y0054862D01*
X0126033Y0043661D02*
X0120533Y0038161D01*
X0119033Y0038161D01*
X0150533Y0047661D02*
X0150533Y0051937D01*
X0150363Y0052106D01*
D37*
X0150533Y0047661D03*
X0133033Y0049161D03*
X0133033Y0038161D03*
X0121033Y0028661D03*
X0115533Y0029161D03*
X0110033Y0026661D03*
X0112033Y0037661D03*
X0119033Y0038161D03*
X0119033Y0049161D03*
X0114133Y0059461D03*
X0116933Y0062761D03*
X0115933Y0066261D03*
X0115933Y0069361D03*
X0120033Y0072161D03*
X0121533Y0074661D03*
X0122533Y0077661D03*
X0125533Y0080661D03*
X0128533Y0080661D03*
X0128533Y0073661D03*
X0128533Y0066661D03*
X0124533Y0063161D03*
X0136533Y0073661D03*
X0136533Y0080161D03*
X0133533Y0095161D03*
X0128533Y0095161D03*
X0121533Y0095161D03*
X0122533Y0088161D03*
X0114533Y0083661D03*
X0108533Y0083661D03*
X0108533Y0089661D03*
X0102533Y0083661D03*
X0108533Y0077661D03*
X0107833Y0068261D03*
X0111733Y0066261D03*
X0109033Y0060161D03*
X0106033Y0060661D03*
X0103033Y0060661D03*
X0101033Y0059161D03*
X0103533Y0057161D03*
X0098533Y0062161D03*
X0096033Y0069661D03*
X0092533Y0069661D03*
X0090033Y0066661D03*
X0087033Y0066661D03*
X0083033Y0071161D03*
X0084533Y0061161D03*
X0073533Y0060161D03*
X0068533Y0055161D03*
X0066033Y0059161D03*
X0061033Y0057161D03*
X0058533Y0054661D03*
X0052533Y0058161D03*
X0049033Y0060161D03*
X0044033Y0067661D03*
X0039533Y0067661D03*
X0038533Y0060161D03*
X0036033Y0052161D03*
X0053533Y0045161D03*
X0072033Y0042661D03*
X0074533Y0039161D03*
X0082533Y0030161D03*
X0088033Y0028161D03*
X0086533Y0037161D03*
X0093533Y0037161D03*
X0098533Y0037161D03*
X0103533Y0037161D03*
X0103033Y0040661D03*
X0071033Y0027661D03*
X0056033Y0071161D03*
X0063533Y0079661D03*
X0065533Y0082161D03*
X0068033Y0084161D03*
X0068033Y0077661D03*
X0068033Y0074161D03*
X0079033Y0081661D03*
X0086033Y0082661D03*
X0092533Y0081661D03*
X0091533Y0089220D03*
X0093533Y0092661D03*
X0096033Y0093661D03*
X0095533Y0089161D03*
X0088533Y0092161D03*
X0083533Y0095161D03*
X0079033Y0092661D03*
X0077533Y0101161D03*
X0077533Y0107661D03*
X0082533Y0107661D03*
X0084533Y0109661D03*
X0091533Y0103161D03*
X0100033Y0100161D03*
X0103533Y0100161D03*
X0107533Y0101161D03*
X0109533Y0097161D03*
X0112033Y0099661D03*
X0107533Y0106161D03*
X0108033Y0111661D03*
X0103533Y0111661D03*
X0100033Y0109161D03*
X0113533Y0120161D03*
X0122033Y0111661D03*
X0129533Y0114661D03*
X0122533Y0102661D03*
X0139033Y0099661D03*
X0147533Y0105661D03*
X0152033Y0098661D03*
X0151033Y0114661D03*
X0147533Y0120661D03*
X0151033Y0130161D03*
X0143033Y0141161D03*
X0137033Y0151161D03*
X0142533Y0153661D03*
X0147033Y0153661D03*
X0125033Y0148661D03*
X0122033Y0141661D03*
X0118533Y0138161D03*
X0122033Y0132661D03*
X0106033Y0137161D03*
X0105533Y0141661D03*
X0103033Y0145661D03*
X0105533Y0148661D03*
X0105533Y0155161D03*
X0093533Y0143661D03*
X0086533Y0132661D03*
X0090033Y0130661D03*
X0095033Y0130661D03*
X0099033Y0130661D03*
X0082033Y0136161D03*
X0082033Y0143661D03*
X0068033Y0136161D03*
X0060033Y0131161D03*
X0066533Y0123661D03*
X0072533Y0120661D03*
X0069533Y0116161D03*
X0065533Y0106161D03*
X0059033Y0111102D03*
X0057533Y0116161D03*
X0042033Y0116161D03*
X0049533Y0101161D03*
X0046533Y0091661D03*
X0046533Y0086661D03*
X0041033Y0087161D03*
X0041033Y0083161D03*
X0047033Y0079661D03*
X0044033Y0075661D03*
X0036033Y0075161D03*
X0056533Y0083161D03*
X0062533Y0092661D03*
X0067033Y0092661D03*
X0077033Y0127161D03*
X0058533Y0157661D03*
X0061033Y0165661D03*
X0072533Y0168661D03*
X0077533Y0168661D03*
X0082533Y0168661D03*
X0087533Y0168661D03*
X0092533Y0168661D03*
X0097533Y0168661D03*
X0102533Y0168661D03*
X0107533Y0168661D03*
X0112533Y0168661D03*
X0117533Y0163661D03*
X0077033Y0160161D03*
X0041033Y0148661D03*
D38*
X0044773Y0144724D02*
X0046033Y0143464D01*
X0046033Y0136220D01*
X0037293Y0144724D02*
X0036033Y0143464D01*
X0036033Y0136220D01*
X0038080Y0123661D02*
X0036033Y0121614D01*
X0036033Y0116220D01*
X0036033Y0111102D02*
X0046033Y0111102D01*
X0046033Y0104661D01*
X0049533Y0101161D01*
X0046533Y0098661D02*
X0053474Y0098661D01*
X0053533Y0098602D01*
X0056474Y0095661D01*
X0064033Y0095661D01*
X0065033Y0094661D01*
X0065033Y0084661D01*
X0062033Y0081661D01*
X0060533Y0081661D01*
X0059970Y0081098D01*
X0059970Y0078641D01*
X0058395Y0078641D02*
X0058395Y0082023D01*
X0059533Y0083161D01*
X0061033Y0083161D01*
X0062533Y0084661D01*
X0062533Y0092661D01*
X0061033Y0098602D02*
X0067883Y0098602D01*
X0068474Y0098011D01*
X0068474Y0094220D01*
X0070033Y0092661D01*
X0079033Y0092661D01*
X0077592Y0095161D02*
X0081033Y0098602D01*
X0077533Y0101161D02*
X0074383Y0098011D01*
X0073592Y0098011D01*
X0071033Y0098011D02*
X0071033Y0095661D01*
X0071533Y0095161D01*
X0077592Y0095161D01*
X0071033Y0101661D02*
X0071033Y0104350D01*
X0073592Y0104350D02*
X0080403Y0104350D01*
X0081033Y0103720D01*
X0081092Y0103720D01*
X0082533Y0105161D01*
X0082533Y0107661D01*
X0081033Y0111102D02*
X0077533Y0111102D01*
X0077533Y0107661D01*
X0077533Y0111102D02*
X0073533Y0111102D01*
X0076098Y0114755D02*
X0076098Y0117927D01*
X0075633Y0118392D01*
X0071432Y0118392D01*
X0070967Y0117927D01*
X0070967Y0117755D01*
X0070453Y0117755D01*
X0070269Y0117939D01*
X0070033Y0117939D01*
X0070033Y0170661D01*
X0118845Y0170661D01*
X0111945Y0163761D01*
X0111945Y0164307D01*
X0108832Y0164307D01*
X0108832Y0164787D01*
X0108352Y0164787D01*
X0108352Y0167014D01*
X0106270Y0167014D01*
X0105968Y0166933D01*
X0105934Y0166913D01*
X0105901Y0166933D01*
X0105599Y0167014D01*
X0104402Y0167014D01*
X0104402Y0164787D01*
X0103923Y0164787D01*
X0103923Y0167014D01*
X0102727Y0167014D01*
X0102425Y0166933D01*
X0102391Y0166913D01*
X0102357Y0166933D01*
X0102055Y0167014D01*
X0100859Y0167014D01*
X0100859Y0164787D01*
X0100380Y0164787D01*
X0100380Y0167014D01*
X0099184Y0167014D01*
X0098882Y0166933D01*
X0098848Y0166913D01*
X0098814Y0166933D01*
X0098512Y0167014D01*
X0097316Y0167014D01*
X0097316Y0164787D01*
X0096836Y0164787D01*
X0096836Y0167014D01*
X0095640Y0167014D01*
X0095338Y0166933D01*
X0095304Y0166913D01*
X0095271Y0166933D01*
X0094969Y0167014D01*
X0093773Y0167014D01*
X0093773Y0164787D01*
X0096000Y0164787D01*
X0096836Y0164787D01*
X0096836Y0164307D01*
X0093773Y0164307D01*
X0093773Y0164787D01*
X0093293Y0164787D01*
X0093293Y0167014D01*
X0092097Y0167014D01*
X0091795Y0166933D01*
X0091761Y0166913D01*
X0091727Y0166933D01*
X0091425Y0167014D01*
X0090229Y0167014D01*
X0090229Y0164787D01*
X0089750Y0164787D01*
X0089750Y0167014D01*
X0088554Y0167014D01*
X0088252Y0166933D01*
X0088218Y0166913D01*
X0088184Y0166933D01*
X0087882Y0167014D01*
X0086686Y0167014D01*
X0086686Y0164787D01*
X0086206Y0164787D01*
X0086206Y0167014D01*
X0085010Y0167014D01*
X0084708Y0166933D01*
X0084674Y0166913D01*
X0084641Y0166933D01*
X0084339Y0167014D01*
X0083143Y0167014D01*
X0083143Y0164787D01*
X0082663Y0164787D01*
X0082663Y0167014D01*
X0081467Y0167014D01*
X0081165Y0166933D01*
X0081131Y0166913D01*
X0081097Y0166933D01*
X0080795Y0167014D01*
X0078713Y0167014D01*
X0078713Y0164787D01*
X0078234Y0164787D01*
X0078234Y0167014D01*
X0076152Y0167014D01*
X0075850Y0166933D01*
X0075579Y0166776D01*
X0075358Y0166555D01*
X0075202Y0166285D01*
X0075121Y0165983D01*
X0075121Y0164787D01*
X0078234Y0164787D01*
X0078234Y0164307D01*
X0078713Y0164307D01*
X0078713Y0162080D01*
X0079353Y0162080D01*
X0079353Y0158647D01*
X0079818Y0158182D01*
X0082444Y0158182D01*
X0082903Y0158641D01*
X0083361Y0158182D01*
X0085988Y0158182D01*
X0086199Y0158393D01*
X0086283Y0158247D01*
X0086504Y0158026D01*
X0086775Y0157869D01*
X0087077Y0157789D01*
X0088126Y0157789D01*
X0088126Y0160537D01*
X0088310Y0160537D01*
X0088310Y0157789D01*
X0089358Y0157789D01*
X0089660Y0157869D01*
X0089931Y0158026D01*
X0090152Y0158247D01*
X0090237Y0158393D01*
X0090448Y0158182D01*
X0093074Y0158182D01*
X0093533Y0158641D01*
X0093991Y0158182D01*
X0096617Y0158182D01*
X0096829Y0158393D01*
X0096913Y0158247D01*
X0097134Y0158026D01*
X0097405Y0157869D01*
X0097707Y0157789D01*
X0098756Y0157789D01*
X0098756Y0160537D01*
X0098940Y0160537D01*
X0098940Y0157789D01*
X0099988Y0157789D01*
X0100290Y0157869D01*
X0100561Y0158026D01*
X0100782Y0158247D01*
X0100867Y0158393D01*
X0101078Y0158182D01*
X0101339Y0158182D01*
X0101339Y0157667D01*
X0102038Y0156967D01*
X0102538Y0156467D01*
X0104325Y0156467D01*
X0103755Y0155897D01*
X0103755Y0154425D01*
X0104466Y0153713D01*
X0103397Y0153713D01*
X0100038Y0150355D01*
X0099339Y0149655D01*
X0099339Y0136167D01*
X0104839Y0130667D01*
X0104839Y0129140D01*
X0104621Y0129140D01*
X0104410Y0128928D01*
X0104325Y0129075D01*
X0104104Y0129296D01*
X0103834Y0129452D01*
X0103532Y0129533D01*
X0102483Y0129533D01*
X0102483Y0126785D01*
X0102299Y0126785D01*
X0102299Y0129533D01*
X0101250Y0129533D01*
X0100948Y0129452D01*
X0100678Y0129296D01*
X0100457Y0129075D01*
X0100372Y0128928D01*
X0100161Y0129140D01*
X0100126Y0129140D01*
X0100126Y0129240D01*
X0100811Y0129925D01*
X0100811Y0131397D01*
X0099769Y0132439D01*
X0098296Y0132439D01*
X0097255Y0131397D01*
X0097255Y0129925D01*
X0097939Y0129240D01*
X0097939Y0129140D01*
X0097535Y0129140D01*
X0097076Y0128681D01*
X0096617Y0129140D01*
X0096126Y0129140D01*
X0096126Y0129240D01*
X0096811Y0129925D01*
X0096811Y0131397D01*
X0095769Y0132439D01*
X0094296Y0132439D01*
X0093255Y0131397D01*
X0093255Y0129925D01*
X0093939Y0129240D01*
X0093939Y0129087D01*
X0093533Y0128681D01*
X0093074Y0129140D01*
X0092855Y0129140D01*
X0092855Y0129386D01*
X0092214Y0130026D01*
X0091811Y0130430D01*
X0091811Y0131397D01*
X0090769Y0132439D01*
X0089296Y0132439D01*
X0088255Y0131397D01*
X0088255Y0130430D01*
X0087124Y0129299D01*
X0087124Y0129140D01*
X0086905Y0129140D01*
X0086694Y0128928D01*
X0086609Y0129075D01*
X0086388Y0129296D01*
X0086117Y0129452D01*
X0085815Y0129533D01*
X0084767Y0129533D01*
X0084767Y0126785D01*
X0084582Y0126785D01*
X0084582Y0129533D01*
X0083534Y0129533D01*
X0083232Y0129452D01*
X0082961Y0129296D01*
X0082903Y0129238D01*
X0082845Y0129296D01*
X0082574Y0129452D01*
X0082272Y0129533D01*
X0081223Y0129533D01*
X0081223Y0126785D01*
X0081039Y0126785D01*
X0081039Y0129533D01*
X0079991Y0129533D01*
X0079689Y0129452D01*
X0079418Y0129296D01*
X0079197Y0129075D01*
X0079040Y0128804D01*
X0078960Y0128502D01*
X0078960Y0126785D01*
X0081039Y0126785D01*
X0081039Y0126600D01*
X0078960Y0126600D01*
X0078960Y0125242D01*
X0078713Y0125242D01*
X0078713Y0123015D01*
X0078234Y0123015D01*
X0078234Y0125242D01*
X0076152Y0125242D01*
X0075850Y0125161D01*
X0075579Y0125005D01*
X0075358Y0124784D01*
X0075202Y0124513D01*
X0075121Y0124211D01*
X0075121Y0123015D01*
X0078234Y0123015D01*
X0078234Y0122535D01*
X0078713Y0122535D01*
X0078713Y0120308D01*
X0080795Y0120308D01*
X0081097Y0120389D01*
X0081131Y0120409D01*
X0081165Y0120389D01*
X0081467Y0120308D01*
X0082663Y0120308D01*
X0082663Y0122535D01*
X0083143Y0122535D01*
X0083143Y0123015D01*
X0086206Y0123015D01*
X0086206Y0122535D01*
X0083979Y0122535D01*
X0083143Y0122535D01*
X0083143Y0120308D01*
X0084339Y0120308D01*
X0084641Y0120389D01*
X0084674Y0120409D01*
X0084708Y0120389D01*
X0085010Y0120308D01*
X0086206Y0120308D01*
X0086206Y0122535D01*
X0086686Y0122535D01*
X0086686Y0120308D01*
X0087882Y0120308D01*
X0088184Y0120389D01*
X0088218Y0120409D01*
X0088252Y0120389D01*
X0088554Y0120308D01*
X0089750Y0120308D01*
X0089750Y0122535D01*
X0090229Y0122535D01*
X0090229Y0120308D01*
X0091425Y0120308D01*
X0091727Y0120389D01*
X0091761Y0120409D01*
X0091795Y0120389D01*
X0092097Y0120308D01*
X0093293Y0120308D01*
X0093293Y0122535D01*
X0093773Y0122535D01*
X0093773Y0123015D01*
X0096836Y0123015D01*
X0096836Y0122535D01*
X0097316Y0122535D01*
X0097316Y0120308D01*
X0098512Y0120308D01*
X0098814Y0120389D01*
X0098848Y0120409D01*
X0098882Y0120389D01*
X0099184Y0120308D01*
X0100380Y0120308D01*
X0100380Y0122535D01*
X0100859Y0122535D01*
X0100859Y0120308D01*
X0102055Y0120308D01*
X0102357Y0120389D01*
X0102391Y0120409D01*
X0102425Y0120389D01*
X0102727Y0120308D01*
X0103923Y0120308D01*
X0103923Y0122535D01*
X0104402Y0122535D01*
X0104402Y0120308D01*
X0105599Y0120308D01*
X0105901Y0120389D01*
X0105934Y0120409D01*
X0105968Y0120389D01*
X0106270Y0120308D01*
X0108352Y0120308D01*
X0108352Y0122535D01*
X0108832Y0122535D01*
X0108832Y0123015D01*
X0111925Y0123015D01*
X0116549Y0118391D01*
X0116420Y0118261D01*
X0116420Y0114661D01*
X0116039Y0114661D01*
X0116039Y0115872D01*
X0113763Y0115872D01*
X0113763Y0116450D01*
X0116039Y0116450D01*
X0116039Y0118089D01*
X0115958Y0118391D01*
X0115802Y0118662D01*
X0115581Y0118883D01*
X0115310Y0119039D01*
X0115008Y0119120D01*
X0113763Y0119120D01*
X0113763Y0116450D01*
X0113185Y0116450D01*
X0113185Y0119120D01*
X0111939Y0119120D01*
X0111637Y0119039D01*
X0111367Y0118883D01*
X0111146Y0118662D01*
X0110989Y0118391D01*
X0110908Y0118089D01*
X0110908Y0116450D01*
X0113185Y0116450D01*
X0113185Y0115872D01*
X0110908Y0115872D01*
X0110908Y0114974D01*
X0109226Y0116655D01*
X0108527Y0117355D01*
X0107338Y0117355D01*
X0107338Y0118458D01*
X0106873Y0118923D01*
X0101885Y0118923D01*
X0101420Y0118458D01*
X0101420Y0114661D01*
X0101039Y0114661D01*
X0101039Y0115761D01*
X0098086Y0115761D01*
X0098086Y0116561D01*
X0097286Y0116561D01*
X0097286Y0115761D01*
X0094334Y0115761D01*
X0094334Y0114661D01*
X0084579Y0114661D01*
X0084486Y0114755D01*
X0083992Y0114755D01*
X0083992Y0115931D01*
X0081322Y0115931D01*
X0081322Y0116509D01*
X0083992Y0116509D01*
X0083992Y0117754D01*
X0083911Y0118056D01*
X0083755Y0118327D01*
X0083534Y0118548D01*
X0083263Y0118704D01*
X0082961Y0118785D01*
X0081322Y0118785D01*
X0081322Y0116509D01*
X0080744Y0116509D01*
X0080744Y0118785D01*
X0079105Y0118785D01*
X0078803Y0118704D01*
X0078532Y0118548D01*
X0078311Y0118327D01*
X0078155Y0118056D01*
X0078074Y0117754D01*
X0078074Y0116509D01*
X0080744Y0116509D01*
X0080744Y0115931D01*
X0078074Y0115931D01*
X0078074Y0114755D01*
X0076098Y0114755D01*
X0076098Y0115490D02*
X0078074Y0115490D01*
X0078074Y0117087D02*
X0076098Y0117087D01*
X0076098Y0117885D02*
X0078109Y0117885D01*
X0078767Y0118684D02*
X0070033Y0118684D01*
X0070033Y0119482D02*
X0115458Y0119482D01*
X0115780Y0118684D02*
X0116256Y0118684D01*
X0116420Y0117885D02*
X0116039Y0117885D01*
X0116039Y0117087D02*
X0116420Y0117087D01*
X0116420Y0116288D02*
X0113763Y0116288D01*
X0113185Y0116288D02*
X0109594Y0116288D01*
X0110392Y0115490D02*
X0110908Y0115490D01*
X0110908Y0117087D02*
X0108795Y0117087D01*
X0108033Y0116161D02*
X0104379Y0116161D01*
X0107113Y0118684D02*
X0111168Y0118684D01*
X0110908Y0117885D02*
X0107338Y0117885D01*
X0108033Y0116161D02*
X0111033Y0113161D01*
X0114033Y0113161D01*
X0115033Y0112161D01*
X0115033Y0101661D01*
X0116112Y0100582D01*
X0116112Y0093287D01*
X0117489Y0093287D02*
X0117489Y0099618D01*
X0118533Y0100661D01*
X0118533Y0103602D01*
X0117033Y0107661D02*
X0117033Y0110161D01*
X0119533Y0112661D01*
X0127533Y0112661D01*
X0127533Y0110161D01*
X0124533Y0110161D01*
X0122033Y0107661D01*
X0117033Y0107661D01*
X0117033Y0108303D02*
X0122675Y0108303D01*
X0123473Y0109102D02*
X0117033Y0109102D01*
X0117033Y0109900D02*
X0124272Y0109900D01*
X0127533Y0110699D02*
X0117571Y0110699D01*
X0118369Y0111497D02*
X0127533Y0111497D01*
X0127533Y0112296D02*
X0119168Y0112296D01*
X0116420Y0114691D02*
X0116039Y0114691D01*
X0116039Y0115490D02*
X0116420Y0115490D01*
X0113763Y0117087D02*
X0113185Y0117087D01*
X0113185Y0117885D02*
X0113763Y0117885D01*
X0113763Y0118684D02*
X0113185Y0118684D01*
X0114659Y0120281D02*
X0070033Y0120281D01*
X0070033Y0121079D02*
X0075191Y0121079D01*
X0075202Y0121037D02*
X0075358Y0120767D01*
X0075579Y0120545D01*
X0075850Y0120389D01*
X0076152Y0120308D01*
X0078234Y0120308D01*
X0078234Y0122535D01*
X0075121Y0122535D01*
X0075121Y0121339D01*
X0075202Y0121037D01*
X0075121Y0121878D02*
X0070033Y0121878D01*
X0070033Y0122676D02*
X0078234Y0122676D01*
X0078714Y0122676D02*
X0082663Y0122676D01*
X0082663Y0122535D02*
X0080436Y0122535D01*
X0078714Y0122535D01*
X0078714Y0123015D01*
X0082663Y0123015D01*
X0082663Y0122535D01*
X0083143Y0122676D02*
X0086206Y0122676D01*
X0086686Y0122676D02*
X0089750Y0122676D01*
X0089750Y0122535D02*
X0088913Y0122535D01*
X0086686Y0122535D01*
X0086686Y0123015D01*
X0089750Y0123015D01*
X0089750Y0122535D01*
X0090229Y0122535D02*
X0090229Y0123015D01*
X0093293Y0123015D01*
X0093293Y0122535D01*
X0091066Y0122535D01*
X0090229Y0122535D01*
X0090229Y0122676D02*
X0093293Y0122676D01*
X0093773Y0122676D02*
X0096836Y0122676D01*
X0096836Y0122535D02*
X0094609Y0122535D01*
X0093773Y0122535D01*
X0093773Y0120308D01*
X0094969Y0120308D01*
X0095271Y0120389D01*
X0095304Y0120409D01*
X0095338Y0120389D01*
X0095640Y0120308D01*
X0096836Y0120308D01*
X0096836Y0122535D01*
X0097316Y0122535D02*
X0097316Y0123015D01*
X0100380Y0123015D01*
X0100380Y0122535D01*
X0098152Y0122535D01*
X0097316Y0122535D01*
X0097316Y0122676D02*
X0100380Y0122676D01*
X0100859Y0122676D02*
X0103923Y0122676D01*
X0103923Y0122535D02*
X0101696Y0122535D01*
X0100859Y0122535D01*
X0100859Y0123015D01*
X0103923Y0123015D01*
X0103923Y0122535D01*
X0104403Y0122535D02*
X0104403Y0123015D01*
X0108352Y0123015D01*
X0108352Y0122535D01*
X0105239Y0122535D01*
X0104403Y0122535D01*
X0104403Y0122676D02*
X0108352Y0122676D01*
X0108832Y0122676D02*
X0112264Y0122676D01*
X0111945Y0122535D02*
X0111945Y0121339D01*
X0111864Y0121037D01*
X0111707Y0120767D01*
X0111486Y0120545D01*
X0111216Y0120389D01*
X0110914Y0120308D01*
X0108832Y0120308D01*
X0108832Y0122535D01*
X0111945Y0122535D01*
X0111945Y0121878D02*
X0113062Y0121878D01*
X0113861Y0121079D02*
X0111875Y0121079D01*
X0108832Y0121079D02*
X0108352Y0121079D01*
X0108352Y0121878D02*
X0108832Y0121878D01*
X0104402Y0121878D02*
X0103923Y0121878D01*
X0103923Y0121079D02*
X0104402Y0121079D01*
X0100859Y0121079D02*
X0100380Y0121079D01*
X0100380Y0121878D02*
X0100859Y0121878D01*
X0100310Y0119236D02*
X0100008Y0119317D01*
X0098086Y0119317D01*
X0098086Y0116561D01*
X0101039Y0116561D01*
X0101039Y0118286D01*
X0100958Y0118588D01*
X0100802Y0118859D01*
X0100581Y0119080D01*
X0100310Y0119236D01*
X0100903Y0118684D02*
X0101646Y0118684D01*
X0101420Y0117885D02*
X0101039Y0117885D01*
X0101039Y0117087D02*
X0101420Y0117087D01*
X0101420Y0116288D02*
X0098086Y0116288D01*
X0098086Y0117087D02*
X0097286Y0117087D01*
X0097286Y0116561D02*
X0097286Y0119317D01*
X0095365Y0119317D01*
X0095063Y0119236D01*
X0094792Y0119080D01*
X0094571Y0118859D01*
X0094414Y0118588D01*
X0094334Y0118286D01*
X0094334Y0116561D01*
X0097286Y0116561D01*
X0097286Y0116288D02*
X0081322Y0116288D01*
X0080744Y0116288D02*
X0076098Y0116288D01*
X0080744Y0117087D02*
X0081322Y0117087D01*
X0081322Y0117885D02*
X0080744Y0117885D01*
X0080744Y0118684D02*
X0081322Y0118684D01*
X0083298Y0118684D02*
X0094470Y0118684D01*
X0094334Y0117885D02*
X0083957Y0117885D01*
X0083992Y0117087D02*
X0094334Y0117087D01*
X0094334Y0115490D02*
X0083992Y0115490D01*
X0084549Y0114691D02*
X0094334Y0114691D01*
X0094533Y0111161D02*
X0100486Y0111161D01*
X0101080Y0110567D01*
X0101126Y0110567D01*
X0102033Y0109661D01*
X0106033Y0109661D01*
X0106533Y0110161D01*
X0106533Y0112161D01*
X0107033Y0112661D01*
X0109533Y0112661D01*
X0110533Y0111661D01*
X0112033Y0111661D01*
X0112533Y0111161D01*
X0112533Y0107661D01*
X0108547Y0107661D01*
X0108269Y0107939D01*
X0106796Y0107939D01*
X0106518Y0107661D01*
X0094533Y0107661D01*
X0094533Y0111161D01*
X0094533Y0110699D02*
X0100948Y0110699D01*
X0101794Y0109900D02*
X0094533Y0109900D01*
X0094533Y0109102D02*
X0112533Y0109102D01*
X0112533Y0109900D02*
X0106272Y0109900D01*
X0106533Y0110699D02*
X0112533Y0110699D01*
X0112197Y0111497D02*
X0106533Y0111497D01*
X0106668Y0112296D02*
X0109898Y0112296D01*
X0112533Y0108303D02*
X0094533Y0108303D01*
X0101039Y0114691D02*
X0101420Y0114691D01*
X0101420Y0115490D02*
X0101039Y0115490D01*
X0098086Y0117885D02*
X0097286Y0117885D01*
X0097286Y0118684D02*
X0098086Y0118684D01*
X0097316Y0121079D02*
X0096836Y0121079D01*
X0096836Y0121878D02*
X0097316Y0121878D01*
X0093773Y0121878D02*
X0093293Y0121878D01*
X0093293Y0121079D02*
X0093773Y0121079D01*
X0090229Y0121079D02*
X0089750Y0121079D01*
X0089750Y0121878D02*
X0090229Y0121878D01*
X0086686Y0121878D02*
X0086206Y0121878D01*
X0086206Y0121079D02*
X0086686Y0121079D01*
X0083143Y0121079D02*
X0082663Y0121079D01*
X0082663Y0121878D02*
X0083143Y0121878D01*
X0082503Y0126600D02*
X0081223Y0126600D01*
X0081223Y0126785D01*
X0084582Y0126785D01*
X0084582Y0126600D01*
X0082503Y0126600D01*
X0081223Y0126669D02*
X0084582Y0126669D01*
X0084582Y0127467D02*
X0084767Y0127467D01*
X0084767Y0128266D02*
X0084582Y0128266D01*
X0084582Y0129064D02*
X0084767Y0129064D01*
X0086615Y0129064D02*
X0086830Y0129064D01*
X0087688Y0129863D02*
X0079337Y0129863D01*
X0079324Y0129817D02*
X0079405Y0130119D01*
X0079405Y0131167D01*
X0076656Y0131167D01*
X0076656Y0129088D01*
X0078374Y0129088D01*
X0078676Y0129169D01*
X0078947Y0129325D01*
X0079168Y0129546D01*
X0079324Y0129817D01*
X0079191Y0129064D02*
X0075114Y0129064D01*
X0075114Y0129088D02*
X0076472Y0129088D01*
X0076472Y0131167D01*
X0076656Y0131167D01*
X0076656Y0131352D01*
X0079405Y0131352D01*
X0079405Y0132400D01*
X0079324Y0132702D01*
X0079168Y0132973D01*
X0078947Y0133194D01*
X0078921Y0133209D01*
X0081335Y0133209D01*
X0082509Y0134383D01*
X0082769Y0134383D01*
X0083811Y0135425D01*
X0083811Y0136897D01*
X0082769Y0137939D01*
X0081296Y0137939D01*
X0080255Y0136897D01*
X0080255Y0136637D01*
X0080014Y0136396D01*
X0078921Y0136396D01*
X0078947Y0136412D01*
X0079168Y0136633D01*
X0079324Y0136903D01*
X0079405Y0137205D01*
X0079405Y0138254D01*
X0076656Y0138254D01*
X0076656Y0138438D01*
X0079405Y0138438D01*
X0079405Y0139487D01*
X0079324Y0139789D01*
X0079168Y0140059D01*
X0078947Y0140280D01*
X0078800Y0140365D01*
X0079012Y0140576D01*
X0079012Y0143202D01*
X0078553Y0143661D01*
X0079012Y0144120D01*
X0079012Y0146746D01*
X0078553Y0147204D01*
X0079012Y0147663D01*
X0079012Y0150289D01*
X0078553Y0150748D01*
X0079012Y0151206D01*
X0079012Y0151426D01*
X0080721Y0151426D01*
X0085439Y0146708D01*
X0085439Y0134082D01*
X0084755Y0133397D01*
X0084755Y0131925D01*
X0085796Y0130883D01*
X0087269Y0130883D01*
X0088311Y0131925D01*
X0088311Y0133397D01*
X0087626Y0134082D01*
X0087626Y0147614D01*
X0082268Y0152972D01*
X0081628Y0153613D01*
X0079012Y0153613D01*
X0079012Y0153832D01*
X0078800Y0154044D01*
X0078947Y0154128D01*
X0079168Y0154349D01*
X0079324Y0154620D01*
X0079405Y0154922D01*
X0079405Y0155970D01*
X0076656Y0155970D01*
X0076656Y0156155D01*
X0076472Y0156155D01*
X0076472Y0158234D01*
X0075114Y0158234D01*
X0075114Y0158480D01*
X0072887Y0158480D01*
X0072887Y0158960D01*
X0075114Y0158960D01*
X0075114Y0161042D01*
X0075033Y0161344D01*
X0074877Y0161614D01*
X0074656Y0161836D01*
X0074385Y0161992D01*
X0074083Y0162073D01*
X0072887Y0162073D01*
X0072887Y0158960D01*
X0072407Y0158960D01*
X0072407Y0162073D01*
X0071211Y0162073D01*
X0070909Y0161992D01*
X0070638Y0161836D01*
X0070417Y0161614D01*
X0070261Y0161344D01*
X0070180Y0161042D01*
X0070180Y0158960D01*
X0072407Y0158960D01*
X0072407Y0158480D01*
X0072887Y0158480D01*
X0072887Y0154531D01*
X0072407Y0154531D01*
X0072407Y0156758D01*
X0072407Y0158480D01*
X0070180Y0158480D01*
X0070180Y0156398D01*
X0070261Y0156096D01*
X0070280Y0156063D01*
X0070261Y0156029D01*
X0070180Y0155727D01*
X0070180Y0154531D01*
X0072407Y0154531D01*
X0072407Y0154051D01*
X0070180Y0154051D01*
X0070180Y0152855D01*
X0070261Y0152553D01*
X0070280Y0152519D01*
X0070261Y0152485D01*
X0070180Y0152183D01*
X0070180Y0150987D01*
X0072407Y0150987D01*
X0072407Y0150508D01*
X0070180Y0150508D01*
X0070180Y0149312D01*
X0070261Y0149010D01*
X0070280Y0148976D01*
X0070261Y0148942D01*
X0070180Y0148640D01*
X0070180Y0147444D01*
X0072407Y0147444D01*
X0072407Y0146965D01*
X0070180Y0146965D01*
X0070180Y0145768D01*
X0070261Y0145466D01*
X0070280Y0145433D01*
X0070261Y0145399D01*
X0070180Y0145097D01*
X0070180Y0143901D01*
X0072407Y0143901D01*
X0072407Y0146128D01*
X0072407Y0146964D01*
X0072887Y0146964D01*
X0072887Y0143901D01*
X0072407Y0143901D01*
X0072407Y0143421D01*
X0070180Y0143421D01*
X0070180Y0142225D01*
X0070261Y0141923D01*
X0070280Y0141889D01*
X0070261Y0141856D01*
X0070180Y0141554D01*
X0070180Y0140357D01*
X0072407Y0140357D01*
X0072407Y0139878D01*
X0070180Y0139878D01*
X0070180Y0138682D01*
X0070261Y0138380D01*
X0070280Y0138346D01*
X0070261Y0138312D01*
X0070180Y0138010D01*
X0070180Y0136814D01*
X0072407Y0136814D01*
X0072407Y0136335D01*
X0070180Y0136335D01*
X0070180Y0135139D01*
X0070261Y0134837D01*
X0070280Y0134803D01*
X0070261Y0134769D01*
X0070180Y0134467D01*
X0070180Y0133271D01*
X0072407Y0133271D01*
X0072407Y0135498D01*
X0072407Y0136335D01*
X0072887Y0136335D01*
X0072887Y0133271D01*
X0072407Y0133271D01*
X0072407Y0132791D01*
X0072887Y0132791D01*
X0072887Y0128842D01*
X0072407Y0128842D01*
X0072407Y0131955D01*
X0072407Y0132791D01*
X0070180Y0132791D01*
X0070180Y0131595D01*
X0070261Y0131293D01*
X0070280Y0131259D01*
X0070261Y0131226D01*
X0070180Y0130924D01*
X0070180Y0128842D01*
X0072407Y0128842D01*
X0072407Y0128362D01*
X0072887Y0128362D01*
X0072887Y0128842D01*
X0075114Y0128842D01*
X0075114Y0129088D01*
X0075114Y0128362D02*
X0072887Y0128362D01*
X0072887Y0125249D01*
X0074083Y0125249D01*
X0074385Y0125330D01*
X0074656Y0125486D01*
X0074877Y0125707D01*
X0075033Y0125978D01*
X0075114Y0126280D01*
X0075114Y0128362D01*
X0075114Y0128266D02*
X0078960Y0128266D01*
X0078960Y0127467D02*
X0075114Y0127467D01*
X0075114Y0126669D02*
X0081039Y0126669D01*
X0081039Y0127467D02*
X0081223Y0127467D01*
X0081223Y0128266D02*
X0081039Y0128266D01*
X0081039Y0129064D02*
X0081223Y0129064D01*
X0079405Y0130662D02*
X0088255Y0130662D01*
X0088317Y0131460D02*
X0087846Y0131460D01*
X0088311Y0132259D02*
X0089116Y0132259D01*
X0088311Y0133057D02*
X0102449Y0133057D01*
X0103247Y0132259D02*
X0099950Y0132259D01*
X0100748Y0131460D02*
X0104046Y0131460D01*
X0104839Y0130662D02*
X0100811Y0130662D01*
X0100749Y0129863D02*
X0104839Y0129863D01*
X0104546Y0129064D02*
X0104332Y0129064D01*
X0102483Y0129064D02*
X0102299Y0129064D01*
X0102299Y0128266D02*
X0102483Y0128266D01*
X0102483Y0127467D02*
X0102299Y0127467D01*
X0100451Y0129064D02*
X0100236Y0129064D01*
X0097459Y0129064D02*
X0096693Y0129064D01*
X0096749Y0129863D02*
X0097316Y0129863D01*
X0097255Y0130662D02*
X0096811Y0130662D01*
X0096748Y0131460D02*
X0097317Y0131460D01*
X0098116Y0132259D02*
X0095950Y0132259D01*
X0094116Y0132259D02*
X0090950Y0132259D01*
X0091748Y0131460D02*
X0093317Y0131460D01*
X0093255Y0130662D02*
X0091811Y0130662D01*
X0092214Y0130026D02*
X0092214Y0130026D01*
X0092377Y0129863D02*
X0093316Y0129863D01*
X0093149Y0129064D02*
X0093916Y0129064D01*
X0087853Y0133856D02*
X0101650Y0133856D01*
X0100852Y0134654D02*
X0087626Y0134654D01*
X0087626Y0135453D02*
X0100053Y0135453D01*
X0099339Y0136251D02*
X0087626Y0136251D01*
X0087626Y0137050D02*
X0099339Y0137050D01*
X0099339Y0137848D02*
X0087626Y0137848D01*
X0087626Y0138647D02*
X0099339Y0138647D01*
X0099339Y0139445D02*
X0087626Y0139445D01*
X0087626Y0140244D02*
X0099339Y0140244D01*
X0099339Y0141042D02*
X0087626Y0141042D01*
X0087626Y0141841D02*
X0099339Y0141841D01*
X0099339Y0142639D02*
X0087626Y0142639D01*
X0087626Y0143438D02*
X0099339Y0143438D01*
X0099339Y0144236D02*
X0087626Y0144236D01*
X0087626Y0145035D02*
X0099339Y0145035D01*
X0099339Y0145833D02*
X0087626Y0145833D01*
X0087626Y0146632D02*
X0099339Y0146632D01*
X0099339Y0147430D02*
X0087626Y0147430D01*
X0087012Y0148229D02*
X0099339Y0148229D01*
X0099339Y0149027D02*
X0086213Y0149027D01*
X0085415Y0149826D02*
X0099509Y0149826D01*
X0100308Y0150624D02*
X0084616Y0150624D01*
X0083818Y0151423D02*
X0101106Y0151423D01*
X0101905Y0152221D02*
X0083019Y0152221D01*
X0082221Y0153020D02*
X0102703Y0153020D01*
X0103891Y0152519D02*
X0100533Y0149161D01*
X0100533Y0136661D01*
X0106033Y0131161D01*
X0106033Y0126791D01*
X0105934Y0126692D01*
X0107712Y0128286D02*
X0107712Y0128675D01*
X0107247Y0129140D01*
X0107226Y0129140D01*
X0107226Y0131655D01*
X0106527Y0132355D01*
X0101726Y0137155D01*
X0101726Y0148667D01*
X0104385Y0151326D01*
X0108054Y0151326D01*
X0108054Y0151206D01*
X0108513Y0150748D01*
X0108054Y0150289D01*
X0108054Y0149855D01*
X0106853Y0149855D01*
X0106269Y0150439D01*
X0104796Y0150439D01*
X0103755Y0149397D01*
X0103755Y0147925D01*
X0104796Y0146883D01*
X0106269Y0146883D01*
X0106853Y0147467D01*
X0108250Y0147467D01*
X0108513Y0147204D01*
X0108054Y0146746D01*
X0108054Y0146626D01*
X0106810Y0146626D01*
X0106111Y0145927D01*
X0104339Y0144155D01*
X0104339Y0142982D01*
X0103755Y0142397D01*
X0103755Y0140925D01*
X0104796Y0139883D01*
X0106269Y0139883D01*
X0107311Y0140925D01*
X0107311Y0142397D01*
X0106726Y0142982D01*
X0106726Y0143167D01*
X0107799Y0144239D01*
X0108054Y0144239D01*
X0108054Y0144120D01*
X0108265Y0143908D01*
X0108119Y0143824D01*
X0107898Y0143603D01*
X0107741Y0143332D01*
X0107660Y0143030D01*
X0107660Y0141981D01*
X0110409Y0141981D01*
X0110409Y0141797D01*
X0107660Y0141797D01*
X0107660Y0140749D01*
X0107741Y0140447D01*
X0107898Y0140176D01*
X0108119Y0139955D01*
X0108145Y0139940D01*
X0106558Y0139940D01*
X0105557Y0138939D01*
X0105296Y0138939D01*
X0104255Y0137897D01*
X0104255Y0136425D01*
X0105296Y0135383D01*
X0106769Y0135383D01*
X0107811Y0136425D01*
X0107811Y0136685D01*
X0107878Y0136752D01*
X0108145Y0136752D01*
X0108119Y0136737D01*
X0107898Y0136516D01*
X0107741Y0136245D01*
X0107660Y0135943D01*
X0107660Y0134895D01*
X0110409Y0134895D01*
X0110409Y0134711D01*
X0107660Y0134711D01*
X0107660Y0133662D01*
X0107741Y0133360D01*
X0107898Y0133089D01*
X0108119Y0132868D01*
X0108265Y0132784D01*
X0108054Y0132572D01*
X0108054Y0129946D01*
X0108519Y0129481D01*
X0111952Y0129481D01*
X0111952Y0128842D01*
X0114179Y0128842D01*
X0114179Y0132791D01*
X0114658Y0132791D01*
X0114658Y0131955D01*
X0114658Y0128842D01*
X0114179Y0128842D01*
X0114179Y0128362D01*
X0114658Y0128362D01*
X0114658Y0125249D01*
X0115854Y0125249D01*
X0116156Y0125330D01*
X0116427Y0125486D01*
X0116648Y0125707D01*
X0116805Y0125978D01*
X0116886Y0126280D01*
X0116886Y0128362D01*
X0114658Y0128362D01*
X0114658Y0128842D01*
X0116886Y0128842D01*
X0116886Y0130924D01*
X0116805Y0131226D01*
X0116785Y0131259D01*
X0116805Y0131293D01*
X0116886Y0131595D01*
X0116886Y0132791D01*
X0114658Y0132791D01*
X0114658Y0133271D01*
X0114179Y0133271D01*
X0114179Y0136335D01*
X0114658Y0136335D01*
X0114658Y0136814D01*
X0114179Y0136814D01*
X0114179Y0139878D01*
X0114658Y0139878D01*
X0114658Y0137651D01*
X0114658Y0136814D01*
X0116886Y0136814D01*
X0116886Y0137294D01*
X0117796Y0136383D01*
X0119269Y0136383D01*
X0120311Y0137425D01*
X0120311Y0138897D01*
X0120126Y0139082D01*
X0120126Y0142942D01*
X0121115Y0143930D01*
X0123133Y0143930D01*
X0123598Y0144395D01*
X0123598Y0147581D01*
X0124296Y0146883D01*
X0124780Y0146883D01*
X0124780Y0143726D01*
X0124267Y0143726D01*
X0123802Y0143261D01*
X0123802Y0142406D01*
X0122769Y0143439D01*
X0121296Y0143439D01*
X0120255Y0142397D01*
X0120255Y0140925D01*
X0120839Y0140340D01*
X0120839Y0137167D01*
X0121538Y0136467D01*
X0123802Y0134204D01*
X0123802Y0131561D01*
X0124267Y0131096D01*
X0127533Y0131096D01*
X0127533Y0129915D01*
X0126939Y0129321D01*
X0126939Y0121515D01*
X0126295Y0121515D01*
X0126295Y0122809D01*
X0125830Y0123274D01*
X0121236Y0123274D01*
X0120771Y0122809D01*
X0120771Y0118153D01*
X0120763Y0118145D01*
X0120763Y0118261D01*
X0120299Y0118726D01*
X0120186Y0118726D01*
X0120186Y0119262D01*
X0119252Y0120196D01*
X0114179Y0125269D01*
X0114179Y0128362D01*
X0111952Y0128362D01*
X0111952Y0127496D01*
X0111161Y0128286D01*
X0107712Y0128286D01*
X0107323Y0129064D02*
X0111952Y0129064D01*
X0111952Y0128266D02*
X0111182Y0128266D01*
X0114179Y0128266D02*
X0114658Y0128266D01*
X0114658Y0129064D02*
X0114179Y0129064D01*
X0114179Y0129863D02*
X0114658Y0129863D01*
X0114658Y0130662D02*
X0114179Y0130662D01*
X0114179Y0131460D02*
X0114658Y0131460D01*
X0114658Y0132259D02*
X0114179Y0132259D01*
X0114658Y0133057D02*
X0123802Y0133057D01*
X0123802Y0132259D02*
X0116886Y0132259D01*
X0116849Y0131460D02*
X0123903Y0131460D01*
X0123933Y0130360D02*
X0123933Y0127407D01*
X0126689Y0127407D01*
X0126689Y0129329D01*
X0126608Y0129631D01*
X0126451Y0129902D01*
X0126230Y0130123D01*
X0125960Y0130279D01*
X0125658Y0130360D01*
X0123933Y0130360D01*
X0123933Y0129863D02*
X0123133Y0129863D01*
X0123133Y0130360D02*
X0121408Y0130360D01*
X0121106Y0130279D01*
X0120835Y0130123D01*
X0120614Y0129902D01*
X0120458Y0129631D01*
X0120377Y0129329D01*
X0120377Y0127407D01*
X0123133Y0127407D01*
X0123133Y0126607D01*
X0123933Y0126607D01*
X0123933Y0123655D01*
X0125658Y0123655D01*
X0125960Y0123736D01*
X0126230Y0123892D01*
X0126451Y0124113D01*
X0126608Y0124384D01*
X0126689Y0124686D01*
X0126689Y0126607D01*
X0123933Y0126607D01*
X0123933Y0127407D01*
X0123133Y0127407D01*
X0123133Y0130360D01*
X0123133Y0129064D02*
X0123933Y0129064D01*
X0123933Y0128266D02*
X0123133Y0128266D01*
X0123133Y0127467D02*
X0123933Y0127467D01*
X0123933Y0126669D02*
X0126939Y0126669D01*
X0126939Y0127467D02*
X0126689Y0127467D01*
X0126689Y0128266D02*
X0126939Y0128266D01*
X0126939Y0129064D02*
X0126689Y0129064D01*
X0126474Y0129863D02*
X0127481Y0129863D01*
X0127533Y0130662D02*
X0116886Y0130662D01*
X0116886Y0129863D02*
X0120592Y0129863D01*
X0120377Y0129064D02*
X0116886Y0129064D01*
X0116886Y0128266D02*
X0120377Y0128266D01*
X0120377Y0127467D02*
X0116886Y0127467D01*
X0116886Y0126669D02*
X0123133Y0126669D01*
X0123133Y0126607D02*
X0120377Y0126607D01*
X0120377Y0124686D01*
X0120458Y0124384D01*
X0120614Y0124113D01*
X0120835Y0123892D01*
X0121106Y0123736D01*
X0121408Y0123655D01*
X0123133Y0123655D01*
X0123133Y0126607D01*
X0123133Y0125870D02*
X0123933Y0125870D01*
X0123933Y0125072D02*
X0123133Y0125072D01*
X0123133Y0124273D02*
X0123933Y0124273D01*
X0126544Y0124273D02*
X0126939Y0124273D01*
X0126939Y0123475D02*
X0115973Y0123475D01*
X0116771Y0122676D02*
X0120771Y0122676D01*
X0120771Y0121878D02*
X0117570Y0121878D01*
X0118368Y0121079D02*
X0120771Y0121079D01*
X0120771Y0120281D02*
X0119167Y0120281D01*
X0119252Y0120196D02*
X0119252Y0120196D01*
X0119965Y0119482D02*
X0120771Y0119482D01*
X0120771Y0118684D02*
X0120341Y0118684D01*
X0120521Y0124273D02*
X0115174Y0124273D01*
X0114376Y0125072D02*
X0120377Y0125072D01*
X0120377Y0125870D02*
X0116742Y0125870D01*
X0114658Y0125870D02*
X0114179Y0125870D01*
X0114179Y0126669D02*
X0114658Y0126669D01*
X0114658Y0127467D02*
X0114179Y0127467D01*
X0114658Y0133271D02*
X0116886Y0133271D01*
X0116886Y0134467D01*
X0116805Y0134769D01*
X0116785Y0134803D01*
X0116805Y0134837D01*
X0116886Y0135139D01*
X0116886Y0136335D01*
X0114658Y0136335D01*
X0114658Y0135498D01*
X0114658Y0133271D01*
X0114658Y0133856D02*
X0114179Y0133856D01*
X0114179Y0134654D02*
X0114658Y0134654D01*
X0114658Y0135453D02*
X0114179Y0135453D01*
X0114179Y0136251D02*
X0114658Y0136251D01*
X0114658Y0137050D02*
X0114179Y0137050D01*
X0114179Y0137848D02*
X0114658Y0137848D01*
X0114658Y0138647D02*
X0114179Y0138647D01*
X0114179Y0139445D02*
X0114658Y0139445D01*
X0114658Y0139878D02*
X0114658Y0140357D01*
X0116886Y0140357D01*
X0116886Y0141554D01*
X0116805Y0141856D01*
X0116785Y0141889D01*
X0116805Y0141923D01*
X0116886Y0142225D01*
X0116886Y0143421D01*
X0114658Y0143421D01*
X0114658Y0141194D01*
X0114658Y0140358D01*
X0114179Y0140358D01*
X0114179Y0143421D01*
X0114658Y0143421D01*
X0114658Y0143901D01*
X0114179Y0143901D01*
X0114179Y0146964D01*
X0114658Y0146964D01*
X0114658Y0144737D01*
X0114658Y0143901D01*
X0116886Y0143901D01*
X0116886Y0145097D01*
X0116805Y0145399D01*
X0116785Y0145433D01*
X0116805Y0145466D01*
X0116886Y0145768D01*
X0116886Y0146965D01*
X0114658Y0146965D01*
X0114658Y0147444D01*
X0114179Y0147444D01*
X0114179Y0150508D01*
X0114658Y0150508D01*
X0114658Y0148281D01*
X0114658Y0147444D01*
X0116886Y0147444D01*
X0116886Y0148640D01*
X0116805Y0148942D01*
X0116785Y0148976D01*
X0116805Y0149010D01*
X0116886Y0149312D01*
X0116886Y0150508D01*
X0114658Y0150508D01*
X0114658Y0150987D01*
X0116886Y0150987D01*
X0116886Y0152183D01*
X0116805Y0152485D01*
X0116785Y0152519D01*
X0116805Y0152553D01*
X0116886Y0152855D01*
X0116886Y0154051D01*
X0114658Y0154051D01*
X0114658Y0151824D01*
X0114658Y0150987D01*
X0114179Y0150987D01*
X0114179Y0154051D01*
X0114658Y0154051D01*
X0114658Y0154531D01*
X0114179Y0154531D01*
X0114179Y0158480D01*
X0114658Y0158480D01*
X0114658Y0155367D01*
X0114658Y0154531D01*
X0116886Y0154531D01*
X0116886Y0155727D01*
X0116805Y0156029D01*
X0116785Y0156063D01*
X0116805Y0156096D01*
X0116886Y0156398D01*
X0116886Y0158480D01*
X0114658Y0158480D01*
X0114658Y0158960D01*
X0114179Y0158960D01*
X0114179Y0162073D01*
X0113633Y0162073D01*
X0120062Y0168502D01*
X0120062Y0164316D01*
X0120527Y0163852D01*
X0122215Y0163852D01*
X0122215Y0163470D01*
X0120527Y0163470D01*
X0120062Y0163005D01*
X0120062Y0157624D01*
X0120527Y0157159D01*
X0124710Y0157159D01*
X0126880Y0154989D01*
X0126880Y0153726D01*
X0126767Y0153726D01*
X0126302Y0153261D01*
X0126302Y0149906D01*
X0125769Y0150439D01*
X0124296Y0150439D01*
X0123992Y0150134D01*
X0123992Y0150931D01*
X0121322Y0150931D01*
X0121322Y0151509D01*
X0123992Y0151509D01*
X0123992Y0152754D01*
X0123911Y0153056D01*
X0123755Y0153327D01*
X0123534Y0153548D01*
X0123263Y0153704D01*
X0122961Y0153785D01*
X0121322Y0153785D01*
X0121322Y0151509D01*
X0120744Y0151509D01*
X0120744Y0153785D01*
X0119105Y0153785D01*
X0118803Y0153704D01*
X0118532Y0153548D01*
X0118311Y0153327D01*
X0118155Y0153056D01*
X0118074Y0152754D01*
X0118074Y0151509D01*
X0120744Y0151509D01*
X0120744Y0150931D01*
X0121322Y0150931D01*
X0121322Y0148655D01*
X0122961Y0148655D01*
X0123255Y0148733D01*
X0123255Y0148152D01*
X0123133Y0148274D01*
X0118932Y0148274D01*
X0118467Y0147809D01*
X0118467Y0145790D01*
X0116939Y0144262D01*
X0116939Y0139082D01*
X0116886Y0139028D01*
X0116886Y0139878D01*
X0114658Y0139878D01*
X0114658Y0140244D02*
X0116939Y0140244D01*
X0116939Y0141042D02*
X0116886Y0141042D01*
X0116939Y0141841D02*
X0116809Y0141841D01*
X0116886Y0142639D02*
X0116939Y0142639D01*
X0116939Y0143438D02*
X0114658Y0143438D01*
X0114658Y0144236D02*
X0114179Y0144236D01*
X0114179Y0145035D02*
X0114658Y0145035D01*
X0114658Y0145833D02*
X0114179Y0145833D01*
X0114179Y0146632D02*
X0114658Y0146632D01*
X0114658Y0147430D02*
X0118467Y0147430D01*
X0118467Y0146632D02*
X0116886Y0146632D01*
X0116886Y0145833D02*
X0118467Y0145833D01*
X0117712Y0145035D02*
X0116886Y0145035D01*
X0116886Y0144236D02*
X0116939Y0144236D01*
X0114658Y0142639D02*
X0114179Y0142639D01*
X0114179Y0141841D02*
X0114658Y0141841D01*
X0114658Y0141042D02*
X0114179Y0141042D01*
X0116886Y0139445D02*
X0116939Y0139445D01*
X0116886Y0137050D02*
X0117130Y0137050D01*
X0116886Y0136251D02*
X0121755Y0136251D01*
X0122553Y0135453D02*
X0116886Y0135453D01*
X0116835Y0134654D02*
X0123352Y0134654D01*
X0123802Y0133856D02*
X0116886Y0133856D01*
X0119936Y0137050D02*
X0120956Y0137050D01*
X0120839Y0137848D02*
X0120311Y0137848D01*
X0120311Y0138647D02*
X0120839Y0138647D01*
X0120839Y0139445D02*
X0120126Y0139445D01*
X0120126Y0140244D02*
X0120839Y0140244D01*
X0120255Y0141042D02*
X0120126Y0141042D01*
X0120126Y0141841D02*
X0120255Y0141841D01*
X0120126Y0142639D02*
X0120497Y0142639D01*
X0120622Y0143438D02*
X0121295Y0143438D01*
X0122770Y0143438D02*
X0123978Y0143438D01*
X0123802Y0142639D02*
X0123569Y0142639D01*
X0123439Y0144236D02*
X0124780Y0144236D01*
X0124780Y0145035D02*
X0123598Y0145035D01*
X0123598Y0145833D02*
X0124780Y0145833D01*
X0124780Y0146632D02*
X0123598Y0146632D01*
X0123598Y0147430D02*
X0123749Y0147430D01*
X0123255Y0148229D02*
X0123178Y0148229D01*
X0125033Y0148661D02*
X0125974Y0147720D01*
X0125974Y0141161D01*
X0122033Y0141661D02*
X0122033Y0137661D01*
X0125974Y0133720D01*
X0125974Y0133661D01*
X0126689Y0125870D02*
X0126939Y0125870D01*
X0126939Y0125072D02*
X0126689Y0125072D01*
X0126939Y0122676D02*
X0126295Y0122676D01*
X0126295Y0121878D02*
X0126939Y0121878D01*
X0138533Y0136102D02*
X0138592Y0136161D01*
X0143533Y0136161D01*
X0144793Y0134901D01*
X0144793Y0134724D01*
X0148533Y0142992D02*
X0148533Y0146102D01*
X0148533Y0146220D01*
X0146092Y0148661D01*
X0146092Y0150102D01*
X0142533Y0153661D01*
X0140974Y0148661D02*
X0136151Y0148661D01*
X0131092Y0143602D01*
X0126302Y0150624D02*
X0123992Y0150624D01*
X0123992Y0152221D02*
X0126302Y0152221D01*
X0126302Y0151423D02*
X0121322Y0151423D01*
X0120744Y0151423D02*
X0116886Y0151423D01*
X0116875Y0152221D02*
X0118074Y0152221D01*
X0118145Y0153020D02*
X0116886Y0153020D01*
X0116886Y0153818D02*
X0126880Y0153818D01*
X0126880Y0154617D02*
X0116886Y0154617D01*
X0116886Y0155415D02*
X0126454Y0155415D01*
X0125655Y0156214D02*
X0116836Y0156214D01*
X0116886Y0157012D02*
X0124857Y0157012D01*
X0123921Y0153020D02*
X0126302Y0153020D01*
X0121322Y0153020D02*
X0120744Y0153020D01*
X0120744Y0152221D02*
X0121322Y0152221D01*
X0120744Y0150931D02*
X0118074Y0150931D01*
X0118074Y0149686D01*
X0118155Y0149384D01*
X0118311Y0149113D01*
X0118532Y0148892D01*
X0118803Y0148736D01*
X0119105Y0148655D01*
X0120744Y0148655D01*
X0120744Y0150931D01*
X0120744Y0150624D02*
X0121322Y0150624D01*
X0121322Y0149826D02*
X0120744Y0149826D01*
X0120744Y0149027D02*
X0121322Y0149027D01*
X0118888Y0148229D02*
X0116886Y0148229D01*
X0116809Y0149027D02*
X0118397Y0149027D01*
X0118074Y0149826D02*
X0116886Y0149826D01*
X0118074Y0150624D02*
X0114658Y0150624D01*
X0114658Y0149826D02*
X0114179Y0149826D01*
X0114179Y0149027D02*
X0114658Y0149027D01*
X0114658Y0148229D02*
X0114179Y0148229D01*
X0114179Y0151423D02*
X0114658Y0151423D01*
X0114658Y0152221D02*
X0114179Y0152221D01*
X0114179Y0153020D02*
X0114658Y0153020D01*
X0114658Y0153818D02*
X0114179Y0153818D01*
X0114179Y0154617D02*
X0114658Y0154617D01*
X0114658Y0155415D02*
X0114179Y0155415D01*
X0114179Y0156214D02*
X0114658Y0156214D01*
X0114658Y0157012D02*
X0114179Y0157012D01*
X0114179Y0157811D02*
X0114658Y0157811D01*
X0114658Y0158609D02*
X0120062Y0158609D01*
X0120062Y0157811D02*
X0116886Y0157811D01*
X0116886Y0158960D02*
X0116886Y0161042D01*
X0116805Y0161344D01*
X0116648Y0161614D01*
X0116427Y0161836D01*
X0116156Y0161992D01*
X0115854Y0162073D01*
X0114658Y0162073D01*
X0114658Y0158960D01*
X0116886Y0158960D01*
X0116886Y0159408D02*
X0120062Y0159408D01*
X0120062Y0160206D02*
X0116886Y0160206D01*
X0116886Y0161005D02*
X0120062Y0161005D01*
X0120062Y0161803D02*
X0116459Y0161803D01*
X0114658Y0161803D02*
X0114179Y0161803D01*
X0114179Y0161005D02*
X0114658Y0161005D01*
X0114658Y0160206D02*
X0114179Y0160206D01*
X0114179Y0159408D02*
X0114658Y0159408D01*
X0114179Y0158960D02*
X0114179Y0158480D01*
X0111952Y0158480D01*
X0111952Y0157841D01*
X0109400Y0157841D01*
X0111952Y0160392D01*
X0111952Y0158960D01*
X0114179Y0158960D01*
X0114179Y0158609D02*
X0110169Y0158609D01*
X0110968Y0159408D02*
X0111952Y0159408D01*
X0111952Y0160206D02*
X0111766Y0160206D01*
X0109987Y0161803D02*
X0108106Y0161803D01*
X0108106Y0162080D02*
X0108352Y0162080D01*
X0108352Y0164307D01*
X0104403Y0164307D01*
X0104403Y0164787D01*
X0106630Y0164787D01*
X0108352Y0164787D01*
X0108352Y0164307D01*
X0108832Y0164307D01*
X0108832Y0162080D01*
X0110264Y0162080D01*
X0108106Y0159922D01*
X0108106Y0160537D01*
X0106027Y0160537D01*
X0106027Y0160722D01*
X0108106Y0160722D01*
X0108106Y0162080D01*
X0108352Y0162602D02*
X0108832Y0162602D01*
X0108832Y0163400D02*
X0108352Y0163400D01*
X0108352Y0164199D02*
X0108832Y0164199D01*
X0108832Y0164787D02*
X0111945Y0164787D01*
X0111945Y0165983D01*
X0111864Y0166285D01*
X0111707Y0166555D01*
X0111486Y0166776D01*
X0111216Y0166933D01*
X0110914Y0167014D01*
X0108832Y0167014D01*
X0108832Y0164787D01*
X0108832Y0164997D02*
X0108352Y0164997D01*
X0108352Y0165796D02*
X0108832Y0165796D01*
X0108832Y0166595D02*
X0108352Y0166595D01*
X0111668Y0166595D02*
X0114778Y0166595D01*
X0115577Y0167393D02*
X0070033Y0167393D01*
X0070033Y0166595D02*
X0075397Y0166595D01*
X0075121Y0165796D02*
X0070033Y0165796D01*
X0070033Y0164997D02*
X0075121Y0164997D01*
X0075121Y0164307D02*
X0075121Y0163111D01*
X0075202Y0162809D01*
X0075358Y0162538D01*
X0075579Y0162317D01*
X0075850Y0162161D01*
X0076152Y0162080D01*
X0078234Y0162080D01*
X0078234Y0164307D01*
X0075121Y0164307D01*
X0075121Y0164199D02*
X0070033Y0164199D01*
X0070033Y0163400D02*
X0075121Y0163400D01*
X0075321Y0162602D02*
X0070033Y0162602D01*
X0070033Y0161803D02*
X0070606Y0161803D01*
X0070180Y0161005D02*
X0070033Y0161005D01*
X0070033Y0160206D02*
X0070180Y0160206D01*
X0070180Y0159408D02*
X0070033Y0159408D01*
X0070033Y0158609D02*
X0072407Y0158609D01*
X0072887Y0158609D02*
X0079391Y0158609D01*
X0078947Y0157997D02*
X0078676Y0158153D01*
X0078374Y0158234D01*
X0076656Y0158234D01*
X0076656Y0156155D01*
X0079405Y0156155D01*
X0079405Y0157203D01*
X0079324Y0157505D01*
X0079168Y0157776D01*
X0078947Y0157997D01*
X0079133Y0157811D02*
X0086994Y0157811D01*
X0088126Y0157811D02*
X0088310Y0157811D01*
X0088310Y0158609D02*
X0088126Y0158609D01*
X0088126Y0159408D02*
X0088310Y0159408D01*
X0088310Y0160206D02*
X0088126Y0160206D01*
X0089442Y0157811D02*
X0097624Y0157811D01*
X0098756Y0157811D02*
X0098940Y0157811D01*
X0098940Y0158609D02*
X0098756Y0158609D01*
X0098756Y0159408D02*
X0098940Y0159408D01*
X0098940Y0160206D02*
X0098756Y0160206D01*
X0100072Y0157811D02*
X0101339Y0157811D01*
X0101993Y0157012D02*
X0079405Y0157012D01*
X0079405Y0156214D02*
X0104071Y0156214D01*
X0103755Y0155415D02*
X0079405Y0155415D01*
X0079322Y0154617D02*
X0103755Y0154617D01*
X0104361Y0153818D02*
X0079012Y0153818D01*
X0079012Y0151423D02*
X0080724Y0151423D01*
X0081523Y0150624D02*
X0078676Y0150624D01*
X0079012Y0149826D02*
X0082321Y0149826D01*
X0083120Y0149027D02*
X0079012Y0149027D01*
X0079012Y0148229D02*
X0083918Y0148229D01*
X0084717Y0147430D02*
X0078779Y0147430D01*
X0079012Y0146632D02*
X0085439Y0146632D01*
X0085439Y0145833D02*
X0079012Y0145833D01*
X0079012Y0145035D02*
X0085439Y0145035D01*
X0085439Y0144236D02*
X0079012Y0144236D01*
X0078776Y0143438D02*
X0085439Y0143438D01*
X0085439Y0142639D02*
X0079012Y0142639D01*
X0079012Y0141841D02*
X0085439Y0141841D01*
X0085439Y0141042D02*
X0079012Y0141042D01*
X0078984Y0140244D02*
X0085439Y0140244D01*
X0085439Y0139445D02*
X0079405Y0139445D01*
X0079405Y0138647D02*
X0085439Y0138647D01*
X0085439Y0137848D02*
X0082860Y0137848D01*
X0083659Y0137050D02*
X0085439Y0137050D01*
X0085439Y0136251D02*
X0083811Y0136251D01*
X0083811Y0135453D02*
X0085439Y0135453D01*
X0085439Y0134654D02*
X0083040Y0134654D01*
X0081981Y0133856D02*
X0085213Y0133856D01*
X0084755Y0133057D02*
X0079084Y0133057D01*
X0079405Y0132259D02*
X0084755Y0132259D01*
X0085219Y0131460D02*
X0079405Y0131460D01*
X0076656Y0130662D02*
X0076472Y0130662D01*
X0076472Y0129863D02*
X0076656Y0129863D01*
X0072887Y0129863D02*
X0072407Y0129863D01*
X0072407Y0130662D02*
X0072887Y0130662D01*
X0072887Y0131460D02*
X0072407Y0131460D01*
X0072407Y0132259D02*
X0072887Y0132259D01*
X0072407Y0133057D02*
X0070033Y0133057D01*
X0070033Y0132259D02*
X0070180Y0132259D01*
X0070216Y0131460D02*
X0070033Y0131460D01*
X0070033Y0130662D02*
X0070180Y0130662D01*
X0070180Y0129863D02*
X0070033Y0129863D01*
X0070033Y0129064D02*
X0070180Y0129064D01*
X0070180Y0128362D02*
X0070180Y0126280D01*
X0070261Y0125978D01*
X0070417Y0125707D01*
X0070638Y0125486D01*
X0070909Y0125330D01*
X0071211Y0125249D01*
X0072407Y0125249D01*
X0072407Y0128362D01*
X0070180Y0128362D01*
X0070180Y0128266D02*
X0070033Y0128266D01*
X0070033Y0127467D02*
X0070180Y0127467D01*
X0070180Y0126669D02*
X0070033Y0126669D01*
X0070033Y0125870D02*
X0070323Y0125870D01*
X0070033Y0125072D02*
X0075695Y0125072D01*
X0075138Y0124273D02*
X0070033Y0124273D01*
X0070033Y0123475D02*
X0075121Y0123475D01*
X0074971Y0125870D02*
X0078960Y0125870D01*
X0078713Y0125072D02*
X0078234Y0125072D01*
X0078234Y0124273D02*
X0078713Y0124273D01*
X0078713Y0123475D02*
X0078234Y0123475D01*
X0078234Y0121878D02*
X0078713Y0121878D01*
X0078713Y0121079D02*
X0078234Y0121079D01*
X0072887Y0125870D02*
X0072407Y0125870D01*
X0072407Y0126669D02*
X0072887Y0126669D01*
X0072887Y0127467D02*
X0072407Y0127467D01*
X0072407Y0128266D02*
X0072887Y0128266D01*
X0072887Y0129064D02*
X0072407Y0129064D01*
X0072407Y0133856D02*
X0072887Y0133856D01*
X0072887Y0134654D02*
X0072407Y0134654D01*
X0072407Y0135453D02*
X0072887Y0135453D01*
X0072887Y0136251D02*
X0072407Y0136251D01*
X0072407Y0136814D02*
X0072407Y0139041D01*
X0072407Y0139878D01*
X0072887Y0139878D01*
X0072887Y0136814D01*
X0072407Y0136814D01*
X0072407Y0137050D02*
X0072887Y0137050D01*
X0072887Y0137848D02*
X0072407Y0137848D01*
X0072407Y0138647D02*
X0072887Y0138647D01*
X0072887Y0139445D02*
X0072407Y0139445D01*
X0072407Y0140244D02*
X0070033Y0140244D01*
X0070033Y0141042D02*
X0070180Y0141042D01*
X0070257Y0141841D02*
X0070033Y0141841D01*
X0070033Y0142639D02*
X0070180Y0142639D01*
X0070033Y0143438D02*
X0072407Y0143438D01*
X0072407Y0143421D02*
X0072887Y0143421D01*
X0072887Y0140358D01*
X0072407Y0140358D01*
X0072407Y0141194D01*
X0072407Y0143421D01*
X0072407Y0142639D02*
X0072887Y0142639D01*
X0072887Y0141841D02*
X0072407Y0141841D01*
X0072407Y0141042D02*
X0072887Y0141042D01*
X0070180Y0139445D02*
X0070033Y0139445D01*
X0070033Y0138647D02*
X0070189Y0138647D01*
X0070180Y0137848D02*
X0070033Y0137848D01*
X0070033Y0137050D02*
X0070180Y0137050D01*
X0070180Y0136251D02*
X0070033Y0136251D01*
X0070033Y0135453D02*
X0070180Y0135453D01*
X0070230Y0134654D02*
X0070033Y0134654D01*
X0070033Y0133856D02*
X0070180Y0133856D01*
X0065033Y0132161D02*
X0065033Y0130161D01*
X0054533Y0130161D01*
X0054533Y0132161D01*
X0065033Y0132161D01*
X0065033Y0131460D02*
X0054533Y0131460D01*
X0054533Y0130662D02*
X0065033Y0130662D01*
X0061486Y0123661D02*
X0063533Y0121614D01*
X0063533Y0116220D01*
X0063533Y0111102D02*
X0059033Y0111102D01*
X0053533Y0111102D01*
X0053592Y0116161D02*
X0053533Y0116220D01*
X0053533Y0121614D01*
X0055580Y0123661D01*
X0046033Y0121614D02*
X0046033Y0116220D01*
X0046033Y0121614D02*
X0043986Y0123661D01*
X0061033Y0103720D02*
X0062974Y0103720D01*
X0065533Y0101161D01*
X0070533Y0101161D01*
X0071033Y0101661D01*
X0073474Y0086161D02*
X0073474Y0076673D01*
X0072686Y0075885D01*
X0072533Y0075885D01*
X0068033Y0074161D02*
X0068033Y0072661D01*
X0065745Y0070374D01*
X0063474Y0070374D01*
X0063643Y0065661D02*
X0063631Y0065649D01*
X0065021Y0065649D01*
X0065033Y0065661D01*
X0066033Y0065661D02*
X0063643Y0065661D01*
X0061545Y0063661D02*
X0061545Y0063484D01*
X0061710Y0063484D01*
X0059970Y0063681D02*
X0059970Y0061724D01*
X0063533Y0058161D01*
X0063533Y0051220D01*
X0063474Y0051161D01*
X0058533Y0054661D02*
X0058533Y0057161D01*
X0056820Y0058874D01*
X0056820Y0063681D01*
X0055245Y0063681D02*
X0055245Y0057874D01*
X0053533Y0056161D01*
X0053533Y0053720D01*
X0052533Y0058161D02*
X0053671Y0059299D01*
X0053671Y0063681D01*
X0052096Y0063681D02*
X0052096Y0060724D01*
X0051533Y0060161D01*
X0049033Y0060161D01*
X0048415Y0063484D02*
X0041092Y0056161D01*
X0041092Y0063661D02*
X0043533Y0063661D01*
X0047096Y0067224D01*
X0048552Y0067224D01*
X0048552Y0070374D02*
X0041879Y0070374D01*
X0041092Y0071161D01*
X0044745Y0071948D02*
X0041092Y0075602D01*
X0041092Y0078661D01*
X0045533Y0081661D02*
X0044033Y0083161D01*
X0044033Y0096161D01*
X0046533Y0098661D01*
X0035974Y0098661D02*
X0035974Y0091161D01*
X0045533Y0081661D02*
X0052533Y0081661D01*
X0053671Y0080523D01*
X0053671Y0078641D01*
X0055245Y0078641D02*
X0055245Y0080948D01*
X0052533Y0083661D01*
X0052533Y0084602D01*
X0051033Y0086102D01*
X0055033Y0086102D02*
X0055245Y0086102D01*
X0056533Y0083236D02*
X0056820Y0082948D01*
X0056820Y0078641D01*
X0056533Y0083161D02*
X0056533Y0083236D01*
X0048552Y0071948D02*
X0044745Y0071948D01*
X0039533Y0067661D02*
X0041092Y0066102D01*
X0041092Y0063661D01*
X0048415Y0063484D02*
X0050482Y0063484D01*
X0058395Y0063681D02*
X0058395Y0059799D01*
X0061033Y0057161D01*
X0066033Y0065661D02*
X0071033Y0060661D01*
X0071033Y0050161D01*
X0072474Y0048720D01*
X0076033Y0048720D01*
X0081533Y0050720D02*
X0083533Y0048720D01*
X0081533Y0050720D02*
X0081533Y0061661D01*
X0083033Y0063161D01*
X0083033Y0071161D01*
X0079379Y0066437D02*
X0078592Y0065649D01*
X0078592Y0056161D01*
X0096033Y0069661D02*
X0096033Y0072161D01*
X0097907Y0074035D01*
X0099576Y0074035D01*
X0100954Y0074035D02*
X0100954Y0072082D01*
X0098592Y0069720D01*
X0098592Y0066161D01*
X0103533Y0057161D02*
X0106033Y0054661D01*
X0106033Y0051397D01*
X0106033Y0048661D01*
X0108474Y0046220D01*
X0112033Y0046220D01*
X0103033Y0040661D02*
X0097533Y0040661D01*
X0096033Y0039161D01*
X0096033Y0030925D01*
X0091033Y0030925D02*
X0091033Y0028161D01*
X0088033Y0028161D01*
X0110033Y0026661D02*
X0111033Y0025661D01*
X0125533Y0025661D01*
X0128533Y0028661D01*
X0128533Y0032460D01*
X0123533Y0032460D02*
X0123533Y0029161D01*
X0123033Y0028661D01*
X0121033Y0028661D01*
X0118533Y0032161D02*
X0115533Y0029161D01*
X0118533Y0032161D02*
X0118533Y0032460D01*
X0127533Y0061661D02*
X0129533Y0061661D01*
X0129533Y0085161D01*
X0127533Y0085161D01*
X0127533Y0061661D01*
X0127533Y0061990D02*
X0129533Y0061990D01*
X0129533Y0062788D02*
X0127533Y0062788D01*
X0127533Y0063587D02*
X0129533Y0063587D01*
X0129533Y0064385D02*
X0127533Y0064385D01*
X0127533Y0065184D02*
X0129533Y0065184D01*
X0129533Y0065982D02*
X0127533Y0065982D01*
X0127533Y0066781D02*
X0129533Y0066781D01*
X0129533Y0067579D02*
X0127533Y0067579D01*
X0127533Y0068378D02*
X0129533Y0068378D01*
X0129533Y0069176D02*
X0127533Y0069176D01*
X0127533Y0069975D02*
X0129533Y0069975D01*
X0129533Y0070773D02*
X0127533Y0070773D01*
X0127533Y0071572D02*
X0129533Y0071572D01*
X0129533Y0072370D02*
X0127533Y0072370D01*
X0127533Y0073169D02*
X0129533Y0073169D01*
X0129533Y0073967D02*
X0127533Y0073967D01*
X0127533Y0074766D02*
X0129533Y0074766D01*
X0129533Y0075564D02*
X0127533Y0075564D01*
X0127533Y0076363D02*
X0129533Y0076363D01*
X0129533Y0077161D02*
X0127533Y0077161D01*
X0127533Y0077960D02*
X0129533Y0077960D01*
X0129533Y0078758D02*
X0127533Y0078758D01*
X0127533Y0079557D02*
X0129533Y0079557D01*
X0129533Y0080355D02*
X0127533Y0080355D01*
X0127533Y0081154D02*
X0129533Y0081154D01*
X0129533Y0081952D02*
X0127533Y0081952D01*
X0127533Y0082751D02*
X0129533Y0082751D01*
X0129533Y0083549D02*
X0127533Y0083549D01*
X0127785Y0082972D02*
X0128474Y0083661D01*
X0127785Y0082972D02*
X0118159Y0082972D01*
X0118159Y0087106D02*
X0121478Y0087106D01*
X0122533Y0088161D01*
X0120234Y0089862D02*
X0121533Y0091161D01*
X0128474Y0091161D01*
X0132533Y0085161D02*
X0139033Y0085161D01*
X0139033Y0068661D01*
X0132533Y0068661D01*
X0132533Y0085161D01*
X0132533Y0085146D02*
X0139033Y0085146D01*
X0139033Y0084348D02*
X0132533Y0084348D01*
X0132533Y0083549D02*
X0139033Y0083549D01*
X0139033Y0082751D02*
X0132533Y0082751D01*
X0132533Y0081952D02*
X0139033Y0081952D01*
X0139033Y0081154D02*
X0132533Y0081154D01*
X0132533Y0080355D02*
X0139033Y0080355D01*
X0139033Y0079557D02*
X0132533Y0079557D01*
X0132533Y0078758D02*
X0139033Y0078758D01*
X0139033Y0077960D02*
X0132533Y0077960D01*
X0132533Y0077161D02*
X0139033Y0077161D01*
X0139033Y0076363D02*
X0132533Y0076363D01*
X0132533Y0075564D02*
X0139033Y0075564D01*
X0139033Y0074766D02*
X0132533Y0074766D01*
X0132533Y0073967D02*
X0139033Y0073967D01*
X0139033Y0073169D02*
X0132533Y0073169D01*
X0132533Y0072370D02*
X0139033Y0072370D01*
X0139033Y0071572D02*
X0132533Y0071572D01*
X0132533Y0070773D02*
X0139033Y0070773D01*
X0139033Y0069975D02*
X0132533Y0069975D01*
X0132533Y0069176D02*
X0139033Y0069176D01*
X0148592Y0073661D02*
X0148592Y0080649D01*
X0149379Y0081437D01*
X0149379Y0082315D01*
X0142686Y0090885D02*
X0143474Y0091673D01*
X0143474Y0098661D01*
X0129533Y0085146D02*
X0127533Y0085146D01*
X0127533Y0084348D02*
X0129533Y0084348D01*
X0120234Y0089862D02*
X0118159Y0089862D01*
X0114734Y0093287D02*
X0114734Y0096661D01*
X0113356Y0096661D01*
X0113356Y0093287D01*
X0114734Y0096661D02*
X0114734Y0099960D01*
X0114675Y0099960D01*
X0111033Y0103602D01*
X0112033Y0099661D02*
X0111978Y0099216D01*
X0098907Y0084350D02*
X0092903Y0084350D01*
X0088592Y0088661D01*
X0116112Y0074035D02*
X0116133Y0074014D01*
X0116133Y0072161D01*
X0118433Y0069861D01*
X0118433Y0066461D01*
X0118733Y0066161D01*
X0124474Y0066161D01*
X0128474Y0070161D01*
X0108137Y0129863D02*
X0107226Y0129863D01*
X0107226Y0130662D02*
X0108054Y0130662D01*
X0108054Y0131460D02*
X0107226Y0131460D01*
X0106623Y0132259D02*
X0108054Y0132259D01*
X0107930Y0133057D02*
X0105825Y0133057D01*
X0105026Y0133856D02*
X0107660Y0133856D01*
X0107660Y0134654D02*
X0104228Y0134654D01*
X0103429Y0135453D02*
X0105227Y0135453D01*
X0104428Y0136251D02*
X0102631Y0136251D01*
X0101832Y0137050D02*
X0104255Y0137050D01*
X0104255Y0137848D02*
X0101726Y0137848D01*
X0101726Y0138647D02*
X0105004Y0138647D01*
X0106063Y0139445D02*
X0101726Y0139445D01*
X0101726Y0140244D02*
X0104436Y0140244D01*
X0103755Y0141042D02*
X0101726Y0141042D01*
X0101726Y0141841D02*
X0103755Y0141841D01*
X0103997Y0142639D02*
X0101726Y0142639D01*
X0101726Y0143438D02*
X0104339Y0143438D01*
X0104420Y0144236D02*
X0101726Y0144236D01*
X0101726Y0145035D02*
X0105218Y0145035D01*
X0106017Y0145833D02*
X0101726Y0145833D01*
X0101726Y0146632D02*
X0108054Y0146632D01*
X0108287Y0147430D02*
X0106816Y0147430D01*
X0105533Y0148661D02*
X0110186Y0148661D01*
X0110501Y0148976D01*
X0108389Y0150624D02*
X0103684Y0150624D01*
X0104183Y0149826D02*
X0102886Y0149826D01*
X0102087Y0149027D02*
X0103755Y0149027D01*
X0103755Y0148229D02*
X0101726Y0148229D01*
X0101726Y0147430D02*
X0104249Y0147430D01*
X0107304Y0145433D02*
X0105533Y0143661D01*
X0105533Y0141661D01*
X0106630Y0140244D02*
X0107859Y0140244D01*
X0107660Y0141042D02*
X0107311Y0141042D01*
X0107311Y0141841D02*
X0110409Y0141841D01*
X0107660Y0142639D02*
X0107069Y0142639D01*
X0106998Y0143438D02*
X0107802Y0143438D01*
X0107796Y0144236D02*
X0108054Y0144236D01*
X0107304Y0145433D02*
X0110501Y0145433D01*
X0110501Y0152519D02*
X0103891Y0152519D01*
X0105533Y0155161D02*
X0106434Y0156063D01*
X0110501Y0156063D01*
X0107533Y0157661D02*
X0103033Y0157661D01*
X0102533Y0158161D01*
X0102533Y0160488D01*
X0102391Y0160629D01*
X0100859Y0164307D02*
X0100859Y0164787D01*
X0103086Y0164787D01*
X0103923Y0164787D01*
X0103923Y0164307D01*
X0100859Y0164307D01*
X0100380Y0164307D02*
X0097316Y0164307D01*
X0097316Y0164787D01*
X0099543Y0164787D01*
X0100380Y0164787D01*
X0100380Y0164307D01*
X0100380Y0164997D02*
X0100859Y0164997D01*
X0100859Y0165796D02*
X0100380Y0165796D01*
X0100380Y0166595D02*
X0100859Y0166595D01*
X0103923Y0166595D02*
X0104402Y0166595D01*
X0104402Y0165796D02*
X0103923Y0165796D01*
X0103923Y0164997D02*
X0104402Y0164997D01*
X0108106Y0161005D02*
X0109189Y0161005D01*
X0108390Y0160206D02*
X0108106Y0160206D01*
X0107533Y0157661D02*
X0121033Y0171161D01*
X0129033Y0171161D01*
X0133186Y0167007D01*
X0133257Y0167007D01*
X0120457Y0163400D02*
X0114960Y0163400D01*
X0114162Y0162602D02*
X0120062Y0162602D01*
X0120179Y0164199D02*
X0115759Y0164199D01*
X0116557Y0164997D02*
X0120062Y0164997D01*
X0120062Y0165796D02*
X0117356Y0165796D01*
X0118154Y0166595D02*
X0120062Y0166595D01*
X0120062Y0167393D02*
X0118953Y0167393D01*
X0119751Y0168192D02*
X0120062Y0168192D01*
X0117972Y0169789D02*
X0070033Y0169789D01*
X0070033Y0170587D02*
X0118771Y0170587D01*
X0117174Y0168990D02*
X0070033Y0168990D01*
X0070033Y0168192D02*
X0116375Y0168192D01*
X0113980Y0165796D02*
X0111945Y0165796D01*
X0111945Y0164997D02*
X0113181Y0164997D01*
X0112383Y0164199D02*
X0111945Y0164199D01*
X0097316Y0164997D02*
X0096836Y0164997D01*
X0096836Y0165796D02*
X0097316Y0165796D01*
X0097316Y0166595D02*
X0096836Y0166595D01*
X0093773Y0166595D02*
X0093293Y0166595D01*
X0093293Y0165796D02*
X0093773Y0165796D01*
X0093773Y0164997D02*
X0093293Y0164997D01*
X0093293Y0164787D02*
X0093293Y0164307D01*
X0090229Y0164307D01*
X0090229Y0164787D01*
X0092456Y0164787D01*
X0093293Y0164787D01*
X0090229Y0164997D02*
X0089750Y0164997D01*
X0089750Y0164787D02*
X0088913Y0164787D01*
X0086686Y0164787D01*
X0086686Y0164307D01*
X0089750Y0164307D01*
X0089750Y0164787D01*
X0089750Y0165796D02*
X0090229Y0165796D01*
X0090229Y0166595D02*
X0089750Y0166595D01*
X0086686Y0166595D02*
X0086206Y0166595D01*
X0086206Y0165796D02*
X0086686Y0165796D01*
X0086686Y0164997D02*
X0086206Y0164997D01*
X0086206Y0164787D02*
X0086206Y0164307D01*
X0083143Y0164307D01*
X0083143Y0164787D01*
X0083979Y0164787D01*
X0086206Y0164787D01*
X0083143Y0164997D02*
X0082663Y0164997D01*
X0082663Y0164787D02*
X0081826Y0164787D01*
X0078714Y0164787D01*
X0078714Y0164307D01*
X0082663Y0164307D01*
X0082663Y0164787D01*
X0082663Y0165796D02*
X0083143Y0165796D01*
X0083143Y0166595D02*
X0082663Y0166595D01*
X0079353Y0161803D02*
X0074688Y0161803D01*
X0075114Y0161005D02*
X0079353Y0161005D01*
X0079353Y0160206D02*
X0075114Y0160206D01*
X0075114Y0159408D02*
X0079353Y0159408D01*
X0076656Y0157811D02*
X0076472Y0157811D01*
X0076472Y0157012D02*
X0076656Y0157012D01*
X0076656Y0156214D02*
X0076472Y0156214D01*
X0072887Y0156214D02*
X0072407Y0156214D01*
X0072407Y0157012D02*
X0072887Y0157012D01*
X0072887Y0157811D02*
X0072407Y0157811D01*
X0072407Y0159408D02*
X0072887Y0159408D01*
X0072887Y0160206D02*
X0072407Y0160206D01*
X0072407Y0161005D02*
X0072887Y0161005D01*
X0072887Y0161803D02*
X0072407Y0161803D01*
X0070180Y0157811D02*
X0070033Y0157811D01*
X0070033Y0157012D02*
X0070180Y0157012D01*
X0070229Y0156214D02*
X0070033Y0156214D01*
X0070033Y0155415D02*
X0070180Y0155415D01*
X0070180Y0154617D02*
X0070033Y0154617D01*
X0070033Y0153818D02*
X0070180Y0153818D01*
X0070180Y0153020D02*
X0070033Y0153020D01*
X0070033Y0152221D02*
X0070190Y0152221D01*
X0070180Y0151423D02*
X0070033Y0151423D01*
X0070033Y0150624D02*
X0072407Y0150624D01*
X0072407Y0150508D02*
X0072887Y0150508D01*
X0072887Y0147444D01*
X0072407Y0147444D01*
X0072407Y0149671D01*
X0072407Y0150508D01*
X0072407Y0150987D02*
X0072407Y0153215D01*
X0072407Y0154051D01*
X0072887Y0154051D01*
X0072887Y0150987D01*
X0072407Y0150987D01*
X0072407Y0151423D02*
X0072887Y0151423D01*
X0072887Y0152221D02*
X0072407Y0152221D01*
X0072407Y0153020D02*
X0072887Y0153020D01*
X0072887Y0153818D02*
X0072407Y0153818D01*
X0072407Y0154617D02*
X0072887Y0154617D01*
X0072887Y0155415D02*
X0072407Y0155415D01*
X0072407Y0149826D02*
X0072887Y0149826D01*
X0072887Y0149027D02*
X0072407Y0149027D01*
X0072407Y0148229D02*
X0072887Y0148229D01*
X0072407Y0147430D02*
X0070033Y0147430D01*
X0070033Y0146632D02*
X0070180Y0146632D01*
X0070180Y0145833D02*
X0070033Y0145833D01*
X0070033Y0145035D02*
X0070180Y0145035D01*
X0070180Y0144236D02*
X0070033Y0144236D01*
X0072407Y0144236D02*
X0072887Y0144236D01*
X0072887Y0145035D02*
X0072407Y0145035D01*
X0072407Y0145833D02*
X0072887Y0145833D01*
X0072887Y0146632D02*
X0072407Y0146632D01*
X0070180Y0148229D02*
X0070033Y0148229D01*
X0070033Y0149027D02*
X0070256Y0149027D01*
X0070180Y0149826D02*
X0070033Y0149826D01*
X0079405Y0137848D02*
X0081205Y0137848D01*
X0080407Y0137050D02*
X0079363Y0137050D01*
X0070967Y0117885D02*
X0070323Y0117885D01*
X0106839Y0135453D02*
X0107660Y0135453D01*
X0107637Y0136251D02*
X0107745Y0136251D01*
X0093564Y0158609D02*
X0093501Y0158609D01*
X0082934Y0158609D02*
X0082871Y0158609D01*
X0078713Y0162602D02*
X0078234Y0162602D01*
X0078234Y0163400D02*
X0078713Y0163400D01*
X0078713Y0164199D02*
X0078234Y0164199D01*
X0078234Y0164997D02*
X0078713Y0164997D01*
X0078713Y0165796D02*
X0078234Y0165796D01*
X0078234Y0166595D02*
X0078713Y0166595D01*
X0148533Y0146102D02*
X0151033Y0148602D01*
D39*
X0143651Y0127401D02*
X0140273Y0127401D01*
X0139033Y0126161D01*
X0139033Y0121161D01*
X0140273Y0119921D01*
X0143651Y0119921D01*
X0143651Y0112401D02*
X0140273Y0112401D01*
X0139033Y0111161D01*
X0139033Y0106161D01*
X0140273Y0104921D01*
X0143651Y0104921D01*
X0062273Y0150901D02*
X0061033Y0149661D01*
X0055533Y0149661D01*
X0054793Y0150401D01*
X0054793Y0153779D01*
X0062273Y0153779D02*
X0062273Y0150901D01*
D40*
X0076564Y0152519D02*
X0081175Y0152519D01*
X0086533Y0147161D01*
X0086533Y0132661D01*
X0090033Y0130661D02*
X0088218Y0128846D01*
X0088218Y0126692D01*
X0091761Y0126692D02*
X0091761Y0128933D01*
X0090033Y0130661D01*
X0095033Y0130661D02*
X0095033Y0126964D01*
X0095304Y0126692D01*
X0098848Y0126692D02*
X0099033Y0126878D01*
X0099033Y0130661D01*
X0100533Y0112661D02*
X0091533Y0112661D01*
X0088533Y0109661D01*
X0088533Y0099161D01*
X0092033Y0095661D01*
X0100533Y0095661D01*
X0100954Y0095240D01*
X0100954Y0093287D01*
X0099576Y0093287D02*
X0096407Y0093287D01*
X0096033Y0093661D01*
X0095033Y0091161D02*
X0093533Y0092661D01*
X0095033Y0091161D02*
X0098033Y0091161D01*
X0098907Y0090287D01*
X0098907Y0089862D01*
X0098907Y0088484D02*
X0096210Y0088484D01*
X0095533Y0089161D01*
X0093533Y0089661D02*
X0093533Y0087661D01*
X0094088Y0087106D01*
X0098907Y0087106D01*
X0098907Y0085728D02*
X0093466Y0085728D01*
X0091533Y0087661D01*
X0091533Y0089220D01*
X0093533Y0089661D02*
X0087033Y0096161D01*
X0087033Y0110661D01*
X0084033Y0113661D01*
X0034033Y0113661D01*
X0033033Y0114661D01*
X0033033Y0128102D01*
X0036033Y0131102D01*
X0046033Y0131102D02*
X0050474Y0126661D01*
X0065533Y0126661D01*
X0066533Y0125661D01*
X0066533Y0123661D01*
X0065533Y0106161D02*
X0055974Y0106161D01*
X0053533Y0103720D01*
X0065533Y0106161D02*
X0067344Y0104350D01*
X0068474Y0104350D01*
X0067033Y0092661D02*
X0070533Y0089161D01*
X0080533Y0089161D01*
X0081033Y0088661D01*
X0081033Y0085161D01*
X0083033Y0083161D01*
X0083033Y0074161D01*
X0084033Y0073161D01*
X0092533Y0073161D01*
X0093533Y0074161D01*
X0093533Y0075161D01*
X0097210Y0078838D01*
X0098907Y0078838D01*
X0098907Y0077460D02*
X0097832Y0077460D01*
X0095033Y0074661D01*
X0095033Y0073661D01*
X0092533Y0071161D01*
X0092533Y0069661D01*
X0092533Y0076161D02*
X0091092Y0076161D01*
X0092533Y0076161D02*
X0096588Y0080216D01*
X0098907Y0080216D01*
X0098907Y0081594D02*
X0095966Y0081594D01*
X0093533Y0079161D01*
X0090033Y0079161D01*
X0089033Y0080161D01*
X0089033Y0083161D01*
X0086033Y0086161D01*
X0086033Y0091661D01*
X0085533Y0092161D01*
X0085533Y0108661D01*
X0084533Y0109661D01*
X0089533Y0105161D02*
X0090533Y0106161D01*
X0107533Y0106161D01*
X0107533Y0101161D02*
X0106466Y0100094D01*
X0106466Y0093287D01*
X0107844Y0093287D02*
X0107844Y0095350D01*
X0109533Y0097161D01*
X0111978Y0099216D02*
X0111978Y0093287D01*
X0105088Y0093287D02*
X0105088Y0098606D01*
X0103533Y0100161D01*
X0100033Y0100161D02*
X0103710Y0096484D01*
X0103710Y0093287D01*
X0102332Y0093287D02*
X0102332Y0095862D01*
X0101033Y0097161D01*
X0092533Y0097161D01*
X0089533Y0100161D01*
X0089533Y0105161D01*
X0100533Y0112661D02*
X0101533Y0111661D01*
X0103533Y0111661D01*
X0121533Y0095161D02*
X0124974Y0095161D01*
X0128474Y0098661D01*
X0131033Y0100661D02*
X0131033Y0096161D01*
X0130033Y0095161D01*
X0128533Y0095161D01*
X0131033Y0100661D02*
X0132033Y0101661D01*
X0135533Y0101661D01*
X0137033Y0103161D01*
X0137033Y0130661D01*
X0138533Y0132161D01*
X0138533Y0136102D01*
X0141033Y0101661D02*
X0139033Y0099661D01*
X0141033Y0101661D02*
X0153033Y0101661D01*
X0154033Y0100661D01*
X0154033Y0071661D01*
X0152033Y0069661D01*
X0146147Y0069661D01*
X0141702Y0065216D01*
X0141702Y0052106D01*
X0133533Y0053161D02*
X0132033Y0051661D01*
X0127033Y0051661D01*
X0126033Y0052661D01*
X0126033Y0057161D01*
X0123933Y0059261D01*
X0117433Y0059261D01*
X0115033Y0056861D01*
X0112633Y0056861D01*
X0112133Y0057361D01*
X0112133Y0061461D01*
X0105933Y0067661D01*
X0105933Y0069661D01*
X0106533Y0070261D01*
X0106533Y0073968D01*
X0106466Y0074035D01*
X0107833Y0074024D02*
X0107844Y0074035D01*
X0107833Y0074024D02*
X0107833Y0068261D01*
X0109633Y0070061D02*
X0109633Y0065661D01*
X0114133Y0061161D01*
X0114133Y0059461D01*
X0115833Y0059461D01*
X0116833Y0060461D01*
X0126233Y0060461D01*
X0128533Y0058161D01*
X0128533Y0054862D01*
X0133533Y0054862D02*
X0133533Y0053161D01*
X0133592Y0063161D02*
X0139647Y0063161D01*
X0141702Y0065216D01*
X0125533Y0073220D02*
X0121033Y0068720D01*
X0120033Y0072161D02*
X0120033Y0073161D01*
X0119533Y0073661D01*
X0117863Y0073661D01*
X0117489Y0074035D01*
X0114734Y0074035D02*
X0114734Y0070760D01*
X0115933Y0069361D01*
X0113356Y0068838D02*
X0113356Y0074035D01*
X0111978Y0074035D02*
X0111978Y0068516D01*
X0113633Y0066861D01*
X0113633Y0064231D01*
X0115103Y0062761D01*
X0116933Y0062761D01*
X0115933Y0066261D02*
X0113356Y0068838D01*
X0111733Y0066261D02*
X0110733Y0067261D01*
X0110733Y0072161D01*
X0110600Y0072294D01*
X0110600Y0074035D01*
X0109222Y0074035D02*
X0109222Y0070472D01*
X0109633Y0070061D01*
X0105033Y0070461D02*
X0104033Y0069461D01*
X0104033Y0067761D01*
X0111033Y0060761D01*
X0111033Y0056761D01*
X0112033Y0055761D01*
X0115533Y0055761D01*
X0115533Y0044661D01*
X0114533Y0043661D01*
X0096533Y0043661D01*
X0096033Y0044161D01*
X0096033Y0051397D01*
X0101033Y0051397D02*
X0101033Y0059161D01*
X0106033Y0060661D02*
X0101033Y0065661D01*
X0101033Y0070261D01*
X0102332Y0071560D01*
X0102332Y0074035D01*
X0103710Y0074035D02*
X0103710Y0071038D01*
X0102533Y0069861D01*
X0102533Y0066661D01*
X0109033Y0060161D01*
X0115533Y0055761D02*
X0117533Y0057761D01*
X0120033Y0057761D01*
X0120533Y0057261D01*
X0120533Y0056161D01*
X0121832Y0054862D01*
X0123533Y0054862D01*
X0124533Y0063161D02*
X0121474Y0063161D01*
X0121033Y0063602D01*
X0125533Y0073220D02*
X0125533Y0077661D01*
X0122978Y0080216D01*
X0118159Y0080216D01*
X0118159Y0078838D02*
X0121710Y0078838D01*
X0122533Y0078015D01*
X0122533Y0077661D01*
X0121533Y0074661D02*
X0118734Y0077460D01*
X0118159Y0077460D01*
X0118159Y0081594D02*
X0124600Y0081594D01*
X0125533Y0080661D01*
X0124222Y0084350D02*
X0126533Y0086661D01*
X0145033Y0086661D01*
X0149379Y0082315D01*
X0142686Y0090885D02*
X0139962Y0088161D01*
X0126033Y0088161D01*
X0123600Y0085728D01*
X0118159Y0085728D01*
X0118159Y0084350D02*
X0124222Y0084350D01*
X0105088Y0074035D02*
X0105033Y0073980D01*
X0105033Y0070461D01*
X0098907Y0082972D02*
X0093844Y0082972D01*
X0092533Y0081661D01*
X0079379Y0067815D02*
X0079379Y0066437D01*
X0079379Y0067815D02*
X0076533Y0070661D01*
X0070233Y0070661D01*
X0066796Y0067224D01*
X0063474Y0067224D01*
X0063474Y0068799D02*
X0066400Y0068799D01*
X0072533Y0074861D01*
X0072533Y0075885D01*
X0068033Y0077661D02*
X0066033Y0075661D01*
X0066033Y0072661D01*
X0065320Y0071948D01*
X0063474Y0071948D01*
X0063710Y0076633D02*
X0064505Y0076633D01*
X0065533Y0077661D01*
X0065533Y0082161D01*
X0063533Y0079661D02*
X0062710Y0078838D01*
X0061584Y0078838D01*
X0048395Y0078299D02*
X0048395Y0076673D01*
X0048552Y0075098D02*
X0047096Y0075098D01*
X0046033Y0076161D01*
X0046033Y0077161D01*
X0045533Y0077661D01*
X0044033Y0077661D01*
X0043533Y0078161D01*
X0043533Y0080661D01*
X0041033Y0083161D01*
X0047033Y0079661D02*
X0048395Y0078299D01*
X0048552Y0073523D02*
X0046171Y0073523D01*
X0044033Y0075661D01*
X0045171Y0068799D02*
X0044033Y0067661D01*
X0045171Y0068799D02*
X0048552Y0068799D01*
X0038533Y0060161D02*
X0033533Y0060161D01*
X0033033Y0060661D01*
X0033033Y0088220D01*
X0035974Y0091161D01*
X0061710Y0063484D02*
X0066033Y0059161D01*
X0101033Y0030925D02*
X0101033Y0026161D01*
X0101533Y0025661D01*
X0109033Y0025661D01*
X0110033Y0026661D01*
D41*
X0106033Y0030925D02*
X0106033Y0034161D01*
X0109533Y0037661D01*
X0112033Y0037661D01*
X0112033Y0041102D01*
X0112033Y0037661D02*
X0114033Y0035661D01*
X0133033Y0035661D01*
X0133533Y0035161D01*
X0133533Y0032460D01*
X0103033Y0060661D02*
X0101033Y0062661D01*
X0101033Y0063661D01*
X0098592Y0066102D01*
X0098592Y0066161D01*
M02*
