%
M48
M72
T01C0.01181
T02C0.12598
%
T01
X36033Y52161
X38533Y60161
X39533Y67661
X44033Y67661
X44033Y75661
X47033Y79661
X41033Y83161
X41033Y87161
X46533Y86661
X46533Y91661
X49533Y101161
X59033Y111102
X57533Y116161
X66533Y123661
X72533Y120661
X69533Y116161
X77533Y107661
X82533Y107661
X84533Y109661
X91533Y103161
X100033Y100161
X103533Y100161
X107533Y101161
X109533Y97161
X112033Y99661
X107533Y106161
X108033Y111661
X103533Y111661
X100033Y109161
X113533Y120161
X122033Y111661
X129533Y114661
X122533Y102661
X121533Y95161
X128533Y95161
X133533Y95161
X139033Y99661
X147533Y105661
X152033Y98661
X151033Y114661
X147533Y120661
X151033Y130161
X143033Y141161
X137033Y151161
X142533Y153661
X147033Y153661
X125033Y148661
X122033Y141661
X118533Y138161
X122033Y132661
X106033Y137161
X105533Y141661
X103033Y145661
X105533Y148661
X105533Y155161
X93533Y143661
X86533Y132661
X90033Y130661
X95033Y130661
X99033Y130661
X82033Y136161
X82033Y143661
X68033Y136161
X60033Y131161
X77033Y127161
X65533Y106161
X67033Y92661
X62533Y92661
X68033Y84161
X65533Y82161
X63533Y79661
X68033Y77661
X68033Y74161
X79033Y81661
X86033Y82661
X92533Y81661
X91533Y89220
X93533Y92661
X96033Y93661
X95533Y89161
X88533Y92161
X83533Y95161
X79033Y92661
X77533Y101161
X56533Y83161
X56033Y71161
X49033Y60161
X52533Y58161
X58533Y54661
X61033Y57161
X66033Y59161
X68533Y55161
X73533Y60161
X83033Y71161
X87033Y66661
X90033Y66661
X92533Y69661
X96033Y69661
X98533Y62161
X101033Y59161
X103033Y60661
X106033Y60661
X109033Y60161
X114133Y59461
X116933Y62761
X115933Y66261
X115933Y69361
X120033Y72161
X121533Y74661
X122533Y77661
X125533Y80661
X128533Y80661
X128533Y73661
X128533Y66661
X124533Y63161
X119033Y49161
X119033Y38161
X112033Y37661
X115533Y29161
X121033Y28661
X110033Y26661
X103533Y37161
X103033Y40661
X98533Y37161
X93533Y37161
X86533Y37161
X82533Y30161
X88033Y28161
X74533Y39161
X72033Y42661
X71033Y27661
X53533Y45161
X36033Y75161
X42033Y116161
X41033Y148661
X58533Y157661
X61033Y165661
X72533Y168661
X77533Y168661
X82533Y168661
X87533Y168661
X92533Y168661
X97533Y168661
X102533Y168661
X107533Y168661
X112533Y168661
X117533Y163661
X77033Y160161
X108533Y89661
X108533Y83661
X102533Y83661
X108533Y77661
X114533Y83661
X122533Y88161
X136533Y80161
X136533Y73661
X133033Y49161
X133033Y38161
X150533Y47661
X111733Y66261
X107833Y68261
X103533Y57161
X84533Y61161
T02
X41033Y33661
X146033Y33661
X146033Y163661
X41033Y163661
M30
