G75*
%MOIN*%
%OFA0B0*%
%FSLAX25Y25*%
%IPPOS*%
%LPD*%
%AMOC8*
5,1,8,0,0,1.08239X$1,22.5*
%
%ADD10C,0.00000*%
%ADD11C,0.01000*%
%ADD12C,0.01969*%
%ADD13C,0.00600*%
%ADD14C,0.00800*%
D10*
X0031033Y0023661D02*
X0031033Y0173661D01*
X0156033Y0173661D01*
X0156033Y0023661D01*
X0031033Y0023661D01*
X0034734Y0033661D02*
X0034736Y0033819D01*
X0034742Y0033977D01*
X0034752Y0034135D01*
X0034766Y0034293D01*
X0034784Y0034450D01*
X0034805Y0034607D01*
X0034831Y0034763D01*
X0034861Y0034919D01*
X0034894Y0035074D01*
X0034932Y0035227D01*
X0034973Y0035380D01*
X0035018Y0035532D01*
X0035067Y0035683D01*
X0035120Y0035832D01*
X0035176Y0035980D01*
X0035236Y0036126D01*
X0035300Y0036271D01*
X0035368Y0036414D01*
X0035439Y0036556D01*
X0035513Y0036696D01*
X0035591Y0036833D01*
X0035673Y0036969D01*
X0035757Y0037103D01*
X0035846Y0037234D01*
X0035937Y0037363D01*
X0036032Y0037490D01*
X0036129Y0037615D01*
X0036230Y0037737D01*
X0036334Y0037856D01*
X0036441Y0037973D01*
X0036551Y0038087D01*
X0036664Y0038198D01*
X0036779Y0038307D01*
X0036897Y0038412D01*
X0037018Y0038514D01*
X0037141Y0038614D01*
X0037267Y0038710D01*
X0037395Y0038803D01*
X0037525Y0038893D01*
X0037658Y0038979D01*
X0037793Y0039063D01*
X0037929Y0039142D01*
X0038068Y0039219D01*
X0038209Y0039291D01*
X0038351Y0039361D01*
X0038495Y0039426D01*
X0038641Y0039488D01*
X0038788Y0039546D01*
X0038937Y0039601D01*
X0039087Y0039652D01*
X0039238Y0039699D01*
X0039390Y0039742D01*
X0039543Y0039781D01*
X0039698Y0039817D01*
X0039853Y0039848D01*
X0040009Y0039876D01*
X0040165Y0039900D01*
X0040322Y0039920D01*
X0040480Y0039936D01*
X0040637Y0039948D01*
X0040796Y0039956D01*
X0040954Y0039960D01*
X0041112Y0039960D01*
X0041270Y0039956D01*
X0041429Y0039948D01*
X0041586Y0039936D01*
X0041744Y0039920D01*
X0041901Y0039900D01*
X0042057Y0039876D01*
X0042213Y0039848D01*
X0042368Y0039817D01*
X0042523Y0039781D01*
X0042676Y0039742D01*
X0042828Y0039699D01*
X0042979Y0039652D01*
X0043129Y0039601D01*
X0043278Y0039546D01*
X0043425Y0039488D01*
X0043571Y0039426D01*
X0043715Y0039361D01*
X0043857Y0039291D01*
X0043998Y0039219D01*
X0044137Y0039142D01*
X0044273Y0039063D01*
X0044408Y0038979D01*
X0044541Y0038893D01*
X0044671Y0038803D01*
X0044799Y0038710D01*
X0044925Y0038614D01*
X0045048Y0038514D01*
X0045169Y0038412D01*
X0045287Y0038307D01*
X0045402Y0038198D01*
X0045515Y0038087D01*
X0045625Y0037973D01*
X0045732Y0037856D01*
X0045836Y0037737D01*
X0045937Y0037615D01*
X0046034Y0037490D01*
X0046129Y0037363D01*
X0046220Y0037234D01*
X0046309Y0037103D01*
X0046393Y0036969D01*
X0046475Y0036833D01*
X0046553Y0036696D01*
X0046627Y0036556D01*
X0046698Y0036414D01*
X0046766Y0036271D01*
X0046830Y0036126D01*
X0046890Y0035980D01*
X0046946Y0035832D01*
X0046999Y0035683D01*
X0047048Y0035532D01*
X0047093Y0035380D01*
X0047134Y0035227D01*
X0047172Y0035074D01*
X0047205Y0034919D01*
X0047235Y0034763D01*
X0047261Y0034607D01*
X0047282Y0034450D01*
X0047300Y0034293D01*
X0047314Y0034135D01*
X0047324Y0033977D01*
X0047330Y0033819D01*
X0047332Y0033661D01*
X0047330Y0033503D01*
X0047324Y0033345D01*
X0047314Y0033187D01*
X0047300Y0033029D01*
X0047282Y0032872D01*
X0047261Y0032715D01*
X0047235Y0032559D01*
X0047205Y0032403D01*
X0047172Y0032248D01*
X0047134Y0032095D01*
X0047093Y0031942D01*
X0047048Y0031790D01*
X0046999Y0031639D01*
X0046946Y0031490D01*
X0046890Y0031342D01*
X0046830Y0031196D01*
X0046766Y0031051D01*
X0046698Y0030908D01*
X0046627Y0030766D01*
X0046553Y0030626D01*
X0046475Y0030489D01*
X0046393Y0030353D01*
X0046309Y0030219D01*
X0046220Y0030088D01*
X0046129Y0029959D01*
X0046034Y0029832D01*
X0045937Y0029707D01*
X0045836Y0029585D01*
X0045732Y0029466D01*
X0045625Y0029349D01*
X0045515Y0029235D01*
X0045402Y0029124D01*
X0045287Y0029015D01*
X0045169Y0028910D01*
X0045048Y0028808D01*
X0044925Y0028708D01*
X0044799Y0028612D01*
X0044671Y0028519D01*
X0044541Y0028429D01*
X0044408Y0028343D01*
X0044273Y0028259D01*
X0044137Y0028180D01*
X0043998Y0028103D01*
X0043857Y0028031D01*
X0043715Y0027961D01*
X0043571Y0027896D01*
X0043425Y0027834D01*
X0043278Y0027776D01*
X0043129Y0027721D01*
X0042979Y0027670D01*
X0042828Y0027623D01*
X0042676Y0027580D01*
X0042523Y0027541D01*
X0042368Y0027505D01*
X0042213Y0027474D01*
X0042057Y0027446D01*
X0041901Y0027422D01*
X0041744Y0027402D01*
X0041586Y0027386D01*
X0041429Y0027374D01*
X0041270Y0027366D01*
X0041112Y0027362D01*
X0040954Y0027362D01*
X0040796Y0027366D01*
X0040637Y0027374D01*
X0040480Y0027386D01*
X0040322Y0027402D01*
X0040165Y0027422D01*
X0040009Y0027446D01*
X0039853Y0027474D01*
X0039698Y0027505D01*
X0039543Y0027541D01*
X0039390Y0027580D01*
X0039238Y0027623D01*
X0039087Y0027670D01*
X0038937Y0027721D01*
X0038788Y0027776D01*
X0038641Y0027834D01*
X0038495Y0027896D01*
X0038351Y0027961D01*
X0038209Y0028031D01*
X0038068Y0028103D01*
X0037929Y0028180D01*
X0037793Y0028259D01*
X0037658Y0028343D01*
X0037525Y0028429D01*
X0037395Y0028519D01*
X0037267Y0028612D01*
X0037141Y0028708D01*
X0037018Y0028808D01*
X0036897Y0028910D01*
X0036779Y0029015D01*
X0036664Y0029124D01*
X0036551Y0029235D01*
X0036441Y0029349D01*
X0036334Y0029466D01*
X0036230Y0029585D01*
X0036129Y0029707D01*
X0036032Y0029832D01*
X0035937Y0029959D01*
X0035846Y0030088D01*
X0035757Y0030219D01*
X0035673Y0030353D01*
X0035591Y0030489D01*
X0035513Y0030626D01*
X0035439Y0030766D01*
X0035368Y0030908D01*
X0035300Y0031051D01*
X0035236Y0031196D01*
X0035176Y0031342D01*
X0035120Y0031490D01*
X0035067Y0031639D01*
X0035018Y0031790D01*
X0034973Y0031942D01*
X0034932Y0032095D01*
X0034894Y0032248D01*
X0034861Y0032403D01*
X0034831Y0032559D01*
X0034805Y0032715D01*
X0034784Y0032872D01*
X0034766Y0033029D01*
X0034752Y0033187D01*
X0034742Y0033345D01*
X0034736Y0033503D01*
X0034734Y0033661D01*
X0139734Y0033661D02*
X0139736Y0033819D01*
X0139742Y0033977D01*
X0139752Y0034135D01*
X0139766Y0034293D01*
X0139784Y0034450D01*
X0139805Y0034607D01*
X0139831Y0034763D01*
X0139861Y0034919D01*
X0139894Y0035074D01*
X0139932Y0035227D01*
X0139973Y0035380D01*
X0140018Y0035532D01*
X0140067Y0035683D01*
X0140120Y0035832D01*
X0140176Y0035980D01*
X0140236Y0036126D01*
X0140300Y0036271D01*
X0140368Y0036414D01*
X0140439Y0036556D01*
X0140513Y0036696D01*
X0140591Y0036833D01*
X0140673Y0036969D01*
X0140757Y0037103D01*
X0140846Y0037234D01*
X0140937Y0037363D01*
X0141032Y0037490D01*
X0141129Y0037615D01*
X0141230Y0037737D01*
X0141334Y0037856D01*
X0141441Y0037973D01*
X0141551Y0038087D01*
X0141664Y0038198D01*
X0141779Y0038307D01*
X0141897Y0038412D01*
X0142018Y0038514D01*
X0142141Y0038614D01*
X0142267Y0038710D01*
X0142395Y0038803D01*
X0142525Y0038893D01*
X0142658Y0038979D01*
X0142793Y0039063D01*
X0142929Y0039142D01*
X0143068Y0039219D01*
X0143209Y0039291D01*
X0143351Y0039361D01*
X0143495Y0039426D01*
X0143641Y0039488D01*
X0143788Y0039546D01*
X0143937Y0039601D01*
X0144087Y0039652D01*
X0144238Y0039699D01*
X0144390Y0039742D01*
X0144543Y0039781D01*
X0144698Y0039817D01*
X0144853Y0039848D01*
X0145009Y0039876D01*
X0145165Y0039900D01*
X0145322Y0039920D01*
X0145480Y0039936D01*
X0145637Y0039948D01*
X0145796Y0039956D01*
X0145954Y0039960D01*
X0146112Y0039960D01*
X0146270Y0039956D01*
X0146429Y0039948D01*
X0146586Y0039936D01*
X0146744Y0039920D01*
X0146901Y0039900D01*
X0147057Y0039876D01*
X0147213Y0039848D01*
X0147368Y0039817D01*
X0147523Y0039781D01*
X0147676Y0039742D01*
X0147828Y0039699D01*
X0147979Y0039652D01*
X0148129Y0039601D01*
X0148278Y0039546D01*
X0148425Y0039488D01*
X0148571Y0039426D01*
X0148715Y0039361D01*
X0148857Y0039291D01*
X0148998Y0039219D01*
X0149137Y0039142D01*
X0149273Y0039063D01*
X0149408Y0038979D01*
X0149541Y0038893D01*
X0149671Y0038803D01*
X0149799Y0038710D01*
X0149925Y0038614D01*
X0150048Y0038514D01*
X0150169Y0038412D01*
X0150287Y0038307D01*
X0150402Y0038198D01*
X0150515Y0038087D01*
X0150625Y0037973D01*
X0150732Y0037856D01*
X0150836Y0037737D01*
X0150937Y0037615D01*
X0151034Y0037490D01*
X0151129Y0037363D01*
X0151220Y0037234D01*
X0151309Y0037103D01*
X0151393Y0036969D01*
X0151475Y0036833D01*
X0151553Y0036696D01*
X0151627Y0036556D01*
X0151698Y0036414D01*
X0151766Y0036271D01*
X0151830Y0036126D01*
X0151890Y0035980D01*
X0151946Y0035832D01*
X0151999Y0035683D01*
X0152048Y0035532D01*
X0152093Y0035380D01*
X0152134Y0035227D01*
X0152172Y0035074D01*
X0152205Y0034919D01*
X0152235Y0034763D01*
X0152261Y0034607D01*
X0152282Y0034450D01*
X0152300Y0034293D01*
X0152314Y0034135D01*
X0152324Y0033977D01*
X0152330Y0033819D01*
X0152332Y0033661D01*
X0152330Y0033503D01*
X0152324Y0033345D01*
X0152314Y0033187D01*
X0152300Y0033029D01*
X0152282Y0032872D01*
X0152261Y0032715D01*
X0152235Y0032559D01*
X0152205Y0032403D01*
X0152172Y0032248D01*
X0152134Y0032095D01*
X0152093Y0031942D01*
X0152048Y0031790D01*
X0151999Y0031639D01*
X0151946Y0031490D01*
X0151890Y0031342D01*
X0151830Y0031196D01*
X0151766Y0031051D01*
X0151698Y0030908D01*
X0151627Y0030766D01*
X0151553Y0030626D01*
X0151475Y0030489D01*
X0151393Y0030353D01*
X0151309Y0030219D01*
X0151220Y0030088D01*
X0151129Y0029959D01*
X0151034Y0029832D01*
X0150937Y0029707D01*
X0150836Y0029585D01*
X0150732Y0029466D01*
X0150625Y0029349D01*
X0150515Y0029235D01*
X0150402Y0029124D01*
X0150287Y0029015D01*
X0150169Y0028910D01*
X0150048Y0028808D01*
X0149925Y0028708D01*
X0149799Y0028612D01*
X0149671Y0028519D01*
X0149541Y0028429D01*
X0149408Y0028343D01*
X0149273Y0028259D01*
X0149137Y0028180D01*
X0148998Y0028103D01*
X0148857Y0028031D01*
X0148715Y0027961D01*
X0148571Y0027896D01*
X0148425Y0027834D01*
X0148278Y0027776D01*
X0148129Y0027721D01*
X0147979Y0027670D01*
X0147828Y0027623D01*
X0147676Y0027580D01*
X0147523Y0027541D01*
X0147368Y0027505D01*
X0147213Y0027474D01*
X0147057Y0027446D01*
X0146901Y0027422D01*
X0146744Y0027402D01*
X0146586Y0027386D01*
X0146429Y0027374D01*
X0146270Y0027366D01*
X0146112Y0027362D01*
X0145954Y0027362D01*
X0145796Y0027366D01*
X0145637Y0027374D01*
X0145480Y0027386D01*
X0145322Y0027402D01*
X0145165Y0027422D01*
X0145009Y0027446D01*
X0144853Y0027474D01*
X0144698Y0027505D01*
X0144543Y0027541D01*
X0144390Y0027580D01*
X0144238Y0027623D01*
X0144087Y0027670D01*
X0143937Y0027721D01*
X0143788Y0027776D01*
X0143641Y0027834D01*
X0143495Y0027896D01*
X0143351Y0027961D01*
X0143209Y0028031D01*
X0143068Y0028103D01*
X0142929Y0028180D01*
X0142793Y0028259D01*
X0142658Y0028343D01*
X0142525Y0028429D01*
X0142395Y0028519D01*
X0142267Y0028612D01*
X0142141Y0028708D01*
X0142018Y0028808D01*
X0141897Y0028910D01*
X0141779Y0029015D01*
X0141664Y0029124D01*
X0141551Y0029235D01*
X0141441Y0029349D01*
X0141334Y0029466D01*
X0141230Y0029585D01*
X0141129Y0029707D01*
X0141032Y0029832D01*
X0140937Y0029959D01*
X0140846Y0030088D01*
X0140757Y0030219D01*
X0140673Y0030353D01*
X0140591Y0030489D01*
X0140513Y0030626D01*
X0140439Y0030766D01*
X0140368Y0030908D01*
X0140300Y0031051D01*
X0140236Y0031196D01*
X0140176Y0031342D01*
X0140120Y0031490D01*
X0140067Y0031639D01*
X0140018Y0031790D01*
X0139973Y0031942D01*
X0139932Y0032095D01*
X0139894Y0032248D01*
X0139861Y0032403D01*
X0139831Y0032559D01*
X0139805Y0032715D01*
X0139784Y0032872D01*
X0139766Y0033029D01*
X0139752Y0033187D01*
X0139742Y0033345D01*
X0139736Y0033503D01*
X0139734Y0033661D01*
X0139734Y0163661D02*
X0139736Y0163819D01*
X0139742Y0163977D01*
X0139752Y0164135D01*
X0139766Y0164293D01*
X0139784Y0164450D01*
X0139805Y0164607D01*
X0139831Y0164763D01*
X0139861Y0164919D01*
X0139894Y0165074D01*
X0139932Y0165227D01*
X0139973Y0165380D01*
X0140018Y0165532D01*
X0140067Y0165683D01*
X0140120Y0165832D01*
X0140176Y0165980D01*
X0140236Y0166126D01*
X0140300Y0166271D01*
X0140368Y0166414D01*
X0140439Y0166556D01*
X0140513Y0166696D01*
X0140591Y0166833D01*
X0140673Y0166969D01*
X0140757Y0167103D01*
X0140846Y0167234D01*
X0140937Y0167363D01*
X0141032Y0167490D01*
X0141129Y0167615D01*
X0141230Y0167737D01*
X0141334Y0167856D01*
X0141441Y0167973D01*
X0141551Y0168087D01*
X0141664Y0168198D01*
X0141779Y0168307D01*
X0141897Y0168412D01*
X0142018Y0168514D01*
X0142141Y0168614D01*
X0142267Y0168710D01*
X0142395Y0168803D01*
X0142525Y0168893D01*
X0142658Y0168979D01*
X0142793Y0169063D01*
X0142929Y0169142D01*
X0143068Y0169219D01*
X0143209Y0169291D01*
X0143351Y0169361D01*
X0143495Y0169426D01*
X0143641Y0169488D01*
X0143788Y0169546D01*
X0143937Y0169601D01*
X0144087Y0169652D01*
X0144238Y0169699D01*
X0144390Y0169742D01*
X0144543Y0169781D01*
X0144698Y0169817D01*
X0144853Y0169848D01*
X0145009Y0169876D01*
X0145165Y0169900D01*
X0145322Y0169920D01*
X0145480Y0169936D01*
X0145637Y0169948D01*
X0145796Y0169956D01*
X0145954Y0169960D01*
X0146112Y0169960D01*
X0146270Y0169956D01*
X0146429Y0169948D01*
X0146586Y0169936D01*
X0146744Y0169920D01*
X0146901Y0169900D01*
X0147057Y0169876D01*
X0147213Y0169848D01*
X0147368Y0169817D01*
X0147523Y0169781D01*
X0147676Y0169742D01*
X0147828Y0169699D01*
X0147979Y0169652D01*
X0148129Y0169601D01*
X0148278Y0169546D01*
X0148425Y0169488D01*
X0148571Y0169426D01*
X0148715Y0169361D01*
X0148857Y0169291D01*
X0148998Y0169219D01*
X0149137Y0169142D01*
X0149273Y0169063D01*
X0149408Y0168979D01*
X0149541Y0168893D01*
X0149671Y0168803D01*
X0149799Y0168710D01*
X0149925Y0168614D01*
X0150048Y0168514D01*
X0150169Y0168412D01*
X0150287Y0168307D01*
X0150402Y0168198D01*
X0150515Y0168087D01*
X0150625Y0167973D01*
X0150732Y0167856D01*
X0150836Y0167737D01*
X0150937Y0167615D01*
X0151034Y0167490D01*
X0151129Y0167363D01*
X0151220Y0167234D01*
X0151309Y0167103D01*
X0151393Y0166969D01*
X0151475Y0166833D01*
X0151553Y0166696D01*
X0151627Y0166556D01*
X0151698Y0166414D01*
X0151766Y0166271D01*
X0151830Y0166126D01*
X0151890Y0165980D01*
X0151946Y0165832D01*
X0151999Y0165683D01*
X0152048Y0165532D01*
X0152093Y0165380D01*
X0152134Y0165227D01*
X0152172Y0165074D01*
X0152205Y0164919D01*
X0152235Y0164763D01*
X0152261Y0164607D01*
X0152282Y0164450D01*
X0152300Y0164293D01*
X0152314Y0164135D01*
X0152324Y0163977D01*
X0152330Y0163819D01*
X0152332Y0163661D01*
X0152330Y0163503D01*
X0152324Y0163345D01*
X0152314Y0163187D01*
X0152300Y0163029D01*
X0152282Y0162872D01*
X0152261Y0162715D01*
X0152235Y0162559D01*
X0152205Y0162403D01*
X0152172Y0162248D01*
X0152134Y0162095D01*
X0152093Y0161942D01*
X0152048Y0161790D01*
X0151999Y0161639D01*
X0151946Y0161490D01*
X0151890Y0161342D01*
X0151830Y0161196D01*
X0151766Y0161051D01*
X0151698Y0160908D01*
X0151627Y0160766D01*
X0151553Y0160626D01*
X0151475Y0160489D01*
X0151393Y0160353D01*
X0151309Y0160219D01*
X0151220Y0160088D01*
X0151129Y0159959D01*
X0151034Y0159832D01*
X0150937Y0159707D01*
X0150836Y0159585D01*
X0150732Y0159466D01*
X0150625Y0159349D01*
X0150515Y0159235D01*
X0150402Y0159124D01*
X0150287Y0159015D01*
X0150169Y0158910D01*
X0150048Y0158808D01*
X0149925Y0158708D01*
X0149799Y0158612D01*
X0149671Y0158519D01*
X0149541Y0158429D01*
X0149408Y0158343D01*
X0149273Y0158259D01*
X0149137Y0158180D01*
X0148998Y0158103D01*
X0148857Y0158031D01*
X0148715Y0157961D01*
X0148571Y0157896D01*
X0148425Y0157834D01*
X0148278Y0157776D01*
X0148129Y0157721D01*
X0147979Y0157670D01*
X0147828Y0157623D01*
X0147676Y0157580D01*
X0147523Y0157541D01*
X0147368Y0157505D01*
X0147213Y0157474D01*
X0147057Y0157446D01*
X0146901Y0157422D01*
X0146744Y0157402D01*
X0146586Y0157386D01*
X0146429Y0157374D01*
X0146270Y0157366D01*
X0146112Y0157362D01*
X0145954Y0157362D01*
X0145796Y0157366D01*
X0145637Y0157374D01*
X0145480Y0157386D01*
X0145322Y0157402D01*
X0145165Y0157422D01*
X0145009Y0157446D01*
X0144853Y0157474D01*
X0144698Y0157505D01*
X0144543Y0157541D01*
X0144390Y0157580D01*
X0144238Y0157623D01*
X0144087Y0157670D01*
X0143937Y0157721D01*
X0143788Y0157776D01*
X0143641Y0157834D01*
X0143495Y0157896D01*
X0143351Y0157961D01*
X0143209Y0158031D01*
X0143068Y0158103D01*
X0142929Y0158180D01*
X0142793Y0158259D01*
X0142658Y0158343D01*
X0142525Y0158429D01*
X0142395Y0158519D01*
X0142267Y0158612D01*
X0142141Y0158708D01*
X0142018Y0158808D01*
X0141897Y0158910D01*
X0141779Y0159015D01*
X0141664Y0159124D01*
X0141551Y0159235D01*
X0141441Y0159349D01*
X0141334Y0159466D01*
X0141230Y0159585D01*
X0141129Y0159707D01*
X0141032Y0159832D01*
X0140937Y0159959D01*
X0140846Y0160088D01*
X0140757Y0160219D01*
X0140673Y0160353D01*
X0140591Y0160489D01*
X0140513Y0160626D01*
X0140439Y0160766D01*
X0140368Y0160908D01*
X0140300Y0161051D01*
X0140236Y0161196D01*
X0140176Y0161342D01*
X0140120Y0161490D01*
X0140067Y0161639D01*
X0140018Y0161790D01*
X0139973Y0161942D01*
X0139932Y0162095D01*
X0139894Y0162248D01*
X0139861Y0162403D01*
X0139831Y0162559D01*
X0139805Y0162715D01*
X0139784Y0162872D01*
X0139766Y0163029D01*
X0139752Y0163187D01*
X0139742Y0163345D01*
X0139736Y0163503D01*
X0139734Y0163661D01*
X0034734Y0163661D02*
X0034736Y0163819D01*
X0034742Y0163977D01*
X0034752Y0164135D01*
X0034766Y0164293D01*
X0034784Y0164450D01*
X0034805Y0164607D01*
X0034831Y0164763D01*
X0034861Y0164919D01*
X0034894Y0165074D01*
X0034932Y0165227D01*
X0034973Y0165380D01*
X0035018Y0165532D01*
X0035067Y0165683D01*
X0035120Y0165832D01*
X0035176Y0165980D01*
X0035236Y0166126D01*
X0035300Y0166271D01*
X0035368Y0166414D01*
X0035439Y0166556D01*
X0035513Y0166696D01*
X0035591Y0166833D01*
X0035673Y0166969D01*
X0035757Y0167103D01*
X0035846Y0167234D01*
X0035937Y0167363D01*
X0036032Y0167490D01*
X0036129Y0167615D01*
X0036230Y0167737D01*
X0036334Y0167856D01*
X0036441Y0167973D01*
X0036551Y0168087D01*
X0036664Y0168198D01*
X0036779Y0168307D01*
X0036897Y0168412D01*
X0037018Y0168514D01*
X0037141Y0168614D01*
X0037267Y0168710D01*
X0037395Y0168803D01*
X0037525Y0168893D01*
X0037658Y0168979D01*
X0037793Y0169063D01*
X0037929Y0169142D01*
X0038068Y0169219D01*
X0038209Y0169291D01*
X0038351Y0169361D01*
X0038495Y0169426D01*
X0038641Y0169488D01*
X0038788Y0169546D01*
X0038937Y0169601D01*
X0039087Y0169652D01*
X0039238Y0169699D01*
X0039390Y0169742D01*
X0039543Y0169781D01*
X0039698Y0169817D01*
X0039853Y0169848D01*
X0040009Y0169876D01*
X0040165Y0169900D01*
X0040322Y0169920D01*
X0040480Y0169936D01*
X0040637Y0169948D01*
X0040796Y0169956D01*
X0040954Y0169960D01*
X0041112Y0169960D01*
X0041270Y0169956D01*
X0041429Y0169948D01*
X0041586Y0169936D01*
X0041744Y0169920D01*
X0041901Y0169900D01*
X0042057Y0169876D01*
X0042213Y0169848D01*
X0042368Y0169817D01*
X0042523Y0169781D01*
X0042676Y0169742D01*
X0042828Y0169699D01*
X0042979Y0169652D01*
X0043129Y0169601D01*
X0043278Y0169546D01*
X0043425Y0169488D01*
X0043571Y0169426D01*
X0043715Y0169361D01*
X0043857Y0169291D01*
X0043998Y0169219D01*
X0044137Y0169142D01*
X0044273Y0169063D01*
X0044408Y0168979D01*
X0044541Y0168893D01*
X0044671Y0168803D01*
X0044799Y0168710D01*
X0044925Y0168614D01*
X0045048Y0168514D01*
X0045169Y0168412D01*
X0045287Y0168307D01*
X0045402Y0168198D01*
X0045515Y0168087D01*
X0045625Y0167973D01*
X0045732Y0167856D01*
X0045836Y0167737D01*
X0045937Y0167615D01*
X0046034Y0167490D01*
X0046129Y0167363D01*
X0046220Y0167234D01*
X0046309Y0167103D01*
X0046393Y0166969D01*
X0046475Y0166833D01*
X0046553Y0166696D01*
X0046627Y0166556D01*
X0046698Y0166414D01*
X0046766Y0166271D01*
X0046830Y0166126D01*
X0046890Y0165980D01*
X0046946Y0165832D01*
X0046999Y0165683D01*
X0047048Y0165532D01*
X0047093Y0165380D01*
X0047134Y0165227D01*
X0047172Y0165074D01*
X0047205Y0164919D01*
X0047235Y0164763D01*
X0047261Y0164607D01*
X0047282Y0164450D01*
X0047300Y0164293D01*
X0047314Y0164135D01*
X0047324Y0163977D01*
X0047330Y0163819D01*
X0047332Y0163661D01*
X0047330Y0163503D01*
X0047324Y0163345D01*
X0047314Y0163187D01*
X0047300Y0163029D01*
X0047282Y0162872D01*
X0047261Y0162715D01*
X0047235Y0162559D01*
X0047205Y0162403D01*
X0047172Y0162248D01*
X0047134Y0162095D01*
X0047093Y0161942D01*
X0047048Y0161790D01*
X0046999Y0161639D01*
X0046946Y0161490D01*
X0046890Y0161342D01*
X0046830Y0161196D01*
X0046766Y0161051D01*
X0046698Y0160908D01*
X0046627Y0160766D01*
X0046553Y0160626D01*
X0046475Y0160489D01*
X0046393Y0160353D01*
X0046309Y0160219D01*
X0046220Y0160088D01*
X0046129Y0159959D01*
X0046034Y0159832D01*
X0045937Y0159707D01*
X0045836Y0159585D01*
X0045732Y0159466D01*
X0045625Y0159349D01*
X0045515Y0159235D01*
X0045402Y0159124D01*
X0045287Y0159015D01*
X0045169Y0158910D01*
X0045048Y0158808D01*
X0044925Y0158708D01*
X0044799Y0158612D01*
X0044671Y0158519D01*
X0044541Y0158429D01*
X0044408Y0158343D01*
X0044273Y0158259D01*
X0044137Y0158180D01*
X0043998Y0158103D01*
X0043857Y0158031D01*
X0043715Y0157961D01*
X0043571Y0157896D01*
X0043425Y0157834D01*
X0043278Y0157776D01*
X0043129Y0157721D01*
X0042979Y0157670D01*
X0042828Y0157623D01*
X0042676Y0157580D01*
X0042523Y0157541D01*
X0042368Y0157505D01*
X0042213Y0157474D01*
X0042057Y0157446D01*
X0041901Y0157422D01*
X0041744Y0157402D01*
X0041586Y0157386D01*
X0041429Y0157374D01*
X0041270Y0157366D01*
X0041112Y0157362D01*
X0040954Y0157362D01*
X0040796Y0157366D01*
X0040637Y0157374D01*
X0040480Y0157386D01*
X0040322Y0157402D01*
X0040165Y0157422D01*
X0040009Y0157446D01*
X0039853Y0157474D01*
X0039698Y0157505D01*
X0039543Y0157541D01*
X0039390Y0157580D01*
X0039238Y0157623D01*
X0039087Y0157670D01*
X0038937Y0157721D01*
X0038788Y0157776D01*
X0038641Y0157834D01*
X0038495Y0157896D01*
X0038351Y0157961D01*
X0038209Y0158031D01*
X0038068Y0158103D01*
X0037929Y0158180D01*
X0037793Y0158259D01*
X0037658Y0158343D01*
X0037525Y0158429D01*
X0037395Y0158519D01*
X0037267Y0158612D01*
X0037141Y0158708D01*
X0037018Y0158808D01*
X0036897Y0158910D01*
X0036779Y0159015D01*
X0036664Y0159124D01*
X0036551Y0159235D01*
X0036441Y0159349D01*
X0036334Y0159466D01*
X0036230Y0159585D01*
X0036129Y0159707D01*
X0036032Y0159832D01*
X0035937Y0159959D01*
X0035846Y0160088D01*
X0035757Y0160219D01*
X0035673Y0160353D01*
X0035591Y0160489D01*
X0035513Y0160626D01*
X0035439Y0160766D01*
X0035368Y0160908D01*
X0035300Y0161051D01*
X0035236Y0161196D01*
X0035176Y0161342D01*
X0035120Y0161490D01*
X0035067Y0161639D01*
X0035018Y0161790D01*
X0034973Y0161942D01*
X0034932Y0162095D01*
X0034894Y0162248D01*
X0034861Y0162403D01*
X0034831Y0162559D01*
X0034805Y0162715D01*
X0034784Y0162872D01*
X0034766Y0163029D01*
X0034752Y0163187D01*
X0034742Y0163345D01*
X0034736Y0163503D01*
X0034734Y0163661D01*
D11*
X0033052Y0163453D02*
X0032714Y0163453D01*
X0032714Y0164451D02*
X0033052Y0164451D01*
X0033052Y0165248D02*
X0033052Y0162074D01*
X0034267Y0159141D01*
X0036512Y0156896D01*
X0039445Y0155681D01*
X0042620Y0155681D01*
X0045553Y0156896D01*
X0047798Y0159141D01*
X0049013Y0162074D01*
X0049013Y0165248D01*
X0047798Y0168181D01*
X0045553Y0170426D01*
X0042620Y0171641D01*
X0039445Y0171641D01*
X0036512Y0170426D01*
X0034267Y0168181D01*
X0033052Y0165248D01*
X0033136Y0165450D02*
X0032714Y0165450D01*
X0032714Y0166448D02*
X0033549Y0166448D01*
X0033963Y0167447D02*
X0032714Y0167447D01*
X0032714Y0168445D02*
X0034531Y0168445D01*
X0035530Y0169444D02*
X0032714Y0169444D01*
X0032714Y0170442D02*
X0036550Y0170442D01*
X0038961Y0171441D02*
X0032714Y0171441D01*
X0032714Y0171980D02*
X0154352Y0171980D01*
X0154352Y0025342D01*
X0111370Y0025342D01*
X0111911Y0025883D01*
X0111911Y0027439D01*
X0110811Y0028539D01*
X0109255Y0028539D01*
X0108671Y0027955D01*
X0108069Y0027955D01*
X0107326Y0028697D01*
X0107326Y0039125D01*
X0108239Y0040038D01*
X0108239Y0034625D01*
X0108997Y0033867D01*
X0113655Y0029209D01*
X0113655Y0028383D01*
X0114755Y0027283D01*
X0116311Y0027283D01*
X0117411Y0028383D01*
X0117411Y0029939D01*
X0116311Y0031039D01*
X0115484Y0031039D01*
X0110826Y0035697D01*
X0110826Y0036211D01*
X0111255Y0035783D01*
X0112811Y0035783D01*
X0113911Y0036883D01*
X0113911Y0038439D01*
X0112811Y0039539D01*
X0111255Y0039539D01*
X0110826Y0039110D01*
X0110826Y0039625D01*
X0112269Y0041067D01*
X0113026Y0041825D01*
X0113026Y0057911D01*
X0113355Y0057583D01*
X0114911Y0057583D01*
X0116011Y0058683D01*
X0116011Y0058895D01*
X0120339Y0054567D01*
X0120339Y0034155D01*
X0119839Y0033655D01*
X0119839Y0030123D01*
X0119155Y0029439D01*
X0119155Y0027883D01*
X0120255Y0026783D01*
X0121811Y0026783D01*
X0122911Y0027883D01*
X0122911Y0029439D01*
X0122226Y0030123D01*
X0122226Y0032667D01*
X0122726Y0033167D01*
X0122726Y0055555D01*
X0122027Y0056255D01*
X0117399Y0060883D01*
X0117711Y0060883D01*
X0118811Y0061983D01*
X0118811Y0063539D01*
X0117711Y0064639D01*
X0116967Y0064639D01*
X0117811Y0065483D01*
X0117811Y0067039D01*
X0117039Y0067811D01*
X0117811Y0068583D01*
X0117811Y0070139D01*
X0116982Y0070967D01*
X0118571Y0070967D01*
X0119255Y0070283D01*
X0120811Y0070283D01*
X0121911Y0071383D01*
X0121911Y0072783D01*
X0122311Y0072783D01*
X0123411Y0073883D01*
X0123411Y0075439D01*
X0123067Y0075783D01*
X0123311Y0075783D01*
X0124411Y0076883D01*
X0124411Y0078439D01*
X0123382Y0079467D01*
X0124071Y0079467D01*
X0124755Y0078783D01*
X0126311Y0078783D01*
X0127033Y0079505D01*
X0127755Y0078783D01*
X0129311Y0078783D01*
X0130411Y0079883D01*
X0130411Y0081439D01*
X0129311Y0082539D01*
X0127755Y0082539D01*
X0127033Y0081817D01*
X0126311Y0082539D01*
X0124755Y0082539D01*
X0124071Y0081855D01*
X0116527Y0081855D01*
X0116027Y0082355D01*
X0099538Y0082355D01*
X0098038Y0080855D01*
X0094382Y0080855D01*
X0094411Y0080883D01*
X0094411Y0082439D01*
X0093311Y0083539D01*
X0091755Y0083539D01*
X0090655Y0082439D01*
X0090655Y0080883D01*
X0090683Y0080855D01*
X0085027Y0080855D01*
X0080915Y0084967D01*
X0093027Y0084967D01*
X0093726Y0085667D01*
X0095343Y0087283D01*
X0096311Y0087283D01*
X0097411Y0088383D01*
X0097411Y0089939D01*
X0096311Y0091039D01*
X0094755Y0091039D01*
X0093655Y0089939D01*
X0093655Y0088971D01*
X0093411Y0088727D01*
X0093411Y0089998D01*
X0092311Y0091098D01*
X0092158Y0091098D01*
X0092299Y0091239D01*
X0092755Y0090783D01*
X0094311Y0090783D01*
X0095311Y0091783D01*
X0096811Y0091783D01*
X0097911Y0092883D01*
X0097911Y0094439D01*
X0096811Y0095539D01*
X0095843Y0095539D01*
X0095527Y0095855D01*
X0087981Y0095855D01*
X0087947Y0095885D01*
X0087493Y0095855D01*
X0087038Y0095855D01*
X0087006Y0095822D01*
X0086960Y0095819D01*
X0086661Y0095477D01*
X0086339Y0095155D01*
X0086339Y0095109D01*
X0083491Y0091855D01*
X0080882Y0091855D01*
X0080911Y0091883D01*
X0080911Y0093439D01*
X0079811Y0094539D01*
X0078255Y0094539D01*
X0077155Y0093439D01*
X0077155Y0091883D01*
X0077183Y0091855D01*
X0068882Y0091855D01*
X0068911Y0091883D01*
X0068911Y0093439D01*
X0067811Y0094539D01*
X0066255Y0094539D01*
X0065155Y0093439D01*
X0065155Y0091883D01*
X0065183Y0091855D01*
X0064382Y0091855D01*
X0064411Y0091883D01*
X0064411Y0093439D01*
X0063311Y0094539D01*
X0061755Y0094539D01*
X0060655Y0093439D01*
X0060655Y0091883D01*
X0060683Y0091855D01*
X0057538Y0091855D01*
X0050038Y0084355D01*
X0042495Y0084355D01*
X0041811Y0085039D01*
X0040255Y0085039D01*
X0039155Y0083939D01*
X0039155Y0082383D01*
X0040255Y0081283D01*
X0041811Y0081283D01*
X0042495Y0081967D01*
X0051027Y0081967D01*
X0058527Y0089467D01*
X0083584Y0089467D01*
X0083619Y0089437D01*
X0084072Y0089467D01*
X0084527Y0089467D01*
X0084560Y0089500D01*
X0084606Y0089503D01*
X0084905Y0089845D01*
X0085226Y0090167D01*
X0085226Y0090212D01*
X0086655Y0091845D01*
X0086655Y0091383D01*
X0087755Y0090283D01*
X0087967Y0090283D01*
X0087038Y0089355D01*
X0064538Y0089355D01*
X0058411Y0083227D01*
X0058411Y0083939D01*
X0057311Y0085039D01*
X0055755Y0085039D01*
X0054655Y0083939D01*
X0054655Y0082383D01*
X0055755Y0081283D01*
X0056467Y0081283D01*
X0056038Y0080855D01*
X0048495Y0080855D01*
X0047811Y0081539D01*
X0046255Y0081539D01*
X0045155Y0080439D01*
X0045155Y0078883D01*
X0046255Y0077783D01*
X0047811Y0077783D01*
X0048495Y0078467D01*
X0056651Y0078467D01*
X0055038Y0076855D01*
X0045495Y0076855D01*
X0044811Y0077539D01*
X0043255Y0077539D01*
X0042155Y0076439D01*
X0042155Y0074883D01*
X0043255Y0073783D01*
X0044811Y0073783D01*
X0045495Y0074467D01*
X0056027Y0074467D01*
X0061655Y0080095D01*
X0061655Y0078883D01*
X0062755Y0077783D01*
X0064311Y0077783D01*
X0064995Y0078467D01*
X0066183Y0078467D01*
X0066155Y0078439D01*
X0066155Y0076883D01*
X0067127Y0075911D01*
X0066155Y0074939D01*
X0066155Y0073383D01*
X0067255Y0072283D01*
X0068811Y0072283D01*
X0069911Y0073383D01*
X0069911Y0074939D01*
X0068939Y0075911D01*
X0069911Y0076883D01*
X0069911Y0078439D01*
X0069882Y0078467D01*
X0072038Y0078467D01*
X0075339Y0075167D01*
X0076038Y0074467D01*
X0112038Y0074467D01*
X0112151Y0074355D01*
X0080038Y0074355D01*
X0079339Y0073655D01*
X0076538Y0070855D01*
X0059038Y0070855D01*
X0058339Y0070155D01*
X0057038Y0068855D01*
X0045495Y0068855D01*
X0044811Y0069539D01*
X0043255Y0069539D01*
X0042155Y0068439D01*
X0042155Y0066883D01*
X0042683Y0066355D01*
X0042527Y0066355D01*
X0041411Y0067471D01*
X0041411Y0068439D01*
X0040311Y0069539D01*
X0038755Y0069539D01*
X0037655Y0068439D01*
X0037655Y0066883D01*
X0038755Y0065783D01*
X0039723Y0065783D01*
X0040839Y0064667D01*
X0041538Y0063967D01*
X0044651Y0063967D01*
X0042038Y0061355D01*
X0039995Y0061355D01*
X0039311Y0062039D01*
X0037755Y0062039D01*
X0036655Y0060939D01*
X0036655Y0059383D01*
X0037755Y0058283D01*
X0039311Y0058283D01*
X0039995Y0058967D01*
X0043027Y0058967D01*
X0046527Y0062467D01*
X0061038Y0062467D01*
X0064155Y0059351D01*
X0064155Y0058383D01*
X0065255Y0057283D01*
X0066811Y0057283D01*
X0067911Y0058383D01*
X0067911Y0059939D01*
X0066811Y0061039D01*
X0065843Y0061039D01*
X0062027Y0064855D01*
X0059915Y0064855D01*
X0060027Y0064967D01*
X0083027Y0064967D01*
X0085155Y0067095D01*
X0085155Y0065883D01*
X0086255Y0064783D01*
X0087811Y0064783D01*
X0088533Y0065505D01*
X0089255Y0064783D01*
X0090811Y0064783D01*
X0091911Y0065883D01*
X0091911Y0067439D01*
X0090811Y0068539D01*
X0089255Y0068539D01*
X0088533Y0067817D01*
X0087811Y0068539D01*
X0086599Y0068539D01*
X0088527Y0070467D01*
X0090683Y0070467D01*
X0090655Y0070439D01*
X0090655Y0068883D01*
X0091755Y0067783D01*
X0093311Y0067783D01*
X0094283Y0068755D01*
X0094739Y0068299D01*
X0094739Y0060125D01*
X0095497Y0059367D01*
X0098997Y0055867D01*
X0102171Y0055867D01*
X0102755Y0055283D01*
X0104311Y0055283D01*
X0104739Y0055711D01*
X0104739Y0044197D01*
X0103081Y0042539D01*
X0102255Y0042539D01*
X0101155Y0041439D01*
X0101155Y0039883D01*
X0102255Y0038783D01*
X0102499Y0038783D01*
X0101655Y0037939D01*
X0101655Y0036383D01*
X0102755Y0035283D01*
X0104311Y0035283D01*
X0104739Y0035711D01*
X0104739Y0027625D01*
X0105497Y0026867D01*
X0106997Y0025367D01*
X0108671Y0025367D01*
X0108696Y0025342D01*
X0032714Y0025342D01*
X0032714Y0171980D01*
X0032714Y0162454D02*
X0033052Y0162454D01*
X0033308Y0161456D02*
X0032714Y0161456D01*
X0032714Y0160457D02*
X0033722Y0160457D01*
X0034136Y0159459D02*
X0032714Y0159459D01*
X0032714Y0158460D02*
X0034948Y0158460D01*
X0035946Y0157462D02*
X0032714Y0157462D01*
X0032714Y0156463D02*
X0037557Y0156463D01*
X0032714Y0155464D02*
X0103655Y0155464D01*
X0103655Y0155939D02*
X0103655Y0154383D01*
X0104755Y0153283D01*
X0106311Y0153283D01*
X0107411Y0154383D01*
X0107411Y0155939D01*
X0106311Y0157039D01*
X0104755Y0157039D01*
X0103655Y0155939D01*
X0104179Y0156463D02*
X0044509Y0156463D01*
X0046119Y0157462D02*
X0140946Y0157462D01*
X0141512Y0156896D02*
X0144445Y0155681D01*
X0147620Y0155681D01*
X0150553Y0156896D01*
X0152798Y0159141D01*
X0154013Y0162074D01*
X0154013Y0165248D01*
X0152798Y0168181D01*
X0150553Y0170426D01*
X0147620Y0171641D01*
X0144445Y0171641D01*
X0141512Y0170426D01*
X0139267Y0168181D01*
X0138052Y0165248D01*
X0138052Y0162074D01*
X0139267Y0159141D01*
X0141512Y0156896D01*
X0142557Y0156463D02*
X0106887Y0156463D01*
X0107411Y0155464D02*
X0141680Y0155464D01*
X0141755Y0155539D02*
X0140655Y0154439D01*
X0140655Y0152883D01*
X0141755Y0151783D01*
X0143311Y0151783D01*
X0144411Y0152883D01*
X0144411Y0154439D01*
X0143311Y0155539D01*
X0141755Y0155539D01*
X0140682Y0154466D02*
X0107411Y0154466D01*
X0106495Y0153467D02*
X0140655Y0153467D01*
X0141069Y0152469D02*
X0032714Y0152469D01*
X0032714Y0153467D02*
X0104570Y0153467D01*
X0103655Y0154466D02*
X0032714Y0154466D01*
X0032714Y0151470D02*
X0154352Y0151470D01*
X0154352Y0150472D02*
X0125878Y0150472D01*
X0125811Y0150539D02*
X0124255Y0150539D01*
X0123155Y0149439D01*
X0123155Y0147883D01*
X0124255Y0146783D01*
X0125811Y0146783D01*
X0126911Y0147883D01*
X0126911Y0149439D01*
X0125811Y0150539D01*
X0126876Y0149473D02*
X0154352Y0149473D01*
X0154352Y0148475D02*
X0126911Y0148475D01*
X0126504Y0147476D02*
X0154352Y0147476D01*
X0154352Y0146478D02*
X0032714Y0146478D01*
X0032714Y0147476D02*
X0104062Y0147476D01*
X0103655Y0147883D02*
X0104755Y0146783D01*
X0106311Y0146783D01*
X0107411Y0147883D01*
X0107411Y0149439D01*
X0106311Y0150539D01*
X0104755Y0150539D01*
X0103655Y0149439D01*
X0103655Y0147883D01*
X0103655Y0148475D02*
X0032714Y0148475D01*
X0032714Y0149473D02*
X0103689Y0149473D01*
X0104688Y0150472D02*
X0032714Y0150472D01*
X0032714Y0145479D02*
X0154352Y0145479D01*
X0154352Y0144481D02*
X0032714Y0144481D01*
X0032714Y0143482D02*
X0104698Y0143482D01*
X0104755Y0143539D02*
X0103655Y0142439D01*
X0103655Y0140883D01*
X0104755Y0139783D01*
X0106311Y0139783D01*
X0107411Y0140883D01*
X0107411Y0142439D01*
X0106311Y0143539D01*
X0104755Y0143539D01*
X0103700Y0142484D02*
X0032714Y0142484D01*
X0032714Y0141485D02*
X0103655Y0141485D01*
X0104051Y0140487D02*
X0032714Y0140487D01*
X0032714Y0139488D02*
X0117204Y0139488D01*
X0116655Y0138939D02*
X0116655Y0137383D01*
X0117755Y0136283D01*
X0119311Y0136283D01*
X0120411Y0137383D01*
X0120411Y0138939D01*
X0119311Y0140039D01*
X0117755Y0140039D01*
X0116655Y0138939D01*
X0116655Y0138490D02*
X0107360Y0138490D01*
X0106811Y0139039D02*
X0107911Y0137939D01*
X0107911Y0136383D01*
X0106811Y0135283D01*
X0105255Y0135283D01*
X0104155Y0136383D01*
X0104155Y0137939D01*
X0105255Y0139039D01*
X0106811Y0139039D01*
X0107014Y0140487D02*
X0120551Y0140487D01*
X0120155Y0140883D02*
X0121255Y0139783D01*
X0122811Y0139783D01*
X0123911Y0140883D01*
X0123911Y0142439D01*
X0122811Y0143539D01*
X0121255Y0143539D01*
X0120155Y0142439D01*
X0120155Y0140883D01*
X0120155Y0141485D02*
X0107411Y0141485D01*
X0107366Y0142484D02*
X0120200Y0142484D01*
X0121198Y0143482D02*
X0106367Y0143482D01*
X0107004Y0147476D02*
X0123562Y0147476D01*
X0123155Y0148475D02*
X0107411Y0148475D01*
X0107376Y0149473D02*
X0123189Y0149473D01*
X0124188Y0150472D02*
X0106378Y0150472D01*
X0104706Y0138490D02*
X0032714Y0138490D01*
X0032714Y0137491D02*
X0066707Y0137491D01*
X0067255Y0138039D02*
X0066155Y0136939D01*
X0066155Y0135383D01*
X0067255Y0134283D01*
X0068811Y0134283D01*
X0069911Y0135383D01*
X0069911Y0136939D01*
X0068811Y0138039D01*
X0067255Y0138039D01*
X0066155Y0136493D02*
X0032714Y0136493D01*
X0032714Y0135494D02*
X0066155Y0135494D01*
X0067042Y0134496D02*
X0032714Y0134496D01*
X0032714Y0133497D02*
X0084713Y0133497D01*
X0084655Y0133439D02*
X0084655Y0131883D01*
X0085755Y0130783D01*
X0087311Y0130783D01*
X0088411Y0131883D01*
X0088411Y0133439D01*
X0087311Y0134539D01*
X0085755Y0134539D01*
X0084655Y0133439D01*
X0084655Y0132499D02*
X0032714Y0132499D01*
X0032714Y0131500D02*
X0085038Y0131500D01*
X0088028Y0131500D02*
X0088216Y0131500D01*
X0088155Y0131439D02*
X0088155Y0129883D01*
X0089255Y0128783D01*
X0090811Y0128783D01*
X0091911Y0129883D01*
X0091911Y0131439D01*
X0090811Y0132539D01*
X0089255Y0132539D01*
X0088155Y0131439D01*
X0088155Y0130502D02*
X0032714Y0130502D01*
X0032714Y0129503D02*
X0088535Y0129503D01*
X0091531Y0129503D02*
X0093535Y0129503D01*
X0093155Y0129883D02*
X0094255Y0128783D01*
X0095811Y0128783D01*
X0096911Y0129883D01*
X0096911Y0131439D01*
X0095811Y0132539D01*
X0094255Y0132539D01*
X0093155Y0131439D01*
X0093155Y0129883D01*
X0093155Y0130502D02*
X0091911Y0130502D01*
X0091849Y0131500D02*
X0093216Y0131500D01*
X0094215Y0132499D02*
X0090851Y0132499D01*
X0089215Y0132499D02*
X0088411Y0132499D01*
X0088352Y0133497D02*
X0154352Y0133497D01*
X0154352Y0132499D02*
X0099851Y0132499D01*
X0099811Y0132539D02*
X0098255Y0132539D01*
X0097155Y0131439D01*
X0097155Y0129883D01*
X0098255Y0128783D01*
X0099811Y0128783D01*
X0100911Y0129883D01*
X0100911Y0131439D01*
X0099811Y0132539D01*
X0100849Y0131500D02*
X0154352Y0131500D01*
X0154352Y0130502D02*
X0100911Y0130502D01*
X0100531Y0129503D02*
X0154352Y0129503D01*
X0154352Y0128505D02*
X0032714Y0128505D01*
X0032714Y0127506D02*
X0154352Y0127506D01*
X0154352Y0126508D02*
X0032714Y0126508D01*
X0032714Y0125509D02*
X0065725Y0125509D01*
X0065755Y0125539D02*
X0064655Y0124439D01*
X0064655Y0122883D01*
X0065339Y0122199D01*
X0065339Y0111167D01*
X0066038Y0110467D01*
X0068038Y0108467D01*
X0075683Y0108467D01*
X0075655Y0108439D01*
X0075655Y0106883D01*
X0076755Y0105783D01*
X0078311Y0105783D01*
X0079411Y0106883D01*
X0079411Y0108439D01*
X0079382Y0108467D01*
X0080683Y0108467D01*
X0080655Y0108439D01*
X0080655Y0106883D01*
X0081755Y0105783D01*
X0083311Y0105783D01*
X0084411Y0106883D01*
X0084411Y0107783D01*
X0085311Y0107783D01*
X0086411Y0108883D01*
X0086411Y0110439D01*
X0085311Y0111539D01*
X0083755Y0111539D01*
X0083071Y0110855D01*
X0069027Y0110855D01*
X0067726Y0112155D01*
X0067726Y0115311D01*
X0068755Y0114283D01*
X0070311Y0114283D01*
X0071411Y0115383D01*
X0071411Y0116939D01*
X0070311Y0118039D01*
X0068755Y0118039D01*
X0067726Y0117010D01*
X0067726Y0122199D01*
X0068411Y0122883D01*
X0068411Y0124439D01*
X0067311Y0125539D01*
X0065755Y0125539D01*
X0064727Y0124511D02*
X0032714Y0124511D01*
X0032714Y0123512D02*
X0064655Y0123512D01*
X0065024Y0122514D02*
X0032714Y0122514D01*
X0032714Y0121515D02*
X0065339Y0121515D01*
X0065339Y0120517D02*
X0032714Y0120517D01*
X0032714Y0119518D02*
X0065339Y0119518D01*
X0065339Y0118520D02*
X0032714Y0118520D01*
X0032714Y0117521D02*
X0056237Y0117521D01*
X0056755Y0118039D02*
X0055655Y0116939D01*
X0055655Y0115383D01*
X0056755Y0114283D01*
X0058311Y0114283D01*
X0059411Y0115383D01*
X0059411Y0116939D01*
X0058311Y0118039D01*
X0056755Y0118039D01*
X0055655Y0116523D02*
X0032714Y0116523D01*
X0032714Y0115524D02*
X0055655Y0115524D01*
X0056512Y0114526D02*
X0032714Y0114526D01*
X0032714Y0113527D02*
X0065339Y0113527D01*
X0065339Y0112528D02*
X0060262Y0112528D01*
X0059811Y0112980D02*
X0058255Y0112980D01*
X0057155Y0111880D01*
X0057155Y0110324D01*
X0058255Y0109224D01*
X0059811Y0109224D01*
X0060911Y0110324D01*
X0060911Y0111880D01*
X0059811Y0112980D01*
X0060911Y0111530D02*
X0065339Y0111530D01*
X0065974Y0110531D02*
X0060911Y0110531D01*
X0060120Y0109533D02*
X0066973Y0109533D01*
X0067971Y0108534D02*
X0032714Y0108534D01*
X0032714Y0107536D02*
X0064252Y0107536D01*
X0064755Y0108039D02*
X0063655Y0106939D01*
X0063655Y0105383D01*
X0064755Y0104283D01*
X0066311Y0104283D01*
X0067411Y0105383D01*
X0067411Y0106939D01*
X0066311Y0108039D01*
X0064755Y0108039D01*
X0063655Y0106537D02*
X0032714Y0106537D01*
X0032714Y0105539D02*
X0063655Y0105539D01*
X0064498Y0104540D02*
X0032714Y0104540D01*
X0032714Y0103542D02*
X0089655Y0103542D01*
X0089655Y0103939D02*
X0089655Y0102383D01*
X0089683Y0102355D01*
X0078995Y0102355D01*
X0078311Y0103039D01*
X0076755Y0103039D01*
X0075655Y0101939D01*
X0075655Y0100383D01*
X0076755Y0099283D01*
X0078311Y0099283D01*
X0078995Y0099967D01*
X0094027Y0099967D01*
X0094726Y0100667D01*
X0095527Y0101467D01*
X0098683Y0101467D01*
X0098155Y0100939D01*
X0098155Y0099383D01*
X0099255Y0098283D01*
X0100811Y0098283D01*
X0101783Y0099255D01*
X0102755Y0098283D01*
X0104311Y0098283D01*
X0105411Y0099383D01*
X0105411Y0100939D01*
X0104882Y0101467D01*
X0105538Y0101467D01*
X0105655Y0101351D01*
X0105655Y0100383D01*
X0106755Y0099283D01*
X0108311Y0099283D01*
X0109411Y0100383D01*
X0109411Y0101939D01*
X0108311Y0103039D01*
X0107343Y0103039D01*
X0107226Y0103155D01*
X0106527Y0103855D01*
X0094538Y0103855D01*
X0093411Y0102727D01*
X0093411Y0103939D01*
X0092311Y0105039D01*
X0090755Y0105039D01*
X0089655Y0103939D01*
X0090256Y0104540D02*
X0066568Y0104540D01*
X0067411Y0105539D02*
X0105655Y0105539D01*
X0105655Y0105383D02*
X0106755Y0104283D01*
X0108311Y0104283D01*
X0109411Y0105383D01*
X0109411Y0106939D01*
X0108311Y0108039D01*
X0106755Y0108039D01*
X0105655Y0106939D01*
X0105655Y0105383D01*
X0105655Y0106537D02*
X0084065Y0106537D01*
X0084411Y0107536D02*
X0106252Y0107536D01*
X0108814Y0107536D02*
X0146752Y0107536D01*
X0146755Y0107539D02*
X0145655Y0106439D01*
X0145655Y0104883D01*
X0146755Y0103783D01*
X0148311Y0103783D01*
X0149411Y0104883D01*
X0149411Y0106439D01*
X0148311Y0107539D01*
X0146755Y0107539D01*
X0145753Y0106537D02*
X0109411Y0106537D01*
X0109411Y0105539D02*
X0145655Y0105539D01*
X0145998Y0104540D02*
X0108568Y0104540D01*
X0106840Y0103542D02*
X0120758Y0103542D01*
X0120655Y0103439D02*
X0120655Y0101883D01*
X0121755Y0100783D01*
X0123311Y0100783D01*
X0124411Y0101883D01*
X0124411Y0103439D01*
X0123311Y0104539D01*
X0121755Y0104539D01*
X0120655Y0103439D01*
X0120655Y0102543D02*
X0108806Y0102543D01*
X0109411Y0101545D02*
X0120993Y0101545D01*
X0124072Y0101545D02*
X0154352Y0101545D01*
X0154352Y0102543D02*
X0124411Y0102543D01*
X0124308Y0103542D02*
X0154352Y0103542D01*
X0154352Y0104540D02*
X0149068Y0104540D01*
X0149411Y0105539D02*
X0154352Y0105539D01*
X0154352Y0106537D02*
X0149312Y0106537D01*
X0148314Y0107536D02*
X0154352Y0107536D01*
X0154352Y0108534D02*
X0086062Y0108534D01*
X0086411Y0109533D02*
X0154352Y0109533D01*
X0154352Y0110531D02*
X0105059Y0110531D01*
X0105411Y0110883D02*
X0104311Y0109783D01*
X0102755Y0109783D01*
X0101655Y0110883D01*
X0101655Y0112439D01*
X0102755Y0113539D01*
X0104311Y0113539D01*
X0105411Y0112439D01*
X0105411Y0110883D01*
X0105411Y0111530D02*
X0154352Y0111530D01*
X0154352Y0112528D02*
X0105321Y0112528D01*
X0104323Y0113527D02*
X0128011Y0113527D01*
X0127655Y0113883D02*
X0128755Y0112783D01*
X0130311Y0112783D01*
X0131411Y0113883D01*
X0131411Y0115439D01*
X0130311Y0116539D01*
X0128755Y0116539D01*
X0127655Y0115439D01*
X0127655Y0113883D01*
X0127655Y0114526D02*
X0070553Y0114526D01*
X0071411Y0115524D02*
X0127740Y0115524D01*
X0128739Y0116523D02*
X0071411Y0116523D01*
X0070829Y0117521D02*
X0154352Y0117521D01*
X0154352Y0116523D02*
X0130327Y0116523D01*
X0131326Y0115524D02*
X0154352Y0115524D01*
X0154352Y0114526D02*
X0131411Y0114526D01*
X0131055Y0113527D02*
X0154352Y0113527D01*
X0154352Y0118520D02*
X0067726Y0118520D01*
X0067726Y0119518D02*
X0146020Y0119518D01*
X0145655Y0119883D02*
X0146755Y0118783D01*
X0148311Y0118783D01*
X0149411Y0119883D01*
X0149411Y0121439D01*
X0148311Y0122539D01*
X0146755Y0122539D01*
X0145655Y0121439D01*
X0145655Y0119883D01*
X0145655Y0120517D02*
X0067726Y0120517D01*
X0067726Y0121515D02*
X0145731Y0121515D01*
X0146730Y0122514D02*
X0068041Y0122514D01*
X0068411Y0123512D02*
X0154352Y0123512D01*
X0154352Y0122514D02*
X0148336Y0122514D01*
X0149334Y0121515D02*
X0154352Y0121515D01*
X0154352Y0120517D02*
X0149411Y0120517D01*
X0149046Y0119518D02*
X0154352Y0119518D01*
X0154352Y0124511D02*
X0068339Y0124511D01*
X0067340Y0125509D02*
X0154352Y0125509D01*
X0154352Y0134496D02*
X0087354Y0134496D01*
X0085712Y0134496D02*
X0083023Y0134496D01*
X0082811Y0134283D02*
X0083911Y0135383D01*
X0083911Y0136939D01*
X0082811Y0138039D01*
X0081255Y0138039D01*
X0080155Y0136939D01*
X0080155Y0135383D01*
X0081255Y0134283D01*
X0082811Y0134283D01*
X0083911Y0135494D02*
X0105044Y0135494D01*
X0104155Y0136493D02*
X0083911Y0136493D01*
X0083358Y0137491D02*
X0104155Y0137491D01*
X0107022Y0135494D02*
X0154352Y0135494D01*
X0154352Y0136493D02*
X0119520Y0136493D01*
X0120411Y0137491D02*
X0154352Y0137491D01*
X0154352Y0138490D02*
X0120411Y0138490D01*
X0119861Y0139488D02*
X0154352Y0139488D01*
X0154352Y0140487D02*
X0123514Y0140487D01*
X0123911Y0141485D02*
X0154352Y0141485D01*
X0154352Y0142484D02*
X0123866Y0142484D01*
X0122867Y0143482D02*
X0154352Y0143482D01*
X0154352Y0152469D02*
X0143997Y0152469D01*
X0144411Y0153467D02*
X0154352Y0153467D01*
X0154352Y0154466D02*
X0144384Y0154466D01*
X0143385Y0155464D02*
X0154352Y0155464D01*
X0154352Y0156463D02*
X0149509Y0156463D01*
X0151119Y0157462D02*
X0154352Y0157462D01*
X0154352Y0158460D02*
X0152118Y0158460D01*
X0152930Y0159459D02*
X0154352Y0159459D01*
X0154352Y0160457D02*
X0153343Y0160457D01*
X0153757Y0161456D02*
X0154352Y0161456D01*
X0154352Y0162454D02*
X0154013Y0162454D01*
X0154013Y0163453D02*
X0154352Y0163453D01*
X0154352Y0164451D02*
X0154013Y0164451D01*
X0153930Y0165450D02*
X0154352Y0165450D01*
X0154352Y0166448D02*
X0153516Y0166448D01*
X0153103Y0167447D02*
X0154352Y0167447D01*
X0154352Y0168445D02*
X0152534Y0168445D01*
X0151536Y0169444D02*
X0154352Y0169444D01*
X0154352Y0170442D02*
X0150515Y0170442D01*
X0148105Y0171441D02*
X0154352Y0171441D01*
X0143961Y0171441D02*
X0043105Y0171441D01*
X0045515Y0170442D02*
X0141550Y0170442D01*
X0140530Y0169444D02*
X0046536Y0169444D01*
X0047534Y0168445D02*
X0139531Y0168445D01*
X0138963Y0167447D02*
X0061903Y0167447D01*
X0061811Y0167539D02*
X0060255Y0167539D01*
X0059155Y0166439D01*
X0059155Y0164883D01*
X0060255Y0163783D01*
X0061811Y0163783D01*
X0062911Y0164883D01*
X0062911Y0166439D01*
X0061811Y0167539D01*
X0062901Y0166448D02*
X0138549Y0166448D01*
X0138136Y0165450D02*
X0062911Y0165450D01*
X0062479Y0164451D02*
X0138052Y0164451D01*
X0138052Y0163453D02*
X0049013Y0163453D01*
X0049013Y0164451D02*
X0059587Y0164451D01*
X0059155Y0165450D02*
X0048930Y0165450D01*
X0048516Y0166448D02*
X0059164Y0166448D01*
X0060163Y0167447D02*
X0048103Y0167447D01*
X0049013Y0162454D02*
X0138052Y0162454D01*
X0138308Y0161456D02*
X0048757Y0161456D01*
X0048343Y0160457D02*
X0138722Y0160457D01*
X0139136Y0159459D02*
X0047930Y0159459D01*
X0047118Y0158460D02*
X0139948Y0158460D01*
X0117545Y0136493D02*
X0107911Y0136493D01*
X0107911Y0137491D02*
X0116655Y0137491D01*
X0098215Y0132499D02*
X0095851Y0132499D01*
X0096849Y0131500D02*
X0097216Y0131500D01*
X0097155Y0130502D02*
X0096911Y0130502D01*
X0096531Y0129503D02*
X0097535Y0129503D01*
X0102743Y0113527D02*
X0067726Y0113527D01*
X0067726Y0112528D02*
X0101744Y0112528D01*
X0101655Y0111530D02*
X0085320Y0111530D01*
X0086318Y0110531D02*
X0102006Y0110531D01*
X0106498Y0104540D02*
X0092809Y0104540D01*
X0093411Y0103542D02*
X0094226Y0103542D01*
X0094606Y0100546D02*
X0098155Y0100546D01*
X0098155Y0099548D02*
X0078575Y0099548D01*
X0076490Y0099548D02*
X0050575Y0099548D01*
X0050311Y0099283D02*
X0051411Y0100383D01*
X0051411Y0101939D01*
X0050311Y0103039D01*
X0048755Y0103039D01*
X0047655Y0101939D01*
X0047655Y0100383D01*
X0048755Y0099283D01*
X0050311Y0099283D01*
X0051411Y0100546D02*
X0075655Y0100546D01*
X0075655Y0101545D02*
X0051411Y0101545D01*
X0050806Y0102543D02*
X0076259Y0102543D01*
X0078806Y0102543D02*
X0089655Y0102543D01*
X0084311Y0097039D02*
X0082755Y0097039D01*
X0081655Y0095939D01*
X0081655Y0094383D01*
X0082755Y0093283D01*
X0084311Y0093283D01*
X0085411Y0094383D01*
X0085411Y0095939D01*
X0084311Y0097039D01*
X0084797Y0096552D02*
X0107655Y0096552D01*
X0107655Y0096383D02*
X0108755Y0095283D01*
X0110311Y0095283D01*
X0111411Y0096383D01*
X0111411Y0097783D01*
X0112811Y0097783D01*
X0113911Y0098883D01*
X0113911Y0100439D01*
X0112811Y0101539D01*
X0111255Y0101539D01*
X0110155Y0100439D01*
X0110155Y0099039D01*
X0108755Y0099039D01*
X0107655Y0097939D01*
X0107655Y0096383D01*
X0107655Y0097551D02*
X0032714Y0097551D01*
X0032714Y0098549D02*
X0098989Y0098549D01*
X0101077Y0098549D02*
X0102489Y0098549D01*
X0104577Y0098549D02*
X0108265Y0098549D01*
X0108575Y0099548D02*
X0110155Y0099548D01*
X0110262Y0100546D02*
X0109411Y0100546D01*
X0106490Y0099548D02*
X0105411Y0099548D01*
X0105411Y0100546D02*
X0105655Y0100546D01*
X0108484Y0095554D02*
X0095828Y0095554D01*
X0097794Y0094555D02*
X0119655Y0094555D01*
X0119655Y0094383D02*
X0120755Y0093283D01*
X0122311Y0093283D01*
X0123411Y0094383D01*
X0123411Y0095939D01*
X0122311Y0097039D01*
X0120755Y0097039D01*
X0119655Y0095939D01*
X0119655Y0094383D01*
X0120481Y0093557D02*
X0097911Y0093557D01*
X0097586Y0092558D02*
X0154352Y0092558D01*
X0154352Y0091560D02*
X0095087Y0091560D01*
X0094277Y0090561D02*
X0092847Y0090561D01*
X0093411Y0089563D02*
X0093655Y0089563D01*
X0094627Y0086567D02*
X0121471Y0086567D01*
X0121755Y0086283D02*
X0123311Y0086283D01*
X0124411Y0087383D01*
X0124411Y0088939D01*
X0123311Y0090039D01*
X0121755Y0090039D01*
X0120655Y0088939D01*
X0120655Y0087383D01*
X0121755Y0086283D01*
X0120655Y0087566D02*
X0096593Y0087566D01*
X0097411Y0088564D02*
X0120655Y0088564D01*
X0121279Y0089563D02*
X0097411Y0089563D01*
X0096788Y0090561D02*
X0154352Y0090561D01*
X0154352Y0089563D02*
X0123787Y0089563D01*
X0124411Y0088564D02*
X0154352Y0088564D01*
X0154352Y0087566D02*
X0124411Y0087566D01*
X0123595Y0086567D02*
X0154352Y0086567D01*
X0154352Y0085569D02*
X0093629Y0085569D01*
X0094276Y0082573D02*
X0154352Y0082573D01*
X0154352Y0081575D02*
X0130275Y0081575D01*
X0130411Y0080576D02*
X0154352Y0080576D01*
X0154352Y0079578D02*
X0130105Y0079578D01*
X0129311Y0075539D02*
X0127755Y0075539D01*
X0126655Y0074439D01*
X0126655Y0072883D01*
X0127755Y0071783D01*
X0129311Y0071783D01*
X0130411Y0072883D01*
X0130411Y0074439D01*
X0129311Y0075539D01*
X0130265Y0074585D02*
X0154352Y0074585D01*
X0154352Y0073587D02*
X0130411Y0073587D01*
X0130116Y0072588D02*
X0154352Y0072588D01*
X0154352Y0071590D02*
X0121911Y0071590D01*
X0121911Y0072588D02*
X0126950Y0072588D01*
X0126655Y0073587D02*
X0123114Y0073587D01*
X0123411Y0074585D02*
X0126801Y0074585D01*
X0124110Y0076582D02*
X0154352Y0076582D01*
X0154352Y0075584D02*
X0123266Y0075584D01*
X0124411Y0077581D02*
X0154352Y0077581D01*
X0154352Y0078579D02*
X0124270Y0078579D01*
X0118683Y0073467D02*
X0118571Y0073355D01*
X0116527Y0073355D01*
X0113027Y0076855D01*
X0102915Y0076855D01*
X0104527Y0078467D01*
X0112038Y0078467D01*
X0116339Y0074167D01*
X0117038Y0073467D01*
X0118683Y0073467D01*
X0116919Y0073587D02*
X0116295Y0073587D01*
X0115921Y0074585D02*
X0115297Y0074585D01*
X0114922Y0075584D02*
X0114298Y0075584D01*
X0113924Y0076582D02*
X0113300Y0076582D01*
X0112925Y0077581D02*
X0103641Y0077581D01*
X0098758Y0081575D02*
X0094411Y0081575D01*
X0090789Y0082573D02*
X0083309Y0082573D01*
X0084307Y0081575D02*
X0090655Y0081575D01*
X0083651Y0078855D02*
X0079027Y0078855D01*
X0074915Y0082967D01*
X0079538Y0082967D01*
X0083339Y0079167D01*
X0083651Y0078855D01*
X0082928Y0079578D02*
X0078304Y0079578D01*
X0077306Y0080576D02*
X0081929Y0080576D01*
X0080931Y0081575D02*
X0076307Y0081575D01*
X0075309Y0082573D02*
X0079932Y0082573D01*
X0081312Y0084570D02*
X0154352Y0084570D01*
X0154352Y0083572D02*
X0082310Y0083572D01*
X0084658Y0089563D02*
X0087246Y0089563D01*
X0087477Y0090561D02*
X0085532Y0090561D01*
X0086405Y0091560D02*
X0086655Y0091560D01*
X0084980Y0093557D02*
X0084584Y0093557D01*
X0084107Y0092558D02*
X0080911Y0092558D01*
X0080793Y0093557D02*
X0082481Y0093557D01*
X0081655Y0094555D02*
X0032714Y0094555D01*
X0032714Y0093557D02*
X0060773Y0093557D01*
X0060655Y0092558D02*
X0032714Y0092558D01*
X0032714Y0091560D02*
X0057243Y0091560D01*
X0056245Y0090561D02*
X0032714Y0090561D01*
X0032714Y0089563D02*
X0055246Y0089563D01*
X0054248Y0088564D02*
X0032714Y0088564D01*
X0032714Y0087566D02*
X0044782Y0087566D01*
X0044655Y0087439D02*
X0044655Y0085883D01*
X0045755Y0084783D01*
X0047311Y0084783D01*
X0048411Y0085883D01*
X0048411Y0087439D01*
X0047311Y0088539D01*
X0045755Y0088539D01*
X0044655Y0087439D01*
X0044655Y0086567D02*
X0032714Y0086567D01*
X0032714Y0085569D02*
X0044969Y0085569D01*
X0042279Y0084570D02*
X0050254Y0084570D01*
X0051252Y0085569D02*
X0048096Y0085569D01*
X0048411Y0086567D02*
X0052251Y0086567D01*
X0053249Y0087566D02*
X0048284Y0087566D01*
X0052632Y0083572D02*
X0054655Y0083572D01*
X0054655Y0082573D02*
X0051633Y0082573D01*
X0053630Y0084570D02*
X0055286Y0084570D01*
X0054629Y0085569D02*
X0060752Y0085569D01*
X0059754Y0084570D02*
X0057779Y0084570D01*
X0058411Y0083572D02*
X0058755Y0083572D01*
X0055463Y0081575D02*
X0042102Y0081575D01*
X0039963Y0081575D02*
X0032714Y0081575D01*
X0032714Y0082573D02*
X0039155Y0082573D01*
X0039155Y0083572D02*
X0032714Y0083572D01*
X0032714Y0084570D02*
X0039786Y0084570D01*
X0045292Y0080576D02*
X0032714Y0080576D01*
X0032714Y0079578D02*
X0045155Y0079578D01*
X0045459Y0078579D02*
X0032714Y0078579D01*
X0032714Y0077581D02*
X0055764Y0077581D01*
X0057143Y0075584D02*
X0066800Y0075584D01*
X0066456Y0076582D02*
X0058142Y0076582D01*
X0059141Y0077581D02*
X0066155Y0077581D01*
X0066155Y0074585D02*
X0056145Y0074585D01*
X0060139Y0078579D02*
X0061959Y0078579D01*
X0061655Y0079578D02*
X0061138Y0079578D01*
X0066155Y0073587D02*
X0037114Y0073587D01*
X0036811Y0073283D02*
X0037911Y0074383D01*
X0037911Y0075939D01*
X0036811Y0077039D01*
X0035255Y0077039D01*
X0034155Y0075939D01*
X0034155Y0074383D01*
X0035255Y0073283D01*
X0036811Y0073283D01*
X0037911Y0074585D02*
X0042453Y0074585D01*
X0042155Y0075584D02*
X0037911Y0075584D01*
X0037267Y0076582D02*
X0042298Y0076582D01*
X0034798Y0076582D02*
X0032714Y0076582D01*
X0032714Y0075584D02*
X0034155Y0075584D01*
X0034155Y0074585D02*
X0032714Y0074585D01*
X0032714Y0073587D02*
X0034951Y0073587D01*
X0032714Y0072588D02*
X0066950Y0072588D01*
X0069116Y0072588D02*
X0078272Y0072588D01*
X0079270Y0073587D02*
X0069911Y0073587D01*
X0069911Y0074585D02*
X0075921Y0074585D01*
X0074922Y0075584D02*
X0069266Y0075584D01*
X0069610Y0076582D02*
X0073924Y0076582D01*
X0072925Y0077581D02*
X0069911Y0077581D01*
X0077273Y0071590D02*
X0032714Y0071590D01*
X0032714Y0070591D02*
X0058775Y0070591D01*
X0057776Y0069593D02*
X0032714Y0069593D01*
X0032714Y0068594D02*
X0037810Y0068594D01*
X0037655Y0067595D02*
X0032714Y0067595D01*
X0032714Y0066597D02*
X0037941Y0066597D01*
X0039907Y0065598D02*
X0032714Y0065598D01*
X0032714Y0064600D02*
X0040906Y0064600D01*
X0042285Y0066597D02*
X0042441Y0066597D01*
X0042155Y0067595D02*
X0041411Y0067595D01*
X0041256Y0068594D02*
X0042310Y0068594D01*
X0044285Y0063601D02*
X0032714Y0063601D01*
X0032714Y0062603D02*
X0043287Y0062603D01*
X0042288Y0061604D02*
X0039745Y0061604D01*
X0037320Y0061604D02*
X0032714Y0061604D01*
X0032714Y0060606D02*
X0036655Y0060606D01*
X0036655Y0059607D02*
X0032714Y0059607D01*
X0032714Y0058609D02*
X0037429Y0058609D01*
X0039636Y0058609D02*
X0047929Y0058609D01*
X0048255Y0058283D02*
X0049811Y0058283D01*
X0050911Y0059383D01*
X0050911Y0060939D01*
X0049811Y0062039D01*
X0048255Y0062039D01*
X0047155Y0060939D01*
X0047155Y0059383D01*
X0048255Y0058283D01*
X0047155Y0059607D02*
X0043667Y0059607D01*
X0044666Y0060606D02*
X0047155Y0060606D01*
X0047820Y0061604D02*
X0045664Y0061604D01*
X0050245Y0061604D02*
X0061901Y0061604D01*
X0062900Y0060606D02*
X0050911Y0060606D01*
X0050911Y0059607D02*
X0051323Y0059607D01*
X0051755Y0060039D02*
X0050655Y0058939D01*
X0050655Y0057383D01*
X0051755Y0056283D01*
X0053311Y0056283D01*
X0054411Y0057383D01*
X0054411Y0058939D01*
X0053311Y0060039D01*
X0051755Y0060039D01*
X0050655Y0058609D02*
X0050136Y0058609D01*
X0050655Y0057610D02*
X0032714Y0057610D01*
X0032714Y0056612D02*
X0051426Y0056612D01*
X0053639Y0056612D02*
X0059155Y0056612D01*
X0059155Y0056539D02*
X0057755Y0056539D01*
X0056655Y0055439D01*
X0056655Y0053883D01*
X0057755Y0052783D01*
X0059311Y0052783D01*
X0060411Y0053883D01*
X0060411Y0055283D01*
X0061811Y0055283D01*
X0062911Y0056383D01*
X0062911Y0057939D01*
X0061811Y0059039D01*
X0060255Y0059039D01*
X0059155Y0057939D01*
X0059155Y0056539D01*
X0059155Y0057610D02*
X0054411Y0057610D01*
X0054411Y0058609D02*
X0059825Y0058609D01*
X0062241Y0058609D02*
X0064155Y0058609D01*
X0063898Y0059607D02*
X0053742Y0059607D01*
X0056829Y0055613D02*
X0032714Y0055613D01*
X0032714Y0054615D02*
X0056655Y0054615D01*
X0056922Y0053616D02*
X0032714Y0053616D01*
X0032714Y0052618D02*
X0104739Y0052618D01*
X0104739Y0053616D02*
X0060144Y0053616D01*
X0060411Y0054615D02*
X0104739Y0054615D01*
X0104739Y0055613D02*
X0104641Y0055613D01*
X0102425Y0055613D02*
X0062141Y0055613D01*
X0062911Y0056612D02*
X0098252Y0056612D01*
X0097254Y0057610D02*
X0067138Y0057610D01*
X0067911Y0058609D02*
X0096255Y0058609D01*
X0095257Y0059607D02*
X0067911Y0059607D01*
X0067244Y0060606D02*
X0094739Y0060606D01*
X0094739Y0061604D02*
X0065277Y0061604D01*
X0064279Y0062603D02*
X0094739Y0062603D01*
X0094739Y0063601D02*
X0063280Y0063601D01*
X0062282Y0064600D02*
X0094739Y0064600D01*
X0094739Y0065598D02*
X0091626Y0065598D01*
X0091911Y0066597D02*
X0094739Y0066597D01*
X0094739Y0067595D02*
X0091754Y0067595D01*
X0090944Y0068594D02*
X0086654Y0068594D01*
X0087652Y0069593D02*
X0090655Y0069593D01*
X0094122Y0068594D02*
X0094444Y0068594D01*
X0097326Y0068299D02*
X0097911Y0068883D01*
X0097911Y0070439D01*
X0097882Y0070467D01*
X0110038Y0070467D01*
X0111051Y0069455D01*
X0109295Y0069455D01*
X0108611Y0070139D01*
X0107055Y0070139D01*
X0105955Y0069039D01*
X0105955Y0067483D01*
X0107055Y0066383D01*
X0108611Y0066383D01*
X0109295Y0067067D01*
X0109883Y0067067D01*
X0109855Y0067039D01*
X0109855Y0065483D01*
X0110439Y0064899D01*
X0110439Y0061410D01*
X0109811Y0062039D01*
X0108255Y0062039D01*
X0107783Y0061567D01*
X0106811Y0062539D01*
X0105255Y0062539D01*
X0104533Y0061817D01*
X0103811Y0062539D01*
X0102255Y0062539D01*
X0101155Y0061439D01*
X0101155Y0061039D01*
X0100255Y0061039D01*
X0099155Y0059939D01*
X0099155Y0059368D01*
X0097326Y0061197D01*
X0097326Y0068299D01*
X0097622Y0068594D02*
X0105955Y0068594D01*
X0105955Y0067595D02*
X0097326Y0067595D01*
X0097326Y0066597D02*
X0106841Y0066597D01*
X0108825Y0066597D02*
X0109855Y0066597D01*
X0109855Y0065598D02*
X0097326Y0065598D01*
X0097326Y0064600D02*
X0110439Y0064600D01*
X0110439Y0063601D02*
X0097326Y0063601D01*
X0097326Y0062603D02*
X0110439Y0062603D01*
X0110439Y0061604D02*
X0110245Y0061604D01*
X0107820Y0061604D02*
X0107745Y0061604D01*
X0113026Y0057610D02*
X0113328Y0057610D01*
X0113026Y0056612D02*
X0118294Y0056612D01*
X0119292Y0055613D02*
X0113026Y0055613D01*
X0113026Y0054615D02*
X0120291Y0054615D01*
X0120339Y0053616D02*
X0113026Y0053616D01*
X0113026Y0052618D02*
X0120339Y0052618D01*
X0120339Y0051619D02*
X0113026Y0051619D01*
X0113026Y0050621D02*
X0120339Y0050621D01*
X0120339Y0049622D02*
X0113026Y0049622D01*
X0113026Y0048624D02*
X0120339Y0048624D01*
X0120339Y0047625D02*
X0113026Y0047625D01*
X0113026Y0046627D02*
X0120339Y0046627D01*
X0120339Y0045628D02*
X0113026Y0045628D01*
X0113026Y0044630D02*
X0120339Y0044630D01*
X0120339Y0043631D02*
X0113026Y0043631D01*
X0113026Y0042633D02*
X0120339Y0042633D01*
X0120339Y0041634D02*
X0112836Y0041634D01*
X0111837Y0040636D02*
X0120339Y0040636D01*
X0120339Y0039637D02*
X0110839Y0039637D01*
X0113711Y0038639D02*
X0120339Y0038639D01*
X0120339Y0037640D02*
X0113911Y0037640D01*
X0113669Y0036642D02*
X0120339Y0036642D01*
X0120339Y0035643D02*
X0110880Y0035643D01*
X0111879Y0034645D02*
X0120339Y0034645D01*
X0119839Y0033646D02*
X0112877Y0033646D01*
X0113876Y0032648D02*
X0119839Y0032648D01*
X0119839Y0031649D02*
X0114874Y0031649D01*
X0116699Y0030651D02*
X0119839Y0030651D01*
X0119368Y0029652D02*
X0117411Y0029652D01*
X0117411Y0028654D02*
X0119155Y0028654D01*
X0119383Y0027655D02*
X0116683Y0027655D01*
X0114383Y0027655D02*
X0111695Y0027655D01*
X0111911Y0026657D02*
X0142089Y0026657D01*
X0141512Y0026896D02*
X0144445Y0025681D01*
X0147620Y0025681D01*
X0150553Y0026896D01*
X0152798Y0029141D01*
X0154013Y0032074D01*
X0154013Y0035248D01*
X0152798Y0038181D01*
X0150553Y0040426D01*
X0147620Y0041641D01*
X0144445Y0041641D01*
X0141512Y0040426D01*
X0139267Y0038181D01*
X0138052Y0035248D01*
X0138052Y0032074D01*
X0139267Y0029141D01*
X0141512Y0026896D01*
X0140753Y0027655D02*
X0122683Y0027655D01*
X0122911Y0028654D02*
X0139754Y0028654D01*
X0139055Y0029652D02*
X0122698Y0029652D01*
X0122226Y0030651D02*
X0138642Y0030651D01*
X0138228Y0031649D02*
X0122226Y0031649D01*
X0122226Y0032648D02*
X0138052Y0032648D01*
X0138052Y0033646D02*
X0122726Y0033646D01*
X0122726Y0034645D02*
X0138052Y0034645D01*
X0138216Y0035643D02*
X0122726Y0035643D01*
X0122726Y0036642D02*
X0138630Y0036642D01*
X0139043Y0037640D02*
X0122726Y0037640D01*
X0122726Y0038639D02*
X0139725Y0038639D01*
X0140723Y0039637D02*
X0122726Y0039637D01*
X0122726Y0040636D02*
X0142018Y0040636D01*
X0144428Y0041634D02*
X0122726Y0041634D01*
X0122726Y0042633D02*
X0154352Y0042633D01*
X0154352Y0043631D02*
X0122726Y0043631D01*
X0122726Y0044630D02*
X0154352Y0044630D01*
X0154352Y0045628D02*
X0122726Y0045628D01*
X0122726Y0046627D02*
X0154352Y0046627D01*
X0154352Y0047625D02*
X0122726Y0047625D01*
X0122726Y0048624D02*
X0154352Y0048624D01*
X0154352Y0049622D02*
X0122726Y0049622D01*
X0122726Y0050621D02*
X0154352Y0050621D01*
X0154352Y0051619D02*
X0122726Y0051619D01*
X0122726Y0052618D02*
X0154352Y0052618D01*
X0154352Y0053616D02*
X0122726Y0053616D01*
X0122726Y0054615D02*
X0154352Y0054615D01*
X0154352Y0055613D02*
X0122669Y0055613D01*
X0122027Y0056255D02*
X0122027Y0056255D01*
X0121670Y0056612D02*
X0154352Y0056612D01*
X0154352Y0057610D02*
X0120672Y0057610D01*
X0119673Y0058609D02*
X0154352Y0058609D01*
X0154352Y0059607D02*
X0118674Y0059607D01*
X0117676Y0060606D02*
X0154352Y0060606D01*
X0154352Y0061604D02*
X0125632Y0061604D01*
X0125311Y0061283D02*
X0126411Y0062383D01*
X0126411Y0063939D01*
X0125311Y0065039D01*
X0123755Y0065039D01*
X0122655Y0063939D01*
X0122655Y0062383D01*
X0123755Y0061283D01*
X0125311Y0061283D01*
X0126411Y0062603D02*
X0154352Y0062603D01*
X0154352Y0063601D02*
X0126411Y0063601D01*
X0125750Y0064600D02*
X0154352Y0064600D01*
X0154352Y0065598D02*
X0130126Y0065598D01*
X0130411Y0065883D02*
X0129311Y0064783D01*
X0127755Y0064783D01*
X0126655Y0065883D01*
X0126655Y0067439D01*
X0127755Y0068539D01*
X0129311Y0068539D01*
X0130411Y0067439D01*
X0130411Y0065883D01*
X0130411Y0066597D02*
X0154352Y0066597D01*
X0154352Y0067595D02*
X0130254Y0067595D01*
X0126811Y0067595D02*
X0117254Y0067595D01*
X0117811Y0066597D02*
X0126655Y0066597D01*
X0126939Y0065598D02*
X0117811Y0065598D01*
X0117750Y0064600D02*
X0123316Y0064600D01*
X0122655Y0063601D02*
X0118748Y0063601D01*
X0118811Y0062603D02*
X0122655Y0062603D01*
X0123434Y0061604D02*
X0118432Y0061604D01*
X0116297Y0058609D02*
X0115936Y0058609D01*
X0114938Y0057610D02*
X0117295Y0057610D01*
X0117811Y0068594D02*
X0154352Y0068594D01*
X0154352Y0069593D02*
X0117811Y0069593D01*
X0117359Y0070591D02*
X0118947Y0070591D01*
X0121119Y0070591D02*
X0154352Y0070591D01*
X0154352Y0093557D02*
X0129584Y0093557D01*
X0129311Y0093283D02*
X0130411Y0094383D01*
X0130411Y0095939D01*
X0129311Y0097039D01*
X0127755Y0097039D01*
X0126655Y0095939D01*
X0126655Y0094383D01*
X0127755Y0093283D01*
X0129311Y0093283D01*
X0130411Y0094555D02*
X0154352Y0094555D01*
X0154352Y0095554D02*
X0130411Y0095554D01*
X0129797Y0096552D02*
X0154352Y0096552D01*
X0154352Y0097551D02*
X0111411Y0097551D01*
X0111411Y0096552D02*
X0120268Y0096552D01*
X0119655Y0095554D02*
X0110581Y0095554D01*
X0113577Y0098549D02*
X0137489Y0098549D01*
X0137155Y0098883D02*
X0138255Y0097783D01*
X0139811Y0097783D01*
X0140911Y0098883D01*
X0140911Y0100439D01*
X0139811Y0101539D01*
X0138255Y0101539D01*
X0137155Y0100439D01*
X0137155Y0098883D01*
X0137155Y0099548D02*
X0113911Y0099548D01*
X0113803Y0100546D02*
X0137262Y0100546D01*
X0140803Y0100546D02*
X0154352Y0100546D01*
X0154352Y0099548D02*
X0140911Y0099548D01*
X0140577Y0098549D02*
X0154352Y0098549D01*
X0127268Y0096552D02*
X0122797Y0096552D01*
X0123411Y0095554D02*
X0126655Y0095554D01*
X0126655Y0094555D02*
X0123411Y0094555D01*
X0122584Y0093557D02*
X0127481Y0093557D01*
X0110913Y0069593D02*
X0109157Y0069593D01*
X0106508Y0069593D02*
X0097911Y0069593D01*
X0097326Y0061604D02*
X0101320Y0061604D01*
X0099822Y0060606D02*
X0097917Y0060606D01*
X0098916Y0059607D02*
X0099155Y0059607D01*
X0104739Y0051619D02*
X0032714Y0051619D01*
X0032714Y0050621D02*
X0104739Y0050621D01*
X0104739Y0049622D02*
X0032714Y0049622D01*
X0032714Y0048624D02*
X0104739Y0048624D01*
X0104739Y0047625D02*
X0032714Y0047625D01*
X0032714Y0046627D02*
X0104739Y0046627D01*
X0104739Y0045628D02*
X0032714Y0045628D01*
X0032714Y0044630D02*
X0104739Y0044630D01*
X0104173Y0043631D02*
X0032714Y0043631D01*
X0032714Y0042633D02*
X0103175Y0042633D01*
X0101350Y0041634D02*
X0042637Y0041634D01*
X0042620Y0041641D02*
X0039445Y0041641D01*
X0036512Y0040426D01*
X0034267Y0038181D01*
X0033052Y0035248D01*
X0033052Y0032074D01*
X0034267Y0029141D01*
X0036512Y0026896D01*
X0039445Y0025681D01*
X0042620Y0025681D01*
X0045553Y0026896D01*
X0047798Y0029141D01*
X0049013Y0032074D01*
X0049013Y0035248D01*
X0047798Y0038181D01*
X0045553Y0040426D01*
X0042620Y0041641D01*
X0045048Y0040636D02*
X0073352Y0040636D01*
X0073755Y0041039D02*
X0072655Y0039939D01*
X0072655Y0038383D01*
X0073755Y0037283D01*
X0075311Y0037283D01*
X0076411Y0038383D01*
X0076411Y0039939D01*
X0075311Y0041039D01*
X0073755Y0041039D01*
X0072655Y0039637D02*
X0046342Y0039637D01*
X0047341Y0038639D02*
X0072655Y0038639D01*
X0073398Y0037640D02*
X0048022Y0037640D01*
X0048436Y0036642D02*
X0091655Y0036642D01*
X0091655Y0036383D02*
X0092755Y0035283D01*
X0094311Y0035283D01*
X0095411Y0036383D01*
X0095411Y0037939D01*
X0094311Y0039039D01*
X0092755Y0039039D01*
X0091655Y0037939D01*
X0091655Y0036383D01*
X0092395Y0035643D02*
X0048850Y0035643D01*
X0049013Y0034645D02*
X0104739Y0034645D01*
X0104739Y0035643D02*
X0104671Y0035643D01*
X0104739Y0033646D02*
X0049013Y0033646D01*
X0049013Y0032648D02*
X0104739Y0032648D01*
X0104739Y0031649D02*
X0048837Y0031649D01*
X0048424Y0030651D02*
X0104739Y0030651D01*
X0104739Y0029652D02*
X0089198Y0029652D01*
X0088811Y0030039D02*
X0089911Y0028939D01*
X0089911Y0027383D01*
X0088811Y0026283D01*
X0087255Y0026283D01*
X0086155Y0027383D01*
X0086155Y0028939D01*
X0087255Y0030039D01*
X0088811Y0030039D01*
X0089911Y0028654D02*
X0104739Y0028654D01*
X0104739Y0027655D02*
X0089911Y0027655D01*
X0089184Y0026657D02*
X0105708Y0026657D01*
X0106706Y0025658D02*
X0032714Y0025658D01*
X0032714Y0026657D02*
X0037089Y0026657D01*
X0035753Y0027655D02*
X0032714Y0027655D01*
X0032714Y0028654D02*
X0034754Y0028654D01*
X0034055Y0029652D02*
X0032714Y0029652D01*
X0032714Y0030651D02*
X0033642Y0030651D01*
X0033228Y0031649D02*
X0032714Y0031649D01*
X0032714Y0032648D02*
X0033052Y0032648D01*
X0033052Y0033646D02*
X0032714Y0033646D01*
X0032714Y0034645D02*
X0033052Y0034645D01*
X0033216Y0035643D02*
X0032714Y0035643D01*
X0032714Y0036642D02*
X0033630Y0036642D01*
X0034043Y0037640D02*
X0032714Y0037640D01*
X0032714Y0038639D02*
X0034725Y0038639D01*
X0035723Y0039637D02*
X0032714Y0039637D01*
X0032714Y0040636D02*
X0037018Y0040636D01*
X0039428Y0041634D02*
X0032714Y0041634D01*
X0044976Y0026657D02*
X0086881Y0026657D01*
X0086155Y0027655D02*
X0046313Y0027655D01*
X0047311Y0028654D02*
X0086155Y0028654D01*
X0086868Y0029652D02*
X0048010Y0029652D01*
X0062911Y0057610D02*
X0064928Y0057610D01*
X0075714Y0040636D02*
X0101155Y0040636D01*
X0101401Y0039637D02*
X0076411Y0039637D01*
X0076411Y0038639D02*
X0092355Y0038639D01*
X0091655Y0037640D02*
X0075668Y0037640D01*
X0094711Y0038639D02*
X0102355Y0038639D01*
X0101655Y0037640D02*
X0095411Y0037640D01*
X0095411Y0036642D02*
X0101655Y0036642D01*
X0102395Y0035643D02*
X0094671Y0035643D01*
X0107326Y0035643D02*
X0108239Y0035643D01*
X0108239Y0034645D02*
X0107326Y0034645D01*
X0107326Y0033646D02*
X0109218Y0033646D01*
X0110217Y0032648D02*
X0107326Y0032648D01*
X0107326Y0031649D02*
X0111215Y0031649D01*
X0112214Y0030651D02*
X0107326Y0030651D01*
X0107326Y0029652D02*
X0113212Y0029652D01*
X0113655Y0028654D02*
X0107370Y0028654D01*
X0111686Y0025658D02*
X0154352Y0025658D01*
X0154352Y0026657D02*
X0149976Y0026657D01*
X0151313Y0027655D02*
X0154352Y0027655D01*
X0154352Y0028654D02*
X0152311Y0028654D01*
X0153010Y0029652D02*
X0154352Y0029652D01*
X0154352Y0030651D02*
X0153424Y0030651D01*
X0153837Y0031649D02*
X0154352Y0031649D01*
X0154352Y0032648D02*
X0154013Y0032648D01*
X0154013Y0033646D02*
X0154352Y0033646D01*
X0154352Y0034645D02*
X0154013Y0034645D01*
X0153850Y0035643D02*
X0154352Y0035643D01*
X0154352Y0036642D02*
X0153436Y0036642D01*
X0153022Y0037640D02*
X0154352Y0037640D01*
X0154352Y0038639D02*
X0152341Y0038639D01*
X0151342Y0039637D02*
X0154352Y0039637D01*
X0154352Y0040636D02*
X0150048Y0040636D01*
X0147637Y0041634D02*
X0154352Y0041634D01*
X0108239Y0039637D02*
X0107839Y0039637D01*
X0108239Y0038639D02*
X0107326Y0038639D01*
X0107326Y0037640D02*
X0108239Y0037640D01*
X0108239Y0036642D02*
X0107326Y0036642D01*
X0085439Y0065598D02*
X0083658Y0065598D01*
X0084657Y0066597D02*
X0085155Y0066597D01*
X0063748Y0088564D02*
X0057624Y0088564D01*
X0056626Y0087566D02*
X0062749Y0087566D01*
X0061751Y0086567D02*
X0055627Y0086567D01*
X0064293Y0093557D02*
X0065273Y0093557D01*
X0065155Y0092558D02*
X0064411Y0092558D01*
X0068793Y0093557D02*
X0077273Y0093557D01*
X0077155Y0092558D02*
X0068911Y0092558D01*
X0067411Y0106537D02*
X0076001Y0106537D01*
X0075655Y0107536D02*
X0066814Y0107536D01*
X0068352Y0111530D02*
X0083746Y0111530D01*
X0080655Y0107536D02*
X0079411Y0107536D01*
X0079065Y0106537D02*
X0081001Y0106537D01*
X0082268Y0096552D02*
X0032714Y0096552D01*
X0032714Y0095554D02*
X0081655Y0095554D01*
X0085411Y0095554D02*
X0086728Y0095554D01*
X0085854Y0094555D02*
X0085411Y0094555D01*
X0068512Y0114526D02*
X0067726Y0114526D01*
X0067726Y0117521D02*
X0068237Y0117521D01*
X0065339Y0117521D02*
X0058829Y0117521D01*
X0059411Y0116523D02*
X0065339Y0116523D01*
X0065339Y0115524D02*
X0059411Y0115524D01*
X0058553Y0114526D02*
X0065339Y0114526D01*
X0057804Y0112528D02*
X0032714Y0112528D01*
X0032714Y0111530D02*
X0057155Y0111530D01*
X0057155Y0110531D02*
X0032714Y0110531D01*
X0032714Y0109533D02*
X0057946Y0109533D01*
X0048259Y0102543D02*
X0032714Y0102543D01*
X0032714Y0101545D02*
X0047655Y0101545D01*
X0047655Y0100546D02*
X0032714Y0100546D01*
X0032714Y0099548D02*
X0048490Y0099548D01*
X0069023Y0134496D02*
X0081042Y0134496D01*
X0080155Y0135494D02*
X0069911Y0135494D01*
X0069911Y0136493D02*
X0080155Y0136493D01*
X0080707Y0137491D02*
X0069358Y0137491D01*
D12*
X0068033Y0136161D03*
X0060033Y0131161D03*
X0066533Y0123661D03*
X0072533Y0120661D03*
X0069533Y0116161D03*
X0077533Y0107661D03*
X0082533Y0107661D03*
X0084533Y0109661D03*
X0091533Y0103161D03*
X0100033Y0100161D03*
X0103533Y0100161D03*
X0107533Y0101161D03*
X0109533Y0097161D03*
X0112033Y0099661D03*
X0107533Y0106161D03*
X0108033Y0111661D03*
X0103533Y0111661D03*
X0100033Y0109161D03*
X0113533Y0120161D03*
X0122033Y0111661D03*
X0129533Y0114661D03*
X0122533Y0102661D03*
X0121533Y0095161D03*
X0128533Y0095161D03*
X0133533Y0095161D03*
X0139033Y0099661D03*
X0147533Y0105661D03*
X0152033Y0098661D03*
X0151033Y0114661D03*
X0147533Y0120661D03*
X0151033Y0130161D03*
X0143033Y0141161D03*
X0137033Y0151161D03*
X0142533Y0153661D03*
X0147033Y0153661D03*
X0125033Y0148661D03*
X0122033Y0141661D03*
X0118533Y0138161D03*
X0122033Y0132661D03*
X0106033Y0137161D03*
X0105533Y0141661D03*
X0103033Y0145661D03*
X0105533Y0148661D03*
X0105533Y0155161D03*
X0093533Y0143661D03*
X0086533Y0132661D03*
X0090033Y0130661D03*
X0095033Y0130661D03*
X0099033Y0130661D03*
X0082033Y0136161D03*
X0082033Y0143661D03*
X0077033Y0160161D03*
X0077533Y0168661D03*
X0082533Y0168661D03*
X0087533Y0168661D03*
X0092533Y0168661D03*
X0097533Y0168661D03*
X0102533Y0168661D03*
X0107533Y0168661D03*
X0112533Y0168661D03*
X0117533Y0163661D03*
X0077033Y0127161D03*
X0059033Y0111102D03*
X0057533Y0116161D03*
X0065533Y0106161D03*
X0067033Y0092661D03*
X0062533Y0092661D03*
X0068033Y0084161D03*
X0065533Y0082161D03*
X0063533Y0079661D03*
X0068033Y0077661D03*
X0068033Y0074161D03*
X0079033Y0081661D03*
X0086033Y0082661D03*
X0092533Y0081661D03*
X0091533Y0089220D03*
X0093533Y0092661D03*
X0096033Y0093661D03*
X0095533Y0089161D03*
X0088533Y0092161D03*
X0083533Y0095161D03*
X0079033Y0092661D03*
X0077533Y0101161D03*
X0056533Y0083161D03*
X0047033Y0079661D03*
X0044033Y0075661D03*
X0044033Y0067661D03*
X0039533Y0067661D03*
X0038533Y0060161D03*
X0036033Y0052161D03*
X0049033Y0060161D03*
X0052533Y0058161D03*
X0058533Y0054661D03*
X0061033Y0057161D03*
X0066033Y0059161D03*
X0068533Y0055161D03*
X0073533Y0060161D03*
X0083033Y0071161D03*
X0087033Y0066661D03*
X0090033Y0066661D03*
X0092533Y0069661D03*
X0096033Y0069661D03*
X0098533Y0062161D03*
X0101033Y0059161D03*
X0103033Y0060661D03*
X0106033Y0060661D03*
X0109033Y0060161D03*
X0114133Y0059461D03*
X0116933Y0062761D03*
X0115933Y0066261D03*
X0115933Y0069361D03*
X0120033Y0072161D03*
X0121533Y0074661D03*
X0122533Y0077661D03*
X0125533Y0080661D03*
X0128533Y0080661D03*
X0128533Y0073661D03*
X0128533Y0066661D03*
X0124533Y0063161D03*
X0119033Y0049161D03*
X0119033Y0038161D03*
X0112033Y0037661D03*
X0115533Y0029161D03*
X0121033Y0028661D03*
X0110033Y0026661D03*
X0103533Y0037161D03*
X0103033Y0040661D03*
X0098533Y0037161D03*
X0093533Y0037161D03*
X0086533Y0037161D03*
X0082533Y0030161D03*
X0088033Y0028161D03*
X0074533Y0039161D03*
X0072033Y0042661D03*
X0071033Y0027661D03*
X0053533Y0045161D03*
X0056033Y0071161D03*
X0046533Y0086661D03*
X0046533Y0091661D03*
X0041033Y0087161D03*
X0041033Y0083161D03*
X0036033Y0075161D03*
X0049533Y0101161D03*
X0042033Y0116161D03*
X0041033Y0148661D03*
X0058533Y0157661D03*
X0061033Y0165661D03*
X0072533Y0168661D03*
X0108533Y0089661D03*
X0108533Y0083661D03*
X0102533Y0083661D03*
X0108533Y0077661D03*
X0114533Y0083661D03*
X0122533Y0088161D03*
X0136533Y0080161D03*
X0136533Y0073661D03*
X0133033Y0049161D03*
X0133033Y0038161D03*
X0150533Y0047661D03*
X0111733Y0066261D03*
X0107833Y0068261D03*
X0103533Y0057161D03*
X0084533Y0061161D03*
D13*
X0082533Y0066161D02*
X0088033Y0071661D01*
X0110533Y0071661D01*
X0115933Y0066261D01*
X0113633Y0067061D02*
X0113633Y0062961D01*
X0121533Y0055061D01*
X0121533Y0033661D01*
X0121033Y0033161D01*
X0121033Y0028661D01*
X0113633Y0067061D02*
X0112433Y0068261D01*
X0107833Y0068261D01*
X0112133Y0073161D02*
X0115933Y0069361D01*
X0116033Y0072161D02*
X0120033Y0072161D01*
X0121533Y0074661D02*
X0117533Y0074661D01*
X0112533Y0079661D01*
X0104033Y0079661D01*
X0102033Y0077661D01*
X0078533Y0077661D01*
X0074033Y0082161D01*
X0065533Y0082161D01*
X0068033Y0084161D02*
X0080033Y0084161D01*
X0084533Y0079661D01*
X0098533Y0079661D01*
X0100033Y0081161D01*
X0115533Y0081161D01*
X0116033Y0080661D01*
X0125533Y0080661D01*
X0116033Y0072161D02*
X0112533Y0075661D01*
X0076533Y0075661D01*
X0072533Y0079661D01*
X0063533Y0079661D01*
X0066033Y0086161D02*
X0055533Y0075661D01*
X0044033Y0075661D01*
X0047033Y0079661D02*
X0056533Y0079661D01*
X0065033Y0088161D01*
X0087533Y0088161D01*
X0092033Y0092661D01*
X0093533Y0092661D01*
X0095033Y0094661D02*
X0087533Y0094661D01*
X0084033Y0090661D01*
X0058033Y0090661D01*
X0050533Y0083161D01*
X0041033Y0083161D01*
X0039533Y0067661D02*
X0042033Y0065161D01*
X0058533Y0065161D01*
X0059533Y0066161D01*
X0082533Y0066161D01*
X0077033Y0069661D02*
X0080533Y0073161D01*
X0112133Y0073161D01*
X0095533Y0089161D02*
X0092533Y0086161D01*
X0066033Y0086161D01*
X0077533Y0101161D02*
X0093533Y0101161D01*
X0095033Y0102661D01*
X0106033Y0102661D01*
X0107533Y0101161D01*
X0096033Y0093661D02*
X0095033Y0094661D01*
X0084533Y0109661D02*
X0068533Y0109661D01*
X0066533Y0111661D01*
X0066533Y0123661D01*
X0059533Y0069661D02*
X0077033Y0069661D01*
X0066033Y0059161D02*
X0061533Y0063661D01*
X0046033Y0063661D01*
X0042533Y0060161D01*
X0038533Y0060161D01*
X0044033Y0067661D02*
X0057533Y0067661D01*
X0059533Y0069661D01*
D14*
X0096033Y0069661D02*
X0096033Y0060661D01*
X0099533Y0057161D01*
X0103533Y0057161D01*
X0106033Y0060661D02*
X0106033Y0043661D01*
X0103033Y0040661D01*
X0106033Y0039661D02*
X0109033Y0042661D01*
X0109033Y0060161D01*
X0111733Y0066261D02*
X0111733Y0042361D01*
X0109533Y0040161D01*
X0109533Y0035161D01*
X0115533Y0029161D01*
X0110033Y0026661D02*
X0107533Y0026661D01*
X0106033Y0028161D01*
X0106033Y0039661D01*
M02*
