G75*
%MOIN*%
%OFA0B0*%
%FSLAX25Y25*%
%IPPOS*%
%LPD*%
%AMOC8*
5,1,8,0,0,1.08239X$1,22.5*
%
%ADD10C,0.00000*%
%ADD11R,0.03307X0.01969*%
%ADD12R,0.01969X0.03307*%
%ADD13R,0.02559X0.04331*%
%ADD14R,0.02559X0.02559*%
%ADD15R,0.04331X0.02559*%
%ADD16C,0.00433*%
%ADD17C,0.00520*%
%ADD18R,0.03543X0.03543*%
%ADD19R,0.04605X0.04605*%
%ADD20R,0.04605X0.04617*%
%ADD21R,0.04607X0.04607*%
%ADD22R,0.04613X0.04605*%
%ADD23C,0.00197*%
%ADD24R,0.02362X0.08661*%
%ADD25R,0.03937X0.02165*%
%ADD26R,0.02165X0.03937*%
%ADD27R,0.04331X0.03937*%
%ADD28R,0.02756X0.03543*%
%ADD29R,0.03543X0.02756*%
%ADD30R,0.03937X0.04331*%
%ADD31R,0.04724X0.05906*%
%ADD32R,0.03150X0.03150*%
%ADD33R,0.10723X0.08476*%
%ADD34C,0.01213*%
%ADD35R,0.03150X0.03543*%
%ADD36R,0.01181X0.03898*%
%ADD37R,0.05906X0.04724*%
%ADD38R,0.03937X0.03937*%
D10*
X0031033Y0023661D02*
X0031033Y0173661D01*
X0156033Y0173661D01*
X0156033Y0023661D01*
X0031033Y0023661D01*
X0034734Y0033661D02*
X0034736Y0033819D01*
X0034742Y0033977D01*
X0034752Y0034135D01*
X0034766Y0034293D01*
X0034784Y0034450D01*
X0034805Y0034607D01*
X0034831Y0034763D01*
X0034861Y0034919D01*
X0034894Y0035074D01*
X0034932Y0035227D01*
X0034973Y0035380D01*
X0035018Y0035532D01*
X0035067Y0035683D01*
X0035120Y0035832D01*
X0035176Y0035980D01*
X0035236Y0036126D01*
X0035300Y0036271D01*
X0035368Y0036414D01*
X0035439Y0036556D01*
X0035513Y0036696D01*
X0035591Y0036833D01*
X0035673Y0036969D01*
X0035757Y0037103D01*
X0035846Y0037234D01*
X0035937Y0037363D01*
X0036032Y0037490D01*
X0036129Y0037615D01*
X0036230Y0037737D01*
X0036334Y0037856D01*
X0036441Y0037973D01*
X0036551Y0038087D01*
X0036664Y0038198D01*
X0036779Y0038307D01*
X0036897Y0038412D01*
X0037018Y0038514D01*
X0037141Y0038614D01*
X0037267Y0038710D01*
X0037395Y0038803D01*
X0037525Y0038893D01*
X0037658Y0038979D01*
X0037793Y0039063D01*
X0037929Y0039142D01*
X0038068Y0039219D01*
X0038209Y0039291D01*
X0038351Y0039361D01*
X0038495Y0039426D01*
X0038641Y0039488D01*
X0038788Y0039546D01*
X0038937Y0039601D01*
X0039087Y0039652D01*
X0039238Y0039699D01*
X0039390Y0039742D01*
X0039543Y0039781D01*
X0039698Y0039817D01*
X0039853Y0039848D01*
X0040009Y0039876D01*
X0040165Y0039900D01*
X0040322Y0039920D01*
X0040480Y0039936D01*
X0040637Y0039948D01*
X0040796Y0039956D01*
X0040954Y0039960D01*
X0041112Y0039960D01*
X0041270Y0039956D01*
X0041429Y0039948D01*
X0041586Y0039936D01*
X0041744Y0039920D01*
X0041901Y0039900D01*
X0042057Y0039876D01*
X0042213Y0039848D01*
X0042368Y0039817D01*
X0042523Y0039781D01*
X0042676Y0039742D01*
X0042828Y0039699D01*
X0042979Y0039652D01*
X0043129Y0039601D01*
X0043278Y0039546D01*
X0043425Y0039488D01*
X0043571Y0039426D01*
X0043715Y0039361D01*
X0043857Y0039291D01*
X0043998Y0039219D01*
X0044137Y0039142D01*
X0044273Y0039063D01*
X0044408Y0038979D01*
X0044541Y0038893D01*
X0044671Y0038803D01*
X0044799Y0038710D01*
X0044925Y0038614D01*
X0045048Y0038514D01*
X0045169Y0038412D01*
X0045287Y0038307D01*
X0045402Y0038198D01*
X0045515Y0038087D01*
X0045625Y0037973D01*
X0045732Y0037856D01*
X0045836Y0037737D01*
X0045937Y0037615D01*
X0046034Y0037490D01*
X0046129Y0037363D01*
X0046220Y0037234D01*
X0046309Y0037103D01*
X0046393Y0036969D01*
X0046475Y0036833D01*
X0046553Y0036696D01*
X0046627Y0036556D01*
X0046698Y0036414D01*
X0046766Y0036271D01*
X0046830Y0036126D01*
X0046890Y0035980D01*
X0046946Y0035832D01*
X0046999Y0035683D01*
X0047048Y0035532D01*
X0047093Y0035380D01*
X0047134Y0035227D01*
X0047172Y0035074D01*
X0047205Y0034919D01*
X0047235Y0034763D01*
X0047261Y0034607D01*
X0047282Y0034450D01*
X0047300Y0034293D01*
X0047314Y0034135D01*
X0047324Y0033977D01*
X0047330Y0033819D01*
X0047332Y0033661D01*
X0047330Y0033503D01*
X0047324Y0033345D01*
X0047314Y0033187D01*
X0047300Y0033029D01*
X0047282Y0032872D01*
X0047261Y0032715D01*
X0047235Y0032559D01*
X0047205Y0032403D01*
X0047172Y0032248D01*
X0047134Y0032095D01*
X0047093Y0031942D01*
X0047048Y0031790D01*
X0046999Y0031639D01*
X0046946Y0031490D01*
X0046890Y0031342D01*
X0046830Y0031196D01*
X0046766Y0031051D01*
X0046698Y0030908D01*
X0046627Y0030766D01*
X0046553Y0030626D01*
X0046475Y0030489D01*
X0046393Y0030353D01*
X0046309Y0030219D01*
X0046220Y0030088D01*
X0046129Y0029959D01*
X0046034Y0029832D01*
X0045937Y0029707D01*
X0045836Y0029585D01*
X0045732Y0029466D01*
X0045625Y0029349D01*
X0045515Y0029235D01*
X0045402Y0029124D01*
X0045287Y0029015D01*
X0045169Y0028910D01*
X0045048Y0028808D01*
X0044925Y0028708D01*
X0044799Y0028612D01*
X0044671Y0028519D01*
X0044541Y0028429D01*
X0044408Y0028343D01*
X0044273Y0028259D01*
X0044137Y0028180D01*
X0043998Y0028103D01*
X0043857Y0028031D01*
X0043715Y0027961D01*
X0043571Y0027896D01*
X0043425Y0027834D01*
X0043278Y0027776D01*
X0043129Y0027721D01*
X0042979Y0027670D01*
X0042828Y0027623D01*
X0042676Y0027580D01*
X0042523Y0027541D01*
X0042368Y0027505D01*
X0042213Y0027474D01*
X0042057Y0027446D01*
X0041901Y0027422D01*
X0041744Y0027402D01*
X0041586Y0027386D01*
X0041429Y0027374D01*
X0041270Y0027366D01*
X0041112Y0027362D01*
X0040954Y0027362D01*
X0040796Y0027366D01*
X0040637Y0027374D01*
X0040480Y0027386D01*
X0040322Y0027402D01*
X0040165Y0027422D01*
X0040009Y0027446D01*
X0039853Y0027474D01*
X0039698Y0027505D01*
X0039543Y0027541D01*
X0039390Y0027580D01*
X0039238Y0027623D01*
X0039087Y0027670D01*
X0038937Y0027721D01*
X0038788Y0027776D01*
X0038641Y0027834D01*
X0038495Y0027896D01*
X0038351Y0027961D01*
X0038209Y0028031D01*
X0038068Y0028103D01*
X0037929Y0028180D01*
X0037793Y0028259D01*
X0037658Y0028343D01*
X0037525Y0028429D01*
X0037395Y0028519D01*
X0037267Y0028612D01*
X0037141Y0028708D01*
X0037018Y0028808D01*
X0036897Y0028910D01*
X0036779Y0029015D01*
X0036664Y0029124D01*
X0036551Y0029235D01*
X0036441Y0029349D01*
X0036334Y0029466D01*
X0036230Y0029585D01*
X0036129Y0029707D01*
X0036032Y0029832D01*
X0035937Y0029959D01*
X0035846Y0030088D01*
X0035757Y0030219D01*
X0035673Y0030353D01*
X0035591Y0030489D01*
X0035513Y0030626D01*
X0035439Y0030766D01*
X0035368Y0030908D01*
X0035300Y0031051D01*
X0035236Y0031196D01*
X0035176Y0031342D01*
X0035120Y0031490D01*
X0035067Y0031639D01*
X0035018Y0031790D01*
X0034973Y0031942D01*
X0034932Y0032095D01*
X0034894Y0032248D01*
X0034861Y0032403D01*
X0034831Y0032559D01*
X0034805Y0032715D01*
X0034784Y0032872D01*
X0034766Y0033029D01*
X0034752Y0033187D01*
X0034742Y0033345D01*
X0034736Y0033503D01*
X0034734Y0033661D01*
X0139734Y0033661D02*
X0139736Y0033819D01*
X0139742Y0033977D01*
X0139752Y0034135D01*
X0139766Y0034293D01*
X0139784Y0034450D01*
X0139805Y0034607D01*
X0139831Y0034763D01*
X0139861Y0034919D01*
X0139894Y0035074D01*
X0139932Y0035227D01*
X0139973Y0035380D01*
X0140018Y0035532D01*
X0140067Y0035683D01*
X0140120Y0035832D01*
X0140176Y0035980D01*
X0140236Y0036126D01*
X0140300Y0036271D01*
X0140368Y0036414D01*
X0140439Y0036556D01*
X0140513Y0036696D01*
X0140591Y0036833D01*
X0140673Y0036969D01*
X0140757Y0037103D01*
X0140846Y0037234D01*
X0140937Y0037363D01*
X0141032Y0037490D01*
X0141129Y0037615D01*
X0141230Y0037737D01*
X0141334Y0037856D01*
X0141441Y0037973D01*
X0141551Y0038087D01*
X0141664Y0038198D01*
X0141779Y0038307D01*
X0141897Y0038412D01*
X0142018Y0038514D01*
X0142141Y0038614D01*
X0142267Y0038710D01*
X0142395Y0038803D01*
X0142525Y0038893D01*
X0142658Y0038979D01*
X0142793Y0039063D01*
X0142929Y0039142D01*
X0143068Y0039219D01*
X0143209Y0039291D01*
X0143351Y0039361D01*
X0143495Y0039426D01*
X0143641Y0039488D01*
X0143788Y0039546D01*
X0143937Y0039601D01*
X0144087Y0039652D01*
X0144238Y0039699D01*
X0144390Y0039742D01*
X0144543Y0039781D01*
X0144698Y0039817D01*
X0144853Y0039848D01*
X0145009Y0039876D01*
X0145165Y0039900D01*
X0145322Y0039920D01*
X0145480Y0039936D01*
X0145637Y0039948D01*
X0145796Y0039956D01*
X0145954Y0039960D01*
X0146112Y0039960D01*
X0146270Y0039956D01*
X0146429Y0039948D01*
X0146586Y0039936D01*
X0146744Y0039920D01*
X0146901Y0039900D01*
X0147057Y0039876D01*
X0147213Y0039848D01*
X0147368Y0039817D01*
X0147523Y0039781D01*
X0147676Y0039742D01*
X0147828Y0039699D01*
X0147979Y0039652D01*
X0148129Y0039601D01*
X0148278Y0039546D01*
X0148425Y0039488D01*
X0148571Y0039426D01*
X0148715Y0039361D01*
X0148857Y0039291D01*
X0148998Y0039219D01*
X0149137Y0039142D01*
X0149273Y0039063D01*
X0149408Y0038979D01*
X0149541Y0038893D01*
X0149671Y0038803D01*
X0149799Y0038710D01*
X0149925Y0038614D01*
X0150048Y0038514D01*
X0150169Y0038412D01*
X0150287Y0038307D01*
X0150402Y0038198D01*
X0150515Y0038087D01*
X0150625Y0037973D01*
X0150732Y0037856D01*
X0150836Y0037737D01*
X0150937Y0037615D01*
X0151034Y0037490D01*
X0151129Y0037363D01*
X0151220Y0037234D01*
X0151309Y0037103D01*
X0151393Y0036969D01*
X0151475Y0036833D01*
X0151553Y0036696D01*
X0151627Y0036556D01*
X0151698Y0036414D01*
X0151766Y0036271D01*
X0151830Y0036126D01*
X0151890Y0035980D01*
X0151946Y0035832D01*
X0151999Y0035683D01*
X0152048Y0035532D01*
X0152093Y0035380D01*
X0152134Y0035227D01*
X0152172Y0035074D01*
X0152205Y0034919D01*
X0152235Y0034763D01*
X0152261Y0034607D01*
X0152282Y0034450D01*
X0152300Y0034293D01*
X0152314Y0034135D01*
X0152324Y0033977D01*
X0152330Y0033819D01*
X0152332Y0033661D01*
X0152330Y0033503D01*
X0152324Y0033345D01*
X0152314Y0033187D01*
X0152300Y0033029D01*
X0152282Y0032872D01*
X0152261Y0032715D01*
X0152235Y0032559D01*
X0152205Y0032403D01*
X0152172Y0032248D01*
X0152134Y0032095D01*
X0152093Y0031942D01*
X0152048Y0031790D01*
X0151999Y0031639D01*
X0151946Y0031490D01*
X0151890Y0031342D01*
X0151830Y0031196D01*
X0151766Y0031051D01*
X0151698Y0030908D01*
X0151627Y0030766D01*
X0151553Y0030626D01*
X0151475Y0030489D01*
X0151393Y0030353D01*
X0151309Y0030219D01*
X0151220Y0030088D01*
X0151129Y0029959D01*
X0151034Y0029832D01*
X0150937Y0029707D01*
X0150836Y0029585D01*
X0150732Y0029466D01*
X0150625Y0029349D01*
X0150515Y0029235D01*
X0150402Y0029124D01*
X0150287Y0029015D01*
X0150169Y0028910D01*
X0150048Y0028808D01*
X0149925Y0028708D01*
X0149799Y0028612D01*
X0149671Y0028519D01*
X0149541Y0028429D01*
X0149408Y0028343D01*
X0149273Y0028259D01*
X0149137Y0028180D01*
X0148998Y0028103D01*
X0148857Y0028031D01*
X0148715Y0027961D01*
X0148571Y0027896D01*
X0148425Y0027834D01*
X0148278Y0027776D01*
X0148129Y0027721D01*
X0147979Y0027670D01*
X0147828Y0027623D01*
X0147676Y0027580D01*
X0147523Y0027541D01*
X0147368Y0027505D01*
X0147213Y0027474D01*
X0147057Y0027446D01*
X0146901Y0027422D01*
X0146744Y0027402D01*
X0146586Y0027386D01*
X0146429Y0027374D01*
X0146270Y0027366D01*
X0146112Y0027362D01*
X0145954Y0027362D01*
X0145796Y0027366D01*
X0145637Y0027374D01*
X0145480Y0027386D01*
X0145322Y0027402D01*
X0145165Y0027422D01*
X0145009Y0027446D01*
X0144853Y0027474D01*
X0144698Y0027505D01*
X0144543Y0027541D01*
X0144390Y0027580D01*
X0144238Y0027623D01*
X0144087Y0027670D01*
X0143937Y0027721D01*
X0143788Y0027776D01*
X0143641Y0027834D01*
X0143495Y0027896D01*
X0143351Y0027961D01*
X0143209Y0028031D01*
X0143068Y0028103D01*
X0142929Y0028180D01*
X0142793Y0028259D01*
X0142658Y0028343D01*
X0142525Y0028429D01*
X0142395Y0028519D01*
X0142267Y0028612D01*
X0142141Y0028708D01*
X0142018Y0028808D01*
X0141897Y0028910D01*
X0141779Y0029015D01*
X0141664Y0029124D01*
X0141551Y0029235D01*
X0141441Y0029349D01*
X0141334Y0029466D01*
X0141230Y0029585D01*
X0141129Y0029707D01*
X0141032Y0029832D01*
X0140937Y0029959D01*
X0140846Y0030088D01*
X0140757Y0030219D01*
X0140673Y0030353D01*
X0140591Y0030489D01*
X0140513Y0030626D01*
X0140439Y0030766D01*
X0140368Y0030908D01*
X0140300Y0031051D01*
X0140236Y0031196D01*
X0140176Y0031342D01*
X0140120Y0031490D01*
X0140067Y0031639D01*
X0140018Y0031790D01*
X0139973Y0031942D01*
X0139932Y0032095D01*
X0139894Y0032248D01*
X0139861Y0032403D01*
X0139831Y0032559D01*
X0139805Y0032715D01*
X0139784Y0032872D01*
X0139766Y0033029D01*
X0139752Y0033187D01*
X0139742Y0033345D01*
X0139736Y0033503D01*
X0139734Y0033661D01*
X0139734Y0163661D02*
X0139736Y0163819D01*
X0139742Y0163977D01*
X0139752Y0164135D01*
X0139766Y0164293D01*
X0139784Y0164450D01*
X0139805Y0164607D01*
X0139831Y0164763D01*
X0139861Y0164919D01*
X0139894Y0165074D01*
X0139932Y0165227D01*
X0139973Y0165380D01*
X0140018Y0165532D01*
X0140067Y0165683D01*
X0140120Y0165832D01*
X0140176Y0165980D01*
X0140236Y0166126D01*
X0140300Y0166271D01*
X0140368Y0166414D01*
X0140439Y0166556D01*
X0140513Y0166696D01*
X0140591Y0166833D01*
X0140673Y0166969D01*
X0140757Y0167103D01*
X0140846Y0167234D01*
X0140937Y0167363D01*
X0141032Y0167490D01*
X0141129Y0167615D01*
X0141230Y0167737D01*
X0141334Y0167856D01*
X0141441Y0167973D01*
X0141551Y0168087D01*
X0141664Y0168198D01*
X0141779Y0168307D01*
X0141897Y0168412D01*
X0142018Y0168514D01*
X0142141Y0168614D01*
X0142267Y0168710D01*
X0142395Y0168803D01*
X0142525Y0168893D01*
X0142658Y0168979D01*
X0142793Y0169063D01*
X0142929Y0169142D01*
X0143068Y0169219D01*
X0143209Y0169291D01*
X0143351Y0169361D01*
X0143495Y0169426D01*
X0143641Y0169488D01*
X0143788Y0169546D01*
X0143937Y0169601D01*
X0144087Y0169652D01*
X0144238Y0169699D01*
X0144390Y0169742D01*
X0144543Y0169781D01*
X0144698Y0169817D01*
X0144853Y0169848D01*
X0145009Y0169876D01*
X0145165Y0169900D01*
X0145322Y0169920D01*
X0145480Y0169936D01*
X0145637Y0169948D01*
X0145796Y0169956D01*
X0145954Y0169960D01*
X0146112Y0169960D01*
X0146270Y0169956D01*
X0146429Y0169948D01*
X0146586Y0169936D01*
X0146744Y0169920D01*
X0146901Y0169900D01*
X0147057Y0169876D01*
X0147213Y0169848D01*
X0147368Y0169817D01*
X0147523Y0169781D01*
X0147676Y0169742D01*
X0147828Y0169699D01*
X0147979Y0169652D01*
X0148129Y0169601D01*
X0148278Y0169546D01*
X0148425Y0169488D01*
X0148571Y0169426D01*
X0148715Y0169361D01*
X0148857Y0169291D01*
X0148998Y0169219D01*
X0149137Y0169142D01*
X0149273Y0169063D01*
X0149408Y0168979D01*
X0149541Y0168893D01*
X0149671Y0168803D01*
X0149799Y0168710D01*
X0149925Y0168614D01*
X0150048Y0168514D01*
X0150169Y0168412D01*
X0150287Y0168307D01*
X0150402Y0168198D01*
X0150515Y0168087D01*
X0150625Y0167973D01*
X0150732Y0167856D01*
X0150836Y0167737D01*
X0150937Y0167615D01*
X0151034Y0167490D01*
X0151129Y0167363D01*
X0151220Y0167234D01*
X0151309Y0167103D01*
X0151393Y0166969D01*
X0151475Y0166833D01*
X0151553Y0166696D01*
X0151627Y0166556D01*
X0151698Y0166414D01*
X0151766Y0166271D01*
X0151830Y0166126D01*
X0151890Y0165980D01*
X0151946Y0165832D01*
X0151999Y0165683D01*
X0152048Y0165532D01*
X0152093Y0165380D01*
X0152134Y0165227D01*
X0152172Y0165074D01*
X0152205Y0164919D01*
X0152235Y0164763D01*
X0152261Y0164607D01*
X0152282Y0164450D01*
X0152300Y0164293D01*
X0152314Y0164135D01*
X0152324Y0163977D01*
X0152330Y0163819D01*
X0152332Y0163661D01*
X0152330Y0163503D01*
X0152324Y0163345D01*
X0152314Y0163187D01*
X0152300Y0163029D01*
X0152282Y0162872D01*
X0152261Y0162715D01*
X0152235Y0162559D01*
X0152205Y0162403D01*
X0152172Y0162248D01*
X0152134Y0162095D01*
X0152093Y0161942D01*
X0152048Y0161790D01*
X0151999Y0161639D01*
X0151946Y0161490D01*
X0151890Y0161342D01*
X0151830Y0161196D01*
X0151766Y0161051D01*
X0151698Y0160908D01*
X0151627Y0160766D01*
X0151553Y0160626D01*
X0151475Y0160489D01*
X0151393Y0160353D01*
X0151309Y0160219D01*
X0151220Y0160088D01*
X0151129Y0159959D01*
X0151034Y0159832D01*
X0150937Y0159707D01*
X0150836Y0159585D01*
X0150732Y0159466D01*
X0150625Y0159349D01*
X0150515Y0159235D01*
X0150402Y0159124D01*
X0150287Y0159015D01*
X0150169Y0158910D01*
X0150048Y0158808D01*
X0149925Y0158708D01*
X0149799Y0158612D01*
X0149671Y0158519D01*
X0149541Y0158429D01*
X0149408Y0158343D01*
X0149273Y0158259D01*
X0149137Y0158180D01*
X0148998Y0158103D01*
X0148857Y0158031D01*
X0148715Y0157961D01*
X0148571Y0157896D01*
X0148425Y0157834D01*
X0148278Y0157776D01*
X0148129Y0157721D01*
X0147979Y0157670D01*
X0147828Y0157623D01*
X0147676Y0157580D01*
X0147523Y0157541D01*
X0147368Y0157505D01*
X0147213Y0157474D01*
X0147057Y0157446D01*
X0146901Y0157422D01*
X0146744Y0157402D01*
X0146586Y0157386D01*
X0146429Y0157374D01*
X0146270Y0157366D01*
X0146112Y0157362D01*
X0145954Y0157362D01*
X0145796Y0157366D01*
X0145637Y0157374D01*
X0145480Y0157386D01*
X0145322Y0157402D01*
X0145165Y0157422D01*
X0145009Y0157446D01*
X0144853Y0157474D01*
X0144698Y0157505D01*
X0144543Y0157541D01*
X0144390Y0157580D01*
X0144238Y0157623D01*
X0144087Y0157670D01*
X0143937Y0157721D01*
X0143788Y0157776D01*
X0143641Y0157834D01*
X0143495Y0157896D01*
X0143351Y0157961D01*
X0143209Y0158031D01*
X0143068Y0158103D01*
X0142929Y0158180D01*
X0142793Y0158259D01*
X0142658Y0158343D01*
X0142525Y0158429D01*
X0142395Y0158519D01*
X0142267Y0158612D01*
X0142141Y0158708D01*
X0142018Y0158808D01*
X0141897Y0158910D01*
X0141779Y0159015D01*
X0141664Y0159124D01*
X0141551Y0159235D01*
X0141441Y0159349D01*
X0141334Y0159466D01*
X0141230Y0159585D01*
X0141129Y0159707D01*
X0141032Y0159832D01*
X0140937Y0159959D01*
X0140846Y0160088D01*
X0140757Y0160219D01*
X0140673Y0160353D01*
X0140591Y0160489D01*
X0140513Y0160626D01*
X0140439Y0160766D01*
X0140368Y0160908D01*
X0140300Y0161051D01*
X0140236Y0161196D01*
X0140176Y0161342D01*
X0140120Y0161490D01*
X0140067Y0161639D01*
X0140018Y0161790D01*
X0139973Y0161942D01*
X0139932Y0162095D01*
X0139894Y0162248D01*
X0139861Y0162403D01*
X0139831Y0162559D01*
X0139805Y0162715D01*
X0139784Y0162872D01*
X0139766Y0163029D01*
X0139752Y0163187D01*
X0139742Y0163345D01*
X0139736Y0163503D01*
X0139734Y0163661D01*
X0034734Y0163661D02*
X0034736Y0163819D01*
X0034742Y0163977D01*
X0034752Y0164135D01*
X0034766Y0164293D01*
X0034784Y0164450D01*
X0034805Y0164607D01*
X0034831Y0164763D01*
X0034861Y0164919D01*
X0034894Y0165074D01*
X0034932Y0165227D01*
X0034973Y0165380D01*
X0035018Y0165532D01*
X0035067Y0165683D01*
X0035120Y0165832D01*
X0035176Y0165980D01*
X0035236Y0166126D01*
X0035300Y0166271D01*
X0035368Y0166414D01*
X0035439Y0166556D01*
X0035513Y0166696D01*
X0035591Y0166833D01*
X0035673Y0166969D01*
X0035757Y0167103D01*
X0035846Y0167234D01*
X0035937Y0167363D01*
X0036032Y0167490D01*
X0036129Y0167615D01*
X0036230Y0167737D01*
X0036334Y0167856D01*
X0036441Y0167973D01*
X0036551Y0168087D01*
X0036664Y0168198D01*
X0036779Y0168307D01*
X0036897Y0168412D01*
X0037018Y0168514D01*
X0037141Y0168614D01*
X0037267Y0168710D01*
X0037395Y0168803D01*
X0037525Y0168893D01*
X0037658Y0168979D01*
X0037793Y0169063D01*
X0037929Y0169142D01*
X0038068Y0169219D01*
X0038209Y0169291D01*
X0038351Y0169361D01*
X0038495Y0169426D01*
X0038641Y0169488D01*
X0038788Y0169546D01*
X0038937Y0169601D01*
X0039087Y0169652D01*
X0039238Y0169699D01*
X0039390Y0169742D01*
X0039543Y0169781D01*
X0039698Y0169817D01*
X0039853Y0169848D01*
X0040009Y0169876D01*
X0040165Y0169900D01*
X0040322Y0169920D01*
X0040480Y0169936D01*
X0040637Y0169948D01*
X0040796Y0169956D01*
X0040954Y0169960D01*
X0041112Y0169960D01*
X0041270Y0169956D01*
X0041429Y0169948D01*
X0041586Y0169936D01*
X0041744Y0169920D01*
X0041901Y0169900D01*
X0042057Y0169876D01*
X0042213Y0169848D01*
X0042368Y0169817D01*
X0042523Y0169781D01*
X0042676Y0169742D01*
X0042828Y0169699D01*
X0042979Y0169652D01*
X0043129Y0169601D01*
X0043278Y0169546D01*
X0043425Y0169488D01*
X0043571Y0169426D01*
X0043715Y0169361D01*
X0043857Y0169291D01*
X0043998Y0169219D01*
X0044137Y0169142D01*
X0044273Y0169063D01*
X0044408Y0168979D01*
X0044541Y0168893D01*
X0044671Y0168803D01*
X0044799Y0168710D01*
X0044925Y0168614D01*
X0045048Y0168514D01*
X0045169Y0168412D01*
X0045287Y0168307D01*
X0045402Y0168198D01*
X0045515Y0168087D01*
X0045625Y0167973D01*
X0045732Y0167856D01*
X0045836Y0167737D01*
X0045937Y0167615D01*
X0046034Y0167490D01*
X0046129Y0167363D01*
X0046220Y0167234D01*
X0046309Y0167103D01*
X0046393Y0166969D01*
X0046475Y0166833D01*
X0046553Y0166696D01*
X0046627Y0166556D01*
X0046698Y0166414D01*
X0046766Y0166271D01*
X0046830Y0166126D01*
X0046890Y0165980D01*
X0046946Y0165832D01*
X0046999Y0165683D01*
X0047048Y0165532D01*
X0047093Y0165380D01*
X0047134Y0165227D01*
X0047172Y0165074D01*
X0047205Y0164919D01*
X0047235Y0164763D01*
X0047261Y0164607D01*
X0047282Y0164450D01*
X0047300Y0164293D01*
X0047314Y0164135D01*
X0047324Y0163977D01*
X0047330Y0163819D01*
X0047332Y0163661D01*
X0047330Y0163503D01*
X0047324Y0163345D01*
X0047314Y0163187D01*
X0047300Y0163029D01*
X0047282Y0162872D01*
X0047261Y0162715D01*
X0047235Y0162559D01*
X0047205Y0162403D01*
X0047172Y0162248D01*
X0047134Y0162095D01*
X0047093Y0161942D01*
X0047048Y0161790D01*
X0046999Y0161639D01*
X0046946Y0161490D01*
X0046890Y0161342D01*
X0046830Y0161196D01*
X0046766Y0161051D01*
X0046698Y0160908D01*
X0046627Y0160766D01*
X0046553Y0160626D01*
X0046475Y0160489D01*
X0046393Y0160353D01*
X0046309Y0160219D01*
X0046220Y0160088D01*
X0046129Y0159959D01*
X0046034Y0159832D01*
X0045937Y0159707D01*
X0045836Y0159585D01*
X0045732Y0159466D01*
X0045625Y0159349D01*
X0045515Y0159235D01*
X0045402Y0159124D01*
X0045287Y0159015D01*
X0045169Y0158910D01*
X0045048Y0158808D01*
X0044925Y0158708D01*
X0044799Y0158612D01*
X0044671Y0158519D01*
X0044541Y0158429D01*
X0044408Y0158343D01*
X0044273Y0158259D01*
X0044137Y0158180D01*
X0043998Y0158103D01*
X0043857Y0158031D01*
X0043715Y0157961D01*
X0043571Y0157896D01*
X0043425Y0157834D01*
X0043278Y0157776D01*
X0043129Y0157721D01*
X0042979Y0157670D01*
X0042828Y0157623D01*
X0042676Y0157580D01*
X0042523Y0157541D01*
X0042368Y0157505D01*
X0042213Y0157474D01*
X0042057Y0157446D01*
X0041901Y0157422D01*
X0041744Y0157402D01*
X0041586Y0157386D01*
X0041429Y0157374D01*
X0041270Y0157366D01*
X0041112Y0157362D01*
X0040954Y0157362D01*
X0040796Y0157366D01*
X0040637Y0157374D01*
X0040480Y0157386D01*
X0040322Y0157402D01*
X0040165Y0157422D01*
X0040009Y0157446D01*
X0039853Y0157474D01*
X0039698Y0157505D01*
X0039543Y0157541D01*
X0039390Y0157580D01*
X0039238Y0157623D01*
X0039087Y0157670D01*
X0038937Y0157721D01*
X0038788Y0157776D01*
X0038641Y0157834D01*
X0038495Y0157896D01*
X0038351Y0157961D01*
X0038209Y0158031D01*
X0038068Y0158103D01*
X0037929Y0158180D01*
X0037793Y0158259D01*
X0037658Y0158343D01*
X0037525Y0158429D01*
X0037395Y0158519D01*
X0037267Y0158612D01*
X0037141Y0158708D01*
X0037018Y0158808D01*
X0036897Y0158910D01*
X0036779Y0159015D01*
X0036664Y0159124D01*
X0036551Y0159235D01*
X0036441Y0159349D01*
X0036334Y0159466D01*
X0036230Y0159585D01*
X0036129Y0159707D01*
X0036032Y0159832D01*
X0035937Y0159959D01*
X0035846Y0160088D01*
X0035757Y0160219D01*
X0035673Y0160353D01*
X0035591Y0160489D01*
X0035513Y0160626D01*
X0035439Y0160766D01*
X0035368Y0160908D01*
X0035300Y0161051D01*
X0035236Y0161196D01*
X0035176Y0161342D01*
X0035120Y0161490D01*
X0035067Y0161639D01*
X0035018Y0161790D01*
X0034973Y0161942D01*
X0034932Y0162095D01*
X0034894Y0162248D01*
X0034861Y0162403D01*
X0034831Y0162559D01*
X0034805Y0162715D01*
X0034784Y0162872D01*
X0034766Y0163029D01*
X0034752Y0163187D01*
X0034742Y0163345D01*
X0034736Y0163503D01*
X0034734Y0163661D01*
D11*
X0076564Y0156063D03*
X0076564Y0152519D03*
X0076564Y0148976D03*
X0076564Y0145433D03*
X0076564Y0141889D03*
X0076564Y0138346D03*
X0076564Y0134803D03*
X0076564Y0131259D03*
X0110501Y0131259D03*
X0110501Y0134803D03*
X0110501Y0138346D03*
X0110501Y0141889D03*
X0110501Y0145433D03*
X0110501Y0148976D03*
X0110501Y0152519D03*
X0110501Y0156063D03*
D12*
X0105934Y0160629D03*
X0102391Y0160629D03*
X0098848Y0160629D03*
X0095304Y0160629D03*
X0091761Y0160629D03*
X0088218Y0160629D03*
X0084675Y0160629D03*
X0081131Y0160629D03*
X0081131Y0126692D03*
X0084675Y0126692D03*
X0088218Y0126692D03*
X0091761Y0126692D03*
X0095304Y0126692D03*
X0098848Y0126692D03*
X0102391Y0126692D03*
X0105934Y0126692D03*
D13*
X0114419Y0128602D03*
X0114419Y0158720D03*
X0072647Y0158720D03*
X0072647Y0128602D03*
D14*
X0072647Y0133031D03*
X0072647Y0136574D03*
X0072647Y0140118D03*
X0072647Y0143661D03*
X0072647Y0147204D03*
X0072647Y0150748D03*
X0072647Y0154291D03*
X0082903Y0164547D03*
X0086446Y0164547D03*
X0089989Y0164547D03*
X0093533Y0164547D03*
X0097076Y0164547D03*
X0100619Y0164547D03*
X0104163Y0164547D03*
X0114419Y0154291D03*
X0114419Y0150748D03*
X0114419Y0147204D03*
X0114419Y0143661D03*
X0114419Y0140118D03*
X0114419Y0136574D03*
X0114419Y0133031D03*
X0104163Y0122775D03*
X0100619Y0122775D03*
X0097076Y0122775D03*
X0093533Y0122775D03*
X0089989Y0122775D03*
X0086446Y0122775D03*
X0082903Y0122775D03*
D15*
X0078474Y0122775D03*
X0108592Y0122775D03*
X0108592Y0164547D03*
X0078474Y0164547D03*
D16*
X0059753Y0079803D02*
X0059753Y0077479D01*
X0059753Y0079803D02*
X0060187Y0079803D01*
X0060187Y0077479D01*
X0059753Y0077479D01*
X0059753Y0077911D02*
X0060187Y0077911D01*
X0060187Y0078343D02*
X0059753Y0078343D01*
X0059753Y0078775D02*
X0060187Y0078775D01*
X0060187Y0079207D02*
X0059753Y0079207D01*
X0059753Y0079639D02*
X0060187Y0079639D01*
X0058178Y0079803D02*
X0058178Y0077479D01*
X0058178Y0079803D02*
X0058612Y0079803D01*
X0058612Y0077479D01*
X0058178Y0077479D01*
X0058178Y0077911D02*
X0058612Y0077911D01*
X0058612Y0078343D02*
X0058178Y0078343D01*
X0058178Y0078775D02*
X0058612Y0078775D01*
X0058612Y0079207D02*
X0058178Y0079207D01*
X0058178Y0079639D02*
X0058612Y0079639D01*
X0056603Y0079803D02*
X0056603Y0077479D01*
X0056603Y0079803D02*
X0057037Y0079803D01*
X0057037Y0077479D01*
X0056603Y0077479D01*
X0056603Y0077911D02*
X0057037Y0077911D01*
X0057037Y0078343D02*
X0056603Y0078343D01*
X0056603Y0078775D02*
X0057037Y0078775D01*
X0057037Y0079207D02*
X0056603Y0079207D01*
X0056603Y0079639D02*
X0057037Y0079639D01*
X0055028Y0079803D02*
X0055028Y0077479D01*
X0055028Y0079803D02*
X0055462Y0079803D01*
X0055462Y0077479D01*
X0055028Y0077479D01*
X0055028Y0077911D02*
X0055462Y0077911D01*
X0055462Y0078343D02*
X0055028Y0078343D01*
X0055028Y0078775D02*
X0055462Y0078775D01*
X0055462Y0079207D02*
X0055028Y0079207D01*
X0055028Y0079639D02*
X0055462Y0079639D01*
X0053454Y0079803D02*
X0053454Y0077479D01*
X0053454Y0079803D02*
X0053888Y0079803D01*
X0053888Y0077479D01*
X0053454Y0077479D01*
X0053454Y0077911D02*
X0053888Y0077911D01*
X0053888Y0078343D02*
X0053454Y0078343D01*
X0053454Y0078775D02*
X0053888Y0078775D01*
X0053888Y0079207D02*
X0053454Y0079207D01*
X0053454Y0079639D02*
X0053888Y0079639D01*
X0051879Y0079803D02*
X0051879Y0077479D01*
X0051879Y0079803D02*
X0052313Y0079803D01*
X0052313Y0077479D01*
X0051879Y0077479D01*
X0051879Y0077911D02*
X0052313Y0077911D01*
X0052313Y0078343D02*
X0051879Y0078343D01*
X0051879Y0078775D02*
X0052313Y0078775D01*
X0052313Y0079207D02*
X0051879Y0079207D01*
X0051879Y0079639D02*
X0052313Y0079639D01*
X0050304Y0079803D02*
X0050304Y0077873D01*
X0050304Y0079803D02*
X0050738Y0079803D01*
X0050738Y0077873D01*
X0050304Y0077873D01*
X0050304Y0078305D02*
X0050738Y0078305D01*
X0050738Y0078737D02*
X0050304Y0078737D01*
X0050304Y0079169D02*
X0050738Y0079169D01*
X0050738Y0079601D02*
X0050304Y0079601D01*
X0049360Y0076456D02*
X0047430Y0076456D01*
X0047430Y0076890D01*
X0049360Y0076890D01*
X0049360Y0076456D01*
X0049360Y0076888D02*
X0047430Y0076888D01*
X0047390Y0074881D02*
X0049714Y0074881D01*
X0047390Y0074881D02*
X0047390Y0075315D01*
X0049714Y0075315D01*
X0049714Y0074881D01*
X0049714Y0075313D02*
X0047390Y0075313D01*
X0047390Y0073306D02*
X0049714Y0073306D01*
X0047390Y0073306D02*
X0047390Y0073740D01*
X0049714Y0073740D01*
X0049714Y0073306D01*
X0049714Y0073738D02*
X0047390Y0073738D01*
X0047390Y0071731D02*
X0049714Y0071731D01*
X0047390Y0071731D02*
X0047390Y0072165D01*
X0049714Y0072165D01*
X0049714Y0071731D01*
X0049714Y0072163D02*
X0047390Y0072163D01*
X0047390Y0070157D02*
X0049714Y0070157D01*
X0047390Y0070157D02*
X0047390Y0070591D01*
X0049714Y0070591D01*
X0049714Y0070157D01*
X0049714Y0070589D02*
X0047390Y0070589D01*
X0047390Y0068582D02*
X0049714Y0068582D01*
X0047390Y0068582D02*
X0047390Y0069016D01*
X0049714Y0069016D01*
X0049714Y0068582D01*
X0049714Y0069014D02*
X0047390Y0069014D01*
X0047390Y0067007D02*
X0049714Y0067007D01*
X0047390Y0067007D02*
X0047390Y0067441D01*
X0049714Y0067441D01*
X0049714Y0067007D01*
X0049714Y0067439D02*
X0047390Y0067439D01*
X0047430Y0065432D02*
X0049360Y0065432D01*
X0047430Y0065432D02*
X0047430Y0065866D01*
X0049360Y0065866D01*
X0049360Y0065432D01*
X0049360Y0065864D02*
X0047430Y0065864D01*
X0050699Y0064449D02*
X0050699Y0062519D01*
X0050265Y0062519D01*
X0050265Y0064449D01*
X0050699Y0064449D01*
X0050699Y0062951D02*
X0050265Y0062951D01*
X0050265Y0063383D02*
X0050699Y0063383D01*
X0050699Y0063815D02*
X0050265Y0063815D01*
X0050265Y0064247D02*
X0050699Y0064247D01*
X0052313Y0064843D02*
X0052313Y0062519D01*
X0051879Y0062519D01*
X0051879Y0064843D01*
X0052313Y0064843D01*
X0052313Y0062951D02*
X0051879Y0062951D01*
X0051879Y0063383D02*
X0052313Y0063383D01*
X0052313Y0063815D02*
X0051879Y0063815D01*
X0051879Y0064247D02*
X0052313Y0064247D01*
X0052313Y0064679D02*
X0051879Y0064679D01*
X0053888Y0064843D02*
X0053888Y0062519D01*
X0053454Y0062519D01*
X0053454Y0064843D01*
X0053888Y0064843D01*
X0053888Y0062951D02*
X0053454Y0062951D01*
X0053454Y0063383D02*
X0053888Y0063383D01*
X0053888Y0063815D02*
X0053454Y0063815D01*
X0053454Y0064247D02*
X0053888Y0064247D01*
X0053888Y0064679D02*
X0053454Y0064679D01*
X0055462Y0064843D02*
X0055462Y0062519D01*
X0055028Y0062519D01*
X0055028Y0064843D01*
X0055462Y0064843D01*
X0055462Y0062951D02*
X0055028Y0062951D01*
X0055028Y0063383D02*
X0055462Y0063383D01*
X0055462Y0063815D02*
X0055028Y0063815D01*
X0055028Y0064247D02*
X0055462Y0064247D01*
X0055462Y0064679D02*
X0055028Y0064679D01*
X0057037Y0064843D02*
X0057037Y0062519D01*
X0056603Y0062519D01*
X0056603Y0064843D01*
X0057037Y0064843D01*
X0057037Y0062951D02*
X0056603Y0062951D01*
X0056603Y0063383D02*
X0057037Y0063383D01*
X0057037Y0063815D02*
X0056603Y0063815D01*
X0056603Y0064247D02*
X0057037Y0064247D01*
X0057037Y0064679D02*
X0056603Y0064679D01*
X0058612Y0064843D02*
X0058612Y0062519D01*
X0058178Y0062519D01*
X0058178Y0064843D01*
X0058612Y0064843D01*
X0058612Y0062951D02*
X0058178Y0062951D01*
X0058178Y0063383D02*
X0058612Y0063383D01*
X0058612Y0063815D02*
X0058178Y0063815D01*
X0058178Y0064247D02*
X0058612Y0064247D01*
X0058612Y0064679D02*
X0058178Y0064679D01*
X0060187Y0064843D02*
X0060187Y0062519D01*
X0059753Y0062519D01*
X0059753Y0064843D01*
X0060187Y0064843D01*
X0060187Y0062951D02*
X0059753Y0062951D01*
X0059753Y0063383D02*
X0060187Y0063383D01*
X0060187Y0063815D02*
X0059753Y0063815D01*
X0059753Y0064247D02*
X0060187Y0064247D01*
X0060187Y0064679D02*
X0059753Y0064679D01*
X0061762Y0064449D02*
X0061762Y0062519D01*
X0061328Y0062519D01*
X0061328Y0064449D01*
X0061762Y0064449D01*
X0061762Y0062951D02*
X0061328Y0062951D01*
X0061328Y0063383D02*
X0061762Y0063383D01*
X0061762Y0063815D02*
X0061328Y0063815D01*
X0061328Y0064247D02*
X0061762Y0064247D01*
X0062666Y0065866D02*
X0064596Y0065866D01*
X0064596Y0065432D01*
X0062666Y0065432D01*
X0062666Y0065866D01*
X0062666Y0065864D02*
X0064596Y0065864D01*
X0064636Y0067441D02*
X0062312Y0067441D01*
X0064636Y0067441D02*
X0064636Y0067007D01*
X0062312Y0067007D01*
X0062312Y0067441D01*
X0062312Y0067439D02*
X0064636Y0067439D01*
X0064636Y0069016D02*
X0062312Y0069016D01*
X0064636Y0069016D02*
X0064636Y0068582D01*
X0062312Y0068582D01*
X0062312Y0069016D01*
X0062312Y0069014D02*
X0064636Y0069014D01*
X0064636Y0070591D02*
X0062312Y0070591D01*
X0064636Y0070591D02*
X0064636Y0070157D01*
X0062312Y0070157D01*
X0062312Y0070591D01*
X0062312Y0070589D02*
X0064636Y0070589D01*
X0064636Y0072165D02*
X0062312Y0072165D01*
X0064636Y0072165D02*
X0064636Y0071731D01*
X0062312Y0071731D01*
X0062312Y0072165D01*
X0062312Y0072163D02*
X0064636Y0072163D01*
X0064636Y0073740D02*
X0062312Y0073740D01*
X0064636Y0073740D02*
X0064636Y0073306D01*
X0062312Y0073306D01*
X0062312Y0073740D01*
X0062312Y0073738D02*
X0064636Y0073738D01*
X0064636Y0075315D02*
X0062312Y0075315D01*
X0064636Y0075315D02*
X0064636Y0074881D01*
X0062312Y0074881D01*
X0062312Y0075315D01*
X0062312Y0075313D02*
X0064636Y0075313D01*
D17*
X0064631Y0076806D02*
X0062789Y0076806D01*
X0064631Y0076806D02*
X0064631Y0076460D01*
X0062789Y0076460D01*
X0062789Y0076806D01*
X0061411Y0077917D02*
X0061411Y0079759D01*
X0061757Y0079759D01*
X0061757Y0077917D01*
X0061411Y0077917D01*
X0061411Y0078436D02*
X0061757Y0078436D01*
X0061757Y0078955D02*
X0061411Y0078955D01*
X0061411Y0079474D02*
X0061757Y0079474D01*
D18*
X0058592Y0073720D03*
X0058592Y0068602D03*
X0053474Y0068602D03*
X0053474Y0073720D03*
D19*
X0111722Y0080471D03*
D20*
X0111723Y0086855D03*
D21*
X0105344Y0086850D03*
D22*
X0105340Y0080471D03*
D23*
X0100403Y0079921D02*
X0097411Y0079921D01*
X0097411Y0080511D01*
X0100403Y0080511D01*
X0100403Y0079921D01*
X0100403Y0080117D02*
X0097411Y0080117D01*
X0097411Y0080313D02*
X0100403Y0080313D01*
X0100403Y0080509D02*
X0097411Y0080509D01*
X0097411Y0081299D02*
X0100403Y0081299D01*
X0097411Y0081299D02*
X0097411Y0081889D01*
X0100403Y0081889D01*
X0100403Y0081299D01*
X0100403Y0081495D02*
X0097411Y0081495D01*
X0097411Y0081691D02*
X0100403Y0081691D01*
X0100403Y0081887D02*
X0097411Y0081887D01*
X0097411Y0082677D02*
X0100403Y0082677D01*
X0097411Y0082677D02*
X0097411Y0083267D01*
X0100403Y0083267D01*
X0100403Y0082677D01*
X0100403Y0082873D02*
X0097411Y0082873D01*
X0097411Y0083069D02*
X0100403Y0083069D01*
X0100403Y0083265D02*
X0097411Y0083265D01*
X0097411Y0084055D02*
X0100403Y0084055D01*
X0097411Y0084055D02*
X0097411Y0084645D01*
X0100403Y0084645D01*
X0100403Y0084055D01*
X0100403Y0084251D02*
X0097411Y0084251D01*
X0097411Y0084447D02*
X0100403Y0084447D01*
X0100403Y0084643D02*
X0097411Y0084643D01*
X0097411Y0085433D02*
X0100403Y0085433D01*
X0097411Y0085433D02*
X0097411Y0086023D01*
X0100403Y0086023D01*
X0100403Y0085433D01*
X0100403Y0085629D02*
X0097411Y0085629D01*
X0097411Y0085825D02*
X0100403Y0085825D01*
X0100403Y0086021D02*
X0097411Y0086021D01*
X0097411Y0086811D02*
X0100403Y0086811D01*
X0097411Y0086811D02*
X0097411Y0087401D01*
X0100403Y0087401D01*
X0100403Y0086811D01*
X0100403Y0087007D02*
X0097411Y0087007D01*
X0097411Y0087203D02*
X0100403Y0087203D01*
X0100403Y0087399D02*
X0097411Y0087399D01*
X0097411Y0088189D02*
X0100403Y0088189D01*
X0097411Y0088189D02*
X0097411Y0088779D01*
X0100403Y0088779D01*
X0100403Y0088189D01*
X0100403Y0088385D02*
X0097411Y0088385D01*
X0097411Y0088581D02*
X0100403Y0088581D01*
X0100403Y0088777D02*
X0097411Y0088777D01*
X0097411Y0089567D02*
X0100403Y0089567D01*
X0097411Y0089567D02*
X0097411Y0090157D01*
X0100403Y0090157D01*
X0100403Y0089567D01*
X0100403Y0089763D02*
X0097411Y0089763D01*
X0097411Y0089959D02*
X0100403Y0089959D01*
X0100403Y0090155D02*
X0097411Y0090155D01*
X0099281Y0091791D02*
X0099281Y0094783D01*
X0099871Y0094783D01*
X0099871Y0091791D01*
X0099281Y0091791D01*
X0099281Y0091987D02*
X0099871Y0091987D01*
X0099871Y0092183D02*
X0099281Y0092183D01*
X0099281Y0092379D02*
X0099871Y0092379D01*
X0099871Y0092575D02*
X0099281Y0092575D01*
X0099281Y0092771D02*
X0099871Y0092771D01*
X0099871Y0092967D02*
X0099281Y0092967D01*
X0099281Y0093163D02*
X0099871Y0093163D01*
X0099871Y0093359D02*
X0099281Y0093359D01*
X0099281Y0093555D02*
X0099871Y0093555D01*
X0099871Y0093751D02*
X0099281Y0093751D01*
X0099281Y0093947D02*
X0099871Y0093947D01*
X0099871Y0094143D02*
X0099281Y0094143D01*
X0099281Y0094339D02*
X0099871Y0094339D01*
X0099871Y0094535D02*
X0099281Y0094535D01*
X0099281Y0094731D02*
X0099871Y0094731D01*
X0100659Y0094783D02*
X0100659Y0091791D01*
X0100659Y0094783D02*
X0101249Y0094783D01*
X0101249Y0091791D01*
X0100659Y0091791D01*
X0100659Y0091987D02*
X0101249Y0091987D01*
X0101249Y0092183D02*
X0100659Y0092183D01*
X0100659Y0092379D02*
X0101249Y0092379D01*
X0101249Y0092575D02*
X0100659Y0092575D01*
X0100659Y0092771D02*
X0101249Y0092771D01*
X0101249Y0092967D02*
X0100659Y0092967D01*
X0100659Y0093163D02*
X0101249Y0093163D01*
X0101249Y0093359D02*
X0100659Y0093359D01*
X0100659Y0093555D02*
X0101249Y0093555D01*
X0101249Y0093751D02*
X0100659Y0093751D01*
X0100659Y0093947D02*
X0101249Y0093947D01*
X0101249Y0094143D02*
X0100659Y0094143D01*
X0100659Y0094339D02*
X0101249Y0094339D01*
X0101249Y0094535D02*
X0100659Y0094535D01*
X0100659Y0094731D02*
X0101249Y0094731D01*
X0102037Y0094783D02*
X0102037Y0091791D01*
X0102037Y0094783D02*
X0102627Y0094783D01*
X0102627Y0091791D01*
X0102037Y0091791D01*
X0102037Y0091987D02*
X0102627Y0091987D01*
X0102627Y0092183D02*
X0102037Y0092183D01*
X0102037Y0092379D02*
X0102627Y0092379D01*
X0102627Y0092575D02*
X0102037Y0092575D01*
X0102037Y0092771D02*
X0102627Y0092771D01*
X0102627Y0092967D02*
X0102037Y0092967D01*
X0102037Y0093163D02*
X0102627Y0093163D01*
X0102627Y0093359D02*
X0102037Y0093359D01*
X0102037Y0093555D02*
X0102627Y0093555D01*
X0102627Y0093751D02*
X0102037Y0093751D01*
X0102037Y0093947D02*
X0102627Y0093947D01*
X0102627Y0094143D02*
X0102037Y0094143D01*
X0102037Y0094339D02*
X0102627Y0094339D01*
X0102627Y0094535D02*
X0102037Y0094535D01*
X0102037Y0094731D02*
X0102627Y0094731D01*
X0103415Y0094783D02*
X0103415Y0091791D01*
X0103415Y0094783D02*
X0104005Y0094783D01*
X0104005Y0091791D01*
X0103415Y0091791D01*
X0103415Y0091987D02*
X0104005Y0091987D01*
X0104005Y0092183D02*
X0103415Y0092183D01*
X0103415Y0092379D02*
X0104005Y0092379D01*
X0104005Y0092575D02*
X0103415Y0092575D01*
X0103415Y0092771D02*
X0104005Y0092771D01*
X0104005Y0092967D02*
X0103415Y0092967D01*
X0103415Y0093163D02*
X0104005Y0093163D01*
X0104005Y0093359D02*
X0103415Y0093359D01*
X0103415Y0093555D02*
X0104005Y0093555D01*
X0104005Y0093751D02*
X0103415Y0093751D01*
X0103415Y0093947D02*
X0104005Y0093947D01*
X0104005Y0094143D02*
X0103415Y0094143D01*
X0103415Y0094339D02*
X0104005Y0094339D01*
X0104005Y0094535D02*
X0103415Y0094535D01*
X0103415Y0094731D02*
X0104005Y0094731D01*
X0104793Y0094783D02*
X0104793Y0091791D01*
X0104793Y0094783D02*
X0105383Y0094783D01*
X0105383Y0091791D01*
X0104793Y0091791D01*
X0104793Y0091987D02*
X0105383Y0091987D01*
X0105383Y0092183D02*
X0104793Y0092183D01*
X0104793Y0092379D02*
X0105383Y0092379D01*
X0105383Y0092575D02*
X0104793Y0092575D01*
X0104793Y0092771D02*
X0105383Y0092771D01*
X0105383Y0092967D02*
X0104793Y0092967D01*
X0104793Y0093163D02*
X0105383Y0093163D01*
X0105383Y0093359D02*
X0104793Y0093359D01*
X0104793Y0093555D02*
X0105383Y0093555D01*
X0105383Y0093751D02*
X0104793Y0093751D01*
X0104793Y0093947D02*
X0105383Y0093947D01*
X0105383Y0094143D02*
X0104793Y0094143D01*
X0104793Y0094339D02*
X0105383Y0094339D01*
X0105383Y0094535D02*
X0104793Y0094535D01*
X0104793Y0094731D02*
X0105383Y0094731D01*
X0106171Y0094783D02*
X0106171Y0091791D01*
X0106171Y0094783D02*
X0106761Y0094783D01*
X0106761Y0091791D01*
X0106171Y0091791D01*
X0106171Y0091987D02*
X0106761Y0091987D01*
X0106761Y0092183D02*
X0106171Y0092183D01*
X0106171Y0092379D02*
X0106761Y0092379D01*
X0106761Y0092575D02*
X0106171Y0092575D01*
X0106171Y0092771D02*
X0106761Y0092771D01*
X0106761Y0092967D02*
X0106171Y0092967D01*
X0106171Y0093163D02*
X0106761Y0093163D01*
X0106761Y0093359D02*
X0106171Y0093359D01*
X0106171Y0093555D02*
X0106761Y0093555D01*
X0106761Y0093751D02*
X0106171Y0093751D01*
X0106171Y0093947D02*
X0106761Y0093947D01*
X0106761Y0094143D02*
X0106171Y0094143D01*
X0106171Y0094339D02*
X0106761Y0094339D01*
X0106761Y0094535D02*
X0106171Y0094535D01*
X0106171Y0094731D02*
X0106761Y0094731D01*
X0107549Y0094783D02*
X0107549Y0091791D01*
X0107549Y0094783D02*
X0108139Y0094783D01*
X0108139Y0091791D01*
X0107549Y0091791D01*
X0107549Y0091987D02*
X0108139Y0091987D01*
X0108139Y0092183D02*
X0107549Y0092183D01*
X0107549Y0092379D02*
X0108139Y0092379D01*
X0108139Y0092575D02*
X0107549Y0092575D01*
X0107549Y0092771D02*
X0108139Y0092771D01*
X0108139Y0092967D02*
X0107549Y0092967D01*
X0107549Y0093163D02*
X0108139Y0093163D01*
X0108139Y0093359D02*
X0107549Y0093359D01*
X0107549Y0093555D02*
X0108139Y0093555D01*
X0108139Y0093751D02*
X0107549Y0093751D01*
X0107549Y0093947D02*
X0108139Y0093947D01*
X0108139Y0094143D02*
X0107549Y0094143D01*
X0107549Y0094339D02*
X0108139Y0094339D01*
X0108139Y0094535D02*
X0107549Y0094535D01*
X0107549Y0094731D02*
X0108139Y0094731D01*
X0108927Y0094783D02*
X0108927Y0091791D01*
X0108927Y0094783D02*
X0109517Y0094783D01*
X0109517Y0091791D01*
X0108927Y0091791D01*
X0108927Y0091987D02*
X0109517Y0091987D01*
X0109517Y0092183D02*
X0108927Y0092183D01*
X0108927Y0092379D02*
X0109517Y0092379D01*
X0109517Y0092575D02*
X0108927Y0092575D01*
X0108927Y0092771D02*
X0109517Y0092771D01*
X0109517Y0092967D02*
X0108927Y0092967D01*
X0108927Y0093163D02*
X0109517Y0093163D01*
X0109517Y0093359D02*
X0108927Y0093359D01*
X0108927Y0093555D02*
X0109517Y0093555D01*
X0109517Y0093751D02*
X0108927Y0093751D01*
X0108927Y0093947D02*
X0109517Y0093947D01*
X0109517Y0094143D02*
X0108927Y0094143D01*
X0108927Y0094339D02*
X0109517Y0094339D01*
X0109517Y0094535D02*
X0108927Y0094535D01*
X0108927Y0094731D02*
X0109517Y0094731D01*
X0110305Y0094783D02*
X0110305Y0091791D01*
X0110305Y0094783D02*
X0110895Y0094783D01*
X0110895Y0091791D01*
X0110305Y0091791D01*
X0110305Y0091987D02*
X0110895Y0091987D01*
X0110895Y0092183D02*
X0110305Y0092183D01*
X0110305Y0092379D02*
X0110895Y0092379D01*
X0110895Y0092575D02*
X0110305Y0092575D01*
X0110305Y0092771D02*
X0110895Y0092771D01*
X0110895Y0092967D02*
X0110305Y0092967D01*
X0110305Y0093163D02*
X0110895Y0093163D01*
X0110895Y0093359D02*
X0110305Y0093359D01*
X0110305Y0093555D02*
X0110895Y0093555D01*
X0110895Y0093751D02*
X0110305Y0093751D01*
X0110305Y0093947D02*
X0110895Y0093947D01*
X0110895Y0094143D02*
X0110305Y0094143D01*
X0110305Y0094339D02*
X0110895Y0094339D01*
X0110895Y0094535D02*
X0110305Y0094535D01*
X0110305Y0094731D02*
X0110895Y0094731D01*
X0111683Y0094783D02*
X0111683Y0091791D01*
X0111683Y0094783D02*
X0112273Y0094783D01*
X0112273Y0091791D01*
X0111683Y0091791D01*
X0111683Y0091987D02*
X0112273Y0091987D01*
X0112273Y0092183D02*
X0111683Y0092183D01*
X0111683Y0092379D02*
X0112273Y0092379D01*
X0112273Y0092575D02*
X0111683Y0092575D01*
X0111683Y0092771D02*
X0112273Y0092771D01*
X0112273Y0092967D02*
X0111683Y0092967D01*
X0111683Y0093163D02*
X0112273Y0093163D01*
X0112273Y0093359D02*
X0111683Y0093359D01*
X0111683Y0093555D02*
X0112273Y0093555D01*
X0112273Y0093751D02*
X0111683Y0093751D01*
X0111683Y0093947D02*
X0112273Y0093947D01*
X0112273Y0094143D02*
X0111683Y0094143D01*
X0111683Y0094339D02*
X0112273Y0094339D01*
X0112273Y0094535D02*
X0111683Y0094535D01*
X0111683Y0094731D02*
X0112273Y0094731D01*
X0113061Y0094783D02*
X0113061Y0091791D01*
X0113061Y0094783D02*
X0113651Y0094783D01*
X0113651Y0091791D01*
X0113061Y0091791D01*
X0113061Y0091987D02*
X0113651Y0091987D01*
X0113651Y0092183D02*
X0113061Y0092183D01*
X0113061Y0092379D02*
X0113651Y0092379D01*
X0113651Y0092575D02*
X0113061Y0092575D01*
X0113061Y0092771D02*
X0113651Y0092771D01*
X0113651Y0092967D02*
X0113061Y0092967D01*
X0113061Y0093163D02*
X0113651Y0093163D01*
X0113651Y0093359D02*
X0113061Y0093359D01*
X0113061Y0093555D02*
X0113651Y0093555D01*
X0113651Y0093751D02*
X0113061Y0093751D01*
X0113061Y0093947D02*
X0113651Y0093947D01*
X0113651Y0094143D02*
X0113061Y0094143D01*
X0113061Y0094339D02*
X0113651Y0094339D01*
X0113651Y0094535D02*
X0113061Y0094535D01*
X0113061Y0094731D02*
X0113651Y0094731D01*
X0114439Y0094783D02*
X0114439Y0091791D01*
X0114439Y0094783D02*
X0115029Y0094783D01*
X0115029Y0091791D01*
X0114439Y0091791D01*
X0114439Y0091987D02*
X0115029Y0091987D01*
X0115029Y0092183D02*
X0114439Y0092183D01*
X0114439Y0092379D02*
X0115029Y0092379D01*
X0115029Y0092575D02*
X0114439Y0092575D01*
X0114439Y0092771D02*
X0115029Y0092771D01*
X0115029Y0092967D02*
X0114439Y0092967D01*
X0114439Y0093163D02*
X0115029Y0093163D01*
X0115029Y0093359D02*
X0114439Y0093359D01*
X0114439Y0093555D02*
X0115029Y0093555D01*
X0115029Y0093751D02*
X0114439Y0093751D01*
X0114439Y0093947D02*
X0115029Y0093947D01*
X0115029Y0094143D02*
X0114439Y0094143D01*
X0114439Y0094339D02*
X0115029Y0094339D01*
X0115029Y0094535D02*
X0114439Y0094535D01*
X0114439Y0094731D02*
X0115029Y0094731D01*
X0115817Y0094783D02*
X0115817Y0091791D01*
X0115817Y0094783D02*
X0116407Y0094783D01*
X0116407Y0091791D01*
X0115817Y0091791D01*
X0115817Y0091987D02*
X0116407Y0091987D01*
X0116407Y0092183D02*
X0115817Y0092183D01*
X0115817Y0092379D02*
X0116407Y0092379D01*
X0116407Y0092575D02*
X0115817Y0092575D01*
X0115817Y0092771D02*
X0116407Y0092771D01*
X0116407Y0092967D02*
X0115817Y0092967D01*
X0115817Y0093163D02*
X0116407Y0093163D01*
X0116407Y0093359D02*
X0115817Y0093359D01*
X0115817Y0093555D02*
X0116407Y0093555D01*
X0116407Y0093751D02*
X0115817Y0093751D01*
X0115817Y0093947D02*
X0116407Y0093947D01*
X0116407Y0094143D02*
X0115817Y0094143D01*
X0115817Y0094339D02*
X0116407Y0094339D01*
X0116407Y0094535D02*
X0115817Y0094535D01*
X0115817Y0094731D02*
X0116407Y0094731D01*
X0117194Y0094783D02*
X0117194Y0091791D01*
X0117194Y0094783D02*
X0117784Y0094783D01*
X0117784Y0091791D01*
X0117194Y0091791D01*
X0117194Y0091987D02*
X0117784Y0091987D01*
X0117784Y0092183D02*
X0117194Y0092183D01*
X0117194Y0092379D02*
X0117784Y0092379D01*
X0117784Y0092575D02*
X0117194Y0092575D01*
X0117194Y0092771D02*
X0117784Y0092771D01*
X0117784Y0092967D02*
X0117194Y0092967D01*
X0117194Y0093163D02*
X0117784Y0093163D01*
X0117784Y0093359D02*
X0117194Y0093359D01*
X0117194Y0093555D02*
X0117784Y0093555D01*
X0117784Y0093751D02*
X0117194Y0093751D01*
X0117194Y0093947D02*
X0117784Y0093947D01*
X0117784Y0094143D02*
X0117194Y0094143D01*
X0117194Y0094339D02*
X0117784Y0094339D01*
X0117784Y0094535D02*
X0117194Y0094535D01*
X0117194Y0094731D02*
X0117784Y0094731D01*
X0116663Y0089567D02*
X0119655Y0089567D01*
X0116663Y0089567D02*
X0116663Y0090157D01*
X0119655Y0090157D01*
X0119655Y0089567D01*
X0119655Y0089763D02*
X0116663Y0089763D01*
X0116663Y0089959D02*
X0119655Y0089959D01*
X0119655Y0090155D02*
X0116663Y0090155D01*
X0116663Y0088189D02*
X0119655Y0088189D01*
X0116663Y0088189D02*
X0116663Y0088779D01*
X0119655Y0088779D01*
X0119655Y0088189D01*
X0119655Y0088385D02*
X0116663Y0088385D01*
X0116663Y0088581D02*
X0119655Y0088581D01*
X0119655Y0088777D02*
X0116663Y0088777D01*
X0116663Y0086811D02*
X0119655Y0086811D01*
X0116663Y0086811D02*
X0116663Y0087401D01*
X0119655Y0087401D01*
X0119655Y0086811D01*
X0119655Y0087007D02*
X0116663Y0087007D01*
X0116663Y0087203D02*
X0119655Y0087203D01*
X0119655Y0087399D02*
X0116663Y0087399D01*
X0116663Y0085433D02*
X0119655Y0085433D01*
X0116663Y0085433D02*
X0116663Y0086023D01*
X0119655Y0086023D01*
X0119655Y0085433D01*
X0119655Y0085629D02*
X0116663Y0085629D01*
X0116663Y0085825D02*
X0119655Y0085825D01*
X0119655Y0086021D02*
X0116663Y0086021D01*
X0116663Y0084055D02*
X0119655Y0084055D01*
X0116663Y0084055D02*
X0116663Y0084645D01*
X0119655Y0084645D01*
X0119655Y0084055D01*
X0119655Y0084251D02*
X0116663Y0084251D01*
X0116663Y0084447D02*
X0119655Y0084447D01*
X0119655Y0084643D02*
X0116663Y0084643D01*
X0116663Y0082677D02*
X0119655Y0082677D01*
X0116663Y0082677D02*
X0116663Y0083267D01*
X0119655Y0083267D01*
X0119655Y0082677D01*
X0119655Y0082873D02*
X0116663Y0082873D01*
X0116663Y0083069D02*
X0119655Y0083069D01*
X0119655Y0083265D02*
X0116663Y0083265D01*
X0116663Y0081299D02*
X0119655Y0081299D01*
X0116663Y0081299D02*
X0116663Y0081889D01*
X0119655Y0081889D01*
X0119655Y0081299D01*
X0119655Y0081495D02*
X0116663Y0081495D01*
X0116663Y0081691D02*
X0119655Y0081691D01*
X0119655Y0081887D02*
X0116663Y0081887D01*
X0116663Y0079921D02*
X0119655Y0079921D01*
X0116663Y0079921D02*
X0116663Y0080511D01*
X0119655Y0080511D01*
X0119655Y0079921D01*
X0119655Y0080117D02*
X0116663Y0080117D01*
X0116663Y0080313D02*
X0119655Y0080313D01*
X0119655Y0080509D02*
X0116663Y0080509D01*
X0116663Y0078543D02*
X0119655Y0078543D01*
X0116663Y0078543D02*
X0116663Y0079133D01*
X0119655Y0079133D01*
X0119655Y0078543D01*
X0119655Y0078739D02*
X0116663Y0078739D01*
X0116663Y0078935D02*
X0119655Y0078935D01*
X0119655Y0079131D02*
X0116663Y0079131D01*
X0116663Y0077165D02*
X0119655Y0077165D01*
X0116663Y0077165D02*
X0116663Y0077755D01*
X0119655Y0077755D01*
X0119655Y0077165D01*
X0119655Y0077361D02*
X0116663Y0077361D01*
X0116663Y0077557D02*
X0119655Y0077557D01*
X0119655Y0077753D02*
X0116663Y0077753D01*
X0115817Y0075531D02*
X0115817Y0072539D01*
X0115817Y0075531D02*
X0116407Y0075531D01*
X0116407Y0072539D01*
X0115817Y0072539D01*
X0115817Y0072735D02*
X0116407Y0072735D01*
X0116407Y0072931D02*
X0115817Y0072931D01*
X0115817Y0073127D02*
X0116407Y0073127D01*
X0116407Y0073323D02*
X0115817Y0073323D01*
X0115817Y0073519D02*
X0116407Y0073519D01*
X0116407Y0073715D02*
X0115817Y0073715D01*
X0115817Y0073911D02*
X0116407Y0073911D01*
X0116407Y0074107D02*
X0115817Y0074107D01*
X0115817Y0074303D02*
X0116407Y0074303D01*
X0116407Y0074499D02*
X0115817Y0074499D01*
X0115817Y0074695D02*
X0116407Y0074695D01*
X0116407Y0074891D02*
X0115817Y0074891D01*
X0115817Y0075087D02*
X0116407Y0075087D01*
X0116407Y0075283D02*
X0115817Y0075283D01*
X0115817Y0075479D02*
X0116407Y0075479D01*
X0117194Y0075531D02*
X0117194Y0072539D01*
X0117194Y0075531D02*
X0117784Y0075531D01*
X0117784Y0072539D01*
X0117194Y0072539D01*
X0117194Y0072735D02*
X0117784Y0072735D01*
X0117784Y0072931D02*
X0117194Y0072931D01*
X0117194Y0073127D02*
X0117784Y0073127D01*
X0117784Y0073323D02*
X0117194Y0073323D01*
X0117194Y0073519D02*
X0117784Y0073519D01*
X0117784Y0073715D02*
X0117194Y0073715D01*
X0117194Y0073911D02*
X0117784Y0073911D01*
X0117784Y0074107D02*
X0117194Y0074107D01*
X0117194Y0074303D02*
X0117784Y0074303D01*
X0117784Y0074499D02*
X0117194Y0074499D01*
X0117194Y0074695D02*
X0117784Y0074695D01*
X0117784Y0074891D02*
X0117194Y0074891D01*
X0117194Y0075087D02*
X0117784Y0075087D01*
X0117784Y0075283D02*
X0117194Y0075283D01*
X0117194Y0075479D02*
X0117784Y0075479D01*
X0114439Y0075531D02*
X0114439Y0072539D01*
X0114439Y0075531D02*
X0115029Y0075531D01*
X0115029Y0072539D01*
X0114439Y0072539D01*
X0114439Y0072735D02*
X0115029Y0072735D01*
X0115029Y0072931D02*
X0114439Y0072931D01*
X0114439Y0073127D02*
X0115029Y0073127D01*
X0115029Y0073323D02*
X0114439Y0073323D01*
X0114439Y0073519D02*
X0115029Y0073519D01*
X0115029Y0073715D02*
X0114439Y0073715D01*
X0114439Y0073911D02*
X0115029Y0073911D01*
X0115029Y0074107D02*
X0114439Y0074107D01*
X0114439Y0074303D02*
X0115029Y0074303D01*
X0115029Y0074499D02*
X0114439Y0074499D01*
X0114439Y0074695D02*
X0115029Y0074695D01*
X0115029Y0074891D02*
X0114439Y0074891D01*
X0114439Y0075087D02*
X0115029Y0075087D01*
X0115029Y0075283D02*
X0114439Y0075283D01*
X0114439Y0075479D02*
X0115029Y0075479D01*
X0113061Y0075531D02*
X0113061Y0072539D01*
X0113061Y0075531D02*
X0113651Y0075531D01*
X0113651Y0072539D01*
X0113061Y0072539D01*
X0113061Y0072735D02*
X0113651Y0072735D01*
X0113651Y0072931D02*
X0113061Y0072931D01*
X0113061Y0073127D02*
X0113651Y0073127D01*
X0113651Y0073323D02*
X0113061Y0073323D01*
X0113061Y0073519D02*
X0113651Y0073519D01*
X0113651Y0073715D02*
X0113061Y0073715D01*
X0113061Y0073911D02*
X0113651Y0073911D01*
X0113651Y0074107D02*
X0113061Y0074107D01*
X0113061Y0074303D02*
X0113651Y0074303D01*
X0113651Y0074499D02*
X0113061Y0074499D01*
X0113061Y0074695D02*
X0113651Y0074695D01*
X0113651Y0074891D02*
X0113061Y0074891D01*
X0113061Y0075087D02*
X0113651Y0075087D01*
X0113651Y0075283D02*
X0113061Y0075283D01*
X0113061Y0075479D02*
X0113651Y0075479D01*
X0111683Y0075531D02*
X0111683Y0072539D01*
X0111683Y0075531D02*
X0112273Y0075531D01*
X0112273Y0072539D01*
X0111683Y0072539D01*
X0111683Y0072735D02*
X0112273Y0072735D01*
X0112273Y0072931D02*
X0111683Y0072931D01*
X0111683Y0073127D02*
X0112273Y0073127D01*
X0112273Y0073323D02*
X0111683Y0073323D01*
X0111683Y0073519D02*
X0112273Y0073519D01*
X0112273Y0073715D02*
X0111683Y0073715D01*
X0111683Y0073911D02*
X0112273Y0073911D01*
X0112273Y0074107D02*
X0111683Y0074107D01*
X0111683Y0074303D02*
X0112273Y0074303D01*
X0112273Y0074499D02*
X0111683Y0074499D01*
X0111683Y0074695D02*
X0112273Y0074695D01*
X0112273Y0074891D02*
X0111683Y0074891D01*
X0111683Y0075087D02*
X0112273Y0075087D01*
X0112273Y0075283D02*
X0111683Y0075283D01*
X0111683Y0075479D02*
X0112273Y0075479D01*
X0110305Y0075531D02*
X0110305Y0072539D01*
X0110305Y0075531D02*
X0110895Y0075531D01*
X0110895Y0072539D01*
X0110305Y0072539D01*
X0110305Y0072735D02*
X0110895Y0072735D01*
X0110895Y0072931D02*
X0110305Y0072931D01*
X0110305Y0073127D02*
X0110895Y0073127D01*
X0110895Y0073323D02*
X0110305Y0073323D01*
X0110305Y0073519D02*
X0110895Y0073519D01*
X0110895Y0073715D02*
X0110305Y0073715D01*
X0110305Y0073911D02*
X0110895Y0073911D01*
X0110895Y0074107D02*
X0110305Y0074107D01*
X0110305Y0074303D02*
X0110895Y0074303D01*
X0110895Y0074499D02*
X0110305Y0074499D01*
X0110305Y0074695D02*
X0110895Y0074695D01*
X0110895Y0074891D02*
X0110305Y0074891D01*
X0110305Y0075087D02*
X0110895Y0075087D01*
X0110895Y0075283D02*
X0110305Y0075283D01*
X0110305Y0075479D02*
X0110895Y0075479D01*
X0108927Y0075531D02*
X0108927Y0072539D01*
X0108927Y0075531D02*
X0109517Y0075531D01*
X0109517Y0072539D01*
X0108927Y0072539D01*
X0108927Y0072735D02*
X0109517Y0072735D01*
X0109517Y0072931D02*
X0108927Y0072931D01*
X0108927Y0073127D02*
X0109517Y0073127D01*
X0109517Y0073323D02*
X0108927Y0073323D01*
X0108927Y0073519D02*
X0109517Y0073519D01*
X0109517Y0073715D02*
X0108927Y0073715D01*
X0108927Y0073911D02*
X0109517Y0073911D01*
X0109517Y0074107D02*
X0108927Y0074107D01*
X0108927Y0074303D02*
X0109517Y0074303D01*
X0109517Y0074499D02*
X0108927Y0074499D01*
X0108927Y0074695D02*
X0109517Y0074695D01*
X0109517Y0074891D02*
X0108927Y0074891D01*
X0108927Y0075087D02*
X0109517Y0075087D01*
X0109517Y0075283D02*
X0108927Y0075283D01*
X0108927Y0075479D02*
X0109517Y0075479D01*
X0107549Y0075531D02*
X0107549Y0072539D01*
X0107549Y0075531D02*
X0108139Y0075531D01*
X0108139Y0072539D01*
X0107549Y0072539D01*
X0107549Y0072735D02*
X0108139Y0072735D01*
X0108139Y0072931D02*
X0107549Y0072931D01*
X0107549Y0073127D02*
X0108139Y0073127D01*
X0108139Y0073323D02*
X0107549Y0073323D01*
X0107549Y0073519D02*
X0108139Y0073519D01*
X0108139Y0073715D02*
X0107549Y0073715D01*
X0107549Y0073911D02*
X0108139Y0073911D01*
X0108139Y0074107D02*
X0107549Y0074107D01*
X0107549Y0074303D02*
X0108139Y0074303D01*
X0108139Y0074499D02*
X0107549Y0074499D01*
X0107549Y0074695D02*
X0108139Y0074695D01*
X0108139Y0074891D02*
X0107549Y0074891D01*
X0107549Y0075087D02*
X0108139Y0075087D01*
X0108139Y0075283D02*
X0107549Y0075283D01*
X0107549Y0075479D02*
X0108139Y0075479D01*
X0106171Y0075531D02*
X0106171Y0072539D01*
X0106171Y0075531D02*
X0106761Y0075531D01*
X0106761Y0072539D01*
X0106171Y0072539D01*
X0106171Y0072735D02*
X0106761Y0072735D01*
X0106761Y0072931D02*
X0106171Y0072931D01*
X0106171Y0073127D02*
X0106761Y0073127D01*
X0106761Y0073323D02*
X0106171Y0073323D01*
X0106171Y0073519D02*
X0106761Y0073519D01*
X0106761Y0073715D02*
X0106171Y0073715D01*
X0106171Y0073911D02*
X0106761Y0073911D01*
X0106761Y0074107D02*
X0106171Y0074107D01*
X0106171Y0074303D02*
X0106761Y0074303D01*
X0106761Y0074499D02*
X0106171Y0074499D01*
X0106171Y0074695D02*
X0106761Y0074695D01*
X0106761Y0074891D02*
X0106171Y0074891D01*
X0106171Y0075087D02*
X0106761Y0075087D01*
X0106761Y0075283D02*
X0106171Y0075283D01*
X0106171Y0075479D02*
X0106761Y0075479D01*
X0104793Y0075531D02*
X0104793Y0072539D01*
X0104793Y0075531D02*
X0105383Y0075531D01*
X0105383Y0072539D01*
X0104793Y0072539D01*
X0104793Y0072735D02*
X0105383Y0072735D01*
X0105383Y0072931D02*
X0104793Y0072931D01*
X0104793Y0073127D02*
X0105383Y0073127D01*
X0105383Y0073323D02*
X0104793Y0073323D01*
X0104793Y0073519D02*
X0105383Y0073519D01*
X0105383Y0073715D02*
X0104793Y0073715D01*
X0104793Y0073911D02*
X0105383Y0073911D01*
X0105383Y0074107D02*
X0104793Y0074107D01*
X0104793Y0074303D02*
X0105383Y0074303D01*
X0105383Y0074499D02*
X0104793Y0074499D01*
X0104793Y0074695D02*
X0105383Y0074695D01*
X0105383Y0074891D02*
X0104793Y0074891D01*
X0104793Y0075087D02*
X0105383Y0075087D01*
X0105383Y0075283D02*
X0104793Y0075283D01*
X0104793Y0075479D02*
X0105383Y0075479D01*
X0103415Y0075531D02*
X0103415Y0072539D01*
X0103415Y0075531D02*
X0104005Y0075531D01*
X0104005Y0072539D01*
X0103415Y0072539D01*
X0103415Y0072735D02*
X0104005Y0072735D01*
X0104005Y0072931D02*
X0103415Y0072931D01*
X0103415Y0073127D02*
X0104005Y0073127D01*
X0104005Y0073323D02*
X0103415Y0073323D01*
X0103415Y0073519D02*
X0104005Y0073519D01*
X0104005Y0073715D02*
X0103415Y0073715D01*
X0103415Y0073911D02*
X0104005Y0073911D01*
X0104005Y0074107D02*
X0103415Y0074107D01*
X0103415Y0074303D02*
X0104005Y0074303D01*
X0104005Y0074499D02*
X0103415Y0074499D01*
X0103415Y0074695D02*
X0104005Y0074695D01*
X0104005Y0074891D02*
X0103415Y0074891D01*
X0103415Y0075087D02*
X0104005Y0075087D01*
X0104005Y0075283D02*
X0103415Y0075283D01*
X0103415Y0075479D02*
X0104005Y0075479D01*
X0102037Y0075531D02*
X0102037Y0072539D01*
X0102037Y0075531D02*
X0102627Y0075531D01*
X0102627Y0072539D01*
X0102037Y0072539D01*
X0102037Y0072735D02*
X0102627Y0072735D01*
X0102627Y0072931D02*
X0102037Y0072931D01*
X0102037Y0073127D02*
X0102627Y0073127D01*
X0102627Y0073323D02*
X0102037Y0073323D01*
X0102037Y0073519D02*
X0102627Y0073519D01*
X0102627Y0073715D02*
X0102037Y0073715D01*
X0102037Y0073911D02*
X0102627Y0073911D01*
X0102627Y0074107D02*
X0102037Y0074107D01*
X0102037Y0074303D02*
X0102627Y0074303D01*
X0102627Y0074499D02*
X0102037Y0074499D01*
X0102037Y0074695D02*
X0102627Y0074695D01*
X0102627Y0074891D02*
X0102037Y0074891D01*
X0102037Y0075087D02*
X0102627Y0075087D01*
X0102627Y0075283D02*
X0102037Y0075283D01*
X0102037Y0075479D02*
X0102627Y0075479D01*
X0100659Y0075531D02*
X0100659Y0072539D01*
X0100659Y0075531D02*
X0101249Y0075531D01*
X0101249Y0072539D01*
X0100659Y0072539D01*
X0100659Y0072735D02*
X0101249Y0072735D01*
X0101249Y0072931D02*
X0100659Y0072931D01*
X0100659Y0073127D02*
X0101249Y0073127D01*
X0101249Y0073323D02*
X0100659Y0073323D01*
X0100659Y0073519D02*
X0101249Y0073519D01*
X0101249Y0073715D02*
X0100659Y0073715D01*
X0100659Y0073911D02*
X0101249Y0073911D01*
X0101249Y0074107D02*
X0100659Y0074107D01*
X0100659Y0074303D02*
X0101249Y0074303D01*
X0101249Y0074499D02*
X0100659Y0074499D01*
X0100659Y0074695D02*
X0101249Y0074695D01*
X0101249Y0074891D02*
X0100659Y0074891D01*
X0100659Y0075087D02*
X0101249Y0075087D01*
X0101249Y0075283D02*
X0100659Y0075283D01*
X0100659Y0075479D02*
X0101249Y0075479D01*
X0099281Y0075531D02*
X0099281Y0072539D01*
X0099281Y0075531D02*
X0099871Y0075531D01*
X0099871Y0072539D01*
X0099281Y0072539D01*
X0099281Y0072735D02*
X0099871Y0072735D01*
X0099871Y0072931D02*
X0099281Y0072931D01*
X0099281Y0073127D02*
X0099871Y0073127D01*
X0099871Y0073323D02*
X0099281Y0073323D01*
X0099281Y0073519D02*
X0099871Y0073519D01*
X0099871Y0073715D02*
X0099281Y0073715D01*
X0099281Y0073911D02*
X0099871Y0073911D01*
X0099871Y0074107D02*
X0099281Y0074107D01*
X0099281Y0074303D02*
X0099871Y0074303D01*
X0099871Y0074499D02*
X0099281Y0074499D01*
X0099281Y0074695D02*
X0099871Y0074695D01*
X0099871Y0074891D02*
X0099281Y0074891D01*
X0099281Y0075087D02*
X0099871Y0075087D01*
X0099871Y0075283D02*
X0099281Y0075283D01*
X0099281Y0075479D02*
X0099871Y0075479D01*
X0100403Y0077165D02*
X0097411Y0077165D01*
X0097411Y0077755D01*
X0100403Y0077755D01*
X0100403Y0077165D01*
X0100403Y0077361D02*
X0097411Y0077361D01*
X0097411Y0077557D02*
X0100403Y0077557D01*
X0100403Y0077753D02*
X0097411Y0077753D01*
X0097411Y0078543D02*
X0100403Y0078543D01*
X0097411Y0078543D02*
X0097411Y0079133D01*
X0100403Y0079133D01*
X0100403Y0078543D01*
X0100403Y0078739D02*
X0097411Y0078739D01*
X0097411Y0078935D02*
X0100403Y0078935D01*
X0100403Y0079131D02*
X0097411Y0079131D01*
D24*
X0096033Y0051397D03*
X0101033Y0051397D03*
X0106033Y0051397D03*
X0091033Y0051397D03*
X0091033Y0030925D03*
X0096033Y0030925D03*
X0101033Y0030925D03*
X0106033Y0030925D03*
D25*
X0133415Y0104921D03*
X0133415Y0112401D03*
X0133415Y0119921D03*
X0133415Y0127401D03*
X0143651Y0127401D03*
X0143651Y0123661D03*
X0143651Y0119921D03*
X0143651Y0112401D03*
X0143651Y0108661D03*
X0143651Y0104921D03*
D26*
X0062273Y0143543D03*
X0054793Y0143543D03*
X0054793Y0153779D03*
X0058533Y0153779D03*
X0062273Y0153779D03*
D27*
X0097686Y0116161D03*
X0104379Y0116161D03*
X0066879Y0043661D03*
X0060186Y0043661D03*
X0061879Y0033661D03*
X0055186Y0033661D03*
D28*
X0063474Y0051161D03*
X0068592Y0051161D03*
X0073474Y0056161D03*
X0078592Y0056161D03*
X0093474Y0066161D03*
X0098592Y0066161D03*
X0091092Y0076161D03*
X0085974Y0076161D03*
X0078592Y0086161D03*
X0073474Y0086161D03*
X0083474Y0088661D03*
X0088592Y0088661D03*
X0113474Y0116161D03*
X0118592Y0116161D03*
X0125974Y0133661D03*
X0131092Y0133661D03*
X0131092Y0141161D03*
X0125974Y0141161D03*
X0128474Y0151161D03*
X0133592Y0151161D03*
X0140974Y0148661D03*
X0146092Y0148661D03*
X0148592Y0098661D03*
X0143474Y0098661D03*
X0133592Y0098661D03*
X0128474Y0098661D03*
X0128474Y0091161D03*
X0133592Y0091161D03*
X0133592Y0083661D03*
X0128474Y0083661D03*
X0128474Y0077161D03*
X0133592Y0077161D03*
X0133592Y0070161D03*
X0128474Y0070161D03*
X0128474Y0063161D03*
X0133592Y0063161D03*
X0143474Y0073661D03*
X0148592Y0073661D03*
X0061092Y0161161D03*
X0055974Y0161161D03*
X0041092Y0098661D03*
X0035974Y0098661D03*
X0035974Y0091161D03*
X0041092Y0091161D03*
X0041092Y0078661D03*
X0035974Y0078661D03*
X0035974Y0071161D03*
X0041092Y0071161D03*
X0041092Y0063661D03*
X0035974Y0063661D03*
X0035974Y0056161D03*
X0041092Y0056161D03*
D29*
X0053533Y0053720D03*
X0053533Y0048602D03*
X0071033Y0036220D03*
X0071033Y0031102D03*
X0076033Y0043602D03*
X0076033Y0048720D03*
X0083533Y0048720D03*
X0083533Y0043602D03*
X0112033Y0041102D03*
X0112033Y0046220D03*
X0121033Y0063602D03*
X0121033Y0068720D03*
X0118533Y0103602D03*
X0118533Y0108720D03*
X0111033Y0108720D03*
X0111033Y0103602D03*
X0103533Y0103602D03*
X0103533Y0108720D03*
X0081033Y0111102D03*
X0081033Y0116220D03*
X0073533Y0116220D03*
X0073533Y0111102D03*
X0081033Y0103720D03*
X0081033Y0098602D03*
X0063533Y0111102D03*
X0063533Y0116220D03*
X0053533Y0116220D03*
X0053533Y0111102D03*
X0053533Y0103720D03*
X0053533Y0098602D03*
X0061033Y0098602D03*
X0061033Y0103720D03*
X0058533Y0091220D03*
X0058533Y0086102D03*
X0046033Y0111102D03*
X0046033Y0116220D03*
X0036033Y0116220D03*
X0036033Y0111102D03*
X0036033Y0131102D03*
X0036033Y0136220D03*
X0046033Y0136220D03*
X0046033Y0131102D03*
X0056033Y0131102D03*
X0056033Y0136220D03*
X0063533Y0136220D03*
X0063533Y0131102D03*
X0121033Y0146102D03*
X0121033Y0151220D03*
X0138533Y0141220D03*
X0138533Y0136102D03*
X0151033Y0126220D03*
X0151033Y0121102D03*
X0151033Y0111220D03*
X0151033Y0106102D03*
X0126033Y0106102D03*
X0126033Y0111220D03*
X0151033Y0148602D03*
X0151033Y0153720D03*
D30*
X0123533Y0127007D03*
X0123533Y0120315D03*
X0096033Y0109507D03*
X0096033Y0102815D03*
X0051033Y0092007D03*
X0051033Y0085315D03*
X0046033Y0052007D03*
X0046033Y0045315D03*
X0078533Y0037007D03*
X0078533Y0030315D03*
D31*
X0079379Y0066437D03*
X0072686Y0066437D03*
X0072686Y0075885D03*
X0079379Y0075885D03*
X0142686Y0081437D03*
X0149379Y0081437D03*
X0149379Y0090885D03*
X0142686Y0090885D03*
D32*
X0061486Y0123661D03*
X0055580Y0123661D03*
X0043986Y0123661D03*
X0038080Y0123661D03*
D33*
X0126025Y0043667D03*
D34*
X0123273Y0053421D02*
X0123273Y0056303D01*
X0123793Y0056303D01*
X0123793Y0053421D01*
X0123273Y0053421D01*
X0123273Y0054633D02*
X0123793Y0054633D01*
X0123793Y0055845D02*
X0123273Y0055845D01*
X0118273Y0056303D02*
X0118273Y0053421D01*
X0118273Y0056303D02*
X0118793Y0056303D01*
X0118793Y0053421D01*
X0118273Y0053421D01*
X0118273Y0054633D02*
X0118793Y0054633D01*
X0118793Y0055845D02*
X0118273Y0055845D01*
X0128273Y0056303D02*
X0128273Y0053421D01*
X0128273Y0056303D02*
X0128793Y0056303D01*
X0128793Y0053421D01*
X0128273Y0053421D01*
X0128273Y0054633D02*
X0128793Y0054633D01*
X0128793Y0055845D02*
X0128273Y0055845D01*
X0133273Y0056303D02*
X0133273Y0053421D01*
X0133273Y0056303D02*
X0133793Y0056303D01*
X0133793Y0053421D01*
X0133273Y0053421D01*
X0133273Y0054633D02*
X0133793Y0054633D01*
X0133793Y0055845D02*
X0133273Y0055845D01*
X0133273Y0033901D02*
X0133273Y0031019D01*
X0133273Y0033901D02*
X0133793Y0033901D01*
X0133793Y0031019D01*
X0133273Y0031019D01*
X0133273Y0032231D02*
X0133793Y0032231D01*
X0133793Y0033443D02*
X0133273Y0033443D01*
X0128273Y0033901D02*
X0128273Y0031019D01*
X0128273Y0033901D02*
X0128793Y0033901D01*
X0128793Y0031019D01*
X0128273Y0031019D01*
X0128273Y0032231D02*
X0128793Y0032231D01*
X0128793Y0033443D02*
X0128273Y0033443D01*
X0123273Y0033901D02*
X0123273Y0031019D01*
X0123273Y0033901D02*
X0123793Y0033901D01*
X0123793Y0031019D01*
X0123273Y0031019D01*
X0123273Y0032231D02*
X0123793Y0032231D01*
X0123793Y0033443D02*
X0123273Y0033443D01*
X0118273Y0033901D02*
X0118273Y0031019D01*
X0118273Y0033901D02*
X0118793Y0033901D01*
X0118793Y0031019D01*
X0118273Y0031019D01*
X0118273Y0032231D02*
X0118793Y0032231D01*
X0118793Y0033443D02*
X0118273Y0033443D01*
D35*
X0144793Y0134724D03*
X0148533Y0142992D03*
X0152273Y0134724D03*
X0044773Y0144724D03*
X0037293Y0144724D03*
X0041033Y0152992D03*
D36*
X0068474Y0104350D03*
X0071033Y0104350D03*
X0073592Y0104350D03*
X0073592Y0098011D03*
X0071033Y0098011D03*
X0068474Y0098011D03*
D37*
X0123808Y0160315D03*
X0123808Y0167007D03*
X0133257Y0167007D03*
X0133257Y0160315D03*
D38*
X0141702Y0065216D03*
X0150363Y0065216D03*
X0150363Y0052106D03*
X0141702Y0052106D03*
M02*
