G75*
%MOIN*%
%OFA0B0*%
%FSLAX25Y25*%
%IPPOS*%
%LPD*%
%AMOC8*
5,1,8,0,0,1.08239X$1,22.5*
%
%ADD10C,0.00000*%
%ADD11R,0.01181X0.03937*%
D10*
X0031033Y0023661D02*
X0031033Y0173661D01*
X0156033Y0173661D01*
X0156033Y0023661D01*
X0031033Y0023661D01*
X0034734Y0033661D02*
X0034736Y0033819D01*
X0034742Y0033977D01*
X0034752Y0034135D01*
X0034766Y0034293D01*
X0034784Y0034450D01*
X0034805Y0034607D01*
X0034831Y0034763D01*
X0034861Y0034919D01*
X0034894Y0035074D01*
X0034932Y0035227D01*
X0034973Y0035380D01*
X0035018Y0035532D01*
X0035067Y0035683D01*
X0035120Y0035832D01*
X0035176Y0035980D01*
X0035236Y0036126D01*
X0035300Y0036271D01*
X0035368Y0036414D01*
X0035439Y0036556D01*
X0035513Y0036696D01*
X0035591Y0036833D01*
X0035673Y0036969D01*
X0035757Y0037103D01*
X0035846Y0037234D01*
X0035937Y0037363D01*
X0036032Y0037490D01*
X0036129Y0037615D01*
X0036230Y0037737D01*
X0036334Y0037856D01*
X0036441Y0037973D01*
X0036551Y0038087D01*
X0036664Y0038198D01*
X0036779Y0038307D01*
X0036897Y0038412D01*
X0037018Y0038514D01*
X0037141Y0038614D01*
X0037267Y0038710D01*
X0037395Y0038803D01*
X0037525Y0038893D01*
X0037658Y0038979D01*
X0037793Y0039063D01*
X0037929Y0039142D01*
X0038068Y0039219D01*
X0038209Y0039291D01*
X0038351Y0039361D01*
X0038495Y0039426D01*
X0038641Y0039488D01*
X0038788Y0039546D01*
X0038937Y0039601D01*
X0039087Y0039652D01*
X0039238Y0039699D01*
X0039390Y0039742D01*
X0039543Y0039781D01*
X0039698Y0039817D01*
X0039853Y0039848D01*
X0040009Y0039876D01*
X0040165Y0039900D01*
X0040322Y0039920D01*
X0040480Y0039936D01*
X0040637Y0039948D01*
X0040796Y0039956D01*
X0040954Y0039960D01*
X0041112Y0039960D01*
X0041270Y0039956D01*
X0041429Y0039948D01*
X0041586Y0039936D01*
X0041744Y0039920D01*
X0041901Y0039900D01*
X0042057Y0039876D01*
X0042213Y0039848D01*
X0042368Y0039817D01*
X0042523Y0039781D01*
X0042676Y0039742D01*
X0042828Y0039699D01*
X0042979Y0039652D01*
X0043129Y0039601D01*
X0043278Y0039546D01*
X0043425Y0039488D01*
X0043571Y0039426D01*
X0043715Y0039361D01*
X0043857Y0039291D01*
X0043998Y0039219D01*
X0044137Y0039142D01*
X0044273Y0039063D01*
X0044408Y0038979D01*
X0044541Y0038893D01*
X0044671Y0038803D01*
X0044799Y0038710D01*
X0044925Y0038614D01*
X0045048Y0038514D01*
X0045169Y0038412D01*
X0045287Y0038307D01*
X0045402Y0038198D01*
X0045515Y0038087D01*
X0045625Y0037973D01*
X0045732Y0037856D01*
X0045836Y0037737D01*
X0045937Y0037615D01*
X0046034Y0037490D01*
X0046129Y0037363D01*
X0046220Y0037234D01*
X0046309Y0037103D01*
X0046393Y0036969D01*
X0046475Y0036833D01*
X0046553Y0036696D01*
X0046627Y0036556D01*
X0046698Y0036414D01*
X0046766Y0036271D01*
X0046830Y0036126D01*
X0046890Y0035980D01*
X0046946Y0035832D01*
X0046999Y0035683D01*
X0047048Y0035532D01*
X0047093Y0035380D01*
X0047134Y0035227D01*
X0047172Y0035074D01*
X0047205Y0034919D01*
X0047235Y0034763D01*
X0047261Y0034607D01*
X0047282Y0034450D01*
X0047300Y0034293D01*
X0047314Y0034135D01*
X0047324Y0033977D01*
X0047330Y0033819D01*
X0047332Y0033661D01*
X0047330Y0033503D01*
X0047324Y0033345D01*
X0047314Y0033187D01*
X0047300Y0033029D01*
X0047282Y0032872D01*
X0047261Y0032715D01*
X0047235Y0032559D01*
X0047205Y0032403D01*
X0047172Y0032248D01*
X0047134Y0032095D01*
X0047093Y0031942D01*
X0047048Y0031790D01*
X0046999Y0031639D01*
X0046946Y0031490D01*
X0046890Y0031342D01*
X0046830Y0031196D01*
X0046766Y0031051D01*
X0046698Y0030908D01*
X0046627Y0030766D01*
X0046553Y0030626D01*
X0046475Y0030489D01*
X0046393Y0030353D01*
X0046309Y0030219D01*
X0046220Y0030088D01*
X0046129Y0029959D01*
X0046034Y0029832D01*
X0045937Y0029707D01*
X0045836Y0029585D01*
X0045732Y0029466D01*
X0045625Y0029349D01*
X0045515Y0029235D01*
X0045402Y0029124D01*
X0045287Y0029015D01*
X0045169Y0028910D01*
X0045048Y0028808D01*
X0044925Y0028708D01*
X0044799Y0028612D01*
X0044671Y0028519D01*
X0044541Y0028429D01*
X0044408Y0028343D01*
X0044273Y0028259D01*
X0044137Y0028180D01*
X0043998Y0028103D01*
X0043857Y0028031D01*
X0043715Y0027961D01*
X0043571Y0027896D01*
X0043425Y0027834D01*
X0043278Y0027776D01*
X0043129Y0027721D01*
X0042979Y0027670D01*
X0042828Y0027623D01*
X0042676Y0027580D01*
X0042523Y0027541D01*
X0042368Y0027505D01*
X0042213Y0027474D01*
X0042057Y0027446D01*
X0041901Y0027422D01*
X0041744Y0027402D01*
X0041586Y0027386D01*
X0041429Y0027374D01*
X0041270Y0027366D01*
X0041112Y0027362D01*
X0040954Y0027362D01*
X0040796Y0027366D01*
X0040637Y0027374D01*
X0040480Y0027386D01*
X0040322Y0027402D01*
X0040165Y0027422D01*
X0040009Y0027446D01*
X0039853Y0027474D01*
X0039698Y0027505D01*
X0039543Y0027541D01*
X0039390Y0027580D01*
X0039238Y0027623D01*
X0039087Y0027670D01*
X0038937Y0027721D01*
X0038788Y0027776D01*
X0038641Y0027834D01*
X0038495Y0027896D01*
X0038351Y0027961D01*
X0038209Y0028031D01*
X0038068Y0028103D01*
X0037929Y0028180D01*
X0037793Y0028259D01*
X0037658Y0028343D01*
X0037525Y0028429D01*
X0037395Y0028519D01*
X0037267Y0028612D01*
X0037141Y0028708D01*
X0037018Y0028808D01*
X0036897Y0028910D01*
X0036779Y0029015D01*
X0036664Y0029124D01*
X0036551Y0029235D01*
X0036441Y0029349D01*
X0036334Y0029466D01*
X0036230Y0029585D01*
X0036129Y0029707D01*
X0036032Y0029832D01*
X0035937Y0029959D01*
X0035846Y0030088D01*
X0035757Y0030219D01*
X0035673Y0030353D01*
X0035591Y0030489D01*
X0035513Y0030626D01*
X0035439Y0030766D01*
X0035368Y0030908D01*
X0035300Y0031051D01*
X0035236Y0031196D01*
X0035176Y0031342D01*
X0035120Y0031490D01*
X0035067Y0031639D01*
X0035018Y0031790D01*
X0034973Y0031942D01*
X0034932Y0032095D01*
X0034894Y0032248D01*
X0034861Y0032403D01*
X0034831Y0032559D01*
X0034805Y0032715D01*
X0034784Y0032872D01*
X0034766Y0033029D01*
X0034752Y0033187D01*
X0034742Y0033345D01*
X0034736Y0033503D01*
X0034734Y0033661D01*
X0139734Y0033661D02*
X0139736Y0033819D01*
X0139742Y0033977D01*
X0139752Y0034135D01*
X0139766Y0034293D01*
X0139784Y0034450D01*
X0139805Y0034607D01*
X0139831Y0034763D01*
X0139861Y0034919D01*
X0139894Y0035074D01*
X0139932Y0035227D01*
X0139973Y0035380D01*
X0140018Y0035532D01*
X0140067Y0035683D01*
X0140120Y0035832D01*
X0140176Y0035980D01*
X0140236Y0036126D01*
X0140300Y0036271D01*
X0140368Y0036414D01*
X0140439Y0036556D01*
X0140513Y0036696D01*
X0140591Y0036833D01*
X0140673Y0036969D01*
X0140757Y0037103D01*
X0140846Y0037234D01*
X0140937Y0037363D01*
X0141032Y0037490D01*
X0141129Y0037615D01*
X0141230Y0037737D01*
X0141334Y0037856D01*
X0141441Y0037973D01*
X0141551Y0038087D01*
X0141664Y0038198D01*
X0141779Y0038307D01*
X0141897Y0038412D01*
X0142018Y0038514D01*
X0142141Y0038614D01*
X0142267Y0038710D01*
X0142395Y0038803D01*
X0142525Y0038893D01*
X0142658Y0038979D01*
X0142793Y0039063D01*
X0142929Y0039142D01*
X0143068Y0039219D01*
X0143209Y0039291D01*
X0143351Y0039361D01*
X0143495Y0039426D01*
X0143641Y0039488D01*
X0143788Y0039546D01*
X0143937Y0039601D01*
X0144087Y0039652D01*
X0144238Y0039699D01*
X0144390Y0039742D01*
X0144543Y0039781D01*
X0144698Y0039817D01*
X0144853Y0039848D01*
X0145009Y0039876D01*
X0145165Y0039900D01*
X0145322Y0039920D01*
X0145480Y0039936D01*
X0145637Y0039948D01*
X0145796Y0039956D01*
X0145954Y0039960D01*
X0146112Y0039960D01*
X0146270Y0039956D01*
X0146429Y0039948D01*
X0146586Y0039936D01*
X0146744Y0039920D01*
X0146901Y0039900D01*
X0147057Y0039876D01*
X0147213Y0039848D01*
X0147368Y0039817D01*
X0147523Y0039781D01*
X0147676Y0039742D01*
X0147828Y0039699D01*
X0147979Y0039652D01*
X0148129Y0039601D01*
X0148278Y0039546D01*
X0148425Y0039488D01*
X0148571Y0039426D01*
X0148715Y0039361D01*
X0148857Y0039291D01*
X0148998Y0039219D01*
X0149137Y0039142D01*
X0149273Y0039063D01*
X0149408Y0038979D01*
X0149541Y0038893D01*
X0149671Y0038803D01*
X0149799Y0038710D01*
X0149925Y0038614D01*
X0150048Y0038514D01*
X0150169Y0038412D01*
X0150287Y0038307D01*
X0150402Y0038198D01*
X0150515Y0038087D01*
X0150625Y0037973D01*
X0150732Y0037856D01*
X0150836Y0037737D01*
X0150937Y0037615D01*
X0151034Y0037490D01*
X0151129Y0037363D01*
X0151220Y0037234D01*
X0151309Y0037103D01*
X0151393Y0036969D01*
X0151475Y0036833D01*
X0151553Y0036696D01*
X0151627Y0036556D01*
X0151698Y0036414D01*
X0151766Y0036271D01*
X0151830Y0036126D01*
X0151890Y0035980D01*
X0151946Y0035832D01*
X0151999Y0035683D01*
X0152048Y0035532D01*
X0152093Y0035380D01*
X0152134Y0035227D01*
X0152172Y0035074D01*
X0152205Y0034919D01*
X0152235Y0034763D01*
X0152261Y0034607D01*
X0152282Y0034450D01*
X0152300Y0034293D01*
X0152314Y0034135D01*
X0152324Y0033977D01*
X0152330Y0033819D01*
X0152332Y0033661D01*
X0152330Y0033503D01*
X0152324Y0033345D01*
X0152314Y0033187D01*
X0152300Y0033029D01*
X0152282Y0032872D01*
X0152261Y0032715D01*
X0152235Y0032559D01*
X0152205Y0032403D01*
X0152172Y0032248D01*
X0152134Y0032095D01*
X0152093Y0031942D01*
X0152048Y0031790D01*
X0151999Y0031639D01*
X0151946Y0031490D01*
X0151890Y0031342D01*
X0151830Y0031196D01*
X0151766Y0031051D01*
X0151698Y0030908D01*
X0151627Y0030766D01*
X0151553Y0030626D01*
X0151475Y0030489D01*
X0151393Y0030353D01*
X0151309Y0030219D01*
X0151220Y0030088D01*
X0151129Y0029959D01*
X0151034Y0029832D01*
X0150937Y0029707D01*
X0150836Y0029585D01*
X0150732Y0029466D01*
X0150625Y0029349D01*
X0150515Y0029235D01*
X0150402Y0029124D01*
X0150287Y0029015D01*
X0150169Y0028910D01*
X0150048Y0028808D01*
X0149925Y0028708D01*
X0149799Y0028612D01*
X0149671Y0028519D01*
X0149541Y0028429D01*
X0149408Y0028343D01*
X0149273Y0028259D01*
X0149137Y0028180D01*
X0148998Y0028103D01*
X0148857Y0028031D01*
X0148715Y0027961D01*
X0148571Y0027896D01*
X0148425Y0027834D01*
X0148278Y0027776D01*
X0148129Y0027721D01*
X0147979Y0027670D01*
X0147828Y0027623D01*
X0147676Y0027580D01*
X0147523Y0027541D01*
X0147368Y0027505D01*
X0147213Y0027474D01*
X0147057Y0027446D01*
X0146901Y0027422D01*
X0146744Y0027402D01*
X0146586Y0027386D01*
X0146429Y0027374D01*
X0146270Y0027366D01*
X0146112Y0027362D01*
X0145954Y0027362D01*
X0145796Y0027366D01*
X0145637Y0027374D01*
X0145480Y0027386D01*
X0145322Y0027402D01*
X0145165Y0027422D01*
X0145009Y0027446D01*
X0144853Y0027474D01*
X0144698Y0027505D01*
X0144543Y0027541D01*
X0144390Y0027580D01*
X0144238Y0027623D01*
X0144087Y0027670D01*
X0143937Y0027721D01*
X0143788Y0027776D01*
X0143641Y0027834D01*
X0143495Y0027896D01*
X0143351Y0027961D01*
X0143209Y0028031D01*
X0143068Y0028103D01*
X0142929Y0028180D01*
X0142793Y0028259D01*
X0142658Y0028343D01*
X0142525Y0028429D01*
X0142395Y0028519D01*
X0142267Y0028612D01*
X0142141Y0028708D01*
X0142018Y0028808D01*
X0141897Y0028910D01*
X0141779Y0029015D01*
X0141664Y0029124D01*
X0141551Y0029235D01*
X0141441Y0029349D01*
X0141334Y0029466D01*
X0141230Y0029585D01*
X0141129Y0029707D01*
X0141032Y0029832D01*
X0140937Y0029959D01*
X0140846Y0030088D01*
X0140757Y0030219D01*
X0140673Y0030353D01*
X0140591Y0030489D01*
X0140513Y0030626D01*
X0140439Y0030766D01*
X0140368Y0030908D01*
X0140300Y0031051D01*
X0140236Y0031196D01*
X0140176Y0031342D01*
X0140120Y0031490D01*
X0140067Y0031639D01*
X0140018Y0031790D01*
X0139973Y0031942D01*
X0139932Y0032095D01*
X0139894Y0032248D01*
X0139861Y0032403D01*
X0139831Y0032559D01*
X0139805Y0032715D01*
X0139784Y0032872D01*
X0139766Y0033029D01*
X0139752Y0033187D01*
X0139742Y0033345D01*
X0139736Y0033503D01*
X0139734Y0033661D01*
X0139734Y0163661D02*
X0139736Y0163819D01*
X0139742Y0163977D01*
X0139752Y0164135D01*
X0139766Y0164293D01*
X0139784Y0164450D01*
X0139805Y0164607D01*
X0139831Y0164763D01*
X0139861Y0164919D01*
X0139894Y0165074D01*
X0139932Y0165227D01*
X0139973Y0165380D01*
X0140018Y0165532D01*
X0140067Y0165683D01*
X0140120Y0165832D01*
X0140176Y0165980D01*
X0140236Y0166126D01*
X0140300Y0166271D01*
X0140368Y0166414D01*
X0140439Y0166556D01*
X0140513Y0166696D01*
X0140591Y0166833D01*
X0140673Y0166969D01*
X0140757Y0167103D01*
X0140846Y0167234D01*
X0140937Y0167363D01*
X0141032Y0167490D01*
X0141129Y0167615D01*
X0141230Y0167737D01*
X0141334Y0167856D01*
X0141441Y0167973D01*
X0141551Y0168087D01*
X0141664Y0168198D01*
X0141779Y0168307D01*
X0141897Y0168412D01*
X0142018Y0168514D01*
X0142141Y0168614D01*
X0142267Y0168710D01*
X0142395Y0168803D01*
X0142525Y0168893D01*
X0142658Y0168979D01*
X0142793Y0169063D01*
X0142929Y0169142D01*
X0143068Y0169219D01*
X0143209Y0169291D01*
X0143351Y0169361D01*
X0143495Y0169426D01*
X0143641Y0169488D01*
X0143788Y0169546D01*
X0143937Y0169601D01*
X0144087Y0169652D01*
X0144238Y0169699D01*
X0144390Y0169742D01*
X0144543Y0169781D01*
X0144698Y0169817D01*
X0144853Y0169848D01*
X0145009Y0169876D01*
X0145165Y0169900D01*
X0145322Y0169920D01*
X0145480Y0169936D01*
X0145637Y0169948D01*
X0145796Y0169956D01*
X0145954Y0169960D01*
X0146112Y0169960D01*
X0146270Y0169956D01*
X0146429Y0169948D01*
X0146586Y0169936D01*
X0146744Y0169920D01*
X0146901Y0169900D01*
X0147057Y0169876D01*
X0147213Y0169848D01*
X0147368Y0169817D01*
X0147523Y0169781D01*
X0147676Y0169742D01*
X0147828Y0169699D01*
X0147979Y0169652D01*
X0148129Y0169601D01*
X0148278Y0169546D01*
X0148425Y0169488D01*
X0148571Y0169426D01*
X0148715Y0169361D01*
X0148857Y0169291D01*
X0148998Y0169219D01*
X0149137Y0169142D01*
X0149273Y0169063D01*
X0149408Y0168979D01*
X0149541Y0168893D01*
X0149671Y0168803D01*
X0149799Y0168710D01*
X0149925Y0168614D01*
X0150048Y0168514D01*
X0150169Y0168412D01*
X0150287Y0168307D01*
X0150402Y0168198D01*
X0150515Y0168087D01*
X0150625Y0167973D01*
X0150732Y0167856D01*
X0150836Y0167737D01*
X0150937Y0167615D01*
X0151034Y0167490D01*
X0151129Y0167363D01*
X0151220Y0167234D01*
X0151309Y0167103D01*
X0151393Y0166969D01*
X0151475Y0166833D01*
X0151553Y0166696D01*
X0151627Y0166556D01*
X0151698Y0166414D01*
X0151766Y0166271D01*
X0151830Y0166126D01*
X0151890Y0165980D01*
X0151946Y0165832D01*
X0151999Y0165683D01*
X0152048Y0165532D01*
X0152093Y0165380D01*
X0152134Y0165227D01*
X0152172Y0165074D01*
X0152205Y0164919D01*
X0152235Y0164763D01*
X0152261Y0164607D01*
X0152282Y0164450D01*
X0152300Y0164293D01*
X0152314Y0164135D01*
X0152324Y0163977D01*
X0152330Y0163819D01*
X0152332Y0163661D01*
X0152330Y0163503D01*
X0152324Y0163345D01*
X0152314Y0163187D01*
X0152300Y0163029D01*
X0152282Y0162872D01*
X0152261Y0162715D01*
X0152235Y0162559D01*
X0152205Y0162403D01*
X0152172Y0162248D01*
X0152134Y0162095D01*
X0152093Y0161942D01*
X0152048Y0161790D01*
X0151999Y0161639D01*
X0151946Y0161490D01*
X0151890Y0161342D01*
X0151830Y0161196D01*
X0151766Y0161051D01*
X0151698Y0160908D01*
X0151627Y0160766D01*
X0151553Y0160626D01*
X0151475Y0160489D01*
X0151393Y0160353D01*
X0151309Y0160219D01*
X0151220Y0160088D01*
X0151129Y0159959D01*
X0151034Y0159832D01*
X0150937Y0159707D01*
X0150836Y0159585D01*
X0150732Y0159466D01*
X0150625Y0159349D01*
X0150515Y0159235D01*
X0150402Y0159124D01*
X0150287Y0159015D01*
X0150169Y0158910D01*
X0150048Y0158808D01*
X0149925Y0158708D01*
X0149799Y0158612D01*
X0149671Y0158519D01*
X0149541Y0158429D01*
X0149408Y0158343D01*
X0149273Y0158259D01*
X0149137Y0158180D01*
X0148998Y0158103D01*
X0148857Y0158031D01*
X0148715Y0157961D01*
X0148571Y0157896D01*
X0148425Y0157834D01*
X0148278Y0157776D01*
X0148129Y0157721D01*
X0147979Y0157670D01*
X0147828Y0157623D01*
X0147676Y0157580D01*
X0147523Y0157541D01*
X0147368Y0157505D01*
X0147213Y0157474D01*
X0147057Y0157446D01*
X0146901Y0157422D01*
X0146744Y0157402D01*
X0146586Y0157386D01*
X0146429Y0157374D01*
X0146270Y0157366D01*
X0146112Y0157362D01*
X0145954Y0157362D01*
X0145796Y0157366D01*
X0145637Y0157374D01*
X0145480Y0157386D01*
X0145322Y0157402D01*
X0145165Y0157422D01*
X0145009Y0157446D01*
X0144853Y0157474D01*
X0144698Y0157505D01*
X0144543Y0157541D01*
X0144390Y0157580D01*
X0144238Y0157623D01*
X0144087Y0157670D01*
X0143937Y0157721D01*
X0143788Y0157776D01*
X0143641Y0157834D01*
X0143495Y0157896D01*
X0143351Y0157961D01*
X0143209Y0158031D01*
X0143068Y0158103D01*
X0142929Y0158180D01*
X0142793Y0158259D01*
X0142658Y0158343D01*
X0142525Y0158429D01*
X0142395Y0158519D01*
X0142267Y0158612D01*
X0142141Y0158708D01*
X0142018Y0158808D01*
X0141897Y0158910D01*
X0141779Y0159015D01*
X0141664Y0159124D01*
X0141551Y0159235D01*
X0141441Y0159349D01*
X0141334Y0159466D01*
X0141230Y0159585D01*
X0141129Y0159707D01*
X0141032Y0159832D01*
X0140937Y0159959D01*
X0140846Y0160088D01*
X0140757Y0160219D01*
X0140673Y0160353D01*
X0140591Y0160489D01*
X0140513Y0160626D01*
X0140439Y0160766D01*
X0140368Y0160908D01*
X0140300Y0161051D01*
X0140236Y0161196D01*
X0140176Y0161342D01*
X0140120Y0161490D01*
X0140067Y0161639D01*
X0140018Y0161790D01*
X0139973Y0161942D01*
X0139932Y0162095D01*
X0139894Y0162248D01*
X0139861Y0162403D01*
X0139831Y0162559D01*
X0139805Y0162715D01*
X0139784Y0162872D01*
X0139766Y0163029D01*
X0139752Y0163187D01*
X0139742Y0163345D01*
X0139736Y0163503D01*
X0139734Y0163661D01*
X0034734Y0163661D02*
X0034736Y0163819D01*
X0034742Y0163977D01*
X0034752Y0164135D01*
X0034766Y0164293D01*
X0034784Y0164450D01*
X0034805Y0164607D01*
X0034831Y0164763D01*
X0034861Y0164919D01*
X0034894Y0165074D01*
X0034932Y0165227D01*
X0034973Y0165380D01*
X0035018Y0165532D01*
X0035067Y0165683D01*
X0035120Y0165832D01*
X0035176Y0165980D01*
X0035236Y0166126D01*
X0035300Y0166271D01*
X0035368Y0166414D01*
X0035439Y0166556D01*
X0035513Y0166696D01*
X0035591Y0166833D01*
X0035673Y0166969D01*
X0035757Y0167103D01*
X0035846Y0167234D01*
X0035937Y0167363D01*
X0036032Y0167490D01*
X0036129Y0167615D01*
X0036230Y0167737D01*
X0036334Y0167856D01*
X0036441Y0167973D01*
X0036551Y0168087D01*
X0036664Y0168198D01*
X0036779Y0168307D01*
X0036897Y0168412D01*
X0037018Y0168514D01*
X0037141Y0168614D01*
X0037267Y0168710D01*
X0037395Y0168803D01*
X0037525Y0168893D01*
X0037658Y0168979D01*
X0037793Y0169063D01*
X0037929Y0169142D01*
X0038068Y0169219D01*
X0038209Y0169291D01*
X0038351Y0169361D01*
X0038495Y0169426D01*
X0038641Y0169488D01*
X0038788Y0169546D01*
X0038937Y0169601D01*
X0039087Y0169652D01*
X0039238Y0169699D01*
X0039390Y0169742D01*
X0039543Y0169781D01*
X0039698Y0169817D01*
X0039853Y0169848D01*
X0040009Y0169876D01*
X0040165Y0169900D01*
X0040322Y0169920D01*
X0040480Y0169936D01*
X0040637Y0169948D01*
X0040796Y0169956D01*
X0040954Y0169960D01*
X0041112Y0169960D01*
X0041270Y0169956D01*
X0041429Y0169948D01*
X0041586Y0169936D01*
X0041744Y0169920D01*
X0041901Y0169900D01*
X0042057Y0169876D01*
X0042213Y0169848D01*
X0042368Y0169817D01*
X0042523Y0169781D01*
X0042676Y0169742D01*
X0042828Y0169699D01*
X0042979Y0169652D01*
X0043129Y0169601D01*
X0043278Y0169546D01*
X0043425Y0169488D01*
X0043571Y0169426D01*
X0043715Y0169361D01*
X0043857Y0169291D01*
X0043998Y0169219D01*
X0044137Y0169142D01*
X0044273Y0169063D01*
X0044408Y0168979D01*
X0044541Y0168893D01*
X0044671Y0168803D01*
X0044799Y0168710D01*
X0044925Y0168614D01*
X0045048Y0168514D01*
X0045169Y0168412D01*
X0045287Y0168307D01*
X0045402Y0168198D01*
X0045515Y0168087D01*
X0045625Y0167973D01*
X0045732Y0167856D01*
X0045836Y0167737D01*
X0045937Y0167615D01*
X0046034Y0167490D01*
X0046129Y0167363D01*
X0046220Y0167234D01*
X0046309Y0167103D01*
X0046393Y0166969D01*
X0046475Y0166833D01*
X0046553Y0166696D01*
X0046627Y0166556D01*
X0046698Y0166414D01*
X0046766Y0166271D01*
X0046830Y0166126D01*
X0046890Y0165980D01*
X0046946Y0165832D01*
X0046999Y0165683D01*
X0047048Y0165532D01*
X0047093Y0165380D01*
X0047134Y0165227D01*
X0047172Y0165074D01*
X0047205Y0164919D01*
X0047235Y0164763D01*
X0047261Y0164607D01*
X0047282Y0164450D01*
X0047300Y0164293D01*
X0047314Y0164135D01*
X0047324Y0163977D01*
X0047330Y0163819D01*
X0047332Y0163661D01*
X0047330Y0163503D01*
X0047324Y0163345D01*
X0047314Y0163187D01*
X0047300Y0163029D01*
X0047282Y0162872D01*
X0047261Y0162715D01*
X0047235Y0162559D01*
X0047205Y0162403D01*
X0047172Y0162248D01*
X0047134Y0162095D01*
X0047093Y0161942D01*
X0047048Y0161790D01*
X0046999Y0161639D01*
X0046946Y0161490D01*
X0046890Y0161342D01*
X0046830Y0161196D01*
X0046766Y0161051D01*
X0046698Y0160908D01*
X0046627Y0160766D01*
X0046553Y0160626D01*
X0046475Y0160489D01*
X0046393Y0160353D01*
X0046309Y0160219D01*
X0046220Y0160088D01*
X0046129Y0159959D01*
X0046034Y0159832D01*
X0045937Y0159707D01*
X0045836Y0159585D01*
X0045732Y0159466D01*
X0045625Y0159349D01*
X0045515Y0159235D01*
X0045402Y0159124D01*
X0045287Y0159015D01*
X0045169Y0158910D01*
X0045048Y0158808D01*
X0044925Y0158708D01*
X0044799Y0158612D01*
X0044671Y0158519D01*
X0044541Y0158429D01*
X0044408Y0158343D01*
X0044273Y0158259D01*
X0044137Y0158180D01*
X0043998Y0158103D01*
X0043857Y0158031D01*
X0043715Y0157961D01*
X0043571Y0157896D01*
X0043425Y0157834D01*
X0043278Y0157776D01*
X0043129Y0157721D01*
X0042979Y0157670D01*
X0042828Y0157623D01*
X0042676Y0157580D01*
X0042523Y0157541D01*
X0042368Y0157505D01*
X0042213Y0157474D01*
X0042057Y0157446D01*
X0041901Y0157422D01*
X0041744Y0157402D01*
X0041586Y0157386D01*
X0041429Y0157374D01*
X0041270Y0157366D01*
X0041112Y0157362D01*
X0040954Y0157362D01*
X0040796Y0157366D01*
X0040637Y0157374D01*
X0040480Y0157386D01*
X0040322Y0157402D01*
X0040165Y0157422D01*
X0040009Y0157446D01*
X0039853Y0157474D01*
X0039698Y0157505D01*
X0039543Y0157541D01*
X0039390Y0157580D01*
X0039238Y0157623D01*
X0039087Y0157670D01*
X0038937Y0157721D01*
X0038788Y0157776D01*
X0038641Y0157834D01*
X0038495Y0157896D01*
X0038351Y0157961D01*
X0038209Y0158031D01*
X0038068Y0158103D01*
X0037929Y0158180D01*
X0037793Y0158259D01*
X0037658Y0158343D01*
X0037525Y0158429D01*
X0037395Y0158519D01*
X0037267Y0158612D01*
X0037141Y0158708D01*
X0037018Y0158808D01*
X0036897Y0158910D01*
X0036779Y0159015D01*
X0036664Y0159124D01*
X0036551Y0159235D01*
X0036441Y0159349D01*
X0036334Y0159466D01*
X0036230Y0159585D01*
X0036129Y0159707D01*
X0036032Y0159832D01*
X0035937Y0159959D01*
X0035846Y0160088D01*
X0035757Y0160219D01*
X0035673Y0160353D01*
X0035591Y0160489D01*
X0035513Y0160626D01*
X0035439Y0160766D01*
X0035368Y0160908D01*
X0035300Y0161051D01*
X0035236Y0161196D01*
X0035176Y0161342D01*
X0035120Y0161490D01*
X0035067Y0161639D01*
X0035018Y0161790D01*
X0034973Y0161942D01*
X0034932Y0162095D01*
X0034894Y0162248D01*
X0034861Y0162403D01*
X0034831Y0162559D01*
X0034805Y0162715D01*
X0034784Y0162872D01*
X0034766Y0163029D01*
X0034752Y0163187D01*
X0034742Y0163345D01*
X0034736Y0163503D01*
X0034734Y0163661D01*
D11*
X0086643Y0055748D03*
X0088612Y0055748D03*
X0090580Y0055748D03*
X0092549Y0055748D03*
X0094517Y0055748D03*
X0096486Y0055748D03*
X0098454Y0055748D03*
X0100423Y0055748D03*
X0100423Y0041574D03*
X0098454Y0041574D03*
X0096486Y0041574D03*
X0094517Y0041574D03*
X0092549Y0041574D03*
X0090580Y0041574D03*
X0088612Y0041574D03*
X0086643Y0041574D03*
M02*
