%
M48
M72
T01C0.01181
T02C0.02362
T03C0.02559
T04C0.02953
T05C0.03150
T06C0.03504
T07C0.03543
T08C0.04400
T09C0.06496
T10C0.12598
T11C0.12795
%
T01
X267500Y195500
X267500Y184500
X267500Y190000
X267500Y179000
X50000Y45000
X72500Y87500
X80000Y87500
X80500Y67500
X80500Y60000
X45000Y67500
X106000Y74500
X114500Y69500
X102500Y85500
X31500Y150500
X32500Y117500
X40000Y117500
X60000Y117500
X126500Y85000
X126500Y77500
X126500Y70000
X126500Y62500
X126500Y55000
X102500Y7000
X137500Y7000
X151000Y20500
X60800Y169600
X31600Y197750
X135500Y106000
X267500Y201500
X267500Y208000
X274500Y208000
X257500Y179000
X247500Y179000
X247500Y196500
X247500Y214000
X247500Y231500
X247500Y249000
X247500Y266500
X295000Y216500
X295000Y234000
X295000Y251500
X295000Y269000
X295000Y289000
X295000Y306500
X275000Y316500
X247500Y316500
X196000Y175500
X208500Y191000
X175000Y180000
X163500Y203500
X197500Y155000
X197500Y160000
X186500Y135500
X197500Y128500
X152500Y128500
X165000Y122500
X140000Y133000
X100000Y146500
X140500Y212500
X155000Y151500
X162500Y151500
X141500Y163000
X140500Y220000
X120000Y233000
X90000Y315000
X79500Y310500
X90000Y275000
X90000Y295000
X79500Y290500
X79500Y270500
X100000Y331500
X124000Y283500
X144500Y321000
X154000Y246000
X162500Y283000
X185000Y122500
X174500Y164000
X174500Y155000
X174500Y144000
X174500Y131500
X210000Y210500
X205000Y248000
X214500Y261500
X195000Y261500
X205000Y274000
X231000Y296000
X231000Y316500
X230500Y347000
X211000Y347000
X191500Y347000
X231000Y284500
X231000Y261500
X231000Y239000
X231000Y210500
X231000Y186000
X191000Y317000
X175500Y336000
X175500Y310000
X175500Y283500
X175500Y275500
X178000Y260000
X139500Y272500
X166000Y334500
X119000Y319000
X124500Y338000
X33500Y345000
X33500Y320500
X33500Y296000
X33500Y272000
X33500Y247500
X57000Y345000
X51500Y308500
X68500Y323500
X63000Y331500
X85000Y324500
X71000Y305500
X99500Y305500
X69500Y294500
X99500Y288000
X80500Y261000
X114000Y264500
X156500Y236500
X190000Y234500
X119000Y309500
X64500Y193500
X64000Y153500
X77000Y187500
X91000Y187500
X99500Y187500
X108500Y187500
X77000Y167500
X88500Y161000
X99500Y167500
X110000Y167500
X47000Y188500
X39000Y146500
X73000Y146000
X127500Y154000
X110000Y146500
X118000Y129500
X102000Y129500
X115000Y114500
X182000Y166500
X50000Y97500
X32000Y75000
X44000Y45000
X175000Y7500
X170000Y34000
X146500Y83000
X81000Y232000
X91000Y219000
X103500Y236500
X155500Y277000
X150000Y297000
X137500Y280000
X165000Y312500
X127500Y202500
X123000Y191000
X43000Y216000
X57500Y229500
X187000Y188500
X67500Y130500
X289500Y44000
X289500Y36000
X295000Y40000
X295000Y47500
X289500Y55000
X295000Y62500
X289500Y70000
X295000Y77500
X295000Y86000
X295000Y94000
X295500Y200500
X295500Y193000
X295500Y185500
X295500Y178000
X295500Y163000
X289500Y170500
X289500Y155500
X295500Y148500
X289500Y140500
X295500Y133000
X289500Y125500
X295000Y118000
X289500Y110500
X295000Y103000
X197000Y83500
X210500Y91500
X235000Y110000
X200500Y79500
X217500Y94000
X245000Y82000
X232500Y64500
X247500Y64500
X255000Y82000
X268000Y34000
X268000Y38500
X268000Y29500
X138500Y96500
X220000Y161500
X115000Y109000
X125000Y109000
X66500Y110000
X87500Y110000
X139500Y180000
X131000Y180000
X164500Y212500
X164500Y230000
X70000Y236500
X70000Y250500
X70000Y261000
X189500Y169000
X212000Y169000
X146000Y235000
X130000Y235000
X145000Y195000
X125500Y195000
X140500Y199000
X120000Y199000
X85500Y157000
X85500Y150000
X160000Y195000
X160000Y216000
X174000Y167500
X162500Y167500
X137500Y171000
X116000Y171000
X137500Y176000
X112000Y176000
X55000Y240000
X55000Y220000
X140500Y191000
X128000Y191000
X40500Y35000
X59500Y35000
X59500Y53500
X52500Y55000
X66500Y77500
X72500Y71500
X49000Y24000
X54000Y24000
X45500Y21000
X94500Y70000
X85500Y70000
X83000Y121500
X80500Y159500
X86500Y193500
X86500Y256500
X62500Y72500
X62500Y80000
X42000Y102500
X31500Y102500
X34500Y200500
X34500Y217500
X34500Y147000
X30000Y112000
X107500Y247500
X107500Y234000
X45500Y117500
X47500Y204000
X43500Y146500
X39500Y193500
X49500Y114500
X49500Y146000
X42500Y197500
X42500Y203000
X70500Y125000
X73000Y150500
X76500Y193500
X81000Y217500
X111000Y302000
X111000Y294500
X162500Y256000
X162500Y272500
X180000Y234500
X127000Y262000
X127000Y251000
X122000Y326500
X110000Y326500
X162500Y279500
X175500Y279500
X137500Y276000
X124000Y276000
X40000Y135500
X65500Y236500
X65500Y259500
X113000Y220500
X95000Y146500
X95000Y161000
X95000Y193500
X95000Y253500
X151500Y272500
X149500Y256000
X105000Y146500
X105000Y161000
X100000Y193500
X100000Y253500
X155500Y272500
X155500Y256000
X90000Y130000
X90000Y146500
X77000Y128500
X77000Y154000
X81000Y204500
X81000Y193500
X60500Y197500
X60500Y260500
X162500Y291000
X183500Y291000
X183500Y250000
X191500Y250000
X210000Y234500
X70000Y193500
X75500Y217500
X75500Y236500
X75500Y256500
X162500Y286500
X186500Y286500
X200000Y234500
X51500Y197500
X44500Y238500
X144500Y258500
X144500Y272500
X56000Y197500
X50000Y249500
X137500Y293500
X52500Y285000
X70000Y285000
X107500Y285000
X158500Y297000
X158500Y312500
T02
X32992Y10000
X67008Y10000
X32992Y26457
X67008Y26457
T03
X61378Y24488
X38622Y24488
T04
X120000Y15413
X120000Y4587
T05
X180000Y220000
X190000Y220000
X200000Y220000
X210000Y220000
T06
X240000Y30000
X235984Y37008
X231969Y30000
X227953Y37008
X223937Y30000
X219921Y37008
X215906Y30000
X211890Y37008
X198898Y56024
X207913Y56024
X252913Y56024
X243898Y56024
T07
X165906Y7500
X154094Y7500
T08
X260000Y110000
X260000Y120000
X260000Y130000
X260000Y140000
X260000Y150000
X260000Y160000
X260000Y280000
X260000Y290000
X260000Y300000
X260000Y310000
T09
X193898Y33504
X257913Y33504
T10
X15000Y15000
X285000Y335000
X15000Y335000
X285000Y15000
T11
X200906Y20000
X250906Y20000
M30
