G75*
%MOIN*%
%OFA0B0*%
%FSLAX25Y25*%
%IPPOS*%
%LPD*%
%AMOC8*
5,1,8,0,0,1.08239X$1,22.5*
%
%ADD10C,0.00000*%
%ADD11C,0.01600*%
%ADD12C,0.05600*%
%ADD13C,0.01100*%
%ADD14C,0.00800*%
%ADD15C,0.03200*%
%ADD16C,0.00700*%
%ADD17C,0.01200*%
%ADD18C,0.00500*%
%ADD19C,0.00600*%
%ADD20C,0.02200*%
%ADD21C,0.01000*%
%ADD22C,0.00787*%
%ADD23C,0.00806*%
%ADD24R,0.08268X0.01181*%
%ADD25R,0.11024X0.01969*%
%ADD26R,0.01181X0.08268*%
%ADD27R,0.01969X0.11024*%
%ADD28R,0.01800X0.03000*%
%ADD29C,0.00945*%
%ADD30R,0.03000X0.01800*%
%ADD31R,0.01673X0.01772*%
D10*
X0001394Y0011093D02*
X0001394Y0361093D01*
X0301394Y0361093D01*
X0301394Y0011093D01*
X0001394Y0011093D01*
X0010095Y0026093D02*
X0010097Y0026251D01*
X0010103Y0026409D01*
X0010113Y0026567D01*
X0010127Y0026725D01*
X0010145Y0026882D01*
X0010166Y0027039D01*
X0010192Y0027195D01*
X0010222Y0027351D01*
X0010255Y0027506D01*
X0010293Y0027659D01*
X0010334Y0027812D01*
X0010379Y0027964D01*
X0010428Y0028115D01*
X0010481Y0028264D01*
X0010537Y0028412D01*
X0010597Y0028558D01*
X0010661Y0028703D01*
X0010729Y0028846D01*
X0010800Y0028988D01*
X0010874Y0029128D01*
X0010952Y0029265D01*
X0011034Y0029401D01*
X0011118Y0029535D01*
X0011207Y0029666D01*
X0011298Y0029795D01*
X0011393Y0029922D01*
X0011490Y0030047D01*
X0011591Y0030169D01*
X0011695Y0030288D01*
X0011802Y0030405D01*
X0011912Y0030519D01*
X0012025Y0030630D01*
X0012140Y0030739D01*
X0012258Y0030844D01*
X0012379Y0030946D01*
X0012502Y0031046D01*
X0012628Y0031142D01*
X0012756Y0031235D01*
X0012886Y0031325D01*
X0013019Y0031411D01*
X0013154Y0031495D01*
X0013290Y0031574D01*
X0013429Y0031651D01*
X0013570Y0031723D01*
X0013712Y0031793D01*
X0013856Y0031858D01*
X0014002Y0031920D01*
X0014149Y0031978D01*
X0014298Y0032033D01*
X0014448Y0032084D01*
X0014599Y0032131D01*
X0014751Y0032174D01*
X0014904Y0032213D01*
X0015059Y0032249D01*
X0015214Y0032280D01*
X0015370Y0032308D01*
X0015526Y0032332D01*
X0015683Y0032352D01*
X0015841Y0032368D01*
X0015998Y0032380D01*
X0016157Y0032388D01*
X0016315Y0032392D01*
X0016473Y0032392D01*
X0016631Y0032388D01*
X0016790Y0032380D01*
X0016947Y0032368D01*
X0017105Y0032352D01*
X0017262Y0032332D01*
X0017418Y0032308D01*
X0017574Y0032280D01*
X0017729Y0032249D01*
X0017884Y0032213D01*
X0018037Y0032174D01*
X0018189Y0032131D01*
X0018340Y0032084D01*
X0018490Y0032033D01*
X0018639Y0031978D01*
X0018786Y0031920D01*
X0018932Y0031858D01*
X0019076Y0031793D01*
X0019218Y0031723D01*
X0019359Y0031651D01*
X0019498Y0031574D01*
X0019634Y0031495D01*
X0019769Y0031411D01*
X0019902Y0031325D01*
X0020032Y0031235D01*
X0020160Y0031142D01*
X0020286Y0031046D01*
X0020409Y0030946D01*
X0020530Y0030844D01*
X0020648Y0030739D01*
X0020763Y0030630D01*
X0020876Y0030519D01*
X0020986Y0030405D01*
X0021093Y0030288D01*
X0021197Y0030169D01*
X0021298Y0030047D01*
X0021395Y0029922D01*
X0021490Y0029795D01*
X0021581Y0029666D01*
X0021670Y0029535D01*
X0021754Y0029401D01*
X0021836Y0029265D01*
X0021914Y0029128D01*
X0021988Y0028988D01*
X0022059Y0028846D01*
X0022127Y0028703D01*
X0022191Y0028558D01*
X0022251Y0028412D01*
X0022307Y0028264D01*
X0022360Y0028115D01*
X0022409Y0027964D01*
X0022454Y0027812D01*
X0022495Y0027659D01*
X0022533Y0027506D01*
X0022566Y0027351D01*
X0022596Y0027195D01*
X0022622Y0027039D01*
X0022643Y0026882D01*
X0022661Y0026725D01*
X0022675Y0026567D01*
X0022685Y0026409D01*
X0022691Y0026251D01*
X0022693Y0026093D01*
X0022691Y0025935D01*
X0022685Y0025777D01*
X0022675Y0025619D01*
X0022661Y0025461D01*
X0022643Y0025304D01*
X0022622Y0025147D01*
X0022596Y0024991D01*
X0022566Y0024835D01*
X0022533Y0024680D01*
X0022495Y0024527D01*
X0022454Y0024374D01*
X0022409Y0024222D01*
X0022360Y0024071D01*
X0022307Y0023922D01*
X0022251Y0023774D01*
X0022191Y0023628D01*
X0022127Y0023483D01*
X0022059Y0023340D01*
X0021988Y0023198D01*
X0021914Y0023058D01*
X0021836Y0022921D01*
X0021754Y0022785D01*
X0021670Y0022651D01*
X0021581Y0022520D01*
X0021490Y0022391D01*
X0021395Y0022264D01*
X0021298Y0022139D01*
X0021197Y0022017D01*
X0021093Y0021898D01*
X0020986Y0021781D01*
X0020876Y0021667D01*
X0020763Y0021556D01*
X0020648Y0021447D01*
X0020530Y0021342D01*
X0020409Y0021240D01*
X0020286Y0021140D01*
X0020160Y0021044D01*
X0020032Y0020951D01*
X0019902Y0020861D01*
X0019769Y0020775D01*
X0019634Y0020691D01*
X0019498Y0020612D01*
X0019359Y0020535D01*
X0019218Y0020463D01*
X0019076Y0020393D01*
X0018932Y0020328D01*
X0018786Y0020266D01*
X0018639Y0020208D01*
X0018490Y0020153D01*
X0018340Y0020102D01*
X0018189Y0020055D01*
X0018037Y0020012D01*
X0017884Y0019973D01*
X0017729Y0019937D01*
X0017574Y0019906D01*
X0017418Y0019878D01*
X0017262Y0019854D01*
X0017105Y0019834D01*
X0016947Y0019818D01*
X0016790Y0019806D01*
X0016631Y0019798D01*
X0016473Y0019794D01*
X0016315Y0019794D01*
X0016157Y0019798D01*
X0015998Y0019806D01*
X0015841Y0019818D01*
X0015683Y0019834D01*
X0015526Y0019854D01*
X0015370Y0019878D01*
X0015214Y0019906D01*
X0015059Y0019937D01*
X0014904Y0019973D01*
X0014751Y0020012D01*
X0014599Y0020055D01*
X0014448Y0020102D01*
X0014298Y0020153D01*
X0014149Y0020208D01*
X0014002Y0020266D01*
X0013856Y0020328D01*
X0013712Y0020393D01*
X0013570Y0020463D01*
X0013429Y0020535D01*
X0013290Y0020612D01*
X0013154Y0020691D01*
X0013019Y0020775D01*
X0012886Y0020861D01*
X0012756Y0020951D01*
X0012628Y0021044D01*
X0012502Y0021140D01*
X0012379Y0021240D01*
X0012258Y0021342D01*
X0012140Y0021447D01*
X0012025Y0021556D01*
X0011912Y0021667D01*
X0011802Y0021781D01*
X0011695Y0021898D01*
X0011591Y0022017D01*
X0011490Y0022139D01*
X0011393Y0022264D01*
X0011298Y0022391D01*
X0011207Y0022520D01*
X0011118Y0022651D01*
X0011034Y0022785D01*
X0010952Y0022921D01*
X0010874Y0023058D01*
X0010800Y0023198D01*
X0010729Y0023340D01*
X0010661Y0023483D01*
X0010597Y0023628D01*
X0010537Y0023774D01*
X0010481Y0023922D01*
X0010428Y0024071D01*
X0010379Y0024222D01*
X0010334Y0024374D01*
X0010293Y0024527D01*
X0010255Y0024680D01*
X0010222Y0024835D01*
X0010192Y0024991D01*
X0010166Y0025147D01*
X0010145Y0025304D01*
X0010127Y0025461D01*
X0010113Y0025619D01*
X0010103Y0025777D01*
X0010097Y0025935D01*
X0010095Y0026093D01*
X0038736Y0035581D02*
X0038738Y0035652D01*
X0038744Y0035723D01*
X0038754Y0035794D01*
X0038768Y0035863D01*
X0038785Y0035932D01*
X0038807Y0036000D01*
X0038832Y0036067D01*
X0038861Y0036132D01*
X0038893Y0036195D01*
X0038929Y0036257D01*
X0038968Y0036316D01*
X0039011Y0036373D01*
X0039056Y0036428D01*
X0039105Y0036480D01*
X0039156Y0036529D01*
X0039210Y0036575D01*
X0039267Y0036619D01*
X0039325Y0036659D01*
X0039386Y0036695D01*
X0039449Y0036729D01*
X0039514Y0036758D01*
X0039580Y0036784D01*
X0039648Y0036807D01*
X0039716Y0036825D01*
X0039786Y0036840D01*
X0039856Y0036851D01*
X0039927Y0036858D01*
X0039998Y0036861D01*
X0040069Y0036860D01*
X0040140Y0036855D01*
X0040211Y0036846D01*
X0040281Y0036833D01*
X0040350Y0036817D01*
X0040418Y0036796D01*
X0040485Y0036772D01*
X0040551Y0036744D01*
X0040614Y0036712D01*
X0040676Y0036677D01*
X0040736Y0036639D01*
X0040794Y0036597D01*
X0040849Y0036553D01*
X0040902Y0036505D01*
X0040952Y0036454D01*
X0040999Y0036401D01*
X0041043Y0036345D01*
X0041084Y0036287D01*
X0041122Y0036226D01*
X0041156Y0036164D01*
X0041186Y0036099D01*
X0041213Y0036034D01*
X0041237Y0035966D01*
X0041256Y0035898D01*
X0041272Y0035829D01*
X0041284Y0035758D01*
X0041292Y0035688D01*
X0041296Y0035617D01*
X0041296Y0035545D01*
X0041292Y0035474D01*
X0041284Y0035404D01*
X0041272Y0035333D01*
X0041256Y0035264D01*
X0041237Y0035196D01*
X0041213Y0035128D01*
X0041186Y0035063D01*
X0041156Y0034998D01*
X0041122Y0034936D01*
X0041084Y0034875D01*
X0041043Y0034817D01*
X0040999Y0034761D01*
X0040952Y0034708D01*
X0040902Y0034657D01*
X0040849Y0034609D01*
X0040794Y0034565D01*
X0040736Y0034523D01*
X0040676Y0034485D01*
X0040614Y0034450D01*
X0040551Y0034418D01*
X0040485Y0034390D01*
X0040418Y0034366D01*
X0040350Y0034345D01*
X0040281Y0034329D01*
X0040211Y0034316D01*
X0040140Y0034307D01*
X0040069Y0034302D01*
X0039998Y0034301D01*
X0039927Y0034304D01*
X0039856Y0034311D01*
X0039786Y0034322D01*
X0039716Y0034337D01*
X0039648Y0034355D01*
X0039580Y0034378D01*
X0039514Y0034404D01*
X0039449Y0034433D01*
X0039386Y0034467D01*
X0039325Y0034503D01*
X0039267Y0034543D01*
X0039210Y0034587D01*
X0039156Y0034633D01*
X0039105Y0034682D01*
X0039056Y0034734D01*
X0039011Y0034789D01*
X0038968Y0034846D01*
X0038929Y0034905D01*
X0038893Y0034967D01*
X0038861Y0035030D01*
X0038832Y0035095D01*
X0038807Y0035162D01*
X0038785Y0035230D01*
X0038768Y0035299D01*
X0038754Y0035368D01*
X0038744Y0035439D01*
X0038738Y0035510D01*
X0038736Y0035581D01*
X0061492Y0035581D02*
X0061494Y0035652D01*
X0061500Y0035723D01*
X0061510Y0035794D01*
X0061524Y0035863D01*
X0061541Y0035932D01*
X0061563Y0036000D01*
X0061588Y0036067D01*
X0061617Y0036132D01*
X0061649Y0036195D01*
X0061685Y0036257D01*
X0061724Y0036316D01*
X0061767Y0036373D01*
X0061812Y0036428D01*
X0061861Y0036480D01*
X0061912Y0036529D01*
X0061966Y0036575D01*
X0062023Y0036619D01*
X0062081Y0036659D01*
X0062142Y0036695D01*
X0062205Y0036729D01*
X0062270Y0036758D01*
X0062336Y0036784D01*
X0062404Y0036807D01*
X0062472Y0036825D01*
X0062542Y0036840D01*
X0062612Y0036851D01*
X0062683Y0036858D01*
X0062754Y0036861D01*
X0062825Y0036860D01*
X0062896Y0036855D01*
X0062967Y0036846D01*
X0063037Y0036833D01*
X0063106Y0036817D01*
X0063174Y0036796D01*
X0063241Y0036772D01*
X0063307Y0036744D01*
X0063370Y0036712D01*
X0063432Y0036677D01*
X0063492Y0036639D01*
X0063550Y0036597D01*
X0063605Y0036553D01*
X0063658Y0036505D01*
X0063708Y0036454D01*
X0063755Y0036401D01*
X0063799Y0036345D01*
X0063840Y0036287D01*
X0063878Y0036226D01*
X0063912Y0036164D01*
X0063942Y0036099D01*
X0063969Y0036034D01*
X0063993Y0035966D01*
X0064012Y0035898D01*
X0064028Y0035829D01*
X0064040Y0035758D01*
X0064048Y0035688D01*
X0064052Y0035617D01*
X0064052Y0035545D01*
X0064048Y0035474D01*
X0064040Y0035404D01*
X0064028Y0035333D01*
X0064012Y0035264D01*
X0063993Y0035196D01*
X0063969Y0035128D01*
X0063942Y0035063D01*
X0063912Y0034998D01*
X0063878Y0034936D01*
X0063840Y0034875D01*
X0063799Y0034817D01*
X0063755Y0034761D01*
X0063708Y0034708D01*
X0063658Y0034657D01*
X0063605Y0034609D01*
X0063550Y0034565D01*
X0063492Y0034523D01*
X0063432Y0034485D01*
X0063370Y0034450D01*
X0063307Y0034418D01*
X0063241Y0034390D01*
X0063174Y0034366D01*
X0063106Y0034345D01*
X0063037Y0034329D01*
X0062967Y0034316D01*
X0062896Y0034307D01*
X0062825Y0034302D01*
X0062754Y0034301D01*
X0062683Y0034304D01*
X0062612Y0034311D01*
X0062542Y0034322D01*
X0062472Y0034337D01*
X0062404Y0034355D01*
X0062336Y0034378D01*
X0062270Y0034404D01*
X0062205Y0034433D01*
X0062142Y0034467D01*
X0062081Y0034503D01*
X0062023Y0034543D01*
X0061966Y0034587D01*
X0061912Y0034633D01*
X0061861Y0034682D01*
X0061812Y0034734D01*
X0061767Y0034789D01*
X0061724Y0034846D01*
X0061685Y0034905D01*
X0061649Y0034967D01*
X0061617Y0035030D01*
X0061588Y0035095D01*
X0061563Y0035162D01*
X0061541Y0035230D01*
X0061524Y0035299D01*
X0061510Y0035368D01*
X0061500Y0035439D01*
X0061494Y0035510D01*
X0061492Y0035581D01*
X0119918Y0026506D02*
X0119920Y0026583D01*
X0119926Y0026659D01*
X0119936Y0026735D01*
X0119950Y0026810D01*
X0119967Y0026885D01*
X0119989Y0026958D01*
X0120014Y0027031D01*
X0120044Y0027102D01*
X0120076Y0027171D01*
X0120113Y0027238D01*
X0120152Y0027304D01*
X0120195Y0027367D01*
X0120242Y0027428D01*
X0120291Y0027487D01*
X0120344Y0027543D01*
X0120399Y0027596D01*
X0120457Y0027646D01*
X0120517Y0027693D01*
X0120580Y0027737D01*
X0120645Y0027778D01*
X0120712Y0027815D01*
X0120781Y0027849D01*
X0120851Y0027879D01*
X0120923Y0027905D01*
X0120997Y0027927D01*
X0121071Y0027946D01*
X0121146Y0027961D01*
X0121222Y0027972D01*
X0121298Y0027979D01*
X0121375Y0027982D01*
X0121451Y0027981D01*
X0121528Y0027976D01*
X0121604Y0027967D01*
X0121680Y0027954D01*
X0121754Y0027937D01*
X0121828Y0027917D01*
X0121901Y0027892D01*
X0121972Y0027864D01*
X0122042Y0027832D01*
X0122110Y0027797D01*
X0122176Y0027758D01*
X0122240Y0027716D01*
X0122301Y0027670D01*
X0122361Y0027621D01*
X0122417Y0027570D01*
X0122471Y0027515D01*
X0122522Y0027458D01*
X0122570Y0027398D01*
X0122615Y0027336D01*
X0122656Y0027271D01*
X0122694Y0027205D01*
X0122729Y0027137D01*
X0122759Y0027066D01*
X0122787Y0026995D01*
X0122810Y0026922D01*
X0122830Y0026848D01*
X0122846Y0026773D01*
X0122858Y0026697D01*
X0122866Y0026621D01*
X0122870Y0026544D01*
X0122870Y0026468D01*
X0122866Y0026391D01*
X0122858Y0026315D01*
X0122846Y0026239D01*
X0122830Y0026164D01*
X0122810Y0026090D01*
X0122787Y0026017D01*
X0122759Y0025946D01*
X0122729Y0025875D01*
X0122694Y0025807D01*
X0122656Y0025741D01*
X0122615Y0025676D01*
X0122570Y0025614D01*
X0122522Y0025554D01*
X0122471Y0025497D01*
X0122417Y0025442D01*
X0122361Y0025391D01*
X0122301Y0025342D01*
X0122240Y0025296D01*
X0122176Y0025254D01*
X0122110Y0025215D01*
X0122042Y0025180D01*
X0121972Y0025148D01*
X0121901Y0025120D01*
X0121828Y0025095D01*
X0121754Y0025075D01*
X0121680Y0025058D01*
X0121604Y0025045D01*
X0121528Y0025036D01*
X0121451Y0025031D01*
X0121375Y0025030D01*
X0121298Y0025033D01*
X0121222Y0025040D01*
X0121146Y0025051D01*
X0121071Y0025066D01*
X0120997Y0025085D01*
X0120923Y0025107D01*
X0120851Y0025133D01*
X0120781Y0025163D01*
X0120712Y0025197D01*
X0120645Y0025234D01*
X0120580Y0025275D01*
X0120517Y0025319D01*
X0120457Y0025366D01*
X0120399Y0025416D01*
X0120344Y0025469D01*
X0120291Y0025525D01*
X0120242Y0025584D01*
X0120195Y0025645D01*
X0120152Y0025708D01*
X0120113Y0025774D01*
X0120076Y0025841D01*
X0120044Y0025910D01*
X0120014Y0025981D01*
X0119989Y0026054D01*
X0119967Y0026127D01*
X0119950Y0026202D01*
X0119936Y0026277D01*
X0119926Y0026353D01*
X0119920Y0026429D01*
X0119918Y0026506D01*
X0119918Y0015680D02*
X0119920Y0015757D01*
X0119926Y0015833D01*
X0119936Y0015909D01*
X0119950Y0015984D01*
X0119967Y0016059D01*
X0119989Y0016132D01*
X0120014Y0016205D01*
X0120044Y0016276D01*
X0120076Y0016345D01*
X0120113Y0016412D01*
X0120152Y0016478D01*
X0120195Y0016541D01*
X0120242Y0016602D01*
X0120291Y0016661D01*
X0120344Y0016717D01*
X0120399Y0016770D01*
X0120457Y0016820D01*
X0120517Y0016867D01*
X0120580Y0016911D01*
X0120645Y0016952D01*
X0120712Y0016989D01*
X0120781Y0017023D01*
X0120851Y0017053D01*
X0120923Y0017079D01*
X0120997Y0017101D01*
X0121071Y0017120D01*
X0121146Y0017135D01*
X0121222Y0017146D01*
X0121298Y0017153D01*
X0121375Y0017156D01*
X0121451Y0017155D01*
X0121528Y0017150D01*
X0121604Y0017141D01*
X0121680Y0017128D01*
X0121754Y0017111D01*
X0121828Y0017091D01*
X0121901Y0017066D01*
X0121972Y0017038D01*
X0122042Y0017006D01*
X0122110Y0016971D01*
X0122176Y0016932D01*
X0122240Y0016890D01*
X0122301Y0016844D01*
X0122361Y0016795D01*
X0122417Y0016744D01*
X0122471Y0016689D01*
X0122522Y0016632D01*
X0122570Y0016572D01*
X0122615Y0016510D01*
X0122656Y0016445D01*
X0122694Y0016379D01*
X0122729Y0016311D01*
X0122759Y0016240D01*
X0122787Y0016169D01*
X0122810Y0016096D01*
X0122830Y0016022D01*
X0122846Y0015947D01*
X0122858Y0015871D01*
X0122866Y0015795D01*
X0122870Y0015718D01*
X0122870Y0015642D01*
X0122866Y0015565D01*
X0122858Y0015489D01*
X0122846Y0015413D01*
X0122830Y0015338D01*
X0122810Y0015264D01*
X0122787Y0015191D01*
X0122759Y0015120D01*
X0122729Y0015049D01*
X0122694Y0014981D01*
X0122656Y0014915D01*
X0122615Y0014850D01*
X0122570Y0014788D01*
X0122522Y0014728D01*
X0122471Y0014671D01*
X0122417Y0014616D01*
X0122361Y0014565D01*
X0122301Y0014516D01*
X0122240Y0014470D01*
X0122176Y0014428D01*
X0122110Y0014389D01*
X0122042Y0014354D01*
X0121972Y0014322D01*
X0121901Y0014294D01*
X0121828Y0014269D01*
X0121754Y0014249D01*
X0121680Y0014232D01*
X0121604Y0014219D01*
X0121528Y0014210D01*
X0121451Y0014205D01*
X0121375Y0014204D01*
X0121298Y0014207D01*
X0121222Y0014214D01*
X0121146Y0014225D01*
X0121071Y0014240D01*
X0120997Y0014259D01*
X0120923Y0014281D01*
X0120851Y0014307D01*
X0120781Y0014337D01*
X0120712Y0014371D01*
X0120645Y0014408D01*
X0120580Y0014449D01*
X0120517Y0014493D01*
X0120457Y0014540D01*
X0120399Y0014590D01*
X0120344Y0014643D01*
X0120291Y0014699D01*
X0120242Y0014758D01*
X0120195Y0014819D01*
X0120152Y0014882D01*
X0120113Y0014948D01*
X0120076Y0015015D01*
X0120044Y0015084D01*
X0120014Y0015155D01*
X0119989Y0015228D01*
X0119967Y0015301D01*
X0119950Y0015376D01*
X0119936Y0015451D01*
X0119926Y0015527D01*
X0119920Y0015603D01*
X0119918Y0015680D01*
X0153716Y0018593D02*
X0153718Y0018677D01*
X0153724Y0018760D01*
X0153734Y0018843D01*
X0153748Y0018926D01*
X0153765Y0019008D01*
X0153787Y0019089D01*
X0153812Y0019168D01*
X0153841Y0019247D01*
X0153874Y0019324D01*
X0153910Y0019399D01*
X0153950Y0019473D01*
X0153993Y0019545D01*
X0154040Y0019614D01*
X0154090Y0019681D01*
X0154143Y0019746D01*
X0154199Y0019808D01*
X0154257Y0019868D01*
X0154319Y0019925D01*
X0154383Y0019978D01*
X0154450Y0020029D01*
X0154519Y0020076D01*
X0154590Y0020121D01*
X0154663Y0020161D01*
X0154738Y0020198D01*
X0154815Y0020232D01*
X0154893Y0020262D01*
X0154972Y0020288D01*
X0155053Y0020311D01*
X0155135Y0020329D01*
X0155217Y0020344D01*
X0155300Y0020355D01*
X0155383Y0020362D01*
X0155467Y0020365D01*
X0155551Y0020364D01*
X0155634Y0020359D01*
X0155718Y0020350D01*
X0155800Y0020337D01*
X0155882Y0020321D01*
X0155963Y0020300D01*
X0156044Y0020276D01*
X0156122Y0020248D01*
X0156200Y0020216D01*
X0156276Y0020180D01*
X0156350Y0020141D01*
X0156422Y0020099D01*
X0156492Y0020053D01*
X0156560Y0020004D01*
X0156625Y0019952D01*
X0156688Y0019897D01*
X0156748Y0019839D01*
X0156806Y0019778D01*
X0156860Y0019714D01*
X0156912Y0019648D01*
X0156960Y0019580D01*
X0157005Y0019509D01*
X0157046Y0019436D01*
X0157085Y0019362D01*
X0157119Y0019286D01*
X0157150Y0019208D01*
X0157177Y0019129D01*
X0157201Y0019048D01*
X0157220Y0018967D01*
X0157236Y0018885D01*
X0157248Y0018802D01*
X0157256Y0018718D01*
X0157260Y0018635D01*
X0157260Y0018551D01*
X0157256Y0018468D01*
X0157248Y0018384D01*
X0157236Y0018301D01*
X0157220Y0018219D01*
X0157201Y0018138D01*
X0157177Y0018057D01*
X0157150Y0017978D01*
X0157119Y0017900D01*
X0157085Y0017824D01*
X0157046Y0017750D01*
X0157005Y0017677D01*
X0156960Y0017606D01*
X0156912Y0017538D01*
X0156860Y0017472D01*
X0156806Y0017408D01*
X0156748Y0017347D01*
X0156688Y0017289D01*
X0156625Y0017234D01*
X0156560Y0017182D01*
X0156492Y0017133D01*
X0156422Y0017087D01*
X0156350Y0017045D01*
X0156276Y0017006D01*
X0156200Y0016970D01*
X0156122Y0016938D01*
X0156044Y0016910D01*
X0155963Y0016886D01*
X0155882Y0016865D01*
X0155800Y0016849D01*
X0155718Y0016836D01*
X0155634Y0016827D01*
X0155551Y0016822D01*
X0155467Y0016821D01*
X0155383Y0016824D01*
X0155300Y0016831D01*
X0155217Y0016842D01*
X0155135Y0016857D01*
X0155053Y0016875D01*
X0154972Y0016898D01*
X0154893Y0016924D01*
X0154815Y0016954D01*
X0154738Y0016988D01*
X0154663Y0017025D01*
X0154590Y0017065D01*
X0154519Y0017110D01*
X0154450Y0017157D01*
X0154383Y0017208D01*
X0154319Y0017261D01*
X0154257Y0017318D01*
X0154199Y0017378D01*
X0154143Y0017440D01*
X0154090Y0017505D01*
X0154040Y0017572D01*
X0153993Y0017641D01*
X0153950Y0017713D01*
X0153910Y0017787D01*
X0153874Y0017862D01*
X0153841Y0017939D01*
X0153812Y0018018D01*
X0153787Y0018097D01*
X0153765Y0018178D01*
X0153748Y0018260D01*
X0153734Y0018343D01*
X0153724Y0018426D01*
X0153718Y0018509D01*
X0153716Y0018593D01*
X0165527Y0018593D02*
X0165529Y0018677D01*
X0165535Y0018760D01*
X0165545Y0018843D01*
X0165559Y0018926D01*
X0165576Y0019008D01*
X0165598Y0019089D01*
X0165623Y0019168D01*
X0165652Y0019247D01*
X0165685Y0019324D01*
X0165721Y0019399D01*
X0165761Y0019473D01*
X0165804Y0019545D01*
X0165851Y0019614D01*
X0165901Y0019681D01*
X0165954Y0019746D01*
X0166010Y0019808D01*
X0166068Y0019868D01*
X0166130Y0019925D01*
X0166194Y0019978D01*
X0166261Y0020029D01*
X0166330Y0020076D01*
X0166401Y0020121D01*
X0166474Y0020161D01*
X0166549Y0020198D01*
X0166626Y0020232D01*
X0166704Y0020262D01*
X0166783Y0020288D01*
X0166864Y0020311D01*
X0166946Y0020329D01*
X0167028Y0020344D01*
X0167111Y0020355D01*
X0167194Y0020362D01*
X0167278Y0020365D01*
X0167362Y0020364D01*
X0167445Y0020359D01*
X0167529Y0020350D01*
X0167611Y0020337D01*
X0167693Y0020321D01*
X0167774Y0020300D01*
X0167855Y0020276D01*
X0167933Y0020248D01*
X0168011Y0020216D01*
X0168087Y0020180D01*
X0168161Y0020141D01*
X0168233Y0020099D01*
X0168303Y0020053D01*
X0168371Y0020004D01*
X0168436Y0019952D01*
X0168499Y0019897D01*
X0168559Y0019839D01*
X0168617Y0019778D01*
X0168671Y0019714D01*
X0168723Y0019648D01*
X0168771Y0019580D01*
X0168816Y0019509D01*
X0168857Y0019436D01*
X0168896Y0019362D01*
X0168930Y0019286D01*
X0168961Y0019208D01*
X0168988Y0019129D01*
X0169012Y0019048D01*
X0169031Y0018967D01*
X0169047Y0018885D01*
X0169059Y0018802D01*
X0169067Y0018718D01*
X0169071Y0018635D01*
X0169071Y0018551D01*
X0169067Y0018468D01*
X0169059Y0018384D01*
X0169047Y0018301D01*
X0169031Y0018219D01*
X0169012Y0018138D01*
X0168988Y0018057D01*
X0168961Y0017978D01*
X0168930Y0017900D01*
X0168896Y0017824D01*
X0168857Y0017750D01*
X0168816Y0017677D01*
X0168771Y0017606D01*
X0168723Y0017538D01*
X0168671Y0017472D01*
X0168617Y0017408D01*
X0168559Y0017347D01*
X0168499Y0017289D01*
X0168436Y0017234D01*
X0168371Y0017182D01*
X0168303Y0017133D01*
X0168233Y0017087D01*
X0168161Y0017045D01*
X0168087Y0017006D01*
X0168011Y0016970D01*
X0167933Y0016938D01*
X0167855Y0016910D01*
X0167774Y0016886D01*
X0167693Y0016865D01*
X0167611Y0016849D01*
X0167529Y0016836D01*
X0167445Y0016827D01*
X0167362Y0016822D01*
X0167278Y0016821D01*
X0167194Y0016824D01*
X0167111Y0016831D01*
X0167028Y0016842D01*
X0166946Y0016857D01*
X0166864Y0016875D01*
X0166783Y0016898D01*
X0166704Y0016924D01*
X0166626Y0016954D01*
X0166549Y0016988D01*
X0166474Y0017025D01*
X0166401Y0017065D01*
X0166330Y0017110D01*
X0166261Y0017157D01*
X0166194Y0017208D01*
X0166130Y0017261D01*
X0166068Y0017318D01*
X0166010Y0017378D01*
X0165954Y0017440D01*
X0165901Y0017505D01*
X0165851Y0017572D01*
X0165804Y0017641D01*
X0165761Y0017713D01*
X0165721Y0017787D01*
X0165685Y0017862D01*
X0165652Y0017939D01*
X0165623Y0018018D01*
X0165598Y0018097D01*
X0165576Y0018178D01*
X0165559Y0018260D01*
X0165545Y0018343D01*
X0165535Y0018426D01*
X0165529Y0018509D01*
X0165527Y0018593D01*
X0195901Y0031093D02*
X0195903Y0031253D01*
X0195909Y0031412D01*
X0195919Y0031571D01*
X0195933Y0031730D01*
X0195951Y0031889D01*
X0195972Y0032047D01*
X0195998Y0032204D01*
X0196028Y0032361D01*
X0196061Y0032517D01*
X0196099Y0032672D01*
X0196140Y0032826D01*
X0196185Y0032979D01*
X0196234Y0033131D01*
X0196287Y0033281D01*
X0196343Y0033430D01*
X0196403Y0033578D01*
X0196467Y0033724D01*
X0196535Y0033869D01*
X0196606Y0034012D01*
X0196680Y0034153D01*
X0196758Y0034292D01*
X0196840Y0034429D01*
X0196925Y0034564D01*
X0197013Y0034697D01*
X0197104Y0034828D01*
X0197199Y0034956D01*
X0197297Y0035082D01*
X0197398Y0035206D01*
X0197502Y0035326D01*
X0197609Y0035445D01*
X0197719Y0035560D01*
X0197832Y0035673D01*
X0197947Y0035783D01*
X0198066Y0035890D01*
X0198186Y0035994D01*
X0198310Y0036095D01*
X0198436Y0036193D01*
X0198564Y0036288D01*
X0198695Y0036379D01*
X0198828Y0036467D01*
X0198963Y0036552D01*
X0199100Y0036634D01*
X0199239Y0036712D01*
X0199380Y0036786D01*
X0199523Y0036857D01*
X0199668Y0036925D01*
X0199814Y0036989D01*
X0199962Y0037049D01*
X0200111Y0037105D01*
X0200261Y0037158D01*
X0200413Y0037207D01*
X0200566Y0037252D01*
X0200720Y0037293D01*
X0200875Y0037331D01*
X0201031Y0037364D01*
X0201188Y0037394D01*
X0201345Y0037420D01*
X0201503Y0037441D01*
X0201662Y0037459D01*
X0201821Y0037473D01*
X0201980Y0037483D01*
X0202139Y0037489D01*
X0202299Y0037491D01*
X0202459Y0037489D01*
X0202618Y0037483D01*
X0202777Y0037473D01*
X0202936Y0037459D01*
X0203095Y0037441D01*
X0203253Y0037420D01*
X0203410Y0037394D01*
X0203567Y0037364D01*
X0203723Y0037331D01*
X0203878Y0037293D01*
X0204032Y0037252D01*
X0204185Y0037207D01*
X0204337Y0037158D01*
X0204487Y0037105D01*
X0204636Y0037049D01*
X0204784Y0036989D01*
X0204930Y0036925D01*
X0205075Y0036857D01*
X0205218Y0036786D01*
X0205359Y0036712D01*
X0205498Y0036634D01*
X0205635Y0036552D01*
X0205770Y0036467D01*
X0205903Y0036379D01*
X0206034Y0036288D01*
X0206162Y0036193D01*
X0206288Y0036095D01*
X0206412Y0035994D01*
X0206532Y0035890D01*
X0206651Y0035783D01*
X0206766Y0035673D01*
X0206879Y0035560D01*
X0206989Y0035445D01*
X0207096Y0035326D01*
X0207200Y0035206D01*
X0207301Y0035082D01*
X0207399Y0034956D01*
X0207494Y0034828D01*
X0207585Y0034697D01*
X0207673Y0034564D01*
X0207758Y0034429D01*
X0207840Y0034292D01*
X0207918Y0034153D01*
X0207992Y0034012D01*
X0208063Y0033869D01*
X0208131Y0033724D01*
X0208195Y0033578D01*
X0208255Y0033430D01*
X0208311Y0033281D01*
X0208364Y0033131D01*
X0208413Y0032979D01*
X0208458Y0032826D01*
X0208499Y0032672D01*
X0208537Y0032517D01*
X0208570Y0032361D01*
X0208600Y0032204D01*
X0208626Y0032047D01*
X0208647Y0031889D01*
X0208665Y0031730D01*
X0208679Y0031571D01*
X0208689Y0031412D01*
X0208695Y0031253D01*
X0208697Y0031093D01*
X0208695Y0030933D01*
X0208689Y0030774D01*
X0208679Y0030615D01*
X0208665Y0030456D01*
X0208647Y0030297D01*
X0208626Y0030139D01*
X0208600Y0029982D01*
X0208570Y0029825D01*
X0208537Y0029669D01*
X0208499Y0029514D01*
X0208458Y0029360D01*
X0208413Y0029207D01*
X0208364Y0029055D01*
X0208311Y0028905D01*
X0208255Y0028756D01*
X0208195Y0028608D01*
X0208131Y0028462D01*
X0208063Y0028317D01*
X0207992Y0028174D01*
X0207918Y0028033D01*
X0207840Y0027894D01*
X0207758Y0027757D01*
X0207673Y0027622D01*
X0207585Y0027489D01*
X0207494Y0027358D01*
X0207399Y0027230D01*
X0207301Y0027104D01*
X0207200Y0026980D01*
X0207096Y0026860D01*
X0206989Y0026741D01*
X0206879Y0026626D01*
X0206766Y0026513D01*
X0206651Y0026403D01*
X0206532Y0026296D01*
X0206412Y0026192D01*
X0206288Y0026091D01*
X0206162Y0025993D01*
X0206034Y0025898D01*
X0205903Y0025807D01*
X0205770Y0025719D01*
X0205635Y0025634D01*
X0205498Y0025552D01*
X0205359Y0025474D01*
X0205218Y0025400D01*
X0205075Y0025329D01*
X0204930Y0025261D01*
X0204784Y0025197D01*
X0204636Y0025137D01*
X0204487Y0025081D01*
X0204337Y0025028D01*
X0204185Y0024979D01*
X0204032Y0024934D01*
X0203878Y0024893D01*
X0203723Y0024855D01*
X0203567Y0024822D01*
X0203410Y0024792D01*
X0203253Y0024766D01*
X0203095Y0024745D01*
X0202936Y0024727D01*
X0202777Y0024713D01*
X0202618Y0024703D01*
X0202459Y0024697D01*
X0202299Y0024695D01*
X0202139Y0024697D01*
X0201980Y0024703D01*
X0201821Y0024713D01*
X0201662Y0024727D01*
X0201503Y0024745D01*
X0201345Y0024766D01*
X0201188Y0024792D01*
X0201031Y0024822D01*
X0200875Y0024855D01*
X0200720Y0024893D01*
X0200566Y0024934D01*
X0200413Y0024979D01*
X0200261Y0025028D01*
X0200111Y0025081D01*
X0199962Y0025137D01*
X0199814Y0025197D01*
X0199668Y0025261D01*
X0199523Y0025329D01*
X0199380Y0025400D01*
X0199239Y0025474D01*
X0199100Y0025552D01*
X0198963Y0025634D01*
X0198828Y0025719D01*
X0198695Y0025807D01*
X0198564Y0025898D01*
X0198436Y0025993D01*
X0198310Y0026091D01*
X0198186Y0026192D01*
X0198066Y0026296D01*
X0197947Y0026403D01*
X0197832Y0026513D01*
X0197719Y0026626D01*
X0197609Y0026741D01*
X0197502Y0026860D01*
X0197398Y0026980D01*
X0197297Y0027104D01*
X0197199Y0027230D01*
X0197104Y0027358D01*
X0197013Y0027489D01*
X0196925Y0027622D01*
X0196840Y0027757D01*
X0196758Y0027894D01*
X0196680Y0028033D01*
X0196606Y0028174D01*
X0196535Y0028317D01*
X0196467Y0028462D01*
X0196403Y0028608D01*
X0196343Y0028756D01*
X0196287Y0028905D01*
X0196234Y0029055D01*
X0196185Y0029207D01*
X0196140Y0029360D01*
X0196099Y0029514D01*
X0196061Y0029669D01*
X0196028Y0029825D01*
X0195998Y0029982D01*
X0195972Y0030139D01*
X0195951Y0030297D01*
X0195933Y0030456D01*
X0195919Y0030615D01*
X0195909Y0030774D01*
X0195903Y0030933D01*
X0195901Y0031093D01*
X0245901Y0031093D02*
X0245903Y0031253D01*
X0245909Y0031412D01*
X0245919Y0031571D01*
X0245933Y0031730D01*
X0245951Y0031889D01*
X0245972Y0032047D01*
X0245998Y0032204D01*
X0246028Y0032361D01*
X0246061Y0032517D01*
X0246099Y0032672D01*
X0246140Y0032826D01*
X0246185Y0032979D01*
X0246234Y0033131D01*
X0246287Y0033281D01*
X0246343Y0033430D01*
X0246403Y0033578D01*
X0246467Y0033724D01*
X0246535Y0033869D01*
X0246606Y0034012D01*
X0246680Y0034153D01*
X0246758Y0034292D01*
X0246840Y0034429D01*
X0246925Y0034564D01*
X0247013Y0034697D01*
X0247104Y0034828D01*
X0247199Y0034956D01*
X0247297Y0035082D01*
X0247398Y0035206D01*
X0247502Y0035326D01*
X0247609Y0035445D01*
X0247719Y0035560D01*
X0247832Y0035673D01*
X0247947Y0035783D01*
X0248066Y0035890D01*
X0248186Y0035994D01*
X0248310Y0036095D01*
X0248436Y0036193D01*
X0248564Y0036288D01*
X0248695Y0036379D01*
X0248828Y0036467D01*
X0248963Y0036552D01*
X0249100Y0036634D01*
X0249239Y0036712D01*
X0249380Y0036786D01*
X0249523Y0036857D01*
X0249668Y0036925D01*
X0249814Y0036989D01*
X0249962Y0037049D01*
X0250111Y0037105D01*
X0250261Y0037158D01*
X0250413Y0037207D01*
X0250566Y0037252D01*
X0250720Y0037293D01*
X0250875Y0037331D01*
X0251031Y0037364D01*
X0251188Y0037394D01*
X0251345Y0037420D01*
X0251503Y0037441D01*
X0251662Y0037459D01*
X0251821Y0037473D01*
X0251980Y0037483D01*
X0252139Y0037489D01*
X0252299Y0037491D01*
X0252459Y0037489D01*
X0252618Y0037483D01*
X0252777Y0037473D01*
X0252936Y0037459D01*
X0253095Y0037441D01*
X0253253Y0037420D01*
X0253410Y0037394D01*
X0253567Y0037364D01*
X0253723Y0037331D01*
X0253878Y0037293D01*
X0254032Y0037252D01*
X0254185Y0037207D01*
X0254337Y0037158D01*
X0254487Y0037105D01*
X0254636Y0037049D01*
X0254784Y0036989D01*
X0254930Y0036925D01*
X0255075Y0036857D01*
X0255218Y0036786D01*
X0255359Y0036712D01*
X0255498Y0036634D01*
X0255635Y0036552D01*
X0255770Y0036467D01*
X0255903Y0036379D01*
X0256034Y0036288D01*
X0256162Y0036193D01*
X0256288Y0036095D01*
X0256412Y0035994D01*
X0256532Y0035890D01*
X0256651Y0035783D01*
X0256766Y0035673D01*
X0256879Y0035560D01*
X0256989Y0035445D01*
X0257096Y0035326D01*
X0257200Y0035206D01*
X0257301Y0035082D01*
X0257399Y0034956D01*
X0257494Y0034828D01*
X0257585Y0034697D01*
X0257673Y0034564D01*
X0257758Y0034429D01*
X0257840Y0034292D01*
X0257918Y0034153D01*
X0257992Y0034012D01*
X0258063Y0033869D01*
X0258131Y0033724D01*
X0258195Y0033578D01*
X0258255Y0033430D01*
X0258311Y0033281D01*
X0258364Y0033131D01*
X0258413Y0032979D01*
X0258458Y0032826D01*
X0258499Y0032672D01*
X0258537Y0032517D01*
X0258570Y0032361D01*
X0258600Y0032204D01*
X0258626Y0032047D01*
X0258647Y0031889D01*
X0258665Y0031730D01*
X0258679Y0031571D01*
X0258689Y0031412D01*
X0258695Y0031253D01*
X0258697Y0031093D01*
X0258695Y0030933D01*
X0258689Y0030774D01*
X0258679Y0030615D01*
X0258665Y0030456D01*
X0258647Y0030297D01*
X0258626Y0030139D01*
X0258600Y0029982D01*
X0258570Y0029825D01*
X0258537Y0029669D01*
X0258499Y0029514D01*
X0258458Y0029360D01*
X0258413Y0029207D01*
X0258364Y0029055D01*
X0258311Y0028905D01*
X0258255Y0028756D01*
X0258195Y0028608D01*
X0258131Y0028462D01*
X0258063Y0028317D01*
X0257992Y0028174D01*
X0257918Y0028033D01*
X0257840Y0027894D01*
X0257758Y0027757D01*
X0257673Y0027622D01*
X0257585Y0027489D01*
X0257494Y0027358D01*
X0257399Y0027230D01*
X0257301Y0027104D01*
X0257200Y0026980D01*
X0257096Y0026860D01*
X0256989Y0026741D01*
X0256879Y0026626D01*
X0256766Y0026513D01*
X0256651Y0026403D01*
X0256532Y0026296D01*
X0256412Y0026192D01*
X0256288Y0026091D01*
X0256162Y0025993D01*
X0256034Y0025898D01*
X0255903Y0025807D01*
X0255770Y0025719D01*
X0255635Y0025634D01*
X0255498Y0025552D01*
X0255359Y0025474D01*
X0255218Y0025400D01*
X0255075Y0025329D01*
X0254930Y0025261D01*
X0254784Y0025197D01*
X0254636Y0025137D01*
X0254487Y0025081D01*
X0254337Y0025028D01*
X0254185Y0024979D01*
X0254032Y0024934D01*
X0253878Y0024893D01*
X0253723Y0024855D01*
X0253567Y0024822D01*
X0253410Y0024792D01*
X0253253Y0024766D01*
X0253095Y0024745D01*
X0252936Y0024727D01*
X0252777Y0024713D01*
X0252618Y0024703D01*
X0252459Y0024697D01*
X0252299Y0024695D01*
X0252139Y0024697D01*
X0251980Y0024703D01*
X0251821Y0024713D01*
X0251662Y0024727D01*
X0251503Y0024745D01*
X0251345Y0024766D01*
X0251188Y0024792D01*
X0251031Y0024822D01*
X0250875Y0024855D01*
X0250720Y0024893D01*
X0250566Y0024934D01*
X0250413Y0024979D01*
X0250261Y0025028D01*
X0250111Y0025081D01*
X0249962Y0025137D01*
X0249814Y0025197D01*
X0249668Y0025261D01*
X0249523Y0025329D01*
X0249380Y0025400D01*
X0249239Y0025474D01*
X0249100Y0025552D01*
X0248963Y0025634D01*
X0248828Y0025719D01*
X0248695Y0025807D01*
X0248564Y0025898D01*
X0248436Y0025993D01*
X0248310Y0026091D01*
X0248186Y0026192D01*
X0248066Y0026296D01*
X0247947Y0026403D01*
X0247832Y0026513D01*
X0247719Y0026626D01*
X0247609Y0026741D01*
X0247502Y0026860D01*
X0247398Y0026980D01*
X0247297Y0027104D01*
X0247199Y0027230D01*
X0247104Y0027358D01*
X0247013Y0027489D01*
X0246925Y0027622D01*
X0246840Y0027757D01*
X0246758Y0027894D01*
X0246680Y0028033D01*
X0246606Y0028174D01*
X0246535Y0028317D01*
X0246467Y0028462D01*
X0246403Y0028608D01*
X0246343Y0028756D01*
X0246287Y0028905D01*
X0246234Y0029055D01*
X0246185Y0029207D01*
X0246140Y0029360D01*
X0246099Y0029514D01*
X0246061Y0029669D01*
X0246028Y0029825D01*
X0245998Y0029982D01*
X0245972Y0030139D01*
X0245951Y0030297D01*
X0245933Y0030456D01*
X0245919Y0030615D01*
X0245909Y0030774D01*
X0245903Y0030933D01*
X0245901Y0031093D01*
X0280095Y0346093D02*
X0280097Y0346251D01*
X0280103Y0346409D01*
X0280113Y0346567D01*
X0280127Y0346725D01*
X0280145Y0346882D01*
X0280166Y0347039D01*
X0280192Y0347195D01*
X0280222Y0347351D01*
X0280255Y0347506D01*
X0280293Y0347659D01*
X0280334Y0347812D01*
X0280379Y0347964D01*
X0280428Y0348115D01*
X0280481Y0348264D01*
X0280537Y0348412D01*
X0280597Y0348558D01*
X0280661Y0348703D01*
X0280729Y0348846D01*
X0280800Y0348988D01*
X0280874Y0349128D01*
X0280952Y0349265D01*
X0281034Y0349401D01*
X0281118Y0349535D01*
X0281207Y0349666D01*
X0281298Y0349795D01*
X0281393Y0349922D01*
X0281490Y0350047D01*
X0281591Y0350169D01*
X0281695Y0350288D01*
X0281802Y0350405D01*
X0281912Y0350519D01*
X0282025Y0350630D01*
X0282140Y0350739D01*
X0282258Y0350844D01*
X0282379Y0350946D01*
X0282502Y0351046D01*
X0282628Y0351142D01*
X0282756Y0351235D01*
X0282886Y0351325D01*
X0283019Y0351411D01*
X0283154Y0351495D01*
X0283290Y0351574D01*
X0283429Y0351651D01*
X0283570Y0351723D01*
X0283712Y0351793D01*
X0283856Y0351858D01*
X0284002Y0351920D01*
X0284149Y0351978D01*
X0284298Y0352033D01*
X0284448Y0352084D01*
X0284599Y0352131D01*
X0284751Y0352174D01*
X0284904Y0352213D01*
X0285059Y0352249D01*
X0285214Y0352280D01*
X0285370Y0352308D01*
X0285526Y0352332D01*
X0285683Y0352352D01*
X0285841Y0352368D01*
X0285998Y0352380D01*
X0286157Y0352388D01*
X0286315Y0352392D01*
X0286473Y0352392D01*
X0286631Y0352388D01*
X0286790Y0352380D01*
X0286947Y0352368D01*
X0287105Y0352352D01*
X0287262Y0352332D01*
X0287418Y0352308D01*
X0287574Y0352280D01*
X0287729Y0352249D01*
X0287884Y0352213D01*
X0288037Y0352174D01*
X0288189Y0352131D01*
X0288340Y0352084D01*
X0288490Y0352033D01*
X0288639Y0351978D01*
X0288786Y0351920D01*
X0288932Y0351858D01*
X0289076Y0351793D01*
X0289218Y0351723D01*
X0289359Y0351651D01*
X0289498Y0351574D01*
X0289634Y0351495D01*
X0289769Y0351411D01*
X0289902Y0351325D01*
X0290032Y0351235D01*
X0290160Y0351142D01*
X0290286Y0351046D01*
X0290409Y0350946D01*
X0290530Y0350844D01*
X0290648Y0350739D01*
X0290763Y0350630D01*
X0290876Y0350519D01*
X0290986Y0350405D01*
X0291093Y0350288D01*
X0291197Y0350169D01*
X0291298Y0350047D01*
X0291395Y0349922D01*
X0291490Y0349795D01*
X0291581Y0349666D01*
X0291670Y0349535D01*
X0291754Y0349401D01*
X0291836Y0349265D01*
X0291914Y0349128D01*
X0291988Y0348988D01*
X0292059Y0348846D01*
X0292127Y0348703D01*
X0292191Y0348558D01*
X0292251Y0348412D01*
X0292307Y0348264D01*
X0292360Y0348115D01*
X0292409Y0347964D01*
X0292454Y0347812D01*
X0292495Y0347659D01*
X0292533Y0347506D01*
X0292566Y0347351D01*
X0292596Y0347195D01*
X0292622Y0347039D01*
X0292643Y0346882D01*
X0292661Y0346725D01*
X0292675Y0346567D01*
X0292685Y0346409D01*
X0292691Y0346251D01*
X0292693Y0346093D01*
X0292691Y0345935D01*
X0292685Y0345777D01*
X0292675Y0345619D01*
X0292661Y0345461D01*
X0292643Y0345304D01*
X0292622Y0345147D01*
X0292596Y0344991D01*
X0292566Y0344835D01*
X0292533Y0344680D01*
X0292495Y0344527D01*
X0292454Y0344374D01*
X0292409Y0344222D01*
X0292360Y0344071D01*
X0292307Y0343922D01*
X0292251Y0343774D01*
X0292191Y0343628D01*
X0292127Y0343483D01*
X0292059Y0343340D01*
X0291988Y0343198D01*
X0291914Y0343058D01*
X0291836Y0342921D01*
X0291754Y0342785D01*
X0291670Y0342651D01*
X0291581Y0342520D01*
X0291490Y0342391D01*
X0291395Y0342264D01*
X0291298Y0342139D01*
X0291197Y0342017D01*
X0291093Y0341898D01*
X0290986Y0341781D01*
X0290876Y0341667D01*
X0290763Y0341556D01*
X0290648Y0341447D01*
X0290530Y0341342D01*
X0290409Y0341240D01*
X0290286Y0341140D01*
X0290160Y0341044D01*
X0290032Y0340951D01*
X0289902Y0340861D01*
X0289769Y0340775D01*
X0289634Y0340691D01*
X0289498Y0340612D01*
X0289359Y0340535D01*
X0289218Y0340463D01*
X0289076Y0340393D01*
X0288932Y0340328D01*
X0288786Y0340266D01*
X0288639Y0340208D01*
X0288490Y0340153D01*
X0288340Y0340102D01*
X0288189Y0340055D01*
X0288037Y0340012D01*
X0287884Y0339973D01*
X0287729Y0339937D01*
X0287574Y0339906D01*
X0287418Y0339878D01*
X0287262Y0339854D01*
X0287105Y0339834D01*
X0286947Y0339818D01*
X0286790Y0339806D01*
X0286631Y0339798D01*
X0286473Y0339794D01*
X0286315Y0339794D01*
X0286157Y0339798D01*
X0285998Y0339806D01*
X0285841Y0339818D01*
X0285683Y0339834D01*
X0285526Y0339854D01*
X0285370Y0339878D01*
X0285214Y0339906D01*
X0285059Y0339937D01*
X0284904Y0339973D01*
X0284751Y0340012D01*
X0284599Y0340055D01*
X0284448Y0340102D01*
X0284298Y0340153D01*
X0284149Y0340208D01*
X0284002Y0340266D01*
X0283856Y0340328D01*
X0283712Y0340393D01*
X0283570Y0340463D01*
X0283429Y0340535D01*
X0283290Y0340612D01*
X0283154Y0340691D01*
X0283019Y0340775D01*
X0282886Y0340861D01*
X0282756Y0340951D01*
X0282628Y0341044D01*
X0282502Y0341140D01*
X0282379Y0341240D01*
X0282258Y0341342D01*
X0282140Y0341447D01*
X0282025Y0341556D01*
X0281912Y0341667D01*
X0281802Y0341781D01*
X0281695Y0341898D01*
X0281591Y0342017D01*
X0281490Y0342139D01*
X0281393Y0342264D01*
X0281298Y0342391D01*
X0281207Y0342520D01*
X0281118Y0342651D01*
X0281034Y0342785D01*
X0280952Y0342921D01*
X0280874Y0343058D01*
X0280800Y0343198D01*
X0280729Y0343340D01*
X0280661Y0343483D01*
X0280597Y0343628D01*
X0280537Y0343774D01*
X0280481Y0343922D01*
X0280428Y0344071D01*
X0280379Y0344222D01*
X0280334Y0344374D01*
X0280293Y0344527D01*
X0280255Y0344680D01*
X0280222Y0344835D01*
X0280192Y0344991D01*
X0280166Y0345147D01*
X0280145Y0345304D01*
X0280127Y0345461D01*
X0280113Y0345619D01*
X0280103Y0345777D01*
X0280097Y0345935D01*
X0280095Y0346093D01*
X0010095Y0346093D02*
X0010097Y0346251D01*
X0010103Y0346409D01*
X0010113Y0346567D01*
X0010127Y0346725D01*
X0010145Y0346882D01*
X0010166Y0347039D01*
X0010192Y0347195D01*
X0010222Y0347351D01*
X0010255Y0347506D01*
X0010293Y0347659D01*
X0010334Y0347812D01*
X0010379Y0347964D01*
X0010428Y0348115D01*
X0010481Y0348264D01*
X0010537Y0348412D01*
X0010597Y0348558D01*
X0010661Y0348703D01*
X0010729Y0348846D01*
X0010800Y0348988D01*
X0010874Y0349128D01*
X0010952Y0349265D01*
X0011034Y0349401D01*
X0011118Y0349535D01*
X0011207Y0349666D01*
X0011298Y0349795D01*
X0011393Y0349922D01*
X0011490Y0350047D01*
X0011591Y0350169D01*
X0011695Y0350288D01*
X0011802Y0350405D01*
X0011912Y0350519D01*
X0012025Y0350630D01*
X0012140Y0350739D01*
X0012258Y0350844D01*
X0012379Y0350946D01*
X0012502Y0351046D01*
X0012628Y0351142D01*
X0012756Y0351235D01*
X0012886Y0351325D01*
X0013019Y0351411D01*
X0013154Y0351495D01*
X0013290Y0351574D01*
X0013429Y0351651D01*
X0013570Y0351723D01*
X0013712Y0351793D01*
X0013856Y0351858D01*
X0014002Y0351920D01*
X0014149Y0351978D01*
X0014298Y0352033D01*
X0014448Y0352084D01*
X0014599Y0352131D01*
X0014751Y0352174D01*
X0014904Y0352213D01*
X0015059Y0352249D01*
X0015214Y0352280D01*
X0015370Y0352308D01*
X0015526Y0352332D01*
X0015683Y0352352D01*
X0015841Y0352368D01*
X0015998Y0352380D01*
X0016157Y0352388D01*
X0016315Y0352392D01*
X0016473Y0352392D01*
X0016631Y0352388D01*
X0016790Y0352380D01*
X0016947Y0352368D01*
X0017105Y0352352D01*
X0017262Y0352332D01*
X0017418Y0352308D01*
X0017574Y0352280D01*
X0017729Y0352249D01*
X0017884Y0352213D01*
X0018037Y0352174D01*
X0018189Y0352131D01*
X0018340Y0352084D01*
X0018490Y0352033D01*
X0018639Y0351978D01*
X0018786Y0351920D01*
X0018932Y0351858D01*
X0019076Y0351793D01*
X0019218Y0351723D01*
X0019359Y0351651D01*
X0019498Y0351574D01*
X0019634Y0351495D01*
X0019769Y0351411D01*
X0019902Y0351325D01*
X0020032Y0351235D01*
X0020160Y0351142D01*
X0020286Y0351046D01*
X0020409Y0350946D01*
X0020530Y0350844D01*
X0020648Y0350739D01*
X0020763Y0350630D01*
X0020876Y0350519D01*
X0020986Y0350405D01*
X0021093Y0350288D01*
X0021197Y0350169D01*
X0021298Y0350047D01*
X0021395Y0349922D01*
X0021490Y0349795D01*
X0021581Y0349666D01*
X0021670Y0349535D01*
X0021754Y0349401D01*
X0021836Y0349265D01*
X0021914Y0349128D01*
X0021988Y0348988D01*
X0022059Y0348846D01*
X0022127Y0348703D01*
X0022191Y0348558D01*
X0022251Y0348412D01*
X0022307Y0348264D01*
X0022360Y0348115D01*
X0022409Y0347964D01*
X0022454Y0347812D01*
X0022495Y0347659D01*
X0022533Y0347506D01*
X0022566Y0347351D01*
X0022596Y0347195D01*
X0022622Y0347039D01*
X0022643Y0346882D01*
X0022661Y0346725D01*
X0022675Y0346567D01*
X0022685Y0346409D01*
X0022691Y0346251D01*
X0022693Y0346093D01*
X0022691Y0345935D01*
X0022685Y0345777D01*
X0022675Y0345619D01*
X0022661Y0345461D01*
X0022643Y0345304D01*
X0022622Y0345147D01*
X0022596Y0344991D01*
X0022566Y0344835D01*
X0022533Y0344680D01*
X0022495Y0344527D01*
X0022454Y0344374D01*
X0022409Y0344222D01*
X0022360Y0344071D01*
X0022307Y0343922D01*
X0022251Y0343774D01*
X0022191Y0343628D01*
X0022127Y0343483D01*
X0022059Y0343340D01*
X0021988Y0343198D01*
X0021914Y0343058D01*
X0021836Y0342921D01*
X0021754Y0342785D01*
X0021670Y0342651D01*
X0021581Y0342520D01*
X0021490Y0342391D01*
X0021395Y0342264D01*
X0021298Y0342139D01*
X0021197Y0342017D01*
X0021093Y0341898D01*
X0020986Y0341781D01*
X0020876Y0341667D01*
X0020763Y0341556D01*
X0020648Y0341447D01*
X0020530Y0341342D01*
X0020409Y0341240D01*
X0020286Y0341140D01*
X0020160Y0341044D01*
X0020032Y0340951D01*
X0019902Y0340861D01*
X0019769Y0340775D01*
X0019634Y0340691D01*
X0019498Y0340612D01*
X0019359Y0340535D01*
X0019218Y0340463D01*
X0019076Y0340393D01*
X0018932Y0340328D01*
X0018786Y0340266D01*
X0018639Y0340208D01*
X0018490Y0340153D01*
X0018340Y0340102D01*
X0018189Y0340055D01*
X0018037Y0340012D01*
X0017884Y0339973D01*
X0017729Y0339937D01*
X0017574Y0339906D01*
X0017418Y0339878D01*
X0017262Y0339854D01*
X0017105Y0339834D01*
X0016947Y0339818D01*
X0016790Y0339806D01*
X0016631Y0339798D01*
X0016473Y0339794D01*
X0016315Y0339794D01*
X0016157Y0339798D01*
X0015998Y0339806D01*
X0015841Y0339818D01*
X0015683Y0339834D01*
X0015526Y0339854D01*
X0015370Y0339878D01*
X0015214Y0339906D01*
X0015059Y0339937D01*
X0014904Y0339973D01*
X0014751Y0340012D01*
X0014599Y0340055D01*
X0014448Y0340102D01*
X0014298Y0340153D01*
X0014149Y0340208D01*
X0014002Y0340266D01*
X0013856Y0340328D01*
X0013712Y0340393D01*
X0013570Y0340463D01*
X0013429Y0340535D01*
X0013290Y0340612D01*
X0013154Y0340691D01*
X0013019Y0340775D01*
X0012886Y0340861D01*
X0012756Y0340951D01*
X0012628Y0341044D01*
X0012502Y0341140D01*
X0012379Y0341240D01*
X0012258Y0341342D01*
X0012140Y0341447D01*
X0012025Y0341556D01*
X0011912Y0341667D01*
X0011802Y0341781D01*
X0011695Y0341898D01*
X0011591Y0342017D01*
X0011490Y0342139D01*
X0011393Y0342264D01*
X0011298Y0342391D01*
X0011207Y0342520D01*
X0011118Y0342651D01*
X0011034Y0342785D01*
X0010952Y0342921D01*
X0010874Y0343058D01*
X0010800Y0343198D01*
X0010729Y0343340D01*
X0010661Y0343483D01*
X0010597Y0343628D01*
X0010537Y0343774D01*
X0010481Y0343922D01*
X0010428Y0344071D01*
X0010379Y0344222D01*
X0010334Y0344374D01*
X0010293Y0344527D01*
X0010255Y0344680D01*
X0010222Y0344835D01*
X0010192Y0344991D01*
X0010166Y0345147D01*
X0010145Y0345304D01*
X0010127Y0345461D01*
X0010113Y0345619D01*
X0010103Y0345777D01*
X0010097Y0345935D01*
X0010095Y0346093D01*
D11*
X0226394Y0331093D02*
X0226394Y0111093D01*
X0301394Y0111093D01*
X0301394Y0331093D01*
X0226394Y0331093D01*
D12*
X0245394Y0326093D02*
X0245394Y0116093D01*
D13*
X0236350Y0349143D02*
X0232414Y0349143D01*
X0232414Y0355048D01*
X0236350Y0355048D01*
X0234382Y0352095D02*
X0232414Y0352095D01*
X0229905Y0350127D02*
X0229905Y0354064D01*
X0228921Y0355048D01*
X0226952Y0355048D01*
X0225968Y0354064D01*
X0225968Y0350127D01*
X0226952Y0349143D01*
X0228921Y0349143D01*
X0229905Y0350127D01*
X0223459Y0352095D02*
X0222475Y0351111D01*
X0219523Y0351111D01*
X0219523Y0349143D02*
X0219523Y0355048D01*
X0222475Y0355048D01*
X0223459Y0354064D01*
X0223459Y0352095D01*
X0217014Y0352095D02*
X0213077Y0352095D01*
X0210568Y0352095D02*
X0210568Y0349143D01*
X0208600Y0349143D02*
X0208600Y0352095D01*
X0209584Y0353080D01*
X0210568Y0352095D01*
X0208600Y0352095D02*
X0207616Y0353080D01*
X0206632Y0353080D01*
X0206632Y0349143D01*
X0204123Y0349143D02*
X0201170Y0349143D01*
X0200186Y0350127D01*
X0201170Y0351111D01*
X0204123Y0351111D01*
X0204123Y0352095D02*
X0204123Y0349143D01*
X0204123Y0352095D02*
X0203139Y0353080D01*
X0201170Y0353080D01*
X0197677Y0354064D02*
X0196693Y0355048D01*
X0194725Y0355048D01*
X0193741Y0354064D01*
X0193741Y0350127D01*
X0194725Y0349143D01*
X0196693Y0349143D01*
X0197677Y0350127D01*
X0191412Y0349143D02*
X0190428Y0350127D01*
X0190428Y0354064D01*
X0189444Y0353080D02*
X0191412Y0353080D01*
D14*
X0191395Y0345697D02*
X0192096Y0344996D01*
X0192096Y0343595D01*
X0191395Y0342894D01*
X0189294Y0342894D01*
X0190695Y0342894D02*
X0192096Y0341493D01*
X0193898Y0342194D02*
X0193898Y0343595D01*
X0194598Y0344295D01*
X0195999Y0344295D01*
X0196700Y0343595D01*
X0196700Y0342894D01*
X0193898Y0342894D01*
X0193898Y0342194D02*
X0194598Y0341493D01*
X0195999Y0341493D01*
X0198502Y0344295D02*
X0199903Y0341493D01*
X0201304Y0344295D01*
X0207709Y0344295D02*
X0209111Y0345697D01*
X0209111Y0341493D01*
X0210512Y0341493D02*
X0207709Y0341493D01*
X0191395Y0345697D02*
X0189294Y0345697D01*
X0189294Y0341493D01*
X0163874Y0348042D02*
X0163874Y0329144D01*
X0148913Y0329144D01*
X0148913Y0346467D01*
X0150488Y0348042D01*
X0150488Y0348829D01*
X0148126Y0348829D01*
X0149701Y0347254D01*
X0148913Y0346467D02*
X0148126Y0346467D01*
X0148126Y0348829D01*
X0148913Y0348042D02*
X0148913Y0346467D01*
X0148913Y0348042D02*
X0150488Y0348042D01*
X0163874Y0348042D01*
X0193402Y0302628D02*
X0189858Y0299085D01*
X0189858Y0269557D01*
X0199701Y0269557D01*
X0199897Y0272116D02*
X0199561Y0272249D01*
X0199228Y0272391D01*
X0198899Y0272541D01*
X0198573Y0272699D01*
X0198252Y0272864D01*
X0197934Y0273038D01*
X0197621Y0273219D01*
X0197312Y0273407D01*
X0197008Y0273603D01*
X0196709Y0273807D01*
X0196415Y0274017D01*
X0196126Y0274235D01*
X0195843Y0274460D01*
X0195565Y0274691D01*
X0195293Y0274929D01*
X0195026Y0275174D01*
X0194766Y0275425D01*
X0194512Y0275683D01*
X0194264Y0275946D01*
X0194023Y0276216D01*
X0193788Y0276491D01*
X0193560Y0276772D01*
X0193339Y0277059D01*
X0193125Y0277350D01*
X0192918Y0277647D01*
X0192719Y0277949D01*
X0192527Y0278255D01*
X0192342Y0278566D01*
X0192165Y0278882D01*
X0191996Y0279202D01*
X0191835Y0279525D01*
X0191681Y0279853D01*
X0191536Y0280184D01*
X0191398Y0280519D01*
X0191269Y0280857D01*
X0191148Y0281198D01*
X0191036Y0281542D01*
X0190931Y0281888D01*
X0190836Y0282237D01*
X0190749Y0282588D01*
X0190670Y0282941D01*
X0190600Y0283296D01*
X0190539Y0283652D01*
X0190486Y0284010D01*
X0190442Y0284369D01*
X0190407Y0284729D01*
X0190381Y0285090D01*
X0190363Y0285451D01*
X0190354Y0285813D01*
X0190354Y0286175D01*
X0190363Y0286537D01*
X0190381Y0286898D01*
X0190407Y0287259D01*
X0190442Y0287619D01*
X0190486Y0287978D01*
X0190539Y0288336D01*
X0190600Y0288692D01*
X0190670Y0289047D01*
X0190749Y0289400D01*
X0190836Y0289751D01*
X0190931Y0290100D01*
X0191036Y0290446D01*
X0191148Y0290790D01*
X0191269Y0291131D01*
X0191398Y0291469D01*
X0191536Y0291804D01*
X0191681Y0292135D01*
X0191835Y0292463D01*
X0191996Y0292786D01*
X0192165Y0293106D01*
X0192342Y0293422D01*
X0192527Y0293733D01*
X0192719Y0294039D01*
X0192918Y0294341D01*
X0193125Y0294638D01*
X0193339Y0294929D01*
X0193560Y0295216D01*
X0193788Y0295497D01*
X0194023Y0295772D01*
X0194264Y0296042D01*
X0194512Y0296305D01*
X0194766Y0296563D01*
X0195026Y0296814D01*
X0195293Y0297059D01*
X0195565Y0297297D01*
X0195843Y0297528D01*
X0196126Y0297753D01*
X0196415Y0297971D01*
X0196709Y0298181D01*
X0197008Y0298385D01*
X0197312Y0298581D01*
X0197621Y0298769D01*
X0197934Y0298950D01*
X0198252Y0299124D01*
X0198573Y0299289D01*
X0198899Y0299447D01*
X0199228Y0299597D01*
X0199561Y0299739D01*
X0199897Y0299872D01*
X0199898Y0302628D02*
X0193402Y0302628D01*
X0213086Y0300070D02*
X0213424Y0299933D01*
X0213758Y0299787D01*
X0214088Y0299634D01*
X0214415Y0299473D01*
X0214737Y0299304D01*
X0215056Y0299127D01*
X0215369Y0298942D01*
X0215679Y0298750D01*
X0215983Y0298550D01*
X0216283Y0298343D01*
X0216577Y0298129D01*
X0216867Y0297907D01*
X0217150Y0297679D01*
X0217428Y0297444D01*
X0217701Y0297202D01*
X0217967Y0296953D01*
X0218227Y0296698D01*
X0218481Y0296437D01*
X0218729Y0296170D01*
X0218969Y0295897D01*
X0219204Y0295618D01*
X0219431Y0295333D01*
X0219651Y0295043D01*
X0219865Y0294748D01*
X0220071Y0294448D01*
X0220269Y0294143D01*
X0220460Y0293833D01*
X0220644Y0293518D01*
X0220820Y0293199D01*
X0220988Y0292876D01*
X0221148Y0292549D01*
X0221300Y0292218D01*
X0221444Y0291883D01*
X0221580Y0291545D01*
X0221707Y0291204D01*
X0221827Y0290860D01*
X0221937Y0290513D01*
X0222040Y0290164D01*
X0222134Y0289812D01*
X0222219Y0289458D01*
X0222295Y0289102D01*
X0222363Y0288744D01*
X0222422Y0288384D01*
X0222473Y0288024D01*
X0222515Y0287662D01*
X0222547Y0287299D01*
X0222571Y0286936D01*
X0222587Y0286572D01*
X0222593Y0286208D01*
X0222590Y0285843D01*
X0222579Y0285479D01*
X0222559Y0285116D01*
X0222529Y0284753D01*
X0222491Y0284391D01*
X0222445Y0284029D01*
X0222389Y0283669D01*
X0222325Y0283311D01*
X0222252Y0282954D01*
X0222170Y0282599D01*
X0222080Y0282246D01*
X0221981Y0281896D01*
X0221874Y0281548D01*
X0221758Y0281202D01*
X0221634Y0280860D01*
X0221502Y0280521D01*
X0221361Y0280185D01*
X0221213Y0279852D01*
X0221056Y0279523D01*
X0220891Y0279199D01*
X0220719Y0278878D01*
X0220538Y0278561D01*
X0220351Y0278249D01*
X0220155Y0277942D01*
X0219952Y0277640D01*
X0219742Y0277342D01*
X0219525Y0277050D01*
X0219300Y0276763D01*
X0219069Y0276482D01*
X0218831Y0276206D01*
X0218586Y0275936D01*
X0218335Y0275673D01*
X0218077Y0275415D01*
X0217814Y0275164D01*
X0217544Y0274919D01*
X0217268Y0274681D01*
X0216987Y0274450D01*
X0216700Y0274226D01*
X0216408Y0274008D01*
X0216110Y0273798D01*
X0215808Y0273595D01*
X0215500Y0273400D01*
X0215188Y0273212D01*
X0214872Y0273032D01*
X0214551Y0272859D01*
X0214226Y0272695D01*
X0213897Y0272538D01*
X0213565Y0272389D01*
X0213229Y0272249D01*
X0212890Y0272117D01*
X0213087Y0269557D02*
X0222929Y0269557D01*
X0222929Y0299085D01*
X0219386Y0302628D01*
X0213087Y0302628D01*
X0253892Y0251696D02*
X0254593Y0251696D01*
X0254593Y0248894D01*
X0255293Y0248894D02*
X0253892Y0248894D01*
X0253191Y0249594D01*
X0253191Y0250995D01*
X0253892Y0251696D01*
X0255994Y0250995D02*
X0255994Y0249594D01*
X0255293Y0248894D01*
X0255994Y0247226D02*
X0255994Y0245824D01*
X0255994Y0246525D02*
X0251790Y0246525D01*
X0251790Y0245824D01*
X0253191Y0244023D02*
X0255994Y0244023D01*
X0255994Y0241921D01*
X0255293Y0241220D01*
X0253191Y0241220D01*
X0253191Y0239419D02*
X0253191Y0237317D01*
X0253892Y0236616D01*
X0255293Y0236616D01*
X0255994Y0237317D01*
X0255994Y0239419D01*
X0251790Y0239419D01*
X0253892Y0234815D02*
X0253191Y0234114D01*
X0253191Y0232713D01*
X0253892Y0232013D01*
X0255293Y0232013D01*
X0255994Y0232713D01*
X0255994Y0234114D01*
X0255293Y0234815D01*
X0253892Y0234815D01*
X0251790Y0230211D02*
X0255994Y0230211D01*
X0255994Y0227409D02*
X0251790Y0227409D01*
X0253191Y0228810D01*
X0251790Y0230211D01*
X0251790Y0221003D02*
X0251790Y0218201D01*
X0255994Y0218201D01*
X0255994Y0221003D01*
X0253892Y0219602D02*
X0253892Y0218201D01*
X0255293Y0216399D02*
X0252491Y0216399D01*
X0251790Y0215699D01*
X0251790Y0214297D01*
X0252491Y0213597D01*
X0255293Y0213597D01*
X0255994Y0214297D01*
X0255994Y0215699D01*
X0255293Y0216399D01*
X0253892Y0211795D02*
X0252491Y0211795D01*
X0251790Y0211095D01*
X0251790Y0208993D01*
X0255994Y0208993D01*
X0254593Y0208993D02*
X0254593Y0211095D01*
X0253892Y0211795D01*
X0258894Y0176093D02*
X0263894Y0176093D01*
X0213874Y0181644D02*
X0198913Y0181644D01*
X0198913Y0198967D01*
X0200488Y0200542D01*
X0200488Y0201329D01*
X0198126Y0201329D01*
X0199701Y0199754D01*
X0198913Y0198967D02*
X0198913Y0200542D01*
X0200488Y0200542D01*
X0213874Y0200542D01*
X0213874Y0181644D01*
X0198913Y0198967D02*
X0198126Y0198967D01*
X0198126Y0201329D01*
X0258894Y0286093D02*
X0263894Y0286093D01*
X0271794Y0289694D02*
X0272494Y0288993D01*
X0273895Y0288993D01*
X0274596Y0289694D01*
X0274596Y0291095D01*
X0273195Y0291095D01*
X0274596Y0292496D02*
X0273895Y0293197D01*
X0272494Y0293197D01*
X0271794Y0292496D01*
X0271794Y0289694D01*
X0276398Y0288993D02*
X0276398Y0293197D01*
X0279200Y0288993D01*
X0279200Y0293197D01*
X0281002Y0293197D02*
X0281002Y0288993D01*
X0283103Y0288993D01*
X0283804Y0289694D01*
X0283804Y0292496D01*
X0283103Y0293197D01*
X0281002Y0293197D01*
X0282403Y0298993D02*
X0283804Y0300394D01*
X0283804Y0303197D01*
X0281002Y0303197D02*
X0281002Y0300394D01*
X0282403Y0298993D01*
X0279200Y0299694D02*
X0278499Y0298993D01*
X0277098Y0298993D01*
X0276398Y0299694D01*
X0276398Y0301095D02*
X0277799Y0301795D01*
X0278499Y0301795D01*
X0279200Y0301095D01*
X0279200Y0299694D01*
X0276398Y0301095D02*
X0276398Y0303197D01*
X0279200Y0303197D01*
X0274596Y0301095D02*
X0271794Y0301095D01*
X0273195Y0302496D02*
X0273195Y0299694D01*
X0263894Y0326093D02*
X0258894Y0326093D01*
X0258894Y0116093D02*
X0263894Y0116093D01*
X0222987Y0074534D02*
X0220185Y0074534D01*
X0221586Y0074534D02*
X0221586Y0078738D01*
X0220185Y0077337D01*
X0218383Y0078738D02*
X0218383Y0074534D01*
X0215581Y0078738D01*
X0215581Y0074534D01*
X0213779Y0075235D02*
X0213779Y0078037D01*
X0213079Y0078738D01*
X0211677Y0078738D01*
X0210977Y0078037D01*
X0210977Y0075235D01*
X0211677Y0074534D01*
X0213079Y0074534D01*
X0213779Y0075235D01*
X0209175Y0075235D02*
X0208475Y0074534D01*
X0207073Y0074534D01*
X0206373Y0075235D01*
X0206373Y0078037D01*
X0207073Y0078738D01*
X0208475Y0078738D01*
X0209175Y0078037D01*
X0177994Y0041171D02*
X0177994Y0039770D01*
X0177994Y0040471D02*
X0173790Y0040471D01*
X0173790Y0041171D02*
X0173790Y0039770D01*
X0173790Y0037969D02*
X0173790Y0035166D01*
X0177994Y0035166D01*
X0177994Y0033498D02*
X0177994Y0032097D01*
X0177994Y0032797D02*
X0173790Y0032797D01*
X0173790Y0032097D02*
X0173790Y0033498D01*
X0175892Y0035166D02*
X0175892Y0036567D01*
X0177994Y0030295D02*
X0173790Y0030295D01*
X0173790Y0027493D02*
X0177994Y0027493D01*
X0176593Y0028894D01*
X0177994Y0030295D01*
X0174583Y0019774D02*
X0174583Y0017412D01*
X0172024Y0013475D02*
X0150764Y0013475D01*
X0148205Y0017412D02*
X0148205Y0019774D01*
X0148994Y0027493D02*
X0144790Y0027493D01*
X0144790Y0030295D01*
X0144790Y0032097D02*
X0144790Y0034899D01*
X0144790Y0033498D02*
X0148994Y0033498D01*
X0148994Y0030295D02*
X0148994Y0027493D01*
X0146892Y0027493D02*
X0146892Y0028894D01*
X0146892Y0036701D02*
X0146892Y0039503D01*
X0144790Y0039503D02*
X0148994Y0039503D01*
X0148994Y0036701D02*
X0144790Y0036701D01*
X0155488Y0023711D02*
X0161394Y0023711D01*
X0059268Y0083219D02*
X0057890Y0083219D01*
X0059268Y0083219D02*
X0059268Y0084597D01*
X0059268Y0097589D02*
X0059268Y0098967D01*
X0057890Y0098967D01*
X0044898Y0098967D02*
X0043520Y0098967D01*
X0043520Y0097589D01*
X0043520Y0084597D02*
X0044898Y0083219D01*
D15*
X0273894Y0121093D02*
X0273896Y0121192D01*
X0273902Y0121292D01*
X0273912Y0121391D01*
X0273926Y0121489D01*
X0273943Y0121587D01*
X0273965Y0121684D01*
X0273990Y0121780D01*
X0274019Y0121875D01*
X0274052Y0121969D01*
X0274089Y0122061D01*
X0274129Y0122152D01*
X0274173Y0122241D01*
X0274221Y0122329D01*
X0274272Y0122414D01*
X0274326Y0122497D01*
X0274383Y0122579D01*
X0274444Y0122657D01*
X0274508Y0122734D01*
X0274574Y0122807D01*
X0274644Y0122878D01*
X0274716Y0122946D01*
X0274791Y0123012D01*
X0274869Y0123074D01*
X0274949Y0123133D01*
X0275031Y0123189D01*
X0275115Y0123241D01*
X0275202Y0123290D01*
X0275290Y0123336D01*
X0275380Y0123378D01*
X0275472Y0123417D01*
X0275565Y0123452D01*
X0275659Y0123483D01*
X0275755Y0123510D01*
X0275852Y0123533D01*
X0275949Y0123553D01*
X0276047Y0123569D01*
X0276146Y0123581D01*
X0276245Y0123589D01*
X0276344Y0123593D01*
X0276444Y0123593D01*
X0276543Y0123589D01*
X0276642Y0123581D01*
X0276741Y0123569D01*
X0276839Y0123553D01*
X0276936Y0123533D01*
X0277033Y0123510D01*
X0277129Y0123483D01*
X0277223Y0123452D01*
X0277316Y0123417D01*
X0277408Y0123378D01*
X0277498Y0123336D01*
X0277586Y0123290D01*
X0277673Y0123241D01*
X0277757Y0123189D01*
X0277839Y0123133D01*
X0277919Y0123074D01*
X0277997Y0123012D01*
X0278072Y0122946D01*
X0278144Y0122878D01*
X0278214Y0122807D01*
X0278280Y0122734D01*
X0278344Y0122657D01*
X0278405Y0122579D01*
X0278462Y0122497D01*
X0278516Y0122414D01*
X0278567Y0122329D01*
X0278615Y0122241D01*
X0278659Y0122152D01*
X0278699Y0122061D01*
X0278736Y0121969D01*
X0278769Y0121875D01*
X0278798Y0121780D01*
X0278823Y0121684D01*
X0278845Y0121587D01*
X0278862Y0121489D01*
X0278876Y0121391D01*
X0278886Y0121292D01*
X0278892Y0121192D01*
X0278894Y0121093D01*
X0278892Y0120994D01*
X0278886Y0120894D01*
X0278876Y0120795D01*
X0278862Y0120697D01*
X0278845Y0120599D01*
X0278823Y0120502D01*
X0278798Y0120406D01*
X0278769Y0120311D01*
X0278736Y0120217D01*
X0278699Y0120125D01*
X0278659Y0120034D01*
X0278615Y0119945D01*
X0278567Y0119857D01*
X0278516Y0119772D01*
X0278462Y0119689D01*
X0278405Y0119607D01*
X0278344Y0119529D01*
X0278280Y0119452D01*
X0278214Y0119379D01*
X0278144Y0119308D01*
X0278072Y0119240D01*
X0277997Y0119174D01*
X0277919Y0119112D01*
X0277839Y0119053D01*
X0277757Y0118997D01*
X0277673Y0118945D01*
X0277586Y0118896D01*
X0277498Y0118850D01*
X0277408Y0118808D01*
X0277316Y0118769D01*
X0277223Y0118734D01*
X0277129Y0118703D01*
X0277033Y0118676D01*
X0276936Y0118653D01*
X0276839Y0118633D01*
X0276741Y0118617D01*
X0276642Y0118605D01*
X0276543Y0118597D01*
X0276444Y0118593D01*
X0276344Y0118593D01*
X0276245Y0118597D01*
X0276146Y0118605D01*
X0276047Y0118617D01*
X0275949Y0118633D01*
X0275852Y0118653D01*
X0275755Y0118676D01*
X0275659Y0118703D01*
X0275565Y0118734D01*
X0275472Y0118769D01*
X0275380Y0118808D01*
X0275290Y0118850D01*
X0275202Y0118896D01*
X0275115Y0118945D01*
X0275031Y0118997D01*
X0274949Y0119053D01*
X0274869Y0119112D01*
X0274791Y0119174D01*
X0274716Y0119240D01*
X0274644Y0119308D01*
X0274574Y0119379D01*
X0274508Y0119452D01*
X0274444Y0119529D01*
X0274383Y0119607D01*
X0274326Y0119689D01*
X0274272Y0119772D01*
X0274221Y0119857D01*
X0274173Y0119945D01*
X0274129Y0120034D01*
X0274089Y0120125D01*
X0274052Y0120217D01*
X0274019Y0120311D01*
X0273990Y0120406D01*
X0273965Y0120502D01*
X0273943Y0120599D01*
X0273926Y0120697D01*
X0273912Y0120795D01*
X0273902Y0120894D01*
X0273896Y0120994D01*
X0273894Y0121093D01*
D16*
X0269873Y0332675D02*
X0270506Y0333309D01*
X0270506Y0336478D01*
X0268605Y0336478D01*
X0267971Y0335845D01*
X0267971Y0334577D01*
X0268605Y0333943D01*
X0270506Y0333943D01*
X0269873Y0332675D02*
X0269239Y0332675D01*
X0266476Y0333943D02*
X0265209Y0333943D01*
X0265842Y0333943D02*
X0265842Y0336478D01*
X0265209Y0336478D01*
X0265842Y0337746D02*
X0265842Y0338380D01*
X0263601Y0336478D02*
X0261699Y0336478D01*
X0261065Y0335845D01*
X0261699Y0335211D01*
X0262967Y0335211D01*
X0263601Y0334577D01*
X0262967Y0333943D01*
X0261065Y0333943D01*
X0259457Y0335211D02*
X0256921Y0335211D01*
X0256921Y0335845D02*
X0257555Y0336478D01*
X0258823Y0336478D01*
X0259457Y0335845D01*
X0259457Y0335211D01*
X0258823Y0333943D02*
X0257555Y0333943D01*
X0256921Y0334577D01*
X0256921Y0335845D01*
X0255313Y0336478D02*
X0253412Y0336478D01*
X0252778Y0335845D01*
X0252778Y0334577D01*
X0253412Y0333943D01*
X0255313Y0333943D01*
X0255313Y0337746D01*
X0251170Y0335845D02*
X0250536Y0336478D01*
X0249268Y0336478D01*
X0248634Y0335845D01*
X0248634Y0334577D01*
X0249268Y0333943D01*
X0250536Y0333943D01*
X0251170Y0334577D01*
X0251170Y0335845D01*
X0247140Y0333943D02*
X0245872Y0333943D01*
X0246506Y0333943D02*
X0246506Y0336478D01*
X0245872Y0336478D01*
X0246506Y0337746D02*
X0246506Y0338380D01*
X0243744Y0337746D02*
X0243744Y0333943D01*
X0244377Y0333943D02*
X0243110Y0333943D01*
X0241502Y0333943D02*
X0241502Y0336478D01*
X0243110Y0337746D02*
X0243744Y0337746D01*
X0241502Y0333943D02*
X0239600Y0333943D01*
X0238966Y0334577D01*
X0238966Y0336478D01*
X0237472Y0336478D02*
X0237472Y0333309D01*
X0236838Y0332675D01*
X0236204Y0332675D01*
X0234596Y0333943D02*
X0234596Y0335845D01*
X0233962Y0336478D01*
X0232060Y0336478D01*
X0232060Y0333943D01*
X0230452Y0333943D02*
X0230452Y0335845D01*
X0229818Y0336478D01*
X0228551Y0336478D01*
X0228551Y0335211D02*
X0230452Y0335211D01*
X0230452Y0333943D02*
X0228551Y0333943D01*
X0227917Y0334577D01*
X0228551Y0335211D01*
X0226309Y0336478D02*
X0224407Y0336478D01*
X0223773Y0335845D01*
X0223773Y0334577D01*
X0224407Y0333943D01*
X0226309Y0333943D01*
X0226309Y0337746D01*
X0218022Y0337112D02*
X0217388Y0337746D01*
X0216120Y0337746D01*
X0215486Y0337112D01*
X0213878Y0337112D02*
X0213244Y0337746D01*
X0211976Y0337746D01*
X0211343Y0337112D01*
X0209735Y0337112D02*
X0209101Y0337746D01*
X0207833Y0337746D01*
X0207199Y0337112D01*
X0207199Y0334577D01*
X0209735Y0337112D01*
X0209735Y0334577D01*
X0209101Y0333943D01*
X0207833Y0333943D01*
X0207199Y0334577D01*
X0205591Y0333943D02*
X0203055Y0333943D01*
X0205591Y0336478D01*
X0205591Y0337112D01*
X0204957Y0337746D01*
X0203689Y0337746D01*
X0203055Y0337112D01*
X0197417Y0336478D02*
X0196150Y0337746D01*
X0197417Y0336478D02*
X0197417Y0335211D01*
X0196150Y0333943D01*
X0194542Y0333943D02*
X0192640Y0333943D01*
X0192006Y0334577D01*
X0192006Y0335845D01*
X0192640Y0336478D01*
X0194542Y0336478D01*
X0190511Y0337746D02*
X0189244Y0336478D01*
X0189244Y0335211D01*
X0190511Y0333943D01*
X0211343Y0333943D02*
X0213878Y0336478D01*
X0213878Y0337112D01*
X0213878Y0333943D02*
X0211343Y0333943D01*
X0215486Y0333943D02*
X0218022Y0336478D01*
X0218022Y0337112D01*
X0218022Y0333943D02*
X0215486Y0333943D01*
X0237472Y0337746D02*
X0237472Y0338380D01*
X0272114Y0336478D02*
X0272114Y0333943D01*
X0272114Y0336478D02*
X0274016Y0336478D01*
X0274650Y0335845D01*
X0274650Y0333943D01*
X0276258Y0333943D02*
X0278160Y0333943D01*
X0278794Y0334577D01*
X0278160Y0335211D01*
X0276892Y0335211D01*
X0276258Y0335845D01*
X0276892Y0336478D01*
X0278794Y0336478D01*
X0281035Y0334577D02*
X0281035Y0333943D01*
X0281669Y0333943D01*
X0281669Y0334577D01*
X0281035Y0334577D01*
X0281669Y0333943D02*
X0280402Y0332675D01*
X0287307Y0333943D02*
X0287307Y0337746D01*
X0291451Y0337746D02*
X0291451Y0333943D01*
X0293986Y0333943D01*
X0295595Y0334577D02*
X0296228Y0333943D01*
X0297496Y0333943D01*
X0298130Y0334577D01*
X0298130Y0337112D02*
X0297496Y0337746D01*
X0296228Y0337746D01*
X0295595Y0337112D01*
X0295595Y0334577D01*
X0289843Y0333943D02*
X0287307Y0333943D01*
D17*
X0140344Y0304943D02*
X0140346Y0305036D01*
X0140352Y0305130D01*
X0140362Y0305222D01*
X0140376Y0305315D01*
X0140393Y0305406D01*
X0140415Y0305497D01*
X0140440Y0305587D01*
X0140470Y0305676D01*
X0140503Y0305763D01*
X0140539Y0305849D01*
X0140580Y0305933D01*
X0140623Y0306016D01*
X0140671Y0306096D01*
X0140721Y0306175D01*
X0140775Y0306251D01*
X0140832Y0306325D01*
X0140893Y0306396D01*
X0140956Y0306465D01*
X0141022Y0306531D01*
X0141091Y0306594D01*
X0141162Y0306655D01*
X0141236Y0306712D01*
X0141312Y0306766D01*
X0141391Y0306816D01*
X0141471Y0306864D01*
X0141554Y0306907D01*
X0141638Y0306948D01*
X0141724Y0306984D01*
X0141811Y0307017D01*
X0141900Y0307047D01*
X0141990Y0307072D01*
X0142081Y0307094D01*
X0142172Y0307111D01*
X0142265Y0307125D01*
X0142357Y0307135D01*
X0142451Y0307141D01*
X0142544Y0307143D01*
X0142637Y0307141D01*
X0142731Y0307135D01*
X0142823Y0307125D01*
X0142916Y0307111D01*
X0143007Y0307094D01*
X0143098Y0307072D01*
X0143188Y0307047D01*
X0143277Y0307017D01*
X0143364Y0306984D01*
X0143450Y0306948D01*
X0143534Y0306907D01*
X0143617Y0306864D01*
X0143697Y0306816D01*
X0143776Y0306766D01*
X0143852Y0306712D01*
X0143926Y0306655D01*
X0143997Y0306594D01*
X0144066Y0306531D01*
X0144132Y0306465D01*
X0144195Y0306396D01*
X0144256Y0306325D01*
X0144313Y0306251D01*
X0144367Y0306175D01*
X0144417Y0306096D01*
X0144465Y0306016D01*
X0144508Y0305933D01*
X0144549Y0305849D01*
X0144585Y0305763D01*
X0144618Y0305676D01*
X0144648Y0305587D01*
X0144673Y0305497D01*
X0144695Y0305406D01*
X0144712Y0305315D01*
X0144726Y0305222D01*
X0144736Y0305130D01*
X0144742Y0305036D01*
X0144744Y0304943D01*
X0144742Y0304850D01*
X0144736Y0304756D01*
X0144726Y0304664D01*
X0144712Y0304571D01*
X0144695Y0304480D01*
X0144673Y0304389D01*
X0144648Y0304299D01*
X0144618Y0304210D01*
X0144585Y0304123D01*
X0144549Y0304037D01*
X0144508Y0303953D01*
X0144465Y0303870D01*
X0144417Y0303790D01*
X0144367Y0303711D01*
X0144313Y0303635D01*
X0144256Y0303561D01*
X0144195Y0303490D01*
X0144132Y0303421D01*
X0144066Y0303355D01*
X0143997Y0303292D01*
X0143926Y0303231D01*
X0143852Y0303174D01*
X0143776Y0303120D01*
X0143697Y0303070D01*
X0143617Y0303022D01*
X0143534Y0302979D01*
X0143450Y0302938D01*
X0143364Y0302902D01*
X0143277Y0302869D01*
X0143188Y0302839D01*
X0143098Y0302814D01*
X0143007Y0302792D01*
X0142916Y0302775D01*
X0142823Y0302761D01*
X0142731Y0302751D01*
X0142637Y0302745D01*
X0142544Y0302743D01*
X0142451Y0302745D01*
X0142357Y0302751D01*
X0142265Y0302761D01*
X0142172Y0302775D01*
X0142081Y0302792D01*
X0141990Y0302814D01*
X0141900Y0302839D01*
X0141811Y0302869D01*
X0141724Y0302902D01*
X0141638Y0302938D01*
X0141554Y0302979D01*
X0141471Y0303022D01*
X0141391Y0303070D01*
X0141312Y0303120D01*
X0141236Y0303174D01*
X0141162Y0303231D01*
X0141091Y0303292D01*
X0141022Y0303355D01*
X0140956Y0303421D01*
X0140893Y0303490D01*
X0140832Y0303561D01*
X0140775Y0303635D01*
X0140721Y0303711D01*
X0140671Y0303790D01*
X0140623Y0303870D01*
X0140580Y0303953D01*
X0140539Y0304037D01*
X0140503Y0304123D01*
X0140470Y0304210D01*
X0140440Y0304299D01*
X0140415Y0304389D01*
X0140393Y0304480D01*
X0140376Y0304571D01*
X0140362Y0304664D01*
X0140352Y0304756D01*
X0140346Y0304850D01*
X0140344Y0304943D01*
X0171275Y0138317D02*
X0171277Y0138356D01*
X0171283Y0138395D01*
X0171293Y0138433D01*
X0171306Y0138470D01*
X0171323Y0138505D01*
X0171343Y0138539D01*
X0171367Y0138570D01*
X0171394Y0138599D01*
X0171423Y0138625D01*
X0171455Y0138648D01*
X0171489Y0138668D01*
X0171525Y0138684D01*
X0171562Y0138696D01*
X0171601Y0138705D01*
X0171640Y0138710D01*
X0171679Y0138711D01*
X0171718Y0138708D01*
X0171757Y0138701D01*
X0171794Y0138690D01*
X0171831Y0138676D01*
X0171866Y0138658D01*
X0171899Y0138637D01*
X0171930Y0138612D01*
X0171958Y0138585D01*
X0171983Y0138555D01*
X0172005Y0138522D01*
X0172024Y0138488D01*
X0172039Y0138452D01*
X0172051Y0138414D01*
X0172059Y0138376D01*
X0172063Y0138337D01*
X0172063Y0138297D01*
X0172059Y0138258D01*
X0172051Y0138220D01*
X0172039Y0138182D01*
X0172024Y0138146D01*
X0172005Y0138112D01*
X0171983Y0138079D01*
X0171958Y0138049D01*
X0171930Y0138022D01*
X0171899Y0137997D01*
X0171866Y0137976D01*
X0171831Y0137958D01*
X0171794Y0137944D01*
X0171757Y0137933D01*
X0171718Y0137926D01*
X0171679Y0137923D01*
X0171640Y0137924D01*
X0171601Y0137929D01*
X0171562Y0137938D01*
X0171525Y0137950D01*
X0171489Y0137966D01*
X0171455Y0137986D01*
X0171423Y0138009D01*
X0171394Y0138035D01*
X0171367Y0138064D01*
X0171343Y0138095D01*
X0171323Y0138129D01*
X0171306Y0138164D01*
X0171293Y0138201D01*
X0171283Y0138239D01*
X0171277Y0138278D01*
X0171275Y0138317D01*
X0046275Y0061369D02*
X0046277Y0061408D01*
X0046283Y0061447D01*
X0046293Y0061485D01*
X0046306Y0061522D01*
X0046323Y0061557D01*
X0046343Y0061591D01*
X0046367Y0061622D01*
X0046394Y0061651D01*
X0046423Y0061677D01*
X0046455Y0061700D01*
X0046489Y0061720D01*
X0046525Y0061736D01*
X0046562Y0061748D01*
X0046601Y0061757D01*
X0046640Y0061762D01*
X0046679Y0061763D01*
X0046718Y0061760D01*
X0046757Y0061753D01*
X0046794Y0061742D01*
X0046831Y0061728D01*
X0046866Y0061710D01*
X0046899Y0061689D01*
X0046930Y0061664D01*
X0046958Y0061637D01*
X0046983Y0061607D01*
X0047005Y0061574D01*
X0047024Y0061540D01*
X0047039Y0061504D01*
X0047051Y0061466D01*
X0047059Y0061428D01*
X0047063Y0061389D01*
X0047063Y0061349D01*
X0047059Y0061310D01*
X0047051Y0061272D01*
X0047039Y0061234D01*
X0047024Y0061198D01*
X0047005Y0061164D01*
X0046983Y0061131D01*
X0046958Y0061101D01*
X0046930Y0061074D01*
X0046899Y0061049D01*
X0046866Y0061028D01*
X0046831Y0061010D01*
X0046794Y0060996D01*
X0046757Y0060985D01*
X0046718Y0060978D01*
X0046679Y0060975D01*
X0046640Y0060976D01*
X0046601Y0060981D01*
X0046562Y0060990D01*
X0046525Y0061002D01*
X0046489Y0061018D01*
X0046455Y0061038D01*
X0046423Y0061061D01*
X0046394Y0061087D01*
X0046367Y0061116D01*
X0046343Y0061147D01*
X0046323Y0061181D01*
X0046306Y0061216D01*
X0046293Y0061253D01*
X0046283Y0061291D01*
X0046277Y0061330D01*
X0046275Y0061369D01*
D18*
X0079189Y0061605D02*
X0079189Y0050581D01*
X0103205Y0050581D01*
X0103205Y0061605D01*
X0079189Y0061605D01*
X0098185Y0092943D02*
X0109602Y0092943D01*
X0109602Y0099243D01*
X0098185Y0099243D01*
X0098185Y0092943D01*
X0106894Y0097593D02*
X0106896Y0097656D01*
X0106902Y0097718D01*
X0106912Y0097780D01*
X0106925Y0097842D01*
X0106943Y0097902D01*
X0106964Y0097961D01*
X0106989Y0098019D01*
X0107018Y0098075D01*
X0107050Y0098129D01*
X0107085Y0098181D01*
X0107123Y0098230D01*
X0107165Y0098278D01*
X0107209Y0098322D01*
X0107257Y0098364D01*
X0107306Y0098402D01*
X0107358Y0098437D01*
X0107412Y0098469D01*
X0107468Y0098498D01*
X0107526Y0098523D01*
X0107585Y0098544D01*
X0107645Y0098562D01*
X0107707Y0098575D01*
X0107769Y0098585D01*
X0107831Y0098591D01*
X0107894Y0098593D01*
X0107957Y0098591D01*
X0108019Y0098585D01*
X0108081Y0098575D01*
X0108143Y0098562D01*
X0108203Y0098544D01*
X0108262Y0098523D01*
X0108320Y0098498D01*
X0108376Y0098469D01*
X0108430Y0098437D01*
X0108482Y0098402D01*
X0108531Y0098364D01*
X0108579Y0098322D01*
X0108623Y0098278D01*
X0108665Y0098230D01*
X0108703Y0098181D01*
X0108738Y0098129D01*
X0108770Y0098075D01*
X0108799Y0098019D01*
X0108824Y0097961D01*
X0108845Y0097902D01*
X0108863Y0097842D01*
X0108876Y0097780D01*
X0108886Y0097718D01*
X0108892Y0097656D01*
X0108894Y0097593D01*
X0108892Y0097530D01*
X0108886Y0097468D01*
X0108876Y0097406D01*
X0108863Y0097344D01*
X0108845Y0097284D01*
X0108824Y0097225D01*
X0108799Y0097167D01*
X0108770Y0097111D01*
X0108738Y0097057D01*
X0108703Y0097005D01*
X0108665Y0096956D01*
X0108623Y0096908D01*
X0108579Y0096864D01*
X0108531Y0096822D01*
X0108482Y0096784D01*
X0108430Y0096749D01*
X0108376Y0096717D01*
X0108320Y0096688D01*
X0108262Y0096663D01*
X0108203Y0096642D01*
X0108143Y0096624D01*
X0108081Y0096611D01*
X0108019Y0096601D01*
X0107957Y0096595D01*
X0107894Y0096593D01*
X0107831Y0096595D01*
X0107769Y0096601D01*
X0107707Y0096611D01*
X0107645Y0096624D01*
X0107585Y0096642D01*
X0107526Y0096663D01*
X0107468Y0096688D01*
X0107412Y0096717D01*
X0107358Y0096749D01*
X0107306Y0096784D01*
X0107257Y0096822D01*
X0107209Y0096864D01*
X0107165Y0096908D01*
X0107123Y0096956D01*
X0107085Y0097005D01*
X0107050Y0097057D01*
X0107018Y0097111D01*
X0106989Y0097167D01*
X0106964Y0097225D01*
X0106943Y0097284D01*
X0106925Y0097344D01*
X0106912Y0097406D01*
X0106902Y0097468D01*
X0106896Y0097530D01*
X0106894Y0097593D01*
X0102299Y0107825D02*
X0090488Y0107825D01*
X0090488Y0124361D01*
X0102299Y0124361D01*
X0102299Y0107825D01*
X0125114Y0150660D02*
X0125705Y0150660D01*
X0125705Y0221526D01*
X0124917Y0221526D01*
X0130528Y0275227D02*
X0130528Y0277589D01*
X0130528Y0275227D02*
X0132890Y0275227D01*
X0130528Y0314597D02*
X0130528Y0316959D01*
X0132890Y0316959D01*
X0169898Y0316959D02*
X0172260Y0316959D01*
X0172260Y0314597D01*
X0195370Y0305384D02*
X0198520Y0305384D01*
X0196945Y0303809D02*
X0196945Y0306959D01*
X0172260Y0277589D02*
X0172260Y0275227D01*
X0169898Y0275227D01*
X0176394Y0236093D02*
X0186394Y0236093D01*
X0196394Y0236093D01*
X0206394Y0236093D01*
X0216394Y0236093D01*
X0216394Y0226093D01*
X0206394Y0226093D01*
X0206394Y0236093D01*
X0206394Y0226093D01*
X0196394Y0226093D01*
X0196394Y0236093D01*
X0196394Y0226093D01*
X0186394Y0226093D01*
X0186394Y0236093D01*
X0186394Y0226093D01*
X0176394Y0226093D01*
X0176394Y0236093D01*
X0213382Y0162904D02*
X0213382Y0138888D01*
X0224406Y0138888D01*
X0224406Y0162904D01*
X0213382Y0162904D01*
X0213382Y0132904D02*
X0213382Y0108888D01*
X0224406Y0108888D01*
X0224406Y0132904D01*
X0213382Y0132904D01*
X0270764Y0105286D02*
X0270764Y0091900D01*
X0292024Y0091900D01*
X0292024Y0105286D01*
X0270764Y0105286D01*
X0274701Y0052530D02*
X0274701Y0044656D01*
X0288087Y0044656D01*
X0288087Y0052530D01*
X0274701Y0052530D01*
X0273264Y0186900D02*
X0294524Y0186900D01*
X0294524Y0200286D01*
X0273264Y0200286D01*
X0273264Y0186900D01*
X0273264Y0201900D02*
X0294524Y0201900D01*
X0294524Y0215286D01*
X0273264Y0215286D01*
X0273264Y0201900D01*
X0133598Y0061605D02*
X0133598Y0050581D01*
X0109583Y0050581D01*
X0109583Y0061605D01*
X0133598Y0061605D01*
X0093087Y0024636D02*
X0093087Y0017156D01*
X0089150Y0017156D01*
X0083638Y0017156D02*
X0079701Y0017156D01*
X0079701Y0024636D01*
X0080094Y0024636D01*
X0085213Y0024636D02*
X0087575Y0024636D01*
X0092693Y0024636D02*
X0093087Y0024636D01*
X0028657Y0150660D02*
X0002083Y0150660D01*
X0002083Y0221526D01*
X0028657Y0221526D01*
X0088244Y0280384D02*
X0088244Y0291802D01*
X0094543Y0291802D01*
X0094543Y0280384D01*
X0088244Y0280384D01*
X0088894Y0290093D02*
X0088896Y0290156D01*
X0088902Y0290218D01*
X0088912Y0290280D01*
X0088925Y0290342D01*
X0088943Y0290402D01*
X0088964Y0290461D01*
X0088989Y0290519D01*
X0089018Y0290575D01*
X0089050Y0290629D01*
X0089085Y0290681D01*
X0089123Y0290730D01*
X0089165Y0290778D01*
X0089209Y0290822D01*
X0089257Y0290864D01*
X0089306Y0290902D01*
X0089358Y0290937D01*
X0089412Y0290969D01*
X0089468Y0290998D01*
X0089526Y0291023D01*
X0089585Y0291044D01*
X0089645Y0291062D01*
X0089707Y0291075D01*
X0089769Y0291085D01*
X0089831Y0291091D01*
X0089894Y0291093D01*
X0089957Y0291091D01*
X0090019Y0291085D01*
X0090081Y0291075D01*
X0090143Y0291062D01*
X0090203Y0291044D01*
X0090262Y0291023D01*
X0090320Y0290998D01*
X0090376Y0290969D01*
X0090430Y0290937D01*
X0090482Y0290902D01*
X0090531Y0290864D01*
X0090579Y0290822D01*
X0090623Y0290778D01*
X0090665Y0290730D01*
X0090703Y0290681D01*
X0090738Y0290629D01*
X0090770Y0290575D01*
X0090799Y0290519D01*
X0090824Y0290461D01*
X0090845Y0290402D01*
X0090863Y0290342D01*
X0090876Y0290280D01*
X0090886Y0290218D01*
X0090892Y0290156D01*
X0090894Y0290093D01*
X0090892Y0290030D01*
X0090886Y0289968D01*
X0090876Y0289906D01*
X0090863Y0289844D01*
X0090845Y0289784D01*
X0090824Y0289725D01*
X0090799Y0289667D01*
X0090770Y0289611D01*
X0090738Y0289557D01*
X0090703Y0289505D01*
X0090665Y0289456D01*
X0090623Y0289408D01*
X0090579Y0289364D01*
X0090531Y0289322D01*
X0090482Y0289284D01*
X0090430Y0289249D01*
X0090376Y0289217D01*
X0090320Y0289188D01*
X0090262Y0289163D01*
X0090203Y0289142D01*
X0090143Y0289124D01*
X0090081Y0289111D01*
X0090019Y0289101D01*
X0089957Y0289095D01*
X0089894Y0289093D01*
X0089831Y0289095D01*
X0089769Y0289101D01*
X0089707Y0289111D01*
X0089645Y0289124D01*
X0089585Y0289142D01*
X0089526Y0289163D01*
X0089468Y0289188D01*
X0089412Y0289217D01*
X0089358Y0289249D01*
X0089306Y0289284D01*
X0089257Y0289322D01*
X0089209Y0289364D01*
X0089165Y0289408D01*
X0089123Y0289456D01*
X0089085Y0289505D01*
X0089050Y0289557D01*
X0089018Y0289611D01*
X0088989Y0289667D01*
X0088964Y0289725D01*
X0088943Y0289784D01*
X0088925Y0289844D01*
X0088912Y0289906D01*
X0088902Y0289968D01*
X0088896Y0290030D01*
X0088894Y0290093D01*
X0088244Y0300384D02*
X0094543Y0300384D01*
X0094543Y0311802D01*
X0088244Y0311802D01*
X0088244Y0300384D01*
X0088894Y0310093D02*
X0088896Y0310156D01*
X0088902Y0310218D01*
X0088912Y0310280D01*
X0088925Y0310342D01*
X0088943Y0310402D01*
X0088964Y0310461D01*
X0088989Y0310519D01*
X0089018Y0310575D01*
X0089050Y0310629D01*
X0089085Y0310681D01*
X0089123Y0310730D01*
X0089165Y0310778D01*
X0089209Y0310822D01*
X0089257Y0310864D01*
X0089306Y0310902D01*
X0089358Y0310937D01*
X0089412Y0310969D01*
X0089468Y0310998D01*
X0089526Y0311023D01*
X0089585Y0311044D01*
X0089645Y0311062D01*
X0089707Y0311075D01*
X0089769Y0311085D01*
X0089831Y0311091D01*
X0089894Y0311093D01*
X0089957Y0311091D01*
X0090019Y0311085D01*
X0090081Y0311075D01*
X0090143Y0311062D01*
X0090203Y0311044D01*
X0090262Y0311023D01*
X0090320Y0310998D01*
X0090376Y0310969D01*
X0090430Y0310937D01*
X0090482Y0310902D01*
X0090531Y0310864D01*
X0090579Y0310822D01*
X0090623Y0310778D01*
X0090665Y0310730D01*
X0090703Y0310681D01*
X0090738Y0310629D01*
X0090770Y0310575D01*
X0090799Y0310519D01*
X0090824Y0310461D01*
X0090845Y0310402D01*
X0090863Y0310342D01*
X0090876Y0310280D01*
X0090886Y0310218D01*
X0090892Y0310156D01*
X0090894Y0310093D01*
X0090892Y0310030D01*
X0090886Y0309968D01*
X0090876Y0309906D01*
X0090863Y0309844D01*
X0090845Y0309784D01*
X0090824Y0309725D01*
X0090799Y0309667D01*
X0090770Y0309611D01*
X0090738Y0309557D01*
X0090703Y0309505D01*
X0090665Y0309456D01*
X0090623Y0309408D01*
X0090579Y0309364D01*
X0090531Y0309322D01*
X0090482Y0309284D01*
X0090430Y0309249D01*
X0090376Y0309217D01*
X0090320Y0309188D01*
X0090262Y0309163D01*
X0090203Y0309142D01*
X0090143Y0309124D01*
X0090081Y0309111D01*
X0090019Y0309101D01*
X0089957Y0309095D01*
X0089894Y0309093D01*
X0089831Y0309095D01*
X0089769Y0309101D01*
X0089707Y0309111D01*
X0089645Y0309124D01*
X0089585Y0309142D01*
X0089526Y0309163D01*
X0089468Y0309188D01*
X0089412Y0309217D01*
X0089358Y0309249D01*
X0089306Y0309284D01*
X0089257Y0309322D01*
X0089209Y0309364D01*
X0089165Y0309408D01*
X0089123Y0309456D01*
X0089085Y0309505D01*
X0089050Y0309557D01*
X0089018Y0309611D01*
X0088989Y0309667D01*
X0088964Y0309725D01*
X0088943Y0309784D01*
X0088925Y0309844D01*
X0088912Y0309906D01*
X0088902Y0309968D01*
X0088896Y0310030D01*
X0088894Y0310093D01*
X0088244Y0320384D02*
X0094543Y0320384D01*
X0094543Y0331802D01*
X0088244Y0331802D01*
X0088244Y0320384D01*
X0088894Y0330093D02*
X0088896Y0330156D01*
X0088902Y0330218D01*
X0088912Y0330280D01*
X0088925Y0330342D01*
X0088943Y0330402D01*
X0088964Y0330461D01*
X0088989Y0330519D01*
X0089018Y0330575D01*
X0089050Y0330629D01*
X0089085Y0330681D01*
X0089123Y0330730D01*
X0089165Y0330778D01*
X0089209Y0330822D01*
X0089257Y0330864D01*
X0089306Y0330902D01*
X0089358Y0330937D01*
X0089412Y0330969D01*
X0089468Y0330998D01*
X0089526Y0331023D01*
X0089585Y0331044D01*
X0089645Y0331062D01*
X0089707Y0331075D01*
X0089769Y0331085D01*
X0089831Y0331091D01*
X0089894Y0331093D01*
X0089957Y0331091D01*
X0090019Y0331085D01*
X0090081Y0331075D01*
X0090143Y0331062D01*
X0090203Y0331044D01*
X0090262Y0331023D01*
X0090320Y0330998D01*
X0090376Y0330969D01*
X0090430Y0330937D01*
X0090482Y0330902D01*
X0090531Y0330864D01*
X0090579Y0330822D01*
X0090623Y0330778D01*
X0090665Y0330730D01*
X0090703Y0330681D01*
X0090738Y0330629D01*
X0090770Y0330575D01*
X0090799Y0330519D01*
X0090824Y0330461D01*
X0090845Y0330402D01*
X0090863Y0330342D01*
X0090876Y0330280D01*
X0090886Y0330218D01*
X0090892Y0330156D01*
X0090894Y0330093D01*
X0090892Y0330030D01*
X0090886Y0329968D01*
X0090876Y0329906D01*
X0090863Y0329844D01*
X0090845Y0329784D01*
X0090824Y0329725D01*
X0090799Y0329667D01*
X0090770Y0329611D01*
X0090738Y0329557D01*
X0090703Y0329505D01*
X0090665Y0329456D01*
X0090623Y0329408D01*
X0090579Y0329364D01*
X0090531Y0329322D01*
X0090482Y0329284D01*
X0090430Y0329249D01*
X0090376Y0329217D01*
X0090320Y0329188D01*
X0090262Y0329163D01*
X0090203Y0329142D01*
X0090143Y0329124D01*
X0090081Y0329111D01*
X0090019Y0329101D01*
X0089957Y0329095D01*
X0089894Y0329093D01*
X0089831Y0329095D01*
X0089769Y0329101D01*
X0089707Y0329111D01*
X0089645Y0329124D01*
X0089585Y0329142D01*
X0089526Y0329163D01*
X0089468Y0329188D01*
X0089412Y0329217D01*
X0089358Y0329249D01*
X0089306Y0329284D01*
X0089257Y0329322D01*
X0089209Y0329364D01*
X0089165Y0329408D01*
X0089123Y0329456D01*
X0089085Y0329505D01*
X0089050Y0329557D01*
X0089018Y0329611D01*
X0088989Y0329667D01*
X0088964Y0329725D01*
X0088943Y0329784D01*
X0088925Y0329844D01*
X0088912Y0329906D01*
X0088902Y0329968D01*
X0088896Y0330030D01*
X0088894Y0330093D01*
D19*
X0089761Y0332893D02*
X0090895Y0332893D01*
X0091462Y0333460D01*
X0091462Y0336296D01*
X0092877Y0336296D02*
X0095145Y0336296D01*
X0095145Y0335729D01*
X0092877Y0333460D01*
X0092877Y0332893D01*
X0089761Y0332893D02*
X0089194Y0333460D01*
X0089194Y0336296D01*
X0089261Y0352893D02*
X0088694Y0353460D01*
X0088694Y0355729D01*
X0089261Y0356296D01*
X0090395Y0356296D01*
X0090962Y0355729D01*
X0090962Y0353460D01*
X0090395Y0352893D01*
X0089261Y0352893D01*
X0089828Y0354027D02*
X0090962Y0352893D01*
X0092377Y0353460D02*
X0092944Y0352893D01*
X0094078Y0352893D01*
X0094645Y0353460D01*
X0094645Y0354027D01*
X0094078Y0354594D01*
X0093511Y0354594D01*
X0094078Y0354594D02*
X0094645Y0355162D01*
X0094645Y0355729D01*
X0094078Y0356296D01*
X0092944Y0356296D01*
X0092377Y0355729D01*
X0109691Y0350344D02*
X0113094Y0350344D01*
X0113094Y0349210D02*
X0113094Y0351478D01*
X0110825Y0349210D02*
X0109691Y0350344D01*
X0111392Y0347795D02*
X0111392Y0345527D01*
X0109691Y0347228D01*
X0113094Y0347228D01*
X0112527Y0344112D02*
X0113094Y0343545D01*
X0113094Y0342411D01*
X0112527Y0341843D01*
X0110258Y0341843D01*
X0109691Y0342411D01*
X0109691Y0343545D01*
X0110258Y0344112D01*
X0119691Y0343045D02*
X0119691Y0341343D01*
X0123094Y0341343D01*
X0121959Y0341343D02*
X0121959Y0343045D01*
X0121392Y0343612D01*
X0120258Y0343612D01*
X0119691Y0343045D01*
X0120258Y0345027D02*
X0119691Y0345594D01*
X0119691Y0346728D01*
X0120258Y0347295D01*
X0120825Y0347295D01*
X0121392Y0346728D01*
X0121959Y0347295D01*
X0122527Y0347295D01*
X0123094Y0346728D01*
X0123094Y0345594D01*
X0122527Y0345027D01*
X0123094Y0343612D02*
X0121959Y0342478D01*
X0121392Y0346161D02*
X0121392Y0346728D01*
X0121392Y0348710D02*
X0121392Y0350411D01*
X0121959Y0350978D01*
X0122527Y0350978D01*
X0123094Y0350411D01*
X0123094Y0349277D01*
X0122527Y0348710D01*
X0121392Y0348710D01*
X0120258Y0349844D01*
X0119691Y0350978D01*
X0134691Y0343478D02*
X0134691Y0341210D01*
X0135258Y0339795D02*
X0135825Y0339795D01*
X0136392Y0339228D01*
X0136959Y0339795D01*
X0137527Y0339795D01*
X0138094Y0339228D01*
X0138094Y0338094D01*
X0137527Y0337527D01*
X0137527Y0336112D02*
X0138094Y0335545D01*
X0138094Y0334411D01*
X0137527Y0333843D01*
X0135258Y0333843D01*
X0134691Y0334411D01*
X0134691Y0335545D01*
X0135258Y0336112D01*
X0135258Y0337527D02*
X0134691Y0338094D01*
X0134691Y0339228D01*
X0135258Y0339795D01*
X0136392Y0339228D02*
X0136392Y0338661D01*
X0137527Y0341210D02*
X0135258Y0343478D01*
X0134691Y0343478D01*
X0137527Y0341210D02*
X0138094Y0341210D01*
X0135472Y0323457D02*
X0135472Y0320054D01*
X0136606Y0320054D02*
X0134337Y0320054D01*
X0132923Y0320621D02*
X0132356Y0320054D01*
X0131221Y0320054D01*
X0130654Y0320621D01*
X0131221Y0321756D02*
X0130654Y0322323D01*
X0130654Y0322890D01*
X0131221Y0323457D01*
X0132356Y0323457D01*
X0132923Y0322890D01*
X0132356Y0321756D02*
X0132923Y0321189D01*
X0132923Y0320621D01*
X0132356Y0321756D02*
X0131221Y0321756D01*
X0134337Y0322323D02*
X0135472Y0323457D01*
X0150875Y0324960D02*
X0151442Y0324393D01*
X0152576Y0324393D01*
X0153143Y0324960D01*
X0153143Y0327796D01*
X0154558Y0327229D02*
X0154558Y0326662D01*
X0155125Y0326094D01*
X0156827Y0326094D01*
X0156827Y0324960D02*
X0156827Y0327229D01*
X0156259Y0327796D01*
X0155125Y0327796D01*
X0154558Y0327229D01*
X0154558Y0324960D02*
X0155125Y0324393D01*
X0156259Y0324393D01*
X0156827Y0324960D01*
X0150875Y0324960D02*
X0150875Y0327796D01*
X0123094Y0306961D02*
X0123094Y0305826D01*
X0122527Y0305259D01*
X0121959Y0305259D01*
X0121392Y0305826D01*
X0121392Y0306961D01*
X0121959Y0307528D01*
X0122527Y0307528D01*
X0123094Y0306961D01*
X0121392Y0306961D02*
X0120825Y0307528D01*
X0120258Y0307528D01*
X0119691Y0306961D01*
X0119691Y0305826D01*
X0120258Y0305259D01*
X0120825Y0305259D01*
X0121392Y0305826D01*
X0120825Y0303845D02*
X0121392Y0303278D01*
X0121959Y0303845D01*
X0122527Y0303845D01*
X0123094Y0303278D01*
X0123094Y0302143D01*
X0122527Y0301576D01*
X0122527Y0300162D02*
X0123094Y0299594D01*
X0123094Y0298460D01*
X0122527Y0297893D01*
X0120258Y0297893D01*
X0119691Y0298460D01*
X0119691Y0299594D01*
X0120258Y0300162D01*
X0120258Y0301576D02*
X0119691Y0302143D01*
X0119691Y0303278D01*
X0120258Y0303845D01*
X0120825Y0303845D01*
X0121392Y0303278D02*
X0121392Y0302710D01*
X0112527Y0290478D02*
X0113094Y0289911D01*
X0113094Y0288777D01*
X0112527Y0288210D01*
X0112527Y0286795D02*
X0113094Y0286228D01*
X0113094Y0285094D01*
X0112527Y0284527D01*
X0112527Y0283112D02*
X0113094Y0282545D01*
X0113094Y0281411D01*
X0112527Y0280843D01*
X0110258Y0280843D01*
X0109691Y0281411D01*
X0109691Y0282545D01*
X0110258Y0283112D01*
X0110258Y0284527D02*
X0109691Y0285094D01*
X0109691Y0286228D01*
X0110258Y0286795D01*
X0110825Y0286795D01*
X0111392Y0286228D01*
X0111959Y0286795D01*
X0112527Y0286795D01*
X0111392Y0286228D02*
X0111392Y0285661D01*
X0110258Y0288210D02*
X0109691Y0288777D01*
X0109691Y0289911D01*
X0110258Y0290478D01*
X0110825Y0290478D01*
X0111392Y0289911D01*
X0111959Y0290478D01*
X0112527Y0290478D01*
X0111392Y0289911D02*
X0111392Y0289344D01*
X0102527Y0301343D02*
X0103094Y0301911D01*
X0103094Y0303045D01*
X0102527Y0303612D01*
X0102527Y0305027D02*
X0103094Y0305594D01*
X0103094Y0306728D01*
X0102527Y0307295D01*
X0101959Y0307295D01*
X0101392Y0306728D01*
X0101392Y0306161D01*
X0101392Y0306728D02*
X0100825Y0307295D01*
X0100258Y0307295D01*
X0099691Y0306728D01*
X0099691Y0305594D01*
X0100258Y0305027D01*
X0100258Y0303612D02*
X0099691Y0303045D01*
X0099691Y0301911D01*
X0100258Y0301343D01*
X0102527Y0301343D01*
X0095145Y0296296D02*
X0094011Y0295729D01*
X0092877Y0294594D01*
X0094578Y0294594D01*
X0095145Y0294027D01*
X0095145Y0293460D01*
X0094578Y0292893D01*
X0093444Y0292893D01*
X0092877Y0293460D01*
X0092877Y0294594D01*
X0091462Y0293460D02*
X0091462Y0296296D01*
X0089194Y0296296D02*
X0089194Y0293460D01*
X0089761Y0292893D01*
X0090895Y0292893D01*
X0091462Y0293460D01*
X0082527Y0304343D02*
X0083094Y0304911D01*
X0083094Y0306045D01*
X0082527Y0306612D01*
X0082527Y0308027D02*
X0083094Y0308594D01*
X0083094Y0309728D01*
X0082527Y0310295D01*
X0081959Y0310295D01*
X0081392Y0309728D01*
X0081392Y0309161D01*
X0081392Y0309728D02*
X0080825Y0310295D01*
X0080258Y0310295D01*
X0079691Y0309728D01*
X0079691Y0308594D01*
X0080258Y0308027D01*
X0080258Y0306612D02*
X0079691Y0306045D01*
X0079691Y0304911D01*
X0080258Y0304343D01*
X0082527Y0304343D01*
X0083094Y0311710D02*
X0083094Y0313978D01*
X0083094Y0312844D02*
X0079691Y0312844D01*
X0080825Y0311710D01*
X0088694Y0313460D02*
X0089261Y0312893D01*
X0090395Y0312893D01*
X0090962Y0313460D01*
X0090962Y0316296D01*
X0092377Y0315729D02*
X0092377Y0315162D01*
X0092944Y0314594D01*
X0094078Y0314594D01*
X0094645Y0314027D01*
X0094645Y0313460D01*
X0094078Y0312893D01*
X0092944Y0312893D01*
X0092377Y0313460D01*
X0092377Y0314027D01*
X0092944Y0314594D01*
X0094078Y0314594D02*
X0094645Y0315162D01*
X0094645Y0315729D01*
X0094078Y0316296D01*
X0092944Y0316296D01*
X0092377Y0315729D01*
X0088694Y0316296D02*
X0088694Y0313460D01*
X0099691Y0310411D02*
X0099691Y0309277D01*
X0100258Y0308710D01*
X0099691Y0310411D02*
X0100258Y0310978D01*
X0100825Y0310978D01*
X0103094Y0308710D01*
X0103094Y0310978D01*
X0110258Y0321343D02*
X0112527Y0321343D01*
X0113094Y0321911D01*
X0113094Y0323045D01*
X0112527Y0323612D01*
X0112527Y0325027D02*
X0113094Y0325594D01*
X0113094Y0326728D01*
X0112527Y0327295D01*
X0111959Y0327295D01*
X0111392Y0326728D01*
X0111392Y0326161D01*
X0111392Y0326728D02*
X0110825Y0327295D01*
X0110258Y0327295D01*
X0109691Y0326728D01*
X0109691Y0325594D01*
X0110258Y0325027D01*
X0110258Y0323612D02*
X0109691Y0323045D01*
X0109691Y0321911D01*
X0110258Y0321343D01*
X0110258Y0328710D02*
X0109691Y0329277D01*
X0109691Y0330411D01*
X0110258Y0330978D01*
X0112527Y0328710D01*
X0113094Y0329277D01*
X0113094Y0330411D01*
X0112527Y0330978D01*
X0110258Y0330978D01*
X0110258Y0328710D02*
X0112527Y0328710D01*
X0073594Y0329277D02*
X0073594Y0330411D01*
X0073027Y0330978D01*
X0070758Y0330978D01*
X0070191Y0330411D01*
X0070191Y0329277D01*
X0070758Y0328710D01*
X0071325Y0328710D01*
X0071892Y0329277D01*
X0071892Y0330978D01*
X0073594Y0329277D02*
X0073027Y0328710D01*
X0073594Y0327295D02*
X0073594Y0325027D01*
X0071325Y0327295D01*
X0070758Y0327295D01*
X0070191Y0326728D01*
X0070191Y0325594D01*
X0070758Y0325027D01*
X0070758Y0323612D02*
X0070191Y0323045D01*
X0070191Y0321911D01*
X0070758Y0321343D01*
X0073027Y0321343D01*
X0073594Y0321911D01*
X0073594Y0323045D01*
X0073027Y0323612D01*
X0073094Y0341393D02*
X0069691Y0341393D01*
X0069691Y0343094D01*
X0070258Y0343662D01*
X0071392Y0343662D01*
X0071959Y0343094D01*
X0071959Y0341393D01*
X0071959Y0342527D02*
X0073094Y0343662D01*
X0072527Y0345076D02*
X0073094Y0345643D01*
X0073094Y0346778D01*
X0072527Y0347345D01*
X0071959Y0347345D01*
X0071392Y0346778D01*
X0071392Y0346210D01*
X0071392Y0346778D02*
X0070825Y0347345D01*
X0070258Y0347345D01*
X0069691Y0346778D01*
X0069691Y0345643D01*
X0070258Y0345076D01*
X0069691Y0348759D02*
X0071392Y0348759D01*
X0070825Y0349894D01*
X0070825Y0350461D01*
X0071392Y0351028D01*
X0072527Y0351028D01*
X0073094Y0350461D01*
X0073094Y0349326D01*
X0072527Y0348759D01*
X0069691Y0348759D02*
X0069691Y0351028D01*
X0070758Y0290978D02*
X0071325Y0290978D01*
X0071892Y0290411D01*
X0071892Y0289277D01*
X0071325Y0288710D01*
X0070758Y0288710D01*
X0070191Y0289277D01*
X0070191Y0290411D01*
X0070758Y0290978D01*
X0071892Y0290411D02*
X0072459Y0290978D01*
X0073027Y0290978D01*
X0073594Y0290411D01*
X0073594Y0289277D01*
X0073027Y0288710D01*
X0072459Y0288710D01*
X0071892Y0289277D01*
X0071325Y0287295D02*
X0070758Y0287295D01*
X0070191Y0286728D01*
X0070191Y0285594D01*
X0070758Y0285027D01*
X0070758Y0283612D02*
X0070191Y0283045D01*
X0070191Y0281911D01*
X0070758Y0281343D01*
X0073027Y0281343D01*
X0073594Y0281911D01*
X0073594Y0283045D01*
X0073027Y0283612D01*
X0073594Y0285027D02*
X0071325Y0287295D01*
X0073594Y0287295D02*
X0073594Y0285027D01*
X0067527Y0241345D02*
X0065258Y0241345D01*
X0064691Y0240778D01*
X0064691Y0239643D01*
X0065258Y0239076D01*
X0065825Y0239076D01*
X0066392Y0239643D01*
X0066392Y0241345D01*
X0067527Y0241345D02*
X0068094Y0240778D01*
X0068094Y0239643D01*
X0067527Y0239076D01*
X0068094Y0237662D02*
X0066959Y0236527D01*
X0066959Y0237094D02*
X0066959Y0235393D01*
X0068094Y0235393D02*
X0064691Y0235393D01*
X0064691Y0237094D01*
X0065258Y0237662D01*
X0066392Y0237662D01*
X0066959Y0237094D01*
X0089694Y0239393D02*
X0089694Y0242796D01*
X0091395Y0242796D01*
X0091962Y0242229D01*
X0091962Y0241094D01*
X0091395Y0240527D01*
X0089694Y0240527D01*
X0090828Y0240527D02*
X0091962Y0239393D01*
X0093377Y0239960D02*
X0093944Y0239393D01*
X0095078Y0239393D01*
X0095645Y0239960D01*
X0095645Y0240527D01*
X0095078Y0241094D01*
X0094511Y0241094D01*
X0095078Y0241094D02*
X0095645Y0241662D01*
X0095645Y0242229D01*
X0095078Y0242796D01*
X0093944Y0242796D01*
X0093377Y0242229D01*
X0097060Y0242229D02*
X0097627Y0242796D01*
X0098761Y0242796D01*
X0099329Y0242229D01*
X0097060Y0239960D01*
X0097627Y0239393D01*
X0098761Y0239393D01*
X0099329Y0239960D01*
X0099329Y0242229D01*
X0097060Y0242229D02*
X0097060Y0239960D01*
X0099895Y0231796D02*
X0101029Y0231796D01*
X0101596Y0231229D01*
X0101596Y0228960D01*
X0101029Y0228393D01*
X0099895Y0228393D01*
X0099327Y0228960D01*
X0099327Y0231229D01*
X0099895Y0231796D01*
X0100462Y0229527D02*
X0101596Y0228393D01*
X0103011Y0228393D02*
X0105279Y0230662D01*
X0105279Y0231229D01*
X0104712Y0231796D01*
X0103578Y0231796D01*
X0103011Y0231229D01*
X0103011Y0228393D02*
X0105279Y0228393D01*
X0119691Y0246343D02*
X0119691Y0248045D01*
X0120258Y0248612D01*
X0121392Y0248612D01*
X0121959Y0248045D01*
X0121959Y0246343D01*
X0123094Y0246343D02*
X0119691Y0246343D01*
X0121959Y0247478D02*
X0123094Y0248612D01*
X0123094Y0250027D02*
X0120825Y0252295D01*
X0120258Y0252295D01*
X0119691Y0251728D01*
X0119691Y0250594D01*
X0120258Y0250027D01*
X0123094Y0250027D02*
X0123094Y0252295D01*
X0122527Y0253710D02*
X0121959Y0253710D01*
X0121392Y0254277D01*
X0121392Y0255411D01*
X0121959Y0255978D01*
X0122527Y0255978D01*
X0123094Y0255411D01*
X0123094Y0254277D01*
X0122527Y0253710D01*
X0121392Y0254277D02*
X0120825Y0253710D01*
X0120258Y0253710D01*
X0119691Y0254277D01*
X0119691Y0255411D01*
X0120258Y0255978D01*
X0120825Y0255978D01*
X0121392Y0255411D01*
X0142644Y0259960D02*
X0143211Y0259393D01*
X0144346Y0259393D01*
X0144913Y0259960D01*
X0146327Y0259960D02*
X0146895Y0259393D01*
X0148029Y0259393D01*
X0148596Y0259960D01*
X0148596Y0260527D01*
X0148029Y0261094D01*
X0147462Y0261094D01*
X0148029Y0261094D02*
X0148596Y0261662D01*
X0148596Y0262229D01*
X0148029Y0262796D01*
X0146895Y0262796D01*
X0146327Y0262229D01*
X0144913Y0262229D02*
X0144346Y0262796D01*
X0143211Y0262796D01*
X0142644Y0262229D01*
X0142644Y0259960D01*
X0150011Y0259960D02*
X0150578Y0259393D01*
X0151712Y0259393D01*
X0152279Y0259960D01*
X0152279Y0262229D01*
X0151712Y0262796D01*
X0150578Y0262796D01*
X0150011Y0262229D01*
X0150011Y0261662D01*
X0150578Y0261094D01*
X0152279Y0261094D01*
X0169194Y0263893D02*
X0169194Y0267296D01*
X0170895Y0267296D01*
X0171462Y0266729D01*
X0171462Y0265594D01*
X0170895Y0265027D01*
X0169194Y0265027D01*
X0170328Y0265027D02*
X0171462Y0263893D01*
X0172877Y0264460D02*
X0173444Y0263893D01*
X0174578Y0263893D01*
X0175145Y0264460D01*
X0175145Y0265027D01*
X0174578Y0265594D01*
X0174011Y0265594D01*
X0174578Y0265594D02*
X0175145Y0266162D01*
X0175145Y0266729D01*
X0174578Y0267296D01*
X0173444Y0267296D01*
X0172877Y0266729D01*
X0176560Y0266729D02*
X0176560Y0266162D01*
X0177127Y0265594D01*
X0178261Y0265594D01*
X0178829Y0265027D01*
X0178829Y0264460D01*
X0178261Y0263893D01*
X0177127Y0263893D01*
X0176560Y0264460D01*
X0176560Y0265027D01*
X0177127Y0265594D01*
X0178261Y0265594D02*
X0178829Y0266162D01*
X0178829Y0266729D01*
X0178261Y0267296D01*
X0177127Y0267296D01*
X0176560Y0266729D01*
X0175578Y0250296D02*
X0176145Y0249729D01*
X0176145Y0249162D01*
X0175578Y0248594D01*
X0176145Y0248027D01*
X0176145Y0247460D01*
X0175578Y0246893D01*
X0174444Y0246893D01*
X0173877Y0247460D01*
X0172462Y0246893D02*
X0171328Y0248027D01*
X0171895Y0248027D02*
X0170194Y0248027D01*
X0170194Y0246893D02*
X0170194Y0250296D01*
X0171895Y0250296D01*
X0172462Y0249729D01*
X0172462Y0248594D01*
X0171895Y0248027D01*
X0173877Y0249729D02*
X0174444Y0250296D01*
X0175578Y0250296D01*
X0175578Y0248594D02*
X0175011Y0248594D01*
X0177560Y0247460D02*
X0177560Y0246893D01*
X0177560Y0247460D02*
X0179829Y0249729D01*
X0179829Y0250296D01*
X0177560Y0250296D01*
X0171027Y0228028D02*
X0170459Y0228028D01*
X0169892Y0227461D01*
X0169892Y0225759D01*
X0171027Y0225759D01*
X0171594Y0226326D01*
X0171594Y0227461D01*
X0171027Y0228028D01*
X0168758Y0226894D02*
X0169892Y0225759D01*
X0168758Y0226894D02*
X0168191Y0228028D01*
X0168191Y0223210D02*
X0171594Y0223210D01*
X0171594Y0222076D02*
X0171594Y0224345D01*
X0169325Y0222076D02*
X0168191Y0223210D01*
X0168758Y0220662D02*
X0168191Y0220094D01*
X0168191Y0218960D01*
X0168758Y0218393D01*
X0171027Y0218393D01*
X0171594Y0218960D01*
X0171594Y0220094D01*
X0171027Y0220662D01*
X0179691Y0216028D02*
X0179691Y0213759D01*
X0179691Y0216028D02*
X0180258Y0216028D01*
X0182527Y0213759D01*
X0183094Y0213759D01*
X0183094Y0212345D02*
X0183094Y0210076D01*
X0183094Y0211210D02*
X0179691Y0211210D01*
X0180825Y0210076D01*
X0180258Y0208662D02*
X0179691Y0208094D01*
X0179691Y0206960D01*
X0180258Y0206393D01*
X0182527Y0206393D01*
X0183094Y0206960D01*
X0183094Y0208094D01*
X0182527Y0208662D01*
X0167334Y0201796D02*
X0166767Y0202363D01*
X0165633Y0202363D01*
X0165066Y0201796D01*
X0163651Y0202363D02*
X0163651Y0199527D01*
X0163084Y0198960D01*
X0161950Y0198960D01*
X0161383Y0199527D01*
X0161383Y0202363D01*
X0165066Y0198960D02*
X0167334Y0201228D01*
X0167334Y0201796D01*
X0167334Y0198960D02*
X0165066Y0198960D01*
X0153779Y0187229D02*
X0153212Y0187796D01*
X0152078Y0187796D01*
X0151511Y0187229D01*
X0153779Y0187229D02*
X0153779Y0186662D01*
X0151511Y0184393D01*
X0153779Y0184393D01*
X0150096Y0184393D02*
X0147827Y0184393D01*
X0148962Y0184393D02*
X0148962Y0187796D01*
X0147827Y0186662D01*
X0146413Y0187229D02*
X0146413Y0186094D01*
X0145846Y0185527D01*
X0144144Y0185527D01*
X0144144Y0184393D02*
X0144144Y0187796D01*
X0145846Y0187796D01*
X0146413Y0187229D01*
X0145279Y0185527D02*
X0146413Y0184393D01*
X0147029Y0175796D02*
X0145327Y0175796D01*
X0145327Y0172393D01*
X0145327Y0173527D02*
X0147029Y0173527D01*
X0147596Y0174094D01*
X0147596Y0175229D01*
X0147029Y0175796D01*
X0149011Y0175229D02*
X0149011Y0174662D01*
X0149578Y0174094D01*
X0150712Y0174094D01*
X0151279Y0173527D01*
X0151279Y0172960D01*
X0150712Y0172393D01*
X0149578Y0172393D01*
X0149011Y0172960D01*
X0149011Y0173527D01*
X0149578Y0174094D01*
X0150712Y0174094D02*
X0151279Y0174662D01*
X0151279Y0175229D01*
X0150712Y0175796D01*
X0149578Y0175796D01*
X0149011Y0175229D01*
X0146462Y0173527D02*
X0147596Y0172393D01*
X0154691Y0160344D02*
X0158094Y0160344D01*
X0158094Y0159210D02*
X0158094Y0161478D01*
X0155825Y0159210D02*
X0154691Y0160344D01*
X0155258Y0157795D02*
X0154691Y0157228D01*
X0154691Y0156094D01*
X0155258Y0155527D01*
X0155258Y0154112D02*
X0154691Y0153545D01*
X0154691Y0152411D01*
X0155258Y0151843D01*
X0157527Y0151843D01*
X0158094Y0152411D01*
X0158094Y0153545D01*
X0157527Y0154112D01*
X0158094Y0155527D02*
X0155825Y0157795D01*
X0155258Y0157795D01*
X0158094Y0157795D02*
X0158094Y0155527D01*
X0167758Y0166343D02*
X0167191Y0166911D01*
X0167191Y0168045D01*
X0167758Y0168612D01*
X0167758Y0170027D02*
X0167191Y0170594D01*
X0167191Y0171728D01*
X0167758Y0172295D01*
X0168325Y0172295D01*
X0170594Y0170027D01*
X0170594Y0172295D01*
X0170027Y0173710D02*
X0170594Y0174277D01*
X0170594Y0175411D01*
X0170027Y0175978D01*
X0167758Y0175978D01*
X0170027Y0173710D01*
X0167758Y0173710D01*
X0167191Y0174277D01*
X0167191Y0175411D01*
X0167758Y0175978D01*
X0170027Y0168612D02*
X0170594Y0168045D01*
X0170594Y0166911D01*
X0170027Y0166343D01*
X0167758Y0166343D01*
X0175194Y0163729D02*
X0175194Y0161460D01*
X0175761Y0160893D01*
X0176895Y0160893D01*
X0177462Y0161460D01*
X0178877Y0160893D02*
X0181145Y0160893D01*
X0180011Y0160893D02*
X0180011Y0164296D01*
X0178877Y0163162D01*
X0177462Y0163729D02*
X0176895Y0164296D01*
X0175761Y0164296D01*
X0175194Y0163729D01*
X0175761Y0170393D02*
X0176895Y0170393D01*
X0177462Y0170960D01*
X0178877Y0170393D02*
X0181145Y0170393D01*
X0180011Y0170393D02*
X0180011Y0173796D01*
X0178877Y0172662D01*
X0177462Y0173229D02*
X0176895Y0173796D01*
X0175761Y0173796D01*
X0175194Y0173229D01*
X0175194Y0170960D01*
X0175761Y0170393D01*
X0182560Y0170960D02*
X0183127Y0170393D01*
X0184261Y0170393D01*
X0184829Y0170960D01*
X0184829Y0173229D01*
X0184261Y0173796D01*
X0183127Y0173796D01*
X0182560Y0173229D01*
X0182560Y0172662D01*
X0183127Y0172094D01*
X0184829Y0172094D01*
X0184261Y0164296D02*
X0184829Y0163729D01*
X0184829Y0163162D01*
X0184261Y0162594D01*
X0183127Y0162594D01*
X0182560Y0163162D01*
X0182560Y0163729D01*
X0183127Y0164296D01*
X0184261Y0164296D01*
X0184261Y0162594D02*
X0184829Y0162027D01*
X0184829Y0161460D01*
X0184261Y0160893D01*
X0183127Y0160893D01*
X0182560Y0161460D01*
X0182560Y0162027D01*
X0183127Y0162594D01*
X0183694Y0152796D02*
X0183694Y0149393D01*
X0182560Y0149393D02*
X0184829Y0149393D01*
X0182560Y0151662D02*
X0183694Y0152796D01*
X0180011Y0152796D02*
X0180011Y0149393D01*
X0178877Y0149393D02*
X0181145Y0149393D01*
X0178877Y0151662D02*
X0180011Y0152796D01*
X0177462Y0152229D02*
X0177462Y0151094D01*
X0176895Y0150527D01*
X0175194Y0150527D01*
X0176328Y0150527D02*
X0177462Y0149393D01*
X0175194Y0149393D02*
X0175194Y0152796D01*
X0176895Y0152796D01*
X0177462Y0152229D01*
X0179175Y0143814D02*
X0179175Y0140978D01*
X0179743Y0140411D01*
X0180877Y0140411D01*
X0181444Y0140978D01*
X0181444Y0143814D01*
X0182859Y0142680D02*
X0183993Y0143814D01*
X0183993Y0140411D01*
X0182859Y0140411D02*
X0185127Y0140411D01*
X0192191Y0133278D02*
X0192758Y0133845D01*
X0193325Y0133845D01*
X0193892Y0133278D01*
X0193892Y0132143D01*
X0193325Y0131576D01*
X0192758Y0131576D01*
X0192191Y0132143D01*
X0192191Y0133278D01*
X0193892Y0133278D02*
X0194459Y0133845D01*
X0195027Y0133845D01*
X0195594Y0133278D01*
X0195594Y0132143D01*
X0195027Y0131576D01*
X0194459Y0131576D01*
X0193892Y0132143D01*
X0192758Y0130162D02*
X0192191Y0129594D01*
X0192191Y0128460D01*
X0192758Y0127893D01*
X0195027Y0127893D01*
X0195594Y0128460D01*
X0195594Y0129594D01*
X0195027Y0130162D01*
X0208919Y0122844D02*
X0212322Y0122844D01*
X0212322Y0121710D02*
X0212322Y0123978D01*
X0210053Y0121710D02*
X0208919Y0122844D01*
X0209486Y0120295D02*
X0208919Y0119728D01*
X0208919Y0118027D01*
X0212322Y0118027D01*
X0212322Y0119728D01*
X0211755Y0120295D01*
X0209486Y0120295D01*
X0207306Y0104455D02*
X0207306Y0102186D01*
X0207306Y0103320D02*
X0203903Y0103320D01*
X0205038Y0102186D01*
X0203903Y0100772D02*
X0203903Y0098503D01*
X0203903Y0099637D02*
X0207306Y0099637D01*
X0234691Y0099228D02*
X0234691Y0098094D01*
X0235258Y0097527D01*
X0237527Y0097527D01*
X0238094Y0098094D01*
X0238094Y0099228D01*
X0237527Y0099795D01*
X0237527Y0101210D02*
X0238094Y0101777D01*
X0238094Y0102911D01*
X0237527Y0103478D01*
X0236959Y0103478D01*
X0236392Y0102911D01*
X0236392Y0102344D01*
X0236392Y0102911D02*
X0235825Y0103478D01*
X0235258Y0103478D01*
X0234691Y0102911D01*
X0234691Y0101777D01*
X0235258Y0101210D01*
X0235258Y0099795D02*
X0234691Y0099228D01*
X0244691Y0099228D02*
X0244691Y0098094D01*
X0245258Y0097527D01*
X0247527Y0097527D01*
X0248094Y0098094D01*
X0248094Y0099228D01*
X0247527Y0099795D01*
X0246392Y0101210D02*
X0246392Y0103478D01*
X0244691Y0102911D02*
X0246392Y0101210D01*
X0245258Y0099795D02*
X0244691Y0099228D01*
X0244691Y0102911D02*
X0248094Y0102911D01*
X0254691Y0103478D02*
X0254691Y0101210D01*
X0256392Y0101210D01*
X0255825Y0102344D01*
X0255825Y0102911D01*
X0256392Y0103478D01*
X0257527Y0103478D01*
X0258094Y0102911D01*
X0258094Y0101777D01*
X0257527Y0101210D01*
X0257527Y0099795D02*
X0258094Y0099228D01*
X0258094Y0098094D01*
X0257527Y0097527D01*
X0255258Y0097527D01*
X0254691Y0098094D01*
X0254691Y0099228D01*
X0255258Y0099795D01*
X0264691Y0099228D02*
X0264691Y0098094D01*
X0265258Y0097527D01*
X0267527Y0097527D01*
X0268094Y0098094D01*
X0268094Y0099228D01*
X0267527Y0099795D01*
X0267527Y0101210D02*
X0268094Y0101777D01*
X0268094Y0102911D01*
X0267527Y0103478D01*
X0266959Y0103478D01*
X0266392Y0102911D01*
X0266392Y0101210D01*
X0267527Y0101210D01*
X0266392Y0101210D02*
X0265258Y0102344D01*
X0264691Y0103478D01*
X0265258Y0099795D02*
X0264691Y0099228D01*
X0264691Y0088478D02*
X0264691Y0086210D01*
X0266392Y0086210D01*
X0265825Y0087344D01*
X0265825Y0087911D01*
X0266392Y0088478D01*
X0267527Y0088478D01*
X0268094Y0087911D01*
X0268094Y0086777D01*
X0267527Y0086210D01*
X0268094Y0084795D02*
X0266959Y0083661D01*
X0266959Y0084228D02*
X0266959Y0082527D01*
X0268094Y0082527D02*
X0264691Y0082527D01*
X0264691Y0084228D01*
X0265258Y0084795D01*
X0266392Y0084795D01*
X0266959Y0084228D01*
X0258094Y0084795D02*
X0256959Y0083661D01*
X0256959Y0084228D02*
X0256959Y0082527D01*
X0258094Y0082527D02*
X0254691Y0082527D01*
X0254691Y0084228D01*
X0255258Y0084795D01*
X0256392Y0084795D01*
X0256959Y0084228D01*
X0256392Y0086210D02*
X0256392Y0088478D01*
X0258094Y0087911D02*
X0254691Y0087911D01*
X0256392Y0086210D01*
X0248094Y0086777D02*
X0247527Y0086210D01*
X0248094Y0086777D02*
X0248094Y0087911D01*
X0247527Y0088478D01*
X0246959Y0088478D01*
X0246392Y0087911D01*
X0246392Y0087344D01*
X0246392Y0087911D02*
X0245825Y0088478D01*
X0245258Y0088478D01*
X0244691Y0087911D01*
X0244691Y0086777D01*
X0245258Y0086210D01*
X0245258Y0084795D02*
X0246392Y0084795D01*
X0246959Y0084228D01*
X0246959Y0082527D01*
X0246959Y0083661D02*
X0248094Y0084795D01*
X0248094Y0082527D02*
X0244691Y0082527D01*
X0244691Y0084228D01*
X0245258Y0084795D01*
X0238094Y0084795D02*
X0236959Y0083661D01*
X0236959Y0084228D02*
X0236959Y0082527D01*
X0238094Y0082527D02*
X0234691Y0082527D01*
X0234691Y0084228D01*
X0235258Y0084795D01*
X0236392Y0084795D01*
X0236959Y0084228D01*
X0238094Y0086210D02*
X0235825Y0088478D01*
X0235258Y0088478D01*
X0234691Y0087911D01*
X0234691Y0086777D01*
X0235258Y0086210D01*
X0238094Y0086210D02*
X0238094Y0088478D01*
X0278497Y0057083D02*
X0278497Y0053680D01*
X0278497Y0054815D02*
X0280198Y0054815D01*
X0280765Y0055382D01*
X0280765Y0056516D01*
X0280198Y0057083D01*
X0278497Y0057083D01*
X0279631Y0054815D02*
X0280765Y0053680D01*
X0282180Y0053680D02*
X0284449Y0053680D01*
X0283314Y0053680D02*
X0283314Y0057083D01*
X0282180Y0055949D01*
X0279701Y0026093D02*
X0279703Y0026257D01*
X0279709Y0026421D01*
X0279719Y0026585D01*
X0279733Y0026749D01*
X0279751Y0026912D01*
X0279773Y0027075D01*
X0279800Y0027237D01*
X0279830Y0027399D01*
X0279864Y0027559D01*
X0279902Y0027719D01*
X0279943Y0027878D01*
X0279989Y0028036D01*
X0280039Y0028192D01*
X0280092Y0028348D01*
X0280149Y0028502D01*
X0280210Y0028654D01*
X0280275Y0028805D01*
X0280344Y0028955D01*
X0280416Y0029102D01*
X0280491Y0029248D01*
X0280571Y0029392D01*
X0280653Y0029534D01*
X0280739Y0029674D01*
X0280829Y0029811D01*
X0280922Y0029947D01*
X0281018Y0030080D01*
X0281118Y0030211D01*
X0281220Y0030339D01*
X0281326Y0030465D01*
X0281435Y0030588D01*
X0281547Y0030708D01*
X0281661Y0030826D01*
X0281779Y0030940D01*
X0281899Y0031052D01*
X0282022Y0031161D01*
X0282148Y0031267D01*
X0282276Y0031369D01*
X0282407Y0031469D01*
X0282540Y0031565D01*
X0282676Y0031658D01*
X0282813Y0031748D01*
X0282953Y0031834D01*
X0283095Y0031916D01*
X0283239Y0031996D01*
X0283385Y0032071D01*
X0283532Y0032143D01*
X0283682Y0032212D01*
X0283833Y0032277D01*
X0283985Y0032338D01*
X0284139Y0032395D01*
X0284295Y0032448D01*
X0284451Y0032498D01*
X0284609Y0032544D01*
X0284768Y0032585D01*
X0284928Y0032623D01*
X0285088Y0032657D01*
X0285250Y0032687D01*
X0285412Y0032714D01*
X0285575Y0032736D01*
X0285738Y0032754D01*
X0285902Y0032768D01*
X0286066Y0032778D01*
X0286230Y0032784D01*
X0286394Y0032786D01*
X0286558Y0032784D01*
X0286722Y0032778D01*
X0286886Y0032768D01*
X0287050Y0032754D01*
X0287213Y0032736D01*
X0287376Y0032714D01*
X0287538Y0032687D01*
X0287700Y0032657D01*
X0287860Y0032623D01*
X0288020Y0032585D01*
X0288179Y0032544D01*
X0288337Y0032498D01*
X0288493Y0032448D01*
X0288649Y0032395D01*
X0288803Y0032338D01*
X0288955Y0032277D01*
X0289106Y0032212D01*
X0289256Y0032143D01*
X0289403Y0032071D01*
X0289549Y0031996D01*
X0289693Y0031916D01*
X0289835Y0031834D01*
X0289975Y0031748D01*
X0290112Y0031658D01*
X0290248Y0031565D01*
X0290381Y0031469D01*
X0290512Y0031369D01*
X0290640Y0031267D01*
X0290766Y0031161D01*
X0290889Y0031052D01*
X0291009Y0030940D01*
X0291127Y0030826D01*
X0291241Y0030708D01*
X0291353Y0030588D01*
X0291462Y0030465D01*
X0291568Y0030339D01*
X0291670Y0030211D01*
X0291770Y0030080D01*
X0291866Y0029947D01*
X0291959Y0029811D01*
X0292049Y0029674D01*
X0292135Y0029534D01*
X0292217Y0029392D01*
X0292297Y0029248D01*
X0292372Y0029102D01*
X0292444Y0028955D01*
X0292513Y0028805D01*
X0292578Y0028654D01*
X0292639Y0028502D01*
X0292696Y0028348D01*
X0292749Y0028192D01*
X0292799Y0028036D01*
X0292845Y0027878D01*
X0292886Y0027719D01*
X0292924Y0027559D01*
X0292958Y0027399D01*
X0292988Y0027237D01*
X0293015Y0027075D01*
X0293037Y0026912D01*
X0293055Y0026749D01*
X0293069Y0026585D01*
X0293079Y0026421D01*
X0293085Y0026257D01*
X0293087Y0026093D01*
X0293085Y0025929D01*
X0293079Y0025765D01*
X0293069Y0025601D01*
X0293055Y0025437D01*
X0293037Y0025274D01*
X0293015Y0025111D01*
X0292988Y0024949D01*
X0292958Y0024787D01*
X0292924Y0024627D01*
X0292886Y0024467D01*
X0292845Y0024308D01*
X0292799Y0024150D01*
X0292749Y0023994D01*
X0292696Y0023838D01*
X0292639Y0023684D01*
X0292578Y0023532D01*
X0292513Y0023381D01*
X0292444Y0023231D01*
X0292372Y0023084D01*
X0292297Y0022938D01*
X0292217Y0022794D01*
X0292135Y0022652D01*
X0292049Y0022512D01*
X0291959Y0022375D01*
X0291866Y0022239D01*
X0291770Y0022106D01*
X0291670Y0021975D01*
X0291568Y0021847D01*
X0291462Y0021721D01*
X0291353Y0021598D01*
X0291241Y0021478D01*
X0291127Y0021360D01*
X0291009Y0021246D01*
X0290889Y0021134D01*
X0290766Y0021025D01*
X0290640Y0020919D01*
X0290512Y0020817D01*
X0290381Y0020717D01*
X0290248Y0020621D01*
X0290112Y0020528D01*
X0289975Y0020438D01*
X0289835Y0020352D01*
X0289693Y0020270D01*
X0289549Y0020190D01*
X0289403Y0020115D01*
X0289256Y0020043D01*
X0289106Y0019974D01*
X0288955Y0019909D01*
X0288803Y0019848D01*
X0288649Y0019791D01*
X0288493Y0019738D01*
X0288337Y0019688D01*
X0288179Y0019642D01*
X0288020Y0019601D01*
X0287860Y0019563D01*
X0287700Y0019529D01*
X0287538Y0019499D01*
X0287376Y0019472D01*
X0287213Y0019450D01*
X0287050Y0019432D01*
X0286886Y0019418D01*
X0286722Y0019408D01*
X0286558Y0019402D01*
X0286394Y0019400D01*
X0286230Y0019402D01*
X0286066Y0019408D01*
X0285902Y0019418D01*
X0285738Y0019432D01*
X0285575Y0019450D01*
X0285412Y0019472D01*
X0285250Y0019499D01*
X0285088Y0019529D01*
X0284928Y0019563D01*
X0284768Y0019601D01*
X0284609Y0019642D01*
X0284451Y0019688D01*
X0284295Y0019738D01*
X0284139Y0019791D01*
X0283985Y0019848D01*
X0283833Y0019909D01*
X0283682Y0019974D01*
X0283532Y0020043D01*
X0283385Y0020115D01*
X0283239Y0020190D01*
X0283095Y0020270D01*
X0282953Y0020352D01*
X0282813Y0020438D01*
X0282676Y0020528D01*
X0282540Y0020621D01*
X0282407Y0020717D01*
X0282276Y0020817D01*
X0282148Y0020919D01*
X0282022Y0021025D01*
X0281899Y0021134D01*
X0281779Y0021246D01*
X0281661Y0021360D01*
X0281547Y0021478D01*
X0281435Y0021598D01*
X0281326Y0021721D01*
X0281220Y0021847D01*
X0281118Y0021975D01*
X0281018Y0022106D01*
X0280922Y0022239D01*
X0280829Y0022375D01*
X0280739Y0022512D01*
X0280653Y0022652D01*
X0280571Y0022794D01*
X0280491Y0022938D01*
X0280416Y0023084D01*
X0280344Y0023231D01*
X0280275Y0023381D01*
X0280210Y0023532D01*
X0280149Y0023684D01*
X0280092Y0023838D01*
X0280039Y0023994D01*
X0279989Y0024150D01*
X0279943Y0024308D01*
X0279902Y0024467D01*
X0279864Y0024627D01*
X0279830Y0024787D01*
X0279800Y0024949D01*
X0279773Y0025111D01*
X0279751Y0025274D01*
X0279733Y0025437D01*
X0279719Y0025601D01*
X0279709Y0025765D01*
X0279703Y0025929D01*
X0279701Y0026093D01*
X0272894Y0026093D02*
X0272898Y0026424D01*
X0272910Y0026755D01*
X0272931Y0027086D01*
X0272959Y0027416D01*
X0272996Y0027746D01*
X0273040Y0028074D01*
X0273093Y0028401D01*
X0273153Y0028727D01*
X0273222Y0029051D01*
X0273299Y0029373D01*
X0273383Y0029694D01*
X0273475Y0030012D01*
X0273575Y0030328D01*
X0273683Y0030641D01*
X0273799Y0030952D01*
X0273922Y0031259D01*
X0274052Y0031564D01*
X0274190Y0031865D01*
X0274335Y0032163D01*
X0274488Y0032457D01*
X0274648Y0032747D01*
X0274815Y0033033D01*
X0274988Y0033315D01*
X0275169Y0033593D01*
X0275357Y0033866D01*
X0275551Y0034135D01*
X0275751Y0034399D01*
X0275958Y0034657D01*
X0276172Y0034911D01*
X0276391Y0035159D01*
X0276617Y0035402D01*
X0276848Y0035639D01*
X0277085Y0035870D01*
X0277328Y0036096D01*
X0277576Y0036315D01*
X0277830Y0036529D01*
X0278088Y0036736D01*
X0278352Y0036936D01*
X0278621Y0037130D01*
X0278894Y0037318D01*
X0279172Y0037499D01*
X0279454Y0037672D01*
X0279740Y0037839D01*
X0280030Y0037999D01*
X0280324Y0038152D01*
X0280622Y0038297D01*
X0280923Y0038435D01*
X0281228Y0038565D01*
X0281535Y0038688D01*
X0281846Y0038804D01*
X0282159Y0038912D01*
X0282475Y0039012D01*
X0282793Y0039104D01*
X0283114Y0039188D01*
X0283436Y0039265D01*
X0283760Y0039334D01*
X0284086Y0039394D01*
X0284413Y0039447D01*
X0284741Y0039491D01*
X0285071Y0039528D01*
X0285401Y0039556D01*
X0285732Y0039577D01*
X0286063Y0039589D01*
X0286394Y0039593D01*
X0286725Y0039589D01*
X0287056Y0039577D01*
X0287387Y0039556D01*
X0287717Y0039528D01*
X0288047Y0039491D01*
X0288375Y0039447D01*
X0288702Y0039394D01*
X0289028Y0039334D01*
X0289352Y0039265D01*
X0289674Y0039188D01*
X0289995Y0039104D01*
X0290313Y0039012D01*
X0290629Y0038912D01*
X0290942Y0038804D01*
X0291253Y0038688D01*
X0291560Y0038565D01*
X0291865Y0038435D01*
X0292166Y0038297D01*
X0292464Y0038152D01*
X0292758Y0037999D01*
X0293048Y0037839D01*
X0293334Y0037672D01*
X0293616Y0037499D01*
X0293894Y0037318D01*
X0294167Y0037130D01*
X0294436Y0036936D01*
X0294700Y0036736D01*
X0294958Y0036529D01*
X0295212Y0036315D01*
X0295460Y0036096D01*
X0295703Y0035870D01*
X0295940Y0035639D01*
X0296171Y0035402D01*
X0296397Y0035159D01*
X0296616Y0034911D01*
X0296830Y0034657D01*
X0297037Y0034399D01*
X0297237Y0034135D01*
X0297431Y0033866D01*
X0297619Y0033593D01*
X0297800Y0033315D01*
X0297973Y0033033D01*
X0298140Y0032747D01*
X0298300Y0032457D01*
X0298453Y0032163D01*
X0298598Y0031865D01*
X0298736Y0031564D01*
X0298866Y0031259D01*
X0298989Y0030952D01*
X0299105Y0030641D01*
X0299213Y0030328D01*
X0299313Y0030012D01*
X0299405Y0029694D01*
X0299489Y0029373D01*
X0299566Y0029051D01*
X0299635Y0028727D01*
X0299695Y0028401D01*
X0299748Y0028074D01*
X0299792Y0027746D01*
X0299829Y0027416D01*
X0299857Y0027086D01*
X0299878Y0026755D01*
X0299890Y0026424D01*
X0299894Y0026093D01*
X0299890Y0025762D01*
X0299878Y0025431D01*
X0299857Y0025100D01*
X0299829Y0024770D01*
X0299792Y0024440D01*
X0299748Y0024112D01*
X0299695Y0023785D01*
X0299635Y0023459D01*
X0299566Y0023135D01*
X0299489Y0022813D01*
X0299405Y0022492D01*
X0299313Y0022174D01*
X0299213Y0021858D01*
X0299105Y0021545D01*
X0298989Y0021234D01*
X0298866Y0020927D01*
X0298736Y0020622D01*
X0298598Y0020321D01*
X0298453Y0020023D01*
X0298300Y0019729D01*
X0298140Y0019439D01*
X0297973Y0019153D01*
X0297800Y0018871D01*
X0297619Y0018593D01*
X0297431Y0018320D01*
X0297237Y0018051D01*
X0297037Y0017787D01*
X0296830Y0017529D01*
X0296616Y0017275D01*
X0296397Y0017027D01*
X0296171Y0016784D01*
X0295940Y0016547D01*
X0295703Y0016316D01*
X0295460Y0016090D01*
X0295212Y0015871D01*
X0294958Y0015657D01*
X0294700Y0015450D01*
X0294436Y0015250D01*
X0294167Y0015056D01*
X0293894Y0014868D01*
X0293616Y0014687D01*
X0293334Y0014514D01*
X0293048Y0014347D01*
X0292758Y0014187D01*
X0292464Y0014034D01*
X0292166Y0013889D01*
X0291865Y0013751D01*
X0291560Y0013621D01*
X0291253Y0013498D01*
X0290942Y0013382D01*
X0290629Y0013274D01*
X0290313Y0013174D01*
X0289995Y0013082D01*
X0289674Y0012998D01*
X0289352Y0012921D01*
X0289028Y0012852D01*
X0288702Y0012792D01*
X0288375Y0012739D01*
X0288047Y0012695D01*
X0287717Y0012658D01*
X0287387Y0012630D01*
X0287056Y0012609D01*
X0286725Y0012597D01*
X0286394Y0012593D01*
X0286063Y0012597D01*
X0285732Y0012609D01*
X0285401Y0012630D01*
X0285071Y0012658D01*
X0284741Y0012695D01*
X0284413Y0012739D01*
X0284086Y0012792D01*
X0283760Y0012852D01*
X0283436Y0012921D01*
X0283114Y0012998D01*
X0282793Y0013082D01*
X0282475Y0013174D01*
X0282159Y0013274D01*
X0281846Y0013382D01*
X0281535Y0013498D01*
X0281228Y0013621D01*
X0280923Y0013751D01*
X0280622Y0013889D01*
X0280324Y0014034D01*
X0280030Y0014187D01*
X0279740Y0014347D01*
X0279454Y0014514D01*
X0279172Y0014687D01*
X0278894Y0014868D01*
X0278621Y0015056D01*
X0278352Y0015250D01*
X0278088Y0015450D01*
X0277830Y0015657D01*
X0277576Y0015871D01*
X0277328Y0016090D01*
X0277085Y0016316D01*
X0276848Y0016547D01*
X0276617Y0016784D01*
X0276391Y0017027D01*
X0276172Y0017275D01*
X0275958Y0017529D01*
X0275751Y0017787D01*
X0275551Y0018051D01*
X0275357Y0018320D01*
X0275169Y0018593D01*
X0274988Y0018871D01*
X0274815Y0019153D01*
X0274648Y0019439D01*
X0274488Y0019729D01*
X0274335Y0020023D01*
X0274190Y0020321D01*
X0274052Y0020622D01*
X0273922Y0020927D01*
X0273799Y0021234D01*
X0273683Y0021545D01*
X0273575Y0021858D01*
X0273475Y0022174D01*
X0273383Y0022492D01*
X0273299Y0022813D01*
X0273222Y0023135D01*
X0273153Y0023459D01*
X0273093Y0023785D01*
X0273040Y0024112D01*
X0272996Y0024440D01*
X0272959Y0024770D01*
X0272931Y0025100D01*
X0272910Y0025431D01*
X0272898Y0025762D01*
X0272894Y0026093D01*
X0283438Y0087137D02*
X0284572Y0087137D01*
X0285139Y0087704D01*
X0286554Y0087704D02*
X0286554Y0087137D01*
X0286554Y0087704D02*
X0288822Y0089973D01*
X0288822Y0090540D01*
X0286554Y0090540D01*
X0285139Y0089973D02*
X0284572Y0090540D01*
X0283438Y0090540D01*
X0282871Y0089973D01*
X0282871Y0087704D01*
X0283438Y0087137D01*
X0278094Y0152893D02*
X0274691Y0152893D01*
X0274691Y0154594D01*
X0275258Y0155162D01*
X0276392Y0155162D01*
X0276959Y0154594D01*
X0276959Y0152893D01*
X0276959Y0154027D02*
X0278094Y0155162D01*
X0277527Y0156576D02*
X0276392Y0156576D01*
X0276392Y0158278D01*
X0276959Y0158845D01*
X0277527Y0158845D01*
X0278094Y0158278D01*
X0278094Y0157143D01*
X0277527Y0156576D01*
X0276392Y0156576D02*
X0275258Y0157710D01*
X0274691Y0158845D01*
X0281938Y0182137D02*
X0283072Y0182137D01*
X0283639Y0182704D01*
X0285054Y0182137D02*
X0287322Y0184406D01*
X0287322Y0184973D01*
X0286755Y0185540D01*
X0285621Y0185540D01*
X0285054Y0184973D01*
X0283639Y0184973D02*
X0283072Y0185540D01*
X0281938Y0185540D01*
X0281371Y0184973D01*
X0281371Y0182704D01*
X0281938Y0182137D01*
X0285054Y0182137D02*
X0287322Y0182137D01*
X0286822Y0216637D02*
X0284554Y0216637D01*
X0285688Y0216637D02*
X0285688Y0220040D01*
X0284554Y0218906D01*
X0283139Y0219473D02*
X0282572Y0220040D01*
X0281438Y0220040D01*
X0280871Y0219473D01*
X0280871Y0217204D01*
X0281438Y0216637D01*
X0282572Y0216637D01*
X0283139Y0217204D01*
X0218775Y0199978D02*
X0218775Y0197710D01*
X0218775Y0198844D02*
X0215372Y0198844D01*
X0216506Y0197710D01*
X0218775Y0196295D02*
X0218775Y0194027D01*
X0215372Y0194027D01*
X0216506Y0192612D02*
X0215372Y0191478D01*
X0216506Y0190343D01*
X0218775Y0190343D01*
X0217073Y0190343D02*
X0217073Y0192612D01*
X0216506Y0192612D02*
X0218775Y0192612D01*
X0215372Y0188929D02*
X0215372Y0186660D01*
X0215372Y0187795D02*
X0218775Y0187795D01*
X0218775Y0185246D02*
X0215372Y0182977D01*
X0215372Y0185246D02*
X0218775Y0182977D01*
X0210712Y0172796D02*
X0209011Y0171094D01*
X0211279Y0171094D01*
X0210712Y0169393D02*
X0210712Y0172796D01*
X0207596Y0169393D02*
X0205327Y0169393D01*
X0206462Y0169393D02*
X0206462Y0172796D01*
X0205327Y0171662D01*
X0203913Y0172229D02*
X0203346Y0172796D01*
X0202211Y0172796D01*
X0201644Y0172229D01*
X0201644Y0169960D01*
X0202211Y0169393D01*
X0203346Y0169393D01*
X0203913Y0169960D01*
X0203645Y0160296D02*
X0203645Y0156893D01*
X0202511Y0156893D02*
X0204779Y0156893D01*
X0202511Y0159162D02*
X0203645Y0160296D01*
X0201096Y0156893D02*
X0198827Y0156893D01*
X0198827Y0160296D01*
X0208919Y0153411D02*
X0208919Y0152277D01*
X0209486Y0151710D01*
X0209486Y0150295D02*
X0208919Y0149728D01*
X0208919Y0148027D01*
X0212322Y0148027D01*
X0212322Y0149728D01*
X0211755Y0150295D01*
X0209486Y0150295D01*
X0208919Y0153411D02*
X0209486Y0153978D01*
X0210053Y0153978D01*
X0212322Y0151710D01*
X0212322Y0153978D01*
X0210261Y0208893D02*
X0209127Y0208893D01*
X0208560Y0209460D01*
X0207145Y0208893D02*
X0204877Y0208893D01*
X0206011Y0208893D02*
X0206011Y0212296D01*
X0204877Y0211162D01*
X0203462Y0211729D02*
X0202895Y0212296D01*
X0201761Y0212296D01*
X0201194Y0211729D01*
X0201194Y0209460D01*
X0201761Y0208893D01*
X0202895Y0208893D01*
X0203462Y0209460D01*
X0208560Y0211729D02*
X0209127Y0212296D01*
X0210261Y0212296D01*
X0210829Y0211729D01*
X0210829Y0211162D01*
X0210261Y0210594D01*
X0210829Y0210027D01*
X0210829Y0209460D01*
X0210261Y0208893D01*
X0210261Y0210594D02*
X0209694Y0210594D01*
X0208761Y0219393D02*
X0207627Y0219393D01*
X0207060Y0219960D01*
X0209329Y0222229D01*
X0209329Y0219960D01*
X0208761Y0219393D01*
X0207060Y0219960D02*
X0207060Y0222229D01*
X0207627Y0222796D01*
X0208761Y0222796D01*
X0209329Y0222229D01*
X0205645Y0219393D02*
X0203377Y0219393D01*
X0204511Y0219393D02*
X0204511Y0222796D01*
X0203377Y0221662D01*
X0201962Y0222229D02*
X0201962Y0221094D01*
X0201395Y0220527D01*
X0199694Y0220527D01*
X0200828Y0220527D02*
X0201962Y0219393D01*
X0199694Y0219393D02*
X0199694Y0222796D01*
X0201395Y0222796D01*
X0201962Y0222229D01*
X0149779Y0232229D02*
X0147511Y0229960D01*
X0147511Y0229393D01*
X0146096Y0229393D02*
X0144962Y0230527D01*
X0145529Y0230527D02*
X0143827Y0230527D01*
X0143827Y0229393D02*
X0143827Y0232796D01*
X0145529Y0232796D01*
X0146096Y0232229D01*
X0146096Y0231094D01*
X0145529Y0230527D01*
X0147511Y0232796D02*
X0149779Y0232796D01*
X0149779Y0232229D01*
X0148011Y0236393D02*
X0148011Y0236960D01*
X0150279Y0239229D01*
X0150279Y0239796D01*
X0148011Y0239796D01*
X0146596Y0239229D02*
X0146029Y0239796D01*
X0144895Y0239796D01*
X0144327Y0239229D01*
X0142913Y0239229D02*
X0142346Y0239796D01*
X0140644Y0239796D01*
X0140644Y0236393D01*
X0140644Y0237527D02*
X0142346Y0237527D01*
X0142913Y0238094D01*
X0142913Y0239229D01*
X0141779Y0237527D02*
X0142913Y0236393D01*
X0144327Y0236393D02*
X0146596Y0238662D01*
X0146596Y0239229D01*
X0146596Y0236393D02*
X0144327Y0236393D01*
X0138829Y0220296D02*
X0136560Y0220296D01*
X0136560Y0218594D01*
X0137694Y0219162D01*
X0138261Y0219162D01*
X0138829Y0218594D01*
X0138829Y0217460D01*
X0138261Y0216893D01*
X0137127Y0216893D01*
X0136560Y0217460D01*
X0135145Y0216893D02*
X0132877Y0216893D01*
X0134011Y0216893D02*
X0134011Y0220296D01*
X0132877Y0219162D01*
X0131462Y0219729D02*
X0130895Y0220296D01*
X0129761Y0220296D01*
X0129194Y0219729D01*
X0129194Y0217460D01*
X0129761Y0216893D01*
X0130895Y0216893D01*
X0131462Y0217460D01*
X0132644Y0199296D02*
X0134346Y0199296D01*
X0134913Y0198729D01*
X0134913Y0197594D01*
X0134346Y0197027D01*
X0132644Y0197027D01*
X0132644Y0195893D02*
X0132644Y0199296D01*
X0133779Y0197027D02*
X0134913Y0195893D01*
X0136327Y0195893D02*
X0138596Y0195893D01*
X0137462Y0195893D02*
X0137462Y0199296D01*
X0136327Y0198162D01*
X0140011Y0198729D02*
X0140578Y0199296D01*
X0141712Y0199296D01*
X0142279Y0198729D01*
X0142279Y0198162D01*
X0141712Y0197594D01*
X0142279Y0197027D01*
X0142279Y0196460D01*
X0141712Y0195893D01*
X0140578Y0195893D01*
X0140011Y0196460D01*
X0141145Y0197594D02*
X0141712Y0197594D01*
X0130369Y0188200D02*
X0130369Y0185931D01*
X0130369Y0187066D02*
X0126966Y0187066D01*
X0128100Y0185931D01*
X0126966Y0184517D02*
X0130369Y0184517D01*
X0130369Y0182248D02*
X0126966Y0182248D01*
X0128100Y0183382D01*
X0126966Y0184517D01*
X0126392Y0142528D02*
X0126392Y0140259D01*
X0124691Y0141961D01*
X0128094Y0141961D01*
X0128094Y0138845D02*
X0128094Y0136576D01*
X0128094Y0137710D02*
X0124691Y0137710D01*
X0125825Y0136576D01*
X0125258Y0135162D02*
X0126392Y0135162D01*
X0126959Y0134594D01*
X0126959Y0132893D01*
X0126959Y0134027D02*
X0128094Y0135162D01*
X0128094Y0132893D02*
X0124691Y0132893D01*
X0124691Y0134594D01*
X0125258Y0135162D01*
X0110594Y0127710D02*
X0110027Y0127710D01*
X0107758Y0129978D01*
X0107191Y0129978D01*
X0107191Y0127710D01*
X0107758Y0126295D02*
X0107191Y0125728D01*
X0107191Y0124594D01*
X0107758Y0124027D01*
X0107758Y0122612D02*
X0107191Y0122045D01*
X0107191Y0120911D01*
X0107758Y0120343D01*
X0110027Y0120343D01*
X0110594Y0120911D01*
X0110594Y0122045D01*
X0110027Y0122612D01*
X0110594Y0124027D02*
X0108325Y0126295D01*
X0107758Y0126295D01*
X0110594Y0126295D02*
X0110594Y0124027D01*
X0097338Y0125865D02*
X0097338Y0128134D01*
X0097338Y0129548D02*
X0095069Y0131817D01*
X0094502Y0131817D01*
X0093935Y0131250D01*
X0093935Y0130116D01*
X0094502Y0129548D01*
X0097338Y0129548D02*
X0097338Y0131817D01*
X0097338Y0125865D02*
X0093935Y0125865D01*
X0070145Y0115393D02*
X0067877Y0115393D01*
X0069011Y0115393D02*
X0069011Y0118796D01*
X0067877Y0117662D01*
X0066462Y0118229D02*
X0066462Y0115960D01*
X0065895Y0115393D01*
X0064761Y0115393D01*
X0064194Y0115960D01*
X0064194Y0118229D01*
X0064761Y0118796D01*
X0065895Y0118796D01*
X0066462Y0118229D01*
X0065328Y0116527D02*
X0066462Y0115393D01*
X0056594Y0119843D02*
X0053191Y0119843D01*
X0053191Y0121545D01*
X0053758Y0122112D01*
X0054892Y0122112D01*
X0055459Y0121545D01*
X0055459Y0119843D01*
X0055459Y0120978D02*
X0056594Y0122112D01*
X0056594Y0123527D02*
X0054325Y0125795D01*
X0053758Y0125795D01*
X0053191Y0125228D01*
X0053191Y0124094D01*
X0053758Y0123527D01*
X0056594Y0123527D02*
X0056594Y0125795D01*
X0056027Y0127210D02*
X0056594Y0127777D01*
X0056594Y0128911D01*
X0056027Y0129478D01*
X0055459Y0129478D01*
X0054892Y0128911D01*
X0054892Y0127210D01*
X0056027Y0127210D01*
X0054892Y0127210D02*
X0053758Y0128344D01*
X0053191Y0129478D01*
X0046094Y0126411D02*
X0042691Y0126411D01*
X0044392Y0124710D01*
X0044392Y0126978D01*
X0043825Y0123295D02*
X0044392Y0122728D01*
X0044959Y0123295D01*
X0045527Y0123295D01*
X0046094Y0122728D01*
X0046094Y0121594D01*
X0045527Y0121027D01*
X0045527Y0119612D02*
X0046094Y0119045D01*
X0046094Y0117911D01*
X0045527Y0117343D01*
X0043258Y0117343D01*
X0042691Y0117911D01*
X0042691Y0119045D01*
X0043258Y0119612D01*
X0043258Y0121027D02*
X0042691Y0121594D01*
X0042691Y0122728D01*
X0043258Y0123295D01*
X0043825Y0123295D01*
X0044392Y0122728D02*
X0044392Y0122161D01*
X0036594Y0122228D02*
X0036594Y0121094D01*
X0036027Y0120527D01*
X0036027Y0119112D02*
X0036594Y0118545D01*
X0036594Y0117411D01*
X0036027Y0116843D01*
X0033758Y0116843D01*
X0033191Y0117411D01*
X0033191Y0118545D01*
X0033758Y0119112D01*
X0033758Y0120527D02*
X0033191Y0121094D01*
X0033191Y0122228D01*
X0033758Y0122795D01*
X0034325Y0122795D01*
X0034892Y0122228D01*
X0035459Y0122795D01*
X0036027Y0122795D01*
X0036594Y0122228D01*
X0034892Y0122228D02*
X0034892Y0121661D01*
X0034892Y0124210D02*
X0033191Y0124210D01*
X0033191Y0126478D01*
X0034325Y0125911D02*
X0034892Y0126478D01*
X0036027Y0126478D01*
X0036594Y0125911D01*
X0036594Y0124777D01*
X0036027Y0124210D01*
X0034892Y0124210D02*
X0034325Y0125344D01*
X0034325Y0125911D01*
X0039694Y0110296D02*
X0041395Y0110296D01*
X0041962Y0109729D01*
X0041962Y0108594D01*
X0041395Y0108027D01*
X0039694Y0108027D01*
X0040828Y0108027D02*
X0041962Y0106893D01*
X0043377Y0106893D02*
X0045645Y0109162D01*
X0045645Y0109729D01*
X0045078Y0110296D01*
X0043944Y0110296D01*
X0043377Y0109729D01*
X0043377Y0106893D02*
X0045645Y0106893D01*
X0047060Y0107460D02*
X0047627Y0106893D01*
X0048761Y0106893D01*
X0049329Y0107460D01*
X0049329Y0109729D01*
X0048761Y0110296D01*
X0047627Y0110296D01*
X0047060Y0109729D01*
X0047060Y0109162D01*
X0047627Y0108594D01*
X0049329Y0108594D01*
X0039694Y0106893D02*
X0039694Y0110296D01*
X0033594Y0105461D02*
X0033594Y0104326D01*
X0033027Y0103759D01*
X0031892Y0104326D02*
X0031892Y0106028D01*
X0030758Y0106028D02*
X0030191Y0105461D01*
X0030191Y0104326D01*
X0030758Y0103759D01*
X0031325Y0103759D01*
X0031892Y0104326D01*
X0033027Y0106028D02*
X0030758Y0106028D01*
X0033027Y0106028D02*
X0033594Y0105461D01*
X0033027Y0102345D02*
X0033594Y0101778D01*
X0033594Y0100643D01*
X0033027Y0100076D01*
X0033594Y0098662D02*
X0032459Y0097527D01*
X0032459Y0098094D02*
X0032459Y0096393D01*
X0033594Y0096393D02*
X0030191Y0096393D01*
X0030191Y0098094D01*
X0030758Y0098662D01*
X0031892Y0098662D01*
X0032459Y0098094D01*
X0030758Y0100076D02*
X0030191Y0100643D01*
X0030191Y0101778D01*
X0030758Y0102345D01*
X0031325Y0102345D01*
X0031892Y0101778D01*
X0032459Y0102345D01*
X0033027Y0102345D01*
X0031892Y0101778D02*
X0031892Y0101210D01*
X0037167Y0090132D02*
X0038869Y0088430D01*
X0038869Y0090699D01*
X0040570Y0090132D02*
X0037167Y0090132D01*
X0037167Y0087016D02*
X0040003Y0087016D01*
X0040570Y0086449D01*
X0040570Y0085314D01*
X0040003Y0084747D01*
X0037167Y0084747D01*
X0041740Y0070826D02*
X0042307Y0070826D01*
X0042874Y0070259D01*
X0043441Y0070826D01*
X0044008Y0070826D01*
X0044575Y0070259D01*
X0044575Y0069125D01*
X0044008Y0068558D01*
X0044008Y0067143D02*
X0041173Y0067143D01*
X0041740Y0068558D02*
X0041173Y0069125D01*
X0041173Y0070259D01*
X0041740Y0070826D01*
X0042874Y0070259D02*
X0042874Y0069692D01*
X0044008Y0067143D02*
X0044575Y0066576D01*
X0044575Y0065442D01*
X0044008Y0064875D01*
X0041173Y0064875D01*
X0040594Y0058528D02*
X0040594Y0056259D01*
X0040594Y0057394D02*
X0037191Y0057394D01*
X0038325Y0056259D01*
X0038325Y0054845D02*
X0037758Y0054845D01*
X0037191Y0054278D01*
X0037191Y0053143D01*
X0037758Y0052576D01*
X0037758Y0051162D02*
X0038892Y0051162D01*
X0039459Y0050594D01*
X0039459Y0048893D01*
X0039459Y0050027D02*
X0040594Y0051162D01*
X0040594Y0052576D02*
X0038325Y0054845D01*
X0040594Y0054845D02*
X0040594Y0052576D01*
X0037758Y0051162D02*
X0037191Y0050594D01*
X0037191Y0048893D01*
X0040594Y0048893D01*
X0057691Y0071393D02*
X0057691Y0073094D01*
X0058258Y0073662D01*
X0059392Y0073662D01*
X0059959Y0073094D01*
X0059959Y0071393D01*
X0059959Y0072527D02*
X0061094Y0073662D01*
X0061094Y0075076D02*
X0058825Y0077345D01*
X0058258Y0077345D01*
X0057691Y0076778D01*
X0057691Y0075643D01*
X0058258Y0075076D01*
X0061094Y0075076D02*
X0061094Y0077345D01*
X0060527Y0078759D02*
X0061094Y0079326D01*
X0061094Y0080461D01*
X0060527Y0081028D01*
X0059959Y0081028D01*
X0059392Y0080461D01*
X0059392Y0079894D01*
X0059392Y0080461D02*
X0058825Y0081028D01*
X0058258Y0081028D01*
X0057691Y0080461D01*
X0057691Y0079326D01*
X0058258Y0078759D01*
X0057691Y0071393D02*
X0061094Y0071393D01*
X0069194Y0067729D02*
X0069194Y0065460D01*
X0069761Y0064893D01*
X0070895Y0064893D01*
X0071462Y0065460D01*
X0072877Y0064893D02*
X0075145Y0067162D01*
X0075145Y0067729D01*
X0074578Y0068296D01*
X0073444Y0068296D01*
X0072877Y0067729D01*
X0071462Y0067729D02*
X0070895Y0068296D01*
X0069761Y0068296D01*
X0069194Y0067729D01*
X0072877Y0064893D02*
X0075145Y0064893D01*
X0076560Y0066594D02*
X0078829Y0066594D01*
X0078261Y0064893D02*
X0078261Y0068296D01*
X0076560Y0066594D01*
X0081261Y0073393D02*
X0082395Y0073393D01*
X0082962Y0073960D01*
X0084377Y0073393D02*
X0086645Y0075662D01*
X0086645Y0076229D01*
X0086078Y0076796D01*
X0084944Y0076796D01*
X0084377Y0076229D01*
X0082962Y0076229D02*
X0082395Y0076796D01*
X0081261Y0076796D01*
X0080694Y0076229D01*
X0080694Y0073960D01*
X0081261Y0073393D01*
X0084377Y0073393D02*
X0086645Y0073393D01*
X0088060Y0073960D02*
X0088627Y0073393D01*
X0089761Y0073393D01*
X0090329Y0073960D01*
X0090329Y0075094D01*
X0089761Y0075662D01*
X0089194Y0075662D01*
X0088060Y0075094D01*
X0088060Y0076796D01*
X0090329Y0076796D01*
X0087027Y0086393D02*
X0084758Y0086393D01*
X0084191Y0086960D01*
X0084191Y0088094D01*
X0084758Y0088662D01*
X0084758Y0090076D02*
X0084191Y0090643D01*
X0084191Y0091778D01*
X0084758Y0092345D01*
X0085325Y0092345D01*
X0087594Y0090076D01*
X0087594Y0092345D01*
X0087594Y0093759D02*
X0085325Y0096028D01*
X0084758Y0096028D01*
X0084191Y0095461D01*
X0084191Y0094326D01*
X0084758Y0093759D01*
X0087594Y0093759D02*
X0087594Y0096028D01*
X0093691Y0096710D02*
X0095392Y0096710D01*
X0094825Y0097844D01*
X0094825Y0098411D01*
X0095392Y0098978D01*
X0096527Y0098978D01*
X0097094Y0098411D01*
X0097094Y0097277D01*
X0096527Y0096710D01*
X0096527Y0095295D02*
X0093691Y0095295D01*
X0093691Y0096710D02*
X0093691Y0098978D01*
X0096527Y0095295D02*
X0097094Y0094728D01*
X0097094Y0093594D01*
X0096527Y0093027D01*
X0093691Y0093027D01*
X0087594Y0088094D02*
X0087594Y0086960D01*
X0087027Y0086393D01*
X0087594Y0088094D02*
X0087027Y0088662D01*
X0099194Y0077229D02*
X0099194Y0074960D01*
X0099761Y0074393D01*
X0100895Y0074393D01*
X0101462Y0074960D01*
X0102877Y0074393D02*
X0105145Y0076662D01*
X0105145Y0077229D01*
X0104578Y0077796D01*
X0103444Y0077796D01*
X0102877Y0077229D01*
X0101462Y0077229D02*
X0100895Y0077796D01*
X0099761Y0077796D01*
X0099194Y0077229D01*
X0102877Y0074393D02*
X0105145Y0074393D01*
X0106560Y0074960D02*
X0107127Y0074393D01*
X0108261Y0074393D01*
X0108829Y0074960D01*
X0108829Y0075527D01*
X0108261Y0076094D01*
X0106560Y0076094D01*
X0106560Y0074960D01*
X0106560Y0076094D02*
X0107694Y0077229D01*
X0108829Y0077796D01*
X0114191Y0078528D02*
X0114191Y0076259D01*
X0115892Y0076259D01*
X0115325Y0077394D01*
X0115325Y0077961D01*
X0115892Y0078528D01*
X0117027Y0078528D01*
X0117594Y0077961D01*
X0117594Y0076826D01*
X0117027Y0076259D01*
X0117594Y0074845D02*
X0117594Y0072576D01*
X0115325Y0074845D01*
X0114758Y0074845D01*
X0114191Y0074278D01*
X0114191Y0073143D01*
X0114758Y0072576D01*
X0114758Y0071162D02*
X0115892Y0071162D01*
X0116459Y0070594D01*
X0116459Y0068893D01*
X0116459Y0070027D02*
X0117594Y0071162D01*
X0117594Y0068893D02*
X0114191Y0068893D01*
X0114191Y0070594D01*
X0114758Y0071162D01*
X0120694Y0082893D02*
X0120694Y0086296D01*
X0122395Y0086296D01*
X0122962Y0085729D01*
X0122962Y0084594D01*
X0122395Y0084027D01*
X0120694Y0084027D01*
X0121828Y0084027D02*
X0122962Y0082893D01*
X0124377Y0082893D02*
X0126645Y0085162D01*
X0126645Y0085729D01*
X0126078Y0086296D01*
X0124944Y0086296D01*
X0124377Y0085729D01*
X0124377Y0082893D02*
X0126645Y0082893D01*
X0128060Y0083460D02*
X0130329Y0085729D01*
X0130329Y0083460D01*
X0129761Y0082893D01*
X0128627Y0082893D01*
X0128060Y0083460D01*
X0128060Y0085729D01*
X0128627Y0086296D01*
X0129761Y0086296D01*
X0130329Y0085729D01*
X0129761Y0090393D02*
X0130329Y0090960D01*
X0130329Y0093229D01*
X0129761Y0093796D01*
X0128627Y0093796D01*
X0128060Y0093229D01*
X0128060Y0092662D01*
X0128627Y0092094D01*
X0130329Y0092094D01*
X0129761Y0090393D02*
X0128627Y0090393D01*
X0128060Y0090960D01*
X0126645Y0090393D02*
X0124377Y0090393D01*
X0125511Y0090393D02*
X0125511Y0093796D01*
X0124377Y0092662D01*
X0122962Y0093229D02*
X0122962Y0092094D01*
X0122395Y0091527D01*
X0120694Y0091527D01*
X0121828Y0091527D02*
X0122962Y0090393D01*
X0120694Y0090393D02*
X0120694Y0093796D01*
X0122395Y0093796D01*
X0122962Y0093229D01*
X0122594Y0098893D02*
X0119191Y0098893D01*
X0119191Y0100594D01*
X0119758Y0101162D01*
X0120892Y0101162D01*
X0121459Y0100594D01*
X0121459Y0098893D01*
X0121459Y0100027D02*
X0122594Y0101162D01*
X0122594Y0102576D02*
X0120325Y0104845D01*
X0119758Y0104845D01*
X0119191Y0104278D01*
X0119191Y0103143D01*
X0119758Y0102576D01*
X0122594Y0102576D02*
X0122594Y0104845D01*
X0120892Y0106259D02*
X0120892Y0108528D01*
X0119191Y0107961D02*
X0120892Y0106259D01*
X0122594Y0107961D02*
X0119191Y0107961D01*
X0129691Y0108594D02*
X0130258Y0109162D01*
X0131392Y0109162D01*
X0131959Y0108594D01*
X0131959Y0106893D01*
X0131959Y0108027D02*
X0133094Y0109162D01*
X0133094Y0110576D02*
X0133094Y0112845D01*
X0133094Y0111710D02*
X0129691Y0111710D01*
X0130825Y0110576D01*
X0129691Y0108594D02*
X0129691Y0106893D01*
X0133094Y0106893D01*
X0133395Y0102296D02*
X0133962Y0101729D01*
X0133962Y0100594D01*
X0133395Y0100027D01*
X0131694Y0100027D01*
X0132828Y0100027D02*
X0133962Y0098893D01*
X0135377Y0098893D02*
X0137645Y0098893D01*
X0136511Y0098893D02*
X0136511Y0102296D01*
X0135377Y0101162D01*
X0133395Y0102296D02*
X0131694Y0102296D01*
X0131694Y0098893D01*
X0139060Y0099460D02*
X0139060Y0100027D01*
X0139627Y0100594D01*
X0140761Y0100594D01*
X0141329Y0100027D01*
X0141329Y0099460D01*
X0140761Y0098893D01*
X0139627Y0098893D01*
X0139060Y0099460D01*
X0139627Y0100594D02*
X0139060Y0101162D01*
X0139060Y0101729D01*
X0139627Y0102296D01*
X0140761Y0102296D01*
X0141329Y0101729D01*
X0141329Y0101162D01*
X0140761Y0100594D01*
X0132527Y0114259D02*
X0133094Y0114826D01*
X0133094Y0115961D01*
X0132527Y0116528D01*
X0131959Y0116528D01*
X0131392Y0115961D01*
X0131392Y0114259D01*
X0132527Y0114259D01*
X0131392Y0114259D02*
X0130258Y0115394D01*
X0129691Y0116528D01*
X0144691Y0117893D02*
X0144691Y0119594D01*
X0145258Y0120162D01*
X0146392Y0120162D01*
X0146959Y0119594D01*
X0146959Y0117893D01*
X0146959Y0119027D02*
X0148094Y0120162D01*
X0148094Y0121576D02*
X0148094Y0123845D01*
X0148094Y0122710D02*
X0144691Y0122710D01*
X0145825Y0121576D01*
X0144691Y0117893D02*
X0148094Y0117893D01*
X0148094Y0125259D02*
X0147527Y0125259D01*
X0145258Y0127528D01*
X0144691Y0127528D01*
X0144691Y0125259D01*
X0144691Y0131343D02*
X0144691Y0133045D01*
X0145258Y0133612D01*
X0146392Y0133612D01*
X0146959Y0133045D01*
X0146959Y0131343D01*
X0148094Y0131343D02*
X0144691Y0131343D01*
X0146959Y0132478D02*
X0148094Y0133612D01*
X0148094Y0135027D02*
X0148094Y0137295D01*
X0148094Y0136161D02*
X0144691Y0136161D01*
X0145825Y0135027D01*
X0146392Y0138710D02*
X0145825Y0139844D01*
X0145825Y0140411D01*
X0146392Y0140978D01*
X0147527Y0140978D01*
X0148094Y0140411D01*
X0148094Y0139277D01*
X0147527Y0138710D01*
X0146392Y0138710D02*
X0144691Y0138710D01*
X0144691Y0140978D01*
X0156691Y0133278D02*
X0156691Y0132143D01*
X0157258Y0131576D01*
X0157825Y0131576D01*
X0158392Y0132143D01*
X0158392Y0133845D01*
X0157258Y0133845D02*
X0159527Y0133845D01*
X0160094Y0133278D01*
X0160094Y0132143D01*
X0159527Y0131576D01*
X0159527Y0130162D02*
X0160094Y0129594D01*
X0160094Y0128460D01*
X0159527Y0127893D01*
X0157258Y0127893D01*
X0156691Y0128460D01*
X0156691Y0129594D01*
X0157258Y0130162D01*
X0156691Y0133278D02*
X0157258Y0133845D01*
X0152212Y0075296D02*
X0151078Y0075296D01*
X0150511Y0074729D01*
X0150511Y0072460D01*
X0152779Y0074729D01*
X0152779Y0072460D01*
X0152212Y0071893D01*
X0151078Y0071893D01*
X0150511Y0072460D01*
X0149096Y0071893D02*
X0146827Y0071893D01*
X0147962Y0071893D02*
X0147962Y0075296D01*
X0146827Y0074162D01*
X0145413Y0074729D02*
X0144846Y0075296D01*
X0143711Y0075296D01*
X0143144Y0074729D01*
X0143144Y0072460D01*
X0143711Y0071893D01*
X0144846Y0071893D01*
X0145413Y0072460D01*
X0144846Y0067796D02*
X0143711Y0067796D01*
X0143144Y0067229D01*
X0143144Y0064960D01*
X0143711Y0064393D01*
X0144846Y0064393D01*
X0145413Y0064960D01*
X0146827Y0064393D02*
X0149096Y0064393D01*
X0147962Y0064393D02*
X0147962Y0067796D01*
X0146827Y0066662D01*
X0145413Y0067229D02*
X0144846Y0067796D01*
X0150511Y0066662D02*
X0151645Y0067796D01*
X0151645Y0064393D01*
X0150511Y0064393D02*
X0152779Y0064393D01*
X0152779Y0074729D02*
X0152212Y0075296D01*
X0156644Y0047796D02*
X0158346Y0047796D01*
X0158913Y0047229D01*
X0158913Y0046094D01*
X0158346Y0045527D01*
X0156644Y0045527D01*
X0156644Y0044393D02*
X0156644Y0047796D01*
X0157779Y0045527D02*
X0158913Y0044393D01*
X0160327Y0044960D02*
X0160895Y0044393D01*
X0162029Y0044393D01*
X0162596Y0044960D01*
X0162596Y0045527D01*
X0162029Y0046094D01*
X0161462Y0046094D01*
X0162029Y0046094D02*
X0162596Y0046662D01*
X0162596Y0047229D01*
X0162029Y0047796D01*
X0160895Y0047796D01*
X0160327Y0047229D01*
X0164011Y0047229D02*
X0164578Y0047796D01*
X0165712Y0047796D01*
X0166279Y0047229D01*
X0166279Y0046662D01*
X0164011Y0044393D01*
X0166279Y0044393D01*
X0165645Y0033296D02*
X0165645Y0029893D01*
X0164511Y0029893D02*
X0166779Y0029893D01*
X0164511Y0032162D02*
X0165645Y0033296D01*
X0163096Y0033296D02*
X0163096Y0029893D01*
X0161962Y0031027D01*
X0160827Y0029893D01*
X0160827Y0033296D01*
X0159413Y0032729D02*
X0158846Y0033296D01*
X0157711Y0033296D01*
X0157144Y0032729D01*
X0157144Y0032162D01*
X0157711Y0031594D01*
X0158846Y0031594D01*
X0159413Y0031027D01*
X0159413Y0030460D01*
X0158846Y0029893D01*
X0157711Y0029893D01*
X0157144Y0030460D01*
X0126805Y0031747D02*
X0124536Y0031747D01*
X0125671Y0031747D02*
X0125671Y0035150D01*
X0124536Y0034016D01*
X0123122Y0034016D02*
X0122555Y0033449D01*
X0120853Y0033449D01*
X0119439Y0033449D02*
X0118872Y0032882D01*
X0117170Y0032882D01*
X0117170Y0031747D02*
X0117170Y0035150D01*
X0118872Y0035150D01*
X0119439Y0034583D01*
X0119439Y0033449D01*
X0120853Y0035150D02*
X0122555Y0035150D01*
X0123122Y0034583D01*
X0123122Y0034016D01*
X0122555Y0033449D02*
X0123122Y0032882D01*
X0123122Y0032314D01*
X0122555Y0031747D01*
X0120853Y0031747D01*
X0120853Y0035150D01*
X0120395Y0046121D02*
X0118694Y0046121D01*
X0118694Y0049524D01*
X0120395Y0049524D01*
X0120962Y0048957D01*
X0120962Y0046688D01*
X0120395Y0046121D01*
X0122377Y0046688D02*
X0122944Y0046121D01*
X0124078Y0046121D01*
X0124645Y0046688D01*
X0124645Y0047256D01*
X0124078Y0047823D01*
X0123511Y0047823D01*
X0124078Y0047823D02*
X0124645Y0048390D01*
X0124645Y0048957D01*
X0124078Y0049524D01*
X0122944Y0049524D01*
X0122377Y0048957D01*
X0106094Y0043528D02*
X0106094Y0041259D01*
X0106094Y0042394D02*
X0102691Y0042394D01*
X0103825Y0041259D01*
X0103825Y0039845D02*
X0103258Y0039845D01*
X0102691Y0039278D01*
X0102691Y0038143D01*
X0103258Y0037576D01*
X0103258Y0036162D02*
X0104392Y0036162D01*
X0104959Y0035594D01*
X0104959Y0033893D01*
X0104959Y0035027D02*
X0106094Y0036162D01*
X0105527Y0037576D02*
X0106094Y0038143D01*
X0106094Y0039278D01*
X0105527Y0039845D01*
X0104959Y0039845D01*
X0104392Y0039278D01*
X0104392Y0038710D01*
X0104392Y0039278D02*
X0103825Y0039845D01*
X0103258Y0036162D02*
X0102691Y0035594D01*
X0102691Y0033893D01*
X0106094Y0033893D01*
X0098094Y0033343D02*
X0094691Y0033343D01*
X0094691Y0035045D01*
X0095258Y0035612D01*
X0096392Y0035612D01*
X0096959Y0035045D01*
X0096959Y0033343D01*
X0096959Y0034478D02*
X0098094Y0035612D01*
X0097527Y0037027D02*
X0098094Y0037594D01*
X0098094Y0038728D01*
X0097527Y0039295D01*
X0096959Y0039295D01*
X0096392Y0038728D01*
X0096392Y0038161D01*
X0096392Y0038728D02*
X0095825Y0039295D01*
X0095258Y0039295D01*
X0094691Y0038728D01*
X0094691Y0037594D01*
X0095258Y0037027D01*
X0095258Y0040710D02*
X0094691Y0041277D01*
X0094691Y0042411D01*
X0095258Y0042978D01*
X0095825Y0042978D01*
X0096392Y0042411D01*
X0096959Y0042978D01*
X0097527Y0042978D01*
X0098094Y0042411D01*
X0098094Y0041277D01*
X0097527Y0040710D01*
X0096392Y0041844D02*
X0096392Y0042411D01*
X0088094Y0042911D02*
X0084691Y0042911D01*
X0086392Y0041210D01*
X0086392Y0043478D01*
X0085825Y0039795D02*
X0086392Y0039228D01*
X0086959Y0039795D01*
X0087527Y0039795D01*
X0088094Y0039228D01*
X0088094Y0038094D01*
X0087527Y0037527D01*
X0088094Y0036112D02*
X0086959Y0034978D01*
X0086959Y0035545D02*
X0086959Y0033843D01*
X0088094Y0033843D02*
X0084691Y0033843D01*
X0084691Y0035545D01*
X0085258Y0036112D01*
X0086392Y0036112D01*
X0086959Y0035545D01*
X0085258Y0037527D02*
X0084691Y0038094D01*
X0084691Y0039228D01*
X0085258Y0039795D01*
X0085825Y0039795D01*
X0086392Y0039228D02*
X0086392Y0038661D01*
X0076094Y0034711D02*
X0076094Y0032442D01*
X0073825Y0034711D01*
X0073258Y0034711D01*
X0072691Y0034144D01*
X0072691Y0033009D01*
X0073258Y0032442D01*
X0072691Y0031028D02*
X0076094Y0031028D01*
X0072691Y0028759D01*
X0076094Y0028759D01*
X0075527Y0027345D02*
X0073258Y0027345D01*
X0072691Y0026778D01*
X0072691Y0025643D01*
X0073258Y0025076D01*
X0075527Y0025076D01*
X0076094Y0025643D01*
X0076094Y0026778D01*
X0075527Y0027345D01*
X0075527Y0023662D02*
X0076094Y0023094D01*
X0076094Y0021960D01*
X0075527Y0021393D01*
X0073258Y0021393D01*
X0072691Y0021960D01*
X0072691Y0023094D01*
X0073258Y0023662D01*
X0094483Y0022402D02*
X0094483Y0018999D01*
X0096184Y0018999D01*
X0096752Y0019566D01*
X0096752Y0021835D01*
X0096184Y0022402D01*
X0094483Y0022402D01*
X0098166Y0022402D02*
X0098166Y0020701D01*
X0099300Y0021268D01*
X0099868Y0021268D01*
X0100435Y0020701D01*
X0100435Y0019566D01*
X0099868Y0018999D01*
X0098733Y0018999D01*
X0098166Y0019566D01*
X0098166Y0022402D02*
X0100435Y0022402D01*
X0093712Y0062665D02*
X0093712Y0066067D01*
X0092011Y0064366D01*
X0094279Y0064366D01*
X0090596Y0063232D02*
X0090596Y0065500D01*
X0090029Y0066067D01*
X0088327Y0066067D01*
X0088327Y0062665D01*
X0090029Y0062665D01*
X0090596Y0063232D01*
X0066094Y0058528D02*
X0066094Y0056259D01*
X0063825Y0058528D01*
X0063258Y0058528D01*
X0062691Y0057961D01*
X0062691Y0056826D01*
X0063258Y0056259D01*
X0063258Y0054845D02*
X0062691Y0054278D01*
X0062691Y0053143D01*
X0063258Y0052576D01*
X0063258Y0051162D02*
X0064392Y0051162D01*
X0064959Y0050594D01*
X0064959Y0048893D01*
X0064959Y0050027D02*
X0066094Y0051162D01*
X0066094Y0052576D02*
X0063825Y0054845D01*
X0063258Y0054845D01*
X0066094Y0054845D02*
X0066094Y0052576D01*
X0063258Y0051162D02*
X0062691Y0050594D01*
X0062691Y0048893D01*
X0066094Y0048893D01*
X0068258Y0090893D02*
X0070527Y0090893D01*
X0071094Y0091460D01*
X0071094Y0092594D01*
X0070527Y0093162D01*
X0071094Y0094576D02*
X0068825Y0096845D01*
X0068258Y0096845D01*
X0067691Y0096278D01*
X0067691Y0095143D01*
X0068258Y0094576D01*
X0068258Y0093162D02*
X0067691Y0092594D01*
X0067691Y0091460D01*
X0068258Y0090893D01*
X0071094Y0094576D02*
X0071094Y0096845D01*
X0070527Y0098259D02*
X0071094Y0098826D01*
X0071094Y0099961D01*
X0070527Y0100528D01*
X0069959Y0100528D01*
X0069392Y0099961D01*
X0069392Y0099394D01*
X0069392Y0099961D02*
X0068825Y0100528D01*
X0068258Y0100528D01*
X0067691Y0099961D01*
X0067691Y0098826D01*
X0068258Y0098259D01*
X0067027Y0130843D02*
X0064758Y0130843D01*
X0064191Y0131411D01*
X0064191Y0132545D01*
X0064758Y0133112D01*
X0064758Y0134527D02*
X0064191Y0135094D01*
X0064191Y0136228D01*
X0064758Y0136795D01*
X0065325Y0136795D01*
X0065892Y0136228D01*
X0066459Y0136795D01*
X0067027Y0136795D01*
X0067594Y0136228D01*
X0067594Y0135094D01*
X0067027Y0134527D01*
X0067027Y0133112D02*
X0067594Y0132545D01*
X0067594Y0131411D01*
X0067027Y0130843D01*
X0065892Y0135661D02*
X0065892Y0136228D01*
X0065892Y0138210D02*
X0065892Y0139911D01*
X0066459Y0140478D01*
X0067027Y0140478D01*
X0067594Y0139911D01*
X0067594Y0138777D01*
X0067027Y0138210D01*
X0065892Y0138210D01*
X0064758Y0139344D01*
X0064191Y0140478D01*
X0179758Y0292843D02*
X0179191Y0293411D01*
X0179191Y0294545D01*
X0179758Y0295112D01*
X0180892Y0296527D02*
X0180892Y0298795D01*
X0182594Y0298228D02*
X0179191Y0298228D01*
X0180892Y0296527D01*
X0182027Y0295112D02*
X0182594Y0294545D01*
X0182594Y0293411D01*
X0182027Y0292843D01*
X0179758Y0292843D01*
X0179758Y0300210D02*
X0179191Y0300777D01*
X0179191Y0301911D01*
X0179758Y0302478D01*
X0182027Y0300210D01*
X0182594Y0300777D01*
X0182594Y0301911D01*
X0182027Y0302478D01*
X0179758Y0302478D01*
X0179758Y0300210D02*
X0182027Y0300210D01*
X0200810Y0311570D02*
X0201377Y0311003D01*
X0202511Y0311003D01*
X0203078Y0311570D01*
X0204493Y0311003D02*
X0206761Y0311003D01*
X0205627Y0311003D02*
X0205627Y0314406D01*
X0204493Y0313272D01*
X0203078Y0313839D02*
X0202511Y0314406D01*
X0201377Y0314406D01*
X0200810Y0313839D01*
X0200810Y0311570D01*
X0208176Y0311003D02*
X0210445Y0313272D01*
X0210445Y0313839D01*
X0209877Y0314406D01*
X0208743Y0314406D01*
X0208176Y0313839D01*
X0208176Y0311003D02*
X0210445Y0311003D01*
D20*
X0181514Y0286093D02*
X0181274Y0286093D01*
X0158894Y0261213D02*
X0158894Y0260973D01*
X0133894Y0223713D02*
X0133894Y0223473D01*
X0168774Y0211093D02*
X0169014Y0211093D01*
X0176274Y0211093D02*
X0176514Y0211093D01*
X0206394Y0206213D02*
X0206394Y0205973D01*
X0206394Y0176213D02*
X0206394Y0175973D01*
X0191394Y0173713D02*
X0191394Y0173473D01*
X0191394Y0166213D02*
X0191394Y0165973D01*
X0164014Y0171093D02*
X0163774Y0171093D01*
X0156514Y0171093D02*
X0156274Y0171093D01*
X0154014Y0131093D02*
X0153774Y0131093D01*
X0198774Y0131093D02*
X0199014Y0131093D01*
X0231274Y0101093D02*
X0231514Y0101093D01*
X0241274Y0101093D02*
X0241514Y0101093D01*
X0251274Y0101093D02*
X0251514Y0101093D01*
X0261274Y0101093D02*
X0261514Y0101093D01*
X0136394Y0073713D02*
X0136394Y0073473D01*
X0136394Y0066213D02*
X0136394Y0065973D01*
X0103894Y0080973D02*
X0103894Y0081213D01*
X0081514Y0091093D02*
X0081274Y0091093D01*
X0074014Y0091093D02*
X0073774Y0091093D01*
X0073894Y0078713D02*
X0073894Y0078473D01*
X0073894Y0071213D02*
X0073894Y0070973D01*
X0108774Y0113593D02*
X0109014Y0113593D01*
X0061514Y0136093D02*
X0061274Y0136093D01*
X0041514Y0136093D02*
X0041274Y0136093D01*
X0034014Y0136093D02*
X0033774Y0136093D01*
X0076274Y0286093D02*
X0076514Y0286093D01*
X0076514Y0306093D02*
X0076274Y0306093D01*
X0076274Y0326093D02*
X0076514Y0326093D01*
X0106274Y0326093D02*
X0106514Y0326093D01*
X0106514Y0306093D02*
X0106274Y0306093D01*
X0121274Y0291093D02*
X0121514Y0291093D01*
X0106514Y0286093D02*
X0106274Y0286093D01*
X0141274Y0338593D02*
X0141514Y0338593D01*
X0106514Y0346093D02*
X0106274Y0346093D01*
D21*
X0168913Y0198573D02*
X0169307Y0198573D01*
X0168913Y0198573D02*
X0168913Y0198180D01*
X0168913Y0184006D02*
X0168913Y0183613D01*
X0169307Y0183613D01*
X0183480Y0183613D02*
X0183874Y0183613D01*
X0183874Y0184006D01*
X0183874Y0198180D02*
X0183874Y0198573D01*
X0183480Y0198573D01*
X0218894Y0153061D02*
X0216138Y0148928D01*
X0221650Y0148928D01*
X0218894Y0153061D01*
X0218894Y0123061D02*
X0216138Y0118928D01*
X0221650Y0118928D01*
X0218894Y0123061D01*
X0201394Y0118993D02*
X0196669Y0118993D01*
X0198047Y0118809D02*
X0201197Y0115660D01*
X0201394Y0118993D02*
X0201394Y0083193D01*
X0196669Y0083193D01*
X0193303Y0072313D02*
X0261295Y0072313D01*
X0261295Y0051565D01*
X0261295Y0036628D02*
X0261295Y0010306D01*
X0193303Y0010306D01*
X0193303Y0036628D01*
X0193303Y0051565D02*
X0193303Y0072313D01*
X0156118Y0083193D02*
X0151394Y0083193D01*
X0151394Y0118993D01*
X0156118Y0118993D01*
X0123559Y0058849D02*
X0123559Y0053337D01*
X0119425Y0056093D01*
X0123559Y0058849D01*
X0093362Y0056093D02*
X0089228Y0058849D01*
X0089228Y0053337D01*
X0093362Y0056093D01*
X0044898Y0083022D02*
X0043126Y0083022D01*
X0043126Y0084597D01*
X0043531Y0081455D02*
X0043533Y0081499D01*
X0043539Y0081543D01*
X0043549Y0081586D01*
X0043562Y0081628D01*
X0043579Y0081669D01*
X0043600Y0081708D01*
X0043624Y0081745D01*
X0043651Y0081780D01*
X0043681Y0081812D01*
X0043714Y0081842D01*
X0043750Y0081868D01*
X0043787Y0081892D01*
X0043827Y0081911D01*
X0043868Y0081928D01*
X0043911Y0081940D01*
X0043954Y0081949D01*
X0043998Y0081954D01*
X0044042Y0081955D01*
X0044086Y0081952D01*
X0044130Y0081945D01*
X0044173Y0081934D01*
X0044215Y0081920D01*
X0044255Y0081902D01*
X0044294Y0081880D01*
X0044330Y0081856D01*
X0044364Y0081828D01*
X0044396Y0081797D01*
X0044425Y0081763D01*
X0044451Y0081727D01*
X0044473Y0081689D01*
X0044492Y0081649D01*
X0044507Y0081607D01*
X0044519Y0081565D01*
X0044527Y0081521D01*
X0044531Y0081477D01*
X0044531Y0081433D01*
X0044527Y0081389D01*
X0044519Y0081345D01*
X0044507Y0081303D01*
X0044492Y0081261D01*
X0044473Y0081221D01*
X0044451Y0081183D01*
X0044425Y0081147D01*
X0044396Y0081113D01*
X0044364Y0081082D01*
X0044330Y0081054D01*
X0044294Y0081030D01*
X0044255Y0081008D01*
X0044215Y0080990D01*
X0044173Y0080976D01*
X0044130Y0080965D01*
X0044086Y0080958D01*
X0044042Y0080955D01*
X0043998Y0080956D01*
X0043954Y0080961D01*
X0043911Y0080970D01*
X0043868Y0080982D01*
X0043827Y0080999D01*
X0043787Y0081018D01*
X0043750Y0081042D01*
X0043714Y0081068D01*
X0043681Y0081098D01*
X0043651Y0081130D01*
X0043624Y0081165D01*
X0043600Y0081202D01*
X0043579Y0081241D01*
X0043562Y0081282D01*
X0043549Y0081324D01*
X0043539Y0081367D01*
X0043533Y0081411D01*
X0043531Y0081455D01*
D22*
X0032535Y0031526D02*
X0032535Y0026605D01*
X0032535Y0015896D02*
X0032535Y0010857D01*
X0070252Y0010857D01*
X0070252Y0015896D01*
X0070252Y0026605D02*
X0070252Y0031526D01*
X0196867Y0123534D02*
X0196869Y0123590D01*
X0196875Y0123645D01*
X0196885Y0123699D01*
X0196898Y0123753D01*
X0196916Y0123806D01*
X0196937Y0123857D01*
X0196961Y0123907D01*
X0196989Y0123955D01*
X0197021Y0124001D01*
X0197055Y0124045D01*
X0197093Y0124086D01*
X0197133Y0124124D01*
X0197176Y0124159D01*
X0197221Y0124191D01*
X0197269Y0124220D01*
X0197318Y0124246D01*
X0197369Y0124268D01*
X0197421Y0124286D01*
X0197475Y0124300D01*
X0197530Y0124311D01*
X0197585Y0124318D01*
X0197640Y0124321D01*
X0197696Y0124320D01*
X0197751Y0124315D01*
X0197806Y0124306D01*
X0197860Y0124294D01*
X0197913Y0124277D01*
X0197965Y0124257D01*
X0198015Y0124233D01*
X0198063Y0124206D01*
X0198110Y0124176D01*
X0198154Y0124142D01*
X0198196Y0124105D01*
X0198234Y0124065D01*
X0198271Y0124023D01*
X0198304Y0123978D01*
X0198333Y0123932D01*
X0198360Y0123883D01*
X0198382Y0123832D01*
X0198402Y0123780D01*
X0198417Y0123726D01*
X0198429Y0123672D01*
X0198437Y0123617D01*
X0198441Y0123562D01*
X0198441Y0123506D01*
X0198437Y0123451D01*
X0198429Y0123396D01*
X0198417Y0123342D01*
X0198402Y0123288D01*
X0198382Y0123236D01*
X0198360Y0123185D01*
X0198333Y0123136D01*
X0198304Y0123090D01*
X0198271Y0123045D01*
X0198234Y0123003D01*
X0198196Y0122963D01*
X0198154Y0122926D01*
X0198110Y0122892D01*
X0198063Y0122862D01*
X0198015Y0122835D01*
X0197965Y0122811D01*
X0197913Y0122791D01*
X0197860Y0122774D01*
X0197806Y0122762D01*
X0197751Y0122753D01*
X0197696Y0122748D01*
X0197640Y0122747D01*
X0197585Y0122750D01*
X0197530Y0122757D01*
X0197475Y0122768D01*
X0197421Y0122782D01*
X0197369Y0122800D01*
X0197318Y0122822D01*
X0197269Y0122848D01*
X0197221Y0122877D01*
X0197176Y0122909D01*
X0197133Y0122944D01*
X0197093Y0122982D01*
X0197055Y0123023D01*
X0197021Y0123067D01*
X0196989Y0123113D01*
X0196961Y0123161D01*
X0196937Y0123211D01*
X0196916Y0123262D01*
X0196898Y0123315D01*
X0196885Y0123369D01*
X0196875Y0123423D01*
X0196869Y0123478D01*
X0196867Y0123534D01*
X0197260Y0123534D02*
X0197262Y0123573D01*
X0197268Y0123612D01*
X0197278Y0123650D01*
X0197291Y0123687D01*
X0197308Y0123722D01*
X0197328Y0123756D01*
X0197352Y0123787D01*
X0197379Y0123816D01*
X0197408Y0123842D01*
X0197440Y0123865D01*
X0197474Y0123885D01*
X0197510Y0123901D01*
X0197547Y0123913D01*
X0197586Y0123922D01*
X0197625Y0123927D01*
X0197664Y0123928D01*
X0197703Y0123925D01*
X0197742Y0123918D01*
X0197779Y0123907D01*
X0197816Y0123893D01*
X0197851Y0123875D01*
X0197884Y0123854D01*
X0197915Y0123829D01*
X0197943Y0123802D01*
X0197968Y0123772D01*
X0197990Y0123739D01*
X0198009Y0123705D01*
X0198024Y0123669D01*
X0198036Y0123631D01*
X0198044Y0123593D01*
X0198048Y0123554D01*
X0198048Y0123514D01*
X0198044Y0123475D01*
X0198036Y0123437D01*
X0198024Y0123399D01*
X0198009Y0123363D01*
X0197990Y0123329D01*
X0197968Y0123296D01*
X0197943Y0123266D01*
X0197915Y0123239D01*
X0197884Y0123214D01*
X0197851Y0123193D01*
X0197816Y0123175D01*
X0197779Y0123161D01*
X0197742Y0123150D01*
X0197703Y0123143D01*
X0197664Y0123140D01*
X0197625Y0123141D01*
X0197586Y0123146D01*
X0197547Y0123155D01*
X0197510Y0123167D01*
X0197474Y0123183D01*
X0197440Y0123203D01*
X0197408Y0123226D01*
X0197379Y0123252D01*
X0197352Y0123281D01*
X0197328Y0123312D01*
X0197308Y0123346D01*
X0197291Y0123381D01*
X0197278Y0123418D01*
X0197268Y0123456D01*
X0197262Y0123495D01*
X0197260Y0123534D01*
X0240905Y0036097D02*
X0240907Y0036136D01*
X0240913Y0036175D01*
X0240923Y0036213D01*
X0240936Y0036250D01*
X0240953Y0036285D01*
X0240973Y0036319D01*
X0240997Y0036350D01*
X0241024Y0036379D01*
X0241053Y0036405D01*
X0241085Y0036428D01*
X0241119Y0036448D01*
X0241155Y0036464D01*
X0241192Y0036476D01*
X0241231Y0036485D01*
X0241270Y0036490D01*
X0241309Y0036491D01*
X0241348Y0036488D01*
X0241387Y0036481D01*
X0241424Y0036470D01*
X0241461Y0036456D01*
X0241496Y0036438D01*
X0241529Y0036417D01*
X0241560Y0036392D01*
X0241588Y0036365D01*
X0241613Y0036335D01*
X0241635Y0036302D01*
X0241654Y0036268D01*
X0241669Y0036232D01*
X0241681Y0036194D01*
X0241689Y0036156D01*
X0241693Y0036117D01*
X0241693Y0036077D01*
X0241689Y0036038D01*
X0241681Y0036000D01*
X0241669Y0035962D01*
X0241654Y0035926D01*
X0241635Y0035892D01*
X0241613Y0035859D01*
X0241588Y0035829D01*
X0241560Y0035802D01*
X0241529Y0035777D01*
X0241496Y0035756D01*
X0241461Y0035738D01*
X0241424Y0035724D01*
X0241387Y0035713D01*
X0241348Y0035706D01*
X0241309Y0035703D01*
X0241270Y0035704D01*
X0241231Y0035709D01*
X0241192Y0035718D01*
X0241155Y0035730D01*
X0241119Y0035746D01*
X0241085Y0035766D01*
X0241053Y0035789D01*
X0241024Y0035815D01*
X0240997Y0035844D01*
X0240973Y0035875D01*
X0240953Y0035909D01*
X0240936Y0035944D01*
X0240923Y0035981D01*
X0240913Y0036019D01*
X0240907Y0036058D01*
X0240905Y0036097D01*
X0125716Y0308510D02*
X0125718Y0308549D01*
X0125724Y0308588D01*
X0125734Y0308626D01*
X0125747Y0308663D01*
X0125764Y0308698D01*
X0125784Y0308732D01*
X0125808Y0308763D01*
X0125835Y0308792D01*
X0125864Y0308818D01*
X0125896Y0308841D01*
X0125930Y0308861D01*
X0125966Y0308877D01*
X0126003Y0308889D01*
X0126042Y0308898D01*
X0126081Y0308903D01*
X0126120Y0308904D01*
X0126159Y0308901D01*
X0126198Y0308894D01*
X0126235Y0308883D01*
X0126272Y0308869D01*
X0126307Y0308851D01*
X0126340Y0308830D01*
X0126371Y0308805D01*
X0126399Y0308778D01*
X0126424Y0308748D01*
X0126446Y0308715D01*
X0126465Y0308681D01*
X0126480Y0308645D01*
X0126492Y0308607D01*
X0126500Y0308569D01*
X0126504Y0308530D01*
X0126504Y0308490D01*
X0126500Y0308451D01*
X0126492Y0308413D01*
X0126480Y0308375D01*
X0126465Y0308339D01*
X0126446Y0308305D01*
X0126424Y0308272D01*
X0126399Y0308242D01*
X0126371Y0308215D01*
X0126340Y0308190D01*
X0126307Y0308169D01*
X0126272Y0308151D01*
X0126235Y0308137D01*
X0126198Y0308126D01*
X0126159Y0308119D01*
X0126120Y0308116D01*
X0126081Y0308117D01*
X0126042Y0308122D01*
X0126003Y0308131D01*
X0125966Y0308143D01*
X0125930Y0308159D01*
X0125896Y0308179D01*
X0125864Y0308202D01*
X0125835Y0308228D01*
X0125808Y0308257D01*
X0125784Y0308288D01*
X0125764Y0308322D01*
X0125747Y0308357D01*
X0125734Y0308394D01*
X0125724Y0308432D01*
X0125718Y0308471D01*
X0125716Y0308510D01*
D23*
X0203598Y0063534D02*
X0203598Y0061565D01*
X0203598Y0059597D01*
X0206354Y0061565D01*
X0207929Y0061565D01*
X0206354Y0061565D02*
X0206354Y0063534D01*
X0206354Y0061565D02*
X0206354Y0059597D01*
X0206354Y0061565D02*
X0203598Y0063534D01*
X0203598Y0061565D02*
X0201630Y0061565D01*
X0246512Y0061565D02*
X0248480Y0061565D01*
X0248480Y0063534D01*
X0251236Y0061565D01*
X0252811Y0061565D01*
X0251236Y0061565D02*
X0251236Y0063534D01*
X0251236Y0061565D02*
X0248480Y0059597D01*
X0248480Y0061565D01*
X0251236Y0061565D02*
X0251236Y0059597D01*
X0130646Y0027983D02*
X0130646Y0027392D01*
X0130646Y0027983D02*
X0112142Y0027983D01*
X0112142Y0027392D01*
X0112142Y0021487D02*
X0112142Y0020699D01*
X0112142Y0014794D02*
X0112142Y0014203D01*
X0130646Y0014203D01*
X0130646Y0014794D01*
X0130646Y0020699D02*
X0130646Y0021487D01*
D24*
X0218894Y0123258D03*
X0218894Y0153258D03*
D25*
X0218894Y0163888D03*
X0218894Y0133888D03*
D26*
X0119228Y0056093D03*
X0093559Y0056093D03*
D27*
X0104189Y0056093D03*
X0108598Y0056093D03*
D28*
X0136394Y0081093D03*
X0136394Y0088593D03*
X0136394Y0096093D03*
X0161394Y0041093D03*
X0191394Y0151093D03*
X0191394Y0158593D03*
X0146394Y0178593D03*
X0148894Y0191093D03*
X0148894Y0198593D03*
X0133894Y0231093D03*
X0133894Y0238593D03*
X0093894Y0236093D03*
X0173894Y0253593D03*
X0173894Y0261093D03*
X0206394Y0216093D03*
X0051394Y0113593D03*
D29*
X0030351Y0146329D02*
X0030353Y0146372D01*
X0030359Y0146414D01*
X0030369Y0146456D01*
X0030382Y0146497D01*
X0030399Y0146537D01*
X0030420Y0146574D01*
X0030444Y0146610D01*
X0030471Y0146643D01*
X0030501Y0146674D01*
X0030534Y0146702D01*
X0030569Y0146727D01*
X0030606Y0146748D01*
X0030645Y0146766D01*
X0030685Y0146780D01*
X0030727Y0146791D01*
X0030769Y0146798D01*
X0030812Y0146801D01*
X0030855Y0146800D01*
X0030898Y0146795D01*
X0030940Y0146786D01*
X0030981Y0146774D01*
X0031021Y0146758D01*
X0031059Y0146738D01*
X0031095Y0146715D01*
X0031129Y0146688D01*
X0031161Y0146659D01*
X0031189Y0146627D01*
X0031215Y0146592D01*
X0031237Y0146556D01*
X0031256Y0146517D01*
X0031271Y0146477D01*
X0031283Y0146436D01*
X0031291Y0146393D01*
X0031295Y0146350D01*
X0031295Y0146308D01*
X0031291Y0146265D01*
X0031283Y0146222D01*
X0031271Y0146181D01*
X0031256Y0146141D01*
X0031237Y0146102D01*
X0031215Y0146066D01*
X0031189Y0146031D01*
X0031161Y0145999D01*
X0031129Y0145970D01*
X0031095Y0145943D01*
X0031059Y0145920D01*
X0031021Y0145900D01*
X0030981Y0145884D01*
X0030940Y0145872D01*
X0030898Y0145863D01*
X0030855Y0145858D01*
X0030812Y0145857D01*
X0030769Y0145860D01*
X0030727Y0145867D01*
X0030685Y0145878D01*
X0030645Y0145892D01*
X0030606Y0145910D01*
X0030569Y0145931D01*
X0030534Y0145956D01*
X0030501Y0145984D01*
X0030471Y0146015D01*
X0030444Y0146048D01*
X0030420Y0146084D01*
X0030399Y0146121D01*
X0030382Y0146161D01*
X0030369Y0146202D01*
X0030359Y0146244D01*
X0030353Y0146286D01*
X0030351Y0146329D01*
D30*
X0053894Y0136093D03*
X0036394Y0101093D03*
X0063894Y0076093D03*
X0068894Y0053593D03*
X0081394Y0038593D03*
X0091394Y0038593D03*
X0108894Y0038593D03*
X0115894Y0088593D03*
X0115894Y0103593D03*
X0131394Y0123593D03*
X0141394Y0123593D03*
X0141394Y0136093D03*
X0131394Y0136093D03*
X0121394Y0236093D03*
X0071394Y0238593D03*
X0076394Y0346093D03*
X0116394Y0346093D03*
X0276394Y0166093D03*
X0261394Y0086093D03*
X0251394Y0086093D03*
X0241394Y0086093D03*
X0231394Y0086093D03*
X0033894Y0053593D03*
D31*
X0185203Y0182235D03*
M02*
