%
M48
M72
T01C0.01181
T02C0.02362
T03C0.02559
T04C0.03819
T05C0.04331
T06C0.06496
T07C0.12598
T08C0.12795
%
T01
X28900Y58000
X28900Y67500
X23400Y72500
X28900Y85500
X19900Y98000
X9900Y98000
X43400Y79500
X54900Y73000
X54900Y65500
X59900Y80500
X59900Y88000
X79900Y58000
X91400Y73500
X94900Y83500
X99900Y88000
X99900Y95500
X110400Y103000
X122900Y116000
X125400Y119000
X134400Y119000
X142400Y116000
X148900Y105500
X129400Y103000
X107400Y124000
X101900Y124000
X108400Y134500
X111400Y148000
X107400Y152000
X99400Y152000
X94400Y152000
X83900Y153500
X83900Y165500
X83900Y140000
X83900Y128500
X91400Y128500
X36900Y47500
X44900Y37000
X49900Y37000
X55849Y47449
X94900Y63000
X167400Y103000
X173900Y132000
X182400Y132000
X191400Y132000
T02
X29392Y39457
X29392Y23000
X63408Y39457
X63408Y23000
T03
X35022Y37488
X57778Y37488
T04
X123900Y78000
X128900Y88000
X133900Y78000
X143900Y78000
X138900Y88000
X148900Y88000
X153900Y78000
X158900Y88000
T05
X115317Y37016
X125317Y37016
X157483Y37016
X167483Y37016
T06
X110908Y65008
X171892Y65008
T07
X11400Y278000
X48900Y253000
X48900Y123000
X11400Y23000
X153900Y123000
X191400Y23000
X153900Y253000
X191400Y278000
T08
X118900Y53000
X163900Y53000
M30
