G75*
%MOIN*%
%OFA0B0*%
%FSLAX25Y25*%
%IPPOS*%
%LPD*%
%AMOC8*
5,1,8,0,0,1.08239X$1,22.5*
%
%ADD10C,0.00000*%
%ADD11C,0.00000*%
D10*
X0001400Y0013000D02*
X0001400Y0288000D01*
X0201400Y0288000D01*
X0201400Y0013000D01*
X0001400Y0013000D01*
X0005101Y0023000D02*
X0005103Y0023158D01*
X0005109Y0023316D01*
X0005119Y0023474D01*
X0005133Y0023632D01*
X0005151Y0023789D01*
X0005172Y0023946D01*
X0005198Y0024102D01*
X0005228Y0024258D01*
X0005261Y0024413D01*
X0005299Y0024566D01*
X0005340Y0024719D01*
X0005385Y0024871D01*
X0005434Y0025022D01*
X0005487Y0025171D01*
X0005543Y0025319D01*
X0005603Y0025465D01*
X0005667Y0025610D01*
X0005735Y0025753D01*
X0005806Y0025895D01*
X0005880Y0026035D01*
X0005958Y0026172D01*
X0006040Y0026308D01*
X0006124Y0026442D01*
X0006213Y0026573D01*
X0006304Y0026702D01*
X0006399Y0026829D01*
X0006496Y0026954D01*
X0006597Y0027076D01*
X0006701Y0027195D01*
X0006808Y0027312D01*
X0006918Y0027426D01*
X0007031Y0027537D01*
X0007146Y0027646D01*
X0007264Y0027751D01*
X0007385Y0027853D01*
X0007508Y0027953D01*
X0007634Y0028049D01*
X0007762Y0028142D01*
X0007892Y0028232D01*
X0008025Y0028318D01*
X0008160Y0028402D01*
X0008296Y0028481D01*
X0008435Y0028558D01*
X0008576Y0028630D01*
X0008718Y0028700D01*
X0008862Y0028765D01*
X0009008Y0028827D01*
X0009155Y0028885D01*
X0009304Y0028940D01*
X0009454Y0028991D01*
X0009605Y0029038D01*
X0009757Y0029081D01*
X0009910Y0029120D01*
X0010065Y0029156D01*
X0010220Y0029187D01*
X0010376Y0029215D01*
X0010532Y0029239D01*
X0010689Y0029259D01*
X0010847Y0029275D01*
X0011004Y0029287D01*
X0011163Y0029295D01*
X0011321Y0029299D01*
X0011479Y0029299D01*
X0011637Y0029295D01*
X0011796Y0029287D01*
X0011953Y0029275D01*
X0012111Y0029259D01*
X0012268Y0029239D01*
X0012424Y0029215D01*
X0012580Y0029187D01*
X0012735Y0029156D01*
X0012890Y0029120D01*
X0013043Y0029081D01*
X0013195Y0029038D01*
X0013346Y0028991D01*
X0013496Y0028940D01*
X0013645Y0028885D01*
X0013792Y0028827D01*
X0013938Y0028765D01*
X0014082Y0028700D01*
X0014224Y0028630D01*
X0014365Y0028558D01*
X0014504Y0028481D01*
X0014640Y0028402D01*
X0014775Y0028318D01*
X0014908Y0028232D01*
X0015038Y0028142D01*
X0015166Y0028049D01*
X0015292Y0027953D01*
X0015415Y0027853D01*
X0015536Y0027751D01*
X0015654Y0027646D01*
X0015769Y0027537D01*
X0015882Y0027426D01*
X0015992Y0027312D01*
X0016099Y0027195D01*
X0016203Y0027076D01*
X0016304Y0026954D01*
X0016401Y0026829D01*
X0016496Y0026702D01*
X0016587Y0026573D01*
X0016676Y0026442D01*
X0016760Y0026308D01*
X0016842Y0026172D01*
X0016920Y0026035D01*
X0016994Y0025895D01*
X0017065Y0025753D01*
X0017133Y0025610D01*
X0017197Y0025465D01*
X0017257Y0025319D01*
X0017313Y0025171D01*
X0017366Y0025022D01*
X0017415Y0024871D01*
X0017460Y0024719D01*
X0017501Y0024566D01*
X0017539Y0024413D01*
X0017572Y0024258D01*
X0017602Y0024102D01*
X0017628Y0023946D01*
X0017649Y0023789D01*
X0017667Y0023632D01*
X0017681Y0023474D01*
X0017691Y0023316D01*
X0017697Y0023158D01*
X0017699Y0023000D01*
X0017697Y0022842D01*
X0017691Y0022684D01*
X0017681Y0022526D01*
X0017667Y0022368D01*
X0017649Y0022211D01*
X0017628Y0022054D01*
X0017602Y0021898D01*
X0017572Y0021742D01*
X0017539Y0021587D01*
X0017501Y0021434D01*
X0017460Y0021281D01*
X0017415Y0021129D01*
X0017366Y0020978D01*
X0017313Y0020829D01*
X0017257Y0020681D01*
X0017197Y0020535D01*
X0017133Y0020390D01*
X0017065Y0020247D01*
X0016994Y0020105D01*
X0016920Y0019965D01*
X0016842Y0019828D01*
X0016760Y0019692D01*
X0016676Y0019558D01*
X0016587Y0019427D01*
X0016496Y0019298D01*
X0016401Y0019171D01*
X0016304Y0019046D01*
X0016203Y0018924D01*
X0016099Y0018805D01*
X0015992Y0018688D01*
X0015882Y0018574D01*
X0015769Y0018463D01*
X0015654Y0018354D01*
X0015536Y0018249D01*
X0015415Y0018147D01*
X0015292Y0018047D01*
X0015166Y0017951D01*
X0015038Y0017858D01*
X0014908Y0017768D01*
X0014775Y0017682D01*
X0014640Y0017598D01*
X0014504Y0017519D01*
X0014365Y0017442D01*
X0014224Y0017370D01*
X0014082Y0017300D01*
X0013938Y0017235D01*
X0013792Y0017173D01*
X0013645Y0017115D01*
X0013496Y0017060D01*
X0013346Y0017009D01*
X0013195Y0016962D01*
X0013043Y0016919D01*
X0012890Y0016880D01*
X0012735Y0016844D01*
X0012580Y0016813D01*
X0012424Y0016785D01*
X0012268Y0016761D01*
X0012111Y0016741D01*
X0011953Y0016725D01*
X0011796Y0016713D01*
X0011637Y0016705D01*
X0011479Y0016701D01*
X0011321Y0016701D01*
X0011163Y0016705D01*
X0011004Y0016713D01*
X0010847Y0016725D01*
X0010689Y0016741D01*
X0010532Y0016761D01*
X0010376Y0016785D01*
X0010220Y0016813D01*
X0010065Y0016844D01*
X0009910Y0016880D01*
X0009757Y0016919D01*
X0009605Y0016962D01*
X0009454Y0017009D01*
X0009304Y0017060D01*
X0009155Y0017115D01*
X0009008Y0017173D01*
X0008862Y0017235D01*
X0008718Y0017300D01*
X0008576Y0017370D01*
X0008435Y0017442D01*
X0008296Y0017519D01*
X0008160Y0017598D01*
X0008025Y0017682D01*
X0007892Y0017768D01*
X0007762Y0017858D01*
X0007634Y0017951D01*
X0007508Y0018047D01*
X0007385Y0018147D01*
X0007264Y0018249D01*
X0007146Y0018354D01*
X0007031Y0018463D01*
X0006918Y0018574D01*
X0006808Y0018688D01*
X0006701Y0018805D01*
X0006597Y0018924D01*
X0006496Y0019046D01*
X0006399Y0019171D01*
X0006304Y0019298D01*
X0006213Y0019427D01*
X0006124Y0019558D01*
X0006040Y0019692D01*
X0005958Y0019828D01*
X0005880Y0019965D01*
X0005806Y0020105D01*
X0005735Y0020247D01*
X0005667Y0020390D01*
X0005603Y0020535D01*
X0005543Y0020681D01*
X0005487Y0020829D01*
X0005434Y0020978D01*
X0005385Y0021129D01*
X0005340Y0021281D01*
X0005299Y0021434D01*
X0005261Y0021587D01*
X0005228Y0021742D01*
X0005198Y0021898D01*
X0005172Y0022054D01*
X0005151Y0022211D01*
X0005133Y0022368D01*
X0005119Y0022526D01*
X0005109Y0022684D01*
X0005103Y0022842D01*
X0005101Y0023000D01*
X0033742Y0037488D02*
X0033744Y0037559D01*
X0033750Y0037630D01*
X0033760Y0037701D01*
X0033774Y0037770D01*
X0033791Y0037839D01*
X0033813Y0037907D01*
X0033838Y0037974D01*
X0033867Y0038039D01*
X0033899Y0038102D01*
X0033935Y0038164D01*
X0033974Y0038223D01*
X0034017Y0038280D01*
X0034062Y0038335D01*
X0034111Y0038387D01*
X0034162Y0038436D01*
X0034216Y0038482D01*
X0034273Y0038526D01*
X0034331Y0038566D01*
X0034392Y0038602D01*
X0034455Y0038636D01*
X0034520Y0038665D01*
X0034586Y0038691D01*
X0034654Y0038714D01*
X0034722Y0038732D01*
X0034792Y0038747D01*
X0034862Y0038758D01*
X0034933Y0038765D01*
X0035004Y0038768D01*
X0035075Y0038767D01*
X0035146Y0038762D01*
X0035217Y0038753D01*
X0035287Y0038740D01*
X0035356Y0038724D01*
X0035424Y0038703D01*
X0035491Y0038679D01*
X0035557Y0038651D01*
X0035620Y0038619D01*
X0035682Y0038584D01*
X0035742Y0038546D01*
X0035800Y0038504D01*
X0035855Y0038460D01*
X0035908Y0038412D01*
X0035958Y0038361D01*
X0036005Y0038308D01*
X0036049Y0038252D01*
X0036090Y0038194D01*
X0036128Y0038133D01*
X0036162Y0038071D01*
X0036192Y0038006D01*
X0036219Y0037941D01*
X0036243Y0037873D01*
X0036262Y0037805D01*
X0036278Y0037736D01*
X0036290Y0037665D01*
X0036298Y0037595D01*
X0036302Y0037524D01*
X0036302Y0037452D01*
X0036298Y0037381D01*
X0036290Y0037311D01*
X0036278Y0037240D01*
X0036262Y0037171D01*
X0036243Y0037103D01*
X0036219Y0037035D01*
X0036192Y0036970D01*
X0036162Y0036905D01*
X0036128Y0036843D01*
X0036090Y0036782D01*
X0036049Y0036724D01*
X0036005Y0036668D01*
X0035958Y0036615D01*
X0035908Y0036564D01*
X0035855Y0036516D01*
X0035800Y0036472D01*
X0035742Y0036430D01*
X0035682Y0036392D01*
X0035620Y0036357D01*
X0035557Y0036325D01*
X0035491Y0036297D01*
X0035424Y0036273D01*
X0035356Y0036252D01*
X0035287Y0036236D01*
X0035217Y0036223D01*
X0035146Y0036214D01*
X0035075Y0036209D01*
X0035004Y0036208D01*
X0034933Y0036211D01*
X0034862Y0036218D01*
X0034792Y0036229D01*
X0034722Y0036244D01*
X0034654Y0036262D01*
X0034586Y0036285D01*
X0034520Y0036311D01*
X0034455Y0036340D01*
X0034392Y0036374D01*
X0034331Y0036410D01*
X0034273Y0036450D01*
X0034216Y0036494D01*
X0034162Y0036540D01*
X0034111Y0036589D01*
X0034062Y0036641D01*
X0034017Y0036696D01*
X0033974Y0036753D01*
X0033935Y0036812D01*
X0033899Y0036874D01*
X0033867Y0036937D01*
X0033838Y0037002D01*
X0033813Y0037069D01*
X0033791Y0037137D01*
X0033774Y0037206D01*
X0033760Y0037275D01*
X0033750Y0037346D01*
X0033744Y0037417D01*
X0033742Y0037488D01*
X0056498Y0037488D02*
X0056500Y0037559D01*
X0056506Y0037630D01*
X0056516Y0037701D01*
X0056530Y0037770D01*
X0056547Y0037839D01*
X0056569Y0037907D01*
X0056594Y0037974D01*
X0056623Y0038039D01*
X0056655Y0038102D01*
X0056691Y0038164D01*
X0056730Y0038223D01*
X0056773Y0038280D01*
X0056818Y0038335D01*
X0056867Y0038387D01*
X0056918Y0038436D01*
X0056972Y0038482D01*
X0057029Y0038526D01*
X0057087Y0038566D01*
X0057148Y0038602D01*
X0057211Y0038636D01*
X0057276Y0038665D01*
X0057342Y0038691D01*
X0057410Y0038714D01*
X0057478Y0038732D01*
X0057548Y0038747D01*
X0057618Y0038758D01*
X0057689Y0038765D01*
X0057760Y0038768D01*
X0057831Y0038767D01*
X0057902Y0038762D01*
X0057973Y0038753D01*
X0058043Y0038740D01*
X0058112Y0038724D01*
X0058180Y0038703D01*
X0058247Y0038679D01*
X0058313Y0038651D01*
X0058376Y0038619D01*
X0058438Y0038584D01*
X0058498Y0038546D01*
X0058556Y0038504D01*
X0058611Y0038460D01*
X0058664Y0038412D01*
X0058714Y0038361D01*
X0058761Y0038308D01*
X0058805Y0038252D01*
X0058846Y0038194D01*
X0058884Y0038133D01*
X0058918Y0038071D01*
X0058948Y0038006D01*
X0058975Y0037941D01*
X0058999Y0037873D01*
X0059018Y0037805D01*
X0059034Y0037736D01*
X0059046Y0037665D01*
X0059054Y0037595D01*
X0059058Y0037524D01*
X0059058Y0037452D01*
X0059054Y0037381D01*
X0059046Y0037311D01*
X0059034Y0037240D01*
X0059018Y0037171D01*
X0058999Y0037103D01*
X0058975Y0037035D01*
X0058948Y0036970D01*
X0058918Y0036905D01*
X0058884Y0036843D01*
X0058846Y0036782D01*
X0058805Y0036724D01*
X0058761Y0036668D01*
X0058714Y0036615D01*
X0058664Y0036564D01*
X0058611Y0036516D01*
X0058556Y0036472D01*
X0058498Y0036430D01*
X0058438Y0036392D01*
X0058376Y0036357D01*
X0058313Y0036325D01*
X0058247Y0036297D01*
X0058180Y0036273D01*
X0058112Y0036252D01*
X0058043Y0036236D01*
X0057973Y0036223D01*
X0057902Y0036214D01*
X0057831Y0036209D01*
X0057760Y0036208D01*
X0057689Y0036211D01*
X0057618Y0036218D01*
X0057548Y0036229D01*
X0057478Y0036244D01*
X0057410Y0036262D01*
X0057342Y0036285D01*
X0057276Y0036311D01*
X0057211Y0036340D01*
X0057148Y0036374D01*
X0057087Y0036410D01*
X0057029Y0036450D01*
X0056972Y0036494D01*
X0056918Y0036540D01*
X0056867Y0036589D01*
X0056818Y0036641D01*
X0056773Y0036696D01*
X0056730Y0036753D01*
X0056691Y0036812D01*
X0056655Y0036874D01*
X0056623Y0036937D01*
X0056594Y0037002D01*
X0056569Y0037069D01*
X0056547Y0037137D01*
X0056530Y0037206D01*
X0056516Y0037275D01*
X0056506Y0037346D01*
X0056500Y0037417D01*
X0056498Y0037488D01*
X0112502Y0053000D02*
X0112504Y0053160D01*
X0112510Y0053319D01*
X0112520Y0053478D01*
X0112534Y0053637D01*
X0112552Y0053796D01*
X0112573Y0053954D01*
X0112599Y0054111D01*
X0112629Y0054268D01*
X0112662Y0054424D01*
X0112700Y0054579D01*
X0112741Y0054733D01*
X0112786Y0054886D01*
X0112835Y0055038D01*
X0112888Y0055188D01*
X0112944Y0055337D01*
X0113004Y0055485D01*
X0113068Y0055631D01*
X0113136Y0055776D01*
X0113207Y0055919D01*
X0113281Y0056060D01*
X0113359Y0056199D01*
X0113441Y0056336D01*
X0113526Y0056471D01*
X0113614Y0056604D01*
X0113705Y0056735D01*
X0113800Y0056863D01*
X0113898Y0056989D01*
X0113999Y0057113D01*
X0114103Y0057233D01*
X0114210Y0057352D01*
X0114320Y0057467D01*
X0114433Y0057580D01*
X0114548Y0057690D01*
X0114667Y0057797D01*
X0114787Y0057901D01*
X0114911Y0058002D01*
X0115037Y0058100D01*
X0115165Y0058195D01*
X0115296Y0058286D01*
X0115429Y0058374D01*
X0115564Y0058459D01*
X0115701Y0058541D01*
X0115840Y0058619D01*
X0115981Y0058693D01*
X0116124Y0058764D01*
X0116269Y0058832D01*
X0116415Y0058896D01*
X0116563Y0058956D01*
X0116712Y0059012D01*
X0116862Y0059065D01*
X0117014Y0059114D01*
X0117167Y0059159D01*
X0117321Y0059200D01*
X0117476Y0059238D01*
X0117632Y0059271D01*
X0117789Y0059301D01*
X0117946Y0059327D01*
X0118104Y0059348D01*
X0118263Y0059366D01*
X0118422Y0059380D01*
X0118581Y0059390D01*
X0118740Y0059396D01*
X0118900Y0059398D01*
X0119060Y0059396D01*
X0119219Y0059390D01*
X0119378Y0059380D01*
X0119537Y0059366D01*
X0119696Y0059348D01*
X0119854Y0059327D01*
X0120011Y0059301D01*
X0120168Y0059271D01*
X0120324Y0059238D01*
X0120479Y0059200D01*
X0120633Y0059159D01*
X0120786Y0059114D01*
X0120938Y0059065D01*
X0121088Y0059012D01*
X0121237Y0058956D01*
X0121385Y0058896D01*
X0121531Y0058832D01*
X0121676Y0058764D01*
X0121819Y0058693D01*
X0121960Y0058619D01*
X0122099Y0058541D01*
X0122236Y0058459D01*
X0122371Y0058374D01*
X0122504Y0058286D01*
X0122635Y0058195D01*
X0122763Y0058100D01*
X0122889Y0058002D01*
X0123013Y0057901D01*
X0123133Y0057797D01*
X0123252Y0057690D01*
X0123367Y0057580D01*
X0123480Y0057467D01*
X0123590Y0057352D01*
X0123697Y0057233D01*
X0123801Y0057113D01*
X0123902Y0056989D01*
X0124000Y0056863D01*
X0124095Y0056735D01*
X0124186Y0056604D01*
X0124274Y0056471D01*
X0124359Y0056336D01*
X0124441Y0056199D01*
X0124519Y0056060D01*
X0124593Y0055919D01*
X0124664Y0055776D01*
X0124732Y0055631D01*
X0124796Y0055485D01*
X0124856Y0055337D01*
X0124912Y0055188D01*
X0124965Y0055038D01*
X0125014Y0054886D01*
X0125059Y0054733D01*
X0125100Y0054579D01*
X0125138Y0054424D01*
X0125171Y0054268D01*
X0125201Y0054111D01*
X0125227Y0053954D01*
X0125248Y0053796D01*
X0125266Y0053637D01*
X0125280Y0053478D01*
X0125290Y0053319D01*
X0125296Y0053160D01*
X0125298Y0053000D01*
X0125296Y0052840D01*
X0125290Y0052681D01*
X0125280Y0052522D01*
X0125266Y0052363D01*
X0125248Y0052204D01*
X0125227Y0052046D01*
X0125201Y0051889D01*
X0125171Y0051732D01*
X0125138Y0051576D01*
X0125100Y0051421D01*
X0125059Y0051267D01*
X0125014Y0051114D01*
X0124965Y0050962D01*
X0124912Y0050812D01*
X0124856Y0050663D01*
X0124796Y0050515D01*
X0124732Y0050369D01*
X0124664Y0050224D01*
X0124593Y0050081D01*
X0124519Y0049940D01*
X0124441Y0049801D01*
X0124359Y0049664D01*
X0124274Y0049529D01*
X0124186Y0049396D01*
X0124095Y0049265D01*
X0124000Y0049137D01*
X0123902Y0049011D01*
X0123801Y0048887D01*
X0123697Y0048767D01*
X0123590Y0048648D01*
X0123480Y0048533D01*
X0123367Y0048420D01*
X0123252Y0048310D01*
X0123133Y0048203D01*
X0123013Y0048099D01*
X0122889Y0047998D01*
X0122763Y0047900D01*
X0122635Y0047805D01*
X0122504Y0047714D01*
X0122371Y0047626D01*
X0122236Y0047541D01*
X0122099Y0047459D01*
X0121960Y0047381D01*
X0121819Y0047307D01*
X0121676Y0047236D01*
X0121531Y0047168D01*
X0121385Y0047104D01*
X0121237Y0047044D01*
X0121088Y0046988D01*
X0120938Y0046935D01*
X0120786Y0046886D01*
X0120633Y0046841D01*
X0120479Y0046800D01*
X0120324Y0046762D01*
X0120168Y0046729D01*
X0120011Y0046699D01*
X0119854Y0046673D01*
X0119696Y0046652D01*
X0119537Y0046634D01*
X0119378Y0046620D01*
X0119219Y0046610D01*
X0119060Y0046604D01*
X0118900Y0046602D01*
X0118740Y0046604D01*
X0118581Y0046610D01*
X0118422Y0046620D01*
X0118263Y0046634D01*
X0118104Y0046652D01*
X0117946Y0046673D01*
X0117789Y0046699D01*
X0117632Y0046729D01*
X0117476Y0046762D01*
X0117321Y0046800D01*
X0117167Y0046841D01*
X0117014Y0046886D01*
X0116862Y0046935D01*
X0116712Y0046988D01*
X0116563Y0047044D01*
X0116415Y0047104D01*
X0116269Y0047168D01*
X0116124Y0047236D01*
X0115981Y0047307D01*
X0115840Y0047381D01*
X0115701Y0047459D01*
X0115564Y0047541D01*
X0115429Y0047626D01*
X0115296Y0047714D01*
X0115165Y0047805D01*
X0115037Y0047900D01*
X0114911Y0047998D01*
X0114787Y0048099D01*
X0114667Y0048203D01*
X0114548Y0048310D01*
X0114433Y0048420D01*
X0114320Y0048533D01*
X0114210Y0048648D01*
X0114103Y0048767D01*
X0113999Y0048887D01*
X0113898Y0049011D01*
X0113800Y0049137D01*
X0113705Y0049265D01*
X0113614Y0049396D01*
X0113526Y0049529D01*
X0113441Y0049664D01*
X0113359Y0049801D01*
X0113281Y0049940D01*
X0113207Y0050081D01*
X0113136Y0050224D01*
X0113068Y0050369D01*
X0113004Y0050515D01*
X0112944Y0050663D01*
X0112888Y0050812D01*
X0112835Y0050962D01*
X0112786Y0051114D01*
X0112741Y0051267D01*
X0112700Y0051421D01*
X0112662Y0051576D01*
X0112629Y0051732D01*
X0112599Y0051889D01*
X0112573Y0052046D01*
X0112552Y0052204D01*
X0112534Y0052363D01*
X0112520Y0052522D01*
X0112510Y0052681D01*
X0112504Y0052840D01*
X0112502Y0053000D01*
X0147601Y0123000D02*
X0147603Y0123158D01*
X0147609Y0123316D01*
X0147619Y0123474D01*
X0147633Y0123632D01*
X0147651Y0123789D01*
X0147672Y0123946D01*
X0147698Y0124102D01*
X0147728Y0124258D01*
X0147761Y0124413D01*
X0147799Y0124566D01*
X0147840Y0124719D01*
X0147885Y0124871D01*
X0147934Y0125022D01*
X0147987Y0125171D01*
X0148043Y0125319D01*
X0148103Y0125465D01*
X0148167Y0125610D01*
X0148235Y0125753D01*
X0148306Y0125895D01*
X0148380Y0126035D01*
X0148458Y0126172D01*
X0148540Y0126308D01*
X0148624Y0126442D01*
X0148713Y0126573D01*
X0148804Y0126702D01*
X0148899Y0126829D01*
X0148996Y0126954D01*
X0149097Y0127076D01*
X0149201Y0127195D01*
X0149308Y0127312D01*
X0149418Y0127426D01*
X0149531Y0127537D01*
X0149646Y0127646D01*
X0149764Y0127751D01*
X0149885Y0127853D01*
X0150008Y0127953D01*
X0150134Y0128049D01*
X0150262Y0128142D01*
X0150392Y0128232D01*
X0150525Y0128318D01*
X0150660Y0128402D01*
X0150796Y0128481D01*
X0150935Y0128558D01*
X0151076Y0128630D01*
X0151218Y0128700D01*
X0151362Y0128765D01*
X0151508Y0128827D01*
X0151655Y0128885D01*
X0151804Y0128940D01*
X0151954Y0128991D01*
X0152105Y0129038D01*
X0152257Y0129081D01*
X0152410Y0129120D01*
X0152565Y0129156D01*
X0152720Y0129187D01*
X0152876Y0129215D01*
X0153032Y0129239D01*
X0153189Y0129259D01*
X0153347Y0129275D01*
X0153504Y0129287D01*
X0153663Y0129295D01*
X0153821Y0129299D01*
X0153979Y0129299D01*
X0154137Y0129295D01*
X0154296Y0129287D01*
X0154453Y0129275D01*
X0154611Y0129259D01*
X0154768Y0129239D01*
X0154924Y0129215D01*
X0155080Y0129187D01*
X0155235Y0129156D01*
X0155390Y0129120D01*
X0155543Y0129081D01*
X0155695Y0129038D01*
X0155846Y0128991D01*
X0155996Y0128940D01*
X0156145Y0128885D01*
X0156292Y0128827D01*
X0156438Y0128765D01*
X0156582Y0128700D01*
X0156724Y0128630D01*
X0156865Y0128558D01*
X0157004Y0128481D01*
X0157140Y0128402D01*
X0157275Y0128318D01*
X0157408Y0128232D01*
X0157538Y0128142D01*
X0157666Y0128049D01*
X0157792Y0127953D01*
X0157915Y0127853D01*
X0158036Y0127751D01*
X0158154Y0127646D01*
X0158269Y0127537D01*
X0158382Y0127426D01*
X0158492Y0127312D01*
X0158599Y0127195D01*
X0158703Y0127076D01*
X0158804Y0126954D01*
X0158901Y0126829D01*
X0158996Y0126702D01*
X0159087Y0126573D01*
X0159176Y0126442D01*
X0159260Y0126308D01*
X0159342Y0126172D01*
X0159420Y0126035D01*
X0159494Y0125895D01*
X0159565Y0125753D01*
X0159633Y0125610D01*
X0159697Y0125465D01*
X0159757Y0125319D01*
X0159813Y0125171D01*
X0159866Y0125022D01*
X0159915Y0124871D01*
X0159960Y0124719D01*
X0160001Y0124566D01*
X0160039Y0124413D01*
X0160072Y0124258D01*
X0160102Y0124102D01*
X0160128Y0123946D01*
X0160149Y0123789D01*
X0160167Y0123632D01*
X0160181Y0123474D01*
X0160191Y0123316D01*
X0160197Y0123158D01*
X0160199Y0123000D01*
X0160197Y0122842D01*
X0160191Y0122684D01*
X0160181Y0122526D01*
X0160167Y0122368D01*
X0160149Y0122211D01*
X0160128Y0122054D01*
X0160102Y0121898D01*
X0160072Y0121742D01*
X0160039Y0121587D01*
X0160001Y0121434D01*
X0159960Y0121281D01*
X0159915Y0121129D01*
X0159866Y0120978D01*
X0159813Y0120829D01*
X0159757Y0120681D01*
X0159697Y0120535D01*
X0159633Y0120390D01*
X0159565Y0120247D01*
X0159494Y0120105D01*
X0159420Y0119965D01*
X0159342Y0119828D01*
X0159260Y0119692D01*
X0159176Y0119558D01*
X0159087Y0119427D01*
X0158996Y0119298D01*
X0158901Y0119171D01*
X0158804Y0119046D01*
X0158703Y0118924D01*
X0158599Y0118805D01*
X0158492Y0118688D01*
X0158382Y0118574D01*
X0158269Y0118463D01*
X0158154Y0118354D01*
X0158036Y0118249D01*
X0157915Y0118147D01*
X0157792Y0118047D01*
X0157666Y0117951D01*
X0157538Y0117858D01*
X0157408Y0117768D01*
X0157275Y0117682D01*
X0157140Y0117598D01*
X0157004Y0117519D01*
X0156865Y0117442D01*
X0156724Y0117370D01*
X0156582Y0117300D01*
X0156438Y0117235D01*
X0156292Y0117173D01*
X0156145Y0117115D01*
X0155996Y0117060D01*
X0155846Y0117009D01*
X0155695Y0116962D01*
X0155543Y0116919D01*
X0155390Y0116880D01*
X0155235Y0116844D01*
X0155080Y0116813D01*
X0154924Y0116785D01*
X0154768Y0116761D01*
X0154611Y0116741D01*
X0154453Y0116725D01*
X0154296Y0116713D01*
X0154137Y0116705D01*
X0153979Y0116701D01*
X0153821Y0116701D01*
X0153663Y0116705D01*
X0153504Y0116713D01*
X0153347Y0116725D01*
X0153189Y0116741D01*
X0153032Y0116761D01*
X0152876Y0116785D01*
X0152720Y0116813D01*
X0152565Y0116844D01*
X0152410Y0116880D01*
X0152257Y0116919D01*
X0152105Y0116962D01*
X0151954Y0117009D01*
X0151804Y0117060D01*
X0151655Y0117115D01*
X0151508Y0117173D01*
X0151362Y0117235D01*
X0151218Y0117300D01*
X0151076Y0117370D01*
X0150935Y0117442D01*
X0150796Y0117519D01*
X0150660Y0117598D01*
X0150525Y0117682D01*
X0150392Y0117768D01*
X0150262Y0117858D01*
X0150134Y0117951D01*
X0150008Y0118047D01*
X0149885Y0118147D01*
X0149764Y0118249D01*
X0149646Y0118354D01*
X0149531Y0118463D01*
X0149418Y0118574D01*
X0149308Y0118688D01*
X0149201Y0118805D01*
X0149097Y0118924D01*
X0148996Y0119046D01*
X0148899Y0119171D01*
X0148804Y0119298D01*
X0148713Y0119427D01*
X0148624Y0119558D01*
X0148540Y0119692D01*
X0148458Y0119828D01*
X0148380Y0119965D01*
X0148306Y0120105D01*
X0148235Y0120247D01*
X0148167Y0120390D01*
X0148103Y0120535D01*
X0148043Y0120681D01*
X0147987Y0120829D01*
X0147934Y0120978D01*
X0147885Y0121129D01*
X0147840Y0121281D01*
X0147799Y0121434D01*
X0147761Y0121587D01*
X0147728Y0121742D01*
X0147698Y0121898D01*
X0147672Y0122054D01*
X0147651Y0122211D01*
X0147633Y0122368D01*
X0147619Y0122526D01*
X0147609Y0122684D01*
X0147603Y0122842D01*
X0147601Y0123000D01*
X0157502Y0053000D02*
X0157504Y0053160D01*
X0157510Y0053319D01*
X0157520Y0053478D01*
X0157534Y0053637D01*
X0157552Y0053796D01*
X0157573Y0053954D01*
X0157599Y0054111D01*
X0157629Y0054268D01*
X0157662Y0054424D01*
X0157700Y0054579D01*
X0157741Y0054733D01*
X0157786Y0054886D01*
X0157835Y0055038D01*
X0157888Y0055188D01*
X0157944Y0055337D01*
X0158004Y0055485D01*
X0158068Y0055631D01*
X0158136Y0055776D01*
X0158207Y0055919D01*
X0158281Y0056060D01*
X0158359Y0056199D01*
X0158441Y0056336D01*
X0158526Y0056471D01*
X0158614Y0056604D01*
X0158705Y0056735D01*
X0158800Y0056863D01*
X0158898Y0056989D01*
X0158999Y0057113D01*
X0159103Y0057233D01*
X0159210Y0057352D01*
X0159320Y0057467D01*
X0159433Y0057580D01*
X0159548Y0057690D01*
X0159667Y0057797D01*
X0159787Y0057901D01*
X0159911Y0058002D01*
X0160037Y0058100D01*
X0160165Y0058195D01*
X0160296Y0058286D01*
X0160429Y0058374D01*
X0160564Y0058459D01*
X0160701Y0058541D01*
X0160840Y0058619D01*
X0160981Y0058693D01*
X0161124Y0058764D01*
X0161269Y0058832D01*
X0161415Y0058896D01*
X0161563Y0058956D01*
X0161712Y0059012D01*
X0161862Y0059065D01*
X0162014Y0059114D01*
X0162167Y0059159D01*
X0162321Y0059200D01*
X0162476Y0059238D01*
X0162632Y0059271D01*
X0162789Y0059301D01*
X0162946Y0059327D01*
X0163104Y0059348D01*
X0163263Y0059366D01*
X0163422Y0059380D01*
X0163581Y0059390D01*
X0163740Y0059396D01*
X0163900Y0059398D01*
X0164060Y0059396D01*
X0164219Y0059390D01*
X0164378Y0059380D01*
X0164537Y0059366D01*
X0164696Y0059348D01*
X0164854Y0059327D01*
X0165011Y0059301D01*
X0165168Y0059271D01*
X0165324Y0059238D01*
X0165479Y0059200D01*
X0165633Y0059159D01*
X0165786Y0059114D01*
X0165938Y0059065D01*
X0166088Y0059012D01*
X0166237Y0058956D01*
X0166385Y0058896D01*
X0166531Y0058832D01*
X0166676Y0058764D01*
X0166819Y0058693D01*
X0166960Y0058619D01*
X0167099Y0058541D01*
X0167236Y0058459D01*
X0167371Y0058374D01*
X0167504Y0058286D01*
X0167635Y0058195D01*
X0167763Y0058100D01*
X0167889Y0058002D01*
X0168013Y0057901D01*
X0168133Y0057797D01*
X0168252Y0057690D01*
X0168367Y0057580D01*
X0168480Y0057467D01*
X0168590Y0057352D01*
X0168697Y0057233D01*
X0168801Y0057113D01*
X0168902Y0056989D01*
X0169000Y0056863D01*
X0169095Y0056735D01*
X0169186Y0056604D01*
X0169274Y0056471D01*
X0169359Y0056336D01*
X0169441Y0056199D01*
X0169519Y0056060D01*
X0169593Y0055919D01*
X0169664Y0055776D01*
X0169732Y0055631D01*
X0169796Y0055485D01*
X0169856Y0055337D01*
X0169912Y0055188D01*
X0169965Y0055038D01*
X0170014Y0054886D01*
X0170059Y0054733D01*
X0170100Y0054579D01*
X0170138Y0054424D01*
X0170171Y0054268D01*
X0170201Y0054111D01*
X0170227Y0053954D01*
X0170248Y0053796D01*
X0170266Y0053637D01*
X0170280Y0053478D01*
X0170290Y0053319D01*
X0170296Y0053160D01*
X0170298Y0053000D01*
X0170296Y0052840D01*
X0170290Y0052681D01*
X0170280Y0052522D01*
X0170266Y0052363D01*
X0170248Y0052204D01*
X0170227Y0052046D01*
X0170201Y0051889D01*
X0170171Y0051732D01*
X0170138Y0051576D01*
X0170100Y0051421D01*
X0170059Y0051267D01*
X0170014Y0051114D01*
X0169965Y0050962D01*
X0169912Y0050812D01*
X0169856Y0050663D01*
X0169796Y0050515D01*
X0169732Y0050369D01*
X0169664Y0050224D01*
X0169593Y0050081D01*
X0169519Y0049940D01*
X0169441Y0049801D01*
X0169359Y0049664D01*
X0169274Y0049529D01*
X0169186Y0049396D01*
X0169095Y0049265D01*
X0169000Y0049137D01*
X0168902Y0049011D01*
X0168801Y0048887D01*
X0168697Y0048767D01*
X0168590Y0048648D01*
X0168480Y0048533D01*
X0168367Y0048420D01*
X0168252Y0048310D01*
X0168133Y0048203D01*
X0168013Y0048099D01*
X0167889Y0047998D01*
X0167763Y0047900D01*
X0167635Y0047805D01*
X0167504Y0047714D01*
X0167371Y0047626D01*
X0167236Y0047541D01*
X0167099Y0047459D01*
X0166960Y0047381D01*
X0166819Y0047307D01*
X0166676Y0047236D01*
X0166531Y0047168D01*
X0166385Y0047104D01*
X0166237Y0047044D01*
X0166088Y0046988D01*
X0165938Y0046935D01*
X0165786Y0046886D01*
X0165633Y0046841D01*
X0165479Y0046800D01*
X0165324Y0046762D01*
X0165168Y0046729D01*
X0165011Y0046699D01*
X0164854Y0046673D01*
X0164696Y0046652D01*
X0164537Y0046634D01*
X0164378Y0046620D01*
X0164219Y0046610D01*
X0164060Y0046604D01*
X0163900Y0046602D01*
X0163740Y0046604D01*
X0163581Y0046610D01*
X0163422Y0046620D01*
X0163263Y0046634D01*
X0163104Y0046652D01*
X0162946Y0046673D01*
X0162789Y0046699D01*
X0162632Y0046729D01*
X0162476Y0046762D01*
X0162321Y0046800D01*
X0162167Y0046841D01*
X0162014Y0046886D01*
X0161862Y0046935D01*
X0161712Y0046988D01*
X0161563Y0047044D01*
X0161415Y0047104D01*
X0161269Y0047168D01*
X0161124Y0047236D01*
X0160981Y0047307D01*
X0160840Y0047381D01*
X0160701Y0047459D01*
X0160564Y0047541D01*
X0160429Y0047626D01*
X0160296Y0047714D01*
X0160165Y0047805D01*
X0160037Y0047900D01*
X0159911Y0047998D01*
X0159787Y0048099D01*
X0159667Y0048203D01*
X0159548Y0048310D01*
X0159433Y0048420D01*
X0159320Y0048533D01*
X0159210Y0048648D01*
X0159103Y0048767D01*
X0158999Y0048887D01*
X0158898Y0049011D01*
X0158800Y0049137D01*
X0158705Y0049265D01*
X0158614Y0049396D01*
X0158526Y0049529D01*
X0158441Y0049664D01*
X0158359Y0049801D01*
X0158281Y0049940D01*
X0158207Y0050081D01*
X0158136Y0050224D01*
X0158068Y0050369D01*
X0158004Y0050515D01*
X0157944Y0050663D01*
X0157888Y0050812D01*
X0157835Y0050962D01*
X0157786Y0051114D01*
X0157741Y0051267D01*
X0157700Y0051421D01*
X0157662Y0051576D01*
X0157629Y0051732D01*
X0157599Y0051889D01*
X0157573Y0052046D01*
X0157552Y0052204D01*
X0157534Y0052363D01*
X0157520Y0052522D01*
X0157510Y0052681D01*
X0157504Y0052840D01*
X0157502Y0053000D01*
X0185101Y0023000D02*
X0185103Y0023158D01*
X0185109Y0023316D01*
X0185119Y0023474D01*
X0185133Y0023632D01*
X0185151Y0023789D01*
X0185172Y0023946D01*
X0185198Y0024102D01*
X0185228Y0024258D01*
X0185261Y0024413D01*
X0185299Y0024566D01*
X0185340Y0024719D01*
X0185385Y0024871D01*
X0185434Y0025022D01*
X0185487Y0025171D01*
X0185543Y0025319D01*
X0185603Y0025465D01*
X0185667Y0025610D01*
X0185735Y0025753D01*
X0185806Y0025895D01*
X0185880Y0026035D01*
X0185958Y0026172D01*
X0186040Y0026308D01*
X0186124Y0026442D01*
X0186213Y0026573D01*
X0186304Y0026702D01*
X0186399Y0026829D01*
X0186496Y0026954D01*
X0186597Y0027076D01*
X0186701Y0027195D01*
X0186808Y0027312D01*
X0186918Y0027426D01*
X0187031Y0027537D01*
X0187146Y0027646D01*
X0187264Y0027751D01*
X0187385Y0027853D01*
X0187508Y0027953D01*
X0187634Y0028049D01*
X0187762Y0028142D01*
X0187892Y0028232D01*
X0188025Y0028318D01*
X0188160Y0028402D01*
X0188296Y0028481D01*
X0188435Y0028558D01*
X0188576Y0028630D01*
X0188718Y0028700D01*
X0188862Y0028765D01*
X0189008Y0028827D01*
X0189155Y0028885D01*
X0189304Y0028940D01*
X0189454Y0028991D01*
X0189605Y0029038D01*
X0189757Y0029081D01*
X0189910Y0029120D01*
X0190065Y0029156D01*
X0190220Y0029187D01*
X0190376Y0029215D01*
X0190532Y0029239D01*
X0190689Y0029259D01*
X0190847Y0029275D01*
X0191004Y0029287D01*
X0191163Y0029295D01*
X0191321Y0029299D01*
X0191479Y0029299D01*
X0191637Y0029295D01*
X0191796Y0029287D01*
X0191953Y0029275D01*
X0192111Y0029259D01*
X0192268Y0029239D01*
X0192424Y0029215D01*
X0192580Y0029187D01*
X0192735Y0029156D01*
X0192890Y0029120D01*
X0193043Y0029081D01*
X0193195Y0029038D01*
X0193346Y0028991D01*
X0193496Y0028940D01*
X0193645Y0028885D01*
X0193792Y0028827D01*
X0193938Y0028765D01*
X0194082Y0028700D01*
X0194224Y0028630D01*
X0194365Y0028558D01*
X0194504Y0028481D01*
X0194640Y0028402D01*
X0194775Y0028318D01*
X0194908Y0028232D01*
X0195038Y0028142D01*
X0195166Y0028049D01*
X0195292Y0027953D01*
X0195415Y0027853D01*
X0195536Y0027751D01*
X0195654Y0027646D01*
X0195769Y0027537D01*
X0195882Y0027426D01*
X0195992Y0027312D01*
X0196099Y0027195D01*
X0196203Y0027076D01*
X0196304Y0026954D01*
X0196401Y0026829D01*
X0196496Y0026702D01*
X0196587Y0026573D01*
X0196676Y0026442D01*
X0196760Y0026308D01*
X0196842Y0026172D01*
X0196920Y0026035D01*
X0196994Y0025895D01*
X0197065Y0025753D01*
X0197133Y0025610D01*
X0197197Y0025465D01*
X0197257Y0025319D01*
X0197313Y0025171D01*
X0197366Y0025022D01*
X0197415Y0024871D01*
X0197460Y0024719D01*
X0197501Y0024566D01*
X0197539Y0024413D01*
X0197572Y0024258D01*
X0197602Y0024102D01*
X0197628Y0023946D01*
X0197649Y0023789D01*
X0197667Y0023632D01*
X0197681Y0023474D01*
X0197691Y0023316D01*
X0197697Y0023158D01*
X0197699Y0023000D01*
X0197697Y0022842D01*
X0197691Y0022684D01*
X0197681Y0022526D01*
X0197667Y0022368D01*
X0197649Y0022211D01*
X0197628Y0022054D01*
X0197602Y0021898D01*
X0197572Y0021742D01*
X0197539Y0021587D01*
X0197501Y0021434D01*
X0197460Y0021281D01*
X0197415Y0021129D01*
X0197366Y0020978D01*
X0197313Y0020829D01*
X0197257Y0020681D01*
X0197197Y0020535D01*
X0197133Y0020390D01*
X0197065Y0020247D01*
X0196994Y0020105D01*
X0196920Y0019965D01*
X0196842Y0019828D01*
X0196760Y0019692D01*
X0196676Y0019558D01*
X0196587Y0019427D01*
X0196496Y0019298D01*
X0196401Y0019171D01*
X0196304Y0019046D01*
X0196203Y0018924D01*
X0196099Y0018805D01*
X0195992Y0018688D01*
X0195882Y0018574D01*
X0195769Y0018463D01*
X0195654Y0018354D01*
X0195536Y0018249D01*
X0195415Y0018147D01*
X0195292Y0018047D01*
X0195166Y0017951D01*
X0195038Y0017858D01*
X0194908Y0017768D01*
X0194775Y0017682D01*
X0194640Y0017598D01*
X0194504Y0017519D01*
X0194365Y0017442D01*
X0194224Y0017370D01*
X0194082Y0017300D01*
X0193938Y0017235D01*
X0193792Y0017173D01*
X0193645Y0017115D01*
X0193496Y0017060D01*
X0193346Y0017009D01*
X0193195Y0016962D01*
X0193043Y0016919D01*
X0192890Y0016880D01*
X0192735Y0016844D01*
X0192580Y0016813D01*
X0192424Y0016785D01*
X0192268Y0016761D01*
X0192111Y0016741D01*
X0191953Y0016725D01*
X0191796Y0016713D01*
X0191637Y0016705D01*
X0191479Y0016701D01*
X0191321Y0016701D01*
X0191163Y0016705D01*
X0191004Y0016713D01*
X0190847Y0016725D01*
X0190689Y0016741D01*
X0190532Y0016761D01*
X0190376Y0016785D01*
X0190220Y0016813D01*
X0190065Y0016844D01*
X0189910Y0016880D01*
X0189757Y0016919D01*
X0189605Y0016962D01*
X0189454Y0017009D01*
X0189304Y0017060D01*
X0189155Y0017115D01*
X0189008Y0017173D01*
X0188862Y0017235D01*
X0188718Y0017300D01*
X0188576Y0017370D01*
X0188435Y0017442D01*
X0188296Y0017519D01*
X0188160Y0017598D01*
X0188025Y0017682D01*
X0187892Y0017768D01*
X0187762Y0017858D01*
X0187634Y0017951D01*
X0187508Y0018047D01*
X0187385Y0018147D01*
X0187264Y0018249D01*
X0187146Y0018354D01*
X0187031Y0018463D01*
X0186918Y0018574D01*
X0186808Y0018688D01*
X0186701Y0018805D01*
X0186597Y0018924D01*
X0186496Y0019046D01*
X0186399Y0019171D01*
X0186304Y0019298D01*
X0186213Y0019427D01*
X0186124Y0019558D01*
X0186040Y0019692D01*
X0185958Y0019828D01*
X0185880Y0019965D01*
X0185806Y0020105D01*
X0185735Y0020247D01*
X0185667Y0020390D01*
X0185603Y0020535D01*
X0185543Y0020681D01*
X0185487Y0020829D01*
X0185434Y0020978D01*
X0185385Y0021129D01*
X0185340Y0021281D01*
X0185299Y0021434D01*
X0185261Y0021587D01*
X0185228Y0021742D01*
X0185198Y0021898D01*
X0185172Y0022054D01*
X0185151Y0022211D01*
X0185133Y0022368D01*
X0185119Y0022526D01*
X0185109Y0022684D01*
X0185103Y0022842D01*
X0185101Y0023000D01*
X0042601Y0123000D02*
X0042603Y0123158D01*
X0042609Y0123316D01*
X0042619Y0123474D01*
X0042633Y0123632D01*
X0042651Y0123789D01*
X0042672Y0123946D01*
X0042698Y0124102D01*
X0042728Y0124258D01*
X0042761Y0124413D01*
X0042799Y0124566D01*
X0042840Y0124719D01*
X0042885Y0124871D01*
X0042934Y0125022D01*
X0042987Y0125171D01*
X0043043Y0125319D01*
X0043103Y0125465D01*
X0043167Y0125610D01*
X0043235Y0125753D01*
X0043306Y0125895D01*
X0043380Y0126035D01*
X0043458Y0126172D01*
X0043540Y0126308D01*
X0043624Y0126442D01*
X0043713Y0126573D01*
X0043804Y0126702D01*
X0043899Y0126829D01*
X0043996Y0126954D01*
X0044097Y0127076D01*
X0044201Y0127195D01*
X0044308Y0127312D01*
X0044418Y0127426D01*
X0044531Y0127537D01*
X0044646Y0127646D01*
X0044764Y0127751D01*
X0044885Y0127853D01*
X0045008Y0127953D01*
X0045134Y0128049D01*
X0045262Y0128142D01*
X0045392Y0128232D01*
X0045525Y0128318D01*
X0045660Y0128402D01*
X0045796Y0128481D01*
X0045935Y0128558D01*
X0046076Y0128630D01*
X0046218Y0128700D01*
X0046362Y0128765D01*
X0046508Y0128827D01*
X0046655Y0128885D01*
X0046804Y0128940D01*
X0046954Y0128991D01*
X0047105Y0129038D01*
X0047257Y0129081D01*
X0047410Y0129120D01*
X0047565Y0129156D01*
X0047720Y0129187D01*
X0047876Y0129215D01*
X0048032Y0129239D01*
X0048189Y0129259D01*
X0048347Y0129275D01*
X0048504Y0129287D01*
X0048663Y0129295D01*
X0048821Y0129299D01*
X0048979Y0129299D01*
X0049137Y0129295D01*
X0049296Y0129287D01*
X0049453Y0129275D01*
X0049611Y0129259D01*
X0049768Y0129239D01*
X0049924Y0129215D01*
X0050080Y0129187D01*
X0050235Y0129156D01*
X0050390Y0129120D01*
X0050543Y0129081D01*
X0050695Y0129038D01*
X0050846Y0128991D01*
X0050996Y0128940D01*
X0051145Y0128885D01*
X0051292Y0128827D01*
X0051438Y0128765D01*
X0051582Y0128700D01*
X0051724Y0128630D01*
X0051865Y0128558D01*
X0052004Y0128481D01*
X0052140Y0128402D01*
X0052275Y0128318D01*
X0052408Y0128232D01*
X0052538Y0128142D01*
X0052666Y0128049D01*
X0052792Y0127953D01*
X0052915Y0127853D01*
X0053036Y0127751D01*
X0053154Y0127646D01*
X0053269Y0127537D01*
X0053382Y0127426D01*
X0053492Y0127312D01*
X0053599Y0127195D01*
X0053703Y0127076D01*
X0053804Y0126954D01*
X0053901Y0126829D01*
X0053996Y0126702D01*
X0054087Y0126573D01*
X0054176Y0126442D01*
X0054260Y0126308D01*
X0054342Y0126172D01*
X0054420Y0126035D01*
X0054494Y0125895D01*
X0054565Y0125753D01*
X0054633Y0125610D01*
X0054697Y0125465D01*
X0054757Y0125319D01*
X0054813Y0125171D01*
X0054866Y0125022D01*
X0054915Y0124871D01*
X0054960Y0124719D01*
X0055001Y0124566D01*
X0055039Y0124413D01*
X0055072Y0124258D01*
X0055102Y0124102D01*
X0055128Y0123946D01*
X0055149Y0123789D01*
X0055167Y0123632D01*
X0055181Y0123474D01*
X0055191Y0123316D01*
X0055197Y0123158D01*
X0055199Y0123000D01*
X0055197Y0122842D01*
X0055191Y0122684D01*
X0055181Y0122526D01*
X0055167Y0122368D01*
X0055149Y0122211D01*
X0055128Y0122054D01*
X0055102Y0121898D01*
X0055072Y0121742D01*
X0055039Y0121587D01*
X0055001Y0121434D01*
X0054960Y0121281D01*
X0054915Y0121129D01*
X0054866Y0120978D01*
X0054813Y0120829D01*
X0054757Y0120681D01*
X0054697Y0120535D01*
X0054633Y0120390D01*
X0054565Y0120247D01*
X0054494Y0120105D01*
X0054420Y0119965D01*
X0054342Y0119828D01*
X0054260Y0119692D01*
X0054176Y0119558D01*
X0054087Y0119427D01*
X0053996Y0119298D01*
X0053901Y0119171D01*
X0053804Y0119046D01*
X0053703Y0118924D01*
X0053599Y0118805D01*
X0053492Y0118688D01*
X0053382Y0118574D01*
X0053269Y0118463D01*
X0053154Y0118354D01*
X0053036Y0118249D01*
X0052915Y0118147D01*
X0052792Y0118047D01*
X0052666Y0117951D01*
X0052538Y0117858D01*
X0052408Y0117768D01*
X0052275Y0117682D01*
X0052140Y0117598D01*
X0052004Y0117519D01*
X0051865Y0117442D01*
X0051724Y0117370D01*
X0051582Y0117300D01*
X0051438Y0117235D01*
X0051292Y0117173D01*
X0051145Y0117115D01*
X0050996Y0117060D01*
X0050846Y0117009D01*
X0050695Y0116962D01*
X0050543Y0116919D01*
X0050390Y0116880D01*
X0050235Y0116844D01*
X0050080Y0116813D01*
X0049924Y0116785D01*
X0049768Y0116761D01*
X0049611Y0116741D01*
X0049453Y0116725D01*
X0049296Y0116713D01*
X0049137Y0116705D01*
X0048979Y0116701D01*
X0048821Y0116701D01*
X0048663Y0116705D01*
X0048504Y0116713D01*
X0048347Y0116725D01*
X0048189Y0116741D01*
X0048032Y0116761D01*
X0047876Y0116785D01*
X0047720Y0116813D01*
X0047565Y0116844D01*
X0047410Y0116880D01*
X0047257Y0116919D01*
X0047105Y0116962D01*
X0046954Y0117009D01*
X0046804Y0117060D01*
X0046655Y0117115D01*
X0046508Y0117173D01*
X0046362Y0117235D01*
X0046218Y0117300D01*
X0046076Y0117370D01*
X0045935Y0117442D01*
X0045796Y0117519D01*
X0045660Y0117598D01*
X0045525Y0117682D01*
X0045392Y0117768D01*
X0045262Y0117858D01*
X0045134Y0117951D01*
X0045008Y0118047D01*
X0044885Y0118147D01*
X0044764Y0118249D01*
X0044646Y0118354D01*
X0044531Y0118463D01*
X0044418Y0118574D01*
X0044308Y0118688D01*
X0044201Y0118805D01*
X0044097Y0118924D01*
X0043996Y0119046D01*
X0043899Y0119171D01*
X0043804Y0119298D01*
X0043713Y0119427D01*
X0043624Y0119558D01*
X0043540Y0119692D01*
X0043458Y0119828D01*
X0043380Y0119965D01*
X0043306Y0120105D01*
X0043235Y0120247D01*
X0043167Y0120390D01*
X0043103Y0120535D01*
X0043043Y0120681D01*
X0042987Y0120829D01*
X0042934Y0120978D01*
X0042885Y0121129D01*
X0042840Y0121281D01*
X0042799Y0121434D01*
X0042761Y0121587D01*
X0042728Y0121742D01*
X0042698Y0121898D01*
X0042672Y0122054D01*
X0042651Y0122211D01*
X0042633Y0122368D01*
X0042619Y0122526D01*
X0042609Y0122684D01*
X0042603Y0122842D01*
X0042601Y0123000D01*
X0042601Y0253000D02*
X0042603Y0253158D01*
X0042609Y0253316D01*
X0042619Y0253474D01*
X0042633Y0253632D01*
X0042651Y0253789D01*
X0042672Y0253946D01*
X0042698Y0254102D01*
X0042728Y0254258D01*
X0042761Y0254413D01*
X0042799Y0254566D01*
X0042840Y0254719D01*
X0042885Y0254871D01*
X0042934Y0255022D01*
X0042987Y0255171D01*
X0043043Y0255319D01*
X0043103Y0255465D01*
X0043167Y0255610D01*
X0043235Y0255753D01*
X0043306Y0255895D01*
X0043380Y0256035D01*
X0043458Y0256172D01*
X0043540Y0256308D01*
X0043624Y0256442D01*
X0043713Y0256573D01*
X0043804Y0256702D01*
X0043899Y0256829D01*
X0043996Y0256954D01*
X0044097Y0257076D01*
X0044201Y0257195D01*
X0044308Y0257312D01*
X0044418Y0257426D01*
X0044531Y0257537D01*
X0044646Y0257646D01*
X0044764Y0257751D01*
X0044885Y0257853D01*
X0045008Y0257953D01*
X0045134Y0258049D01*
X0045262Y0258142D01*
X0045392Y0258232D01*
X0045525Y0258318D01*
X0045660Y0258402D01*
X0045796Y0258481D01*
X0045935Y0258558D01*
X0046076Y0258630D01*
X0046218Y0258700D01*
X0046362Y0258765D01*
X0046508Y0258827D01*
X0046655Y0258885D01*
X0046804Y0258940D01*
X0046954Y0258991D01*
X0047105Y0259038D01*
X0047257Y0259081D01*
X0047410Y0259120D01*
X0047565Y0259156D01*
X0047720Y0259187D01*
X0047876Y0259215D01*
X0048032Y0259239D01*
X0048189Y0259259D01*
X0048347Y0259275D01*
X0048504Y0259287D01*
X0048663Y0259295D01*
X0048821Y0259299D01*
X0048979Y0259299D01*
X0049137Y0259295D01*
X0049296Y0259287D01*
X0049453Y0259275D01*
X0049611Y0259259D01*
X0049768Y0259239D01*
X0049924Y0259215D01*
X0050080Y0259187D01*
X0050235Y0259156D01*
X0050390Y0259120D01*
X0050543Y0259081D01*
X0050695Y0259038D01*
X0050846Y0258991D01*
X0050996Y0258940D01*
X0051145Y0258885D01*
X0051292Y0258827D01*
X0051438Y0258765D01*
X0051582Y0258700D01*
X0051724Y0258630D01*
X0051865Y0258558D01*
X0052004Y0258481D01*
X0052140Y0258402D01*
X0052275Y0258318D01*
X0052408Y0258232D01*
X0052538Y0258142D01*
X0052666Y0258049D01*
X0052792Y0257953D01*
X0052915Y0257853D01*
X0053036Y0257751D01*
X0053154Y0257646D01*
X0053269Y0257537D01*
X0053382Y0257426D01*
X0053492Y0257312D01*
X0053599Y0257195D01*
X0053703Y0257076D01*
X0053804Y0256954D01*
X0053901Y0256829D01*
X0053996Y0256702D01*
X0054087Y0256573D01*
X0054176Y0256442D01*
X0054260Y0256308D01*
X0054342Y0256172D01*
X0054420Y0256035D01*
X0054494Y0255895D01*
X0054565Y0255753D01*
X0054633Y0255610D01*
X0054697Y0255465D01*
X0054757Y0255319D01*
X0054813Y0255171D01*
X0054866Y0255022D01*
X0054915Y0254871D01*
X0054960Y0254719D01*
X0055001Y0254566D01*
X0055039Y0254413D01*
X0055072Y0254258D01*
X0055102Y0254102D01*
X0055128Y0253946D01*
X0055149Y0253789D01*
X0055167Y0253632D01*
X0055181Y0253474D01*
X0055191Y0253316D01*
X0055197Y0253158D01*
X0055199Y0253000D01*
X0055197Y0252842D01*
X0055191Y0252684D01*
X0055181Y0252526D01*
X0055167Y0252368D01*
X0055149Y0252211D01*
X0055128Y0252054D01*
X0055102Y0251898D01*
X0055072Y0251742D01*
X0055039Y0251587D01*
X0055001Y0251434D01*
X0054960Y0251281D01*
X0054915Y0251129D01*
X0054866Y0250978D01*
X0054813Y0250829D01*
X0054757Y0250681D01*
X0054697Y0250535D01*
X0054633Y0250390D01*
X0054565Y0250247D01*
X0054494Y0250105D01*
X0054420Y0249965D01*
X0054342Y0249828D01*
X0054260Y0249692D01*
X0054176Y0249558D01*
X0054087Y0249427D01*
X0053996Y0249298D01*
X0053901Y0249171D01*
X0053804Y0249046D01*
X0053703Y0248924D01*
X0053599Y0248805D01*
X0053492Y0248688D01*
X0053382Y0248574D01*
X0053269Y0248463D01*
X0053154Y0248354D01*
X0053036Y0248249D01*
X0052915Y0248147D01*
X0052792Y0248047D01*
X0052666Y0247951D01*
X0052538Y0247858D01*
X0052408Y0247768D01*
X0052275Y0247682D01*
X0052140Y0247598D01*
X0052004Y0247519D01*
X0051865Y0247442D01*
X0051724Y0247370D01*
X0051582Y0247300D01*
X0051438Y0247235D01*
X0051292Y0247173D01*
X0051145Y0247115D01*
X0050996Y0247060D01*
X0050846Y0247009D01*
X0050695Y0246962D01*
X0050543Y0246919D01*
X0050390Y0246880D01*
X0050235Y0246844D01*
X0050080Y0246813D01*
X0049924Y0246785D01*
X0049768Y0246761D01*
X0049611Y0246741D01*
X0049453Y0246725D01*
X0049296Y0246713D01*
X0049137Y0246705D01*
X0048979Y0246701D01*
X0048821Y0246701D01*
X0048663Y0246705D01*
X0048504Y0246713D01*
X0048347Y0246725D01*
X0048189Y0246741D01*
X0048032Y0246761D01*
X0047876Y0246785D01*
X0047720Y0246813D01*
X0047565Y0246844D01*
X0047410Y0246880D01*
X0047257Y0246919D01*
X0047105Y0246962D01*
X0046954Y0247009D01*
X0046804Y0247060D01*
X0046655Y0247115D01*
X0046508Y0247173D01*
X0046362Y0247235D01*
X0046218Y0247300D01*
X0046076Y0247370D01*
X0045935Y0247442D01*
X0045796Y0247519D01*
X0045660Y0247598D01*
X0045525Y0247682D01*
X0045392Y0247768D01*
X0045262Y0247858D01*
X0045134Y0247951D01*
X0045008Y0248047D01*
X0044885Y0248147D01*
X0044764Y0248249D01*
X0044646Y0248354D01*
X0044531Y0248463D01*
X0044418Y0248574D01*
X0044308Y0248688D01*
X0044201Y0248805D01*
X0044097Y0248924D01*
X0043996Y0249046D01*
X0043899Y0249171D01*
X0043804Y0249298D01*
X0043713Y0249427D01*
X0043624Y0249558D01*
X0043540Y0249692D01*
X0043458Y0249828D01*
X0043380Y0249965D01*
X0043306Y0250105D01*
X0043235Y0250247D01*
X0043167Y0250390D01*
X0043103Y0250535D01*
X0043043Y0250681D01*
X0042987Y0250829D01*
X0042934Y0250978D01*
X0042885Y0251129D01*
X0042840Y0251281D01*
X0042799Y0251434D01*
X0042761Y0251587D01*
X0042728Y0251742D01*
X0042698Y0251898D01*
X0042672Y0252054D01*
X0042651Y0252211D01*
X0042633Y0252368D01*
X0042619Y0252526D01*
X0042609Y0252684D01*
X0042603Y0252842D01*
X0042601Y0253000D01*
X0005101Y0278000D02*
X0005103Y0278158D01*
X0005109Y0278316D01*
X0005119Y0278474D01*
X0005133Y0278632D01*
X0005151Y0278789D01*
X0005172Y0278946D01*
X0005198Y0279102D01*
X0005228Y0279258D01*
X0005261Y0279413D01*
X0005299Y0279566D01*
X0005340Y0279719D01*
X0005385Y0279871D01*
X0005434Y0280022D01*
X0005487Y0280171D01*
X0005543Y0280319D01*
X0005603Y0280465D01*
X0005667Y0280610D01*
X0005735Y0280753D01*
X0005806Y0280895D01*
X0005880Y0281035D01*
X0005958Y0281172D01*
X0006040Y0281308D01*
X0006124Y0281442D01*
X0006213Y0281573D01*
X0006304Y0281702D01*
X0006399Y0281829D01*
X0006496Y0281954D01*
X0006597Y0282076D01*
X0006701Y0282195D01*
X0006808Y0282312D01*
X0006918Y0282426D01*
X0007031Y0282537D01*
X0007146Y0282646D01*
X0007264Y0282751D01*
X0007385Y0282853D01*
X0007508Y0282953D01*
X0007634Y0283049D01*
X0007762Y0283142D01*
X0007892Y0283232D01*
X0008025Y0283318D01*
X0008160Y0283402D01*
X0008296Y0283481D01*
X0008435Y0283558D01*
X0008576Y0283630D01*
X0008718Y0283700D01*
X0008862Y0283765D01*
X0009008Y0283827D01*
X0009155Y0283885D01*
X0009304Y0283940D01*
X0009454Y0283991D01*
X0009605Y0284038D01*
X0009757Y0284081D01*
X0009910Y0284120D01*
X0010065Y0284156D01*
X0010220Y0284187D01*
X0010376Y0284215D01*
X0010532Y0284239D01*
X0010689Y0284259D01*
X0010847Y0284275D01*
X0011004Y0284287D01*
X0011163Y0284295D01*
X0011321Y0284299D01*
X0011479Y0284299D01*
X0011637Y0284295D01*
X0011796Y0284287D01*
X0011953Y0284275D01*
X0012111Y0284259D01*
X0012268Y0284239D01*
X0012424Y0284215D01*
X0012580Y0284187D01*
X0012735Y0284156D01*
X0012890Y0284120D01*
X0013043Y0284081D01*
X0013195Y0284038D01*
X0013346Y0283991D01*
X0013496Y0283940D01*
X0013645Y0283885D01*
X0013792Y0283827D01*
X0013938Y0283765D01*
X0014082Y0283700D01*
X0014224Y0283630D01*
X0014365Y0283558D01*
X0014504Y0283481D01*
X0014640Y0283402D01*
X0014775Y0283318D01*
X0014908Y0283232D01*
X0015038Y0283142D01*
X0015166Y0283049D01*
X0015292Y0282953D01*
X0015415Y0282853D01*
X0015536Y0282751D01*
X0015654Y0282646D01*
X0015769Y0282537D01*
X0015882Y0282426D01*
X0015992Y0282312D01*
X0016099Y0282195D01*
X0016203Y0282076D01*
X0016304Y0281954D01*
X0016401Y0281829D01*
X0016496Y0281702D01*
X0016587Y0281573D01*
X0016676Y0281442D01*
X0016760Y0281308D01*
X0016842Y0281172D01*
X0016920Y0281035D01*
X0016994Y0280895D01*
X0017065Y0280753D01*
X0017133Y0280610D01*
X0017197Y0280465D01*
X0017257Y0280319D01*
X0017313Y0280171D01*
X0017366Y0280022D01*
X0017415Y0279871D01*
X0017460Y0279719D01*
X0017501Y0279566D01*
X0017539Y0279413D01*
X0017572Y0279258D01*
X0017602Y0279102D01*
X0017628Y0278946D01*
X0017649Y0278789D01*
X0017667Y0278632D01*
X0017681Y0278474D01*
X0017691Y0278316D01*
X0017697Y0278158D01*
X0017699Y0278000D01*
X0017697Y0277842D01*
X0017691Y0277684D01*
X0017681Y0277526D01*
X0017667Y0277368D01*
X0017649Y0277211D01*
X0017628Y0277054D01*
X0017602Y0276898D01*
X0017572Y0276742D01*
X0017539Y0276587D01*
X0017501Y0276434D01*
X0017460Y0276281D01*
X0017415Y0276129D01*
X0017366Y0275978D01*
X0017313Y0275829D01*
X0017257Y0275681D01*
X0017197Y0275535D01*
X0017133Y0275390D01*
X0017065Y0275247D01*
X0016994Y0275105D01*
X0016920Y0274965D01*
X0016842Y0274828D01*
X0016760Y0274692D01*
X0016676Y0274558D01*
X0016587Y0274427D01*
X0016496Y0274298D01*
X0016401Y0274171D01*
X0016304Y0274046D01*
X0016203Y0273924D01*
X0016099Y0273805D01*
X0015992Y0273688D01*
X0015882Y0273574D01*
X0015769Y0273463D01*
X0015654Y0273354D01*
X0015536Y0273249D01*
X0015415Y0273147D01*
X0015292Y0273047D01*
X0015166Y0272951D01*
X0015038Y0272858D01*
X0014908Y0272768D01*
X0014775Y0272682D01*
X0014640Y0272598D01*
X0014504Y0272519D01*
X0014365Y0272442D01*
X0014224Y0272370D01*
X0014082Y0272300D01*
X0013938Y0272235D01*
X0013792Y0272173D01*
X0013645Y0272115D01*
X0013496Y0272060D01*
X0013346Y0272009D01*
X0013195Y0271962D01*
X0013043Y0271919D01*
X0012890Y0271880D01*
X0012735Y0271844D01*
X0012580Y0271813D01*
X0012424Y0271785D01*
X0012268Y0271761D01*
X0012111Y0271741D01*
X0011953Y0271725D01*
X0011796Y0271713D01*
X0011637Y0271705D01*
X0011479Y0271701D01*
X0011321Y0271701D01*
X0011163Y0271705D01*
X0011004Y0271713D01*
X0010847Y0271725D01*
X0010689Y0271741D01*
X0010532Y0271761D01*
X0010376Y0271785D01*
X0010220Y0271813D01*
X0010065Y0271844D01*
X0009910Y0271880D01*
X0009757Y0271919D01*
X0009605Y0271962D01*
X0009454Y0272009D01*
X0009304Y0272060D01*
X0009155Y0272115D01*
X0009008Y0272173D01*
X0008862Y0272235D01*
X0008718Y0272300D01*
X0008576Y0272370D01*
X0008435Y0272442D01*
X0008296Y0272519D01*
X0008160Y0272598D01*
X0008025Y0272682D01*
X0007892Y0272768D01*
X0007762Y0272858D01*
X0007634Y0272951D01*
X0007508Y0273047D01*
X0007385Y0273147D01*
X0007264Y0273249D01*
X0007146Y0273354D01*
X0007031Y0273463D01*
X0006918Y0273574D01*
X0006808Y0273688D01*
X0006701Y0273805D01*
X0006597Y0273924D01*
X0006496Y0274046D01*
X0006399Y0274171D01*
X0006304Y0274298D01*
X0006213Y0274427D01*
X0006124Y0274558D01*
X0006040Y0274692D01*
X0005958Y0274828D01*
X0005880Y0274965D01*
X0005806Y0275105D01*
X0005735Y0275247D01*
X0005667Y0275390D01*
X0005603Y0275535D01*
X0005543Y0275681D01*
X0005487Y0275829D01*
X0005434Y0275978D01*
X0005385Y0276129D01*
X0005340Y0276281D01*
X0005299Y0276434D01*
X0005261Y0276587D01*
X0005228Y0276742D01*
X0005198Y0276898D01*
X0005172Y0277054D01*
X0005151Y0277211D01*
X0005133Y0277368D01*
X0005119Y0277526D01*
X0005109Y0277684D01*
X0005103Y0277842D01*
X0005101Y0278000D01*
X0147601Y0253000D02*
X0147603Y0253158D01*
X0147609Y0253316D01*
X0147619Y0253474D01*
X0147633Y0253632D01*
X0147651Y0253789D01*
X0147672Y0253946D01*
X0147698Y0254102D01*
X0147728Y0254258D01*
X0147761Y0254413D01*
X0147799Y0254566D01*
X0147840Y0254719D01*
X0147885Y0254871D01*
X0147934Y0255022D01*
X0147987Y0255171D01*
X0148043Y0255319D01*
X0148103Y0255465D01*
X0148167Y0255610D01*
X0148235Y0255753D01*
X0148306Y0255895D01*
X0148380Y0256035D01*
X0148458Y0256172D01*
X0148540Y0256308D01*
X0148624Y0256442D01*
X0148713Y0256573D01*
X0148804Y0256702D01*
X0148899Y0256829D01*
X0148996Y0256954D01*
X0149097Y0257076D01*
X0149201Y0257195D01*
X0149308Y0257312D01*
X0149418Y0257426D01*
X0149531Y0257537D01*
X0149646Y0257646D01*
X0149764Y0257751D01*
X0149885Y0257853D01*
X0150008Y0257953D01*
X0150134Y0258049D01*
X0150262Y0258142D01*
X0150392Y0258232D01*
X0150525Y0258318D01*
X0150660Y0258402D01*
X0150796Y0258481D01*
X0150935Y0258558D01*
X0151076Y0258630D01*
X0151218Y0258700D01*
X0151362Y0258765D01*
X0151508Y0258827D01*
X0151655Y0258885D01*
X0151804Y0258940D01*
X0151954Y0258991D01*
X0152105Y0259038D01*
X0152257Y0259081D01*
X0152410Y0259120D01*
X0152565Y0259156D01*
X0152720Y0259187D01*
X0152876Y0259215D01*
X0153032Y0259239D01*
X0153189Y0259259D01*
X0153347Y0259275D01*
X0153504Y0259287D01*
X0153663Y0259295D01*
X0153821Y0259299D01*
X0153979Y0259299D01*
X0154137Y0259295D01*
X0154296Y0259287D01*
X0154453Y0259275D01*
X0154611Y0259259D01*
X0154768Y0259239D01*
X0154924Y0259215D01*
X0155080Y0259187D01*
X0155235Y0259156D01*
X0155390Y0259120D01*
X0155543Y0259081D01*
X0155695Y0259038D01*
X0155846Y0258991D01*
X0155996Y0258940D01*
X0156145Y0258885D01*
X0156292Y0258827D01*
X0156438Y0258765D01*
X0156582Y0258700D01*
X0156724Y0258630D01*
X0156865Y0258558D01*
X0157004Y0258481D01*
X0157140Y0258402D01*
X0157275Y0258318D01*
X0157408Y0258232D01*
X0157538Y0258142D01*
X0157666Y0258049D01*
X0157792Y0257953D01*
X0157915Y0257853D01*
X0158036Y0257751D01*
X0158154Y0257646D01*
X0158269Y0257537D01*
X0158382Y0257426D01*
X0158492Y0257312D01*
X0158599Y0257195D01*
X0158703Y0257076D01*
X0158804Y0256954D01*
X0158901Y0256829D01*
X0158996Y0256702D01*
X0159087Y0256573D01*
X0159176Y0256442D01*
X0159260Y0256308D01*
X0159342Y0256172D01*
X0159420Y0256035D01*
X0159494Y0255895D01*
X0159565Y0255753D01*
X0159633Y0255610D01*
X0159697Y0255465D01*
X0159757Y0255319D01*
X0159813Y0255171D01*
X0159866Y0255022D01*
X0159915Y0254871D01*
X0159960Y0254719D01*
X0160001Y0254566D01*
X0160039Y0254413D01*
X0160072Y0254258D01*
X0160102Y0254102D01*
X0160128Y0253946D01*
X0160149Y0253789D01*
X0160167Y0253632D01*
X0160181Y0253474D01*
X0160191Y0253316D01*
X0160197Y0253158D01*
X0160199Y0253000D01*
X0160197Y0252842D01*
X0160191Y0252684D01*
X0160181Y0252526D01*
X0160167Y0252368D01*
X0160149Y0252211D01*
X0160128Y0252054D01*
X0160102Y0251898D01*
X0160072Y0251742D01*
X0160039Y0251587D01*
X0160001Y0251434D01*
X0159960Y0251281D01*
X0159915Y0251129D01*
X0159866Y0250978D01*
X0159813Y0250829D01*
X0159757Y0250681D01*
X0159697Y0250535D01*
X0159633Y0250390D01*
X0159565Y0250247D01*
X0159494Y0250105D01*
X0159420Y0249965D01*
X0159342Y0249828D01*
X0159260Y0249692D01*
X0159176Y0249558D01*
X0159087Y0249427D01*
X0158996Y0249298D01*
X0158901Y0249171D01*
X0158804Y0249046D01*
X0158703Y0248924D01*
X0158599Y0248805D01*
X0158492Y0248688D01*
X0158382Y0248574D01*
X0158269Y0248463D01*
X0158154Y0248354D01*
X0158036Y0248249D01*
X0157915Y0248147D01*
X0157792Y0248047D01*
X0157666Y0247951D01*
X0157538Y0247858D01*
X0157408Y0247768D01*
X0157275Y0247682D01*
X0157140Y0247598D01*
X0157004Y0247519D01*
X0156865Y0247442D01*
X0156724Y0247370D01*
X0156582Y0247300D01*
X0156438Y0247235D01*
X0156292Y0247173D01*
X0156145Y0247115D01*
X0155996Y0247060D01*
X0155846Y0247009D01*
X0155695Y0246962D01*
X0155543Y0246919D01*
X0155390Y0246880D01*
X0155235Y0246844D01*
X0155080Y0246813D01*
X0154924Y0246785D01*
X0154768Y0246761D01*
X0154611Y0246741D01*
X0154453Y0246725D01*
X0154296Y0246713D01*
X0154137Y0246705D01*
X0153979Y0246701D01*
X0153821Y0246701D01*
X0153663Y0246705D01*
X0153504Y0246713D01*
X0153347Y0246725D01*
X0153189Y0246741D01*
X0153032Y0246761D01*
X0152876Y0246785D01*
X0152720Y0246813D01*
X0152565Y0246844D01*
X0152410Y0246880D01*
X0152257Y0246919D01*
X0152105Y0246962D01*
X0151954Y0247009D01*
X0151804Y0247060D01*
X0151655Y0247115D01*
X0151508Y0247173D01*
X0151362Y0247235D01*
X0151218Y0247300D01*
X0151076Y0247370D01*
X0150935Y0247442D01*
X0150796Y0247519D01*
X0150660Y0247598D01*
X0150525Y0247682D01*
X0150392Y0247768D01*
X0150262Y0247858D01*
X0150134Y0247951D01*
X0150008Y0248047D01*
X0149885Y0248147D01*
X0149764Y0248249D01*
X0149646Y0248354D01*
X0149531Y0248463D01*
X0149418Y0248574D01*
X0149308Y0248688D01*
X0149201Y0248805D01*
X0149097Y0248924D01*
X0148996Y0249046D01*
X0148899Y0249171D01*
X0148804Y0249298D01*
X0148713Y0249427D01*
X0148624Y0249558D01*
X0148540Y0249692D01*
X0148458Y0249828D01*
X0148380Y0249965D01*
X0148306Y0250105D01*
X0148235Y0250247D01*
X0148167Y0250390D01*
X0148103Y0250535D01*
X0148043Y0250681D01*
X0147987Y0250829D01*
X0147934Y0250978D01*
X0147885Y0251129D01*
X0147840Y0251281D01*
X0147799Y0251434D01*
X0147761Y0251587D01*
X0147728Y0251742D01*
X0147698Y0251898D01*
X0147672Y0252054D01*
X0147651Y0252211D01*
X0147633Y0252368D01*
X0147619Y0252526D01*
X0147609Y0252684D01*
X0147603Y0252842D01*
X0147601Y0253000D01*
X0185101Y0278000D02*
X0185103Y0278158D01*
X0185109Y0278316D01*
X0185119Y0278474D01*
X0185133Y0278632D01*
X0185151Y0278789D01*
X0185172Y0278946D01*
X0185198Y0279102D01*
X0185228Y0279258D01*
X0185261Y0279413D01*
X0185299Y0279566D01*
X0185340Y0279719D01*
X0185385Y0279871D01*
X0185434Y0280022D01*
X0185487Y0280171D01*
X0185543Y0280319D01*
X0185603Y0280465D01*
X0185667Y0280610D01*
X0185735Y0280753D01*
X0185806Y0280895D01*
X0185880Y0281035D01*
X0185958Y0281172D01*
X0186040Y0281308D01*
X0186124Y0281442D01*
X0186213Y0281573D01*
X0186304Y0281702D01*
X0186399Y0281829D01*
X0186496Y0281954D01*
X0186597Y0282076D01*
X0186701Y0282195D01*
X0186808Y0282312D01*
X0186918Y0282426D01*
X0187031Y0282537D01*
X0187146Y0282646D01*
X0187264Y0282751D01*
X0187385Y0282853D01*
X0187508Y0282953D01*
X0187634Y0283049D01*
X0187762Y0283142D01*
X0187892Y0283232D01*
X0188025Y0283318D01*
X0188160Y0283402D01*
X0188296Y0283481D01*
X0188435Y0283558D01*
X0188576Y0283630D01*
X0188718Y0283700D01*
X0188862Y0283765D01*
X0189008Y0283827D01*
X0189155Y0283885D01*
X0189304Y0283940D01*
X0189454Y0283991D01*
X0189605Y0284038D01*
X0189757Y0284081D01*
X0189910Y0284120D01*
X0190065Y0284156D01*
X0190220Y0284187D01*
X0190376Y0284215D01*
X0190532Y0284239D01*
X0190689Y0284259D01*
X0190847Y0284275D01*
X0191004Y0284287D01*
X0191163Y0284295D01*
X0191321Y0284299D01*
X0191479Y0284299D01*
X0191637Y0284295D01*
X0191796Y0284287D01*
X0191953Y0284275D01*
X0192111Y0284259D01*
X0192268Y0284239D01*
X0192424Y0284215D01*
X0192580Y0284187D01*
X0192735Y0284156D01*
X0192890Y0284120D01*
X0193043Y0284081D01*
X0193195Y0284038D01*
X0193346Y0283991D01*
X0193496Y0283940D01*
X0193645Y0283885D01*
X0193792Y0283827D01*
X0193938Y0283765D01*
X0194082Y0283700D01*
X0194224Y0283630D01*
X0194365Y0283558D01*
X0194504Y0283481D01*
X0194640Y0283402D01*
X0194775Y0283318D01*
X0194908Y0283232D01*
X0195038Y0283142D01*
X0195166Y0283049D01*
X0195292Y0282953D01*
X0195415Y0282853D01*
X0195536Y0282751D01*
X0195654Y0282646D01*
X0195769Y0282537D01*
X0195882Y0282426D01*
X0195992Y0282312D01*
X0196099Y0282195D01*
X0196203Y0282076D01*
X0196304Y0281954D01*
X0196401Y0281829D01*
X0196496Y0281702D01*
X0196587Y0281573D01*
X0196676Y0281442D01*
X0196760Y0281308D01*
X0196842Y0281172D01*
X0196920Y0281035D01*
X0196994Y0280895D01*
X0197065Y0280753D01*
X0197133Y0280610D01*
X0197197Y0280465D01*
X0197257Y0280319D01*
X0197313Y0280171D01*
X0197366Y0280022D01*
X0197415Y0279871D01*
X0197460Y0279719D01*
X0197501Y0279566D01*
X0197539Y0279413D01*
X0197572Y0279258D01*
X0197602Y0279102D01*
X0197628Y0278946D01*
X0197649Y0278789D01*
X0197667Y0278632D01*
X0197681Y0278474D01*
X0197691Y0278316D01*
X0197697Y0278158D01*
X0197699Y0278000D01*
X0197697Y0277842D01*
X0197691Y0277684D01*
X0197681Y0277526D01*
X0197667Y0277368D01*
X0197649Y0277211D01*
X0197628Y0277054D01*
X0197602Y0276898D01*
X0197572Y0276742D01*
X0197539Y0276587D01*
X0197501Y0276434D01*
X0197460Y0276281D01*
X0197415Y0276129D01*
X0197366Y0275978D01*
X0197313Y0275829D01*
X0197257Y0275681D01*
X0197197Y0275535D01*
X0197133Y0275390D01*
X0197065Y0275247D01*
X0196994Y0275105D01*
X0196920Y0274965D01*
X0196842Y0274828D01*
X0196760Y0274692D01*
X0196676Y0274558D01*
X0196587Y0274427D01*
X0196496Y0274298D01*
X0196401Y0274171D01*
X0196304Y0274046D01*
X0196203Y0273924D01*
X0196099Y0273805D01*
X0195992Y0273688D01*
X0195882Y0273574D01*
X0195769Y0273463D01*
X0195654Y0273354D01*
X0195536Y0273249D01*
X0195415Y0273147D01*
X0195292Y0273047D01*
X0195166Y0272951D01*
X0195038Y0272858D01*
X0194908Y0272768D01*
X0194775Y0272682D01*
X0194640Y0272598D01*
X0194504Y0272519D01*
X0194365Y0272442D01*
X0194224Y0272370D01*
X0194082Y0272300D01*
X0193938Y0272235D01*
X0193792Y0272173D01*
X0193645Y0272115D01*
X0193496Y0272060D01*
X0193346Y0272009D01*
X0193195Y0271962D01*
X0193043Y0271919D01*
X0192890Y0271880D01*
X0192735Y0271844D01*
X0192580Y0271813D01*
X0192424Y0271785D01*
X0192268Y0271761D01*
X0192111Y0271741D01*
X0191953Y0271725D01*
X0191796Y0271713D01*
X0191637Y0271705D01*
X0191479Y0271701D01*
X0191321Y0271701D01*
X0191163Y0271705D01*
X0191004Y0271713D01*
X0190847Y0271725D01*
X0190689Y0271741D01*
X0190532Y0271761D01*
X0190376Y0271785D01*
X0190220Y0271813D01*
X0190065Y0271844D01*
X0189910Y0271880D01*
X0189757Y0271919D01*
X0189605Y0271962D01*
X0189454Y0272009D01*
X0189304Y0272060D01*
X0189155Y0272115D01*
X0189008Y0272173D01*
X0188862Y0272235D01*
X0188718Y0272300D01*
X0188576Y0272370D01*
X0188435Y0272442D01*
X0188296Y0272519D01*
X0188160Y0272598D01*
X0188025Y0272682D01*
X0187892Y0272768D01*
X0187762Y0272858D01*
X0187634Y0272951D01*
X0187508Y0273047D01*
X0187385Y0273147D01*
X0187264Y0273249D01*
X0187146Y0273354D01*
X0187031Y0273463D01*
X0186918Y0273574D01*
X0186808Y0273688D01*
X0186701Y0273805D01*
X0186597Y0273924D01*
X0186496Y0274046D01*
X0186399Y0274171D01*
X0186304Y0274298D01*
X0186213Y0274427D01*
X0186124Y0274558D01*
X0186040Y0274692D01*
X0185958Y0274828D01*
X0185880Y0274965D01*
X0185806Y0275105D01*
X0185735Y0275247D01*
X0185667Y0275390D01*
X0185603Y0275535D01*
X0185543Y0275681D01*
X0185487Y0275829D01*
X0185434Y0275978D01*
X0185385Y0276129D01*
X0185340Y0276281D01*
X0185299Y0276434D01*
X0185261Y0276587D01*
X0185228Y0276742D01*
X0185198Y0276898D01*
X0185172Y0277054D01*
X0185151Y0277211D01*
X0185133Y0277368D01*
X0185119Y0277526D01*
X0185109Y0277684D01*
X0185103Y0277842D01*
X0185101Y0278000D01*
D11*
X0064589Y0041622D02*
X0064589Y0037291D01*
X0063408Y0036110D02*
X0063342Y0036112D01*
X0063276Y0036117D01*
X0063210Y0036127D01*
X0063145Y0036140D01*
X0063081Y0036156D01*
X0063018Y0036176D01*
X0062956Y0036200D01*
X0062896Y0036227D01*
X0062837Y0036257D01*
X0062780Y0036291D01*
X0062725Y0036328D01*
X0062672Y0036368D01*
X0062621Y0036410D01*
X0062573Y0036456D01*
X0062527Y0036504D01*
X0062485Y0036555D01*
X0062445Y0036608D01*
X0062408Y0036663D01*
X0062374Y0036720D01*
X0062344Y0036779D01*
X0062317Y0036839D01*
X0062293Y0036901D01*
X0062273Y0036964D01*
X0062257Y0037028D01*
X0062244Y0037093D01*
X0062234Y0037159D01*
X0062229Y0037225D01*
X0062227Y0037291D01*
X0062227Y0041622D01*
X0062229Y0041688D01*
X0062234Y0041754D01*
X0062244Y0041820D01*
X0062257Y0041885D01*
X0062273Y0041949D01*
X0062293Y0042012D01*
X0062317Y0042074D01*
X0062344Y0042134D01*
X0062374Y0042193D01*
X0062408Y0042250D01*
X0062445Y0042305D01*
X0062485Y0042358D01*
X0062527Y0042409D01*
X0062573Y0042457D01*
X0062621Y0042503D01*
X0062672Y0042545D01*
X0062725Y0042585D01*
X0062780Y0042622D01*
X0062837Y0042656D01*
X0062896Y0042686D01*
X0062956Y0042713D01*
X0063018Y0042737D01*
X0063081Y0042757D01*
X0063145Y0042773D01*
X0063210Y0042786D01*
X0063276Y0042796D01*
X0063342Y0042801D01*
X0063408Y0042803D01*
X0063474Y0042801D01*
X0063540Y0042796D01*
X0063606Y0042786D01*
X0063671Y0042773D01*
X0063735Y0042757D01*
X0063798Y0042737D01*
X0063860Y0042713D01*
X0063920Y0042686D01*
X0063979Y0042656D01*
X0064036Y0042622D01*
X0064091Y0042585D01*
X0064144Y0042545D01*
X0064195Y0042503D01*
X0064243Y0042457D01*
X0064289Y0042409D01*
X0064331Y0042358D01*
X0064371Y0042305D01*
X0064408Y0042250D01*
X0064442Y0042193D01*
X0064472Y0042134D01*
X0064499Y0042074D01*
X0064523Y0042012D01*
X0064543Y0041949D01*
X0064559Y0041885D01*
X0064572Y0041820D01*
X0064582Y0041754D01*
X0064587Y0041688D01*
X0064589Y0041622D01*
X0064589Y0037291D02*
X0064587Y0037225D01*
X0064582Y0037159D01*
X0064572Y0037093D01*
X0064559Y0037028D01*
X0064543Y0036964D01*
X0064523Y0036901D01*
X0064499Y0036839D01*
X0064472Y0036779D01*
X0064442Y0036720D01*
X0064408Y0036663D01*
X0064371Y0036608D01*
X0064331Y0036555D01*
X0064289Y0036504D01*
X0064243Y0036456D01*
X0064195Y0036410D01*
X0064144Y0036368D01*
X0064091Y0036328D01*
X0064036Y0036291D01*
X0063979Y0036257D01*
X0063920Y0036227D01*
X0063860Y0036200D01*
X0063798Y0036176D01*
X0063735Y0036156D01*
X0063671Y0036140D01*
X0063606Y0036127D01*
X0063540Y0036117D01*
X0063474Y0036112D01*
X0063408Y0036110D01*
X0063408Y0025756D02*
X0063342Y0025754D01*
X0063276Y0025749D01*
X0063210Y0025739D01*
X0063145Y0025726D01*
X0063081Y0025710D01*
X0063018Y0025690D01*
X0062956Y0025666D01*
X0062896Y0025639D01*
X0062837Y0025609D01*
X0062780Y0025575D01*
X0062725Y0025538D01*
X0062672Y0025498D01*
X0062621Y0025456D01*
X0062573Y0025410D01*
X0062527Y0025362D01*
X0062485Y0025311D01*
X0062445Y0025258D01*
X0062408Y0025203D01*
X0062374Y0025146D01*
X0062344Y0025087D01*
X0062317Y0025027D01*
X0062293Y0024965D01*
X0062273Y0024902D01*
X0062257Y0024838D01*
X0062244Y0024773D01*
X0062234Y0024707D01*
X0062229Y0024641D01*
X0062227Y0024575D01*
X0062227Y0021425D01*
X0062229Y0021359D01*
X0062234Y0021293D01*
X0062244Y0021227D01*
X0062257Y0021162D01*
X0062273Y0021098D01*
X0062293Y0021035D01*
X0062317Y0020973D01*
X0062344Y0020913D01*
X0062374Y0020854D01*
X0062408Y0020797D01*
X0062445Y0020742D01*
X0062485Y0020689D01*
X0062527Y0020638D01*
X0062573Y0020590D01*
X0062621Y0020544D01*
X0062672Y0020502D01*
X0062725Y0020462D01*
X0062780Y0020425D01*
X0062837Y0020391D01*
X0062896Y0020361D01*
X0062956Y0020334D01*
X0063018Y0020310D01*
X0063081Y0020290D01*
X0063145Y0020274D01*
X0063210Y0020261D01*
X0063276Y0020251D01*
X0063342Y0020246D01*
X0063408Y0020244D01*
X0063474Y0020246D01*
X0063540Y0020251D01*
X0063606Y0020261D01*
X0063671Y0020274D01*
X0063735Y0020290D01*
X0063798Y0020310D01*
X0063860Y0020334D01*
X0063920Y0020361D01*
X0063979Y0020391D01*
X0064036Y0020425D01*
X0064091Y0020462D01*
X0064144Y0020502D01*
X0064195Y0020544D01*
X0064243Y0020590D01*
X0064289Y0020638D01*
X0064331Y0020689D01*
X0064371Y0020742D01*
X0064408Y0020797D01*
X0064442Y0020854D01*
X0064472Y0020913D01*
X0064499Y0020973D01*
X0064523Y0021035D01*
X0064543Y0021098D01*
X0064559Y0021162D01*
X0064572Y0021227D01*
X0064582Y0021293D01*
X0064587Y0021359D01*
X0064589Y0021425D01*
X0064589Y0024575D01*
X0064587Y0024641D01*
X0064582Y0024707D01*
X0064572Y0024773D01*
X0064559Y0024838D01*
X0064543Y0024902D01*
X0064523Y0024965D01*
X0064499Y0025027D01*
X0064472Y0025087D01*
X0064442Y0025146D01*
X0064408Y0025203D01*
X0064371Y0025258D01*
X0064331Y0025311D01*
X0064289Y0025362D01*
X0064243Y0025410D01*
X0064195Y0025456D01*
X0064144Y0025498D01*
X0064091Y0025538D01*
X0064036Y0025575D01*
X0063979Y0025609D01*
X0063920Y0025639D01*
X0063860Y0025666D01*
X0063798Y0025690D01*
X0063735Y0025710D01*
X0063671Y0025726D01*
X0063606Y0025739D01*
X0063540Y0025749D01*
X0063474Y0025754D01*
X0063408Y0025756D01*
X0030573Y0024575D02*
X0030573Y0021425D01*
X0029392Y0020244D02*
X0029326Y0020246D01*
X0029260Y0020251D01*
X0029194Y0020261D01*
X0029129Y0020274D01*
X0029065Y0020290D01*
X0029002Y0020310D01*
X0028940Y0020334D01*
X0028880Y0020361D01*
X0028821Y0020391D01*
X0028764Y0020425D01*
X0028709Y0020462D01*
X0028656Y0020502D01*
X0028605Y0020544D01*
X0028557Y0020590D01*
X0028511Y0020638D01*
X0028469Y0020689D01*
X0028429Y0020742D01*
X0028392Y0020797D01*
X0028358Y0020854D01*
X0028328Y0020913D01*
X0028301Y0020973D01*
X0028277Y0021035D01*
X0028257Y0021098D01*
X0028241Y0021162D01*
X0028228Y0021227D01*
X0028218Y0021293D01*
X0028213Y0021359D01*
X0028211Y0021425D01*
X0028211Y0024575D01*
X0028213Y0024641D01*
X0028218Y0024707D01*
X0028228Y0024773D01*
X0028241Y0024838D01*
X0028257Y0024902D01*
X0028277Y0024965D01*
X0028301Y0025027D01*
X0028328Y0025087D01*
X0028358Y0025146D01*
X0028392Y0025203D01*
X0028429Y0025258D01*
X0028469Y0025311D01*
X0028511Y0025362D01*
X0028557Y0025410D01*
X0028605Y0025456D01*
X0028656Y0025498D01*
X0028709Y0025538D01*
X0028764Y0025575D01*
X0028821Y0025609D01*
X0028880Y0025639D01*
X0028940Y0025666D01*
X0029002Y0025690D01*
X0029065Y0025710D01*
X0029129Y0025726D01*
X0029194Y0025739D01*
X0029260Y0025749D01*
X0029326Y0025754D01*
X0029392Y0025756D01*
X0029458Y0025754D01*
X0029524Y0025749D01*
X0029590Y0025739D01*
X0029655Y0025726D01*
X0029719Y0025710D01*
X0029782Y0025690D01*
X0029844Y0025666D01*
X0029904Y0025639D01*
X0029963Y0025609D01*
X0030020Y0025575D01*
X0030075Y0025538D01*
X0030128Y0025498D01*
X0030179Y0025456D01*
X0030227Y0025410D01*
X0030273Y0025362D01*
X0030315Y0025311D01*
X0030355Y0025258D01*
X0030392Y0025203D01*
X0030426Y0025146D01*
X0030456Y0025087D01*
X0030483Y0025027D01*
X0030507Y0024965D01*
X0030527Y0024902D01*
X0030543Y0024838D01*
X0030556Y0024773D01*
X0030566Y0024707D01*
X0030571Y0024641D01*
X0030573Y0024575D01*
X0030573Y0021425D02*
X0030571Y0021359D01*
X0030566Y0021293D01*
X0030556Y0021227D01*
X0030543Y0021162D01*
X0030527Y0021098D01*
X0030507Y0021035D01*
X0030483Y0020973D01*
X0030456Y0020913D01*
X0030426Y0020854D01*
X0030392Y0020797D01*
X0030355Y0020742D01*
X0030315Y0020689D01*
X0030273Y0020638D01*
X0030227Y0020590D01*
X0030179Y0020544D01*
X0030128Y0020502D01*
X0030075Y0020462D01*
X0030020Y0020425D01*
X0029963Y0020391D01*
X0029904Y0020361D01*
X0029844Y0020334D01*
X0029782Y0020310D01*
X0029719Y0020290D01*
X0029655Y0020274D01*
X0029590Y0020261D01*
X0029524Y0020251D01*
X0029458Y0020246D01*
X0029392Y0020244D01*
X0029392Y0036110D02*
X0029326Y0036112D01*
X0029260Y0036117D01*
X0029194Y0036127D01*
X0029129Y0036140D01*
X0029065Y0036156D01*
X0029002Y0036176D01*
X0028940Y0036200D01*
X0028880Y0036227D01*
X0028821Y0036257D01*
X0028764Y0036291D01*
X0028709Y0036328D01*
X0028656Y0036368D01*
X0028605Y0036410D01*
X0028557Y0036456D01*
X0028511Y0036504D01*
X0028469Y0036555D01*
X0028429Y0036608D01*
X0028392Y0036663D01*
X0028358Y0036720D01*
X0028328Y0036779D01*
X0028301Y0036839D01*
X0028277Y0036901D01*
X0028257Y0036964D01*
X0028241Y0037028D01*
X0028228Y0037093D01*
X0028218Y0037159D01*
X0028213Y0037225D01*
X0028211Y0037291D01*
X0028211Y0041622D01*
X0028213Y0041688D01*
X0028218Y0041754D01*
X0028228Y0041820D01*
X0028241Y0041885D01*
X0028257Y0041949D01*
X0028277Y0042012D01*
X0028301Y0042074D01*
X0028328Y0042134D01*
X0028358Y0042193D01*
X0028392Y0042250D01*
X0028429Y0042305D01*
X0028469Y0042358D01*
X0028511Y0042409D01*
X0028557Y0042457D01*
X0028605Y0042503D01*
X0028656Y0042545D01*
X0028709Y0042585D01*
X0028764Y0042622D01*
X0028821Y0042656D01*
X0028880Y0042686D01*
X0028940Y0042713D01*
X0029002Y0042737D01*
X0029065Y0042757D01*
X0029129Y0042773D01*
X0029194Y0042786D01*
X0029260Y0042796D01*
X0029326Y0042801D01*
X0029392Y0042803D01*
X0029458Y0042801D01*
X0029524Y0042796D01*
X0029590Y0042786D01*
X0029655Y0042773D01*
X0029719Y0042757D01*
X0029782Y0042737D01*
X0029844Y0042713D01*
X0029904Y0042686D01*
X0029963Y0042656D01*
X0030020Y0042622D01*
X0030075Y0042585D01*
X0030128Y0042545D01*
X0030179Y0042503D01*
X0030227Y0042457D01*
X0030273Y0042409D01*
X0030315Y0042358D01*
X0030355Y0042305D01*
X0030392Y0042250D01*
X0030426Y0042193D01*
X0030456Y0042134D01*
X0030483Y0042074D01*
X0030507Y0042012D01*
X0030527Y0041949D01*
X0030543Y0041885D01*
X0030556Y0041820D01*
X0030566Y0041754D01*
X0030571Y0041688D01*
X0030573Y0041622D01*
X0030573Y0037291D01*
X0030571Y0037225D01*
X0030566Y0037159D01*
X0030556Y0037093D01*
X0030543Y0037028D01*
X0030527Y0036964D01*
X0030507Y0036901D01*
X0030483Y0036839D01*
X0030456Y0036779D01*
X0030426Y0036720D01*
X0030392Y0036663D01*
X0030355Y0036608D01*
X0030315Y0036555D01*
X0030273Y0036504D01*
X0030227Y0036456D01*
X0030179Y0036410D01*
X0030128Y0036368D01*
X0030075Y0036328D01*
X0030020Y0036291D01*
X0029963Y0036257D01*
X0029904Y0036227D01*
X0029844Y0036200D01*
X0029782Y0036176D01*
X0029719Y0036156D01*
X0029655Y0036140D01*
X0029590Y0036127D01*
X0029524Y0036117D01*
X0029458Y0036112D01*
X0029392Y0036110D01*
M02*
