G75*
%MOIN*%
%OFA0B0*%
%FSLAX25Y25*%
%IPPOS*%
%LPD*%
%AMOC8*
5,1,8,0,0,1.08239X$1,22.5*
%
%ADD10C,0.00000*%
%ADD11C,0.01600*%
%ADD12C,0.01000*%
%ADD13C,0.00800*%
%ADD14C,0.02200*%
%ADD15C,0.00600*%
%ADD16C,0.00500*%
%ADD17C,0.00806*%
%ADD18C,0.00787*%
%ADD19R,0.03000X0.01800*%
%ADD20R,0.01800X0.03000*%
%ADD21C,0.01200*%
D10*
X0001400Y0013000D02*
X0001400Y0288000D01*
X0201400Y0288000D01*
X0201400Y0013000D01*
X0001400Y0013000D01*
X0005101Y0023000D02*
X0005103Y0023158D01*
X0005109Y0023316D01*
X0005119Y0023474D01*
X0005133Y0023632D01*
X0005151Y0023789D01*
X0005172Y0023946D01*
X0005198Y0024102D01*
X0005228Y0024258D01*
X0005261Y0024413D01*
X0005299Y0024566D01*
X0005340Y0024719D01*
X0005385Y0024871D01*
X0005434Y0025022D01*
X0005487Y0025171D01*
X0005543Y0025319D01*
X0005603Y0025465D01*
X0005667Y0025610D01*
X0005735Y0025753D01*
X0005806Y0025895D01*
X0005880Y0026035D01*
X0005958Y0026172D01*
X0006040Y0026308D01*
X0006124Y0026442D01*
X0006213Y0026573D01*
X0006304Y0026702D01*
X0006399Y0026829D01*
X0006496Y0026954D01*
X0006597Y0027076D01*
X0006701Y0027195D01*
X0006808Y0027312D01*
X0006918Y0027426D01*
X0007031Y0027537D01*
X0007146Y0027646D01*
X0007264Y0027751D01*
X0007385Y0027853D01*
X0007508Y0027953D01*
X0007634Y0028049D01*
X0007762Y0028142D01*
X0007892Y0028232D01*
X0008025Y0028318D01*
X0008160Y0028402D01*
X0008296Y0028481D01*
X0008435Y0028558D01*
X0008576Y0028630D01*
X0008718Y0028700D01*
X0008862Y0028765D01*
X0009008Y0028827D01*
X0009155Y0028885D01*
X0009304Y0028940D01*
X0009454Y0028991D01*
X0009605Y0029038D01*
X0009757Y0029081D01*
X0009910Y0029120D01*
X0010065Y0029156D01*
X0010220Y0029187D01*
X0010376Y0029215D01*
X0010532Y0029239D01*
X0010689Y0029259D01*
X0010847Y0029275D01*
X0011004Y0029287D01*
X0011163Y0029295D01*
X0011321Y0029299D01*
X0011479Y0029299D01*
X0011637Y0029295D01*
X0011796Y0029287D01*
X0011953Y0029275D01*
X0012111Y0029259D01*
X0012268Y0029239D01*
X0012424Y0029215D01*
X0012580Y0029187D01*
X0012735Y0029156D01*
X0012890Y0029120D01*
X0013043Y0029081D01*
X0013195Y0029038D01*
X0013346Y0028991D01*
X0013496Y0028940D01*
X0013645Y0028885D01*
X0013792Y0028827D01*
X0013938Y0028765D01*
X0014082Y0028700D01*
X0014224Y0028630D01*
X0014365Y0028558D01*
X0014504Y0028481D01*
X0014640Y0028402D01*
X0014775Y0028318D01*
X0014908Y0028232D01*
X0015038Y0028142D01*
X0015166Y0028049D01*
X0015292Y0027953D01*
X0015415Y0027853D01*
X0015536Y0027751D01*
X0015654Y0027646D01*
X0015769Y0027537D01*
X0015882Y0027426D01*
X0015992Y0027312D01*
X0016099Y0027195D01*
X0016203Y0027076D01*
X0016304Y0026954D01*
X0016401Y0026829D01*
X0016496Y0026702D01*
X0016587Y0026573D01*
X0016676Y0026442D01*
X0016760Y0026308D01*
X0016842Y0026172D01*
X0016920Y0026035D01*
X0016994Y0025895D01*
X0017065Y0025753D01*
X0017133Y0025610D01*
X0017197Y0025465D01*
X0017257Y0025319D01*
X0017313Y0025171D01*
X0017366Y0025022D01*
X0017415Y0024871D01*
X0017460Y0024719D01*
X0017501Y0024566D01*
X0017539Y0024413D01*
X0017572Y0024258D01*
X0017602Y0024102D01*
X0017628Y0023946D01*
X0017649Y0023789D01*
X0017667Y0023632D01*
X0017681Y0023474D01*
X0017691Y0023316D01*
X0017697Y0023158D01*
X0017699Y0023000D01*
X0017697Y0022842D01*
X0017691Y0022684D01*
X0017681Y0022526D01*
X0017667Y0022368D01*
X0017649Y0022211D01*
X0017628Y0022054D01*
X0017602Y0021898D01*
X0017572Y0021742D01*
X0017539Y0021587D01*
X0017501Y0021434D01*
X0017460Y0021281D01*
X0017415Y0021129D01*
X0017366Y0020978D01*
X0017313Y0020829D01*
X0017257Y0020681D01*
X0017197Y0020535D01*
X0017133Y0020390D01*
X0017065Y0020247D01*
X0016994Y0020105D01*
X0016920Y0019965D01*
X0016842Y0019828D01*
X0016760Y0019692D01*
X0016676Y0019558D01*
X0016587Y0019427D01*
X0016496Y0019298D01*
X0016401Y0019171D01*
X0016304Y0019046D01*
X0016203Y0018924D01*
X0016099Y0018805D01*
X0015992Y0018688D01*
X0015882Y0018574D01*
X0015769Y0018463D01*
X0015654Y0018354D01*
X0015536Y0018249D01*
X0015415Y0018147D01*
X0015292Y0018047D01*
X0015166Y0017951D01*
X0015038Y0017858D01*
X0014908Y0017768D01*
X0014775Y0017682D01*
X0014640Y0017598D01*
X0014504Y0017519D01*
X0014365Y0017442D01*
X0014224Y0017370D01*
X0014082Y0017300D01*
X0013938Y0017235D01*
X0013792Y0017173D01*
X0013645Y0017115D01*
X0013496Y0017060D01*
X0013346Y0017009D01*
X0013195Y0016962D01*
X0013043Y0016919D01*
X0012890Y0016880D01*
X0012735Y0016844D01*
X0012580Y0016813D01*
X0012424Y0016785D01*
X0012268Y0016761D01*
X0012111Y0016741D01*
X0011953Y0016725D01*
X0011796Y0016713D01*
X0011637Y0016705D01*
X0011479Y0016701D01*
X0011321Y0016701D01*
X0011163Y0016705D01*
X0011004Y0016713D01*
X0010847Y0016725D01*
X0010689Y0016741D01*
X0010532Y0016761D01*
X0010376Y0016785D01*
X0010220Y0016813D01*
X0010065Y0016844D01*
X0009910Y0016880D01*
X0009757Y0016919D01*
X0009605Y0016962D01*
X0009454Y0017009D01*
X0009304Y0017060D01*
X0009155Y0017115D01*
X0009008Y0017173D01*
X0008862Y0017235D01*
X0008718Y0017300D01*
X0008576Y0017370D01*
X0008435Y0017442D01*
X0008296Y0017519D01*
X0008160Y0017598D01*
X0008025Y0017682D01*
X0007892Y0017768D01*
X0007762Y0017858D01*
X0007634Y0017951D01*
X0007508Y0018047D01*
X0007385Y0018147D01*
X0007264Y0018249D01*
X0007146Y0018354D01*
X0007031Y0018463D01*
X0006918Y0018574D01*
X0006808Y0018688D01*
X0006701Y0018805D01*
X0006597Y0018924D01*
X0006496Y0019046D01*
X0006399Y0019171D01*
X0006304Y0019298D01*
X0006213Y0019427D01*
X0006124Y0019558D01*
X0006040Y0019692D01*
X0005958Y0019828D01*
X0005880Y0019965D01*
X0005806Y0020105D01*
X0005735Y0020247D01*
X0005667Y0020390D01*
X0005603Y0020535D01*
X0005543Y0020681D01*
X0005487Y0020829D01*
X0005434Y0020978D01*
X0005385Y0021129D01*
X0005340Y0021281D01*
X0005299Y0021434D01*
X0005261Y0021587D01*
X0005228Y0021742D01*
X0005198Y0021898D01*
X0005172Y0022054D01*
X0005151Y0022211D01*
X0005133Y0022368D01*
X0005119Y0022526D01*
X0005109Y0022684D01*
X0005103Y0022842D01*
X0005101Y0023000D01*
X0033742Y0037488D02*
X0033744Y0037559D01*
X0033750Y0037630D01*
X0033760Y0037701D01*
X0033774Y0037770D01*
X0033791Y0037839D01*
X0033813Y0037907D01*
X0033838Y0037974D01*
X0033867Y0038039D01*
X0033899Y0038102D01*
X0033935Y0038164D01*
X0033974Y0038223D01*
X0034017Y0038280D01*
X0034062Y0038335D01*
X0034111Y0038387D01*
X0034162Y0038436D01*
X0034216Y0038482D01*
X0034273Y0038526D01*
X0034331Y0038566D01*
X0034392Y0038602D01*
X0034455Y0038636D01*
X0034520Y0038665D01*
X0034586Y0038691D01*
X0034654Y0038714D01*
X0034722Y0038732D01*
X0034792Y0038747D01*
X0034862Y0038758D01*
X0034933Y0038765D01*
X0035004Y0038768D01*
X0035075Y0038767D01*
X0035146Y0038762D01*
X0035217Y0038753D01*
X0035287Y0038740D01*
X0035356Y0038724D01*
X0035424Y0038703D01*
X0035491Y0038679D01*
X0035557Y0038651D01*
X0035620Y0038619D01*
X0035682Y0038584D01*
X0035742Y0038546D01*
X0035800Y0038504D01*
X0035855Y0038460D01*
X0035908Y0038412D01*
X0035958Y0038361D01*
X0036005Y0038308D01*
X0036049Y0038252D01*
X0036090Y0038194D01*
X0036128Y0038133D01*
X0036162Y0038071D01*
X0036192Y0038006D01*
X0036219Y0037941D01*
X0036243Y0037873D01*
X0036262Y0037805D01*
X0036278Y0037736D01*
X0036290Y0037665D01*
X0036298Y0037595D01*
X0036302Y0037524D01*
X0036302Y0037452D01*
X0036298Y0037381D01*
X0036290Y0037311D01*
X0036278Y0037240D01*
X0036262Y0037171D01*
X0036243Y0037103D01*
X0036219Y0037035D01*
X0036192Y0036970D01*
X0036162Y0036905D01*
X0036128Y0036843D01*
X0036090Y0036782D01*
X0036049Y0036724D01*
X0036005Y0036668D01*
X0035958Y0036615D01*
X0035908Y0036564D01*
X0035855Y0036516D01*
X0035800Y0036472D01*
X0035742Y0036430D01*
X0035682Y0036392D01*
X0035620Y0036357D01*
X0035557Y0036325D01*
X0035491Y0036297D01*
X0035424Y0036273D01*
X0035356Y0036252D01*
X0035287Y0036236D01*
X0035217Y0036223D01*
X0035146Y0036214D01*
X0035075Y0036209D01*
X0035004Y0036208D01*
X0034933Y0036211D01*
X0034862Y0036218D01*
X0034792Y0036229D01*
X0034722Y0036244D01*
X0034654Y0036262D01*
X0034586Y0036285D01*
X0034520Y0036311D01*
X0034455Y0036340D01*
X0034392Y0036374D01*
X0034331Y0036410D01*
X0034273Y0036450D01*
X0034216Y0036494D01*
X0034162Y0036540D01*
X0034111Y0036589D01*
X0034062Y0036641D01*
X0034017Y0036696D01*
X0033974Y0036753D01*
X0033935Y0036812D01*
X0033899Y0036874D01*
X0033867Y0036937D01*
X0033838Y0037002D01*
X0033813Y0037069D01*
X0033791Y0037137D01*
X0033774Y0037206D01*
X0033760Y0037275D01*
X0033750Y0037346D01*
X0033744Y0037417D01*
X0033742Y0037488D01*
X0056498Y0037488D02*
X0056500Y0037559D01*
X0056506Y0037630D01*
X0056516Y0037701D01*
X0056530Y0037770D01*
X0056547Y0037839D01*
X0056569Y0037907D01*
X0056594Y0037974D01*
X0056623Y0038039D01*
X0056655Y0038102D01*
X0056691Y0038164D01*
X0056730Y0038223D01*
X0056773Y0038280D01*
X0056818Y0038335D01*
X0056867Y0038387D01*
X0056918Y0038436D01*
X0056972Y0038482D01*
X0057029Y0038526D01*
X0057087Y0038566D01*
X0057148Y0038602D01*
X0057211Y0038636D01*
X0057276Y0038665D01*
X0057342Y0038691D01*
X0057410Y0038714D01*
X0057478Y0038732D01*
X0057548Y0038747D01*
X0057618Y0038758D01*
X0057689Y0038765D01*
X0057760Y0038768D01*
X0057831Y0038767D01*
X0057902Y0038762D01*
X0057973Y0038753D01*
X0058043Y0038740D01*
X0058112Y0038724D01*
X0058180Y0038703D01*
X0058247Y0038679D01*
X0058313Y0038651D01*
X0058376Y0038619D01*
X0058438Y0038584D01*
X0058498Y0038546D01*
X0058556Y0038504D01*
X0058611Y0038460D01*
X0058664Y0038412D01*
X0058714Y0038361D01*
X0058761Y0038308D01*
X0058805Y0038252D01*
X0058846Y0038194D01*
X0058884Y0038133D01*
X0058918Y0038071D01*
X0058948Y0038006D01*
X0058975Y0037941D01*
X0058999Y0037873D01*
X0059018Y0037805D01*
X0059034Y0037736D01*
X0059046Y0037665D01*
X0059054Y0037595D01*
X0059058Y0037524D01*
X0059058Y0037452D01*
X0059054Y0037381D01*
X0059046Y0037311D01*
X0059034Y0037240D01*
X0059018Y0037171D01*
X0058999Y0037103D01*
X0058975Y0037035D01*
X0058948Y0036970D01*
X0058918Y0036905D01*
X0058884Y0036843D01*
X0058846Y0036782D01*
X0058805Y0036724D01*
X0058761Y0036668D01*
X0058714Y0036615D01*
X0058664Y0036564D01*
X0058611Y0036516D01*
X0058556Y0036472D01*
X0058498Y0036430D01*
X0058438Y0036392D01*
X0058376Y0036357D01*
X0058313Y0036325D01*
X0058247Y0036297D01*
X0058180Y0036273D01*
X0058112Y0036252D01*
X0058043Y0036236D01*
X0057973Y0036223D01*
X0057902Y0036214D01*
X0057831Y0036209D01*
X0057760Y0036208D01*
X0057689Y0036211D01*
X0057618Y0036218D01*
X0057548Y0036229D01*
X0057478Y0036244D01*
X0057410Y0036262D01*
X0057342Y0036285D01*
X0057276Y0036311D01*
X0057211Y0036340D01*
X0057148Y0036374D01*
X0057087Y0036410D01*
X0057029Y0036450D01*
X0056972Y0036494D01*
X0056918Y0036540D01*
X0056867Y0036589D01*
X0056818Y0036641D01*
X0056773Y0036696D01*
X0056730Y0036753D01*
X0056691Y0036812D01*
X0056655Y0036874D01*
X0056623Y0036937D01*
X0056594Y0037002D01*
X0056569Y0037069D01*
X0056547Y0037137D01*
X0056530Y0037206D01*
X0056516Y0037275D01*
X0056506Y0037346D01*
X0056500Y0037417D01*
X0056498Y0037488D01*
X0112502Y0053000D02*
X0112504Y0053160D01*
X0112510Y0053319D01*
X0112520Y0053478D01*
X0112534Y0053637D01*
X0112552Y0053796D01*
X0112573Y0053954D01*
X0112599Y0054111D01*
X0112629Y0054268D01*
X0112662Y0054424D01*
X0112700Y0054579D01*
X0112741Y0054733D01*
X0112786Y0054886D01*
X0112835Y0055038D01*
X0112888Y0055188D01*
X0112944Y0055337D01*
X0113004Y0055485D01*
X0113068Y0055631D01*
X0113136Y0055776D01*
X0113207Y0055919D01*
X0113281Y0056060D01*
X0113359Y0056199D01*
X0113441Y0056336D01*
X0113526Y0056471D01*
X0113614Y0056604D01*
X0113705Y0056735D01*
X0113800Y0056863D01*
X0113898Y0056989D01*
X0113999Y0057113D01*
X0114103Y0057233D01*
X0114210Y0057352D01*
X0114320Y0057467D01*
X0114433Y0057580D01*
X0114548Y0057690D01*
X0114667Y0057797D01*
X0114787Y0057901D01*
X0114911Y0058002D01*
X0115037Y0058100D01*
X0115165Y0058195D01*
X0115296Y0058286D01*
X0115429Y0058374D01*
X0115564Y0058459D01*
X0115701Y0058541D01*
X0115840Y0058619D01*
X0115981Y0058693D01*
X0116124Y0058764D01*
X0116269Y0058832D01*
X0116415Y0058896D01*
X0116563Y0058956D01*
X0116712Y0059012D01*
X0116862Y0059065D01*
X0117014Y0059114D01*
X0117167Y0059159D01*
X0117321Y0059200D01*
X0117476Y0059238D01*
X0117632Y0059271D01*
X0117789Y0059301D01*
X0117946Y0059327D01*
X0118104Y0059348D01*
X0118263Y0059366D01*
X0118422Y0059380D01*
X0118581Y0059390D01*
X0118740Y0059396D01*
X0118900Y0059398D01*
X0119060Y0059396D01*
X0119219Y0059390D01*
X0119378Y0059380D01*
X0119537Y0059366D01*
X0119696Y0059348D01*
X0119854Y0059327D01*
X0120011Y0059301D01*
X0120168Y0059271D01*
X0120324Y0059238D01*
X0120479Y0059200D01*
X0120633Y0059159D01*
X0120786Y0059114D01*
X0120938Y0059065D01*
X0121088Y0059012D01*
X0121237Y0058956D01*
X0121385Y0058896D01*
X0121531Y0058832D01*
X0121676Y0058764D01*
X0121819Y0058693D01*
X0121960Y0058619D01*
X0122099Y0058541D01*
X0122236Y0058459D01*
X0122371Y0058374D01*
X0122504Y0058286D01*
X0122635Y0058195D01*
X0122763Y0058100D01*
X0122889Y0058002D01*
X0123013Y0057901D01*
X0123133Y0057797D01*
X0123252Y0057690D01*
X0123367Y0057580D01*
X0123480Y0057467D01*
X0123590Y0057352D01*
X0123697Y0057233D01*
X0123801Y0057113D01*
X0123902Y0056989D01*
X0124000Y0056863D01*
X0124095Y0056735D01*
X0124186Y0056604D01*
X0124274Y0056471D01*
X0124359Y0056336D01*
X0124441Y0056199D01*
X0124519Y0056060D01*
X0124593Y0055919D01*
X0124664Y0055776D01*
X0124732Y0055631D01*
X0124796Y0055485D01*
X0124856Y0055337D01*
X0124912Y0055188D01*
X0124965Y0055038D01*
X0125014Y0054886D01*
X0125059Y0054733D01*
X0125100Y0054579D01*
X0125138Y0054424D01*
X0125171Y0054268D01*
X0125201Y0054111D01*
X0125227Y0053954D01*
X0125248Y0053796D01*
X0125266Y0053637D01*
X0125280Y0053478D01*
X0125290Y0053319D01*
X0125296Y0053160D01*
X0125298Y0053000D01*
X0125296Y0052840D01*
X0125290Y0052681D01*
X0125280Y0052522D01*
X0125266Y0052363D01*
X0125248Y0052204D01*
X0125227Y0052046D01*
X0125201Y0051889D01*
X0125171Y0051732D01*
X0125138Y0051576D01*
X0125100Y0051421D01*
X0125059Y0051267D01*
X0125014Y0051114D01*
X0124965Y0050962D01*
X0124912Y0050812D01*
X0124856Y0050663D01*
X0124796Y0050515D01*
X0124732Y0050369D01*
X0124664Y0050224D01*
X0124593Y0050081D01*
X0124519Y0049940D01*
X0124441Y0049801D01*
X0124359Y0049664D01*
X0124274Y0049529D01*
X0124186Y0049396D01*
X0124095Y0049265D01*
X0124000Y0049137D01*
X0123902Y0049011D01*
X0123801Y0048887D01*
X0123697Y0048767D01*
X0123590Y0048648D01*
X0123480Y0048533D01*
X0123367Y0048420D01*
X0123252Y0048310D01*
X0123133Y0048203D01*
X0123013Y0048099D01*
X0122889Y0047998D01*
X0122763Y0047900D01*
X0122635Y0047805D01*
X0122504Y0047714D01*
X0122371Y0047626D01*
X0122236Y0047541D01*
X0122099Y0047459D01*
X0121960Y0047381D01*
X0121819Y0047307D01*
X0121676Y0047236D01*
X0121531Y0047168D01*
X0121385Y0047104D01*
X0121237Y0047044D01*
X0121088Y0046988D01*
X0120938Y0046935D01*
X0120786Y0046886D01*
X0120633Y0046841D01*
X0120479Y0046800D01*
X0120324Y0046762D01*
X0120168Y0046729D01*
X0120011Y0046699D01*
X0119854Y0046673D01*
X0119696Y0046652D01*
X0119537Y0046634D01*
X0119378Y0046620D01*
X0119219Y0046610D01*
X0119060Y0046604D01*
X0118900Y0046602D01*
X0118740Y0046604D01*
X0118581Y0046610D01*
X0118422Y0046620D01*
X0118263Y0046634D01*
X0118104Y0046652D01*
X0117946Y0046673D01*
X0117789Y0046699D01*
X0117632Y0046729D01*
X0117476Y0046762D01*
X0117321Y0046800D01*
X0117167Y0046841D01*
X0117014Y0046886D01*
X0116862Y0046935D01*
X0116712Y0046988D01*
X0116563Y0047044D01*
X0116415Y0047104D01*
X0116269Y0047168D01*
X0116124Y0047236D01*
X0115981Y0047307D01*
X0115840Y0047381D01*
X0115701Y0047459D01*
X0115564Y0047541D01*
X0115429Y0047626D01*
X0115296Y0047714D01*
X0115165Y0047805D01*
X0115037Y0047900D01*
X0114911Y0047998D01*
X0114787Y0048099D01*
X0114667Y0048203D01*
X0114548Y0048310D01*
X0114433Y0048420D01*
X0114320Y0048533D01*
X0114210Y0048648D01*
X0114103Y0048767D01*
X0113999Y0048887D01*
X0113898Y0049011D01*
X0113800Y0049137D01*
X0113705Y0049265D01*
X0113614Y0049396D01*
X0113526Y0049529D01*
X0113441Y0049664D01*
X0113359Y0049801D01*
X0113281Y0049940D01*
X0113207Y0050081D01*
X0113136Y0050224D01*
X0113068Y0050369D01*
X0113004Y0050515D01*
X0112944Y0050663D01*
X0112888Y0050812D01*
X0112835Y0050962D01*
X0112786Y0051114D01*
X0112741Y0051267D01*
X0112700Y0051421D01*
X0112662Y0051576D01*
X0112629Y0051732D01*
X0112599Y0051889D01*
X0112573Y0052046D01*
X0112552Y0052204D01*
X0112534Y0052363D01*
X0112520Y0052522D01*
X0112510Y0052681D01*
X0112504Y0052840D01*
X0112502Y0053000D01*
X0147601Y0123000D02*
X0147603Y0123158D01*
X0147609Y0123316D01*
X0147619Y0123474D01*
X0147633Y0123632D01*
X0147651Y0123789D01*
X0147672Y0123946D01*
X0147698Y0124102D01*
X0147728Y0124258D01*
X0147761Y0124413D01*
X0147799Y0124566D01*
X0147840Y0124719D01*
X0147885Y0124871D01*
X0147934Y0125022D01*
X0147987Y0125171D01*
X0148043Y0125319D01*
X0148103Y0125465D01*
X0148167Y0125610D01*
X0148235Y0125753D01*
X0148306Y0125895D01*
X0148380Y0126035D01*
X0148458Y0126172D01*
X0148540Y0126308D01*
X0148624Y0126442D01*
X0148713Y0126573D01*
X0148804Y0126702D01*
X0148899Y0126829D01*
X0148996Y0126954D01*
X0149097Y0127076D01*
X0149201Y0127195D01*
X0149308Y0127312D01*
X0149418Y0127426D01*
X0149531Y0127537D01*
X0149646Y0127646D01*
X0149764Y0127751D01*
X0149885Y0127853D01*
X0150008Y0127953D01*
X0150134Y0128049D01*
X0150262Y0128142D01*
X0150392Y0128232D01*
X0150525Y0128318D01*
X0150660Y0128402D01*
X0150796Y0128481D01*
X0150935Y0128558D01*
X0151076Y0128630D01*
X0151218Y0128700D01*
X0151362Y0128765D01*
X0151508Y0128827D01*
X0151655Y0128885D01*
X0151804Y0128940D01*
X0151954Y0128991D01*
X0152105Y0129038D01*
X0152257Y0129081D01*
X0152410Y0129120D01*
X0152565Y0129156D01*
X0152720Y0129187D01*
X0152876Y0129215D01*
X0153032Y0129239D01*
X0153189Y0129259D01*
X0153347Y0129275D01*
X0153504Y0129287D01*
X0153663Y0129295D01*
X0153821Y0129299D01*
X0153979Y0129299D01*
X0154137Y0129295D01*
X0154296Y0129287D01*
X0154453Y0129275D01*
X0154611Y0129259D01*
X0154768Y0129239D01*
X0154924Y0129215D01*
X0155080Y0129187D01*
X0155235Y0129156D01*
X0155390Y0129120D01*
X0155543Y0129081D01*
X0155695Y0129038D01*
X0155846Y0128991D01*
X0155996Y0128940D01*
X0156145Y0128885D01*
X0156292Y0128827D01*
X0156438Y0128765D01*
X0156582Y0128700D01*
X0156724Y0128630D01*
X0156865Y0128558D01*
X0157004Y0128481D01*
X0157140Y0128402D01*
X0157275Y0128318D01*
X0157408Y0128232D01*
X0157538Y0128142D01*
X0157666Y0128049D01*
X0157792Y0127953D01*
X0157915Y0127853D01*
X0158036Y0127751D01*
X0158154Y0127646D01*
X0158269Y0127537D01*
X0158382Y0127426D01*
X0158492Y0127312D01*
X0158599Y0127195D01*
X0158703Y0127076D01*
X0158804Y0126954D01*
X0158901Y0126829D01*
X0158996Y0126702D01*
X0159087Y0126573D01*
X0159176Y0126442D01*
X0159260Y0126308D01*
X0159342Y0126172D01*
X0159420Y0126035D01*
X0159494Y0125895D01*
X0159565Y0125753D01*
X0159633Y0125610D01*
X0159697Y0125465D01*
X0159757Y0125319D01*
X0159813Y0125171D01*
X0159866Y0125022D01*
X0159915Y0124871D01*
X0159960Y0124719D01*
X0160001Y0124566D01*
X0160039Y0124413D01*
X0160072Y0124258D01*
X0160102Y0124102D01*
X0160128Y0123946D01*
X0160149Y0123789D01*
X0160167Y0123632D01*
X0160181Y0123474D01*
X0160191Y0123316D01*
X0160197Y0123158D01*
X0160199Y0123000D01*
X0160197Y0122842D01*
X0160191Y0122684D01*
X0160181Y0122526D01*
X0160167Y0122368D01*
X0160149Y0122211D01*
X0160128Y0122054D01*
X0160102Y0121898D01*
X0160072Y0121742D01*
X0160039Y0121587D01*
X0160001Y0121434D01*
X0159960Y0121281D01*
X0159915Y0121129D01*
X0159866Y0120978D01*
X0159813Y0120829D01*
X0159757Y0120681D01*
X0159697Y0120535D01*
X0159633Y0120390D01*
X0159565Y0120247D01*
X0159494Y0120105D01*
X0159420Y0119965D01*
X0159342Y0119828D01*
X0159260Y0119692D01*
X0159176Y0119558D01*
X0159087Y0119427D01*
X0158996Y0119298D01*
X0158901Y0119171D01*
X0158804Y0119046D01*
X0158703Y0118924D01*
X0158599Y0118805D01*
X0158492Y0118688D01*
X0158382Y0118574D01*
X0158269Y0118463D01*
X0158154Y0118354D01*
X0158036Y0118249D01*
X0157915Y0118147D01*
X0157792Y0118047D01*
X0157666Y0117951D01*
X0157538Y0117858D01*
X0157408Y0117768D01*
X0157275Y0117682D01*
X0157140Y0117598D01*
X0157004Y0117519D01*
X0156865Y0117442D01*
X0156724Y0117370D01*
X0156582Y0117300D01*
X0156438Y0117235D01*
X0156292Y0117173D01*
X0156145Y0117115D01*
X0155996Y0117060D01*
X0155846Y0117009D01*
X0155695Y0116962D01*
X0155543Y0116919D01*
X0155390Y0116880D01*
X0155235Y0116844D01*
X0155080Y0116813D01*
X0154924Y0116785D01*
X0154768Y0116761D01*
X0154611Y0116741D01*
X0154453Y0116725D01*
X0154296Y0116713D01*
X0154137Y0116705D01*
X0153979Y0116701D01*
X0153821Y0116701D01*
X0153663Y0116705D01*
X0153504Y0116713D01*
X0153347Y0116725D01*
X0153189Y0116741D01*
X0153032Y0116761D01*
X0152876Y0116785D01*
X0152720Y0116813D01*
X0152565Y0116844D01*
X0152410Y0116880D01*
X0152257Y0116919D01*
X0152105Y0116962D01*
X0151954Y0117009D01*
X0151804Y0117060D01*
X0151655Y0117115D01*
X0151508Y0117173D01*
X0151362Y0117235D01*
X0151218Y0117300D01*
X0151076Y0117370D01*
X0150935Y0117442D01*
X0150796Y0117519D01*
X0150660Y0117598D01*
X0150525Y0117682D01*
X0150392Y0117768D01*
X0150262Y0117858D01*
X0150134Y0117951D01*
X0150008Y0118047D01*
X0149885Y0118147D01*
X0149764Y0118249D01*
X0149646Y0118354D01*
X0149531Y0118463D01*
X0149418Y0118574D01*
X0149308Y0118688D01*
X0149201Y0118805D01*
X0149097Y0118924D01*
X0148996Y0119046D01*
X0148899Y0119171D01*
X0148804Y0119298D01*
X0148713Y0119427D01*
X0148624Y0119558D01*
X0148540Y0119692D01*
X0148458Y0119828D01*
X0148380Y0119965D01*
X0148306Y0120105D01*
X0148235Y0120247D01*
X0148167Y0120390D01*
X0148103Y0120535D01*
X0148043Y0120681D01*
X0147987Y0120829D01*
X0147934Y0120978D01*
X0147885Y0121129D01*
X0147840Y0121281D01*
X0147799Y0121434D01*
X0147761Y0121587D01*
X0147728Y0121742D01*
X0147698Y0121898D01*
X0147672Y0122054D01*
X0147651Y0122211D01*
X0147633Y0122368D01*
X0147619Y0122526D01*
X0147609Y0122684D01*
X0147603Y0122842D01*
X0147601Y0123000D01*
X0157502Y0053000D02*
X0157504Y0053160D01*
X0157510Y0053319D01*
X0157520Y0053478D01*
X0157534Y0053637D01*
X0157552Y0053796D01*
X0157573Y0053954D01*
X0157599Y0054111D01*
X0157629Y0054268D01*
X0157662Y0054424D01*
X0157700Y0054579D01*
X0157741Y0054733D01*
X0157786Y0054886D01*
X0157835Y0055038D01*
X0157888Y0055188D01*
X0157944Y0055337D01*
X0158004Y0055485D01*
X0158068Y0055631D01*
X0158136Y0055776D01*
X0158207Y0055919D01*
X0158281Y0056060D01*
X0158359Y0056199D01*
X0158441Y0056336D01*
X0158526Y0056471D01*
X0158614Y0056604D01*
X0158705Y0056735D01*
X0158800Y0056863D01*
X0158898Y0056989D01*
X0158999Y0057113D01*
X0159103Y0057233D01*
X0159210Y0057352D01*
X0159320Y0057467D01*
X0159433Y0057580D01*
X0159548Y0057690D01*
X0159667Y0057797D01*
X0159787Y0057901D01*
X0159911Y0058002D01*
X0160037Y0058100D01*
X0160165Y0058195D01*
X0160296Y0058286D01*
X0160429Y0058374D01*
X0160564Y0058459D01*
X0160701Y0058541D01*
X0160840Y0058619D01*
X0160981Y0058693D01*
X0161124Y0058764D01*
X0161269Y0058832D01*
X0161415Y0058896D01*
X0161563Y0058956D01*
X0161712Y0059012D01*
X0161862Y0059065D01*
X0162014Y0059114D01*
X0162167Y0059159D01*
X0162321Y0059200D01*
X0162476Y0059238D01*
X0162632Y0059271D01*
X0162789Y0059301D01*
X0162946Y0059327D01*
X0163104Y0059348D01*
X0163263Y0059366D01*
X0163422Y0059380D01*
X0163581Y0059390D01*
X0163740Y0059396D01*
X0163900Y0059398D01*
X0164060Y0059396D01*
X0164219Y0059390D01*
X0164378Y0059380D01*
X0164537Y0059366D01*
X0164696Y0059348D01*
X0164854Y0059327D01*
X0165011Y0059301D01*
X0165168Y0059271D01*
X0165324Y0059238D01*
X0165479Y0059200D01*
X0165633Y0059159D01*
X0165786Y0059114D01*
X0165938Y0059065D01*
X0166088Y0059012D01*
X0166237Y0058956D01*
X0166385Y0058896D01*
X0166531Y0058832D01*
X0166676Y0058764D01*
X0166819Y0058693D01*
X0166960Y0058619D01*
X0167099Y0058541D01*
X0167236Y0058459D01*
X0167371Y0058374D01*
X0167504Y0058286D01*
X0167635Y0058195D01*
X0167763Y0058100D01*
X0167889Y0058002D01*
X0168013Y0057901D01*
X0168133Y0057797D01*
X0168252Y0057690D01*
X0168367Y0057580D01*
X0168480Y0057467D01*
X0168590Y0057352D01*
X0168697Y0057233D01*
X0168801Y0057113D01*
X0168902Y0056989D01*
X0169000Y0056863D01*
X0169095Y0056735D01*
X0169186Y0056604D01*
X0169274Y0056471D01*
X0169359Y0056336D01*
X0169441Y0056199D01*
X0169519Y0056060D01*
X0169593Y0055919D01*
X0169664Y0055776D01*
X0169732Y0055631D01*
X0169796Y0055485D01*
X0169856Y0055337D01*
X0169912Y0055188D01*
X0169965Y0055038D01*
X0170014Y0054886D01*
X0170059Y0054733D01*
X0170100Y0054579D01*
X0170138Y0054424D01*
X0170171Y0054268D01*
X0170201Y0054111D01*
X0170227Y0053954D01*
X0170248Y0053796D01*
X0170266Y0053637D01*
X0170280Y0053478D01*
X0170290Y0053319D01*
X0170296Y0053160D01*
X0170298Y0053000D01*
X0170296Y0052840D01*
X0170290Y0052681D01*
X0170280Y0052522D01*
X0170266Y0052363D01*
X0170248Y0052204D01*
X0170227Y0052046D01*
X0170201Y0051889D01*
X0170171Y0051732D01*
X0170138Y0051576D01*
X0170100Y0051421D01*
X0170059Y0051267D01*
X0170014Y0051114D01*
X0169965Y0050962D01*
X0169912Y0050812D01*
X0169856Y0050663D01*
X0169796Y0050515D01*
X0169732Y0050369D01*
X0169664Y0050224D01*
X0169593Y0050081D01*
X0169519Y0049940D01*
X0169441Y0049801D01*
X0169359Y0049664D01*
X0169274Y0049529D01*
X0169186Y0049396D01*
X0169095Y0049265D01*
X0169000Y0049137D01*
X0168902Y0049011D01*
X0168801Y0048887D01*
X0168697Y0048767D01*
X0168590Y0048648D01*
X0168480Y0048533D01*
X0168367Y0048420D01*
X0168252Y0048310D01*
X0168133Y0048203D01*
X0168013Y0048099D01*
X0167889Y0047998D01*
X0167763Y0047900D01*
X0167635Y0047805D01*
X0167504Y0047714D01*
X0167371Y0047626D01*
X0167236Y0047541D01*
X0167099Y0047459D01*
X0166960Y0047381D01*
X0166819Y0047307D01*
X0166676Y0047236D01*
X0166531Y0047168D01*
X0166385Y0047104D01*
X0166237Y0047044D01*
X0166088Y0046988D01*
X0165938Y0046935D01*
X0165786Y0046886D01*
X0165633Y0046841D01*
X0165479Y0046800D01*
X0165324Y0046762D01*
X0165168Y0046729D01*
X0165011Y0046699D01*
X0164854Y0046673D01*
X0164696Y0046652D01*
X0164537Y0046634D01*
X0164378Y0046620D01*
X0164219Y0046610D01*
X0164060Y0046604D01*
X0163900Y0046602D01*
X0163740Y0046604D01*
X0163581Y0046610D01*
X0163422Y0046620D01*
X0163263Y0046634D01*
X0163104Y0046652D01*
X0162946Y0046673D01*
X0162789Y0046699D01*
X0162632Y0046729D01*
X0162476Y0046762D01*
X0162321Y0046800D01*
X0162167Y0046841D01*
X0162014Y0046886D01*
X0161862Y0046935D01*
X0161712Y0046988D01*
X0161563Y0047044D01*
X0161415Y0047104D01*
X0161269Y0047168D01*
X0161124Y0047236D01*
X0160981Y0047307D01*
X0160840Y0047381D01*
X0160701Y0047459D01*
X0160564Y0047541D01*
X0160429Y0047626D01*
X0160296Y0047714D01*
X0160165Y0047805D01*
X0160037Y0047900D01*
X0159911Y0047998D01*
X0159787Y0048099D01*
X0159667Y0048203D01*
X0159548Y0048310D01*
X0159433Y0048420D01*
X0159320Y0048533D01*
X0159210Y0048648D01*
X0159103Y0048767D01*
X0158999Y0048887D01*
X0158898Y0049011D01*
X0158800Y0049137D01*
X0158705Y0049265D01*
X0158614Y0049396D01*
X0158526Y0049529D01*
X0158441Y0049664D01*
X0158359Y0049801D01*
X0158281Y0049940D01*
X0158207Y0050081D01*
X0158136Y0050224D01*
X0158068Y0050369D01*
X0158004Y0050515D01*
X0157944Y0050663D01*
X0157888Y0050812D01*
X0157835Y0050962D01*
X0157786Y0051114D01*
X0157741Y0051267D01*
X0157700Y0051421D01*
X0157662Y0051576D01*
X0157629Y0051732D01*
X0157599Y0051889D01*
X0157573Y0052046D01*
X0157552Y0052204D01*
X0157534Y0052363D01*
X0157520Y0052522D01*
X0157510Y0052681D01*
X0157504Y0052840D01*
X0157502Y0053000D01*
X0185101Y0023000D02*
X0185103Y0023158D01*
X0185109Y0023316D01*
X0185119Y0023474D01*
X0185133Y0023632D01*
X0185151Y0023789D01*
X0185172Y0023946D01*
X0185198Y0024102D01*
X0185228Y0024258D01*
X0185261Y0024413D01*
X0185299Y0024566D01*
X0185340Y0024719D01*
X0185385Y0024871D01*
X0185434Y0025022D01*
X0185487Y0025171D01*
X0185543Y0025319D01*
X0185603Y0025465D01*
X0185667Y0025610D01*
X0185735Y0025753D01*
X0185806Y0025895D01*
X0185880Y0026035D01*
X0185958Y0026172D01*
X0186040Y0026308D01*
X0186124Y0026442D01*
X0186213Y0026573D01*
X0186304Y0026702D01*
X0186399Y0026829D01*
X0186496Y0026954D01*
X0186597Y0027076D01*
X0186701Y0027195D01*
X0186808Y0027312D01*
X0186918Y0027426D01*
X0187031Y0027537D01*
X0187146Y0027646D01*
X0187264Y0027751D01*
X0187385Y0027853D01*
X0187508Y0027953D01*
X0187634Y0028049D01*
X0187762Y0028142D01*
X0187892Y0028232D01*
X0188025Y0028318D01*
X0188160Y0028402D01*
X0188296Y0028481D01*
X0188435Y0028558D01*
X0188576Y0028630D01*
X0188718Y0028700D01*
X0188862Y0028765D01*
X0189008Y0028827D01*
X0189155Y0028885D01*
X0189304Y0028940D01*
X0189454Y0028991D01*
X0189605Y0029038D01*
X0189757Y0029081D01*
X0189910Y0029120D01*
X0190065Y0029156D01*
X0190220Y0029187D01*
X0190376Y0029215D01*
X0190532Y0029239D01*
X0190689Y0029259D01*
X0190847Y0029275D01*
X0191004Y0029287D01*
X0191163Y0029295D01*
X0191321Y0029299D01*
X0191479Y0029299D01*
X0191637Y0029295D01*
X0191796Y0029287D01*
X0191953Y0029275D01*
X0192111Y0029259D01*
X0192268Y0029239D01*
X0192424Y0029215D01*
X0192580Y0029187D01*
X0192735Y0029156D01*
X0192890Y0029120D01*
X0193043Y0029081D01*
X0193195Y0029038D01*
X0193346Y0028991D01*
X0193496Y0028940D01*
X0193645Y0028885D01*
X0193792Y0028827D01*
X0193938Y0028765D01*
X0194082Y0028700D01*
X0194224Y0028630D01*
X0194365Y0028558D01*
X0194504Y0028481D01*
X0194640Y0028402D01*
X0194775Y0028318D01*
X0194908Y0028232D01*
X0195038Y0028142D01*
X0195166Y0028049D01*
X0195292Y0027953D01*
X0195415Y0027853D01*
X0195536Y0027751D01*
X0195654Y0027646D01*
X0195769Y0027537D01*
X0195882Y0027426D01*
X0195992Y0027312D01*
X0196099Y0027195D01*
X0196203Y0027076D01*
X0196304Y0026954D01*
X0196401Y0026829D01*
X0196496Y0026702D01*
X0196587Y0026573D01*
X0196676Y0026442D01*
X0196760Y0026308D01*
X0196842Y0026172D01*
X0196920Y0026035D01*
X0196994Y0025895D01*
X0197065Y0025753D01*
X0197133Y0025610D01*
X0197197Y0025465D01*
X0197257Y0025319D01*
X0197313Y0025171D01*
X0197366Y0025022D01*
X0197415Y0024871D01*
X0197460Y0024719D01*
X0197501Y0024566D01*
X0197539Y0024413D01*
X0197572Y0024258D01*
X0197602Y0024102D01*
X0197628Y0023946D01*
X0197649Y0023789D01*
X0197667Y0023632D01*
X0197681Y0023474D01*
X0197691Y0023316D01*
X0197697Y0023158D01*
X0197699Y0023000D01*
X0197697Y0022842D01*
X0197691Y0022684D01*
X0197681Y0022526D01*
X0197667Y0022368D01*
X0197649Y0022211D01*
X0197628Y0022054D01*
X0197602Y0021898D01*
X0197572Y0021742D01*
X0197539Y0021587D01*
X0197501Y0021434D01*
X0197460Y0021281D01*
X0197415Y0021129D01*
X0197366Y0020978D01*
X0197313Y0020829D01*
X0197257Y0020681D01*
X0197197Y0020535D01*
X0197133Y0020390D01*
X0197065Y0020247D01*
X0196994Y0020105D01*
X0196920Y0019965D01*
X0196842Y0019828D01*
X0196760Y0019692D01*
X0196676Y0019558D01*
X0196587Y0019427D01*
X0196496Y0019298D01*
X0196401Y0019171D01*
X0196304Y0019046D01*
X0196203Y0018924D01*
X0196099Y0018805D01*
X0195992Y0018688D01*
X0195882Y0018574D01*
X0195769Y0018463D01*
X0195654Y0018354D01*
X0195536Y0018249D01*
X0195415Y0018147D01*
X0195292Y0018047D01*
X0195166Y0017951D01*
X0195038Y0017858D01*
X0194908Y0017768D01*
X0194775Y0017682D01*
X0194640Y0017598D01*
X0194504Y0017519D01*
X0194365Y0017442D01*
X0194224Y0017370D01*
X0194082Y0017300D01*
X0193938Y0017235D01*
X0193792Y0017173D01*
X0193645Y0017115D01*
X0193496Y0017060D01*
X0193346Y0017009D01*
X0193195Y0016962D01*
X0193043Y0016919D01*
X0192890Y0016880D01*
X0192735Y0016844D01*
X0192580Y0016813D01*
X0192424Y0016785D01*
X0192268Y0016761D01*
X0192111Y0016741D01*
X0191953Y0016725D01*
X0191796Y0016713D01*
X0191637Y0016705D01*
X0191479Y0016701D01*
X0191321Y0016701D01*
X0191163Y0016705D01*
X0191004Y0016713D01*
X0190847Y0016725D01*
X0190689Y0016741D01*
X0190532Y0016761D01*
X0190376Y0016785D01*
X0190220Y0016813D01*
X0190065Y0016844D01*
X0189910Y0016880D01*
X0189757Y0016919D01*
X0189605Y0016962D01*
X0189454Y0017009D01*
X0189304Y0017060D01*
X0189155Y0017115D01*
X0189008Y0017173D01*
X0188862Y0017235D01*
X0188718Y0017300D01*
X0188576Y0017370D01*
X0188435Y0017442D01*
X0188296Y0017519D01*
X0188160Y0017598D01*
X0188025Y0017682D01*
X0187892Y0017768D01*
X0187762Y0017858D01*
X0187634Y0017951D01*
X0187508Y0018047D01*
X0187385Y0018147D01*
X0187264Y0018249D01*
X0187146Y0018354D01*
X0187031Y0018463D01*
X0186918Y0018574D01*
X0186808Y0018688D01*
X0186701Y0018805D01*
X0186597Y0018924D01*
X0186496Y0019046D01*
X0186399Y0019171D01*
X0186304Y0019298D01*
X0186213Y0019427D01*
X0186124Y0019558D01*
X0186040Y0019692D01*
X0185958Y0019828D01*
X0185880Y0019965D01*
X0185806Y0020105D01*
X0185735Y0020247D01*
X0185667Y0020390D01*
X0185603Y0020535D01*
X0185543Y0020681D01*
X0185487Y0020829D01*
X0185434Y0020978D01*
X0185385Y0021129D01*
X0185340Y0021281D01*
X0185299Y0021434D01*
X0185261Y0021587D01*
X0185228Y0021742D01*
X0185198Y0021898D01*
X0185172Y0022054D01*
X0185151Y0022211D01*
X0185133Y0022368D01*
X0185119Y0022526D01*
X0185109Y0022684D01*
X0185103Y0022842D01*
X0185101Y0023000D01*
X0042601Y0123000D02*
X0042603Y0123158D01*
X0042609Y0123316D01*
X0042619Y0123474D01*
X0042633Y0123632D01*
X0042651Y0123789D01*
X0042672Y0123946D01*
X0042698Y0124102D01*
X0042728Y0124258D01*
X0042761Y0124413D01*
X0042799Y0124566D01*
X0042840Y0124719D01*
X0042885Y0124871D01*
X0042934Y0125022D01*
X0042987Y0125171D01*
X0043043Y0125319D01*
X0043103Y0125465D01*
X0043167Y0125610D01*
X0043235Y0125753D01*
X0043306Y0125895D01*
X0043380Y0126035D01*
X0043458Y0126172D01*
X0043540Y0126308D01*
X0043624Y0126442D01*
X0043713Y0126573D01*
X0043804Y0126702D01*
X0043899Y0126829D01*
X0043996Y0126954D01*
X0044097Y0127076D01*
X0044201Y0127195D01*
X0044308Y0127312D01*
X0044418Y0127426D01*
X0044531Y0127537D01*
X0044646Y0127646D01*
X0044764Y0127751D01*
X0044885Y0127853D01*
X0045008Y0127953D01*
X0045134Y0128049D01*
X0045262Y0128142D01*
X0045392Y0128232D01*
X0045525Y0128318D01*
X0045660Y0128402D01*
X0045796Y0128481D01*
X0045935Y0128558D01*
X0046076Y0128630D01*
X0046218Y0128700D01*
X0046362Y0128765D01*
X0046508Y0128827D01*
X0046655Y0128885D01*
X0046804Y0128940D01*
X0046954Y0128991D01*
X0047105Y0129038D01*
X0047257Y0129081D01*
X0047410Y0129120D01*
X0047565Y0129156D01*
X0047720Y0129187D01*
X0047876Y0129215D01*
X0048032Y0129239D01*
X0048189Y0129259D01*
X0048347Y0129275D01*
X0048504Y0129287D01*
X0048663Y0129295D01*
X0048821Y0129299D01*
X0048979Y0129299D01*
X0049137Y0129295D01*
X0049296Y0129287D01*
X0049453Y0129275D01*
X0049611Y0129259D01*
X0049768Y0129239D01*
X0049924Y0129215D01*
X0050080Y0129187D01*
X0050235Y0129156D01*
X0050390Y0129120D01*
X0050543Y0129081D01*
X0050695Y0129038D01*
X0050846Y0128991D01*
X0050996Y0128940D01*
X0051145Y0128885D01*
X0051292Y0128827D01*
X0051438Y0128765D01*
X0051582Y0128700D01*
X0051724Y0128630D01*
X0051865Y0128558D01*
X0052004Y0128481D01*
X0052140Y0128402D01*
X0052275Y0128318D01*
X0052408Y0128232D01*
X0052538Y0128142D01*
X0052666Y0128049D01*
X0052792Y0127953D01*
X0052915Y0127853D01*
X0053036Y0127751D01*
X0053154Y0127646D01*
X0053269Y0127537D01*
X0053382Y0127426D01*
X0053492Y0127312D01*
X0053599Y0127195D01*
X0053703Y0127076D01*
X0053804Y0126954D01*
X0053901Y0126829D01*
X0053996Y0126702D01*
X0054087Y0126573D01*
X0054176Y0126442D01*
X0054260Y0126308D01*
X0054342Y0126172D01*
X0054420Y0126035D01*
X0054494Y0125895D01*
X0054565Y0125753D01*
X0054633Y0125610D01*
X0054697Y0125465D01*
X0054757Y0125319D01*
X0054813Y0125171D01*
X0054866Y0125022D01*
X0054915Y0124871D01*
X0054960Y0124719D01*
X0055001Y0124566D01*
X0055039Y0124413D01*
X0055072Y0124258D01*
X0055102Y0124102D01*
X0055128Y0123946D01*
X0055149Y0123789D01*
X0055167Y0123632D01*
X0055181Y0123474D01*
X0055191Y0123316D01*
X0055197Y0123158D01*
X0055199Y0123000D01*
X0055197Y0122842D01*
X0055191Y0122684D01*
X0055181Y0122526D01*
X0055167Y0122368D01*
X0055149Y0122211D01*
X0055128Y0122054D01*
X0055102Y0121898D01*
X0055072Y0121742D01*
X0055039Y0121587D01*
X0055001Y0121434D01*
X0054960Y0121281D01*
X0054915Y0121129D01*
X0054866Y0120978D01*
X0054813Y0120829D01*
X0054757Y0120681D01*
X0054697Y0120535D01*
X0054633Y0120390D01*
X0054565Y0120247D01*
X0054494Y0120105D01*
X0054420Y0119965D01*
X0054342Y0119828D01*
X0054260Y0119692D01*
X0054176Y0119558D01*
X0054087Y0119427D01*
X0053996Y0119298D01*
X0053901Y0119171D01*
X0053804Y0119046D01*
X0053703Y0118924D01*
X0053599Y0118805D01*
X0053492Y0118688D01*
X0053382Y0118574D01*
X0053269Y0118463D01*
X0053154Y0118354D01*
X0053036Y0118249D01*
X0052915Y0118147D01*
X0052792Y0118047D01*
X0052666Y0117951D01*
X0052538Y0117858D01*
X0052408Y0117768D01*
X0052275Y0117682D01*
X0052140Y0117598D01*
X0052004Y0117519D01*
X0051865Y0117442D01*
X0051724Y0117370D01*
X0051582Y0117300D01*
X0051438Y0117235D01*
X0051292Y0117173D01*
X0051145Y0117115D01*
X0050996Y0117060D01*
X0050846Y0117009D01*
X0050695Y0116962D01*
X0050543Y0116919D01*
X0050390Y0116880D01*
X0050235Y0116844D01*
X0050080Y0116813D01*
X0049924Y0116785D01*
X0049768Y0116761D01*
X0049611Y0116741D01*
X0049453Y0116725D01*
X0049296Y0116713D01*
X0049137Y0116705D01*
X0048979Y0116701D01*
X0048821Y0116701D01*
X0048663Y0116705D01*
X0048504Y0116713D01*
X0048347Y0116725D01*
X0048189Y0116741D01*
X0048032Y0116761D01*
X0047876Y0116785D01*
X0047720Y0116813D01*
X0047565Y0116844D01*
X0047410Y0116880D01*
X0047257Y0116919D01*
X0047105Y0116962D01*
X0046954Y0117009D01*
X0046804Y0117060D01*
X0046655Y0117115D01*
X0046508Y0117173D01*
X0046362Y0117235D01*
X0046218Y0117300D01*
X0046076Y0117370D01*
X0045935Y0117442D01*
X0045796Y0117519D01*
X0045660Y0117598D01*
X0045525Y0117682D01*
X0045392Y0117768D01*
X0045262Y0117858D01*
X0045134Y0117951D01*
X0045008Y0118047D01*
X0044885Y0118147D01*
X0044764Y0118249D01*
X0044646Y0118354D01*
X0044531Y0118463D01*
X0044418Y0118574D01*
X0044308Y0118688D01*
X0044201Y0118805D01*
X0044097Y0118924D01*
X0043996Y0119046D01*
X0043899Y0119171D01*
X0043804Y0119298D01*
X0043713Y0119427D01*
X0043624Y0119558D01*
X0043540Y0119692D01*
X0043458Y0119828D01*
X0043380Y0119965D01*
X0043306Y0120105D01*
X0043235Y0120247D01*
X0043167Y0120390D01*
X0043103Y0120535D01*
X0043043Y0120681D01*
X0042987Y0120829D01*
X0042934Y0120978D01*
X0042885Y0121129D01*
X0042840Y0121281D01*
X0042799Y0121434D01*
X0042761Y0121587D01*
X0042728Y0121742D01*
X0042698Y0121898D01*
X0042672Y0122054D01*
X0042651Y0122211D01*
X0042633Y0122368D01*
X0042619Y0122526D01*
X0042609Y0122684D01*
X0042603Y0122842D01*
X0042601Y0123000D01*
X0042601Y0253000D02*
X0042603Y0253158D01*
X0042609Y0253316D01*
X0042619Y0253474D01*
X0042633Y0253632D01*
X0042651Y0253789D01*
X0042672Y0253946D01*
X0042698Y0254102D01*
X0042728Y0254258D01*
X0042761Y0254413D01*
X0042799Y0254566D01*
X0042840Y0254719D01*
X0042885Y0254871D01*
X0042934Y0255022D01*
X0042987Y0255171D01*
X0043043Y0255319D01*
X0043103Y0255465D01*
X0043167Y0255610D01*
X0043235Y0255753D01*
X0043306Y0255895D01*
X0043380Y0256035D01*
X0043458Y0256172D01*
X0043540Y0256308D01*
X0043624Y0256442D01*
X0043713Y0256573D01*
X0043804Y0256702D01*
X0043899Y0256829D01*
X0043996Y0256954D01*
X0044097Y0257076D01*
X0044201Y0257195D01*
X0044308Y0257312D01*
X0044418Y0257426D01*
X0044531Y0257537D01*
X0044646Y0257646D01*
X0044764Y0257751D01*
X0044885Y0257853D01*
X0045008Y0257953D01*
X0045134Y0258049D01*
X0045262Y0258142D01*
X0045392Y0258232D01*
X0045525Y0258318D01*
X0045660Y0258402D01*
X0045796Y0258481D01*
X0045935Y0258558D01*
X0046076Y0258630D01*
X0046218Y0258700D01*
X0046362Y0258765D01*
X0046508Y0258827D01*
X0046655Y0258885D01*
X0046804Y0258940D01*
X0046954Y0258991D01*
X0047105Y0259038D01*
X0047257Y0259081D01*
X0047410Y0259120D01*
X0047565Y0259156D01*
X0047720Y0259187D01*
X0047876Y0259215D01*
X0048032Y0259239D01*
X0048189Y0259259D01*
X0048347Y0259275D01*
X0048504Y0259287D01*
X0048663Y0259295D01*
X0048821Y0259299D01*
X0048979Y0259299D01*
X0049137Y0259295D01*
X0049296Y0259287D01*
X0049453Y0259275D01*
X0049611Y0259259D01*
X0049768Y0259239D01*
X0049924Y0259215D01*
X0050080Y0259187D01*
X0050235Y0259156D01*
X0050390Y0259120D01*
X0050543Y0259081D01*
X0050695Y0259038D01*
X0050846Y0258991D01*
X0050996Y0258940D01*
X0051145Y0258885D01*
X0051292Y0258827D01*
X0051438Y0258765D01*
X0051582Y0258700D01*
X0051724Y0258630D01*
X0051865Y0258558D01*
X0052004Y0258481D01*
X0052140Y0258402D01*
X0052275Y0258318D01*
X0052408Y0258232D01*
X0052538Y0258142D01*
X0052666Y0258049D01*
X0052792Y0257953D01*
X0052915Y0257853D01*
X0053036Y0257751D01*
X0053154Y0257646D01*
X0053269Y0257537D01*
X0053382Y0257426D01*
X0053492Y0257312D01*
X0053599Y0257195D01*
X0053703Y0257076D01*
X0053804Y0256954D01*
X0053901Y0256829D01*
X0053996Y0256702D01*
X0054087Y0256573D01*
X0054176Y0256442D01*
X0054260Y0256308D01*
X0054342Y0256172D01*
X0054420Y0256035D01*
X0054494Y0255895D01*
X0054565Y0255753D01*
X0054633Y0255610D01*
X0054697Y0255465D01*
X0054757Y0255319D01*
X0054813Y0255171D01*
X0054866Y0255022D01*
X0054915Y0254871D01*
X0054960Y0254719D01*
X0055001Y0254566D01*
X0055039Y0254413D01*
X0055072Y0254258D01*
X0055102Y0254102D01*
X0055128Y0253946D01*
X0055149Y0253789D01*
X0055167Y0253632D01*
X0055181Y0253474D01*
X0055191Y0253316D01*
X0055197Y0253158D01*
X0055199Y0253000D01*
X0055197Y0252842D01*
X0055191Y0252684D01*
X0055181Y0252526D01*
X0055167Y0252368D01*
X0055149Y0252211D01*
X0055128Y0252054D01*
X0055102Y0251898D01*
X0055072Y0251742D01*
X0055039Y0251587D01*
X0055001Y0251434D01*
X0054960Y0251281D01*
X0054915Y0251129D01*
X0054866Y0250978D01*
X0054813Y0250829D01*
X0054757Y0250681D01*
X0054697Y0250535D01*
X0054633Y0250390D01*
X0054565Y0250247D01*
X0054494Y0250105D01*
X0054420Y0249965D01*
X0054342Y0249828D01*
X0054260Y0249692D01*
X0054176Y0249558D01*
X0054087Y0249427D01*
X0053996Y0249298D01*
X0053901Y0249171D01*
X0053804Y0249046D01*
X0053703Y0248924D01*
X0053599Y0248805D01*
X0053492Y0248688D01*
X0053382Y0248574D01*
X0053269Y0248463D01*
X0053154Y0248354D01*
X0053036Y0248249D01*
X0052915Y0248147D01*
X0052792Y0248047D01*
X0052666Y0247951D01*
X0052538Y0247858D01*
X0052408Y0247768D01*
X0052275Y0247682D01*
X0052140Y0247598D01*
X0052004Y0247519D01*
X0051865Y0247442D01*
X0051724Y0247370D01*
X0051582Y0247300D01*
X0051438Y0247235D01*
X0051292Y0247173D01*
X0051145Y0247115D01*
X0050996Y0247060D01*
X0050846Y0247009D01*
X0050695Y0246962D01*
X0050543Y0246919D01*
X0050390Y0246880D01*
X0050235Y0246844D01*
X0050080Y0246813D01*
X0049924Y0246785D01*
X0049768Y0246761D01*
X0049611Y0246741D01*
X0049453Y0246725D01*
X0049296Y0246713D01*
X0049137Y0246705D01*
X0048979Y0246701D01*
X0048821Y0246701D01*
X0048663Y0246705D01*
X0048504Y0246713D01*
X0048347Y0246725D01*
X0048189Y0246741D01*
X0048032Y0246761D01*
X0047876Y0246785D01*
X0047720Y0246813D01*
X0047565Y0246844D01*
X0047410Y0246880D01*
X0047257Y0246919D01*
X0047105Y0246962D01*
X0046954Y0247009D01*
X0046804Y0247060D01*
X0046655Y0247115D01*
X0046508Y0247173D01*
X0046362Y0247235D01*
X0046218Y0247300D01*
X0046076Y0247370D01*
X0045935Y0247442D01*
X0045796Y0247519D01*
X0045660Y0247598D01*
X0045525Y0247682D01*
X0045392Y0247768D01*
X0045262Y0247858D01*
X0045134Y0247951D01*
X0045008Y0248047D01*
X0044885Y0248147D01*
X0044764Y0248249D01*
X0044646Y0248354D01*
X0044531Y0248463D01*
X0044418Y0248574D01*
X0044308Y0248688D01*
X0044201Y0248805D01*
X0044097Y0248924D01*
X0043996Y0249046D01*
X0043899Y0249171D01*
X0043804Y0249298D01*
X0043713Y0249427D01*
X0043624Y0249558D01*
X0043540Y0249692D01*
X0043458Y0249828D01*
X0043380Y0249965D01*
X0043306Y0250105D01*
X0043235Y0250247D01*
X0043167Y0250390D01*
X0043103Y0250535D01*
X0043043Y0250681D01*
X0042987Y0250829D01*
X0042934Y0250978D01*
X0042885Y0251129D01*
X0042840Y0251281D01*
X0042799Y0251434D01*
X0042761Y0251587D01*
X0042728Y0251742D01*
X0042698Y0251898D01*
X0042672Y0252054D01*
X0042651Y0252211D01*
X0042633Y0252368D01*
X0042619Y0252526D01*
X0042609Y0252684D01*
X0042603Y0252842D01*
X0042601Y0253000D01*
X0005101Y0278000D02*
X0005103Y0278158D01*
X0005109Y0278316D01*
X0005119Y0278474D01*
X0005133Y0278632D01*
X0005151Y0278789D01*
X0005172Y0278946D01*
X0005198Y0279102D01*
X0005228Y0279258D01*
X0005261Y0279413D01*
X0005299Y0279566D01*
X0005340Y0279719D01*
X0005385Y0279871D01*
X0005434Y0280022D01*
X0005487Y0280171D01*
X0005543Y0280319D01*
X0005603Y0280465D01*
X0005667Y0280610D01*
X0005735Y0280753D01*
X0005806Y0280895D01*
X0005880Y0281035D01*
X0005958Y0281172D01*
X0006040Y0281308D01*
X0006124Y0281442D01*
X0006213Y0281573D01*
X0006304Y0281702D01*
X0006399Y0281829D01*
X0006496Y0281954D01*
X0006597Y0282076D01*
X0006701Y0282195D01*
X0006808Y0282312D01*
X0006918Y0282426D01*
X0007031Y0282537D01*
X0007146Y0282646D01*
X0007264Y0282751D01*
X0007385Y0282853D01*
X0007508Y0282953D01*
X0007634Y0283049D01*
X0007762Y0283142D01*
X0007892Y0283232D01*
X0008025Y0283318D01*
X0008160Y0283402D01*
X0008296Y0283481D01*
X0008435Y0283558D01*
X0008576Y0283630D01*
X0008718Y0283700D01*
X0008862Y0283765D01*
X0009008Y0283827D01*
X0009155Y0283885D01*
X0009304Y0283940D01*
X0009454Y0283991D01*
X0009605Y0284038D01*
X0009757Y0284081D01*
X0009910Y0284120D01*
X0010065Y0284156D01*
X0010220Y0284187D01*
X0010376Y0284215D01*
X0010532Y0284239D01*
X0010689Y0284259D01*
X0010847Y0284275D01*
X0011004Y0284287D01*
X0011163Y0284295D01*
X0011321Y0284299D01*
X0011479Y0284299D01*
X0011637Y0284295D01*
X0011796Y0284287D01*
X0011953Y0284275D01*
X0012111Y0284259D01*
X0012268Y0284239D01*
X0012424Y0284215D01*
X0012580Y0284187D01*
X0012735Y0284156D01*
X0012890Y0284120D01*
X0013043Y0284081D01*
X0013195Y0284038D01*
X0013346Y0283991D01*
X0013496Y0283940D01*
X0013645Y0283885D01*
X0013792Y0283827D01*
X0013938Y0283765D01*
X0014082Y0283700D01*
X0014224Y0283630D01*
X0014365Y0283558D01*
X0014504Y0283481D01*
X0014640Y0283402D01*
X0014775Y0283318D01*
X0014908Y0283232D01*
X0015038Y0283142D01*
X0015166Y0283049D01*
X0015292Y0282953D01*
X0015415Y0282853D01*
X0015536Y0282751D01*
X0015654Y0282646D01*
X0015769Y0282537D01*
X0015882Y0282426D01*
X0015992Y0282312D01*
X0016099Y0282195D01*
X0016203Y0282076D01*
X0016304Y0281954D01*
X0016401Y0281829D01*
X0016496Y0281702D01*
X0016587Y0281573D01*
X0016676Y0281442D01*
X0016760Y0281308D01*
X0016842Y0281172D01*
X0016920Y0281035D01*
X0016994Y0280895D01*
X0017065Y0280753D01*
X0017133Y0280610D01*
X0017197Y0280465D01*
X0017257Y0280319D01*
X0017313Y0280171D01*
X0017366Y0280022D01*
X0017415Y0279871D01*
X0017460Y0279719D01*
X0017501Y0279566D01*
X0017539Y0279413D01*
X0017572Y0279258D01*
X0017602Y0279102D01*
X0017628Y0278946D01*
X0017649Y0278789D01*
X0017667Y0278632D01*
X0017681Y0278474D01*
X0017691Y0278316D01*
X0017697Y0278158D01*
X0017699Y0278000D01*
X0017697Y0277842D01*
X0017691Y0277684D01*
X0017681Y0277526D01*
X0017667Y0277368D01*
X0017649Y0277211D01*
X0017628Y0277054D01*
X0017602Y0276898D01*
X0017572Y0276742D01*
X0017539Y0276587D01*
X0017501Y0276434D01*
X0017460Y0276281D01*
X0017415Y0276129D01*
X0017366Y0275978D01*
X0017313Y0275829D01*
X0017257Y0275681D01*
X0017197Y0275535D01*
X0017133Y0275390D01*
X0017065Y0275247D01*
X0016994Y0275105D01*
X0016920Y0274965D01*
X0016842Y0274828D01*
X0016760Y0274692D01*
X0016676Y0274558D01*
X0016587Y0274427D01*
X0016496Y0274298D01*
X0016401Y0274171D01*
X0016304Y0274046D01*
X0016203Y0273924D01*
X0016099Y0273805D01*
X0015992Y0273688D01*
X0015882Y0273574D01*
X0015769Y0273463D01*
X0015654Y0273354D01*
X0015536Y0273249D01*
X0015415Y0273147D01*
X0015292Y0273047D01*
X0015166Y0272951D01*
X0015038Y0272858D01*
X0014908Y0272768D01*
X0014775Y0272682D01*
X0014640Y0272598D01*
X0014504Y0272519D01*
X0014365Y0272442D01*
X0014224Y0272370D01*
X0014082Y0272300D01*
X0013938Y0272235D01*
X0013792Y0272173D01*
X0013645Y0272115D01*
X0013496Y0272060D01*
X0013346Y0272009D01*
X0013195Y0271962D01*
X0013043Y0271919D01*
X0012890Y0271880D01*
X0012735Y0271844D01*
X0012580Y0271813D01*
X0012424Y0271785D01*
X0012268Y0271761D01*
X0012111Y0271741D01*
X0011953Y0271725D01*
X0011796Y0271713D01*
X0011637Y0271705D01*
X0011479Y0271701D01*
X0011321Y0271701D01*
X0011163Y0271705D01*
X0011004Y0271713D01*
X0010847Y0271725D01*
X0010689Y0271741D01*
X0010532Y0271761D01*
X0010376Y0271785D01*
X0010220Y0271813D01*
X0010065Y0271844D01*
X0009910Y0271880D01*
X0009757Y0271919D01*
X0009605Y0271962D01*
X0009454Y0272009D01*
X0009304Y0272060D01*
X0009155Y0272115D01*
X0009008Y0272173D01*
X0008862Y0272235D01*
X0008718Y0272300D01*
X0008576Y0272370D01*
X0008435Y0272442D01*
X0008296Y0272519D01*
X0008160Y0272598D01*
X0008025Y0272682D01*
X0007892Y0272768D01*
X0007762Y0272858D01*
X0007634Y0272951D01*
X0007508Y0273047D01*
X0007385Y0273147D01*
X0007264Y0273249D01*
X0007146Y0273354D01*
X0007031Y0273463D01*
X0006918Y0273574D01*
X0006808Y0273688D01*
X0006701Y0273805D01*
X0006597Y0273924D01*
X0006496Y0274046D01*
X0006399Y0274171D01*
X0006304Y0274298D01*
X0006213Y0274427D01*
X0006124Y0274558D01*
X0006040Y0274692D01*
X0005958Y0274828D01*
X0005880Y0274965D01*
X0005806Y0275105D01*
X0005735Y0275247D01*
X0005667Y0275390D01*
X0005603Y0275535D01*
X0005543Y0275681D01*
X0005487Y0275829D01*
X0005434Y0275978D01*
X0005385Y0276129D01*
X0005340Y0276281D01*
X0005299Y0276434D01*
X0005261Y0276587D01*
X0005228Y0276742D01*
X0005198Y0276898D01*
X0005172Y0277054D01*
X0005151Y0277211D01*
X0005133Y0277368D01*
X0005119Y0277526D01*
X0005109Y0277684D01*
X0005103Y0277842D01*
X0005101Y0278000D01*
X0147601Y0253000D02*
X0147603Y0253158D01*
X0147609Y0253316D01*
X0147619Y0253474D01*
X0147633Y0253632D01*
X0147651Y0253789D01*
X0147672Y0253946D01*
X0147698Y0254102D01*
X0147728Y0254258D01*
X0147761Y0254413D01*
X0147799Y0254566D01*
X0147840Y0254719D01*
X0147885Y0254871D01*
X0147934Y0255022D01*
X0147987Y0255171D01*
X0148043Y0255319D01*
X0148103Y0255465D01*
X0148167Y0255610D01*
X0148235Y0255753D01*
X0148306Y0255895D01*
X0148380Y0256035D01*
X0148458Y0256172D01*
X0148540Y0256308D01*
X0148624Y0256442D01*
X0148713Y0256573D01*
X0148804Y0256702D01*
X0148899Y0256829D01*
X0148996Y0256954D01*
X0149097Y0257076D01*
X0149201Y0257195D01*
X0149308Y0257312D01*
X0149418Y0257426D01*
X0149531Y0257537D01*
X0149646Y0257646D01*
X0149764Y0257751D01*
X0149885Y0257853D01*
X0150008Y0257953D01*
X0150134Y0258049D01*
X0150262Y0258142D01*
X0150392Y0258232D01*
X0150525Y0258318D01*
X0150660Y0258402D01*
X0150796Y0258481D01*
X0150935Y0258558D01*
X0151076Y0258630D01*
X0151218Y0258700D01*
X0151362Y0258765D01*
X0151508Y0258827D01*
X0151655Y0258885D01*
X0151804Y0258940D01*
X0151954Y0258991D01*
X0152105Y0259038D01*
X0152257Y0259081D01*
X0152410Y0259120D01*
X0152565Y0259156D01*
X0152720Y0259187D01*
X0152876Y0259215D01*
X0153032Y0259239D01*
X0153189Y0259259D01*
X0153347Y0259275D01*
X0153504Y0259287D01*
X0153663Y0259295D01*
X0153821Y0259299D01*
X0153979Y0259299D01*
X0154137Y0259295D01*
X0154296Y0259287D01*
X0154453Y0259275D01*
X0154611Y0259259D01*
X0154768Y0259239D01*
X0154924Y0259215D01*
X0155080Y0259187D01*
X0155235Y0259156D01*
X0155390Y0259120D01*
X0155543Y0259081D01*
X0155695Y0259038D01*
X0155846Y0258991D01*
X0155996Y0258940D01*
X0156145Y0258885D01*
X0156292Y0258827D01*
X0156438Y0258765D01*
X0156582Y0258700D01*
X0156724Y0258630D01*
X0156865Y0258558D01*
X0157004Y0258481D01*
X0157140Y0258402D01*
X0157275Y0258318D01*
X0157408Y0258232D01*
X0157538Y0258142D01*
X0157666Y0258049D01*
X0157792Y0257953D01*
X0157915Y0257853D01*
X0158036Y0257751D01*
X0158154Y0257646D01*
X0158269Y0257537D01*
X0158382Y0257426D01*
X0158492Y0257312D01*
X0158599Y0257195D01*
X0158703Y0257076D01*
X0158804Y0256954D01*
X0158901Y0256829D01*
X0158996Y0256702D01*
X0159087Y0256573D01*
X0159176Y0256442D01*
X0159260Y0256308D01*
X0159342Y0256172D01*
X0159420Y0256035D01*
X0159494Y0255895D01*
X0159565Y0255753D01*
X0159633Y0255610D01*
X0159697Y0255465D01*
X0159757Y0255319D01*
X0159813Y0255171D01*
X0159866Y0255022D01*
X0159915Y0254871D01*
X0159960Y0254719D01*
X0160001Y0254566D01*
X0160039Y0254413D01*
X0160072Y0254258D01*
X0160102Y0254102D01*
X0160128Y0253946D01*
X0160149Y0253789D01*
X0160167Y0253632D01*
X0160181Y0253474D01*
X0160191Y0253316D01*
X0160197Y0253158D01*
X0160199Y0253000D01*
X0160197Y0252842D01*
X0160191Y0252684D01*
X0160181Y0252526D01*
X0160167Y0252368D01*
X0160149Y0252211D01*
X0160128Y0252054D01*
X0160102Y0251898D01*
X0160072Y0251742D01*
X0160039Y0251587D01*
X0160001Y0251434D01*
X0159960Y0251281D01*
X0159915Y0251129D01*
X0159866Y0250978D01*
X0159813Y0250829D01*
X0159757Y0250681D01*
X0159697Y0250535D01*
X0159633Y0250390D01*
X0159565Y0250247D01*
X0159494Y0250105D01*
X0159420Y0249965D01*
X0159342Y0249828D01*
X0159260Y0249692D01*
X0159176Y0249558D01*
X0159087Y0249427D01*
X0158996Y0249298D01*
X0158901Y0249171D01*
X0158804Y0249046D01*
X0158703Y0248924D01*
X0158599Y0248805D01*
X0158492Y0248688D01*
X0158382Y0248574D01*
X0158269Y0248463D01*
X0158154Y0248354D01*
X0158036Y0248249D01*
X0157915Y0248147D01*
X0157792Y0248047D01*
X0157666Y0247951D01*
X0157538Y0247858D01*
X0157408Y0247768D01*
X0157275Y0247682D01*
X0157140Y0247598D01*
X0157004Y0247519D01*
X0156865Y0247442D01*
X0156724Y0247370D01*
X0156582Y0247300D01*
X0156438Y0247235D01*
X0156292Y0247173D01*
X0156145Y0247115D01*
X0155996Y0247060D01*
X0155846Y0247009D01*
X0155695Y0246962D01*
X0155543Y0246919D01*
X0155390Y0246880D01*
X0155235Y0246844D01*
X0155080Y0246813D01*
X0154924Y0246785D01*
X0154768Y0246761D01*
X0154611Y0246741D01*
X0154453Y0246725D01*
X0154296Y0246713D01*
X0154137Y0246705D01*
X0153979Y0246701D01*
X0153821Y0246701D01*
X0153663Y0246705D01*
X0153504Y0246713D01*
X0153347Y0246725D01*
X0153189Y0246741D01*
X0153032Y0246761D01*
X0152876Y0246785D01*
X0152720Y0246813D01*
X0152565Y0246844D01*
X0152410Y0246880D01*
X0152257Y0246919D01*
X0152105Y0246962D01*
X0151954Y0247009D01*
X0151804Y0247060D01*
X0151655Y0247115D01*
X0151508Y0247173D01*
X0151362Y0247235D01*
X0151218Y0247300D01*
X0151076Y0247370D01*
X0150935Y0247442D01*
X0150796Y0247519D01*
X0150660Y0247598D01*
X0150525Y0247682D01*
X0150392Y0247768D01*
X0150262Y0247858D01*
X0150134Y0247951D01*
X0150008Y0248047D01*
X0149885Y0248147D01*
X0149764Y0248249D01*
X0149646Y0248354D01*
X0149531Y0248463D01*
X0149418Y0248574D01*
X0149308Y0248688D01*
X0149201Y0248805D01*
X0149097Y0248924D01*
X0148996Y0249046D01*
X0148899Y0249171D01*
X0148804Y0249298D01*
X0148713Y0249427D01*
X0148624Y0249558D01*
X0148540Y0249692D01*
X0148458Y0249828D01*
X0148380Y0249965D01*
X0148306Y0250105D01*
X0148235Y0250247D01*
X0148167Y0250390D01*
X0148103Y0250535D01*
X0148043Y0250681D01*
X0147987Y0250829D01*
X0147934Y0250978D01*
X0147885Y0251129D01*
X0147840Y0251281D01*
X0147799Y0251434D01*
X0147761Y0251587D01*
X0147728Y0251742D01*
X0147698Y0251898D01*
X0147672Y0252054D01*
X0147651Y0252211D01*
X0147633Y0252368D01*
X0147619Y0252526D01*
X0147609Y0252684D01*
X0147603Y0252842D01*
X0147601Y0253000D01*
X0185101Y0278000D02*
X0185103Y0278158D01*
X0185109Y0278316D01*
X0185119Y0278474D01*
X0185133Y0278632D01*
X0185151Y0278789D01*
X0185172Y0278946D01*
X0185198Y0279102D01*
X0185228Y0279258D01*
X0185261Y0279413D01*
X0185299Y0279566D01*
X0185340Y0279719D01*
X0185385Y0279871D01*
X0185434Y0280022D01*
X0185487Y0280171D01*
X0185543Y0280319D01*
X0185603Y0280465D01*
X0185667Y0280610D01*
X0185735Y0280753D01*
X0185806Y0280895D01*
X0185880Y0281035D01*
X0185958Y0281172D01*
X0186040Y0281308D01*
X0186124Y0281442D01*
X0186213Y0281573D01*
X0186304Y0281702D01*
X0186399Y0281829D01*
X0186496Y0281954D01*
X0186597Y0282076D01*
X0186701Y0282195D01*
X0186808Y0282312D01*
X0186918Y0282426D01*
X0187031Y0282537D01*
X0187146Y0282646D01*
X0187264Y0282751D01*
X0187385Y0282853D01*
X0187508Y0282953D01*
X0187634Y0283049D01*
X0187762Y0283142D01*
X0187892Y0283232D01*
X0188025Y0283318D01*
X0188160Y0283402D01*
X0188296Y0283481D01*
X0188435Y0283558D01*
X0188576Y0283630D01*
X0188718Y0283700D01*
X0188862Y0283765D01*
X0189008Y0283827D01*
X0189155Y0283885D01*
X0189304Y0283940D01*
X0189454Y0283991D01*
X0189605Y0284038D01*
X0189757Y0284081D01*
X0189910Y0284120D01*
X0190065Y0284156D01*
X0190220Y0284187D01*
X0190376Y0284215D01*
X0190532Y0284239D01*
X0190689Y0284259D01*
X0190847Y0284275D01*
X0191004Y0284287D01*
X0191163Y0284295D01*
X0191321Y0284299D01*
X0191479Y0284299D01*
X0191637Y0284295D01*
X0191796Y0284287D01*
X0191953Y0284275D01*
X0192111Y0284259D01*
X0192268Y0284239D01*
X0192424Y0284215D01*
X0192580Y0284187D01*
X0192735Y0284156D01*
X0192890Y0284120D01*
X0193043Y0284081D01*
X0193195Y0284038D01*
X0193346Y0283991D01*
X0193496Y0283940D01*
X0193645Y0283885D01*
X0193792Y0283827D01*
X0193938Y0283765D01*
X0194082Y0283700D01*
X0194224Y0283630D01*
X0194365Y0283558D01*
X0194504Y0283481D01*
X0194640Y0283402D01*
X0194775Y0283318D01*
X0194908Y0283232D01*
X0195038Y0283142D01*
X0195166Y0283049D01*
X0195292Y0282953D01*
X0195415Y0282853D01*
X0195536Y0282751D01*
X0195654Y0282646D01*
X0195769Y0282537D01*
X0195882Y0282426D01*
X0195992Y0282312D01*
X0196099Y0282195D01*
X0196203Y0282076D01*
X0196304Y0281954D01*
X0196401Y0281829D01*
X0196496Y0281702D01*
X0196587Y0281573D01*
X0196676Y0281442D01*
X0196760Y0281308D01*
X0196842Y0281172D01*
X0196920Y0281035D01*
X0196994Y0280895D01*
X0197065Y0280753D01*
X0197133Y0280610D01*
X0197197Y0280465D01*
X0197257Y0280319D01*
X0197313Y0280171D01*
X0197366Y0280022D01*
X0197415Y0279871D01*
X0197460Y0279719D01*
X0197501Y0279566D01*
X0197539Y0279413D01*
X0197572Y0279258D01*
X0197602Y0279102D01*
X0197628Y0278946D01*
X0197649Y0278789D01*
X0197667Y0278632D01*
X0197681Y0278474D01*
X0197691Y0278316D01*
X0197697Y0278158D01*
X0197699Y0278000D01*
X0197697Y0277842D01*
X0197691Y0277684D01*
X0197681Y0277526D01*
X0197667Y0277368D01*
X0197649Y0277211D01*
X0197628Y0277054D01*
X0197602Y0276898D01*
X0197572Y0276742D01*
X0197539Y0276587D01*
X0197501Y0276434D01*
X0197460Y0276281D01*
X0197415Y0276129D01*
X0197366Y0275978D01*
X0197313Y0275829D01*
X0197257Y0275681D01*
X0197197Y0275535D01*
X0197133Y0275390D01*
X0197065Y0275247D01*
X0196994Y0275105D01*
X0196920Y0274965D01*
X0196842Y0274828D01*
X0196760Y0274692D01*
X0196676Y0274558D01*
X0196587Y0274427D01*
X0196496Y0274298D01*
X0196401Y0274171D01*
X0196304Y0274046D01*
X0196203Y0273924D01*
X0196099Y0273805D01*
X0195992Y0273688D01*
X0195882Y0273574D01*
X0195769Y0273463D01*
X0195654Y0273354D01*
X0195536Y0273249D01*
X0195415Y0273147D01*
X0195292Y0273047D01*
X0195166Y0272951D01*
X0195038Y0272858D01*
X0194908Y0272768D01*
X0194775Y0272682D01*
X0194640Y0272598D01*
X0194504Y0272519D01*
X0194365Y0272442D01*
X0194224Y0272370D01*
X0194082Y0272300D01*
X0193938Y0272235D01*
X0193792Y0272173D01*
X0193645Y0272115D01*
X0193496Y0272060D01*
X0193346Y0272009D01*
X0193195Y0271962D01*
X0193043Y0271919D01*
X0192890Y0271880D01*
X0192735Y0271844D01*
X0192580Y0271813D01*
X0192424Y0271785D01*
X0192268Y0271761D01*
X0192111Y0271741D01*
X0191953Y0271725D01*
X0191796Y0271713D01*
X0191637Y0271705D01*
X0191479Y0271701D01*
X0191321Y0271701D01*
X0191163Y0271705D01*
X0191004Y0271713D01*
X0190847Y0271725D01*
X0190689Y0271741D01*
X0190532Y0271761D01*
X0190376Y0271785D01*
X0190220Y0271813D01*
X0190065Y0271844D01*
X0189910Y0271880D01*
X0189757Y0271919D01*
X0189605Y0271962D01*
X0189454Y0272009D01*
X0189304Y0272060D01*
X0189155Y0272115D01*
X0189008Y0272173D01*
X0188862Y0272235D01*
X0188718Y0272300D01*
X0188576Y0272370D01*
X0188435Y0272442D01*
X0188296Y0272519D01*
X0188160Y0272598D01*
X0188025Y0272682D01*
X0187892Y0272768D01*
X0187762Y0272858D01*
X0187634Y0272951D01*
X0187508Y0273047D01*
X0187385Y0273147D01*
X0187264Y0273249D01*
X0187146Y0273354D01*
X0187031Y0273463D01*
X0186918Y0273574D01*
X0186808Y0273688D01*
X0186701Y0273805D01*
X0186597Y0273924D01*
X0186496Y0274046D01*
X0186399Y0274171D01*
X0186304Y0274298D01*
X0186213Y0274427D01*
X0186124Y0274558D01*
X0186040Y0274692D01*
X0185958Y0274828D01*
X0185880Y0274965D01*
X0185806Y0275105D01*
X0185735Y0275247D01*
X0185667Y0275390D01*
X0185603Y0275535D01*
X0185543Y0275681D01*
X0185487Y0275829D01*
X0185434Y0275978D01*
X0185385Y0276129D01*
X0185340Y0276281D01*
X0185299Y0276434D01*
X0185261Y0276587D01*
X0185228Y0276742D01*
X0185198Y0276898D01*
X0185172Y0277054D01*
X0185151Y0277211D01*
X0185133Y0277368D01*
X0185119Y0277526D01*
X0185109Y0277684D01*
X0185103Y0277842D01*
X0185101Y0278000D01*
D11*
X0163900Y0263000D02*
X0038900Y0263000D01*
X0038900Y0113000D01*
X0163900Y0113000D01*
X0163900Y0263000D01*
D12*
X0151384Y0280000D02*
X0148582Y0280000D01*
X0147648Y0280934D01*
X0147648Y0282802D01*
X0148582Y0283737D01*
X0151384Y0283737D01*
X0151384Y0285605D02*
X0151384Y0280000D01*
X0145386Y0283737D02*
X0144452Y0283737D01*
X0142584Y0281868D01*
X0142584Y0280000D02*
X0142584Y0283737D01*
X0140243Y0282802D02*
X0140243Y0280000D01*
X0137441Y0280000D01*
X0136506Y0280934D01*
X0137441Y0281868D01*
X0140243Y0281868D01*
X0140243Y0282802D02*
X0139309Y0283737D01*
X0137441Y0283737D01*
X0134166Y0282802D02*
X0133232Y0283737D01*
X0131363Y0283737D01*
X0130429Y0282802D01*
X0130429Y0280934D01*
X0131363Y0280000D01*
X0133232Y0280000D01*
X0134166Y0280934D01*
X0134166Y0282802D01*
X0128089Y0282802D02*
X0127154Y0283737D01*
X0124352Y0283737D01*
X0124352Y0285605D02*
X0124352Y0280000D01*
X0127154Y0280000D01*
X0128089Y0280934D01*
X0128089Y0282802D01*
X0122011Y0282802D02*
X0122011Y0281868D01*
X0118275Y0281868D01*
X0118275Y0280934D02*
X0118275Y0282802D01*
X0119209Y0283737D01*
X0121077Y0283737D01*
X0122011Y0282802D01*
X0121077Y0280000D02*
X0119209Y0280000D01*
X0118275Y0280934D01*
X0115934Y0280934D02*
X0115000Y0281868D01*
X0113132Y0281868D01*
X0112198Y0282802D01*
X0113132Y0283737D01*
X0115934Y0283737D01*
X0115934Y0280934D02*
X0115000Y0280000D01*
X0112198Y0280000D01*
X0109857Y0280000D02*
X0109857Y0282802D01*
X0108923Y0283737D01*
X0107055Y0283737D01*
X0107055Y0281868D02*
X0109857Y0281868D01*
X0109857Y0280000D02*
X0107055Y0280000D01*
X0106120Y0280934D01*
X0107055Y0281868D01*
X0103780Y0281868D02*
X0103780Y0280934D01*
X0102846Y0280000D01*
X0100043Y0280000D01*
X0100043Y0285605D01*
X0102846Y0285605D01*
X0103780Y0284671D01*
X0103780Y0283737D01*
X0102846Y0282802D01*
X0100043Y0282802D01*
X0102846Y0282802D02*
X0103780Y0281868D01*
X0091625Y0282802D02*
X0091625Y0280000D01*
X0091625Y0282802D02*
X0090691Y0283737D01*
X0088823Y0283737D01*
X0087889Y0282802D01*
X0085706Y0283737D02*
X0083837Y0283737D01*
X0084772Y0284671D02*
X0084772Y0280934D01*
X0085706Y0280000D01*
X0087889Y0280000D02*
X0087889Y0285605D01*
X0081497Y0285605D02*
X0077760Y0285605D01*
X0077760Y0280000D01*
X0081497Y0280000D01*
X0079628Y0282802D02*
X0077760Y0282802D01*
X0075420Y0282802D02*
X0071683Y0282802D01*
X0069342Y0282802D02*
X0069342Y0280000D01*
X0067474Y0280000D02*
X0067474Y0282802D01*
X0068408Y0283737D01*
X0069342Y0282802D01*
X0067474Y0282802D02*
X0066540Y0283737D01*
X0065606Y0283737D01*
X0065606Y0280000D01*
X0063265Y0280000D02*
X0063265Y0282802D01*
X0062331Y0283737D01*
X0060463Y0283737D01*
X0060463Y0281868D02*
X0059529Y0280934D01*
X0060463Y0280000D01*
X0063265Y0280000D01*
X0063265Y0281868D02*
X0060463Y0281868D01*
X0057188Y0280934D02*
X0056254Y0280000D01*
X0054386Y0280000D01*
X0053451Y0280934D01*
X0053451Y0284671D01*
X0054386Y0285605D01*
X0056254Y0285605D01*
X0057188Y0284671D01*
X0051268Y0283737D02*
X0049400Y0283737D01*
X0050334Y0284671D02*
X0050334Y0280934D01*
X0051268Y0280000D01*
X0020632Y0079004D02*
X0020632Y0077429D01*
X0022404Y0077429D01*
X0021038Y0075862D02*
X0021040Y0075906D01*
X0021046Y0075950D01*
X0021056Y0075993D01*
X0021069Y0076035D01*
X0021086Y0076076D01*
X0021107Y0076115D01*
X0021131Y0076152D01*
X0021158Y0076187D01*
X0021188Y0076219D01*
X0021221Y0076249D01*
X0021257Y0076275D01*
X0021294Y0076299D01*
X0021334Y0076318D01*
X0021375Y0076335D01*
X0021418Y0076347D01*
X0021461Y0076356D01*
X0021505Y0076361D01*
X0021549Y0076362D01*
X0021593Y0076359D01*
X0021637Y0076352D01*
X0021680Y0076341D01*
X0021722Y0076327D01*
X0021762Y0076309D01*
X0021801Y0076287D01*
X0021837Y0076263D01*
X0021871Y0076235D01*
X0021903Y0076204D01*
X0021932Y0076170D01*
X0021958Y0076134D01*
X0021980Y0076096D01*
X0021999Y0076056D01*
X0022014Y0076014D01*
X0022026Y0075972D01*
X0022034Y0075928D01*
X0022038Y0075884D01*
X0022038Y0075840D01*
X0022034Y0075796D01*
X0022026Y0075752D01*
X0022014Y0075710D01*
X0021999Y0075668D01*
X0021980Y0075628D01*
X0021958Y0075590D01*
X0021932Y0075554D01*
X0021903Y0075520D01*
X0021871Y0075489D01*
X0021837Y0075461D01*
X0021801Y0075437D01*
X0021762Y0075415D01*
X0021722Y0075397D01*
X0021680Y0075383D01*
X0021637Y0075372D01*
X0021593Y0075365D01*
X0021549Y0075362D01*
X0021505Y0075363D01*
X0021461Y0075368D01*
X0021418Y0075377D01*
X0021375Y0075389D01*
X0021334Y0075406D01*
X0021294Y0075425D01*
X0021257Y0075449D01*
X0021221Y0075475D01*
X0021188Y0075505D01*
X0021158Y0075537D01*
X0021131Y0075572D01*
X0021107Y0075609D01*
X0021086Y0075648D01*
X0021069Y0075689D01*
X0021056Y0075731D01*
X0021046Y0075774D01*
X0021040Y0075818D01*
X0021038Y0075862D01*
D13*
X0022404Y0077626D02*
X0021026Y0079004D01*
X0021026Y0091996D02*
X0021026Y0093374D01*
X0022404Y0093374D01*
X0035396Y0093374D02*
X0036774Y0093374D01*
X0036774Y0091996D01*
X0036774Y0079004D02*
X0036774Y0077626D01*
X0035396Y0077626D01*
X0089290Y0265150D02*
X0089290Y0269354D01*
X0091392Y0269354D01*
X0092093Y0268653D01*
X0092093Y0267252D01*
X0091392Y0266551D01*
X0089290Y0266551D01*
X0090691Y0266551D02*
X0092093Y0265150D01*
X0093894Y0265851D02*
X0093894Y0267252D01*
X0094595Y0267952D01*
X0095996Y0267952D01*
X0096696Y0267252D01*
X0096696Y0266551D01*
X0093894Y0266551D01*
X0093894Y0265851D02*
X0094595Y0265150D01*
X0095996Y0265150D01*
X0098498Y0267952D02*
X0099899Y0265150D01*
X0101300Y0267952D01*
X0100666Y0272650D02*
X0099265Y0272650D01*
X0099966Y0272650D02*
X0099966Y0276854D01*
X0099265Y0276854D01*
X0097464Y0275452D02*
X0097464Y0272650D01*
X0095362Y0272650D01*
X0094661Y0273351D01*
X0094661Y0275452D01*
X0092993Y0275452D02*
X0092993Y0271949D01*
X0092293Y0271249D01*
X0091592Y0271249D01*
X0089790Y0272650D02*
X0089790Y0274752D01*
X0089090Y0275452D01*
X0086988Y0275452D01*
X0086988Y0272650D01*
X0085187Y0272650D02*
X0083085Y0272650D01*
X0082384Y0273351D01*
X0083085Y0274051D01*
X0085187Y0274051D01*
X0085187Y0274752D02*
X0085187Y0272650D01*
X0085187Y0274752D02*
X0084486Y0275452D01*
X0083085Y0275452D01*
X0080583Y0275452D02*
X0078481Y0275452D01*
X0077780Y0274752D01*
X0077780Y0273351D01*
X0078481Y0272650D01*
X0080583Y0272650D01*
X0080583Y0276854D01*
X0071375Y0276153D02*
X0071375Y0275452D01*
X0070674Y0274752D01*
X0071375Y0274051D01*
X0071375Y0273351D01*
X0070674Y0272650D01*
X0069273Y0272650D01*
X0068572Y0273351D01*
X0066771Y0272650D02*
X0063968Y0272650D01*
X0066771Y0275452D01*
X0066771Y0276153D01*
X0066070Y0276854D01*
X0064669Y0276854D01*
X0063968Y0276153D01*
X0062167Y0276153D02*
X0062167Y0273351D01*
X0061466Y0272650D01*
X0060065Y0272650D01*
X0059365Y0273351D01*
X0062167Y0276153D01*
X0061466Y0276854D01*
X0060065Y0276854D01*
X0059365Y0276153D01*
X0059365Y0273351D01*
X0057563Y0272650D02*
X0054761Y0272650D01*
X0057563Y0275452D01*
X0057563Y0276153D01*
X0056862Y0276854D01*
X0055461Y0276854D01*
X0054761Y0276153D01*
X0048489Y0275452D02*
X0048489Y0274051D01*
X0047087Y0272650D01*
X0045286Y0272650D02*
X0043184Y0272650D01*
X0042483Y0273351D01*
X0042483Y0274752D01*
X0043184Y0275452D01*
X0045286Y0275452D01*
X0047087Y0276854D02*
X0048489Y0275452D01*
X0040815Y0276854D02*
X0039414Y0275452D01*
X0039414Y0274051D01*
X0040815Y0272650D01*
X0068572Y0276153D02*
X0069273Y0276854D01*
X0070674Y0276854D01*
X0071375Y0276153D01*
X0070674Y0274752D02*
X0069974Y0274752D01*
X0092993Y0276854D02*
X0092993Y0277554D01*
X0102334Y0275452D02*
X0103035Y0275452D01*
X0103035Y0272650D01*
X0102334Y0272650D02*
X0103736Y0272650D01*
X0105404Y0273351D02*
X0106104Y0272650D01*
X0107506Y0272650D01*
X0108206Y0273351D01*
X0108206Y0274752D01*
X0107506Y0275452D01*
X0106104Y0275452D01*
X0105404Y0274752D01*
X0105404Y0273351D01*
X0103035Y0276854D02*
X0103035Y0277554D01*
X0109107Y0269354D02*
X0109107Y0265150D01*
X0107706Y0265150D02*
X0110508Y0265150D01*
X0107706Y0267952D02*
X0109107Y0269354D01*
X0110708Y0272650D02*
X0110008Y0273351D01*
X0110008Y0274752D01*
X0110708Y0275452D01*
X0112810Y0275452D01*
X0112810Y0276854D02*
X0112810Y0272650D01*
X0110708Y0272650D01*
X0114612Y0273351D02*
X0114612Y0274752D01*
X0115312Y0275452D01*
X0116713Y0275452D01*
X0117414Y0274752D01*
X0117414Y0274051D01*
X0114612Y0274051D01*
X0114612Y0273351D02*
X0115312Y0272650D01*
X0116713Y0272650D01*
X0119216Y0272650D02*
X0121317Y0272650D01*
X0122018Y0273351D01*
X0121317Y0274051D01*
X0119916Y0274051D01*
X0119216Y0274752D01*
X0119916Y0275452D01*
X0122018Y0275452D01*
X0123819Y0275452D02*
X0124520Y0275452D01*
X0124520Y0272650D01*
X0123819Y0272650D02*
X0125221Y0272650D01*
X0126889Y0273351D02*
X0127589Y0272650D01*
X0129691Y0272650D01*
X0129691Y0271949D02*
X0129691Y0275452D01*
X0127589Y0275452D01*
X0126889Y0274752D01*
X0126889Y0273351D01*
X0128290Y0271249D02*
X0128991Y0271249D01*
X0129691Y0271949D01*
X0131493Y0272650D02*
X0131493Y0275452D01*
X0133594Y0275452D01*
X0134295Y0274752D01*
X0134295Y0272650D01*
X0136097Y0272650D02*
X0138198Y0272650D01*
X0138899Y0273351D01*
X0138198Y0274051D01*
X0136797Y0274051D01*
X0136097Y0274752D01*
X0136797Y0275452D01*
X0138899Y0275452D01*
X0141401Y0273351D02*
X0141401Y0272650D01*
X0142102Y0272650D01*
X0142102Y0273351D01*
X0141401Y0273351D01*
X0142102Y0272650D02*
X0140701Y0271249D01*
X0148374Y0272650D02*
X0151176Y0272650D01*
X0152978Y0272650D02*
X0152978Y0276854D01*
X0152978Y0272650D02*
X0155780Y0272650D01*
X0157582Y0273351D02*
X0157582Y0276153D01*
X0158282Y0276854D01*
X0159683Y0276854D01*
X0160384Y0276153D01*
X0160384Y0273351D02*
X0159683Y0272650D01*
X0158282Y0272650D01*
X0157582Y0273351D01*
X0148374Y0272650D02*
X0148374Y0276854D01*
X0124520Y0276854D02*
X0124520Y0277554D01*
D14*
X0118900Y0103120D02*
X0118900Y0102880D01*
X0091400Y0095620D02*
X0091400Y0095380D01*
X0091400Y0088120D02*
X0091400Y0087880D01*
X0091400Y0058120D02*
X0091400Y0057880D01*
X0051400Y0080380D02*
X0051400Y0080620D01*
X0046400Y0073120D02*
X0046400Y0072880D01*
X0046400Y0065620D02*
X0046400Y0065380D01*
X0051400Y0087880D02*
X0051400Y0088120D01*
X0158900Y0102880D02*
X0158900Y0103120D01*
D15*
X0159017Y0106300D02*
X0159017Y0109703D01*
X0157883Y0108569D01*
X0156469Y0109136D02*
X0155901Y0109703D01*
X0154767Y0109703D01*
X0154200Y0109136D01*
X0154200Y0106867D01*
X0154767Y0106300D01*
X0155901Y0106300D01*
X0156469Y0106867D01*
X0157883Y0106300D02*
X0160152Y0106300D01*
X0161566Y0106867D02*
X0161566Y0109136D01*
X0162133Y0109703D01*
X0163268Y0109703D01*
X0163835Y0109136D01*
X0161566Y0106867D01*
X0162133Y0106300D01*
X0163268Y0106300D01*
X0163835Y0106867D01*
X0163835Y0109136D01*
X0172941Y0105141D02*
X0172941Y0104007D01*
X0173508Y0103440D01*
X0174075Y0103440D01*
X0174643Y0104007D01*
X0174643Y0105141D01*
X0175210Y0105708D01*
X0175777Y0105708D01*
X0176344Y0105141D01*
X0176344Y0104007D01*
X0175777Y0103440D01*
X0175210Y0103440D01*
X0174643Y0104007D01*
X0174643Y0105141D02*
X0174075Y0105708D01*
X0173508Y0105708D01*
X0172941Y0105141D01*
X0173508Y0102025D02*
X0172941Y0101458D01*
X0172941Y0100324D01*
X0173508Y0099757D01*
X0175777Y0099757D01*
X0176344Y0100324D01*
X0176344Y0101458D01*
X0175777Y0102025D01*
X0179910Y0091055D02*
X0180477Y0089921D01*
X0181611Y0088786D01*
X0181611Y0090488D01*
X0182178Y0091055D01*
X0182745Y0091055D01*
X0183313Y0090488D01*
X0183313Y0089353D01*
X0182745Y0088786D01*
X0181611Y0088786D01*
X0181611Y0087372D02*
X0182178Y0086805D01*
X0182178Y0085103D01*
X0182178Y0086237D02*
X0183313Y0087372D01*
X0181611Y0087372D02*
X0180477Y0087372D01*
X0179910Y0086805D01*
X0179910Y0085103D01*
X0183313Y0085103D01*
X0190508Y0099757D02*
X0192777Y0099757D01*
X0193344Y0100324D01*
X0193344Y0101458D01*
X0192777Y0102025D01*
X0192777Y0103440D02*
X0193344Y0104007D01*
X0193344Y0105141D01*
X0192777Y0105708D01*
X0190508Y0105708D01*
X0189941Y0105141D01*
X0189941Y0104007D01*
X0190508Y0103440D01*
X0191075Y0103440D01*
X0191643Y0104007D01*
X0191643Y0105708D01*
X0190508Y0102025D02*
X0189941Y0101458D01*
X0189941Y0100324D01*
X0190508Y0099757D01*
X0137804Y0098983D02*
X0135535Y0098983D01*
X0137237Y0100685D01*
X0137237Y0097282D01*
X0134121Y0097849D02*
X0134121Y0100685D01*
X0131852Y0100685D02*
X0131852Y0097849D01*
X0132419Y0097282D01*
X0133553Y0097282D01*
X0134121Y0097849D01*
X0123785Y0106300D02*
X0121517Y0106300D01*
X0122651Y0106300D02*
X0122651Y0109703D01*
X0121517Y0108569D01*
X0120102Y0106300D02*
X0117834Y0106300D01*
X0118968Y0106300D02*
X0118968Y0109703D01*
X0117834Y0108569D01*
X0116419Y0109136D02*
X0115852Y0109703D01*
X0114718Y0109703D01*
X0114151Y0109136D01*
X0114151Y0106867D01*
X0114718Y0106300D01*
X0115852Y0106300D01*
X0116419Y0106867D01*
X0103652Y0084703D02*
X0101383Y0084703D01*
X0099969Y0084136D02*
X0099401Y0084703D01*
X0098267Y0084703D01*
X0097700Y0084136D01*
X0097700Y0081867D01*
X0098267Y0081300D01*
X0099401Y0081300D01*
X0099969Y0081867D01*
X0101383Y0081867D02*
X0101383Y0081300D01*
X0101383Y0081867D02*
X0103652Y0084136D01*
X0103652Y0084703D01*
X0104218Y0074703D02*
X0103084Y0074703D01*
X0102517Y0074136D01*
X0101102Y0074703D02*
X0101102Y0071867D01*
X0100535Y0071300D01*
X0099401Y0071300D01*
X0098834Y0071867D01*
X0098834Y0074703D01*
X0102517Y0071300D02*
X0104785Y0073569D01*
X0104785Y0074136D01*
X0104218Y0074703D01*
X0104785Y0071300D02*
X0102517Y0071300D01*
X0094152Y0054703D02*
X0091883Y0054703D01*
X0091883Y0053001D01*
X0093017Y0053569D01*
X0093585Y0053569D01*
X0094152Y0053001D01*
X0094152Y0051867D01*
X0093585Y0051300D01*
X0092450Y0051300D01*
X0091883Y0051867D01*
X0090469Y0051867D02*
X0089901Y0051300D01*
X0088767Y0051300D01*
X0088200Y0051867D01*
X0088200Y0054136D01*
X0088767Y0054703D01*
X0089901Y0054703D01*
X0090469Y0054136D01*
X0078100Y0040885D02*
X0078100Y0038617D01*
X0075831Y0040885D01*
X0075264Y0040885D01*
X0074697Y0040318D01*
X0074697Y0039184D01*
X0075264Y0038617D01*
X0075264Y0037202D02*
X0076399Y0037202D01*
X0076966Y0036635D01*
X0076966Y0034934D01*
X0076966Y0036068D02*
X0078100Y0037202D01*
X0078100Y0034934D02*
X0074697Y0034934D01*
X0074697Y0036635D01*
X0075264Y0037202D01*
X0071832Y0021730D02*
X0071832Y0018328D01*
X0070698Y0018328D02*
X0072967Y0018328D01*
X0070698Y0020596D02*
X0071832Y0021730D01*
X0069284Y0021730D02*
X0068149Y0021730D01*
X0068716Y0021730D02*
X0068716Y0018895D01*
X0068149Y0018328D01*
X0067582Y0018328D01*
X0067015Y0018895D01*
X0048585Y0058800D02*
X0047450Y0058800D01*
X0046883Y0059367D01*
X0045469Y0059367D02*
X0044901Y0058800D01*
X0043767Y0058800D01*
X0043200Y0059367D01*
X0043200Y0061636D01*
X0043767Y0062203D01*
X0044901Y0062203D01*
X0045469Y0061636D01*
X0046883Y0061636D02*
X0047450Y0062203D01*
X0048585Y0062203D01*
X0049152Y0061636D01*
X0049152Y0061069D01*
X0048585Y0060501D01*
X0049152Y0059934D01*
X0049152Y0059367D01*
X0048585Y0058800D01*
X0048585Y0060501D02*
X0048017Y0060501D01*
X0039585Y0071300D02*
X0039585Y0074703D01*
X0037883Y0073001D01*
X0040152Y0073001D01*
X0036469Y0071867D02*
X0035901Y0071300D01*
X0034767Y0071300D01*
X0034200Y0071867D01*
X0034200Y0074136D01*
X0034767Y0074703D01*
X0035901Y0074703D01*
X0036469Y0074136D01*
X0021582Y0061166D02*
X0021582Y0060032D01*
X0021015Y0059465D01*
X0021015Y0058050D02*
X0018179Y0058050D01*
X0018746Y0059465D02*
X0018179Y0060032D01*
X0018179Y0061166D01*
X0018746Y0061733D01*
X0019313Y0061733D01*
X0019880Y0061166D01*
X0020447Y0061733D01*
X0021015Y0061733D01*
X0021582Y0061166D01*
X0019880Y0061166D02*
X0019880Y0060599D01*
X0021015Y0058050D02*
X0021582Y0057483D01*
X0021582Y0056349D01*
X0021015Y0055782D01*
X0018179Y0055782D01*
X0018100Y0040885D02*
X0018100Y0038617D01*
X0018100Y0039751D02*
X0014697Y0039751D01*
X0015831Y0038617D01*
X0015264Y0037202D02*
X0016399Y0037202D01*
X0016966Y0036635D01*
X0016966Y0034934D01*
X0016966Y0036068D02*
X0018100Y0037202D01*
X0018100Y0034934D02*
X0014697Y0034934D01*
X0014697Y0036635D01*
X0015264Y0037202D01*
X0014673Y0083154D02*
X0017509Y0083154D01*
X0018076Y0083721D01*
X0018076Y0084856D01*
X0017509Y0085423D01*
X0014673Y0085423D01*
X0015808Y0086837D02*
X0014673Y0087972D01*
X0018076Y0087972D01*
X0018076Y0089106D02*
X0018076Y0086837D01*
X0048834Y0098800D02*
X0048834Y0102203D01*
X0050535Y0102203D01*
X0051102Y0101636D01*
X0051102Y0100501D01*
X0050535Y0099934D01*
X0048834Y0099934D01*
X0049968Y0099934D02*
X0051102Y0098800D01*
X0052517Y0099367D02*
X0053084Y0098800D01*
X0054218Y0098800D01*
X0054785Y0099367D01*
X0054785Y0099934D01*
X0054218Y0100501D01*
X0053651Y0100501D01*
X0054218Y0100501D02*
X0054785Y0101069D01*
X0054785Y0101636D01*
X0054218Y0102203D01*
X0053084Y0102203D01*
X0052517Y0101636D01*
X0058267Y0093703D02*
X0057700Y0093136D01*
X0057700Y0090867D01*
X0058267Y0090300D01*
X0059401Y0090300D01*
X0059969Y0090867D01*
X0061383Y0090300D02*
X0063652Y0092569D01*
X0063652Y0093136D01*
X0063085Y0093703D01*
X0061950Y0093703D01*
X0061383Y0093136D01*
X0059969Y0093136D02*
X0059401Y0093703D01*
X0058267Y0093703D01*
X0061383Y0090300D02*
X0063652Y0090300D01*
X0062517Y0086203D02*
X0061383Y0085069D01*
X0059969Y0085636D02*
X0059401Y0086203D01*
X0058267Y0086203D01*
X0057700Y0085636D01*
X0057700Y0083367D01*
X0058267Y0082800D01*
X0059401Y0082800D01*
X0059969Y0083367D01*
X0061383Y0082800D02*
X0063652Y0082800D01*
X0062517Y0082800D02*
X0062517Y0086203D01*
X0073578Y0092772D02*
X0075846Y0092772D01*
X0077261Y0092772D02*
X0079530Y0092772D01*
X0078395Y0092772D02*
X0078395Y0096175D01*
X0077261Y0095041D01*
X0073578Y0096175D02*
X0073578Y0092772D01*
X0088700Y0099367D02*
X0089267Y0098800D01*
X0090401Y0098800D01*
X0090969Y0099367D01*
X0092383Y0099367D02*
X0092950Y0098800D01*
X0094085Y0098800D01*
X0094652Y0099367D01*
X0094652Y0099934D01*
X0094085Y0100501D01*
X0092383Y0100501D01*
X0092383Y0099367D01*
X0092383Y0100501D02*
X0093517Y0101636D01*
X0094652Y0102203D01*
X0090969Y0101636D02*
X0090401Y0102203D01*
X0089267Y0102203D01*
X0088700Y0101636D01*
X0088700Y0099367D01*
X0069285Y0072203D02*
X0067017Y0072203D01*
X0067017Y0070501D01*
X0068151Y0071069D01*
X0068718Y0071069D01*
X0069285Y0070501D01*
X0069285Y0069367D01*
X0068718Y0068800D01*
X0067584Y0068800D01*
X0067017Y0069367D01*
X0065602Y0068800D02*
X0064468Y0069934D01*
X0065035Y0069934D02*
X0063334Y0069934D01*
X0063334Y0068800D02*
X0063334Y0072203D01*
X0065035Y0072203D01*
X0065602Y0071636D01*
X0065602Y0070501D01*
X0065035Y0069934D01*
X0065035Y0064703D02*
X0063334Y0064703D01*
X0063334Y0061300D01*
X0063334Y0062434D02*
X0065035Y0062434D01*
X0065602Y0063001D01*
X0065602Y0064136D01*
X0065035Y0064703D01*
X0064468Y0062434D02*
X0065602Y0061300D01*
X0067017Y0063001D02*
X0069285Y0063001D01*
X0068718Y0061300D02*
X0068718Y0064703D01*
X0067017Y0063001D01*
X0102834Y0021703D02*
X0103969Y0021703D01*
X0103401Y0021703D02*
X0103401Y0018867D01*
X0102834Y0018300D01*
X0102267Y0018300D01*
X0101700Y0018867D01*
X0105383Y0018300D02*
X0107652Y0020569D01*
X0107652Y0021136D01*
X0107085Y0021703D01*
X0105950Y0021703D01*
X0105383Y0021136D01*
X0105383Y0018300D02*
X0107652Y0018300D01*
X0116591Y0132032D02*
X0118860Y0132032D01*
X0119427Y0132599D01*
X0119427Y0133734D01*
X0118860Y0134301D01*
X0118860Y0135715D02*
X0119427Y0136283D01*
X0119427Y0137417D01*
X0118860Y0137984D01*
X0116591Y0137984D01*
X0116024Y0137417D01*
X0116024Y0136283D01*
X0116591Y0135715D01*
X0118860Y0135715D01*
X0116591Y0134301D02*
X0116024Y0133734D01*
X0116024Y0132599D01*
X0116591Y0132032D01*
X0116024Y0139399D02*
X0119427Y0141667D01*
X0116024Y0141667D01*
X0117158Y0143082D02*
X0116024Y0144216D01*
X0119427Y0144216D01*
X0119427Y0143082D02*
X0119427Y0145350D01*
X0119427Y0139399D02*
X0116024Y0139399D01*
D16*
X0109648Y0095520D02*
X0109648Y0071898D01*
X0109648Y0057843D02*
X0109648Y0010520D01*
X0173152Y0010520D01*
X0173152Y0057843D01*
X0173152Y0071898D02*
X0173152Y0095520D01*
X0109648Y0095520D01*
X0097109Y0076150D02*
X0085691Y0076150D01*
X0085691Y0069850D01*
X0097109Y0069850D01*
X0097109Y0076150D01*
X0094400Y0074500D02*
X0094402Y0074563D01*
X0094408Y0074625D01*
X0094418Y0074687D01*
X0094431Y0074749D01*
X0094449Y0074809D01*
X0094470Y0074868D01*
X0094495Y0074926D01*
X0094524Y0074982D01*
X0094556Y0075036D01*
X0094591Y0075088D01*
X0094629Y0075137D01*
X0094671Y0075185D01*
X0094715Y0075229D01*
X0094763Y0075271D01*
X0094812Y0075309D01*
X0094864Y0075344D01*
X0094918Y0075376D01*
X0094974Y0075405D01*
X0095032Y0075430D01*
X0095091Y0075451D01*
X0095151Y0075469D01*
X0095213Y0075482D01*
X0095275Y0075492D01*
X0095337Y0075498D01*
X0095400Y0075500D01*
X0095463Y0075498D01*
X0095525Y0075492D01*
X0095587Y0075482D01*
X0095649Y0075469D01*
X0095709Y0075451D01*
X0095768Y0075430D01*
X0095826Y0075405D01*
X0095882Y0075376D01*
X0095936Y0075344D01*
X0095988Y0075309D01*
X0096037Y0075271D01*
X0096085Y0075229D01*
X0096129Y0075185D01*
X0096171Y0075137D01*
X0096209Y0075088D01*
X0096244Y0075036D01*
X0096276Y0074982D01*
X0096305Y0074926D01*
X0096330Y0074868D01*
X0096351Y0074809D01*
X0096369Y0074749D01*
X0096382Y0074687D01*
X0096392Y0074625D01*
X0096398Y0074563D01*
X0096400Y0074500D01*
X0096398Y0074437D01*
X0096392Y0074375D01*
X0096382Y0074313D01*
X0096369Y0074251D01*
X0096351Y0074191D01*
X0096330Y0074132D01*
X0096305Y0074074D01*
X0096276Y0074018D01*
X0096244Y0073964D01*
X0096209Y0073912D01*
X0096171Y0073863D01*
X0096129Y0073815D01*
X0096085Y0073771D01*
X0096037Y0073729D01*
X0095988Y0073691D01*
X0095936Y0073656D01*
X0095882Y0073624D01*
X0095826Y0073595D01*
X0095768Y0073570D01*
X0095709Y0073549D01*
X0095649Y0073531D01*
X0095587Y0073518D01*
X0095525Y0073508D01*
X0095463Y0073502D01*
X0095400Y0073500D01*
X0095337Y0073502D01*
X0095275Y0073508D01*
X0095213Y0073518D01*
X0095151Y0073531D01*
X0095091Y0073549D01*
X0095032Y0073570D01*
X0094974Y0073595D01*
X0094918Y0073624D01*
X0094864Y0073656D01*
X0094812Y0073691D01*
X0094763Y0073729D01*
X0094715Y0073771D01*
X0094671Y0073815D01*
X0094629Y0073863D01*
X0094591Y0073912D01*
X0094556Y0073964D01*
X0094524Y0074018D01*
X0094495Y0074074D01*
X0094470Y0074132D01*
X0094449Y0074191D01*
X0094431Y0074251D01*
X0094418Y0074313D01*
X0094408Y0074375D01*
X0094402Y0074437D01*
X0094400Y0074500D01*
X0082306Y0074732D02*
X0082306Y0091268D01*
X0070494Y0091268D01*
X0070494Y0074732D01*
X0082306Y0074732D01*
X0167207Y0107370D02*
X0167207Y0128630D01*
X0180593Y0128630D01*
X0180593Y0107370D01*
X0167207Y0107370D01*
X0184707Y0107370D02*
X0184707Y0128630D01*
X0198093Y0128630D01*
X0198093Y0107370D01*
X0184707Y0107370D01*
X0184963Y0094693D02*
X0192837Y0094693D01*
X0192837Y0081307D01*
X0184963Y0081307D01*
X0184963Y0094693D01*
D17*
X0114392Y0129929D02*
X0114392Y0146071D01*
X0109668Y0146071D01*
X0109668Y0129929D02*
X0114392Y0129929D01*
X0093132Y0129929D02*
X0088408Y0129929D01*
X0088408Y0146071D01*
X0093132Y0146071D01*
X0090967Y0148630D02*
X0090969Y0148657D01*
X0090975Y0148684D01*
X0090984Y0148710D01*
X0090997Y0148734D01*
X0091013Y0148757D01*
X0091032Y0148776D01*
X0091054Y0148793D01*
X0091078Y0148807D01*
X0091103Y0148817D01*
X0091130Y0148824D01*
X0091157Y0148827D01*
X0091185Y0148826D01*
X0091212Y0148821D01*
X0091238Y0148813D01*
X0091262Y0148801D01*
X0091285Y0148785D01*
X0091306Y0148767D01*
X0091323Y0148746D01*
X0091338Y0148722D01*
X0091349Y0148697D01*
X0091357Y0148671D01*
X0091361Y0148644D01*
X0091361Y0148616D01*
X0091357Y0148589D01*
X0091349Y0148563D01*
X0091338Y0148538D01*
X0091323Y0148514D01*
X0091306Y0148493D01*
X0091285Y0148475D01*
X0091263Y0148459D01*
X0091238Y0148447D01*
X0091212Y0148439D01*
X0091185Y0148434D01*
X0091157Y0148433D01*
X0091130Y0148436D01*
X0091103Y0148443D01*
X0091078Y0148453D01*
X0091054Y0148467D01*
X0091032Y0148484D01*
X0091013Y0148503D01*
X0090997Y0148526D01*
X0090984Y0148550D01*
X0090975Y0148576D01*
X0090969Y0148603D01*
X0090967Y0148630D01*
X0090542Y0148630D02*
X0090544Y0148679D01*
X0090550Y0148729D01*
X0090560Y0148777D01*
X0090573Y0148825D01*
X0090591Y0148871D01*
X0090611Y0148916D01*
X0090636Y0148959D01*
X0090664Y0149000D01*
X0090695Y0149038D01*
X0090729Y0149074D01*
X0090765Y0149107D01*
X0090804Y0149138D01*
X0090846Y0149164D01*
X0090889Y0149188D01*
X0090935Y0149208D01*
X0090981Y0149225D01*
X0091029Y0149237D01*
X0091078Y0149246D01*
X0091127Y0149251D01*
X0091176Y0149252D01*
X0091226Y0149249D01*
X0091275Y0149242D01*
X0091323Y0149231D01*
X0091370Y0149217D01*
X0091416Y0149199D01*
X0091461Y0149177D01*
X0091503Y0149151D01*
X0091543Y0149123D01*
X0091581Y0149091D01*
X0091617Y0149057D01*
X0091649Y0149019D01*
X0091679Y0148979D01*
X0091705Y0148937D01*
X0091727Y0148893D01*
X0091747Y0148848D01*
X0091762Y0148801D01*
X0091774Y0148753D01*
X0091782Y0148704D01*
X0091786Y0148655D01*
X0091786Y0148605D01*
X0091782Y0148556D01*
X0091774Y0148507D01*
X0091762Y0148459D01*
X0091747Y0148412D01*
X0091727Y0148367D01*
X0091705Y0148323D01*
X0091679Y0148281D01*
X0091649Y0148241D01*
X0091617Y0148203D01*
X0091581Y0148169D01*
X0091543Y0148137D01*
X0091503Y0148109D01*
X0091461Y0148083D01*
X0091416Y0148061D01*
X0091370Y0148043D01*
X0091323Y0148029D01*
X0091275Y0148018D01*
X0091226Y0148011D01*
X0091176Y0148008D01*
X0091127Y0148009D01*
X0091078Y0148014D01*
X0091029Y0148023D01*
X0090981Y0148035D01*
X0090935Y0148052D01*
X0090889Y0148072D01*
X0090846Y0148096D01*
X0090804Y0148122D01*
X0090765Y0148153D01*
X0090729Y0148186D01*
X0090695Y0148222D01*
X0090664Y0148260D01*
X0090636Y0148301D01*
X0090611Y0148344D01*
X0090591Y0148389D01*
X0090573Y0148435D01*
X0090560Y0148483D01*
X0090550Y0148531D01*
X0090544Y0148581D01*
X0090542Y0148630D01*
X0089919Y0148630D02*
X0089921Y0148700D01*
X0089927Y0148771D01*
X0089937Y0148840D01*
X0089951Y0148909D01*
X0089969Y0148978D01*
X0089990Y0149045D01*
X0090015Y0149111D01*
X0090044Y0149175D01*
X0090077Y0149237D01*
X0090113Y0149298D01*
X0090153Y0149356D01*
X0090195Y0149412D01*
X0090241Y0149466D01*
X0090290Y0149517D01*
X0090341Y0149565D01*
X0090396Y0149610D01*
X0090452Y0149652D01*
X0090511Y0149690D01*
X0090572Y0149725D01*
X0090635Y0149757D01*
X0090700Y0149785D01*
X0090766Y0149810D01*
X0090833Y0149830D01*
X0090902Y0149847D01*
X0090971Y0149860D01*
X0091041Y0149869D01*
X0091111Y0149874D01*
X0091182Y0149875D01*
X0091252Y0149872D01*
X0091322Y0149865D01*
X0091392Y0149854D01*
X0091461Y0149839D01*
X0091529Y0149820D01*
X0091595Y0149798D01*
X0091661Y0149772D01*
X0091725Y0149742D01*
X0091787Y0149708D01*
X0091847Y0149671D01*
X0091904Y0149631D01*
X0091960Y0149587D01*
X0092013Y0149541D01*
X0092063Y0149491D01*
X0092110Y0149439D01*
X0092154Y0149384D01*
X0092195Y0149327D01*
X0092233Y0149268D01*
X0092268Y0149206D01*
X0092298Y0149143D01*
X0092326Y0149078D01*
X0092349Y0149011D01*
X0092369Y0148944D01*
X0092385Y0148875D01*
X0092397Y0148806D01*
X0092405Y0148736D01*
X0092409Y0148665D01*
X0092409Y0148595D01*
X0092405Y0148524D01*
X0092397Y0148454D01*
X0092385Y0148385D01*
X0092369Y0148316D01*
X0092349Y0148249D01*
X0092326Y0148182D01*
X0092298Y0148117D01*
X0092268Y0148054D01*
X0092233Y0147992D01*
X0092195Y0147933D01*
X0092154Y0147876D01*
X0092110Y0147821D01*
X0092063Y0147769D01*
X0092013Y0147719D01*
X0091960Y0147673D01*
X0091904Y0147629D01*
X0091847Y0147589D01*
X0091786Y0147552D01*
X0091725Y0147518D01*
X0091661Y0147488D01*
X0091595Y0147462D01*
X0091529Y0147440D01*
X0091461Y0147421D01*
X0091392Y0147406D01*
X0091322Y0147395D01*
X0091252Y0147388D01*
X0091182Y0147385D01*
X0091111Y0147386D01*
X0091041Y0147391D01*
X0090971Y0147400D01*
X0090902Y0147413D01*
X0090833Y0147430D01*
X0090766Y0147450D01*
X0090700Y0147475D01*
X0090635Y0147503D01*
X0090572Y0147535D01*
X0090511Y0147570D01*
X0090452Y0147608D01*
X0090396Y0147650D01*
X0090341Y0147695D01*
X0090290Y0147743D01*
X0090241Y0147794D01*
X0090195Y0147848D01*
X0090153Y0147904D01*
X0090113Y0147962D01*
X0090077Y0148023D01*
X0090044Y0148085D01*
X0090015Y0148149D01*
X0089990Y0148215D01*
X0089969Y0148282D01*
X0089951Y0148351D01*
X0089937Y0148420D01*
X0089927Y0148489D01*
X0089921Y0148560D01*
X0089919Y0148630D01*
D18*
X0100967Y0077803D02*
X0100969Y0077842D01*
X0100975Y0077881D01*
X0100985Y0077919D01*
X0100998Y0077956D01*
X0101015Y0077991D01*
X0101035Y0078025D01*
X0101059Y0078056D01*
X0101086Y0078085D01*
X0101115Y0078111D01*
X0101147Y0078134D01*
X0101181Y0078154D01*
X0101217Y0078170D01*
X0101254Y0078182D01*
X0101293Y0078191D01*
X0101332Y0078196D01*
X0101371Y0078197D01*
X0101410Y0078194D01*
X0101449Y0078187D01*
X0101486Y0078176D01*
X0101523Y0078162D01*
X0101558Y0078144D01*
X0101591Y0078123D01*
X0101622Y0078098D01*
X0101650Y0078071D01*
X0101675Y0078041D01*
X0101697Y0078008D01*
X0101716Y0077974D01*
X0101731Y0077938D01*
X0101743Y0077900D01*
X0101751Y0077862D01*
X0101755Y0077823D01*
X0101755Y0077783D01*
X0101751Y0077744D01*
X0101743Y0077706D01*
X0101731Y0077668D01*
X0101716Y0077632D01*
X0101697Y0077598D01*
X0101675Y0077565D01*
X0101650Y0077535D01*
X0101622Y0077508D01*
X0101591Y0077483D01*
X0101558Y0077462D01*
X0101523Y0077444D01*
X0101486Y0077430D01*
X0101449Y0077419D01*
X0101410Y0077412D01*
X0101371Y0077409D01*
X0101332Y0077410D01*
X0101293Y0077415D01*
X0101254Y0077424D01*
X0101217Y0077436D01*
X0101181Y0077452D01*
X0101147Y0077472D01*
X0101115Y0077495D01*
X0101086Y0077521D01*
X0101059Y0077550D01*
X0101035Y0077581D01*
X0101015Y0077615D01*
X0100998Y0077650D01*
X0100985Y0077687D01*
X0100975Y0077725D01*
X0100969Y0077764D01*
X0100967Y0077803D01*
X0065258Y0033433D02*
X0065258Y0028512D01*
X0065258Y0017803D02*
X0065258Y0012764D01*
X0027542Y0012764D01*
X0027542Y0017803D01*
X0027542Y0028512D02*
X0027542Y0033433D01*
D19*
X0021400Y0038000D03*
X0071400Y0038000D03*
D20*
X0076400Y0063000D03*
X0076400Y0070500D03*
X0051400Y0095500D03*
D21*
X0023782Y0053276D02*
X0023784Y0053315D01*
X0023790Y0053354D01*
X0023800Y0053392D01*
X0023813Y0053429D01*
X0023830Y0053464D01*
X0023850Y0053498D01*
X0023874Y0053529D01*
X0023901Y0053558D01*
X0023930Y0053584D01*
X0023962Y0053607D01*
X0023996Y0053627D01*
X0024032Y0053643D01*
X0024069Y0053655D01*
X0024108Y0053664D01*
X0024147Y0053669D01*
X0024186Y0053670D01*
X0024225Y0053667D01*
X0024264Y0053660D01*
X0024301Y0053649D01*
X0024338Y0053635D01*
X0024373Y0053617D01*
X0024406Y0053596D01*
X0024437Y0053571D01*
X0024465Y0053544D01*
X0024490Y0053514D01*
X0024512Y0053481D01*
X0024531Y0053447D01*
X0024546Y0053411D01*
X0024558Y0053373D01*
X0024566Y0053335D01*
X0024570Y0053296D01*
X0024570Y0053256D01*
X0024566Y0053217D01*
X0024558Y0053179D01*
X0024546Y0053141D01*
X0024531Y0053105D01*
X0024512Y0053071D01*
X0024490Y0053038D01*
X0024465Y0053008D01*
X0024437Y0052981D01*
X0024406Y0052956D01*
X0024373Y0052935D01*
X0024338Y0052917D01*
X0024301Y0052903D01*
X0024264Y0052892D01*
X0024225Y0052885D01*
X0024186Y0052882D01*
X0024147Y0052883D01*
X0024108Y0052888D01*
X0024069Y0052897D01*
X0024032Y0052909D01*
X0023996Y0052925D01*
X0023962Y0052945D01*
X0023930Y0052968D01*
X0023901Y0052994D01*
X0023874Y0053023D01*
X0023850Y0053054D01*
X0023830Y0053088D01*
X0023813Y0053123D01*
X0023800Y0053160D01*
X0023790Y0053198D01*
X0023784Y0053237D01*
X0023782Y0053276D01*
X0143230Y0100776D02*
X0143232Y0100815D01*
X0143238Y0100854D01*
X0143248Y0100892D01*
X0143261Y0100929D01*
X0143278Y0100964D01*
X0143298Y0100998D01*
X0143322Y0101029D01*
X0143349Y0101058D01*
X0143378Y0101084D01*
X0143410Y0101107D01*
X0143444Y0101127D01*
X0143480Y0101143D01*
X0143517Y0101155D01*
X0143556Y0101164D01*
X0143595Y0101169D01*
X0143634Y0101170D01*
X0143673Y0101167D01*
X0143712Y0101160D01*
X0143749Y0101149D01*
X0143786Y0101135D01*
X0143821Y0101117D01*
X0143854Y0101096D01*
X0143885Y0101071D01*
X0143913Y0101044D01*
X0143938Y0101014D01*
X0143960Y0100981D01*
X0143979Y0100947D01*
X0143994Y0100911D01*
X0144006Y0100873D01*
X0144014Y0100835D01*
X0144018Y0100796D01*
X0144018Y0100756D01*
X0144014Y0100717D01*
X0144006Y0100679D01*
X0143994Y0100641D01*
X0143979Y0100605D01*
X0143960Y0100571D01*
X0143938Y0100538D01*
X0143913Y0100508D01*
X0143885Y0100481D01*
X0143854Y0100456D01*
X0143821Y0100435D01*
X0143786Y0100417D01*
X0143749Y0100403D01*
X0143712Y0100392D01*
X0143673Y0100385D01*
X0143634Y0100382D01*
X0143595Y0100383D01*
X0143556Y0100388D01*
X0143517Y0100397D01*
X0143480Y0100409D01*
X0143444Y0100425D01*
X0143410Y0100445D01*
X0143378Y0100468D01*
X0143349Y0100494D01*
X0143322Y0100523D01*
X0143298Y0100554D01*
X0143278Y0100588D01*
X0143261Y0100623D01*
X0143248Y0100660D01*
X0143238Y0100698D01*
X0143232Y0100737D01*
X0143230Y0100776D01*
M02*
